<svg width="210" height="195" viewBox="0 0 210 195" fill="none" xmlns="http://www.w3.org/2000/svg">
<g opacity="0.45">
<path d="M318.923 119.26C318.86 119.26 318.802 119.244 318.745 119.216L248.743 80.0936C247.455 79.373 246.745 78.3919 246.745 77.3387C246.745 76.28 247.455 75.3044 248.743 74.5838L294.329 49.1082C295.388 48.5151 295.972 47.7502 295.972 46.952C295.972 46.1538 295.388 45.3889 294.329 44.7958L217.141 1.65458C214.816 0.357522 211.031 0.357522 208.707 1.65458L182.819 16.1218C181.759 16.7149 181.175 17.4799 181.175 18.278C181.175 19.0762 181.759 19.8412 182.819 20.4343L221.304 41.9411C222.592 42.6617 223.302 43.6428 223.302 44.696C223.302 45.7547 222.592 46.7303 221.304 47.4509L163.762 79.6113C161.237 81.0193 157.137 81.0248 154.612 79.6113L116.402 58.2597C116.23 58.1655 116.173 57.9493 116.27 57.7886C116.367 57.6223 116.591 57.5668 116.757 57.6611L154.967 79.0127C157.292 80.3098 161.077 80.3098 163.402 79.0127L220.943 46.8522C222.003 46.2591 222.587 45.4942 222.587 44.696C222.587 43.8978 222.003 43.1329 220.943 42.5398L182.458 21.0329C181.17 20.3123 180.46 19.3312 180.46 18.278C180.46 17.2193 181.17 16.2438 182.458 15.5232L208.346 1.05594C210.865 -0.351981 214.977 -0.351981 217.496 1.05594L294.684 44.1971C295.972 44.9177 296.682 45.8988 296.682 46.9575C296.682 48.0162 295.972 48.9918 294.684 49.7124L249.099 75.188C248.039 75.7811 247.455 76.5461 247.455 77.3443C247.455 78.1424 248.039 78.9074 249.099 79.5005L319.1 118.623C319.272 118.717 319.329 118.933 319.232 119.1C319.169 119.199 319.049 119.26 318.923 119.26Z" fill="url(#paint0_linear_208_2294)"/>
<path d="M140.451 195C138.584 195 136.717 194.601 135.297 193.808L42.2077 141.782C40.7647 140.972 39.9688 139.88 39.9688 138.7C39.9688 137.519 40.7647 136.427 42.2077 135.618L73.9589 117.875C76.7991 116.284 81.4258 116.284 84.2659 117.875L107.222 130.707C107.394 130.801 107.451 131.017 107.354 131.183C107.256 131.35 107.033 131.405 106.867 131.311L83.9109 118.479C81.2655 116.999 76.9651 117.004 74.3197 118.479L42.5684 136.222C41.3545 136.898 40.6845 137.78 40.6845 138.7C40.6845 139.62 41.3545 140.501 42.5684 141.177L135.658 193.204C138.303 194.684 142.604 194.684 145.249 193.204L265.709 125.879C265.881 125.785 266.099 125.84 266.202 126.006C266.299 126.173 266.242 126.383 266.07 126.483L145.604 193.808C144.184 194.601 142.317 195 140.451 195Z" fill="url(#paint1_linear_208_2294)"/>
<path d="M113.263 134.825C113.201 134.825 113.143 134.809 113.086 134.781L111.271 133.766C111.099 133.672 111.042 133.456 111.139 133.29C111.236 133.123 111.46 133.068 111.626 133.162L113.441 134.177C113.613 134.271 113.67 134.487 113.573 134.653C113.504 134.764 113.384 134.825 113.263 134.825Z" fill="url(#paint2_linear_208_2294)"/>
<path d="M119.825 138.495C119.762 138.495 119.705 138.478 119.648 138.45L117.38 137.181C117.208 137.087 117.151 136.871 117.248 136.704C117.346 136.538 117.569 136.483 117.735 136.577L120.003 137.846C120.175 137.94 120.232 138.157 120.134 138.323C120.071 138.434 119.951 138.495 119.825 138.495Z" fill="url(#paint3_linear_208_2294)"/>
<path d="M147.787 152.491C145.92 152.491 144.053 152.092 142.633 151.299L123.743 140.739C123.571 140.645 123.514 140.429 123.611 140.263C123.708 140.097 123.932 140.041 124.098 140.135L142.988 150.695C145.634 152.175 149.934 152.175 152.579 150.695L231.812 106.412C233.026 105.735 233.695 104.854 233.695 103.934C233.695 103.014 233.026 102.132 231.812 101.456L208.398 88.3692C205.752 86.8892 201.452 86.8892 198.806 88.3692L152.934 114.006C150.094 115.596 145.468 115.596 142.627 114.006L78.5351 78.1867C75.8896 76.7068 71.5893 76.7068 68.9438 78.1867L0.534022 116.422C0.362239 116.517 0.144646 116.461 0.0473018 116.295C-0.050042 116.129 0.00721987 115.918 0.179003 115.824L68.6003 77.5881C71.4404 75.9972 76.0671 75.9972 78.9073 77.5881L143 113.407C145.645 114.887 149.945 114.887 152.591 113.407L198.463 87.7706C201.303 86.1797 205.93 86.1797 208.77 87.7706L232.184 100.858C233.627 101.667 234.423 102.759 234.423 103.94C234.423 105.12 233.627 106.212 232.184 107.021L152.94 151.299C151.52 152.092 149.653 152.491 147.787 152.491Z" fill="url(#paint4_linear_208_2294)"/>
<path d="M229.521 169.225C229.458 169.225 229.401 169.208 229.344 169.181L209.325 157.995C209.154 157.901 209.096 157.685 209.194 157.518C209.291 157.352 209.509 157.297 209.686 157.391L229.705 168.577C229.876 168.671 229.934 168.887 229.836 169.053C229.768 169.164 229.647 169.225 229.521 169.225Z" fill="url(#paint5_linear_208_2294)"/>
<path d="M174.79 46.1593C174.664 46.1593 174.544 46.0983 174.481 45.9875C174.384 45.8212 174.441 45.6105 174.613 45.5108L200.981 30.7775C201.153 30.6832 201.371 30.7387 201.474 30.905C201.571 31.0713 201.514 31.2819 201.342 31.3817L174.973 46.115C174.91 46.1427 174.853 46.1593 174.79 46.1593Z" fill="#BBE8A6"/>
<path d="M175.055 52.6502H163.179C162.979 52.6502 162.818 52.495 162.818 52.301V45.666C162.818 45.5718 162.858 45.4831 162.921 45.4221C162.99 45.3556 163.082 45.3223 163.173 45.3223H175.049C175.25 45.3223 175.41 45.4775 175.41 45.6715V52.3065C175.416 52.4894 175.255 52.6502 175.055 52.6502ZM163.54 51.9518H174.694V46.0097H163.54V51.9518Z" fill="#BBE8A6"/>
<path d="M143.287 179.596C140.985 179.596 138.688 179.108 136.936 178.127C135.173 177.14 134.199 175.81 134.199 174.374C134.199 172.944 135.173 171.609 136.936 170.627C140.441 168.671 146.138 168.671 149.637 170.627C151.4 171.614 152.374 172.944 152.374 174.38C152.374 175.81 151.4 177.146 149.637 178.127C147.885 179.108 145.588 179.596 143.287 179.596ZM143.287 169.846C141.116 169.846 138.946 170.306 137.291 171.232C135.757 172.091 134.915 173.205 134.915 174.38C134.915 175.555 135.757 176.675 137.291 177.528C140.595 179.374 145.972 179.374 149.276 177.528C150.811 176.669 151.652 175.555 151.652 174.38C151.652 173.205 150.811 172.085 149.276 171.232C147.627 170.306 145.457 169.846 143.287 169.846Z" fill="url(#paint6_linear_208_2294)"/>
<path d="M121.097 167.196C118.795 167.196 116.499 166.708 114.747 165.727C112.983 164.741 112.01 163.41 112.01 161.975C112.01 160.545 112.983 159.209 114.747 158.228C118.251 156.271 123.949 156.271 127.447 158.228C129.211 159.214 130.184 160.545 130.184 161.975C130.184 163.405 129.211 164.741 127.447 165.722C125.701 166.708 123.399 167.196 121.097 167.196ZM121.097 157.446C118.927 157.446 116.757 157.906 115.108 158.832C113.573 159.691 112.731 160.805 112.731 161.98C112.731 163.155 113.573 164.275 115.108 165.129C118.412 166.975 123.788 166.975 127.092 165.129C128.627 164.27 129.469 163.155 129.469 161.98C129.469 160.805 128.627 159.691 127.092 158.832C125.437 157.906 123.267 157.446 121.097 157.446Z" fill="url(#paint7_linear_208_2294)"/>
<path d="M98.9135 154.797C96.6116 154.797 94.3154 154.309 92.5633 153.328C90.7996 152.341 89.8262 151.011 89.8262 149.581C89.8262 148.151 90.7996 146.815 92.5633 145.834C96.0619 143.877 101.759 143.877 105.264 145.834C107.027 146.82 108.001 148.151 108.001 149.581C108.001 151.011 107.027 152.347 105.264 153.328C103.512 154.309 101.215 154.797 98.9135 154.797ZM98.9135 145.046C96.7433 145.046 94.5731 145.507 92.924 146.432C91.3894 147.291 90.5477 148.406 90.5477 149.581C90.5477 150.756 91.3894 151.87 92.924 152.729C96.228 154.575 101.605 154.575 104.909 152.729C106.443 151.87 107.285 150.756 107.285 149.581C107.285 148.406 106.443 147.291 104.909 146.432C103.254 145.507 101.084 145.046 98.9135 145.046Z" fill="url(#paint8_linear_208_2294)"/>
<path d="M76.7319 142.397C74.43 142.397 72.1338 141.909 70.3816 140.928C68.618 139.941 67.6445 138.611 67.6445 137.181C67.6445 135.751 68.618 134.415 70.3816 133.434C73.886 131.477 79.5835 131.477 83.0821 133.434C84.8458 134.421 85.8192 135.751 85.8192 137.181C85.8192 138.611 84.8458 139.947 83.0821 140.928C81.3299 141.909 79.028 142.397 76.7319 142.397ZM76.7319 132.647C74.5617 132.647 72.3915 133.107 70.7366 134.033C69.202 134.892 68.3603 136.006 68.3603 137.181C68.3603 138.356 69.202 139.47 70.7366 140.329C74.0406 142.175 79.4174 142.175 82.7214 140.329C84.256 139.47 85.0977 138.356 85.0977 137.181C85.0977 136.006 84.256 134.892 82.7214 134.033C81.0723 133.112 78.9021 132.647 76.7319 132.647Z" fill="url(#paint9_linear_208_2294)"/>
<path d="M82.9034 134.082C82.7774 134.082 82.6572 134.021 82.5942 133.911C82.4968 133.744 82.5541 133.534 82.7259 133.434L97.2358 125.324C97.4076 125.23 97.6252 125.286 97.7283 125.452C97.8256 125.618 97.7684 125.829 97.5966 125.929L83.0866 134.038C83.0236 134.066 82.9606 134.082 82.9034 134.082Z" fill="url(#paint10_linear_208_2294)"/>
<path d="M162.446 184.341C162.383 184.341 162.32 184.324 162.263 184.291L150.238 177.484C150.066 177.39 150.009 177.174 150.112 177.007C150.209 176.841 150.433 176.786 150.604 176.885L162.629 183.692C162.801 183.786 162.858 184.003 162.755 184.169C162.686 184.28 162.566 184.341 162.446 184.341Z" fill="url(#paint11_linear_208_2294)"/>
</g>
<defs>
<linearGradient id="paint0_linear_208_2294" x1="217.751" y1="0" x2="217.751" y2="119.26" gradientUnits="userSpaceOnUse">
<stop stop-color="#7BD834"/>
<stop offset="1" stop-color="#7BD834" stop-opacity="0"/>
</linearGradient>
<linearGradient id="paint1_linear_208_2294" x1="153.109" y1="116.682" x2="153.109" y2="195" gradientUnits="userSpaceOnUse">
<stop stop-color="#7BD834"/>
<stop offset="1" stop-color="#7BD834" stop-opacity="0"/>
</linearGradient>
<linearGradient id="paint2_linear_208_2294" x1="112.356" y1="133.116" x2="112.356" y2="134.825" gradientUnits="userSpaceOnUse">
<stop stop-color="#7BD834"/>
<stop offset="1" stop-color="#7BD834" stop-opacity="0"/>
</linearGradient>
<linearGradient id="paint3_linear_208_2294" x1="118.691" y1="136.531" x2="118.691" y2="138.495" gradientUnits="userSpaceOnUse">
<stop stop-color="#7BD834"/>
<stop offset="1" stop-color="#7BD834" stop-opacity="0"/>
</linearGradient>
<linearGradient id="paint4_linear_208_2294" x1="117.211" y1="76.395" x2="117.211" y2="152.491" gradientUnits="userSpaceOnUse">
<stop stop-color="#7BD834"/>
<stop offset="1" stop-color="#7BD834" stop-opacity="0"/>
</linearGradient>
<linearGradient id="paint5_linear_208_2294" x1="219.515" y1="157.345" x2="219.515" y2="169.225" gradientUnits="userSpaceOnUse">
<stop stop-color="#7BD834"/>
<stop offset="1" stop-color="#7BD834" stop-opacity="0"/>
</linearGradient>
<linearGradient id="paint6_linear_208_2294" x1="143.287" y1="169.16" x2="143.287" y2="179.596" gradientUnits="userSpaceOnUse">
<stop stop-color="#7BD834"/>
<stop offset="1" stop-color="#7BD834" stop-opacity="0"/>
</linearGradient>
<linearGradient id="paint7_linear_208_2294" x1="121.097" y1="156.76" x2="121.097" y2="167.196" gradientUnits="userSpaceOnUse">
<stop stop-color="#7BD834"/>
<stop offset="1" stop-color="#7BD834" stop-opacity="0"/>
</linearGradient>
<linearGradient id="paint8_linear_208_2294" x1="98.9135" y1="144.366" x2="98.9135" y2="154.797" gradientUnits="userSpaceOnUse">
<stop stop-color="#7BD834"/>
<stop offset="1" stop-color="#7BD834" stop-opacity="0"/>
</linearGradient>
<linearGradient id="paint9_linear_208_2294" x1="76.7319" y1="131.966" x2="76.7319" y2="142.397" gradientUnits="userSpaceOnUse">
<stop stop-color="#7BD834"/>
<stop offset="1" stop-color="#7BD834" stop-opacity="0"/>
</linearGradient>
<linearGradient id="paint10_linear_208_2294" x1="90.1612" y1="125.279" x2="90.1612" y2="134.082" gradientUnits="userSpaceOnUse">
<stop stop-color="#7BD834"/>
<stop offset="1" stop-color="#7BD834" stop-opacity="0"/>
</linearGradient>
<linearGradient id="paint11_linear_208_2294" x1="156.434" y1="176.836" x2="156.434" y2="184.341" gradientUnits="userSpaceOnUse">
<stop stop-color="#7BD834"/>
<stop offset="1" stop-color="#7BD834" stop-opacity="0"/>
</linearGradient>
</defs>
</svg>
