<svg width="501" height="282" viewBox="0 0 501 282" fill="none" xmlns="http://www.w3.org/2000/svg">
<g clip-path="url(#clip0_208_1621)">
<g opacity="0.5">
<path d="M246.594 149.848L364.115 217.817C365.131 218.406 365.131 219.877 364.115 220.466L298.86 258.206C295.896 259.922 292.244 259.922 289.28 258.206L176.553 193.005C175.537 192.416 175.537 190.944 176.553 190.355L246.594 149.848Z" fill="#32589D" fill-opacity="0.6"/>
</g>
<path d="M250.254 119.989L265.963 26.6531L264.704 26.1233L266.601 25.0298V25.0382C266.97 24.7943 267.491 24.8111 268.062 25.1392L393.576 97.7339C394.609 98.3311 395.39 99.8619 395.205 100.93L379.378 195.015C379.294 195.503 379.051 195.831 378.715 195.974L376.86 197.05L376.541 195.318L376.65 195.351L251.891 123.194C250.85 122.588 250.077 121.057 250.254 119.989Z" fill="url(#paint0_linear_208_1621)"/>
<path d="M392.871 100.291L394.936 99.374C395.171 99.9039 395.28 100.459 395.205 100.93L379.378 195.015C379.294 195.503 379.051 195.831 378.715 195.974L376.859 197.05L376.54 195.317L376.649 195.351L370.335 191.701L392.871 100.291Z" fill="url(#paint1_linear_208_1621)"/>
<path d="M249.918 124.312L375.433 196.907C376.398 197.471 377.229 197.143 377.406 196.142L393.233 102.057C393.417 100.989 392.636 99.4582 391.604 98.861L266.089 26.2662C265.124 25.7027 264.292 26.0307 264.116 27.0316L248.289 121.116C248.105 122.193 248.886 123.724 249.918 124.312Z" fill="#32589D"/>
<g opacity="0.51">
<path d="M267.726 32.28L388.715 102.251L373.711 190.86L252.806 120.931L267.726 32.28Z" fill="#102140"/>
</g>
<path d="M171.02 168.857L177.871 172.44L246.552 132.715C247.702 132.05 249.709 132.135 251.036 132.9L369.497 201.415C370.631 200.776 375.803 198.287 375.803 198.287L373.292 204.83L373.284 204.822C373.183 205.116 372.956 205.385 372.587 205.604L300.246 247.44C299.095 248.105 297.089 248.02 295.762 247.255L174.538 177.141C173.992 176.83 173.656 176.443 173.522 176.056L173.514 176.065L171.02 168.857Z" fill="url(#paint2_linear_208_1621)"/>
<path d="M172.077 169.984L296.316 241.838C297.676 242.629 299.733 242.713 300.908 242.032L375.046 199.153C376.222 198.472 376.079 197.286 374.719 196.495L250.481 124.64C249.121 123.85 247.064 123.766 245.888 124.447L171.75 167.326C170.566 168.007 170.717 169.202 172.077 169.984Z" fill="url(#paint3_linear_208_1621)"/>
<path d="M333.787 226.295V224.932C333.787 224.806 333.712 224.747 333.611 224.798L328.808 227.573C328.707 227.632 328.632 227.784 328.632 227.91V229.272C328.632 229.399 328.707 229.457 328.808 229.407L333.611 226.631C333.712 226.581 333.787 226.43 333.787 226.295Z" fill="#2859CB"/>
<path d="M326.6 230.458V229.096C326.6 228.97 326.524 228.911 326.423 228.961L321.621 231.737C321.52 231.796 321.444 231.947 321.444 232.073V233.436C321.444 233.562 321.52 233.621 321.621 233.57L326.423 230.795C326.524 230.736 326.6 230.585 326.6 230.458Z" fill="#2859CB"/>
<path d="M355.719 195.141L252.48 135.432C251.792 135.036 250.943 135.036 250.255 135.432L213.488 156.737C212.959 157.039 212.959 157.805 213.488 158.108L316.686 217.792C317.374 218.187 318.222 218.187 318.911 217.792L355.728 196.512C356.248 196.209 356.248 195.444 355.719 195.141Z" fill="#ADC8FF"/>
<path d="M355.719 196.512L355.349 196.722L252.479 137.223C251.791 136.828 250.943 136.828 250.254 137.223L213.857 158.318L213.487 158.108C212.958 157.805 212.958 157.039 213.487 156.737L250.254 135.432C250.943 135.036 251.791 135.036 252.479 135.432L355.719 195.141C356.247 195.444 356.247 196.209 355.719 196.512Z" fill="#91AFFF"/>
<path d="M247.475 140.823L337.154 192.693L341.143 190.389L251.463 138.518L247.475 140.823Z" fill="#32589D"/>
<path d="M237.702 146.475L321.815 195.124L325.803 192.819L241.69 144.171L237.702 146.475Z" fill="#32589D"/>
<path d="M231.338 150.159L330.371 207.438L334.359 205.133L235.326 147.855L231.338 150.159Z" fill="#32589D"/>
<path d="M224.965 153.843L324.006 211.122L327.994 208.817L228.953 151.539L224.965 153.843Z" fill="#32589D"/>
<path d="M218.599 157.527L317.641 214.806L321.629 212.501L222.588 155.223L218.599 157.527Z" fill="#32589D"/>
<path d="M342.578 195.822L346.567 198.135L350.555 195.822L346.567 193.518L342.578 195.822Z" fill="#32589D"/>
<path d="M328.515 199.001L336.785 203.787L340.773 201.483L332.503 196.688L328.515 199.001Z" fill="#32589D"/>
<path d="M248.498 209.591L220.657 193.492C219.565 192.861 219.565 191.844 220.657 191.213L239.691 180.203C240.782 179.572 242.546 179.572 243.629 180.203L271.47 196.302C272.562 196.932 272.562 197.95 271.47 198.581L252.436 209.591C251.353 210.213 249.59 210.213 248.498 209.591Z" fill="url(#paint4_linear_208_1621)"/>
<path d="M271.479 197.235L243.637 181.137C242.546 180.506 240.783 180.506 239.7 181.137L220.666 192.147C220.33 192.34 220.111 192.576 219.985 192.819C219.7 192.273 219.918 191.65 220.666 191.213L239.7 180.203C240.791 179.572 242.554 179.572 243.637 180.203L271.479 196.302C272.235 196.739 272.453 197.353 272.159 197.908C272.033 197.656 271.815 197.429 271.479 197.235Z" fill="#91AFFF"/>
<g opacity="0.11">
<mask id="mask0_208_1621" style="mask-type:luminance" maskUnits="userSpaceOnUse" x="252" y="32" width="137" height="159">
<path d="M267.726 32.28L388.715 102.251L373.711 190.86L252.806 120.931L267.726 32.28Z" fill="white"/>
</mask>
<g mask="url(#mask0_208_1621)">
<path d="M250.355 124.489L374.593 196.344C375.953 197.134 378.01 197.218 379.186 196.537L453.324 153.658C454.499 152.977 454.357 151.791 452.996 151L328.758 79.1457C327.398 78.3551 325.341 78.271 324.165 78.9523L250.027 121.831C248.852 122.512 248.994 123.707 250.355 124.489Z" fill="url(#paint5_linear_208_1621)"/>
<path d="M374.961 137.375L347.12 121.276C346.028 120.645 346.028 119.628 347.12 118.997L366.154 107.987C367.245 107.356 369.008 107.356 370.092 107.987L397.933 124.085C399.025 124.716 399.025 125.734 397.933 126.365L378.899 137.375C377.816 138.005 376.053 138.005 374.961 137.375Z" fill="url(#paint6_linear_208_1621)"/>
<path d="M397.942 125.019L370.1 108.92C369.009 108.29 367.246 108.29 366.163 108.92L347.128 119.93C346.793 120.124 346.574 120.359 346.448 120.603C346.163 120.056 346.381 119.434 347.128 118.997L366.163 107.987C367.254 107.356 369.017 107.356 370.1 107.987L397.942 124.085C398.698 124.523 398.916 125.137 398.622 125.692C398.496 125.448 398.278 125.212 397.942 125.019Z" fill="#91AFFF"/>
<path d="M410.176 162.54L306.937 102.831C306.249 102.436 305.401 102.436 304.712 102.831L267.945 124.136C267.416 124.439 267.416 125.204 267.945 125.507L371.143 185.191C371.831 185.586 372.679 185.586 373.368 185.191L410.185 163.911C410.705 163.608 410.705 162.843 410.176 162.54Z" fill="#ADC8FF"/>
<path d="M410.176 163.911L409.806 164.121L306.936 104.622C306.248 104.227 305.4 104.227 304.711 104.622L268.314 125.717L267.944 125.507C267.415 125.204 267.415 124.439 267.944 124.136L304.711 102.831C305.4 102.436 306.248 102.436 306.936 102.831L410.176 162.54C410.705 162.843 410.705 163.608 410.176 163.911Z" fill="#91AFFF"/>
<path d="M277.568 122.681L367.508 174.702L363.948 176.763L274.008 124.741L277.568 122.681Z" fill="#32589D"/>
<path d="M287.047 117.197L372.537 166.645L368.969 168.705L283.487 119.257L287.047 117.197Z" fill="#32589D"/>
<path d="M378.918 170.337L386.902 174.955L383.342 177.015L375.358 172.398L378.918 170.337Z" fill="#32589D"/>
<path d="M371.864 177.217L377.422 180.439L373.862 182.491L368.304 179.278L371.864 177.217Z" fill="#32589D"/>
<path d="M292.982 113.765L392.838 171.523L389.278 173.584L289.422 115.826L292.982 113.765Z" fill="#32589D"/>
<path d="M298.918 110.333L398.773 168.083L395.213 170.144L295.358 112.394L298.918 110.333Z" fill="#32589D"/>
<path d="M304.863 106.893L404.719 164.651L401.15 166.712L301.295 108.954L304.863 106.893Z" fill="#32589D"/>
</g>
</g>
<path opacity="0.42" d="M307.878 189.817L334.645 173.323L274.469 138.518L246.073 157.637L307.878 189.817Z" fill="url(#paint7_radial_208_1621)"/>
<path opacity="0.42" d="M334.644 173.323L340.773 134.523L284.309 102.074V144.129L334.644 173.323Z" fill="url(#paint8_radial_208_1621)"/>
<path opacity="0.5" d="M339.044 86.5558L332.646 82.9055L332.864 81.5261L339.254 85.168L339.044 86.5558Z" fill="#7BD834"/>
<path opacity="0.5" d="M342.317 88.4231L340.016 87.1109L340.235 85.7231L342.535 87.0352L342.317 88.4231Z" fill="#7BD834"/>
<path opacity="0.5" d="M344.862 89.8697L343.3 88.9781L343.518 87.5903L345.08 88.4819L344.862 89.8697Z" fill="#7BD834"/>
<path opacity="0.5" d="M335.635 88.0614L332.151 86.0764L332.369 84.6886L335.854 86.6736L335.635 88.0614Z" fill="#7BD834"/>
<path opacity="0.5" d="M340.881 91.0473L336.608 88.6165L336.826 87.2287L341.1 89.6679L340.881 91.0473Z" fill="#7BD834"/>
<path opacity="0.5" d="M343.427 92.5023L341.857 91.6108L342.075 90.223L343.637 91.1145L343.427 92.5023Z" fill="#7BD834"/>
<path opacity="0.5" d="M345.844 93.8733L344.274 92.9817L344.492 91.6024L346.062 92.4939L345.844 93.8733Z" fill="#7BD834"/>
<path d="M334.174 90.6771L331.655 89.2389L331.865 87.8511L334.393 89.2893L334.174 90.6771Z" fill="#7BD834"/>
<path d="M336.012 91.7285L335.147 91.2323L335.366 89.8445L336.23 90.3407L336.012 91.7285Z" fill="#7BD834"/>
<path opacity="0.5" d="M338.557 93.1752L336.987 92.2836L337.205 90.8958L338.775 91.7874L338.557 93.1752Z" fill="#7BD834"/>
<path opacity="0.5" d="M340.461 97.7087L331.15 92.4098L331.368 91.022L340.68 96.3209L340.461 97.7087Z" fill="#7BD834"/>
<path opacity="0.5" d="M343.745 99.5759L341.436 98.2638L341.655 96.8844L343.955 98.1965L343.745 99.5759Z" fill="#7BD834"/>
<path opacity="0.5" d="M333.183 97.0106L330.655 95.5723L330.874 94.1845L333.393 95.6228L333.183 97.0106Z" fill="#7BD834"/>
<path opacity="0.5" d="M339.094 100.383L334.157 97.5657L334.376 96.1779L339.312 98.9956L339.094 100.383Z" fill="#7BD834"/>
<path opacity="0.5" d="M341.637 101.83L340.075 100.938L340.294 99.5507L341.855 100.442L341.637 101.83Z" fill="#7BD834"/>
<path opacity="0.5" d="M335.325 101.679L330.161 98.7432L330.379 97.3554L335.543 100.291L335.325 101.679Z" fill="#7BD834"/>
<path d="M340.026 104.362L336.298 102.234L336.516 100.846L340.244 102.974L340.026 104.362Z" fill="#7BD834"/>
<path opacity="0.5" d="M343.528 106.355L341.009 104.917L341.227 103.529L343.746 104.967L343.528 106.355Z" fill="#7BD834"/>
<path opacity="0.5" d="M331.411 102.898L329.665 101.906L329.883 100.518L331.621 101.51L331.411 102.898Z" fill="#7BD834"/>
<path opacity="0.5" d="M334.686 104.765L332.385 103.453L332.604 102.066L334.904 103.378L334.686 104.765Z" fill="#7BD834"/>
<path opacity="0.5" d="M339.38 107.44L335.669 105.321L335.879 103.941L339.59 106.052L339.38 107.44Z" fill="#7BD834"/>
<path opacity="0.5" d="M334.509 108.113L329.169 105.068L329.387 103.689L334.719 106.725L334.509 108.113Z" fill="#7BD834"/>
<path opacity="0.5" d="M340.487 111.519L335.483 108.668L335.701 107.28L340.705 110.132L340.487 111.519Z" fill="#7BD834"/>
<path d="M343.024 112.966L341.462 112.075L341.681 110.687L343.242 111.578L343.024 112.966Z" fill="#7BD834"/>
<path opacity="0.5" d="M345.467 114.354L343.906 113.462L344.115 112.083L345.686 112.975L345.467 114.354Z" fill="#7BD834"/>
<path opacity="0.5" d="M331.874 110.064L328.675 108.239L328.893 106.851L332.092 108.677L331.874 110.064Z" fill="#7BD834"/>
<path d="M349.22 92.3509L353.653 94.8742L353.871 93.4948L349.438 90.9631L349.22 92.3509Z" fill="#7BD834"/>
<path opacity="0.5" d="M349.672 96.0602L353.157 98.0452L353.375 96.6573L349.891 94.6724L349.672 96.0602Z" fill="#7BD834"/>
<path opacity="0.5" d="M350.135 99.7694L352.663 101.208L352.881 99.8199L350.354 98.39L350.135 99.7694Z" fill="#7BD834"/>
<path opacity="0.5" d="M348.498 102.284L352.167 104.379L352.377 102.991L348.716 100.896L348.498 102.284Z" fill="#7BD834"/>
<path opacity="0.5" d="M349.144 106.103L351.663 107.541L351.881 106.153L349.362 104.723L349.144 106.103Z" fill="#7BD834"/>
<path opacity="0.5" d="M347.968 108.887L351.166 110.712L351.385 109.324L348.186 107.499L347.968 108.887Z" fill="#7BD834"/>
<path opacity="0.5" d="M348.934 112.882L350.672 113.874L350.891 112.487L349.144 111.494L348.934 112.882Z" fill="#7BD834"/>
<path opacity="0.5" d="M346.801 115.119L350.176 117.037L350.395 115.658L347.019 113.732L346.801 115.119Z" fill="#7BD834"/>
<path opacity="0.5" d="M346.483 118.383L349.682 120.208L349.9 118.82L346.701 116.995L346.483 118.383Z" fill="#7BD834"/>
<path opacity="0.5" d="M334.207 111.393L332.847 110.619L333.066 109.232L334.426 110.005L334.207 111.393Z" fill="#7BD834"/>
<path opacity="0.5" d="M338.247 113.689L335.182 111.948L335.4 110.561L338.465 112.31L338.247 113.689Z" fill="#7BD834"/>
<path opacity="0.5" d="M363.854 100.627L357.456 96.9853L357.674 95.5975L364.072 99.2395L363.854 100.627Z" fill="#7BD834"/>
<path opacity="0.5" d="M367.129 102.495L364.829 101.182L365.047 99.803L367.348 101.115L367.129 102.495Z" fill="#7BD834"/>
<path d="M369.672 103.95L368.111 103.058L368.329 101.67L369.891 102.562L369.672 103.95Z" fill="#7BD834"/>
<path opacity="0.5" d="M360.446 102.133L356.961 100.148L357.18 98.7685L360.664 100.753L360.446 102.133Z" fill="#7BD834"/>
<path opacity="0.5" d="M365.692 105.127L361.418 102.696L361.637 101.309L365.91 103.739L365.692 105.127Z" fill="#7BD834"/>
<path d="M368.237 106.574L366.667 105.682L366.885 104.294L368.455 105.186L368.237 106.574Z" fill="#7BD834"/>
<path opacity="0.5" d="M370.655 107.953L369.085 107.062L369.303 105.674L370.873 106.565L370.655 107.953Z" fill="#7BD834"/>
<path opacity="0.5" d="M358.985 104.757L356.466 103.319L356.684 101.931L359.203 103.369L358.985 104.757Z" fill="#7BD834"/>
<path opacity="0.5" d="M360.823 105.8L359.958 105.312L360.176 103.924L361.041 104.412L360.823 105.8Z" fill="#7BD834"/>
<path opacity="0.5" d="M363.368 107.247L361.798 106.355L362.016 104.976L363.586 105.867L363.368 107.247Z" fill="#7BD834"/>
<path opacity="0.5" d="M365.274 111.789L355.971 106.481L356.181 105.094L365.492 110.401L365.274 111.789Z" fill="#7BD834"/>
<path opacity="0.5" d="M368.555 113.656L366.246 112.344L366.464 110.956L368.773 112.268L368.555 113.656Z" fill="#7BD834"/>
<path opacity="0.5" d="M357.993 111.082L355.465 109.652L355.684 108.264L358.211 109.703L357.993 111.082Z" fill="#7BD834"/>
<path opacity="0.5" d="M363.913 114.455L358.968 111.646L359.186 110.258L364.123 113.075L363.913 114.455Z" fill="#7BD834"/>
<path opacity="0.5" d="M366.448 115.902L364.886 115.018L365.104 113.631L366.666 114.522L366.448 115.902Z" fill="#7BD834"/>
<path d="M360.135 115.759L354.972 112.815L355.19 111.427L360.354 114.371L360.135 115.759Z" fill="#7BD834"/>
<path opacity="0.5" d="M364.836 118.433L361.108 116.314L361.327 114.926L365.055 117.054L364.836 118.433Z" fill="#7BD834"/>
<path opacity="0.5" d="M368.338 120.427L365.819 118.997L366.038 117.609L368.557 119.047L368.338 120.427Z" fill="#7BD834"/>
<path opacity="0.5" d="M356.221 116.978L354.475 115.986L354.693 114.598L356.439 115.59L356.221 116.978Z" fill="#7BD834"/>
<path opacity="0.5" d="M359.497 118.845L357.196 117.533L357.414 116.145L359.715 117.458L359.497 118.845Z" fill="#7BD834"/>
<path d="M364.19 121.512L360.479 119.401L360.697 118.013L364.408 120.124L364.19 121.512Z" fill="#7BD834"/>
<path opacity="0.5" d="M359.321 122.193L353.981 119.148L354.199 117.76L359.539 120.805L359.321 122.193Z" fill="#7BD834"/>
<path opacity="0.5" d="M365.297 125.591L360.293 122.748L360.512 121.36L365.516 124.212L365.297 125.591Z" fill="#7BD834"/>
<path opacity="0.5" d="M367.843 127.046L366.273 126.154L366.491 124.767L368.053 125.658L367.843 127.046Z" fill="#7BD834"/>
<path opacity="0.5" d="M370.278 128.434L368.716 127.542L368.934 126.154L370.496 127.046L370.278 128.434Z" fill="#7BD834"/>
<path opacity="0.5" d="M356.684 124.136L353.485 122.311L353.703 120.931L356.902 122.748L356.684 124.136Z" fill="#7BD834"/>
<path d="M374.03 106.422L378.463 108.954L378.682 107.566L374.248 105.043L374.03 106.422Z" fill="#7BD834"/>
<path opacity="0.5" d="M374.483 110.132L377.967 112.117L378.186 110.737L374.701 108.744L374.483 110.132Z" fill="#7BD834"/>
<path opacity="0.5" d="M374.946 113.849L377.473 115.288L377.691 113.9L375.164 112.461L374.946 113.849Z" fill="#7BD834"/>
<path opacity="0.5" d="M373.308 116.364L376.977 118.45L377.195 117.062L373.526 114.976L373.308 116.364Z" fill="#7BD834"/>
<path opacity="0.5" d="M373.954 120.183L376.473 121.621L376.691 120.233L374.173 118.795L373.954 120.183Z" fill="#7BD834"/>
<path opacity="0.5" d="M372.78 122.958L375.979 124.783L376.197 123.396L372.998 121.579L372.78 122.958Z" fill="#7BD834"/>
<path opacity="0.5" d="M373.745 126.953L375.483 127.946L375.701 126.567L373.963 125.574L373.745 126.953Z" fill="#7BD834"/>
<path opacity="0.5" d="M371.612 129.191L374.987 131.117L375.205 129.729L371.83 127.803L371.612 129.191Z" fill="#7BD834"/>
<path opacity="0.5" d="M371.294 132.463L374.493 134.279L374.711 132.9L371.512 131.075L371.294 132.463Z" fill="#7BD834"/>
<path d="M359.018 125.465L357.658 124.691L357.876 123.303L359.236 124.085L359.018 125.465Z" fill="#7BD834"/>
<path opacity="0.5" d="M363.057 127.769L359.992 126.028L360.211 124.641L363.275 126.382L363.057 127.769Z" fill="#7BD834"/>
<path opacity="0.5" d="M334.569 115.069L328.171 111.427L328.389 110.039L334.787 113.681L334.569 115.069Z" fill="#7BD834"/>
<path opacity="0.5" d="M337.85 116.936L335.541 115.624L335.759 114.236L338.068 115.548L337.85 116.936Z" fill="#7BD834"/>
<path opacity="0.5" d="M340.387 118.383L338.825 117.491L339.044 116.103L340.605 116.995L340.387 118.383Z" fill="#7BD834"/>
<path opacity="0.5" d="M331.159 116.574L327.674 114.589L327.893 113.202L331.377 115.187L331.159 116.574Z" fill="#7BD834"/>
<path opacity="0.5" d="M336.407 119.56L332.141 117.13L332.351 115.742L336.625 118.181L336.407 119.56Z" fill="#7BD834"/>
<path opacity="0.5" d="M338.952 121.015L337.39 120.124L337.608 118.736L339.17 119.628L338.952 121.015Z" fill="#7BD834"/>
<path opacity="0.5" d="M341.37 122.395L339.808 121.503L340.026 120.115L341.588 121.007L341.37 122.395Z" fill="#7BD834"/>
<path opacity="0.5" d="M329.698 119.19L327.179 117.752L327.397 116.373L329.916 117.802L329.698 119.19Z" fill="#7BD834"/>
<path opacity="0.5" d="M331.538 120.242L330.681 119.745L330.899 118.366L331.756 118.854L331.538 120.242Z" fill="#7BD834"/>
<path opacity="0.5" d="M334.081 121.688L332.519 120.797L332.737 119.409L334.299 120.3L334.081 121.688Z" fill="#7BD834"/>
<path opacity="0.5" d="M335.987 126.222L326.684 120.923L326.902 119.535L336.205 124.834L335.987 126.222Z" fill="#7BD834"/>
<path opacity="0.5" d="M339.27 128.089L336.969 126.777L337.188 125.397L339.488 126.71L339.27 128.089Z" fill="#7BD834"/>
<path opacity="0.5" d="M328.707 125.524L326.189 124.085L326.407 122.698L328.926 124.136L328.707 125.524Z" fill="#7BD834"/>
<path opacity="0.5" d="M334.627 128.896L329.682 126.079L329.9 124.691L334.846 127.509L334.627 128.896Z" fill="#7BD834"/>
<path opacity="0.5" d="M337.17 130.343L335.6 129.452L335.819 128.064L337.389 128.955L337.17 130.343Z" fill="#7BD834"/>
<path opacity="0.5" d="M330.848 130.192L325.693 127.256L325.903 125.868L331.066 128.804L330.848 130.192Z" fill="#7BD834"/>
<path opacity="0.5" d="M335.559 132.875L331.823 130.747L332.041 129.367L335.777 131.487L335.559 132.875Z" fill="#7BD834"/>
<path opacity="0.5" d="M339.06 134.868L336.532 133.43L336.751 132.042L339.27 133.48L339.06 134.868Z" fill="#7BD834"/>
<path opacity="0.5" d="M326.936 131.411L325.19 130.419L325.408 129.031L327.154 130.024L326.936 131.411Z" fill="#7BD834"/>
<path opacity="0.5" d="M330.219 133.279L327.91 131.966L328.129 130.587L330.438 131.899L330.219 133.279Z" fill="#7BD834"/>
<path opacity="0.5" d="M334.905 135.953L331.194 133.842L331.412 132.454L335.123 134.565L334.905 135.953Z" fill="#7BD834"/>
<path opacity="0.5" d="M330.034 136.626L324.694 133.59L324.912 132.202L330.252 135.238L330.034 136.626Z" fill="#7BD834"/>
<path opacity="0.5" d="M336.012 140.033L331.008 137.181L331.226 135.802L336.23 138.645L336.012 140.033Z" fill="#7BD834"/>
<path opacity="0.5" d="M338.557 141.479L336.987 140.588L337.205 139.2L338.775 140.091L338.557 141.479Z" fill="#7BD834"/>
<path opacity="0.5" d="M340.991 142.867L339.429 141.975L339.647 140.596L341.209 141.488L340.991 142.867Z" fill="#7BD834"/>
<path opacity="0.5" d="M327.397 138.577L324.198 136.752L324.416 135.364L327.615 137.19L327.397 138.577Z" fill="#7BD834"/>
<path opacity="0.5" d="M344.745 120.864L349.178 123.387L349.396 122.008L344.963 119.476L344.745 120.864Z" fill="#7BD834"/>
<path opacity="0.5" d="M345.198 124.573L348.682 126.558L348.9 125.17L345.416 123.185L345.198 124.573Z" fill="#7BD834"/>
<path opacity="0.5" d="M345.667 128.291L348.186 129.721L348.404 128.341L345.885 126.903L345.667 128.291Z" fill="#7BD834"/>
<path opacity="0.5" d="M344.023 130.797L347.692 132.892L347.91 131.504L344.241 129.418L344.023 130.797Z" fill="#7BD834"/>
<path opacity="0.5" d="M344.669 134.616L347.196 136.054L347.414 134.666L344.887 133.236L344.669 134.616Z" fill="#7BD834"/>
<path opacity="0.5" d="M343.501 137.4L346.7 139.225L346.918 137.837L343.719 136.012L343.501 137.4Z" fill="#7BD834"/>
<path opacity="0.5" d="M344.46 141.395L346.206 142.388L346.416 141L344.678 140.007L344.46 141.395Z" fill="#7BD834"/>
<path opacity="0.5" d="M342.326 143.632L345.702 145.558L345.92 144.171L342.545 142.245L342.326 143.632Z" fill="#7BD834"/>
<path opacity="0.5" d="M342.007 146.896L345.206 148.721L345.424 147.333L342.225 145.516L342.007 146.896Z" fill="#7BD834"/>
<path opacity="0.5" d="M329.733 139.906L328.373 139.132L328.591 137.745L329.951 138.518L329.733 139.906Z" fill="#7BD834"/>
<path opacity="0.5" d="M333.77 142.203L330.714 140.461L330.932 139.074L333.988 140.823L333.77 142.203Z" fill="#7BD834"/>
<path opacity="0.5" d="M334.862 152.859L329.698 149.915L329.916 148.528L335.08 151.471L334.862 152.859Z" fill="#7BD834"/>
<path opacity="0.5" d="M338.397 154.869L336.365 153.717L336.583 152.329L338.615 153.49L338.397 154.869Z" fill="#7BD834"/>
<path opacity="0.5" d="M359.379 129.14L352.981 125.498L353.2 124.111L359.598 127.753L359.379 129.14Z" fill="#7BD834"/>
<path opacity="0.5" d="M362.663 131.008L360.362 129.695L360.572 128.316L362.881 129.628L362.663 131.008Z" fill="#7BD834"/>
<path opacity="0.5" d="M365.206 132.463L363.636 131.571L363.854 130.183L365.416 131.075L365.206 132.463Z" fill="#7BD834"/>
<path opacity="0.5" d="M355.969 130.654L352.485 128.661L352.703 127.281L356.188 129.266L355.969 130.654Z" fill="#7BD834"/>
<path opacity="0.5" d="M361.217 133.64L356.952 131.209L357.17 129.822L361.436 132.252L361.217 133.64Z" fill="#7BD834"/>
<path opacity="0.5" d="M363.762 135.087L362.2 134.195L362.419 132.807L363.98 133.699L363.762 135.087Z" fill="#7BD834"/>
<path opacity="0.5" d="M366.18 136.466L364.618 135.575L364.837 134.187L366.398 135.078L366.18 136.466Z" fill="#7BD834"/>
<path opacity="0.5" d="M354.508 133.27L351.989 131.832L352.208 130.444L354.727 131.882L354.508 133.27Z" fill="#7BD834"/>
<path opacity="0.5" d="M356.348 134.313L355.492 133.825L355.71 132.437L356.566 132.925L356.348 134.313Z" fill="#7BD834"/>
<path opacity="0.5" d="M358.891 135.76L357.329 134.868L357.548 133.489L359.109 134.38L358.891 135.76Z" fill="#7BD834"/>
<path opacity="0.5" d="M360.797 140.302L351.494 134.994L351.713 133.615L361.016 138.914L360.797 140.302Z" fill="#7BD834"/>
<path opacity="0.5" d="M364.081 142.169L361.78 140.857L361.998 139.469L364.299 140.781L364.081 142.169Z" fill="#7BD834"/>
<path opacity="0.5" d="M353.518 139.604L350.999 138.165L351.217 136.777L353.736 138.216L353.518 139.604Z" fill="#7BD834"/>
<path opacity="0.5" d="M359.438 142.968L354.501 140.159L354.711 138.771L359.656 141.589L359.438 142.968Z" fill="#7BD834"/>
<path opacity="0.5" d="M361.981 144.423L360.411 143.531L360.629 142.144L362.199 143.035L361.981 144.423Z" fill="#7BD834"/>
<path opacity="0.5" d="M355.659 144.272L350.503 141.328L350.722 139.94L355.877 142.884L355.659 144.272Z" fill="#7BD834"/>
<path opacity="0.5" d="M360.37 146.955L356.642 144.827L356.852 143.439L360.588 145.567L360.37 146.955Z" fill="#7BD834"/>
<path opacity="0.5" d="M363.872 148.948L361.344 147.51L361.563 146.122L364.09 147.56L363.872 148.948Z" fill="#7BD834"/>
<path opacity="0.5" d="M351.747 145.491L350.009 144.499L350.218 143.111L351.965 144.103L351.747 145.491Z" fill="#7BD834"/>
<path opacity="0.5" d="M355.03 147.358L352.721 146.046L352.939 144.659L355.248 145.971L355.03 147.358Z" fill="#7BD834"/>
<path opacity="0.5" d="M359.715 150.025L356.004 147.914L356.222 146.526L359.934 148.645L359.715 150.025Z" fill="#7BD834"/>
<path opacity="0.5" d="M354.844 150.706L349.504 147.661L349.723 146.273L355.062 149.318L354.844 150.706Z" fill="#7BD834"/>
<path opacity="0.5" d="M360.823 154.112L355.827 151.261L356.037 149.873L361.041 152.725L360.823 154.112Z" fill="#7BD834"/>
<path opacity="0.5" d="M363.368 155.559L361.806 154.668L362.016 153.28L363.586 154.171L363.368 155.559Z" fill="#7BD834"/>
<path opacity="0.5" d="M365.81 156.947L364.24 156.055L364.458 154.667L366.02 155.559L365.81 156.947Z" fill="#7BD834"/>
<path opacity="0.5" d="M352.209 152.649L349.011 150.832L349.229 149.444L352.428 151.261L352.209 152.649Z" fill="#7BD834"/>
<path opacity="0.5" d="M369.556 134.944L373.989 137.467L374.207 136.079L369.774 133.556L369.556 134.944Z" fill="#7BD834"/>
<path opacity="0.5" d="M370.008 138.645L373.493 140.63L373.711 139.25L370.227 137.265L370.008 138.645Z" fill="#7BD834"/>
<path opacity="0.5" d="M370.478 142.362L372.997 143.801L373.215 142.413L370.696 140.974L370.478 142.362Z" fill="#7BD834"/>
<path opacity="0.5" d="M368.833 144.877L372.502 146.963L372.721 145.584L369.052 143.489L368.833 144.877Z" fill="#7BD834"/>
<path opacity="0.5" d="M369.487 148.696L372.006 150.134L372.225 148.746L369.697 147.308L369.487 148.696Z" fill="#7BD834"/>
<path opacity="0.5" d="M368.313 151.48L371.512 153.297L371.73 151.909L368.532 150.092L368.313 151.48Z" fill="#7BD834"/>
<path opacity="0.5" d="M369.27 155.475L371.016 156.467L371.234 155.08L369.488 154.087L369.27 155.475Z" fill="#7BD834"/>
<path opacity="0.5" d="M367.137 157.704L370.521 159.63L370.73 158.242L367.355 156.324L367.137 157.704Z" fill="#7BD834"/>
<path opacity="0.5" d="M366.817 160.976L370.016 162.792L370.234 161.413L367.035 159.588L366.817 160.976Z" fill="#7BD834"/>
<path opacity="0.5" d="M354.552 153.978L353.192 153.204L353.402 151.825L354.762 152.598L354.552 153.978Z" fill="#7BD834"/>
<path opacity="0.5" d="M358.589 156.282L355.524 154.541L355.743 153.154L358.799 154.895L358.589 156.282Z" fill="#7BD834"/>
<path opacity="0.5" d="M359.672 166.931L354.509 163.987L354.727 162.607L359.891 165.543L359.672 166.931Z" fill="#7BD834"/>
<path opacity="0.5" d="M363.216 168.949L361.176 167.789L361.394 166.401L363.426 167.561L363.216 168.949Z" fill="#7BD834"/>
<path opacity="0.5" d="M279.415 52.2813L273.017 48.6393L273.236 47.2515L279.625 50.8935L279.415 52.2813Z" fill="#7BD834"/>
<path opacity="0.5" d="M282.688 54.1485L280.387 52.8364L280.606 51.4486L282.906 52.7607L282.688 54.1485Z" fill="#7BD834"/>
<path opacity="0.5" d="M285.233 55.5952L283.671 54.7036L283.881 53.3242L285.451 54.2158L285.233 55.5952Z" fill="#7BD834"/>
<path opacity="0.5" d="M276.006 53.7868L272.522 51.8018L272.74 50.414L276.225 52.4074L276.006 53.7868Z" fill="#7BD834"/>
<path opacity="0.5" d="M281.252 56.7811L276.979 54.3419L277.197 52.9625L281.471 55.3933L281.252 56.7811Z" fill="#7BD834"/>
<path opacity="0.5" d="M283.798 58.2278L282.228 57.3362L282.446 55.9484L284.008 56.84L283.798 58.2278Z" fill="#7BD834"/>
<path opacity="0.5" d="M286.215 59.6072L284.645 58.7156L284.864 57.3278L286.434 58.2194L286.215 59.6072Z" fill="#7BD834"/>
<path d="M274.545 56.4026L272.018 54.9728L272.236 53.585L274.764 55.0232L274.545 56.4026Z" fill="#7BD834"/>
<path d="M276.383 57.454L275.518 56.9662L275.737 55.5784L276.602 56.0662L276.383 57.454Z" fill="#7BD834"/>
<path opacity="0.5" d="M278.928 58.9006L277.358 58.0091L277.576 56.6213L279.146 57.5128L278.928 58.9006Z" fill="#7BD834"/>
<path opacity="0.5" d="M280.832 63.4425L271.521 58.1352L271.739 56.7474L281.051 62.0547L280.832 63.4425Z" fill="#7BD834"/>
<path opacity="0.5" d="M284.116 65.3098L281.807 63.9977L282.026 62.6099L284.326 63.922L284.116 65.3098Z" fill="#7BD834"/>
<path opacity="0.5" d="M273.554 62.7361L271.027 61.3062L271.245 59.9184L273.764 61.3567L273.554 62.7361Z" fill="#7BD834"/>
<path opacity="0.5" d="M279.465 66.1088L274.528 63.2995L274.747 61.9117L279.684 64.721L279.465 66.1088Z" fill="#7BD834"/>
<path opacity="0.5" d="M282.008 67.5555L280.447 66.6639L280.665 65.2845L282.227 66.1761L282.008 67.5555Z" fill="#7BD834"/>
<path opacity="0.5" d="M275.694 67.4041L270.531 64.4687L270.749 63.0809L275.904 66.0247L275.694 67.4041Z" fill="#7BD834"/>
<path d="M280.397 70.0872L276.669 67.9676L276.887 66.5798L280.615 68.7078L280.397 70.0872Z" fill="#7BD834"/>
<path opacity="0.5" d="M283.899 72.0806L281.38 70.6507L281.598 69.2629L284.117 70.7012L283.899 72.0806Z" fill="#7BD834"/>
<path opacity="0.5" d="M271.774 68.6237L270.036 67.6312L270.254 66.2518L271.992 67.2443L271.774 68.6237Z" fill="#7BD834"/>
<path opacity="0.5" d="M275.057 70.4994L272.757 69.1872L272.975 67.7994L275.275 69.1115L275.057 70.4994Z" fill="#7BD834"/>
<path opacity="0.5" d="M279.743 73.1656L276.04 71.0544L276.25 69.6666L279.961 71.7778L279.743 73.1656Z" fill="#7BD834"/>
<path opacity="0.5" d="M274.88 73.8385L269.54 70.8021L269.758 69.4143L275.09 72.4591L274.88 73.8385Z" fill="#7BD834"/>
<path opacity="0.5" d="M280.858 77.2449L275.854 74.402L276.073 73.0142L281.068 75.8655L280.858 77.2449Z" fill="#7BD834"/>
<path d="M283.395 78.7L281.833 77.8085L282.052 76.4207L283.613 77.3122L283.395 78.7Z" fill="#7BD834"/>
<path opacity="0.5" d="M285.838 80.0878L284.277 79.1962L284.487 77.8084L286.057 78.7L285.838 80.0878Z" fill="#7BD834"/>
<path opacity="0.5" d="M272.243 75.7898L269.044 73.9647L269.263 72.5853L272.453 74.402L272.243 75.7898Z" fill="#7BD834"/>
<path d="M289.591 58.0764L294.024 60.6081L294.242 59.2203L289.809 56.697L289.591 58.0764Z" fill="#7BD834"/>
<path opacity="0.5" d="M290.043 61.7856L293.528 63.7706L293.746 62.3828L290.262 60.3978L290.043 61.7856Z" fill="#7BD834"/>
<path opacity="0.5" d="M290.505 65.5032L293.032 66.9415L293.242 65.5537L290.723 64.1154L290.505 65.5032Z" fill="#7BD834"/>
<path opacity="0.5" d="M288.869 68.0181L292.53 70.104L292.748 68.7162L289.087 66.6303L288.869 68.0181Z" fill="#7BD834"/>
<path opacity="0.5" d="M289.515 71.8367L292.034 73.2665L292.252 71.8871L289.733 70.4489L289.515 71.8367Z" fill="#7BD834"/>
<path opacity="0.5" d="M288.339 74.6123L291.538 76.4375L291.756 75.0497L288.557 73.2329L288.339 74.6123Z" fill="#7BD834"/>
<path opacity="0.5" d="M289.305 78.6075L291.043 79.6L291.262 78.2206L289.515 77.2281L289.305 78.6075Z" fill="#7BD834"/>
<path opacity="0.5" d="M287.172 80.8448L290.547 82.7709L290.766 81.3831L287.39 79.457L287.172 80.8448Z" fill="#7BD834"/>
<path opacity="0.5" d="M286.854 84.1166L290.053 85.9334L290.271 84.5456L287.073 82.7288L286.854 84.1166Z" fill="#7BD834"/>
<path opacity="0.5" d="M274.579 77.1188L273.218 76.345L273.437 74.9572L274.797 75.731L274.579 77.1188Z" fill="#7BD834"/>
<path opacity="0.5" d="M278.618 79.4234L275.553 77.6739L275.771 76.2945L278.836 78.0356L278.618 79.4234Z" fill="#7BD834"/>
<path opacity="0.5" d="M304.225 66.3612L297.827 62.7108L298.045 61.3314L304.443 64.9734L304.225 66.3612Z" fill="#7BD834"/>
<path opacity="0.5" d="M307.5 68.2284L305.2 66.9163L305.418 65.5285L307.719 66.8406L307.5 68.2284Z" fill="#7BD834"/>
<path d="M310.043 69.6751L308.482 68.7835L308.7 67.3957L310.262 68.2872L310.043 69.6751Z" fill="#7BD834"/>
<path opacity="0.5" d="M300.817 67.8667L297.332 65.8818L297.551 64.494L301.035 66.4789L300.817 67.8667Z" fill="#7BD834"/>
<path opacity="0.5" d="M306.063 70.8526L301.789 68.4219L302.008 67.0341L306.281 69.4732L306.063 70.8526Z" fill="#7BD834"/>
<path d="M308.608 72.2993L307.038 71.4077L307.256 70.0283L308.826 70.9199L308.608 72.2993Z" fill="#7BD834"/>
<path opacity="0.5" d="M311.026 73.6787L309.456 72.7871L309.674 71.4077L311.244 72.2993L311.026 73.6787Z" fill="#7BD834"/>
<path opacity="0.5" d="M299.356 70.4825L296.837 69.0442L297.047 67.6564L299.574 69.0947L299.356 70.4825Z" fill="#7BD834"/>
<path opacity="0.5" d="M301.194 71.5339L300.329 71.0376L300.547 69.6498L301.412 70.1461L301.194 71.5339Z" fill="#7BD834"/>
<path opacity="0.5" d="M303.739 72.9805L302.169 72.089L302.387 70.7012L303.957 71.5927L303.739 72.9805Z" fill="#7BD834"/>
<path opacity="0.5" d="M305.645 77.5141L296.334 72.2152L296.552 70.8274L305.863 76.1263L305.645 77.5141Z" fill="#7BD834"/>
<path opacity="0.5" d="M308.926 79.3813L306.617 78.0692L306.836 76.6814L309.145 77.9935L308.926 79.3813Z" fill="#7BD834"/>
<path opacity="0.5" d="M298.364 76.8159L295.836 75.3777L296.055 73.9899L298.582 75.4281L298.364 76.8159Z" fill="#7BD834"/>
<path opacity="0.5" d="M304.276 80.1887L299.339 77.3711L299.557 75.9833L304.494 78.8009L304.276 80.1887Z" fill="#7BD834"/>
<path opacity="0.5" d="M306.819 81.6354L305.257 80.7438L305.475 79.356L307.037 80.2476L306.819 81.6354Z" fill="#7BD834"/>
<path d="M300.506 81.484L295.343 78.5486L295.561 77.1608L300.725 80.0962L300.506 81.484Z" fill="#7BD834"/>
<path opacity="0.5" d="M305.207 84.1671L301.48 82.0391L301.698 80.6513L305.426 82.7793L305.207 84.1671Z" fill="#7BD834"/>
<path opacity="0.5" d="M308.709 86.1605L306.191 84.7222L306.409 83.3344L308.928 84.7727L308.709 86.1605Z" fill="#7BD834"/>
<path opacity="0.5" d="M296.593 82.7036L294.846 81.7111L295.065 80.3233L296.803 81.3158L296.593 82.7036Z" fill="#7BD834"/>
<path opacity="0.5" d="M299.868 84.5708L297.567 83.2587L297.785 81.8709L300.086 83.183L299.868 84.5708Z" fill="#7BD834"/>
<path d="M304.562 87.2455L300.85 85.1259L301.069 83.7465L304.771 85.8577L304.562 87.2455Z" fill="#7BD834"/>
<path opacity="0.5" d="M299.692 87.9184L294.352 84.8736L294.57 83.4942L299.91 86.5305L299.692 87.9184Z" fill="#7BD834"/>
<path opacity="0.5" d="M305.668 91.3248L300.664 88.4735L300.883 87.0857L305.887 89.937L305.668 91.3248Z" fill="#7BD834"/>
<path opacity="0.5" d="M308.206 92.7715L306.644 91.8799L306.862 90.4921L308.424 91.3837L308.206 92.7715Z" fill="#7BD834"/>
<path opacity="0.5" d="M310.649 94.1592L309.087 93.2677L309.306 91.8883L310.867 92.7799L310.649 94.1592Z" fill="#7BD834"/>
<path opacity="0.5" d="M297.055 89.8613L293.856 88.0445L294.074 86.6567L297.273 88.4819L297.055 89.8613Z" fill="#7BD834"/>
<path d="M314.401 72.1563L318.834 74.6796L319.053 73.2918L314.62 70.7685L314.401 72.1563Z" fill="#7BD834"/>
<path opacity="0.5" d="M314.854 75.8655L318.338 77.8505L318.557 76.4627L315.072 74.4777L314.854 75.8655Z" fill="#7BD834"/>
<path opacity="0.5" d="M315.317 79.5747L317.844 81.013L318.062 79.6252L315.535 78.1953L315.317 79.5747Z" fill="#7BD834"/>
<path opacity="0.5" d="M313.68 82.0896L317.349 84.1839L317.559 82.7961L313.898 80.7018L313.68 82.0896Z" fill="#7BD834"/>
<path opacity="0.5" d="M314.325 85.9082L316.844 87.3465L317.062 85.9587L314.544 84.5204L314.325 85.9082Z" fill="#7BD834"/>
<path opacity="0.5" d="M313.151 88.6922L316.35 90.5089L316.568 89.1296L313.369 87.3044L313.151 88.6922Z" fill="#7BD834"/>
<path opacity="0.5" d="M314.116 92.6874L315.854 93.6799L316.072 92.2921L314.334 91.2996L314.116 92.6874Z" fill="#7BD834"/>
<path opacity="0.5" d="M311.983 94.9247L315.358 96.8424L315.576 95.463L312.201 93.5369L311.983 94.9247Z" fill="#7BD834"/>
<path opacity="0.5" d="M311.665 98.1881L314.864 100.013L315.082 98.6255L311.883 96.8003L311.665 98.1881Z" fill="#7BD834"/>
<path d="M299.389 91.1987L298.029 90.4249L298.247 89.037L299.607 89.8109L299.389 91.1987Z" fill="#7BD834"/>
<path opacity="0.5" d="M303.428 93.4948L300.364 91.7538L300.582 90.366L303.646 92.1154L303.428 93.4948Z" fill="#7BD834"/>
<path opacity="0.5" d="M274.94 80.7943L268.542 77.1524L268.76 75.7646L275.158 79.4065L274.94 80.7943Z" fill="#7BD834"/>
<path opacity="0.5" d="M278.221 82.6615L275.912 81.3494L276.131 79.97L278.439 81.2821L278.221 82.6615Z" fill="#7BD834"/>
<path opacity="0.5" d="M280.758 84.1166L279.197 83.2251L279.415 81.8373L280.977 82.7288L280.758 84.1166Z" fill="#7BD834"/>
<path opacity="0.5" d="M271.53 82.2999L268.045 80.3149L268.264 78.9355L271.748 80.9205L271.53 82.2999Z" fill="#7BD834"/>
<path opacity="0.5" d="M276.778 85.2941L272.513 82.8634L272.722 81.4756L276.996 83.9063L276.778 85.2941Z" fill="#7BD834"/>
<path opacity="0.5" d="M279.323 86.7408L277.761 85.8493L277.971 84.4615L279.541 85.353L279.323 86.7408Z" fill="#7BD834"/>
<path opacity="0.5" d="M281.741 88.1202L280.179 87.2287L280.397 85.8409L281.959 86.7324L281.741 88.1202Z" fill="#7BD834"/>
<path opacity="0.5" d="M270.069 84.9241L267.55 83.4858L267.768 82.098L270.287 83.5363L270.069 84.9241Z" fill="#7BD834"/>
<path opacity="0.5" d="M271.909 85.967L271.052 85.4792L271.271 84.0914L272.127 84.5792L271.909 85.967Z" fill="#7BD834"/>
<path opacity="0.5" d="M274.452 87.4137L272.89 86.5222L273.108 85.1428L274.67 86.0343L274.452 87.4137Z" fill="#7BD834"/>
<path opacity="0.5" d="M276.358 91.9556L267.055 86.6483L267.273 85.2605L276.576 90.5678L276.358 91.9556Z" fill="#7BD834"/>
<path opacity="0.5" d="M279.641 93.8228L277.341 92.5107L277.559 91.1229L279.859 92.435L279.641 93.8228Z" fill="#7BD834"/>
<path opacity="0.5" d="M269.079 91.2491L266.56 89.8193L266.778 88.4315L269.297 89.8697L269.079 91.2491Z" fill="#7BD834"/>
<path opacity="0.5" d="M274.998 94.6219L270.053 91.8126L270.271 90.4248L275.217 93.2341L274.998 94.6219Z" fill="#7BD834"/>
<path opacity="0.5" d="M277.542 96.0686L275.972 95.177L276.19 93.7976L277.752 94.6892L277.542 96.0686Z" fill="#7BD834"/>
<path opacity="0.5" d="M271.219 95.9256L266.064 92.9817L266.274 91.5939L271.438 94.5378L271.219 95.9256Z" fill="#7BD834"/>
<path opacity="0.5" d="M275.93 98.6003L272.194 96.4807L272.412 95.0929L276.148 97.2209L275.93 98.6003Z" fill="#7BD834"/>
<path opacity="0.5" d="M279.422 100.594L276.903 99.1638L277.122 97.776L279.641 99.2143L279.422 100.594Z" fill="#7BD834"/>
<path opacity="0.5" d="M267.307 97.1452L265.561 96.1527L265.779 94.7649L267.525 95.7574L267.307 97.1452Z" fill="#7BD834"/>
<path opacity="0.5" d="M270.591 99.0124L268.282 97.7003L268.5 96.3125L270.801 97.6246L270.591 99.0124Z" fill="#7BD834"/>
<path opacity="0.5" d="M275.276 101.679L271.565 99.5675L271.783 98.1797L275.494 100.291L275.276 101.679Z" fill="#7BD834"/>
<path opacity="0.5" d="M270.405 102.36L265.065 99.3152L265.283 97.9274L270.623 100.972L270.405 102.36Z" fill="#7BD834"/>
<path opacity="0.5" d="M276.383 105.758L271.379 102.915L271.597 101.527L276.602 104.379L276.383 105.758Z" fill="#7BD834"/>
<path opacity="0.5" d="M278.928 107.213L277.358 106.322L277.576 104.934L279.146 105.825L278.928 107.213Z" fill="#7BD834"/>
<path opacity="0.5" d="M281.362 108.601L279.8 107.709L280.018 106.321L281.58 107.213L281.362 108.601Z" fill="#7BD834"/>
<path opacity="0.5" d="M267.768 104.303L264.569 102.478L264.787 101.098L267.986 102.915L267.768 104.303Z" fill="#7BD834"/>
<path opacity="0.5" d="M285.116 86.5895L289.549 89.1212L289.768 87.7334L285.334 85.2101L285.116 86.5895Z" fill="#7BD834"/>
<path opacity="0.5" d="M285.569 90.2987L289.053 92.2837L289.271 90.9043L285.787 88.9109L285.569 90.2987Z" fill="#7BD834"/>
<path opacity="0.5" d="M286.038 94.0163L288.557 95.4546L288.775 94.0668L286.257 92.6285L286.038 94.0163Z" fill="#7BD834"/>
<path opacity="0.5" d="M284.394 96.5312L288.063 98.6171L288.281 97.2293L284.612 95.1434L284.394 96.5312Z" fill="#7BD834"/>
<path opacity="0.5" d="M285.04 100.35L287.567 101.788L287.785 100.4L285.258 98.9619L285.04 100.35Z" fill="#7BD834"/>
<path opacity="0.5" d="M283.872 103.125L287.071 104.95L287.289 103.563L284.09 101.746L283.872 103.125Z" fill="#7BD834"/>
<path opacity="0.5" d="M284.831 107.121L286.569 108.113L286.787 106.734L285.049 105.741L284.831 107.121Z" fill="#7BD834"/>
<path opacity="0.5" d="M282.697 109.358L286.073 111.284L286.291 109.896L282.916 107.97L282.697 109.358Z" fill="#7BD834"/>
<path opacity="0.5" d="M282.378 112.63L285.577 114.446L285.795 113.067L282.596 111.242L282.378 112.63Z" fill="#7BD834"/>
<path opacity="0.5" d="M270.104 105.632L268.744 104.858L268.962 103.47L270.322 104.252L270.104 105.632Z" fill="#7BD834"/>
<path opacity="0.5" d="M274.141 107.936L271.085 106.195L271.303 104.807L274.359 106.549L274.141 107.936Z" fill="#7BD834"/>
<path opacity="0.5" d="M275.233 118.585L270.069 115.641L270.288 114.253L275.451 117.197L275.233 118.585Z" fill="#7BD834"/>
<path opacity="0.5" d="M278.768 120.603L276.736 119.443L276.954 118.055L278.986 119.215L278.768 120.603Z" fill="#7BD834"/>
<path opacity="0.5" d="M299.75 94.8742L293.353 91.2239L293.571 89.8445L299.969 93.4864L299.75 94.8742Z" fill="#7BD834"/>
<path opacity="0.5" d="M303.034 96.7414L300.725 95.4293L300.943 94.0415L303.252 95.3536L303.034 96.7414Z" fill="#7BD834"/>
<path opacity="0.5" d="M305.577 98.1881L304.007 97.2966L304.225 95.9088L305.787 96.8003L305.577 98.1881Z" fill="#7BD834"/>
<path opacity="0.5" d="M296.34 96.3797L292.856 94.3948L293.074 93.007L296.559 94.9919L296.34 96.3797Z" fill="#7BD834"/>
<path opacity="0.5" d="M301.588 99.3656L297.323 96.9349L297.541 95.5471L301.807 97.9862L301.588 99.3656Z" fill="#7BD834"/>
<path opacity="0.5" d="M304.133 100.821L302.572 99.9292L302.79 98.5414L304.352 99.4329L304.133 100.821Z" fill="#7BD834"/>
<path opacity="0.5" d="M306.551 102.192L304.99 101.3L305.208 99.9208L306.77 100.812L306.551 102.192Z" fill="#7BD834"/>
<path opacity="0.5" d="M294.879 98.9956L292.361 97.5573L292.579 96.1779L295.098 97.6078L294.879 98.9956Z" fill="#7BD834"/>
<path opacity="0.5" d="M296.719 100.047L295.863 99.5507L296.081 98.1713L296.938 98.6591L296.719 100.047Z" fill="#7BD834"/>
<path opacity="0.5" d="M299.262 101.494L297.7 100.602L297.919 99.2142L299.48 100.106L299.262 101.494Z" fill="#7BD834"/>
<path opacity="0.5" d="M301.168 106.027L291.865 100.728L292.084 99.3404L301.387 104.639L301.168 106.027Z" fill="#7BD834"/>
<path opacity="0.5" d="M304.452 107.894L302.151 106.582L302.369 105.203L304.67 106.515L304.452 107.894Z" fill="#7BD834"/>
<path opacity="0.5" d="M293.889 105.329L291.37 103.891L291.589 102.503L294.107 103.941L293.889 105.329Z" fill="#7BD834"/>
<path opacity="0.5" d="M299.809 108.702L294.864 105.884L295.082 104.496L300.027 107.314L299.809 108.702Z" fill="#7BD834"/>
<path opacity="0.5" d="M302.352 110.148L300.782 109.257L301 107.869L302.57 108.761L302.352 110.148Z" fill="#7BD834"/>
<path opacity="0.5" d="M296.03 109.997L290.874 107.062L291.093 105.674L296.248 108.609L296.03 109.997Z" fill="#7BD834"/>
<path opacity="0.5" d="M300.741 112.68L297.013 110.552L297.223 109.164L300.959 111.292L300.741 112.68Z" fill="#7BD834"/>
<path opacity="0.5" d="M304.241 114.674L301.714 113.235L301.932 111.847L304.451 113.286L304.241 114.674Z" fill="#7BD834"/>
<path opacity="0.5" d="M292.118 111.217L290.371 110.224L290.59 108.836L292.336 109.829L292.118 111.217Z" fill="#7BD834"/>
<path opacity="0.5" d="M295.401 113.084L293.092 111.772L293.31 110.392L295.619 111.696L295.401 113.084Z" fill="#7BD834"/>
<path opacity="0.5" d="M300.086 115.759L296.375 113.639L296.594 112.26L300.305 114.371L300.086 115.759Z" fill="#7BD834"/>
<path opacity="0.5" d="M295.215 116.431L289.875 113.395L290.094 112.007L295.434 115.044L295.215 116.431Z" fill="#7BD834"/>
<path opacity="0.5" d="M301.194 119.838L296.19 116.987L296.408 115.599L301.412 118.45L301.194 119.838Z" fill="#7BD834"/>
<path opacity="0.5" d="M303.739 121.285L302.177 120.393L302.387 119.005L303.957 119.897L303.739 121.285Z" fill="#7BD834"/>
<path opacity="0.5" d="M306.172 122.672L304.611 121.781L304.829 120.401L306.391 121.293L306.172 122.672Z" fill="#7BD834"/>
<path opacity="0.5" d="M292.581 118.383L289.382 116.558L289.6 115.17L292.799 116.995L292.581 118.383Z" fill="#7BD834"/>
<path opacity="0.5" d="M309.927 100.669L314.36 103.193L314.578 101.813L310.145 99.2816L309.927 100.669Z" fill="#7BD834"/>
<path opacity="0.5" d="M310.379 104.379L313.864 106.364L314.082 104.976L310.598 102.991L310.379 104.379Z" fill="#7BD834"/>
<path opacity="0.5" d="M310.849 108.088L313.368 109.526L313.586 108.138L311.067 106.708L310.849 108.088Z" fill="#7BD834"/>
<path opacity="0.5" d="M309.204 110.603L312.874 112.697L313.092 111.309L309.423 109.215L309.204 110.603Z" fill="#7BD834"/>
<path opacity="0.5" d="M309.859 114.421L312.377 115.859L312.596 114.472L310.068 113.042L309.859 114.421Z" fill="#7BD834"/>
<path opacity="0.5" d="M308.684 117.205L311.883 119.03L312.102 117.643L308.903 115.817L308.684 117.205Z" fill="#7BD834"/>
<path opacity="0.5" d="M309.641 121.2L311.388 122.193L311.598 120.805L309.86 119.813L309.641 121.2Z" fill="#7BD834"/>
<path opacity="0.5" d="M307.508 123.438L310.883 125.355L311.102 123.976L307.726 122.05L307.508 123.438Z" fill="#7BD834"/>
<path opacity="0.5" d="M307.188 126.701L310.387 128.526L310.605 127.139L307.407 125.313L307.188 126.701Z" fill="#7BD834"/>
<path opacity="0.5" d="M294.915 119.712L293.563 118.938L293.773 117.55L295.133 118.324L294.915 119.712Z" fill="#7BD834"/>
<path opacity="0.5" d="M298.952 122.008L295.895 120.267L296.114 118.879L299.17 120.628L298.952 122.008Z" fill="#7BD834"/>
<path opacity="0.5" d="M300.043 132.665L294.88 129.721L295.098 128.333L300.262 131.277L300.043 132.665Z" fill="#7BD834"/>
<path opacity="0.5" d="M303.587 134.675L301.547 133.514L301.765 132.135L303.797 133.295L303.587 134.675Z" fill="#7BD834"/>
<path d="M278.397 83.225L284.375 79.7766V79.785C284.45 79.7345 284.56 79.7345 284.677 79.7934L359.537 123.093C359.781 123.236 359.982 123.614 359.982 123.942V138.098C359.982 138.258 359.932 138.367 359.856 138.434H359.848C359.84 138.443 359.84 138.443 359.831 138.443L353.794 141.925L353.744 135.087L284.669 95.1349C284.425 94.9919 284.224 94.6134 284.224 94.2854V89.4239L278.397 83.225Z" fill="url(#paint9_linear_208_1621)"/>
<path d="M278.665 98.6002L353.526 141.9C353.769 142.043 353.971 141.891 353.971 141.563V127.408C353.971 127.08 353.769 126.701 353.526 126.558L278.665 83.2587C278.422 83.1157 278.22 83.2671 278.22 83.5951V97.7507C278.22 98.0787 278.413 98.4572 278.665 98.6002Z" fill="url(#paint10_linear_208_1621)"/>
<path opacity="0.6" d="M288.985 95.7321L347.271 130.066C345.466 131.622 343.762 133.396 342.2 135.348L283.486 101.384C285.173 99.2815 287.029 97.3722 288.985 95.7321Z" fill="#32589D"/>
<path d="M280.799 94.3527L351.385 135.179C351.553 135.272 351.688 135.171 351.688 134.952V131.394C351.688 131.167 351.553 130.915 351.385 130.814L280.799 89.9874C280.631 89.8949 280.496 89.9958 280.496 90.2145V93.7723C280.496 93.991 280.631 94.2518 280.799 94.3527Z" fill="#32589D"/>
<path d="M280.799 89.9874L282.234 90.8201V92.7378C282.234 92.9649 282.369 93.2172 282.537 93.3182L351.688 133.312V134.952C351.688 135.179 351.553 135.28 351.385 135.179L280.799 94.3527C280.631 94.2602 280.496 93.9994 280.496 93.7723V90.2145C280.496 89.9874 280.631 89.8865 280.799 89.9874Z" fill="#102140"/>
<path opacity="0.96" d="M241.143 247.524L182.421 213.561C189.994 209.179 196.383 199.59 198.331 190.422C199.121 186.705 201.396 183.475 204.679 181.574L249.053 155.912C261.412 148.763 269.422 135.894 270.261 121.621C270.967 109.568 280.068 97.7171 287.121 93.6378L345.844 127.601C338.892 131.622 331.234 142.859 330.361 154.71C329.312 168.983 321.562 181.894 309.194 189.051L263.393 215.537C260.11 217.438 257.835 220.668 257.046 224.386C255.106 233.554 248.717 243.142 241.143 247.524Z" fill="url(#paint11_linear_208_1621)"/>
<path opacity="0.8" d="M287.129 93.6462L345.852 127.61C345.381 127.879 344.92 128.173 344.449 128.484L285.735 94.5209C286.188 94.2097 286.659 93.9153 287.129 93.6462Z" fill="#102140"/>
<g opacity="0.32">
<path d="M309.212 133.817L319.506 139.797L319.59 138.603L309.313 132.648L309.212 133.817Z" fill="#102140"/>
<path d="M304.015 130.797L307.659 132.917L307.76 131.748L304.124 129.645L304.015 130.797Z" fill="#102140"/>
<path d="M300.035 128.484L302.478 129.906L302.596 128.762L300.152 127.34L300.035 128.484Z" fill="#102140"/>
<path d="M313.654 139.225L319.313 142.53L319.396 141.328L313.746 138.039L313.654 139.225Z" fill="#102140"/>
<path d="M305.257 134.321L312.075 138.3L312.176 137.122L305.366 133.152L305.257 134.321Z" fill="#102140"/>
<path d="M301.245 131.983L303.713 133.421L303.822 132.261L301.362 130.822L301.245 131.983Z" fill="#102140"/>
<path d="M297.457 129.771L299.9 131.201L300.018 130.049L297.583 128.627L297.457 129.771Z" fill="#102140"/>
<path d="M315.005 142.867L319.119 145.289L319.203 144.078L315.089 141.664L315.005 142.867Z" fill="#102140"/>
<path d="M312.017 141.117L313.419 141.933L313.512 140.739L312.118 139.923L312.017 141.117Z" fill="#102140"/>
<path d="M307.927 138.72L310.446 140.192L310.547 139.006L308.036 137.534L307.927 138.72Z" fill="#102140"/>
<path d="M303.838 139.166L318.926 148.065L319.01 146.845L303.955 137.98L303.838 139.166Z" fill="#102140"/>
<path d="M298.641 136.096L302.285 138.249L302.402 137.072L298.758 134.927L298.641 136.096Z" fill="#102140"/>
<path d="M314.578 148.41L318.734 150.874L318.818 149.638L314.671 147.19L314.578 148.41Z" fill="#102140"/>
<path d="M304.972 142.716L312.973 147.459L313.074 146.24L305.081 141.513L304.972 142.716Z" fill="#102140"/>
<path d="M300.908 140.302L303.41 141.782L303.52 140.588L301.026 139.116L300.908 140.302Z" fill="#102140"/>
<path d="M310.043 148.637L318.531 153.7L318.615 152.455L310.143 147.417L310.043 148.637Z" fill="#102140"/>
<path d="M302.427 144.095L308.447 147.686L308.557 146.467L302.537 142.892L302.427 144.095Z" fill="#102140"/>
<path d="M296.852 140.764L300.857 143.161L300.975 141.959L296.97 139.578L296.852 140.764Z" fill="#102140"/>
<path d="M315.433 154.819L318.33 156.551L318.422 155.298L315.525 153.574L315.433 154.819Z" fill="#102140"/>
<path d="M310.027 151.572L313.813 153.843L313.914 152.607L310.127 150.344L310.027 151.572Z" fill="#102140"/>
<path d="M302.41 147.005L308.43 150.613L308.531 149.385L302.528 145.794L302.41 147.005Z" fill="#102140"/>
<path d="M309.27 154.096L318.128 159.428L318.221 158.166L309.38 152.851L309.27 154.096Z" fill="#102140"/>
<path d="M299.557 148.233L307.677 153.128L307.777 151.892L299.683 147.014L299.557 148.233Z" fill="#102140"/>
<path d="M295.494 145.777L297.987 147.291L298.113 146.071L295.62 144.574L295.494 145.777Z" fill="#102140"/>
<path d="M291.622 143.447L294.099 144.944L294.225 143.742L291.756 142.253L291.622 143.447Z" fill="#102140"/>
<path d="M312.579 159.092L317.927 162.338L318.02 161.06L312.68 157.83L312.579 159.092Z" fill="#102140"/>
<path d="M289.02 122.092L282.32 118.206L282.463 117.096L289.154 120.973L289.02 122.092Z" fill="#102140"/>
<path d="M287.256 123.816L281.983 120.738L282.126 119.628L287.398 122.689L287.256 123.816Z" fill="#102140"/>
<path d="M285.469 125.54L281.648 123.295L281.791 122.176L285.611 124.405L285.469 125.54Z" fill="#102140"/>
<path d="M286.894 129.174L281.303 125.868L281.454 124.741L287.037 128.03L286.894 129.174Z" fill="#102140"/>
<path d="M284.812 130.755L280.958 128.467L281.11 127.332L284.955 129.603L284.812 130.755Z" fill="#102140"/>
<path d="M285.527 134.019L280.615 131.083L280.767 129.939L285.67 132.858L285.527 134.019Z" fill="#102140"/>
<path d="M282.949 135.331L280.271 133.724L280.422 132.572L283.092 134.17L282.949 135.331Z" fill="#102140"/>
<path d="M285.14 139.545L279.918 136.39L280.069 135.221L285.283 138.359L285.14 139.545Z" fill="#102140"/>
<path d="M284.527 142.085L279.564 139.074L279.716 137.896L284.678 140.899L284.527 142.085Z" fill="#102140"/>
<path d="M308.708 156.745L310.958 158.108L311.059 156.854L308.817 155.492L308.708 156.745Z" fill="#102140"/>
<path d="M302.102 152.741L307.106 155.769L307.215 154.524L302.219 151.505L302.102 152.741Z" fill="#102140"/>
</g>
<g opacity="0.32">
<path d="M271.287 172.768L255.981 163.911L257.072 163.28L272.387 172.137L271.287 172.768Z" fill="#102140"/>
<path d="M280.194 177.915L274.669 174.719L275.76 174.088L281.285 177.284L280.194 177.915Z" fill="#102140"/>
<path d="M284.627 180.481L283.007 179.539L284.098 178.908L285.719 179.85L284.627 180.481Z" fill="#102140"/>
<path d="M292.965 185.3L287.44 182.104L288.532 181.473L294.057 184.669L292.965 185.3Z" fill="#102140"/>
<path d="M258.19 167.805L253.715 165.215L254.806 164.584L259.281 167.175L258.19 167.805Z" fill="#102140"/>
<path d="M277.928 179.227L261.564 169.757L262.655 169.126L279.02 178.588L277.928 179.227Z" fill="#102140"/>
<path d="M282.362 181.784L280.741 180.851L281.841 180.22L283.453 181.154L282.362 181.784Z" fill="#102140"/>
<path d="M290.699 186.612L285.174 183.416L286.274 182.785L291.799 185.981L290.699 186.612Z" fill="#102140"/>
<path d="M253.688 167.822L251.454 166.527L252.546 165.896L254.779 167.191L253.688 167.822Z" fill="#102140"/>
<path d="M259.717 171.313L257.063 169.774L258.163 169.143L260.816 170.673L259.717 171.313Z" fill="#102140"/>
<path d="M264.15 173.87L262.53 172.936L263.63 172.305L265.25 173.239L264.15 173.87Z" fill="#102140"/>
<path d="M272.496 178.698L266.972 175.501L268.063 174.871L273.588 178.067L272.496 178.698Z" fill="#102140"/>
<path d="M253.664 170.421L249.189 167.839L250.281 167.2L254.756 169.79L253.664 170.421Z" fill="#102140"/>
<path d="M262.564 175.569L257.039 172.381L258.139 171.742L263.664 174.938L262.564 175.569Z" fill="#102140"/>
<path d="M266.996 178.134L265.384 177.2L266.475 176.57L268.096 177.503L266.996 178.134Z" fill="#102140"/>
<path d="M275.342 182.962L269.817 179.766L270.909 179.135L276.434 182.331L275.342 182.962Z" fill="#102140"/>
<path d="M262.067 178.1L246.76 169.244L247.852 168.613L263.158 177.47L262.067 178.1Z" fill="#102140"/>
<path d="M270.975 183.248L265.442 180.052L266.542 179.421L272.066 182.617L270.975 183.248Z" fill="#102140"/>
<path d="M275.409 185.813L273.788 184.871L274.88 184.24L276.5 185.182L275.409 185.813Z" fill="#102140"/>
<path d="M283.746 190.633L278.222 187.436L279.313 186.806L284.838 190.002L283.746 190.633Z" fill="#102140"/>
<path d="M248.971 173.138L244.496 170.556L245.587 169.917L250.062 172.507L248.971 173.138Z" fill="#102140"/>
<path d="M268.709 184.56L252.345 175.089L253.437 174.458L269.801 183.921L268.709 184.56Z" fill="#102140"/>
<path d="M273.143 187.117L271.522 186.183L272.614 185.552L274.234 186.486L273.143 187.117Z" fill="#102140"/>
<path d="M281.48 191.945L275.956 188.749L277.047 188.118L282.58 191.314L281.48 191.945Z" fill="#102140"/>
<path d="M244.469 173.155L242.236 171.859L243.327 171.229L245.561 172.524L244.469 173.155Z" fill="#102140"/>
<path d="M250.498 176.645L247.845 175.106L248.937 174.475L251.59 176.006L250.498 176.645Z" fill="#102140"/>
<path d="M254.932 179.202L253.311 178.269L254.411 177.638L256.023 178.571L254.932 179.202Z" fill="#102140"/>
<path d="M263.269 184.03L257.745 180.834L258.844 180.203L264.369 183.399L263.269 184.03Z" fill="#102140"/>
<path d="M244.446 175.754L239.97 173.172L241.062 172.532L245.537 175.123L244.446 175.754Z" fill="#102140"/>
<path d="M253.345 180.901L247.821 177.713L248.912 177.074L254.445 180.27L253.345 180.901Z" fill="#102140"/>
<path d="M257.777 183.467L256.157 182.533L257.256 181.902L258.877 182.836L257.777 183.467Z" fill="#102140"/>
<path d="M266.123 188.294L260.599 185.098L261.69 184.467L267.215 187.664L266.123 188.294Z" fill="#102140"/>
<path d="M252.848 183.433L237.533 174.576L238.633 173.945L253.939 182.802L252.848 183.433Z" fill="#102140"/>
<path d="M261.748 188.58L256.223 185.384L257.323 184.753L262.848 187.95L261.748 188.58Z" fill="#102140"/>
<path d="M266.181 191.146L264.569 190.204L265.661 189.573L267.281 190.515L266.181 191.146Z" fill="#102140"/>
<path d="M274.528 195.965L269.003 192.769L270.094 192.138L275.619 195.334L274.528 195.965Z" fill="#102140"/>
<path d="M239.75 178.47L235.275 175.888L236.367 175.249L240.842 177.84L239.75 178.47Z" fill="#102140"/>
<path d="M259.489 189.892L243.124 180.422L244.216 179.791L260.58 189.253L259.489 189.892Z" fill="#102140"/>
<path d="M263.922 192.449L262.302 191.516L263.393 190.885L265.014 191.819L263.922 192.449Z" fill="#102140"/>
<path d="M272.26 197.277L266.735 194.081L267.827 193.45L273.352 196.646L272.26 197.277Z" fill="#102140"/>
<path d="M235.25 178.487L233.009 177.192L234.108 176.561L236.342 177.856L235.25 178.487Z" fill="#102140"/>
<path d="M241.278 181.978L238.624 180.439L239.716 179.808L242.369 181.339L241.278 181.978Z" fill="#102140"/>
<path d="M245.711 184.535L244.091 183.601L245.182 182.97L246.803 183.904L245.711 184.535Z" fill="#102140"/>
<path d="M254.049 189.363L248.524 186.166L249.624 185.536L255.148 188.732L254.049 189.363Z" fill="#102140"/>
<path d="M235.225 181.086L230.75 178.504L231.841 177.865L236.316 180.455L235.225 181.086Z" fill="#102140"/>
<path d="M244.125 186.234L238.601 183.046L239.692 182.407L245.217 185.603L244.125 186.234Z" fill="#102140"/>
<path d="M248.557 188.799L246.936 187.865L248.036 187.235L249.648 188.168L248.557 188.799Z" fill="#102140"/>
<path d="M256.894 193.627L251.37 190.431L252.469 189.8L257.994 192.996L256.894 193.627Z" fill="#102140"/>
</g>
<path d="M210.215 81.331L218.663 97.5757L223.252 98.3767L224.87 101.491L223.648 107.161L225.488 110.693L227.209 109.794L228.563 112.385L226.966 113.221L229.688 118.46L233.388 116.523L234.769 119.17L233.95 122.96L235.63 126.192L234.95 126.547L237.171 130.81L238.511 130.107L240.781 134.488L242.142 137.094L254.992 142.471L250.424 133.687L221.954 78.9348L210.215 81.331Z" fill="#FFD85A"/>
<path d="M222.545 55.7033C222.482 55.5919 222.413 55.4804 222.344 55.3689C222.219 55.16 222.094 54.951 221.969 54.749C221.885 54.6097 221.795 54.4773 221.705 54.345C221.594 54.1708 221.476 53.9967 221.358 53.8225C221.261 53.6762 221.156 53.5369 221.059 53.3976C220.948 53.2443 220.844 53.0911 220.733 52.9448C220.622 52.7985 220.511 52.6453 220.393 52.499C220.289 52.3666 220.185 52.2343 220.073 52.1019C219.948 51.9487 219.824 51.7954 219.699 51.6491C219.601 51.5307 219.504 51.4193 219.4 51.3078C219.261 51.1476 219.122 50.9874 218.977 50.8341C218.893 50.7366 218.803 50.646 218.713 50.5555C218.553 50.3883 218.393 50.2211 218.234 50.0609C218.164 49.9912 218.102 49.9285 218.032 49.8658C217.845 49.6847 217.658 49.5036 217.47 49.3295C217.449 49.3086 217.428 49.2877 217.401 49.2668C211.035 43.4363 202.454 41.5346 195.505 45.1708C186.14 50.0748 183.301 63.1848 189.167 74.4557C192.36 80.5996 197.477 84.9185 202.989 86.7924C204.981 87.4681 207.022 87.8303 209.049 87.8303C209.077 87.8303 209.098 87.8303 209.126 87.8303C209.355 87.8303 209.577 87.8233 209.806 87.8164C209.889 87.8164 209.973 87.8094 210.056 87.8094C210.257 87.7955 210.452 87.7815 210.653 87.7607C210.764 87.7537 210.875 87.7398 210.979 87.7258C211.16 87.7049 211.34 87.684 211.521 87.6562C211.646 87.6353 211.778 87.6213 211.903 87.6004C212.069 87.5726 212.236 87.5447 212.395 87.5099C212.534 87.482 212.68 87.4542 212.819 87.4193C212.972 87.3845 213.124 87.3497 213.277 87.3079C213.43 87.2661 213.583 87.2243 213.735 87.1825C213.874 87.1407 214.02 87.0989 214.159 87.0571C214.325 87.0014 214.485 86.9456 214.652 86.8899C214.777 86.8481 214.902 86.7993 215.027 86.7575C215.214 86.6879 215.401 86.6043 215.589 86.5277C215.686 86.4859 215.79 86.4441 215.887 86.4023C216.172 86.2769 216.457 86.1376 216.734 85.9913C226.099 81.0873 228.939 67.9773 223.072 56.7064C222.913 56.3651 222.732 56.0307 222.545 55.7033ZM205.8 64.9402C203.058 66.3752 199.448 64.8635 197.734 61.5687C197.595 61.297 197.47 61.0183 197.366 60.7397C197.338 60.677 197.317 60.6143 197.296 60.5447C197.199 60.266 197.109 59.9874 197.046 59.7087C196.588 57.7722 196.928 55.8287 197.935 54.4425C198.15 54.1429 198.4 53.8713 198.671 53.6275C198.692 53.6135 198.712 53.5996 198.733 53.5787C198.851 53.4742 198.976 53.3767 199.108 53.2861C199.261 53.1816 199.421 53.0841 199.594 52.9936C202.336 51.5586 205.946 53.0702 207.661 56.3651C209.369 59.6669 208.536 63.5052 205.8 64.9402Z" fill="#FFD85A"/>
<path d="M212.861 79.9448L221.31 96.1894L225.906 96.9905L227.523 100.104L226.294 105.775L228.134 109.306L229.863 108.401L231.209 110.999L229.62 111.835L232.341 117.073L236.041 115.137L237.416 117.784L236.596 121.573L238.276 124.806L237.603 125.161L239.818 129.424L241.157 128.72L243.434 133.102L244.788 135.707L257.645 141.085L253.077 132.301L224.607 77.5485L212.861 79.9448Z" fill="#F2B42A"/>
<path d="M200.038 42.8023C190.673 47.7064 187.834 60.8163 193.7 72.0872C199.559 83.3581 211.903 88.5199 221.267 83.6229C230.632 78.7188 233.472 65.6089 227.606 54.338C221.746 43.0601 209.403 37.8983 200.038 42.8023ZM210.32 62.5717C207.578 64.0067 203.968 62.4951 202.253 59.2002C200.538 55.9053 201.371 52.0671 204.107 50.6321C206.849 49.1971 210.459 50.7087 212.173 54.0036C213.888 57.2985 213.062 61.1367 210.32 62.5717Z" fill="#FFD85A"/>
<path d="M250.834 134.474L247.682 133.193L222.836 85.4201L224.794 84.3961L250.834 134.474Z" fill="#DD821F"/>
<path d="M224.795 84.3961L250.835 134.474L251.953 134.927L225.489 84.0269L224.795 84.3961Z" fill="#FFD85A"/>
<path d="M224.606 77.5485L212.867 79.9448L216.651 87.2242C219.497 87.5934 222.364 87.1685 224.953 85.8101C226.023 85.2529 226.981 84.5632 227.841 83.7691L224.606 77.5485Z" fill="#DD821F"/>
<path d="M216.471 43.1158L207.529 84.4239C212.132 85.9912 217.012 85.8519 221.275 83.6159C230.64 78.7118 233.479 65.6019 227.613 54.331C224.94 49.204 220.928 45.3449 216.471 43.1158Z" fill="#DD821F"/>
<path d="M200.678 44.0284C191.875 48.6329 189.209 60.9556 194.722 71.5509C200.234 82.1461 211.827 86.9944 220.63 82.3899C229.432 77.7854 232.098 65.4626 226.586 54.8674C221.081 44.2722 209.481 39.4169 200.678 44.0284ZM210.32 62.5717C207.578 64.0067 203.968 62.4951 202.254 59.2002C200.539 55.9053 201.372 52.0671 204.107 50.6321C206.849 49.1971 210.459 50.7087 212.174 54.0036C213.889 57.2985 213.063 61.1368 210.32 62.5717Z" fill="#F9BF30"/>
<path d="M201.809 46.1948C194.006 50.2838 191.639 61.2134 196.526 70.6035C201.413 80.0006 211.702 84.3055 219.505 80.2165C227.308 76.1275 229.675 65.1979 224.788 55.8078C219.9 46.4177 209.612 42.1127 201.809 46.1948ZM210.32 62.5717C207.578 64.0067 203.968 62.4951 202.253 59.2002C200.539 55.9053 201.372 52.0671 204.107 50.6321C206.849 49.1971 210.459 50.7087 212.174 54.0036C213.888 57.2985 213.062 61.1368 210.32 62.5717Z" fill="#F2B42A"/>
<path d="M201.809 46.1948C201.504 46.355 201.212 46.5222 200.928 46.7033C208.606 43.3944 218.29 47.7203 222.99 56.7482C227.683 65.7761 225.676 76.225 218.582 80.6484C218.894 80.516 219.199 80.3767 219.505 80.2165C227.308 76.1275 229.675 65.1979 224.788 55.8078C219.901 46.4107 209.612 42.1127 201.809 46.1948Z" fill="#FFD85A"/>
<path d="M198.754 71.2374C193.866 61.8403 196.234 50.9107 204.037 46.8287C206.987 45.2822 210.292 44.9409 213.52 45.6166C209.604 44.2164 205.432 44.3 201.801 46.2017C193.998 50.2907 191.631 61.2203 196.518 70.6104C199.559 76.4549 204.689 80.3279 210.014 81.4355C205.522 79.8264 201.371 76.2598 198.754 71.2374Z" fill="#DD821F"/>
<path d="M204.864 49.7334C203.836 50.2698 203.031 51.0848 202.455 52.067C202.885 51.468 203.441 50.9734 204.114 50.6251C206.856 49.1901 210.466 50.7017 212.181 53.9966C213.896 57.2915 213.063 61.1298 210.327 62.5647C207.585 63.9997 203.975 62.4881 202.261 59.1932C201.948 58.5872 201.719 57.9602 201.566 57.3333C201.726 58.3503 202.045 59.3743 202.559 60.3635C204.683 64.4525 209.168 66.3264 212.563 64.55C215.964 62.7737 216.992 58.009 214.868 53.92C212.743 49.831 208.266 47.9571 204.864 49.7334Z" fill="#DD821F"/>
<path d="M203.364 49.1901C199.962 50.9664 198.934 55.7311 201.059 59.8202C203.183 63.9092 207.668 65.783 211.062 64.0067C214.464 62.2304 215.491 57.4657 213.367 53.3766C211.243 49.2876 206.765 47.4138 203.364 49.1901ZM210.32 62.5717C207.577 64.0067 203.968 62.4951 202.253 59.2002C200.538 55.9053 201.371 52.067 204.106 50.6321C206.849 49.1971 210.458 50.7087 212.173 54.0036C213.888 57.2985 213.062 61.1367 210.32 62.5717Z" fill="#F9BF30"/>
<path d="M202.461 49.6638C199.06 51.4401 198.032 56.2049 200.156 60.2939C202.281 64.3829 206.765 66.2567 210.16 64.4804C213.562 62.7041 214.589 57.9394 212.465 53.8504C210.341 49.7544 205.863 47.8805 202.461 49.6638ZM209.417 63.0385C206.675 64.4734 203.065 62.9618 201.35 59.6669C199.636 56.372 200.469 52.5338 203.204 51.0988C205.946 49.6638 209.556 51.1754 211.271 54.4703C212.992 57.7722 212.159 61.6104 209.417 63.0385Z" fill="#FFD85A"/>
<path d="M203.364 49.1901C199.962 50.9664 198.934 55.7311 201.059 59.8202C203.183 63.9092 207.668 65.783 211.062 64.0067C214.464 62.2304 215.491 57.4657 213.367 53.3766C211.243 49.2876 206.765 47.4138 203.364 49.1901ZM210.32 62.5717C207.577 64.0067 203.968 62.4951 202.253 59.2002C200.538 55.9053 201.371 52.067 204.106 50.6321C206.849 49.1971 210.458 50.7087 212.173 54.0036C213.888 57.2985 213.062 61.1367 210.32 62.5717Z" fill="#F9BF30"/>
<path d="M256.499 140.604L226.314 82.564L227.842 83.7691L257.644 141.085L256.499 140.604Z" fill="#DD821F"/>
<path d="M226.305 105.78L223.658 107.166L225.498 110.705L228.145 109.319L226.305 105.78Z" fill="#FFD85A"/>
<path d="M233.389 116.523L237.415 117.784L236.041 115.137L233.389 116.523Z" fill="#DD821F"/>
<path d="M227.211 109.794L229.863 108.401L231.21 110.999L227.211 109.794Z" fill="#DD821F"/>
<path d="M218.664 97.5757L221.309 96.1895L225.905 96.9905L223.253 98.3768L218.664 97.5757Z" fill="#DD821F"/>
<path d="M213.999 88.6105L216.644 87.2242L215.929 84.4309L212.076 85.0718L207.786 83.1631L201.76 86.3187C202.169 86.4858 202.579 86.6461 202.989 86.7854C204.981 87.4611 207.022 87.8233 209.049 87.8233C209.077 87.8233 209.098 87.8233 209.125 87.8233C209.354 87.8233 209.577 87.8163 209.806 87.8094C209.889 87.8094 209.972 87.8024 210.056 87.8024C210.257 87.7885 210.451 87.7745 210.653 87.7536C210.764 87.7467 210.875 87.7328 210.979 87.7188C211.159 87.6979 211.34 87.677 211.52 87.6492C211.645 87.6283 211.777 87.6143 211.902 87.5934C212.069 87.5656 212.235 87.5377 212.395 87.5029C212.534 87.475 212.68 87.4471 212.819 87.4123C212.971 87.3775 213.124 87.3427 213.277 87.3009C213.284 87.3009 213.298 87.2939 213.305 87.2939L213.999 88.6105Z" fill="#DD821F"/>
<path d="M257.644 141.085L254.992 142.471L242.143 137.094L244.788 135.707L257.644 141.085Z" fill="#DD821F"/>
<path d="M238.512 130.107L241.157 128.72L242.427 131.159L238.512 130.107Z" fill="#DD821F"/>
<path d="M200.039 42.8024L195.367 45.2474C195.367 45.2474 197.859 44.8295 197.887 44.8155C197.922 44.7946 200.039 42.8024 200.039 42.8024Z" fill="#FFD85A"/>
<path opacity="0.5" d="M164.098 136.94C163.717 136.961 163.342 136.982 162.96 137.01C162.828 137.017 162.696 137.031 162.564 137.045C162.321 137.066 162.078 137.087 161.842 137.114C161.683 137.128 161.523 137.149 161.363 137.17C161.155 137.198 160.947 137.219 160.745 137.247C160.572 137.268 160.398 137.296 160.225 137.323C160.037 137.351 159.857 137.379 159.669 137.407C159.489 137.435 159.301 137.47 159.121 137.505C158.954 137.532 158.788 137.567 158.621 137.595C158.427 137.63 158.232 137.672 158.045 137.714C157.899 137.741 157.753 137.776 157.608 137.811C157.399 137.86 157.198 137.902 156.997 137.957C156.872 137.985 156.754 138.02 156.629 138.048C156.407 138.104 156.191 138.159 155.969 138.222C155.879 138.25 155.796 138.271 155.705 138.299C155.462 138.368 155.213 138.438 154.97 138.515C154.942 138.522 154.914 138.535 154.886 138.542C146.84 141.078 141.377 146.261 141.634 151.987C141.988 159.705 152.609 165.487 165.362 164.902C172.311 164.581 178.448 162.436 182.551 159.301C184.029 158.166 185.244 156.905 186.133 155.553C186.147 155.532 186.154 155.519 186.167 155.505C186.265 155.351 186.362 155.198 186.452 155.045C186.487 154.989 186.522 154.933 186.549 154.878C186.626 154.738 186.695 154.606 186.765 154.467C186.806 154.39 186.841 154.313 186.883 154.237C186.903 154.202 186.917 154.167 186.938 154.125L199.205 153.561L201.933 150.726L205.453 150.566L210.041 153.066L214.04 152.885L213.992 151.443L216.928 151.311L216.991 152.628L222.912 152.356L222.773 149.305L225.772 149.166L228.841 150.837L232.499 150.67L232.527 151.227L237.345 151.005L237.296 149.897L242.246 149.667L245.196 149.535L255.665 142.52L245.731 142.98L190.833 145.508L186.57 145.703C183.356 140.173 174.428 136.467 164.098 136.94ZM164.015 150.956C164.119 153.213 161.176 155.184 157.448 155.358C157.24 155.365 157.038 155.372 156.83 155.365C156.761 155.365 156.698 155.365 156.629 155.358C156.49 155.351 156.351 155.351 156.219 155.337C156.15 155.33 156.073 155.33 156.004 155.323C153.81 155.135 151.977 154.299 151.089 153.108C150.915 152.878 150.776 152.628 150.679 152.377C150.672 152.356 150.665 152.335 150.658 152.321C150.617 152.21 150.582 152.098 150.561 151.987C150.534 151.854 150.513 151.715 150.506 151.576C150.402 149.319 153.345 147.347 157.073 147.173C160.801 147.006 163.911 148.699 164.015 150.956Z" fill="#32589D" fill-opacity="0.6"/>
<path opacity="0.2" d="M262.379 157.661C258.553 159.876 252.354 159.876 248.529 157.661C244.704 155.445 244.704 151.851 248.529 149.636C252.354 147.421 258.553 147.421 262.385 149.636C266.204 151.851 266.204 155.445 262.379 157.661Z" fill="#242993"/>
<path d="M189.097 150.294L187.049 145.418L187.861 145.299L188.951 146.505L189.097 150.294Z" fill="#DD821F"/>
<path d="M221.808 136.265L219.787 131.444C219.787 131.444 219.163 136.912 219.19 136.975C219.211 137.031 221.808 136.265 221.808 136.265Z" fill="#FFD85A"/>
<path d="M209.16 152.107C218.212 148.282 222.991 139.082 219.834 131.558C216.676 124.034 206.778 121.036 197.725 124.862C188.673 128.687 183.894 137.887 187.051 145.411C190.209 152.934 200.107 155.933 209.16 152.107Z" fill="#FFD85A"/>
<path d="M211.199 156.975C220.251 153.15 225.03 143.95 221.873 136.426C218.715 128.902 208.817 125.904 199.764 129.729C190.712 133.555 185.933 142.755 189.09 150.279C192.248 157.802 202.146 160.8 211.199 156.975Z" fill="#FFD85A"/>
<path d="M189.799 138.751C187.917 142.443 187.535 146.574 189.097 150.294C192.256 157.817 202.156 160.82 211.208 156.995C215.686 155.101 219.115 151.896 221.059 148.225L189.799 138.751Z" fill="#DD821F"/>
<path d="M210.947 156.371C219.597 152.716 224.163 143.924 221.145 136.734C218.128 129.543 208.669 126.677 200.019 130.332C191.37 133.987 186.804 142.779 189.821 149.97C192.839 157.16 202.297 160.026 210.947 156.371Z" fill="#F9BF30"/>
<path d="M209.875 153.819C202.932 156.751 195.338 154.453 192.915 148.678C190.492 142.903 194.158 135.847 201.1 132.914C208.042 129.981 215.637 132.28 218.059 138.055C220.482 143.823 216.817 150.879 209.875 153.819Z" fill="#F2B42A"/>
<path d="M218.06 138.055C217.962 137.818 217.844 137.588 217.726 137.358C219.566 142.987 215.928 149.584 209.271 152.398C202.613 155.212 195.366 153.213 192.645 147.954C192.721 148.197 192.811 148.441 192.908 148.678C195.331 154.453 202.926 156.752 209.868 153.819C216.817 150.879 220.482 143.823 218.06 138.055Z" fill="#FFD85A"/>
<path d="M208.271 143.161L204.717 142.081C202.496 143.711 198.358 146.748 195.061 149.2C197.129 151.367 200.302 152.495 203.71 152.321L208.271 143.161Z" fill="#FFD85A"/>
<path d="M207.264 151.673C207.687 151.534 208.118 151.381 208.541 151.207C211.575 149.925 213.907 147.765 215.254 145.286L209.457 143.53L207.264 151.673Z" fill="#FFD85A"/>
<path d="M200.905 140.932L194.213 138.905C193.192 140.96 192.408 143.077 192.894 145.209L200.905 140.932Z" fill="#FFD85A"/>
<path d="M201.009 134.446C207.951 131.514 215.546 133.813 217.968 139.587C218.461 140.758 218.697 141.977 218.711 143.21C218.947 141.475 218.76 139.713 218.066 138.062C215.643 132.287 208.048 129.988 201.106 132.921C195.566 135.261 192.123 140.221 192.178 145.063C192.768 140.73 196.052 136.536 201.009 134.446Z" fill="#DD821F"/>
<path d="M187.049 145.418C187.521 146.539 188.139 147.556 188.882 148.469C188.75 147.215 188.542 145.348 188.542 145.348L188.611 142.2L189.285 140.939L190.492 138.96L188.09 133.241C185.925 137.087 185.397 141.482 187.049 145.418Z" fill="#DD821F"/>
<path d="M219.15 132.837L218.012 130.128C217.963 130.016 218.019 129.891 218.13 129.842L218.192 129.814C218.303 129.765 218.428 129.821 218.477 129.933L219.615 132.642C219.664 132.754 219.609 132.879 219.497 132.928L219.435 132.956C219.324 132.998 219.192 132.949 219.15 132.837Z" fill="#DD821F"/>
<path d="M216.402 130.539L215.007 127.216C214.951 127.09 215.014 126.944 215.139 126.888L215.284 126.826C215.409 126.77 215.555 126.833 215.611 126.958L217.006 130.281C217.062 130.406 216.999 130.552 216.874 130.608L216.728 130.671C216.596 130.727 216.451 130.664 216.402 130.539Z" fill="#DD821F"/>
<path d="M213.271 128.867L211.896 125.586C211.834 125.439 211.903 125.279 212.049 125.217L212.299 125.112C212.444 125.049 212.604 125.119 212.667 125.265L214.041 128.546C214.104 128.693 214.034 128.853 213.888 128.915L213.639 129.02C213.493 129.076 213.333 129.006 213.271 128.867Z" fill="#DD821F"/>
<path d="M209.382 128.121L207.882 124.555C207.82 124.409 207.889 124.248 208.035 124.186L208.285 124.081C208.431 124.018 208.59 124.088 208.653 124.234L210.152 127.801C210.215 127.947 210.145 128.107 210 128.17L209.75 128.275C209.604 128.337 209.437 128.268 209.382 128.121Z" fill="#DD821F"/>
<path d="M205.795 128.1L204.191 124.283C204.128 124.137 204.198 123.977 204.344 123.914L204.594 123.809C204.739 123.747 204.899 123.816 204.962 123.963L206.565 127.78C206.628 127.926 206.558 128.087 206.412 128.149L206.163 128.254C206.017 128.316 205.85 128.247 205.795 128.1Z" fill="#DD821F"/>
<path d="M202.426 128.616L200.857 124.868C200.795 124.722 200.864 124.562 201.01 124.499L201.26 124.395C201.405 124.332 201.565 124.402 201.628 124.548L203.196 128.296C203.259 128.442 203.19 128.602 203.044 128.665L202.794 128.769C202.655 128.825 202.488 128.762 202.426 128.616Z" fill="#DD821F"/>
<path d="M199.295 129.682L197.712 125.906C197.65 125.76 197.719 125.6 197.865 125.537L198.115 125.432C198.261 125.37 198.421 125.439 198.483 125.586L200.066 129.361C200.128 129.508 200.059 129.668 199.913 129.73L199.663 129.835C199.517 129.898 199.358 129.828 199.295 129.682Z" fill="#DD821F"/>
<path d="M196.311 131.096L194.777 127.439C194.714 127.292 194.784 127.132 194.93 127.07L195.18 126.965C195.325 126.902 195.485 126.972 195.547 127.118L197.082 130.775C197.144 130.922 197.075 131.082 196.929 131.145L196.679 131.249C196.533 131.312 196.374 131.242 196.311 131.096Z" fill="#DD821F"/>
<path d="M193.562 133.081L192.048 129.48C191.986 129.333 192.055 129.173 192.201 129.111L192.451 129.006C192.597 128.943 192.756 129.013 192.819 129.159L194.332 132.761C194.395 132.907 194.325 133.067 194.18 133.13L193.93 133.234C193.784 133.29 193.624 133.22 193.562 133.081Z" fill="#DD821F"/>
<path d="M191.139 135.84L189.57 132.099C189.507 131.953 189.577 131.792 189.723 131.73L189.973 131.625C190.118 131.563 190.278 131.632 190.34 131.778L191.909 135.519C191.972 135.666 191.902 135.826 191.757 135.888L191.507 135.993C191.368 136.049 191.201 135.986 191.139 135.84Z" fill="#DD821F"/>
<path d="M189.395 206.454L184.195 207.324L184.272 206.502L185.695 205.715L189.395 206.454Z" fill="#DD821F"/>
<path d="M183.37 171.276L178.232 172.132C178.232 172.132 183.39 174.006 183.453 173.999C183.515 173.985 183.37 171.276 183.37 171.276Z" fill="#FFD85A"/>
<path d="M184.19 207.306C192.216 205.966 197.415 196.999 195.803 187.276C194.191 177.554 186.378 170.758 178.353 172.098C170.328 173.437 165.129 182.405 166.741 192.127C168.353 201.85 176.165 208.645 184.19 207.306Z" fill="#FFD85A"/>
<path d="M189.392 206.438C197.417 205.098 202.616 196.131 201.004 186.408C199.392 176.686 191.579 169.89 183.554 171.23C175.529 172.57 170.33 181.537 171.942 191.26C173.554 200.982 181.366 207.778 189.392 206.438Z" fill="#FFD85A"/>
<path d="M178.365 203.096C181.51 205.785 185.425 207.115 189.396 206.454C197.421 205.116 202.621 196.144 201.01 186.419C200.212 181.613 197.9 177.517 194.79 174.772L178.365 203.096Z" fill="#DD821F"/>
<path d="M189.262 205.657C196.931 204.376 201.9 195.807 200.36 186.518C198.82 177.228 191.354 170.735 183.684 172.015C176.014 173.295 171.045 181.864 172.586 191.154C174.126 200.444 181.592 206.937 189.262 205.657Z" fill="#F9BF30"/>
<path d="M197.629 186.991C198.865 194.451 194.88 201.327 188.722 202.351C182.565 203.382 176.574 198.164 175.338 190.711C174.102 183.25 178.087 176.375 184.245 175.351C190.395 174.32 196.387 179.53 197.629 186.991Z" fill="#F2B42A"/>
<path d="M184.238 175.344C183.981 175.385 183.731 175.441 183.488 175.504C189.368 175.009 194.922 180.087 196.109 187.235C197.296 194.382 193.679 200.992 187.952 202.434C188.209 202.413 188.459 202.385 188.716 202.344C194.873 201.313 198.858 194.437 197.622 186.984C196.387 179.53 190.396 174.32 184.238 175.344Z" fill="#FFD85A"/>
<path d="M186.924 186.092L185.057 189.31C186.119 191.86 188.111 196.604 189.722 200.386C192.304 198.868 194.13 196.033 194.748 192.668L186.924 186.092Z" fill="#FFD85A"/>
<path d="M194.942 189.039C194.907 188.593 194.859 188.14 194.783 187.687C194.241 184.427 192.686 181.648 190.596 179.76L187.549 185.012L194.942 189.039Z" fill="#FFD85A"/>
<path d="M183.057 192.759L179.537 198.826C181.293 200.296 183.161 201.557 185.341 201.57L183.057 192.759Z" fill="#FFD85A"/>
<path d="M176.788 191.156C175.552 183.696 179.537 176.82 185.695 175.796C186.944 175.587 188.18 175.643 189.381 175.908C187.75 175.274 186 175.051 184.237 175.344C178.079 176.375 174.094 183.25 175.33 190.704C176.316 196.652 180.329 201.166 185.035 202.232C180.974 200.651 177.67 196.478 176.788 191.156Z" fill="#DD821F"/>
<path d="M184.196 207.324C185.39 207.122 186.522 206.753 187.577 206.238C186.335 206.077 184.474 205.848 184.474 205.848L181.433 205.053L180.364 204.106L178.726 202.469L172.631 203.486C175.859 206.495 180.003 208.021 184.196 207.324Z" fill="#DD821F"/>
<path d="M179.432 173.08L176.544 173.56C176.426 173.581 176.315 173.498 176.294 173.379L176.281 173.31C176.26 173.191 176.343 173.08 176.461 173.059L179.349 172.578C179.467 172.557 179.578 172.641 179.599 172.759L179.613 172.829C179.627 172.947 179.55 173.059 179.432 173.08Z" fill="#DD821F"/>
<path d="M176.566 175.225L173.019 175.817C172.887 175.838 172.755 175.748 172.734 175.615L172.706 175.462C172.685 175.33 172.776 175.197 172.907 175.176L176.455 174.584C176.587 174.563 176.719 174.654 176.739 174.786L176.767 174.94C176.795 175.079 176.705 175.204 176.566 175.225Z" fill="#DD821F"/>
<path d="M174.219 177.893L170.713 178.478C170.56 178.506 170.415 178.402 170.394 178.248L170.352 177.977C170.324 177.824 170.428 177.677 170.581 177.656L174.087 177.071C174.24 177.043 174.386 177.148 174.406 177.301L174.448 177.573C174.476 177.726 174.372 177.872 174.219 177.893Z" fill="#DD821F"/>
<path d="M172.602 181.522L168.791 182.156C168.639 182.184 168.493 182.08 168.472 181.927L168.43 181.655C168.402 181.502 168.507 181.355 168.659 181.334L172.471 180.7C172.623 180.673 172.769 180.777 172.79 180.93L172.832 181.202C172.859 181.348 172.755 181.495 172.602 181.522Z" fill="#DD821F"/>
<path d="M171.749 185.019L167.674 185.702C167.521 185.73 167.376 185.625 167.355 185.472L167.313 185.2C167.285 185.047 167.389 184.901 167.542 184.88L171.617 184.197C171.77 184.17 171.916 184.274 171.937 184.427L171.978 184.699C172.006 184.852 171.902 184.991 171.749 185.019Z" fill="#DD821F"/>
<path d="M171.47 188.419L167.479 189.087C167.326 189.115 167.18 189.011 167.159 188.858L167.118 188.586C167.09 188.433 167.194 188.286 167.347 188.266L171.339 187.597C171.491 187.569 171.637 187.673 171.658 187.827L171.7 188.098C171.727 188.252 171.623 188.398 171.47 188.419Z" fill="#DD821F"/>
<path d="M171.783 191.728L167.756 192.396C167.603 192.424 167.458 192.32 167.437 192.166L167.395 191.895C167.367 191.742 167.471 191.595 167.624 191.574L171.651 190.906C171.803 190.878 171.949 190.982 171.97 191.135L172.012 191.407C172.039 191.553 171.935 191.7 171.783 191.728Z" fill="#DD821F"/>
<path d="M172.462 194.967L168.561 195.615C168.408 195.642 168.262 195.538 168.241 195.385L168.2 195.113C168.172 194.96 168.276 194.813 168.429 194.793L172.33 194.145C172.483 194.117 172.629 194.221 172.65 194.375L172.691 194.646C172.712 194.8 172.615 194.946 172.462 194.967Z" fill="#DD821F"/>
<path d="M173.741 198.108L169.895 198.749C169.742 198.777 169.596 198.673 169.575 198.519L169.534 198.248C169.506 198.094 169.61 197.948 169.763 197.927L173.609 197.286C173.762 197.259 173.907 197.363 173.928 197.516L173.97 197.788C173.998 197.941 173.893 198.088 173.741 198.108Z" fill="#DD821F"/>
<path d="M175.857 201.111L171.865 201.779C171.713 201.807 171.567 201.703 171.546 201.55L171.504 201.278C171.477 201.125 171.581 200.978 171.734 200.957L175.725 200.289C175.878 200.261 176.024 200.365 176.045 200.519L176.086 200.79C176.114 200.944 176.01 201.09 175.857 201.111Z" fill="#DD821F"/>
<path opacity="0.5" d="M176.387 275.01C187.769 271.014 196.005 264.933 194.783 261.429C193.561 257.925 183.343 258.324 171.962 262.32C160.58 266.317 152.344 272.397 153.566 275.901C154.788 279.406 165.006 279.007 176.387 275.01Z" fill="#32589D" fill-opacity="0.6"/>
<path d="M165.967 248.674L166.113 245.066L166.946 242.955L167.473 244.704L165.967 248.674Z" fill="#DD821F"/>
<path d="M203.654 249.357L203.793 245.818C203.793 245.818 200.814 248.8 200.814 248.876C200.814 248.953 203.654 249.357 203.654 249.357Z" fill="#FFD85A"/>
<path d="M184.549 259.848C174.143 259.597 165.882 254.289 166.104 245.073C166.326 235.857 174.941 228.584 185.348 228.835C195.754 229.086 204.015 236.762 203.793 245.978C203.571 255.194 194.962 260.098 184.549 259.848Z" fill="#FFD85A"/>
<path d="M203.645 249.575C203.864 240.356 195.606 232.68 185.2 232.43C174.794 232.181 166.18 239.452 165.96 248.671C165.741 257.89 173.998 265.565 184.405 265.815C194.811 266.065 203.425 258.794 203.645 249.575Z" fill="#FFD85A"/>
<path d="M171.658 237.097C168.242 240.029 166.076 244.112 165.965 248.674C165.743 257.89 174.004 265.567 184.411 265.817C189.562 265.943 194.268 264.222 197.739 261.338L171.658 237.097Z" fill="#DD821F"/>
<path d="M202.805 249.554C203.015 240.746 195.125 233.413 185.182 233.174C175.24 232.936 167.01 239.882 166.8 248.69C166.59 257.497 174.48 264.83 184.422 265.069C194.365 265.307 202.595 258.361 202.805 249.554Z" fill="#F9BF30"/>
<path d="M184.501 261.923C176.517 261.728 170.186 255.842 170.353 248.772C170.519 241.701 177.128 236.128 185.112 236.317C193.095 236.512 199.426 242.398 199.26 249.468C199.093 256.539 192.484 262.118 184.501 261.923Z" fill="#F2B42A"/>
<path d="M199.26 249.468C199.267 249.176 199.26 248.883 199.246 248.598C198.579 255.25 192.2 260.363 184.549 260.182C176.899 260.001 170.769 254.581 170.422 247.901C170.394 248.187 170.373 248.479 170.366 248.772C170.2 255.842 176.531 261.728 184.515 261.923C192.484 262.119 199.093 256.539 199.26 249.468Z" fill="#FFD85A"/>
<path d="M187.584 250.2L184.62 247.441C181.767 248.089 176.442 249.308 172.193 250.311C173.249 253.502 175.824 256.135 179.191 257.528L187.584 250.2Z" fill="#FFD85A"/>
<path d="M182.918 258.51C183.39 258.566 183.869 258.608 184.355 258.615C187.847 258.698 191.04 257.549 193.414 255.619L188.576 251.119L182.918 258.51Z" fill="#FFD85A"/>
<path d="M181.44 244.495L175.858 239.305C173.977 240.949 172.304 242.767 171.846 245.191L181.44 244.495Z" fill="#FFD85A"/>
<path d="M184.355 237.849C192.339 238.044 198.67 243.93 198.504 251.001C198.469 252.436 198.163 253.801 197.643 255.076C198.628 253.397 199.205 251.495 199.253 249.468C199.42 242.398 193.089 236.512 185.105 236.317C178.739 236.163 173.255 239.681 171.207 244.697C173.671 240.517 178.663 237.717 184.355 237.849Z" fill="#DD821F"/>
<path d="M166.112 245.066C166.077 246.438 165.952 247.427 166.272 248.716C166.688 247.365 167.584 243.317 167.584 243.317L169.021 240.099L170.215 239.11L172.235 237.633L172.401 232.994C168.639 235.954 166.223 240.245 166.112 245.066Z" fill="#DD821F"/>
<path d="M202.58 244.592L202.657 243.645C202.657 243.505 202.768 243.401 202.893 243.401H202.962C203.087 243.401 203.191 243.519 203.184 243.652L203.108 244.599C203.108 244.738 202.997 244.843 202.872 244.843H202.803C202.678 244.843 202.573 244.731 202.58 244.592Z" fill="#DD821F"/>
<path d="M200.92 240.956L201.017 239.249C201.024 239.096 201.142 238.971 201.288 238.978L201.454 238.985C201.6 238.992 201.711 239.117 201.711 239.27L201.614 240.977C201.607 241.13 201.489 241.255 201.343 241.248L201.177 241.242C201.031 241.242 200.92 241.109 200.92 240.956Z" fill="#DD821F"/>
<path d="M198.629 237.779L198.726 236.122C198.733 235.947 198.865 235.808 199.032 235.808L199.323 235.815C199.49 235.822 199.615 235.961 199.615 236.142L199.518 237.8C199.511 237.974 199.379 238.114 199.212 238.114L198.921 238.107C198.754 238.1 198.622 237.954 198.629 237.779Z" fill="#DD821F"/>
<path d="M195.194 235.216L195.298 233.21C195.305 233.036 195.437 232.896 195.603 232.896L195.895 232.903C196.061 232.91 196.186 233.05 196.186 233.231L196.082 235.237C196.075 235.411 195.943 235.55 195.777 235.55L195.485 235.543C195.319 235.536 195.187 235.39 195.194 235.216Z" fill="#DD821F"/>
<path d="M191.737 233.53L191.848 231.217C191.855 231.043 191.987 230.904 192.153 230.904L192.445 230.911C192.611 230.918 192.736 231.057 192.736 231.238L192.625 233.551C192.618 233.725 192.486 233.865 192.32 233.865L192.028 233.858C191.862 233.851 191.73 233.704 191.737 233.53Z" fill="#DD821F"/>
<path d="M188.266 232.506L188.377 230.284C188.384 230.11 188.516 229.971 188.682 229.971L188.974 229.978C189.141 229.985 189.266 230.124 189.266 230.305L189.154 232.527C189.148 232.701 189.016 232.841 188.849 232.841L188.557 232.834C188.391 232.827 188.259 232.68 188.266 232.506Z" fill="#DD821F"/>
<path d="M184.774 232.158L184.885 229.901C184.892 229.727 185.024 229.587 185.19 229.587L185.482 229.594C185.648 229.601 185.773 229.741 185.773 229.922L185.662 232.179C185.655 232.353 185.523 232.492 185.357 232.492L185.065 232.485C184.899 232.478 184.767 232.332 184.774 232.158Z" fill="#DD821F"/>
<path d="M181.274 232.228L181.378 230.117C181.385 229.943 181.517 229.803 181.683 229.803L181.975 229.81C182.141 229.817 182.266 229.957 182.266 230.138L182.162 232.248C182.155 232.423 182.023 232.562 181.857 232.562L181.565 232.555C181.399 232.548 181.267 232.402 181.274 232.228Z" fill="#DD821F"/>
<path d="M177.762 233.001L177.866 230.953C177.873 230.779 178.005 230.639 178.172 230.639L178.463 230.646C178.63 230.653 178.755 230.793 178.755 230.974L178.651 233.022C178.644 233.196 178.512 233.335 178.345 233.335L178.054 233.328C177.887 233.321 177.755 233.175 177.762 233.001Z" fill="#DD821F"/>
<path d="M174.221 234.721L174.332 232.506C174.339 232.332 174.471 232.193 174.637 232.193L174.929 232.2C175.096 232.207 175.221 232.346 175.221 232.527L175.11 234.742C175.103 234.916 174.971 235.056 174.804 235.056L174.513 235.049C174.346 235.042 174.214 234.896 174.221 234.721Z" fill="#DD821F"/>
</g>
<defs>
<linearGradient id="paint0_linear_208_1621" x1="395.225" y1="110.957" x2="250.228" y2="110.957" gradientUnits="userSpaceOnUse">
<stop stop-color="#C0D6FF"/>
<stop offset="0.2978" stop-color="#C5DBFF"/>
<stop offset="0.6488" stop-color="#D3E9FF"/>
<stop offset="1" stop-color="#E9FFFF"/>
</linearGradient>
<linearGradient id="paint1_linear_208_1621" x1="395.223" y1="148.208" x2="370.326" y2="148.208" gradientUnits="userSpaceOnUse">
<stop stop-color="#5778FF"/>
<stop offset="0.1779" stop-color="#5C7DFF"/>
<stop offset="0.3876" stop-color="#6A8AFF"/>
<stop offset="0.6134" stop-color="#82A0FF"/>
<stop offset="0.849" stop-color="#A3BEFF"/>
<stop offset="1" stop-color="#BCD5FF"/>
</linearGradient>
<linearGradient id="paint2_linear_208_1621" x1="375.8" y1="190.081" x2="171.017" y2="190.081" gradientUnits="userSpaceOnUse">
<stop stop-color="#5778FF"/>
<stop offset="0.1779" stop-color="#5C7DFF"/>
<stop offset="0.3876" stop-color="#6A8AFF"/>
<stop offset="0.6134" stop-color="#82A0FF"/>
<stop offset="0.849" stop-color="#A3BEFF"/>
<stop offset="1" stop-color="#BCD5FF"/>
</linearGradient>
<linearGradient id="paint3_linear_208_1621" x1="306.991" y1="183.241" x2="102.1" y2="183.241" gradientUnits="userSpaceOnUse">
<stop stop-color="#C0D6FF"/>
<stop offset="0.2978" stop-color="#C5DBFF"/>
<stop offset="0.6488" stop-color="#D3E9FF"/>
<stop offset="1" stop-color="#E9FFFF"/>
</linearGradient>
<linearGradient id="paint4_linear_208_1621" x1="272.293" y1="194.893" x2="219.846" y2="194.893" gradientUnits="userSpaceOnUse">
<stop stop-color="#C0D6FF"/>
<stop offset="0.2978" stop-color="#C5DBFF"/>
<stop offset="0.6488" stop-color="#D3E9FF"/>
<stop offset="1" stop-color="#E9FFFF"/>
</linearGradient>
<linearGradient id="paint5_linear_208_1621" x1="385.271" y1="137.748" x2="180.38" y2="137.748" gradientUnits="userSpaceOnUse">
<stop stop-color="#C0D6FF"/>
<stop offset="0.2978" stop-color="#C5DBFF"/>
<stop offset="0.6488" stop-color="#D3E9FF"/>
<stop offset="1" stop-color="#E9FFFF"/>
</linearGradient>
<linearGradient id="paint6_linear_208_1621" x1="398.756" y1="122.681" x2="346.309" y2="122.681" gradientUnits="userSpaceOnUse">
<stop stop-color="#C0D6FF"/>
<stop offset="0.2978" stop-color="#C5DBFF"/>
<stop offset="0.6488" stop-color="#D3E9FF"/>
<stop offset="1" stop-color="#E9FFFF"/>
</linearGradient>
<radialGradient id="paint7_radial_208_1621" cx="0" cy="0" r="1" gradientUnits="userSpaceOnUse" gradientTransform="translate(316.118 164.168) rotate(180) scale(58.7381 58.8413)">
<stop stop-color="#2B3AA5"/>
<stop offset="1" stop-color="#182484"/>
</radialGradient>
<radialGradient id="paint8_radial_208_1621" cx="0" cy="0" r="1" gradientUnits="userSpaceOnUse" gradientTransform="translate(328.964 137.697) rotate(180) scale(44.9605 45.0395)">
<stop stop-color="#2B3AA5"/>
<stop offset="1" stop-color="#182484"/>
</radialGradient>
<linearGradient id="paint9_linear_208_1621" x1="345.15" y1="150.7" x2="305.439" y2="79.3191" gradientUnits="userSpaceOnUse">
<stop stop-color="#5778FF"/>
<stop offset="0.0398" stop-color="#5C7DFF"/>
<stop offset="0.0867" stop-color="#6A8AFF"/>
<stop offset="0.1372" stop-color="#82A0FF"/>
<stop offset="0.1899" stop-color="#A3BEFF"/>
<stop offset="0.2237" stop-color="#BCD5FF"/>
</linearGradient>
<linearGradient id="paint10_linear_208_1621" x1="296.495" y1="150.954" x2="322.93" y2="99.3672" gradientUnits="userSpaceOnUse">
<stop stop-color="#C0D6FF"/>
<stop offset="0.2978" stop-color="#C5DBFF"/>
<stop offset="0.6488" stop-color="#D3E9FF"/>
<stop offset="1" stop-color="#E9FFFF"/>
</linearGradient>
<linearGradient id="paint11_linear_208_1621" x1="225.245" y1="243.749" x2="309.25" y2="95.1615" gradientUnits="userSpaceOnUse">
<stop stop-color="#C0D6FF"/>
<stop offset="0.0782" stop-color="#C3D9FF"/>
<stop offset="0.1341" stop-color="#CCE2FF"/>
<stop offset="0.1829" stop-color="#DCF2FF"/>
<stop offset="0.2117" stop-color="#E9FFFF"/>
<stop offset="0.256" stop-color="#D8EEFF"/>
<stop offset="0.3145" stop-color="#CBE1FF"/>
<stop offset="0.3869" stop-color="#C2D8FF"/>
<stop offset="0.5143" stop-color="#C0D6FF"/>
<stop offset="0.6239" stop-color="#D0E6FF"/>
<stop offset="0.755" stop-color="#E9FFFF"/>
<stop offset="1" stop-color="#C0D6FF"/>
</linearGradient>
<clipPath id="clip0_208_1621">
<rect width="501" height="282" fill="white"/>
</clipPath>
</defs>
</svg>
