<svg width="501" height="283" viewBox="0 0 501 283" fill="none" xmlns="http://www.w3.org/2000/svg">
<g clip-path="url(#clip0_179_2261)">
<g opacity="0.2">
<path d="M116.202 188.423L110.918 185.354L116.202 182.296L121.487 185.354L116.202 188.423Z" fill="#5761D7"/>
<path opacity="0.1" d="M126.771 194.54L121.486 191.482L126.771 188.423L132.055 191.482L126.771 194.54Z" fill="#5761D7"/>
<path opacity="0.4" d="M137.351 200.668L132.066 197.599L137.351 194.54L142.635 197.599L137.351 200.668Z" fill="#5761D7"/>
<path d="M147.919 206.785L142.635 203.726L147.919 200.668L153.204 203.726L147.919 206.785Z" fill="#5761D7"/>
<path opacity="0.4" d="M158.488 212.913L153.203 209.844L158.488 206.785L163.772 209.844L158.488 212.913Z" fill="#5761D7"/>
<path d="M169.066 219.03L163.771 215.971L169.066 212.913L174.35 215.971L169.066 219.03Z" fill="#5761D7"/>
<path d="M179.636 225.157L174.352 222.089L179.636 219.03L184.92 222.089L179.636 225.157Z" fill="#5761D7"/>
<path d="M190.204 231.275L184.92 228.216L190.204 225.157L195.489 228.216L190.204 231.275Z" fill="#5761D7"/>
<path opacity="0.1" d="M200.773 237.402L195.488 234.333L200.773 231.275L206.067 234.333L200.773 237.402Z" fill="#5761D7"/>
<path d="M105.583 194.57L100.299 191.502L105.583 188.443L110.878 191.502L105.583 194.57Z" fill="#5761D7"/>
<path d="M116.161 200.688L110.877 197.629L116.161 194.57L121.446 197.629L116.161 200.688Z" fill="#5761D7"/>
<path d="M126.732 206.815L121.447 203.746L126.732 200.688L132.016 203.746L126.732 206.815Z" fill="#5761D7"/>
<path d="M137.3 212.932L132.016 209.874L137.3 206.815L142.584 209.874L137.3 212.932Z" fill="#5761D7"/>
<path d="M147.878 219.06L142.594 215.991L147.878 212.932L153.163 215.991L147.878 219.06Z" fill="#5761D7"/>
<path d="M158.446 225.177L153.162 222.119L158.446 219.06L163.731 222.119L158.446 225.177Z" fill="#5761D7"/>
<path d="M169.015 231.305L163.73 228.236L169.015 225.177L174.299 228.236L169.015 231.305Z" fill="#5761D7"/>
<path d="M179.595 237.422L174.301 234.363L179.595 231.305L184.879 234.363L179.595 237.422Z" fill="#5761D7"/>
<path d="M190.163 243.539L184.879 240.481L190.163 237.422L195.448 240.481L190.163 243.539Z" fill="#5761D7"/>
<path d="M94.9738 200.718L89.6895 197.649L94.9738 194.59L100.258 197.649L94.9738 200.718Z" fill="#5761D7"/>
<path d="M105.542 206.835L100.258 203.776L105.542 200.718L110.827 203.776L105.542 206.835Z" fill="#5761D7"/>
<path d="M116.111 212.962L110.826 209.894L116.111 206.835L121.405 209.894L116.111 212.962Z" fill="#5761D7"/>
<path opacity="0.1" d="M126.691 219.08L121.406 216.021L126.691 212.962L131.975 216.021L126.691 219.08Z" fill="#5761D7"/>
<path opacity="0.4" d="M137.259 225.207L131.975 222.138L137.259 219.08L142.543 222.138L137.259 225.207Z" fill="#5761D7"/>
<path opacity="0.4" d="M147.827 231.324L142.543 228.266L147.827 225.207L153.112 228.266L147.827 231.324Z" fill="#5761D7"/>
<path d="M158.405 237.452L153.121 234.383L158.405 231.324L163.69 234.383L158.405 237.452Z" fill="#5761D7"/>
<path d="M168.976 243.569L163.691 240.511L168.976 237.452L174.26 240.511L168.976 243.569Z" fill="#5761D7"/>
<path d="M179.544 249.687L174.26 246.628L179.544 243.569L184.829 246.628L179.544 249.687Z" fill="#5761D7"/>
<path opacity="0.4" d="M84.3567 206.865L79.0723 203.796L84.3567 200.737L89.641 203.796L84.3567 206.865Z" fill="#5761D7"/>
<path opacity="0.4" d="M94.9349 212.982L89.6406 209.924L94.9349 206.865L100.219 209.924L94.9349 212.982Z" fill="#5761D7"/>
<path opacity="0.1" d="M105.505 219.11L100.221 216.041L105.505 212.982L110.789 216.041L105.505 219.11Z" fill="#5761D7"/>
<path d="M116.073 225.227L110.789 222.168L116.073 219.11L121.358 222.168L116.073 225.227Z" fill="#5761D7"/>
<path d="M126.642 231.354L121.357 228.286L126.642 225.227L131.936 228.286L126.642 231.354Z" fill="#5761D7"/>
<path d="M137.22 237.472L131.936 234.413L137.22 231.354L142.504 234.413L137.22 237.472Z" fill="#5761D7"/>
<path opacity="0.4" d="M147.788 243.589L142.504 240.53L147.788 237.472L153.073 240.53L147.788 243.589Z" fill="#5761D7"/>
<path d="M158.359 249.716L153.074 246.658L158.359 243.589L163.643 246.658L158.359 249.716Z" fill="#5761D7"/>
<path d="M168.937 255.834L163.643 252.775L168.937 249.716L174.221 252.775L168.937 255.834Z" fill="#5761D7"/>
<path d="M73.7474 213.012L68.4531 209.943L73.7474 206.885L79.0318 209.943L73.7474 213.012Z" fill="#5761D7"/>
<path d="M84.3156 219.13L79.0312 216.071L84.3156 213.012L89.6 216.071L84.3156 219.13Z" fill="#5761D7"/>
<path d="M94.886 225.257L89.6016 222.188L94.886 219.13L100.17 222.188L94.886 225.257Z" fill="#5761D7"/>
<path d="M105.462 231.374L100.168 228.316L105.452 225.257L110.747 228.316L105.462 231.374Z" fill="#5761D7"/>
<path d="M116.032 237.492L110.748 234.433L116.032 231.374L121.317 234.433L116.032 237.492Z" fill="#5761D7"/>
<path d="M126.601 243.619L121.316 240.56L126.601 237.492L131.885 240.56L126.601 243.619Z" fill="#5761D7"/>
<path d="M137.171 249.736L131.887 246.678L137.171 243.619L142.465 246.678L137.171 249.736Z" fill="#5761D7"/>
<path d="M147.749 255.864L142.465 252.805L147.749 249.736L153.034 252.805L147.749 255.864Z" fill="#5761D7"/>
<path d="M158.316 261.981L153.031 258.922L158.316 255.864L163.6 258.922L158.316 261.981Z" fill="#5761D7"/>
<path d="M63.1301 219.159L57.8457 216.091L63.1301 213.032L68.4145 216.091L63.1301 219.159Z" fill="#5761D7"/>
<path d="M73.6985 225.277L68.4141 222.218L73.6985 219.159L78.9828 222.218L73.6985 225.277Z" fill="#5761D7"/>
<path opacity="0.4" d="M84.2787 231.394L78.9844 228.335L84.2787 225.277L89.5631 228.335L84.2787 231.394Z" fill="#5761D7"/>
<path d="M94.8469 237.522L89.5625 234.463L94.8469 231.404L100.131 234.463L94.8469 237.522Z" fill="#5761D7"/>
<path opacity="0.1" d="M105.415 243.639L100.131 240.58L105.415 237.522L110.7 240.58L105.415 243.639Z" fill="#5761D7"/>
<path d="M115.994 249.766L110.699 246.708L115.994 243.639L121.278 246.708L115.994 249.766Z" fill="#5761D7"/>
<path d="M126.562 255.884L121.277 252.825L126.562 249.766L131.846 252.825L126.562 255.884Z" fill="#5761D7"/>
<path d="M137.132 262.011L131.848 258.952L137.132 255.884L142.416 258.952L137.132 262.011Z" fill="#5761D7"/>
<path d="M147.698 268.128L142.414 265.07L147.698 262.011L152.993 265.07L147.698 268.128Z" fill="#5761D7"/>
<path d="M63.0891 231.424L57.8047 228.365L63.0891 225.307L68.3735 228.365L63.0891 231.424Z" fill="#5761D7"/>
<path opacity="0.4" d="M73.6594 237.541L68.375 234.483L73.6594 231.424L78.9438 234.483L73.6594 237.541Z" fill="#5761D7"/>
<path d="M84.2258 243.669L78.9414 240.61L84.2258 237.542L89.5102 240.61L84.2258 243.669Z" fill="#5761D7"/>
<path d="M94.806 249.786L89.5117 246.728L94.806 243.669L100.09 246.728L94.806 249.786Z" fill="#5761D7"/>
<path opacity="0.1" d="M105.374 255.914L100.09 252.855L105.374 249.786L110.659 252.855L105.374 255.914Z" fill="#5761D7"/>
<path opacity="0.4" d="M115.945 262.031L110.66 258.972L115.945 255.914L121.229 258.972L115.945 262.031Z" fill="#5761D7"/>
<path d="M126.523 268.158L121.229 265.1L126.513 262.031L131.807 265.1L126.523 268.158Z" fill="#5761D7"/>
<path opacity="0.1" d="M137.089 274.276L131.805 271.217L137.089 268.158L142.373 271.217L137.089 274.276Z" fill="#5761D7"/>
<path d="M63.0402 243.689L57.7559 240.63L63.0402 237.571L68.3346 240.63L63.0402 243.689Z" fill="#5761D7"/>
<path d="M73.6184 249.816L68.334 246.757L73.6184 243.689L78.9028 246.757L73.6184 249.816Z" fill="#5761D7"/>
<path d="M84.1887 255.934L78.9043 252.875L84.1887 249.816L89.4731 252.875L84.1887 255.934Z" fill="#5761D7"/>
<path d="M94.757 262.061L89.4727 259.002L94.757 255.934L100.041 259.002L94.757 262.061Z" fill="#5761D7"/>
<path d="M105.335 268.178L100.041 265.12L105.335 262.061L110.62 265.12L105.335 268.178Z" fill="#5761D7"/>
<path opacity="0.4" d="M115.904 274.306L110.619 271.247L115.904 268.178L121.188 271.247L115.904 274.306Z" fill="#5761D7"/>
<path d="M126.472 280.423L121.188 277.364L126.472 274.306L131.756 277.364L126.472 280.423Z" fill="#5761D7"/>
<path d="M84.1477 268.208L78.8633 265.149L84.1477 262.081L89.4321 265.149L84.1477 268.208Z" fill="#5761D7"/>
<path opacity="0.4" d="M94.718 274.326L89.4336 271.267L94.718 268.208L100.002 271.267L94.718 274.326Z" fill="#5761D7"/>
<path d="M105.284 280.453L100 277.394L105.284 274.326L110.569 277.394L105.284 280.453Z" fill="#5761D7"/>
<path d="M115.865 286.57L110.57 283.512L115.865 280.453L121.149 283.512L115.865 286.57Z" fill="#5761D7"/>
<path d="M304.134 188.423L298.85 185.354L304.134 182.296L309.418 185.354L304.134 188.423Z" fill="#5761D7"/>
<path opacity="0.1" d="M314.712 194.54L309.428 191.482L314.712 188.423L319.997 191.482L314.712 194.54Z" fill="#5761D7"/>
<path opacity="0.4" d="M325.282 200.668L319.998 197.599L325.282 194.54L330.567 197.599L325.282 200.668Z" fill="#5761D7"/>
<path d="M335.851 206.785L330.566 203.726L335.851 200.668L341.135 203.726L335.851 206.785Z" fill="#5761D7"/>
<path opacity="0.4" d="M346.429 212.913L341.135 209.844L346.429 206.785L351.713 209.844L346.429 212.913Z" fill="#5761D7"/>
<path d="M356.997 219.03L351.713 215.971L356.997 212.913L362.282 215.971L356.997 219.03Z" fill="#5761D7"/>
<path d="M367.566 225.157L362.281 222.089L367.566 219.03L372.85 222.089L367.566 225.157Z" fill="#5761D7"/>
<path d="M378.136 231.275L372.852 228.216L378.136 225.157L383.43 228.216L378.136 231.275Z" fill="#5761D7"/>
<path opacity="0.1" d="M388.714 237.402L383.43 234.333L388.714 231.275L393.998 234.333L388.714 237.402Z" fill="#5761D7"/>
<path d="M293.527 194.57L288.242 191.502L293.527 188.443L298.811 191.502L293.527 194.57Z" fill="#5761D7"/>
<path d="M304.095 200.688L298.811 197.629L304.095 194.57L309.379 197.629L304.095 200.688Z" fill="#5761D7"/>
<path d="M314.663 206.815L309.379 203.746L314.663 200.688L319.948 203.746L314.663 206.815Z" fill="#5761D7"/>
<path d="M325.242 212.932L319.947 209.874L325.242 206.815L330.526 209.874L325.242 212.932Z" fill="#5761D7"/>
<path d="M335.812 219.06L330.527 215.991L335.812 212.932L341.096 215.991L335.812 219.06Z" fill="#5761D7"/>
<path d="M346.38 225.177L341.096 222.119L346.38 219.06L351.664 222.119L346.38 225.177Z" fill="#5761D7"/>
<path d="M356.96 231.305L351.666 228.236L356.96 225.177L362.245 228.236L356.96 231.305Z" fill="#5761D7"/>
<path d="M367.527 237.422L362.242 234.363L367.527 231.305L372.811 234.363L367.527 237.422Z" fill="#5761D7"/>
<path d="M378.097 243.539L372.812 240.481L378.097 237.422L383.381 240.481L378.097 243.539Z" fill="#5761D7"/>
<path d="M282.907 200.718L277.623 197.649L282.907 194.59L288.192 197.649L282.907 200.718Z" fill="#5761D7"/>
<path d="M293.476 206.835L288.191 203.776L293.476 200.718L298.77 203.776L293.476 206.835Z" fill="#5761D7"/>
<path d="M304.056 212.962L298.771 209.894L304.056 206.835L309.34 209.894L304.056 212.962Z" fill="#5761D7"/>
<path opacity="0.1" d="M314.624 219.08L309.34 216.021L314.624 212.962L319.909 216.021L314.624 219.08Z" fill="#5761D7"/>
<path opacity="0.4" d="M325.193 225.207L319.908 222.138L325.193 219.08L330.477 222.138L325.193 225.207Z" fill="#5761D7"/>
<path opacity="0.4" d="M335.771 231.324L330.477 228.266L335.771 225.207L341.055 228.266L335.771 231.324Z" fill="#5761D7"/>
<path d="M346.339 237.452L341.055 234.383L346.339 231.324L351.623 234.383L346.339 237.452Z" fill="#5761D7"/>
<path d="M356.909 243.569L351.625 240.511L356.909 237.452L362.194 240.511L356.909 243.569Z" fill="#5761D7"/>
<path d="M367.486 249.687L362.191 246.628L367.486 243.569L372.77 246.628L367.486 249.687Z" fill="#5761D7"/>
<path opacity="0.4" d="M272.298 206.865L267.004 203.796L272.288 200.737L277.583 203.796L272.298 206.865Z" fill="#5761D7"/>
<path opacity="0.4" d="M282.866 212.982L277.582 209.924L282.866 206.865L288.151 209.924L282.866 212.982Z" fill="#5761D7"/>
<path opacity="0.1" d="M293.437 219.11L288.152 216.041L293.437 212.982L298.721 216.041L293.437 219.11Z" fill="#5761D7"/>
<path d="M304.005 225.227L298.721 222.168L304.005 219.11L309.299 222.168L304.005 225.227Z" fill="#5761D7"/>
<path d="M314.583 231.354L309.299 228.286L314.583 225.227L319.868 228.286L314.583 231.354Z" fill="#5761D7"/>
<path d="M325.152 237.472L319.867 234.413L325.152 231.354L330.436 234.413L325.152 237.472Z" fill="#5761D7"/>
<path opacity="0.4" d="M335.722 243.589L330.438 240.53L335.722 237.472L341.006 240.53L335.722 243.589Z" fill="#5761D7"/>
<path d="M346.298 249.716L341.004 246.658L346.298 243.589L351.583 246.658L346.298 249.716Z" fill="#5761D7"/>
<path d="M356.866 255.834L351.582 252.775L356.866 249.716L362.151 252.775L356.866 255.834Z" fill="#5761D7"/>
<path d="M261.681 213.012L256.396 209.943L261.681 206.885L266.965 209.943L261.681 213.012Z" fill="#5761D7"/>
<path d="M272.249 219.13L266.965 216.071L272.249 213.012L277.534 216.071L272.249 219.13Z" fill="#5761D7"/>
<path d="M282.828 225.257L277.533 222.188L282.818 219.13L288.112 222.188L282.828 225.257Z" fill="#5761D7"/>
<path d="M293.398 231.374L288.113 228.316L293.398 225.257L298.682 228.316L293.398 231.374Z" fill="#5761D7"/>
<path d="M303.966 237.492L298.682 234.433L303.966 231.374L309.25 234.433L303.966 237.492Z" fill="#5761D7"/>
<path d="M314.534 243.619L309.25 240.56L314.534 237.492L319.829 240.56L314.534 243.619Z" fill="#5761D7"/>
<path d="M325.113 249.736L319.828 246.678L325.113 243.619L330.397 246.678L325.113 249.736Z" fill="#5761D7"/>
<path d="M335.683 255.864L330.398 252.805L335.683 249.736L340.967 252.805L335.683 255.864Z" fill="#5761D7"/>
<path d="M346.249 261.981L340.965 258.922L346.249 255.864L351.534 258.922L346.249 261.981Z" fill="#5761D7"/>
<path d="M251.062 219.159L245.777 216.091L251.062 213.032L256.346 216.091L251.062 219.159Z" fill="#5761D7"/>
<path d="M261.64 225.277L256.346 222.218L261.64 219.159L266.924 222.218L261.64 225.277Z" fill="#5761D7"/>
<path opacity="0.4" d="M272.21 231.394L266.926 228.335L272.21 225.277L277.495 228.335L272.21 231.394Z" fill="#5761D7"/>
<path d="M282.779 237.522L277.494 234.463L282.779 231.404L288.063 234.463L282.779 237.522Z" fill="#5761D7"/>
<path opacity="0.1" d="M293.357 243.639L288.062 240.58L293.347 237.522L298.641 240.58L293.357 243.639Z" fill="#5761D7"/>
<path d="M303.925 249.766L298.641 246.708L303.925 243.639L309.209 246.708L303.925 249.766Z" fill="#5761D7"/>
<path d="M314.495 255.884L309.211 252.825L314.495 249.766L319.78 252.825L314.495 255.884Z" fill="#5761D7"/>
<path d="M325.062 262.011L319.777 258.952L325.062 255.884L330.356 258.952L325.062 262.011Z" fill="#5761D7"/>
<path d="M335.64 268.128L330.355 265.07L335.64 262.011L340.924 265.07L335.64 268.128Z" fill="#5761D7"/>
<path d="M240.452 225.307L235.168 222.238L240.452 219.179L245.737 222.238L240.452 225.307Z" fill="#5761D7"/>
<path d="M251.021 231.424L245.736 228.365L251.021 225.307L256.305 228.365L251.021 231.424Z" fill="#5761D7"/>
<path opacity="0.4" d="M261.589 237.541L256.305 234.483L261.589 231.424L266.873 234.483L261.589 237.541Z" fill="#5761D7"/>
<path d="M272.167 243.669L266.873 240.61L272.167 237.541L277.452 240.61L272.167 243.669Z" fill="#5761D7"/>
<path d="M282.738 249.786L277.453 246.728L282.738 243.669L288.022 246.728L282.738 249.786Z" fill="#5761D7"/>
<path opacity="0.1" d="M293.306 255.914L288.021 252.855L293.306 249.786L298.59 252.855L293.306 255.914Z" fill="#5761D7"/>
<path opacity="0.4" d="M303.876 262.031L298.592 258.972L303.876 255.914L309.17 258.972L303.876 262.031Z" fill="#5761D7"/>
<path d="M314.452 268.158L309.168 265.1L314.452 262.031L319.737 265.1L314.452 268.158Z" fill="#5761D7"/>
<path opacity="0.1" d="M325.023 274.276L319.738 271.217L325.023 268.158L330.307 271.217L325.023 274.276Z" fill="#5761D7"/>
<path d="M229.835 231.444L224.551 228.385L229.835 225.327L235.12 228.385L229.835 231.444Z" fill="#5761D7"/>
<path opacity="0.4" d="M240.404 237.571L235.119 234.513L240.404 231.444L245.698 234.513L240.404 237.571Z" fill="#5761D7"/>
<path d="M250.984 243.689L245.699 240.63L250.984 237.571L256.268 240.63L250.984 243.689Z" fill="#5761D7"/>
<path d="M261.552 249.816L256.268 246.757L261.552 243.689L266.836 246.757L261.552 249.816Z" fill="#5761D7"/>
<path d="M272.12 255.934L266.836 252.875L272.12 249.816L277.405 252.875L272.12 255.934Z" fill="#5761D7"/>
<path d="M282.699 262.061L277.404 259.002L282.699 255.934L287.983 259.002L282.699 262.061Z" fill="#5761D7"/>
<path d="M293.269 268.178L287.984 265.12L293.269 262.061L298.553 265.12L293.269 268.178Z" fill="#5761D7"/>
<path opacity="0.4" d="M303.835 274.306L298.551 271.247L303.835 268.178L309.12 271.247L303.835 274.306Z" fill="#5761D7"/>
<path d="M314.405 280.423L309.121 277.364L314.405 274.306L319.7 277.364L314.405 280.423Z" fill="#5761D7"/>
<path d="M219.216 237.591L213.932 234.533L219.216 231.474L224.51 234.533L219.216 237.591Z" fill="#5761D7"/>
<path opacity="0.1" d="M229.794 243.719L224.51 240.66L229.794 237.591L235.079 240.66L229.794 243.719Z" fill="#5761D7"/>
<path d="M240.364 249.836L235.08 246.777L240.364 243.719L245.649 246.777L240.364 249.836Z" fill="#5761D7"/>
<path d="M250.933 255.963L245.648 252.905L250.933 249.836L256.217 252.905L250.933 255.963Z" fill="#5761D7"/>
<path d="M261.511 262.081L256.227 259.022L261.511 255.963L266.795 259.022L261.511 262.081Z" fill="#5761D7"/>
<path d="M272.079 268.208L266.795 265.149L272.079 262.081L277.364 265.149L272.079 268.208Z" fill="#5761D7"/>
<path opacity="0.4" d="M282.648 274.326L277.363 271.267L282.648 268.208L287.932 271.267L282.648 274.326Z" fill="#5761D7"/>
<path d="M293.228 280.453L287.934 277.394L293.228 274.326L298.512 277.394L293.228 280.453Z" fill="#5761D7"/>
<path d="M303.796 286.57L298.512 283.512L303.796 280.453L309.08 283.512L303.796 286.57Z" fill="#5761D7"/>
<path d="M210.398 133.127L205.113 130.059L210.398 127L215.692 130.059L210.398 133.127Z" fill="#5761D7"/>
<path opacity="0.1" d="M220.976 139.245L215.691 136.186L220.976 133.127L226.26 136.186L220.976 139.245Z" fill="#5761D7"/>
<path opacity="0.4" d="M231.546 145.362L226.262 142.303L231.546 139.245L236.83 142.303L231.546 145.362Z" fill="#5761D7"/>
<path d="M242.114 151.489L236.83 148.431L242.114 145.362L247.399 148.431L242.114 151.489Z" fill="#5761D7"/>
<path opacity="0.4" d="M252.693 157.607L247.398 154.548L252.693 151.49L257.977 154.548L252.693 157.607Z" fill="#5761D7"/>
<path d="M263.261 163.734L257.977 160.676L263.261 157.607L268.545 160.676L263.261 163.734Z" fill="#5761D7"/>
<path d="M273.831 169.852L268.547 166.793L273.831 163.734L279.116 166.793L273.831 169.852Z" fill="#5761D7"/>
<path d="M284.408 175.979L279.113 172.92L284.408 169.852L289.692 172.92L284.408 175.979Z" fill="#5761D7"/>
<path opacity="0.1" d="M294.976 182.096L289.691 179.038L294.976 175.979L300.26 179.038L294.976 182.096Z" fill="#5761D7"/>
<path d="M199.792 139.275L194.508 136.206L199.792 133.147L205.077 136.206L199.792 139.275Z" fill="#5761D7"/>
<path d="M210.361 145.392L205.076 142.333L210.361 139.275L215.645 142.333L210.361 145.392Z" fill="#5761D7"/>
<path d="M220.929 151.509L215.645 148.451L220.929 145.392L226.223 148.451L220.929 151.509Z" fill="#5761D7"/>
<path d="M231.507 157.637L226.223 154.578L231.507 151.509L236.791 154.578L231.507 157.637Z" fill="#5761D7"/>
<path d="M242.077 163.754L236.793 160.695L242.077 157.637L247.362 160.695L242.077 163.754Z" fill="#5761D7"/>
<path d="M252.646 169.882L247.361 166.823L252.646 163.754L257.93 166.823L252.646 169.882Z" fill="#5761D7"/>
<path d="M263.226 175.999L257.932 172.94L263.226 169.882L268.51 172.94L263.226 175.999Z" fill="#5761D7"/>
<path d="M273.794 182.126L268.51 179.068L273.794 175.999L279.079 179.068L273.794 182.126Z" fill="#5761D7"/>
<path d="M284.363 188.244L279.078 185.185L284.363 182.126L289.647 185.185L284.363 188.244Z" fill="#5761D7"/>
<path d="M189.169 145.412L183.885 142.353L189.169 139.295L194.454 142.353L189.169 145.412Z" fill="#5761D7"/>
<path d="M199.747 151.539L194.453 148.481L199.738 145.412L205.032 148.481L199.747 151.539Z" fill="#5761D7"/>
<path d="M210.318 157.657L205.033 154.598L210.318 151.539L215.602 154.598L210.318 157.657Z" fill="#5761D7"/>
<path opacity="0.1" d="M220.886 163.784L215.602 160.725L220.886 157.657L226.17 160.725L220.886 163.784Z" fill="#5761D7"/>
<path opacity="0.4" d="M231.454 169.901L226.17 166.843L231.454 163.784L236.749 166.843L231.454 169.901Z" fill="#5761D7"/>
<path opacity="0.4" d="M242.032 176.029L236.748 172.97L242.032 169.901L247.317 172.97L242.032 176.029Z" fill="#5761D7"/>
<path d="M252.601 182.146L247.316 179.087L252.601 176.029L257.885 179.087L252.601 182.146Z" fill="#5761D7"/>
<path d="M263.171 188.274L257.887 185.215L263.171 182.146L268.455 185.215L263.171 188.274Z" fill="#5761D7"/>
<path d="M273.747 194.391L268.453 191.332L273.747 188.274L279.032 191.332L273.747 194.391Z" fill="#5761D7"/>
<path opacity="0.4" d="M178.56 151.559L173.266 148.501L178.56 145.442L183.844 148.501L178.56 151.559Z" fill="#5761D7"/>
<path opacity="0.4" d="M189.128 157.687L183.844 154.628L189.128 151.559L194.413 154.628L189.128 157.687Z" fill="#5761D7"/>
<path opacity="0.1" d="M199.698 163.804L194.414 160.745L199.698 157.687L204.983 160.745L199.698 163.804Z" fill="#5761D7"/>
<path d="M210.277 169.931L204.982 166.873L210.267 163.804L215.561 166.873L210.277 169.931Z" fill="#5761D7"/>
<path d="M220.845 176.049L215.561 172.99L220.845 169.931L226.129 172.99L220.845 176.049Z" fill="#5761D7"/>
<path d="M231.413 182.176L226.129 179.117L231.413 176.049L236.698 179.117L231.413 182.176Z" fill="#5761D7"/>
<path opacity="0.4" d="M241.984 188.293L236.699 185.235L241.984 182.176L247.278 185.235L241.984 188.293Z" fill="#5761D7"/>
<path d="M252.562 194.421L247.277 191.362L252.562 188.293L257.846 191.362L252.562 194.421Z" fill="#5761D7"/>
<path d="M263.128 200.538L257.844 197.48L263.128 194.421L268.413 197.48L263.128 200.538Z" fill="#5761D7"/>
<path d="M167.943 157.707L162.658 154.648L167.943 151.589L173.227 154.648L167.943 157.707Z" fill="#5761D7"/>
<path d="M178.511 163.834L173.227 160.775L178.511 157.706L183.795 160.775L178.511 163.834Z" fill="#5761D7"/>
<path d="M189.089 169.951L183.795 166.893L189.089 163.834L194.374 166.893L189.089 169.951Z" fill="#5761D7"/>
<path d="M199.657 176.079L194.373 173.02L199.657 169.951L204.942 173.02L199.657 176.079Z" fill="#5761D7"/>
<path d="M210.228 182.196L204.943 179.137L210.228 176.079L215.512 179.137L210.228 182.196Z" fill="#5761D7"/>
<path d="M220.796 188.323L215.512 185.265L220.796 182.196L226.09 185.265L220.796 188.323Z" fill="#5761D7"/>
<path d="M231.376 194.441L226.092 191.382L231.376 188.323L236.661 191.382L231.376 194.441Z" fill="#5761D7"/>
<path d="M241.945 200.568L236.66 197.499L241.945 194.441L247.229 197.499L241.945 200.568Z" fill="#5761D7"/>
<path d="M252.513 206.686L247.229 203.627L252.513 200.568L257.807 203.627L252.513 206.686Z" fill="#5761D7"/>
<path d="M157.325 163.854L152.041 160.795L157.325 157.736L162.61 160.795L157.325 163.854Z" fill="#5761D7"/>
<path d="M167.904 169.981L162.619 166.922L167.904 163.854L173.188 166.922L167.904 169.981Z" fill="#5761D7"/>
<path opacity="0.4" d="M178.472 176.099L173.188 173.04L178.472 169.981L183.756 173.04L178.472 176.099Z" fill="#5761D7"/>
<path d="M189.04 182.226L183.756 179.167L189.04 176.099L194.325 179.167L189.04 182.226Z" fill="#5761D7"/>
<path opacity="0.1" d="M199.62 188.343L194.326 185.285L199.62 182.226L204.905 185.285L199.62 188.343Z" fill="#5761D7"/>
<path d="M210.189 194.471L204.904 191.402L210.189 188.343L215.473 191.412L210.189 194.471Z" fill="#5761D7"/>
<path d="M220.759 200.588L215.475 197.529L220.759 194.471L226.043 197.529L220.759 200.588Z" fill="#5761D7"/>
<path d="M231.337 206.715L226.043 203.647L231.327 200.588L236.622 203.647L231.337 206.715Z" fill="#5761D7"/>
<path d="M241.905 212.833L236.621 209.774L241.905 206.715L247.19 209.774L241.905 212.833Z" fill="#5761D7"/>
<path d="M146.716 170.001L141.432 166.942L146.716 163.884L152 166.942L146.716 170.001Z" fill="#5761D7"/>
<path d="M157.284 176.128L152 173.07L157.284 170.001L162.569 173.07L157.284 176.128Z" fill="#5761D7"/>
<path opacity="0.4" d="M167.853 182.246L162.568 179.187L167.853 176.128L173.147 179.187L167.853 182.246Z" fill="#5761D7"/>
<path d="M178.431 188.373L173.146 185.314L178.431 182.246L183.715 185.314L178.431 188.373Z" fill="#5761D7"/>
<path d="M189.001 194.491L183.717 191.432L189.001 188.373L194.286 191.432L189.001 194.491Z" fill="#5761D7"/>
<path opacity="0.1" d="M199.57 200.618L194.285 197.549L199.57 194.491L204.854 197.549L199.57 200.618Z" fill="#5761D7"/>
<path opacity="0.4" d="M210.15 206.735L204.855 203.677L210.15 200.618L215.434 203.677L210.15 206.735Z" fill="#5761D7"/>
<path d="M220.718 212.863L215.434 209.794L220.718 206.735L226.002 209.794L220.718 212.863Z" fill="#5761D7"/>
<path opacity="0.1" d="M231.286 218.98L226.002 215.921L231.286 212.863L236.571 215.921L231.286 218.98Z" fill="#5761D7"/>
<path d="M136.097 176.148L130.812 173.09L136.097 170.031L141.381 173.09L136.097 176.148Z" fill="#5761D7"/>
<path opacity="0.4" d="M146.665 182.276L141.381 179.217L146.665 176.148L151.96 179.217L146.665 182.276Z" fill="#5761D7"/>
<path d="M157.245 188.393L151.961 185.334L157.245 182.276L162.53 185.334L157.245 188.393Z" fill="#5761D7"/>
<path d="M167.812 194.52L162.527 191.452L167.812 188.393L173.096 191.452L167.812 194.52Z" fill="#5761D7"/>
<path d="M178.382 200.638L173.098 197.579L178.382 194.52L183.666 197.579L178.382 200.638Z" fill="#5761D7"/>
<path d="M188.96 206.765L183.676 203.697L188.96 200.638L194.245 203.697L188.96 206.765Z" fill="#5761D7"/>
<path d="M199.53 212.883L194.246 209.824L199.53 206.765L204.815 209.824L199.53 212.883Z" fill="#5761D7"/>
<path opacity="0.4" d="M210.099 219.01L204.814 215.941L210.099 212.883L215.383 215.941L210.099 219.01Z" fill="#5761D7"/>
<path d="M220.677 225.127L215.383 222.069L220.677 219.01L225.962 222.069L220.677 225.127Z" fill="#5761D7"/>
<path d="M125.49 182.296L120.195 179.237L125.49 176.178L130.774 179.237L125.49 182.296Z" fill="#5761D7"/>
<path opacity="0.1" d="M136.058 188.423L130.773 185.354L136.058 182.296L141.342 185.354L136.058 188.423Z" fill="#5761D7"/>
<path d="M146.626 194.54L141.342 191.482L146.626 188.423L151.911 191.482L146.626 194.54Z" fill="#5761D7"/>
<path d="M157.195 200.668L151.91 197.599L157.195 194.54L162.489 197.599L157.195 200.668Z" fill="#5761D7"/>
<path d="M167.775 206.785L162.49 203.726L167.775 200.668L173.059 203.726L167.775 206.785Z" fill="#5761D7"/>
<path d="M178.343 212.912L173.059 209.844L178.343 206.785L183.627 209.844L178.343 212.912Z" fill="#5761D7"/>
<path opacity="0.4" d="M188.913 219.03L183.629 215.971L188.913 212.912L194.198 215.971L188.913 219.03Z" fill="#5761D7"/>
<path d="M199.491 225.157L194.207 222.089L199.491 219.03L204.776 222.089L199.491 225.157Z" fill="#5761D7"/>
<path d="M210.06 231.275L204.775 228.216L210.06 225.157L215.344 228.216L210.06 231.275Z" fill="#5761D7"/>
<path d="M210.398 243.519L205.113 240.461L210.398 237.402L215.692 240.461L210.398 243.519Z" fill="#5761D7"/>
<path opacity="0.1" d="M220.976 249.637L215.691 246.578L220.976 243.519L226.26 246.578L220.976 249.637Z" fill="#5761D7"/>
<path opacity="0.4" d="M231.546 255.764L226.262 252.705L231.546 249.637L236.83 252.705L231.546 255.764Z" fill="#5761D7"/>
<path d="M242.114 261.881L236.83 258.823L242.114 255.764L247.399 258.823L242.114 261.881Z" fill="#5761D7"/>
<path opacity="0.4" d="M252.693 268.009L247.398 264.95L252.693 261.882L257.977 264.95L252.693 268.009Z" fill="#5761D7"/>
<path d="M263.261 274.126L257.977 271.068L263.261 268.009L268.545 271.068L263.261 274.126Z" fill="#5761D7"/>
<path d="M273.831 280.254L268.547 277.195L273.831 274.126L279.116 277.195L273.831 280.254Z" fill="#5761D7"/>
<path d="M284.408 286.371L279.113 283.312L284.408 280.254L289.692 283.312L284.408 286.371Z" fill="#5761D7"/>
<path d="M199.792 249.667L194.508 246.608L199.792 243.539L205.077 246.608L199.792 249.667Z" fill="#5761D7"/>
<path d="M210.361 255.784L205.076 252.725L210.361 249.667L215.645 252.725L210.361 255.784Z" fill="#5761D7"/>
<path d="M220.929 261.911L215.645 258.853L220.929 255.784L226.223 258.853L220.929 261.911Z" fill="#5761D7"/>
<path d="M231.507 268.029L226.223 264.97L231.507 261.911L236.791 264.97L231.507 268.029Z" fill="#5761D7"/>
<path d="M242.077 274.156L236.793 271.097L242.077 268.029L247.362 271.097L242.077 274.156Z" fill="#5761D7"/>
<path d="M252.646 280.274L247.361 277.215L252.646 274.156L257.93 277.215L252.646 280.274Z" fill="#5761D7"/>
<path d="M263.226 286.401L257.932 283.342L263.226 280.274L268.51 283.342L263.226 286.401Z" fill="#5761D7"/>
<path d="M189.169 255.814L183.885 252.755L189.169 249.687L194.454 252.755L189.169 255.814Z" fill="#5761D7"/>
<path d="M199.747 261.931L194.453 258.873L199.738 255.814L205.032 258.873L199.747 261.931Z" fill="#5761D7"/>
<path d="M210.318 268.059L205.033 265L210.318 261.931L215.602 265L210.318 268.059Z" fill="#5761D7"/>
<path opacity="0.1" d="M220.886 274.176L215.602 271.117L220.886 268.059L226.17 271.117L220.886 274.176Z" fill="#5761D7"/>
<path opacity="0.4" d="M231.454 280.303L226.17 277.245L231.454 274.176L236.749 277.245L231.454 280.303Z" fill="#5761D7"/>
<path opacity="0.4" d="M242.032 286.421L236.748 283.362L242.032 280.303L247.317 283.362L242.032 286.421Z" fill="#5761D7"/>
<path opacity="0.4" d="M178.56 261.961L173.266 258.903L178.56 255.834L183.844 258.903L178.56 261.961Z" fill="#5761D7"/>
<path opacity="0.4" d="M189.128 268.079L183.844 265.02L189.128 261.961L194.413 265.02L189.128 268.079Z" fill="#5761D7"/>
<path opacity="0.1" d="M199.698 274.206L194.414 271.147L199.698 268.079L204.983 271.147L199.698 274.206Z" fill="#5761D7"/>
<path d="M210.277 280.323L204.982 277.265L210.267 274.206L215.561 277.265L210.277 280.323Z" fill="#5761D7"/>
<path d="M220.845 286.451L215.561 283.392L220.845 280.323L226.129 283.392L220.845 286.451Z" fill="#5761D7"/>
<path d="M167.943 268.108L162.658 265.05L167.943 261.981L173.227 265.05L167.943 268.108Z" fill="#5761D7"/>
<path d="M178.511 274.226L173.227 271.167L178.511 268.108L183.795 271.167L178.511 274.226Z" fill="#5761D7"/>
<path d="M189.089 280.353L183.795 277.295L189.089 274.226L194.374 277.295L189.089 280.353Z" fill="#5761D7"/>
<path d="M199.657 286.471L194.373 283.412L199.657 280.353L204.942 283.412L199.657 286.471Z" fill="#5761D7"/>
<path d="M157.325 274.256L152.041 271.197L157.325 268.128L162.61 271.197L157.325 274.256Z" fill="#5761D7"/>
<path d="M167.904 280.373L162.619 277.315L167.904 274.256L173.188 277.315L167.904 280.373Z" fill="#5761D7"/>
<path opacity="0.4" d="M178.472 286.501L173.188 283.442L178.472 280.373L183.756 283.442L178.472 286.501Z" fill="#5761D7"/>
<path d="M146.716 280.403L141.432 277.344L146.716 274.276L152 277.344L146.716 280.403Z" fill="#5761D7"/>
<path d="M157.284 286.52L152 283.462L157.284 280.403L162.569 283.462L157.284 286.52Z" fill="#5761D7"/>
<path d="M136.097 286.55L130.812 283.492L136.097 280.423L141.381 283.492L136.097 286.55Z" fill="#5761D7"/>
</g>
<path opacity="0.4" d="M315.099 169.096L137.41 208.693L181.356 234.14L192.069 275L216.145 254.281L246.728 272L315.099 169.096Z" fill="#0B0244"/>
<path d="M188.309 238.035L361.205 89.2018L203.368 198.053L188.309 238.035Z" fill="#24126A"/>
<path d="M361.206 89.2018L173.241 180.605L111.498 144.842L361.206 89.2018Z" fill="url(#paint0_linear_179_2261)"/>
<path d="M361.204 89.2018L203.367 198.053L265.119 233.807L361.204 89.2018Z" fill="url(#paint1_linear_179_2261)"/>
<path d="M203.368 198.053L361.205 89.2018L173.24 180.605L188.309 238.035L203.368 198.053Z" fill="url(#paint2_linear_179_2261)"/>
<path d="M170.494 179.009L361.205 89.2018L173.24 180.605L170.494 179.009Z" fill="white"/>
<path d="M203.367 198.053L361.204 89.2018L205.833 199.482L203.367 198.053Z" fill="white"/>
<path d="M235.377 152.711C235.377 152.711 234.712 154.702 234.774 155.184C234.835 155.667 236.199 157.553 236.295 157.605C236.391 157.667 237.546 159.14 238.849 159.86C240.152 160.57 240.248 160.921 240.371 160.939C240.493 160.956 240.685 160.833 240.685 160.833C240.685 160.833 240.878 159.474 240.309 158.807C239.741 158.149 240.589 157.167 240.589 157.167L239.12 153.316L235.386 152.719L235.377 152.711Z" fill="#FCD1C5"/>
<path d="M249.499 195.351C249.499 195.351 247.19 195.886 244.969 195.965C242.738 196.044 236.669 197.193 236.783 199.377C236.897 201.57 240.01 204.711 243.954 205.184C247.898 205.658 252.988 204.579 255.568 204.649C258.139 204.719 259.958 202.193 258.996 199.754C258.043 197.333 249.49 195.351 249.49 195.351H249.499Z" fill="#160A5B"/>
<path d="M262.942 189.535C262.942 189.535 263.756 190.86 263.327 191.667C262.899 192.474 261.744 194.482 258.176 192.518C254.617 190.561 247.708 187.746 247.708 187.746C247.708 187.746 243.746 185.667 244.009 183.228C244.271 180.798 247.944 181.184 247.944 181.184L262.942 189.535Z" fill="#160A5B"/>
<path d="M223.237 101.939C223.237 101.939 220.884 101.974 219.844 101.5C218.803 101.026 215.795 100.035 215.611 99.9386C215.427 99.8421 213.766 99.7281 213.005 99.2369C213.005 99.2369 212.157 99.6492 212.83 100.342C213.503 101.035 214.771 101.254 214.771 101.254L215.961 101.956C215.961 101.956 213.547 103.202 213.328 103.29C213.11 103.386 211.09 104.93 210.88 105.026C210.679 105.123 209.769 105.825 210.119 106.456C210.119 106.456 210.154 106.597 210.609 106.693C210.609 106.693 209.314 107.281 209.638 107.921C209.961 108.561 210.775 108.281 210.775 108.281C210.775 108.281 211.09 109.43 212.646 108.535C212.646 108.535 212.83 109.956 216.293 108.474C216.293 108.474 217.692 108.105 218.716 108.175C219.739 108.246 222.529 107.526 224.024 106.465C225.511 105.412 223.246 101.93 223.246 101.93L223.237 101.939Z" fill="#EBB1A1"/>
<path d="M218.717 108.175C219.74 108.246 222.53 107.526 224.025 106.465C225.031 105.754 224.323 103.947 223.763 102.842C223.055 102.5 222.434 102.219 222.434 102.219C222.434 102.219 222.539 105.658 222.46 106.175C222.381 106.693 219.285 107.307 217.291 107.596C215.306 107.886 212.691 108.658 212.691 108.658C212.849 108.974 213.513 109.658 216.295 108.465C216.295 108.465 217.694 108.096 218.717 108.167V108.175Z" fill="#DA9E91"/>
<path d="M250.497 95.2544C250.497 95.2544 245.6 96.114 243.93 96.6491C242.312 97.1667 228.275 99.9561 223.133 101.211C222.809 101.289 222.556 101.553 222.477 101.895C222.416 102.167 222.372 102.482 222.442 102.754C222.582 103.333 223.081 109.167 225.932 108.211C226.789 107.921 229.307 107.395 231.319 107.132C233.33 106.868 241.909 106.202 241.909 106.202L256.427 97.8684L250.497 95.2544Z" fill="#4846A5"/>
<path d="M239.984 154.561C239.984 154.561 241.279 170.632 244.471 176.693C247.698 182.825 248.415 193.974 249.062 196.097C249.718 198.228 251.808 201.29 255.166 201.939C258.533 202.597 259.128 200.377 258.997 199.044C258.857 197.711 257.965 195.553 257.991 194.105C258.009 192.658 258.367 191.983 258.437 191.325C258.437 191.325 262.285 192.447 262.941 189.535C262.941 189.535 262.644 188.684 262.609 188.254C262.565 187.825 263.195 177.228 263.317 175.947C263.44 174.667 262.889 167.684 261.883 164.237C260.886 160.807 261.402 153.5 261.402 153.5L250.26 151.868L239.993 154.57L239.984 154.561Z" fill="#102140"/>
<path d="M258.07 154.632C258.07 154.632 257.974 157.14 256.863 159.246C256.863 159.246 256.706 167.754 255.727 172.044C255.727 172.044 256.986 180.64 257.825 183.342C258.674 186.061 258.438 191.325 258.438 191.325C258.438 191.325 258.875 191.482 259.505 191.509C260.134 191.535 260.414 181.079 259.478 179.219C258.551 177.368 257.983 169.149 258.411 166.64C258.831 164.14 258.857 156.974 259.373 155.711C259.881 154.447 258.805 153.763 258.805 153.763L258.07 154.623V154.632Z" fill="#101E37"/>
<path d="M249.753 95.386C249.753 95.386 246.404 97.7193 246.5 101.825L248.966 101.333C248.966 101.333 248.319 96.7719 249.753 95.3772V95.386Z" fill="#160A5B"/>
<path d="M249.868 158.061C257.258 158.342 261.315 155.167 261.315 155.167C261.35 154.149 261.403 153.482 261.403 153.482L250.261 151.851L239.994 154.553C239.994 154.553 240.248 157.737 240.816 161.798C242.635 162.009 244.489 157.658 244.489 157.658L249.57 158.018C249.57 158.018 242.469 157.772 249.868 158.053V158.061Z" fill="#160A5B"/>
<path d="M241.419 154.816C241.419 154.816 257.397 161.386 265.443 149.246C265.67 148.904 265.784 148.474 265.784 148.044L265.749 145.184C265.749 144.825 265.81 144.465 265.933 144.123C266.195 143.395 266.274 142.605 266.142 141.833C265.618 138.623 264.175 129.86 263.851 127.412C263.449 124.43 265.32 112.491 268.136 107.325C270.926 102.219 264.341 90.4825 264.341 90.4825C264.341 90.4825 262.714 87.7281 259.391 88.6053C259.391 88.6053 262.496 90.8596 260.72 93.1579C258.936 95.4649 253.724 97.2456 253.724 97.2456C253.724 97.2456 244.052 102.044 240.676 108C240.676 108 239.504 111.096 239.338 115.035C239.18 119 239.469 128.491 239.285 129.807C239.102 131.123 238.454 140.096 238.498 140.509C238.542 140.93 241.41 154.798 241.41 154.798L241.419 154.816Z" fill="#453C9E"/>
<path d="M246.29 156.175C246.29 156.175 256.295 131 256.033 121.737C255.77 112.649 241.743 139.833 241.743 139.833L241.428 154.816C241.428 154.816 244.454 155.939 246.299 156.175H246.29Z" fill="#24126A"/>
<path d="M241.645 126.202C242.03 124.123 242.266 122.026 242.319 119.93C242.424 116.281 243.56 110.219 250.224 111.368C259.626 112.991 255.332 125.991 254.256 128.246C253.172 130.518 248.878 140.719 248.65 141.298C248.44 141.842 241.75 154.482 239.398 157.5C239.179 157.772 238.812 157.816 238.558 157.596C237.631 156.807 235.558 154.93 235.296 153.754C234.964 152.237 236.398 146.746 236.398 146.746C236.398 146.746 240.263 132.965 240.587 132.325C240.823 131.842 241.024 129.561 241.636 126.193L241.645 126.202Z" fill="#4846A5"/>
<path d="M249.91 95.6842C249.91 95.6842 249.184 93.9649 247.452 93.7544C245.712 93.5526 244.732 93.0526 244.566 92.4035C244.4 91.7544 244.409 90.9825 243.998 90.0088C243.596 89.0439 243.272 86.6842 243.281 86.6228C243.281 86.5702 241.969 86.1404 241.908 85.5614C241.855 84.9737 242.572 82.9035 242.502 82.7369C242.432 82.5702 241.733 81.2807 241.846 80.2895C241.96 79.2983 242.109 77.8597 242.66 76.6404C243.211 75.4298 247.05 68.0614 256.644 72.079C266.299 76.1316 258.725 84.1667 259.573 89.4649C259.573 89.4649 260.413 90.5877 258.795 92.4474C257.168 94.3158 252.568 94.6491 249.91 95.6754V95.6842Z" fill="#EBB1A1"/>
<path d="M258.805 92.4561C260.422 90.5965 259.583 89.4737 259.583 89.4737C259.469 88.7368 259.513 87.9474 259.653 87.1228L255.84 87.7807C255.84 87.7807 250.322 82.6842 250.663 85.3684C251.012 88.0702 249.639 88.5088 249.639 88.5088L250.768 89.9912C251.056 90.3684 250.873 90.807 250.628 91.2193C248.975 93.9386 245.101 93.0526 245.092 93.0526C245.573 93.3772 246.36 93.6228 247.453 93.7544C249.193 93.9561 249.911 95.6842 249.911 95.6842C252.578 94.6579 257.169 94.3246 258.796 92.4561H258.805Z" fill="#DA9E91"/>
<path d="M242.301 73.8158C242.301 73.8158 241.593 75.7895 242.668 76.6491C243.753 77.5088 244.732 78.3158 244.732 78.3158L244.689 80.8334C244.689 81.193 244.776 81.5527 244.968 81.8597L246.307 84C246.569 84.4123 246.7 84.8948 246.691 85.386V86.4123C246.674 86.7105 246.892 86.9649 247.19 87.0088L247.548 87.0526C247.863 87.0965 248.152 86.8597 248.196 86.5351L248.37 85.1141C248.37 85.1141 249.114 83.9825 250.67 85.3772L252.079 85.9825C252.472 86.1491 252.778 86.4825 252.918 86.8948C253.294 87.9912 254.099 90.1667 254.728 90.5351C255.577 91.0351 258.935 89.3772 259.39 88.6228C259.844 87.8684 261.078 82.8246 261.821 80.4123C262.564 78.0176 262.293 72.0351 255.139 70.3684C248.003 68.7018 243.324 71.6667 242.301 73.8158Z" fill="#373634"/>
<path d="M259.389 88.6228C259.844 87.8684 261.077 82.8246 261.821 80.4123C261.821 80.4123 259.013 82.2106 255.402 82.693C251.79 83.1755 244.715 78.9825 244.715 78.9825L244.68 80.8246C244.68 81.1842 244.767 81.5439 244.96 81.8509L246.298 83.9913C246.56 84.4035 246.691 84.886 246.682 85.3772V86.4035C246.665 86.7018 246.884 86.9562 247.181 87L247.539 87.0439C247.854 87.0877 248.143 86.8509 248.187 86.5263L248.361 85.1053C248.361 85.1053 249.105 83.9737 250.662 85.3685L252.699 86.2456C252.699 86.2456 253.871 90.0263 254.719 90.5263C255.568 91.0263 258.926 89.3684 259.381 88.6141L259.389 88.6228Z" fill="#575653"/>
<path d="M259.523 88.8597C259.523 88.8597 262.26 90.6141 260.826 93.0176C259.383 95.4299 249.239 99.5878 248.731 100.219C248.731 100.219 248.399 96.5878 249.755 95.386C249.755 95.386 257.494 94.0176 258.727 92.0702C259.96 90.1316 259.514 88.8597 259.514 88.8597H259.523Z" fill="#F0F6FF"/>
<path d="M259.522 88.8597C259.522 88.8597 259.959 90.1316 258.734 92.0702C257.799 93.5439 253.146 94.6842 250.934 95.1579C250.934 95.1579 251.747 95.6316 253.067 97.9825C256.19 96.4299 259.985 94.4299 260.833 93.0263C262.268 90.6228 259.53 88.8685 259.53 88.8685L259.522 88.8597Z" fill="#C4CCD6"/>
<path d="M254.328 113.482C256.777 121.404 250.016 133.509 249.011 137.035C247.996 140.597 237.843 156.947 237.834 156.947C238.105 157.193 238.359 157.421 238.56 157.588C238.813 157.807 239.19 157.763 239.399 157.491C241.752 154.474 248.442 141.833 248.652 141.289C248.879 140.711 253.173 130.509 254.258 128.237C255.124 126.43 258.062 117.667 254.328 113.474V113.482Z" fill="#24126A"/>
<path d="M261.227 96.6404C261.227 96.6404 256.697 99.1228 254.493 100.246C252.28 101.368 249.867 102.868 249.867 102.868L249.045 102.026L247.995 104.211C247.995 104.211 244.523 106.211 242.879 107.895C241.235 109.588 239.976 111.807 239.801 112.316C239.801 112.316 244.182 106.79 247.602 105.184L248.52 104.737L249.062 103.009L249.875 103.895C249.875 103.895 259.828 98.1404 261.227 96.6404Z" fill="#24126A"/>
<path opacity="0.2" d="M174.884 161.526C187.823 161.526 198.313 155.451 198.313 147.956C198.313 140.462 187.823 134.386 174.884 134.386C161.945 134.386 151.455 140.462 151.455 147.956C151.455 155.451 161.945 161.526 174.884 161.526Z" fill="#0B0244"/>
<path opacity="0.2" d="M249.753 206.93C262.693 206.93 273.182 200.854 273.182 193.36C273.182 185.865 262.693 179.789 249.753 179.789C236.814 179.789 226.324 185.865 226.324 193.36C226.324 200.854 236.814 206.93 249.753 206.93Z" fill="#0B0244"/>
<path d="M188.606 97.1754C188.606 97.1754 190.294 97.4649 190.914 97.1491C191.535 96.8333 193.145 96.6228 195.016 97.2895C196.888 97.9561 196.73 97.8596 197.474 97.9298C198.208 98 199.415 98.0789 199.8 98.3246C200.193 98.5702 200.928 99.0439 200.246 100.026C199.555 101.009 196.993 100.088 196.573 100.009C196.153 99.9298 195.698 100.675 195.908 101.342C196.118 102.009 199.992 106.263 200.596 106.684C201.208 107.105 203.823 108.86 203.936 109.553C204.05 110.246 203.901 110.342 203.901 110.342C203.901 110.342 204.662 111.035 204.391 111.675C204.12 112.316 202.931 111.333 202.712 111.482C202.712 111.482 202.904 112.193 202.616 112.325C202.327 112.456 200.631 111.798 200.421 111.588C200.421 111.588 200.22 112.14 199.258 111.57C198.287 111 194.57 108.886 194.142 108.482C193.704 108.079 192.244 106.728 191.64 106.36C191.037 106 189.996 104.763 189.48 104.281C188.964 103.798 186.655 102.623 185.772 102.456C184.889 102.289 188.614 97.1667 188.614 97.1667L188.606 97.1754Z" fill="#FCD1C5"/>
<path d="M191.563 104.851C190.706 103.289 187.846 102.079 187.846 102.079C188.038 100.807 189.866 97.2895 189.866 97.2895C189.236 97.2807 188.607 97.1667 188.607 97.1667C188.607 97.1667 184.881 102.289 185.764 102.456C186.648 102.623 188.948 103.798 189.472 104.281C189.988 104.763 191.029 106 191.633 106.36C192.236 106.719 193.696 108.079 194.134 108.482C194.571 108.886 198.288 111 199.25 111.57C200.221 112.14 200.413 111.588 200.413 111.588C200.614 111.789 202.319 112.456 202.608 112.325C202.897 112.193 202.704 111.482 202.704 111.482C202.704 111.482 201.515 110.807 200.282 110.368C199.057 109.939 192.42 106.412 191.571 104.851H191.563Z" fill="#E2B1A6"/>
<path d="M185.824 91.5351C185.824 91.5351 186.191 93.4474 186.06 95C185.928 96.5614 182.815 94.5175 182.929 94.2544C183.043 93.9825 184.407 91.6404 184.407 91.6404L185.824 91.5439V91.5351Z" fill="#FCD1C5"/>
<path d="M172.235 44.5526C172.235 44.5526 173.967 44.4737 176.066 47.9386C178.095 51.2719 181.654 63.2105 183.517 67.7895C183.683 68.193 183.805 68.614 183.875 69.0526C184.479 72.6228 187.33 89.4211 187.461 91.4474C187.461 91.4474 185.292 92.8947 183.902 93.2544L180.841 92.2369L177.824 61.7807L172.935 45.7018L172.227 44.5702L172.235 44.5526Z" fill="#24126A"/>
<path d="M162.44 144.763C162.44 144.763 161.854 147.579 162.178 148.123C162.501 148.667 166.148 152.807 166.533 153.368C166.918 153.93 168.798 157.316 172.261 158.14C175.724 158.965 178.085 158.754 178.549 157.123C179.012 155.491 176.984 152.79 176.039 151.921C175.103 151.053 171.142 146.333 170.424 145.649C169.699 144.965 168.658 144.86 168.658 144.86L164.145 145.649L162.44 144.772V144.763Z" fill="#160A5B"/>
<path d="M176.441 136.333C176.441 136.333 179.895 137.675 181.697 138.132C183.507 138.588 187.81 141.816 187.757 143.439C187.713 145.061 185.588 146.184 183.437 146.026C181.286 145.868 178.723 144.491 178.312 144.123C177.892 143.754 176.423 142.947 174.657 142.395C172.899 141.842 170.057 141.57 169.584 140.632C169.121 139.693 169.051 137.746 169.051 137.746L176.441 136.342V136.333Z" fill="#160A5B"/>
<path d="M168.64 135.746C168.666 135.579 168.789 135.298 168.806 135.184C168.963 134.325 168.815 130.842 168.815 130.842L168.054 131.886C168.054 131.886 168.587 135.377 169.628 140.825C169.89 142.211 170.616 143.632 170.721 144.421C171.036 146.754 169.654 147.211 169.654 147.211C166.847 149.333 164.451 148.053 163.585 147.368C162.728 146.684 162.431 145.596 161.233 141.667C160.043 137.763 159.011 129.518 159.274 127.561C159.501 125.833 160.131 121 160.096 117.684C160.061 114.386 157.533 103.842 157.533 103.842L167.993 101.807L175.138 98.0965L180.586 98.9211C180.586 98.9211 181.277 96.614 181.994 103.798C182.72 111.088 178.321 123.991 178.321 123.991C177.158 130.377 176.861 137.728 176.205 138.719C175.54 139.719 172.943 142.07 170.529 140.237C170.083 139.904 169.584 139.553 169.313 139.193L168.631 135.754L168.64 135.746Z" fill="#102140"/>
<path d="M168.055 131.886C168.055 131.886 171.492 122.491 173.127 113.386C174.727 104.439 177.508 103.184 178.663 101.57C178.663 101.57 180.403 102.368 181.321 102.526C181.435 102.544 181.531 102.553 181.619 102.553C182.388 102.526 177.771 108.289 176.94 109.763C176.109 111.246 171.343 123.921 171.011 125.675C170.678 127.43 170.337 139.658 170.722 140.36C171.107 141.061 169.401 139.833 169.401 139.833C169.401 139.833 168.352 137.132 168.055 131.877V131.886Z" fill="#101E37"/>
<path d="M176.984 98.3684L175.147 98.0877L168.002 101.798L157.543 103.833C157.543 103.833 160.07 114.377 160.105 117.675C160.14 120.991 159.511 125.825 159.283 127.553C159.03 129.491 160.062 137.763 161.242 141.658C161.758 143.36 162.108 144.535 162.405 145.368C162.878 147.588 164.548 147.947 164.548 147.947C164.548 147.947 160.446 135.202 160.805 127.754C161.164 120.403 162.213 114.289 162.021 112.868C162.021 112.868 173.932 109.193 176.171 101.482C176.521 100.281 176.783 99.2456 176.984 98.3684Z" fill="#101E37"/>
<path d="M156.353 46.193C156.353 46.193 155.505 46.9035 155.321 47.6403C155.137 48.3684 154.088 50.9561 154.088 50.9561C154.088 50.9561 149.103 57.5877 148.211 59.614C147.31 61.6579 147.021 63.1754 147.021 63.1754L160.21 79.4649C160.21 79.4649 155.592 95.4386 156.878 101.263C158.181 107.158 159.877 109.351 161.95 109.991C164.031 110.632 175.12 106.053 175.89 100.211C176.651 94.4473 176.336 93.7105 176.336 93.7105C176.336 93.7105 181.513 95.0965 181.846 93.7719C182.169 92.4473 181.19 82.9298 180.927 81.5702C180.665 80.2105 179.861 65.193 179.861 65.193C179.861 65.193 176.703 51.3333 176.52 50.6579C176.336 49.9737 174.377 44.7719 171.858 44.4737C169.34 44.1842 166.191 48.2017 166.191 48.2017L156.335 46.1842L156.353 46.193Z" fill="#453C9E"/>
<path d="M156.938 45.693C156.938 45.693 156.413 46.0439 156.308 46.6228C156.195 47.2018 155.766 48.3421 156.702 49.5351C157.646 50.7281 165.237 56.9474 168.316 62.1754C171.42 67.4561 175.268 73.3509 175.592 74.5702C175.592 74.5702 176.991 66.2018 175.723 62.3597C174.464 58.5439 170.441 50.7544 169.584 50.1754C168.735 49.5965 163.506 49.1053 163.506 49.1053L156.929 45.7018L156.938 45.693Z" fill="#F0F6FF"/>
<path d="M164.791 54.1052C164.791 54.1052 164.38 54.7895 164.258 55.3158C164.258 55.3158 162.054 54.1842 161.127 53.7719L164.511 56.1316C164.511 56.1316 164.713 54.8947 164.879 54.7105C164.879 54.7105 166.811 56.193 167.083 56.8509C167.354 57.5088 170.931 66.5175 170.931 66.5175L172.811 69.5965L173.292 68.8509L170.222 60.4649C170.222 60.4649 168.491 57.8245 168.464 57.7631C168.438 57.7017 167.266 54.8684 167.266 54.8684L164.783 54.1228L164.791 54.1052Z" fill="#C4CCD6"/>
<path d="M164.793 54.1053C164.793 54.1053 165.921 52 168.09 52.0789C168.09 52.0789 168.711 54.6754 168.895 55.7368C168.895 55.7368 167.495 56.3421 166.927 55.8509C166.358 55.3596 164.793 54.1053 164.793 54.1053Z" fill="#160A5B"/>
<path d="M168.561 55.1667C168.561 55.1667 174.149 62.079 176.108 70.4298L175.697 74.7368L172.759 69.4737C172.759 69.4737 167.94 57.3947 166.82 55.1842C165.701 52.9825 168.561 55.1579 168.561 55.1579V55.1667Z" fill="#160A5B"/>
<path d="M159.291 82.9123C158.915 84.386 158.477 86.2281 158.066 88.193C158.066 88.193 166.348 99.0351 174.429 103.447C175.216 102.439 175.758 101.351 175.907 100.219C176.309 97.1667 176.414 95.5351 176.414 94.6667L167.022 87.5176L159.3 82.9123H159.291Z" fill="#24126A"/>
<path d="M158.732 66.9913C158.732 66.9913 161.129 70.2632 161.758 70.5614C162.397 70.8597 167.574 79.9562 168.615 81.6755C169.664 83.3948 172.454 85.807 172.454 85.807L169.822 86.0614L159.511 72.1842L158.732 66.9825V66.9913Z" fill="#24126A"/>
<path d="M160.192 69.8772C159.151 67.2544 157.525 64.9561 155.435 63.2017C153.056 61.2017 149.934 59.2544 148.281 61.0087C145.377 64.0877 146.611 69.8859 150.651 75.3158C154.735 80.807 161.172 88.6228 162.685 89.9386C164.145 91.2017 176.625 100.614 183.778 104.14C184.312 104.403 184.933 104.202 185.248 103.675C186.236 102.044 188.282 98.6316 189.008 97.2368C189.157 96.9473 189.069 96.5877 188.807 96.421C186.192 94.7368 173.135 86.3158 169.27 83.693C168.675 83.2894 168.194 82.7456 167.862 82.0877C166.734 79.8772 163.821 74.4298 161.268 71.6491C160.813 71.1579 160.463 70.5614 160.21 69.9298C160.21 69.9123 160.192 69.8947 160.192 69.8772Z" fill="#4846A5"/>
<path d="M169.795 47.4298L174.36 52.0614L173.179 52.4737L174.684 53.3509C174.684 53.3509 178.339 62.0088 177.543 71.8158C177.543 71.8158 179.354 64.1052 175.427 53.1667L174.211 52.5526L175.033 52.2895L169.795 47.4298Z" fill="#24126A"/>
<path d="M156.842 44.9035C156.921 45.0789 156.974 45.2807 156.956 45.4737C156.921 45.8859 156.877 46.5789 156.912 46.8772C156.965 47.307 159.833 52.1491 165.684 52.193C165.684 52.193 166.384 51.1403 166.524 50.9386C166.524 50.9386 168.894 50.8245 169.882 49.9649C170.87 49.0965 170.258 47.5877 170.258 47.5877L170.398 45.7719C170.415 45.5526 170.511 45.3508 170.669 45.2017C170.879 45 171.15 44.7105 171.202 44.5C171.255 44.2807 171.115 43.9035 171.001 43.6491C170.923 43.4737 170.888 43.2894 170.914 43.0965C170.966 42.6403 171.01 41.6579 170.686 40.4473C170.59 40.0965 170.59 39.728 170.686 39.3772C170.835 38.7982 171.036 37.9473 171.062 37.6403C171.097 37.1666 170.293 35.9035 170.258 35.4035C170.223 34.9035 169.532 33.2193 169.532 33.2193C169.532 33.2193 165.177 25.114 158.154 28.6228C151.079 32.1579 154.77 39.7456 155.644 41.8947C155.644 41.8947 156.493 43.6403 156.641 44.0351C156.764 44.3596 156.676 44.5351 156.851 44.9123L156.842 44.9035Z" fill="#FCD1C5"/>
<path d="M170.154 34.0702C170.215 34.6404 169.996 35.2105 169.568 35.5877C168.719 36.3421 167.023 37.579 164.784 37.8772C163.21 38.0877 162.344 38.1667 161.88 38.193C161.566 38.2105 161.312 38.4649 161.294 38.7895C161.259 39.3772 161.207 40.2719 161.12 40.8772C161.085 41.1228 161.015 41.3509 160.91 41.5702L160.411 42.6316C160.289 42.8947 160.018 43.0526 159.729 43.0351H159.615C159.301 43 159.047 42.7544 159.003 42.4386V42.3947C158.889 41.5614 158.4 40.8246 157.656 40.4737C157.28 40.2983 156.861 40.2193 156.432 40.3947C155.225 40.8947 155.724 42.0702 155.724 42.0702C155.724 42.0702 154.254 40.2983 153.59 37.9474C152.934 35.6053 153.083 31.3597 156.143 29.1404C159.187 26.9298 163.166 26.0351 166.559 28.4298C169.358 30.4035 170.014 32.7895 170.154 34.0702Z" fill="#AA8383"/>
<path d="M158.573 44C158.416 43.8158 158.617 45.4298 156.955 45.4824C156.92 45.8947 156.876 46.5877 156.911 46.886C156.964 47.3158 159.832 52.1579 165.683 52.2017C165.683 52.2017 166.383 51.1491 166.523 50.9474C166.523 50.9474 161.153 48.3333 160.2 47.1403C159.246 45.9561 158.722 44.193 158.573 44.0088V44Z" fill="#E2B1A6"/>
<path d="M168.09 52.0789C168.09 52.0789 169.682 52.2631 170.425 52.6579C170.425 52.6579 170.635 51.8333 170.215 50.9298C170.215 50.9298 170.687 51.3158 170.687 53.2193C170.687 53.2193 168.352 52.4561 168.169 52.4035L168.09 52.0614V52.0789Z" fill="#C4CCD6"/>
<path d="M185.887 102.386C185.887 102.386 172.331 94.5702 167.74 91.4562C163.175 88.3597 150.337 75.2193 147.713 70.1667C148.386 71.8597 149.383 73.6053 150.651 75.3158C154.735 80.807 161.172 88.6228 162.685 89.9386C164.146 91.2018 176.625 100.614 183.779 104.14C184.312 104.404 184.933 104.202 185.248 103.675C185.441 103.36 185.668 102.974 185.922 102.553C185.895 102.456 185.878 102.395 185.878 102.395L185.887 102.386Z" fill="#24126A"/>
<path d="M154.719 51.3684L160.911 60.2017L162.502 59.6316L162.59 61.3158C162.59 61.3158 169.997 66.8509 175.542 78.3509C175.542 78.3509 168.204 66.5088 162.371 62.5614L161.838 60.8684L160.596 61.1579L154.719 51.3684Z" fill="#24126A"/>
<path d="M154.167 39.0789C154.097 39.0526 154.036 39.0351 153.975 39.0175C154.7 40.8158 155.732 42.0614 155.732 42.0614C155.732 42.0614 155.234 40.886 156.441 40.386C156.861 40.2105 157.289 40.2895 157.665 40.4649C158.409 40.8158 158.89 41.5614 159.003 42.386V42.4298C159.056 42.7544 159.309 43 159.624 43.0175H159.738C160.018 43.0526 160.289 42.886 160.42 42.6228L160.918 41.5614C161.023 41.3421 161.093 41.1053 161.128 40.8684C161.216 40.2632 161.268 39.3684 161.303 38.7807C161.303 38.7807 157.175 40.1228 154.176 39.0702L154.167 39.0789Z" fill="#936D6D"/>
</g>
<defs>
<linearGradient id="paint0_linear_179_2261" x1="17.2488" y1="33.5176" x2="248.945" y2="126.925" gradientUnits="userSpaceOnUse">
<stop stop-color="#C0BFF6"/>
<stop offset="0.29" stop-color="#C4C3F6"/>
<stop offset="0.64" stop-color="#D2D2F9"/>
<stop offset="1" stop-color="#E9E9FD"/>
</linearGradient>
<linearGradient id="paint1_linear_179_2261" x1="344.842" y1="285.123" x2="280.536" y2="140.548" gradientUnits="userSpaceOnUse">
<stop stop-color="#C0BFF6"/>
<stop offset="0.29" stop-color="#C4C3F6"/>
<stop offset="0.64" stop-color="#D2D2F9"/>
<stop offset="1" stop-color="#E9E9FD"/>
</linearGradient>
<linearGradient id="paint2_linear_179_2261" x1="230.234" y1="144.579" x2="403.3" y2="218.131" gradientUnits="userSpaceOnUse">
<stop stop-color="#C0BFF6"/>
<stop offset="0.29" stop-color="#C4C3F6"/>
<stop offset="0.64" stop-color="#D2D2F9"/>
<stop offset="1" stop-color="#E9E9FD"/>
</linearGradient>
<clipPath id="clip0_179_2261">
<rect width="501" height="283" fill="white"/>
</clipPath>
</defs>
</svg>
