<svg width="100" height="100" viewBox="0 0 100 100" fill="none" xmlns="http://www.w3.org/2000/svg">
<circle cx="50.5" cy="52.5" r="43.5" fill="#0A1736"/>
<path d="M10 30V36M7 33H13" stroke="#7BD834" stroke-linecap="round" stroke-linejoin="round"/>
<path d="M21 82V88M18 85H24" stroke="#7BD834" stroke-linecap="round" stroke-linejoin="round"/>
<path d="M92 36V42M89 39H95" stroke="#7BD834" stroke-linecap="round" stroke-linejoin="round"/>
<g clip-path="url(#clip0_208_3902)">
<mask id="mask0_208_3902" style="mask-type:luminance" maskUnits="userSpaceOnUse" x="21" y="20" width="59" height="59">
<path d="M21 20H80V79H21V20Z" fill="white"/>
</mask>
<g mask="url(#mask0_208_3902)">
<path d="M44 21H47.5H53L55 21.5L56 23.5L58 24.5L60 25.5V32.5L58.5 33.5L56.5 33L55.5 31L53 33.5H42L40.5 33V25.5L41.5 23L44 21Z" fill="#7BD834"/>
<rect x="24" y="64" width="53" height="14" fill="#203763"/>
<path d="M58.6559 76C57.7642 76 56.96 75.8083 56.2434 75.425C55.5267 75.0333 54.9642 74.4958 54.5559 73.8125C54.1475 73.1208 53.9434 72.35 53.9434 71.5C53.9434 70.65 54.1475 69.8833 54.5559 69.2C54.9642 68.5083 55.5267 67.9708 56.2434 67.5875C56.96 67.1958 57.7642 67 58.6559 67C59.5475 67 60.3517 67.1958 61.0684 67.5875C61.785 67.9708 62.3475 68.5042 62.7559 69.1875C63.1642 69.8708 63.3684 70.6417 63.3684 71.5C63.3684 72.3583 63.1642 73.1292 62.7559 73.8125C62.3475 74.4958 61.785 75.0333 61.0684 75.425C60.3517 75.8083 59.5475 76 58.6559 76ZM58.6559 74.575C59.2392 74.575 59.7642 74.4458 60.2309 74.1875C60.6975 73.9208 61.0642 73.5542 61.3309 73.0875C61.5975 72.6125 61.7309 72.0833 61.7309 71.5C61.7309 70.9167 61.5975 70.3917 61.3309 69.925C61.0642 69.45 60.6975 69.0833 60.2309 68.825C59.7642 68.5583 59.2392 68.425 58.6559 68.425C58.0725 68.425 57.5475 68.5583 57.0809 68.825C56.6142 69.0833 56.2475 69.45 55.9809 69.925C55.7142 70.3917 55.5809 70.9167 55.5809 71.5C55.5809 72.0833 55.7142 72.6125 55.9809 73.0875C56.2475 73.5542 56.6142 73.9208 57.0809 74.1875C57.5475 74.4458 58.0725 74.575 58.6559 74.575Z" fill="#7BD834"/>
<path d="M48.332 68.4875V71.15H52.557V72.525H48.332V75.875H46.707V67.125H53.0945V68.4875H48.332Z" fill="#7BD834"/>
<path d="M41.675 76C40.7917 76 39.9917 75.8083 39.275 75.425C38.5667 75.0333 38.0083 74.4958 37.6 73.8125C37.2 73.1292 37 72.3583 37 71.5C37 70.6417 37.2042 69.8708 37.6125 69.1875C38.0208 68.5042 38.5792 67.9708 39.2875 67.5875C40.0042 67.1958 40.8042 67 41.6875 67C42.4042 67 43.0583 67.125 43.65 67.375C44.2417 67.625 44.7417 67.9875 45.15 68.4625L44.1 69.45C43.4667 68.7667 42.6875 68.425 41.7625 68.425C41.1625 68.425 40.625 68.5583 40.15 68.825C39.675 69.0833 39.3042 69.4458 39.0375 69.9125C38.7708 70.3792 38.6375 70.9083 38.6375 71.5C38.6375 72.0917 38.7708 72.6208 39.0375 73.0875C39.3042 73.5542 39.675 73.9208 40.15 74.1875C40.625 74.4458 41.1625 74.575 41.7625 74.575C42.6875 74.575 43.4667 74.2292 44.1 73.5375L45.15 74.5375C44.7417 75.0125 44.2375 75.375 43.6375 75.625C43.0458 75.875 42.3917 76 41.675 76Z" fill="#7BD834"/>
<path d="M78.134 58.646H22.8661C22.3127 58.646 21.8643 59.0945 21.8643 59.6478V62.7257C21.8643 63.279 22.3127 63.7275 22.8661 63.7275H78.134C78.6874 63.7275 79.1357 63.279 79.1357 62.7257V59.6478C79.1357 59.0945 78.6874 58.646 78.134 58.646Z" stroke="#475DA9" stroke-width="1.72852" stroke-miterlimit="10" stroke-linecap="round" stroke-linejoin="round"/>
<path d="M55.5923 30.9393C55.5923 30.8 55.406 30.752 55.3402 30.8748C54.4931 32.4592 52.8236 33.5378 50.9013 33.5378H43.1973V38.6478C43.1973 42.3717 46.1151 45.7729 50.5287 45.7729C54.4576 45.7729 57.654 42.5765 57.654 38.6478V33.4814C56.4802 33.2321 55.5923 32.1845 55.5923 30.9393Z" stroke="#475DA9" stroke-width="1.72852" stroke-miterlimit="10" stroke-linecap="round" stroke-linejoin="round"/>
<path d="M40.6546 32.744C39.7677 33.1664 39.1533 34.0682 39.1533 35.1159C39.1533 36.5676 40.3302 37.7446 41.7818 37.7446H43.1969V33.5377H42.3065C41.6381 33.5377 41.0429 33.2274 40.6546 32.744Z" stroke="#475DA9" stroke-width="1.72852" stroke-miterlimit="10" stroke-linecap="round" stroke-linejoin="round"/>
<path d="M59.5046 32.5265C59.3485 33.1067 58.818 33.5377 58.1903 33.5377C58.0062 33.5377 57.827 33.517 57.6537 33.4799L57.6533 33.4812V37.7446H59.0684C60.5201 37.7446 61.697 36.5677 61.697 35.1161C61.697 33.8133 60.7483 32.7347 59.5046 32.5265Z" stroke="#475DA9" stroke-width="1.72852" stroke-miterlimit="10" stroke-linecap="round" stroke-linejoin="round"/>
<path d="M69.0347 58.646V57.63C69.0347 54.42 66.7978 52.2567 65.1272 51.5692L54.8818 47.6592C54.6048 47.5523 54.4209 47.2857 54.4201 46.9874L54.418 44.6126C53.2986 45.3451 51.9627 45.7727 50.5281 45.7727C48.946 45.7727 47.5577 45.334 46.4255 44.6019L46.4256 46.9829C46.4256 47.2805 46.2825 47.456 46.1177 47.5677L35.8723 51.5692C34.2018 52.2567 31.9648 54.42 31.9648 57.63V58.646H69.0347Z" stroke="#475DA9" stroke-width="1.72852" stroke-miterlimit="10" stroke-linecap="round" stroke-linejoin="round"/>
<path d="M44.9353 58.646L43.3831 48.6358L35.8724 51.5692C34.2018 52.2567 31.9648 54.42 31.9648 57.63V58.646H44.9353Z" stroke="#475DA9" stroke-width="1.72852" stroke-miterlimit="10" stroke-linecap="round" stroke-linejoin="round"/>
<path d="M69.0349 58.646V57.63C69.0349 54.42 66.798 52.2567 65.1274 51.5692L57.6069 48.6992L56.0645 58.646H69.0349Z" stroke="#475DA9" stroke-width="1.72852" stroke-miterlimit="10" stroke-linecap="round" stroke-linejoin="round"/>
<path d="M51.9979 50.2177C51.8516 50.0011 51.8791 49.8267 51.8791 49.7243H49.0147C49.0365 49.9058 48.9885 50.0807 48.8959 50.2177L47.7373 51.9334L48.8433 54.3467H52.0504L53.1564 51.9336L51.9979 50.2177Z" stroke="#475DA9" stroke-width="1.72852" stroke-miterlimit="10" stroke-linecap="round" stroke-linejoin="round"/>
<path d="M52.0505 54.347H48.8434L48.0859 58.6465H52.8079L52.0505 54.347Z" stroke="#475DA9" stroke-width="1.72852" stroke-miterlimit="10" stroke-linecap="round" stroke-linejoin="round"/>
<path d="M48.7568 49.2506L46.3704 47.2712C46.3139 47.4041 46.2199 47.4982 46.1176 47.5677L43.3828 48.6358L43.5373 49.6325L46.6154 52.1665C46.9464 52.441 47.4419 52.3699 47.6827 52.0136L48.8953 50.2176C49.1047 49.9077 49.0447 49.4894 48.7568 49.2506Z" stroke="#475DA9" stroke-width="1.72852" stroke-miterlimit="10" stroke-linecap="round" stroke-linejoin="round"/>
<path d="M54.882 47.6594C54.6947 47.5869 54.5516 47.4409 54.4773 47.262L52.1362 49.2507C51.8483 49.4894 51.7883 49.9077 51.9976 50.2176L53.2103 52.0135C53.451 52.3699 53.9466 52.4409 54.2776 52.1664L57.4876 49.4678L57.6068 48.6992L54.882 47.6594Z" stroke="#475DA9" stroke-width="1.72852" stroke-miterlimit="10" stroke-linecap="round" stroke-linejoin="round"/>
<path d="M47.0036 20.864H46.6936H45.2197C42.4403 20.864 40.1875 23.117 40.1875 25.8962V31.4188C40.1875 32.5891 41.136 33.5376 42.3062 33.5376H50.9007C52.8231 33.5376 54.4926 32.4592 55.3398 30.8746C55.4055 30.7519 55.5918 30.7999 55.5918 30.9392C55.5918 32.3683 56.7612 33.5376 58.1904 33.5376C58.9396 33.5376 59.5524 32.9247 59.5524 32.1755V26.4123C59.5524 25.0547 58.3679 24.0679 57.1906 24.1583C56.5098 24.2108 55.8851 23.7827 55.7542 23.1126C55.5334 21.984 54.9747 20.864 52.7921 20.864H51.3717H51.0368" stroke="#475DA9" stroke-width="1.72852" stroke-miterlimit="10" stroke-linecap="round" stroke-linejoin="round"/>
<path d="M76.6728 68.9151V63.7276H24.3271V77.1339C24.3271 77.6871 24.7756 78.1357 25.3288 78.1357H75.6712C76.2243 78.1357 76.6728 77.6871 76.6728 77.1339V72.9484" stroke="#475DA9" stroke-width="1.72852" stroke-miterlimit="10" stroke-linecap="round" stroke-linejoin="round"/>
</g>
</g>
<defs>
<clipPath id="clip0_208_3902">
<rect width="59" height="59" fill="white" transform="translate(21 20)"/>
</clipPath>
</defs>
</svg>
