<svg width="279" height="193" viewBox="0 0 279 193" fill="none" xmlns="http://www.w3.org/2000/svg">
<g clip-path="url(#clip0_208_2658)">
<g opacity="0.45">
<path d="M88.0022 69.4862C88.1047 69.4862 88.1979 69.459 88.2911 69.4139L202.208 5.6141C204.305 4.43899 205.46 2.83903 205.46 1.12156C205.46 -0.604961 204.305 -2.19589 202.208 -3.37101L128.025 -44.9159C126.301 -45.8831 125.35 -47.1305 125.35 -48.4322C125.35 -49.7339 126.301 -50.9813 128.025 -51.9485L253.636 -122.302C257.419 -124.417 263.579 -124.417 267.362 -122.302L309.49 -98.7091C311.214 -97.7418 312.165 -96.4944 312.165 -95.1927C312.165 -93.8911 311.214 -92.6436 309.49 -91.6764L246.862 -56.6038C244.765 -55.4286 243.609 -53.8287 243.609 -52.1112C243.609 -50.3847 244.765 -48.7937 246.862 -47.6186L340.502 4.82769C344.611 7.1237 351.283 7.13273 355.393 4.82769L417.574 -29.9919C417.853 -30.1456 417.947 -30.4981 417.788 -30.7602C417.63 -31.0314 417.266 -31.1218 416.996 -30.9681L354.815 3.85145C351.032 5.96665 344.872 5.96665 341.089 3.85145L247.449 -48.5949C245.725 -49.5621 244.774 -50.8095 244.774 -52.1112C244.774 -53.4129 245.725 -54.6603 247.449 -55.6275L310.077 -90.7002C312.174 -91.8753 313.329 -93.4753 313.329 -95.1927C313.329 -96.9193 312.174 -98.5102 310.077 -99.6853L267.949 -123.278C263.849 -125.574 257.158 -125.574 253.058 -123.278L127.447 -52.9247C125.35 -51.7496 124.195 -50.1497 124.195 -48.4231C124.195 -46.6966 125.35 -45.1057 127.447 -43.9306L201.63 -2.38572C203.354 -1.41851 204.305 -0.171077 204.305 1.13059C204.305 2.43226 203.354 3.67968 201.63 4.64689L87.7133 68.4466C87.4338 68.6003 87.3406 68.9528 87.499 69.224C87.6015 69.3867 87.7972 69.4862 88.0022 69.4862Z" fill="#7BD834"/>
<path d="M115.138 21.65C115.343 21.65 115.539 21.5506 115.641 21.3698C115.8 21.0986 115.707 20.7551 115.427 20.5924L4.8554 -41.3362C2.47921 -42.665 1.17463 -44.4006 1.17463 -46.2175C1.17463 -48.0344 2.47921 -49.7699 4.8554 -51.0987L110.898 -110.496C116.023 -113.371 124.373 -113.371 129.498 -110.496L153.204 -97.2175C153.483 -97.0638 153.837 -97.1542 154.005 -97.4254C154.163 -97.6966 154.07 -98.0401 153.791 -98.2028L130.085 -111.482C124.634 -114.537 115.772 -114.537 110.321 -111.482L4.26834 -52.084C1.51942 -50.5473 0.000513098 -48.4592 0.000512903 -46.2265C0.000512707 -43.9848 1.51942 -41.9057 4.26833 -40.36L114.84 21.5686C114.943 21.6229 115.045 21.65 115.138 21.65Z" fill="#7BD834"/>
<path d="M378.436 193C381.474 193 384.512 192.349 386.823 191.056L538.312 106.213C540.66 104.893 541.955 103.113 541.955 101.187C541.955 99.2618 540.66 97.481 538.312 96.1613L486.641 67.2263C482.019 64.632 474.49 64.632 469.868 67.2263L432.511 88.1524C432.231 88.3061 432.138 88.6586 432.297 88.9298C432.455 89.201 432.818 89.2913 433.089 89.1377L470.446 68.2116C474.751 65.7981 481.749 65.8071 486.054 68.2116L537.725 97.1466C539.7 98.2494 540.79 99.6866 540.79 101.187C540.79 102.688 539.7 104.125 537.725 105.228L386.236 190.071C381.931 192.485 374.933 192.485 370.628 190.071L174.597 80.2791C174.318 80.1254 173.964 80.2158 173.796 80.487C173.638 80.7582 173.731 81.1017 174.01 81.2644L370.05 191.056C372.361 192.349 375.399 193 378.436 193Z" fill="#7BD834"/>
<path d="M366.5 123.677C369.538 123.677 372.576 123.026 374.887 121.734L405.628 104.514C405.907 104.36 406.001 104.007 405.842 103.736C405.684 103.465 405.32 103.375 405.05 103.528L374.309 120.748C370.004 123.162 363.006 123.162 358.701 120.748L229.762 48.533C227.787 47.4302 226.697 45.9929 226.697 44.4924C226.697 42.9918 227.787 41.5546 229.762 40.4518L267.865 19.1099C272.17 16.6964 279.168 16.6964 283.473 19.1099L358.123 60.9169C362.745 63.5112 370.274 63.5112 374.896 60.9169L479.196 2.5046C483.501 0.0910959 490.499 0.0910965 494.805 2.5046L606.131 64.8581C606.411 65.0117 606.765 64.9213 606.923 64.6502C607.081 64.379 606.988 64.0355 606.709 63.8818L495.364 1.52835C490.742 -1.06594 483.212 -1.06594 478.591 1.52835L374.29 59.9406C369.985 62.3541 362.987 62.3541 358.682 59.9406L284.033 18.1336C279.411 15.5393 271.881 15.5393 267.26 18.1336L229.157 39.4755C226.809 40.7953 225.513 42.576 225.513 44.5014C225.513 46.4268 226.809 48.2075 229.157 49.5273L358.114 121.734C360.424 123.026 363.462 123.677 366.5 123.677Z" fill="#7BD834"/>
<path d="M233.489 150.967C233.592 150.967 233.685 150.94 233.778 150.895L266.355 132.653C266.635 132.5 266.728 132.147 266.57 131.876C266.411 131.605 266.057 131.514 265.768 131.668L233.191 149.909C232.912 150.063 232.818 150.416 232.977 150.687C233.089 150.868 233.284 150.967 233.489 150.967Z" fill="#7BD834"/>
<path d="M214.165 161.796L233.491 161.796C233.817 161.796 234.078 161.543 234.078 161.227L234.078 150.407C234.078 150.253 234.013 150.108 233.91 150.009C233.799 149.9 233.649 149.846 233.5 149.846L214.174 149.846C213.848 149.846 213.587 150.099 213.587 150.416L213.587 161.236C213.587 161.534 213.848 161.796 214.165 161.796ZM232.904 160.657L214.752 160.657L214.752 150.967L232.904 150.967L232.904 160.657Z" fill="#7BD834"/>
</g>
<path opacity="0.5" d="M211.469 120.521L255.141 95.3237C256.092 94.7812 255.966 93.8213 254.88 93.1952L242.046 85.7977L194.938 112.967L207.772 120.365C208.869 121.001 210.519 121.074 211.469 120.521Z" fill="#32589D" fill-opacity="0.6"/>
<path d="M149.387 86.2359V77.5445L163.558 77.555L195.002 59.4106C195.775 58.962 197.122 59.0245 198.01 59.5358L229.317 77.5967L243.426 77.6071V86.3194H243.415C243.405 86.5906 243.238 86.8515 242.904 87.0393L197.79 113.061C197.017 113.51 195.67 113.447 194.783 112.936L150.108 87.1645C149.659 86.9036 149.408 86.5593 149.387 86.2359Z" fill="url(#paint0_linear_208_2658)"/>
<path d="M197.8 104.37L242.913 78.348C243.686 77.8993 243.592 77.1272 242.694 76.616L198.019 50.8445C197.131 50.3332 195.784 50.2706 195.011 50.7193L149.898 76.7412C149.125 77.1898 149.219 77.9619 150.117 78.4732L194.792 104.245C195.68 104.756 197.027 104.819 197.8 104.37Z" fill="url(#paint1_linear_208_2658)"/>
<path d="M197.643 101.323L237.629 78.254C238.308 77.8576 238.224 77.1689 237.441 76.7098L197.841 53.8703C197.048 53.4112 195.857 53.3694 195.168 53.7555L155.182 76.8246C154.503 77.2211 154.587 77.9097 155.37 78.3688L194.97 101.208C195.763 101.667 196.964 101.72 197.643 101.323Z" fill="#32589D"/>
<path d="M198.073 99.8532L234.812 78.6621C235.438 78.2969 235.365 77.6709 234.634 77.2431L198.251 56.2607C197.53 55.8434 196.423 55.8016 195.797 56.1564L159.059 77.3475C158.432 77.7127 158.505 78.3387 159.236 78.7665L195.619 99.7488C196.35 100.166 197.447 100.208 198.073 99.8532Z" fill="#102140"/>
<path d="M204.654 72.232L203.459 71.5669L203.326 71.5156C203.253 71.4874 203.148 71.4479 203.093 71.4277C203.038 71.4076 202.929 71.3695 202.852 71.3431C202.775 71.3167 202.601 71.2603 202.465 71.2178C202.329 71.1753 202.152 71.1213 202.072 71.0977C201.991 71.0742 201.862 71.0377 201.784 71.0166C201.707 70.9955 201.585 70.9631 201.512 70.9447C201.44 70.9262 201.314 70.8954 201.233 70.8762C201.151 70.857 201.04 70.8313 200.985 70.8193C200.929 70.8071 200.815 70.7829 200.73 70.7655C200.644 70.7481 200.504 70.7206 200.417 70.7044C200.33 70.6883 200.186 70.6628 200.098 70.648C200.009 70.6331 199.837 70.6067 199.716 70.5892C199.595 70.5717 199.431 70.5496 199.352 70.54C199.274 70.5304 199.138 70.5149 199.05 70.5055C198.963 70.4962 198.824 70.4823 198.741 70.4748C198.658 70.4673 198.52 70.4561 198.435 70.4499C198.349 70.4437 198.241 70.4363 198.194 70.4334C198.147 70.4306 198.029 70.4245 197.931 70.4199C197.834 70.4153 197.665 70.4092 197.556 70.4064C197.448 70.4035 197.304 70.4006 197.236 70.4C197.169 70.3993 197.049 70.3991 196.969 70.3995C196.889 70.3998 196.769 70.4011 196.702 70.4023C196.636 70.4035 196.52 70.4064 196.444 70.4088C196.369 70.4111 196.223 70.417 196.12 70.4219C196.017 70.4268 195.808 70.4398 195.656 70.4507C195.504 70.4616 195.305 70.4778 195.214 70.4867C195.123 70.4955 194.983 70.5101 194.903 70.519C194.823 70.528 194.689 70.5441 194.605 70.5549C194.521 70.5658 194.392 70.5832 194.319 70.5938C194.245 70.6043 194.111 70.6249 194.021 70.6393C193.93 70.6539 193.788 70.6777 193.705 70.6924C193.622 70.7071 193.459 70.738 193.342 70.7611C193.226 70.7841 193.061 70.8184 192.976 70.8372C192.891 70.856 192.766 70.8844 192.699 70.9002C192.632 70.916 192.527 70.9415 192.466 70.9569C192.404 70.9722 192.295 71.0006 192.222 71.0198C192.15 71.039 191.991 71.0834 191.87 71.1184C191.749 71.1533 191.585 71.202 191.507 71.2265C191.429 71.251 191.308 71.2897 191.239 71.3126C191.17 71.3354 191.045 71.3782 190.961 71.4077C190.877 71.4372 190.744 71.4851 190.666 71.5143C190.587 71.5435 190.444 71.599 190.347 71.6377C190.249 71.6764 190.098 71.7386 190.011 71.7759C189.923 71.8132 189.791 71.871 189.717 71.9043C189.643 71.9376 189.519 71.9948 189.442 72.0314C189.365 72.0681 189.242 72.1283 189.169 72.1653C189.095 72.2022 188.989 72.2568 188.932 72.2866C188.876 72.3163 188.778 72.369 188.715 72.4035C188.652 72.4381 188.541 72.5008 188.468 72.543C188.395 72.5851 188.272 72.6578 188.196 72.7044C188.119 72.7512 188.003 72.8234 187.938 72.8651C187.873 72.9067 187.78 72.9674 187.731 72.9999C187.671 73.0399 187.484 73.1787 187.154 73.4283L186.666 73.7975L186.562 73.8901C186.504 73.9409 186.422 74.0155 186.378 74.0557C186.334 74.0959 186.256 74.1691 186.205 74.2184C186.154 74.2677 186.072 74.3483 186.024 74.3975C185.975 74.4467 185.895 74.5303 185.846 74.5833C185.797 74.6363 185.722 74.7191 185.68 74.7674C185.637 74.8157 185.566 74.8988 185.522 74.952C185.478 75.0052 185.405 75.0971 185.359 75.156C185.313 75.215 185.244 75.3066 185.205 75.3596C185.167 75.4126 185.092 75.5203 185.04 75.5988C184.987 75.6774 184.908 75.8023 184.863 75.8765C184.818 75.9507 184.751 76.0676 184.714 76.1363C184.676 76.2049 184.626 76.3014 184.601 76.3506C184.577 76.3998 184.533 76.4907 184.505 76.5526C184.476 76.6145 184.435 76.7082 184.414 76.7608C184.392 76.8134 184.36 76.8945 184.343 76.941C184.325 76.9876 184.3 77.0585 184.286 77.0988C184.272 77.139 184.247 77.2146 184.23 77.2668C184.214 77.3189 184.189 77.4026 184.176 77.4529C184.162 77.503 184.138 77.5944 184.124 77.6559C184.11 77.7174 184.092 77.7957 184.085 77.83C184.078 77.8642 184.067 77.9229 184.06 77.9605C184.053 77.998 184.041 78.0802 184.031 78.143C184.023 78.2059 184.011 78.3009 184.005 78.354C184 78.4072 183.992 78.5018 183.988 78.5642C183.984 78.6266 183.98 78.7244 183.979 78.7816C183.978 78.8388 183.977 78.9279 183.978 78.9797C183.979 79.0315 183.984 79.15 183.991 79.2431C183.997 79.3362 184.007 79.4571 184.014 79.5119C184.021 79.5666 184.033 79.6563 184.042 79.7111C184.051 79.7661 184.067 79.8573 184.078 79.914C184.09 79.9706 184.11 80.0659 184.125 80.1256C184.139 80.1854 184.168 80.2925 184.189 80.3637C184.209 80.435 184.242 80.5404 184.262 80.5979C184.282 80.6554 184.315 80.7473 184.336 80.8019C184.357 80.8567 184.389 80.9361 184.407 80.9786C184.425 81.021 184.465 81.1096 184.496 81.1753C184.526 81.241 184.576 81.3426 184.607 81.401C184.638 81.4594 184.69 81.5549 184.723 81.6133C184.756 81.6716 184.817 81.7725 184.858 81.8373C184.899 81.9022 184.958 81.9924 184.989 82.0377C185.02 82.0831 185.072 82.1562 185.104 82.2003C185.136 82.2444 185.196 82.3227 185.236 82.3745C185.276 82.4262 185.339 82.5049 185.376 82.5494C185.413 82.5939 185.469 82.6589 185.499 82.6939C185.53 82.7289 185.598 82.8046 185.652 82.862C185.705 82.9194 185.786 83.0037 185.832 83.0492C185.877 83.0948 185.967 83.1812 186.031 83.2415C186.095 83.3017 186.191 83.3883 186.243 83.4339C186.296 83.4796 186.369 83.5418 186.405 83.5722C186.442 83.6026 186.505 83.6542 186.546 83.6868C186.587 83.7193 186.661 83.7765 186.71 83.8137C186.759 83.851 186.822 83.8984 186.85 83.919C186.878 83.9396 186.928 83.9758 186.961 83.9995C186.995 84.0232 187.062 84.0701 187.111 84.1039C187.16 84.1376 187.246 84.1951 187.301 84.2315C187.389 84.2901 187.468 84.3351 187.974 84.6168L188.548 84.9358L188.694 85.0034C188.775 85.0406 188.899 85.0968 188.97 85.1283C189.042 85.1597 189.16 85.2103 189.232 85.2407C189.305 85.2711 189.414 85.3154 189.474 85.339C189.534 85.3626 189.642 85.4042 189.714 85.4312C189.787 85.4583 189.906 85.5016 189.98 85.5274C190.054 85.5533 190.185 85.5973 190.271 85.6252C190.356 85.6532 190.5 85.6979 190.589 85.7247C190.679 85.7515 190.824 85.7933 190.912 85.8175C191 85.8418 191.139 85.8784 191.22 85.8989C191.301 85.9194 191.419 85.9484 191.483 85.9633C191.546 85.9782 191.659 86.0034 191.732 86.0194C191.806 86.0354 191.915 86.0582 191.975 86.0702C192.034 86.0822 192.141 86.1027 192.212 86.1159C192.282 86.129 192.396 86.1493 192.465 86.161C192.534 86.1728 192.657 86.1928 192.739 86.2055C192.821 86.2182 192.967 86.239 193.063 86.2517C193.159 86.2643 193.311 86.2831 193.401 86.2934C193.491 86.3037 193.652 86.3202 193.759 86.3301C193.866 86.3401 194.024 86.3533 194.11 86.3595C194.196 86.3658 194.304 86.3732 194.351 86.376C194.398 86.3788 194.51 86.3846 194.601 86.3888C194.692 86.393 194.869 86.399 194.995 86.4022C195.121 86.4054 195.306 86.4082 195.407 86.4084C195.508 86.4087 195.643 86.4081 195.706 86.4073C195.77 86.4064 195.853 86.4049 195.89 86.4039C195.928 86.403 196.039 86.3995 196.136 86.3963C196.234 86.3929 196.421 86.3843 196.552 86.3769C196.683 86.3696 196.872 86.3568 196.972 86.3485C197.073 86.3402 197.214 86.3278 197.285 86.321C197.356 86.3142 197.477 86.3017 197.554 86.2932C197.631 86.2847 197.748 86.2711 197.813 86.2631C197.879 86.255 198.011 86.2375 198.106 86.2242C198.201 86.2109 198.364 86.1865 198.468 86.1699C198.573 86.1533 198.731 86.1267 198.822 86.1106C198.912 86.0945 199.086 86.0613 199.208 86.0367C199.331 86.0121 199.478 85.9816 199.536 85.9689C199.593 85.9562 199.704 85.931 199.781 85.913C199.859 85.8949 199.991 85.8629 200.075 85.8418C200.159 85.8206 200.281 85.7893 200.345 85.7722C200.41 85.7551 200.57 85.7101 200.701 85.6721C200.832 85.6342 200.989 85.5875 201.05 85.5684C201.111 85.5492 201.223 85.513 201.3 85.4878C201.377 85.4627 201.491 85.4244 201.553 85.4028C201.616 85.3812 201.724 85.3427 201.794 85.3172C201.865 85.2918 201.989 85.2455 202.07 85.2145C202.151 85.1835 202.282 85.1318 202.361 85.0997C202.44 85.0676 202.566 85.0154 202.64 84.9838C202.714 84.9522 202.832 84.9002 202.903 84.8684C202.974 84.8366 203.1 84.7783 203.184 84.7389C203.268 84.6995 203.389 84.6416 203.452 84.6103C203.516 84.5789 203.626 84.5235 203.696 84.487C203.766 84.4505 203.888 84.3858 203.966 84.3432C204.044 84.3006 204.16 84.2353 204.225 84.1981C204.289 84.1609 204.381 84.1066 204.43 84.0774C204.478 84.0481 204.552 84.0028 204.595 83.9766C204.637 83.9503 204.717 83.899 204.774 83.8624C204.861 83.8058 204.955 83.7365 205.411 83.3922C205.874 83.0423 205.954 82.9802 206.013 82.9266C206.05 82.8926 206.107 82.8403 206.139 82.8104C206.172 82.7804 206.226 82.7293 206.26 82.6968C206.293 82.6643 206.351 82.6081 206.387 82.5719C206.423 82.5358 206.478 82.4797 206.509 82.4474C206.54 82.4151 206.602 82.3471 206.648 82.2964C206.694 82.2456 206.759 82.1718 206.792 82.1324C206.826 82.093 206.886 82.0196 206.926 81.9692C206.967 81.9188 207.031 81.8354 207.069 81.7839C207.107 81.7323 207.172 81.641 207.213 81.5808C207.253 81.5207 207.309 81.4353 207.337 81.3911C207.365 81.347 207.393 81.2973 207.401 81.2809C207.409 81.2645 207.417 81.2323 207.419 81.2095C207.422 81.1866 207.419 81.1524 207.414 81.1335C207.408 81.1145 207.397 81.0878 207.389 81.074C207.381 81.0603 207.365 81.0395 207.354 81.0279C207.343 81.0164 207.319 80.9959 207.3 80.9825C207.278 80.966 207.253 80.9522 207.223 80.9398C207.198 80.9297 207.159 80.917 207.135 80.9116C207.112 80.9062 207.073 80.8999 207.049 80.8976C207.024 80.8953 206.975 80.8958 206.938 80.8987C206.902 80.9016 206.463 80.9327 205.964 80.9678C205.311 81.0136 205.042 81.0345 205.005 81.0423C204.977 81.0482 204.937 81.0607 204.915 81.0702C204.893 81.0796 204.854 81.1 204.828 81.1156C204.803 81.1312 204.756 81.1628 204.726 81.1859L204.67 81.2279L204.65 81.2694C204.639 81.2922 204.613 81.3374 204.594 81.3698C204.574 81.4023 204.536 81.4586 204.51 81.4951C204.483 81.5316 204.444 81.5818 204.424 81.6068C204.403 81.6317 204.364 81.6775 204.336 81.7085C204.309 81.7396 204.261 81.7915 204.23 81.8239C204.199 81.8563 204.146 81.9094 204.112 81.942C204.078 81.9746 204.015 82.0341 203.971 82.0742C203.927 82.1142 203.853 82.179 203.808 82.2181C203.757 82.2618 203.639 82.3531 203.503 82.455C203.381 82.5461 203.237 82.6511 203.181 82.6882C203.126 82.7252 203.039 82.7825 202.988 82.8154C202.937 82.8483 202.85 82.903 202.795 82.9369C202.74 82.9708 202.651 83.0243 202.597 83.0556C202.544 83.087 202.448 83.141 202.386 83.1757C202.323 83.2103 202.227 83.2624 202.171 83.2912C202.116 83.3201 202.028 83.3656 201.975 83.3923C201.921 83.419 201.82 83.4682 201.749 83.5016C201.678 83.5349 201.581 83.5798 201.533 83.6012C201.485 83.6225 201.388 83.6647 201.317 83.6948C201.246 83.7249 201.13 83.7726 201.059 83.801C200.988 83.8292 200.879 83.8714 200.816 83.8947C200.754 83.918 200.651 83.9555 200.587 83.978C200.523 84.0004 200.412 84.0385 200.339 84.0625C200.266 84.0865 200.152 84.1231 200.085 84.1439C200.018 84.1646 199.876 84.2061 199.769 84.2362C199.662 84.2663 199.517 84.3058 199.445 84.324C199.374 84.3422 199.252 84.372 199.175 84.3902C199.097 84.4084 198.976 84.4358 198.906 84.4511C198.835 84.4665 198.71 84.492 198.629 84.5078C198.547 84.5237 198.406 84.5496 198.316 84.5654C198.225 84.5812 198.078 84.605 197.989 84.6184C197.9 84.6317 197.753 84.6519 197.664 84.6634C197.574 84.6749 197.438 84.691 197.36 84.6993C197.283 84.7076 197.125 84.7226 197.009 84.7327C196.893 84.7428 196.712 84.7557 196.606 84.7615C196.5 84.7673 196.366 84.7739 196.307 84.7761C196.249 84.7783 196.154 84.7812 196.097 84.7826C196.04 84.784 195.933 84.7858 195.86 84.7865C195.787 84.7872 195.672 84.7873 195.606 84.7866C195.539 84.7859 195.431 84.7841 195.366 84.7826C195.3 84.7811 195.2 84.778 195.142 84.7758C195.085 84.7737 194.97 84.7681 194.887 84.7635C194.804 84.7589 194.683 84.751 194.617 84.746C194.552 84.741 194.428 84.7304 194.342 84.7225C194.256 84.7145 194.114 84.6997 194.027 84.6896C193.939 84.6795 193.773 84.6576 193.658 84.641C193.542 84.6245 193.389 84.6009 193.316 84.5885C193.243 84.5762 193.132 84.5563 193.068 84.5443C193.005 84.5323 192.905 84.5125 192.846 84.5004C192.788 84.4884 192.691 84.4676 192.632 84.4544C192.572 84.4412 192.449 84.4121 192.359 84.3896C192.268 84.3672 192.138 84.3335 192.069 84.3147C192 84.2959 191.903 84.2685 191.852 84.2538C191.802 84.239 191.711 84.2113 191.65 84.1922C191.588 84.1731 191.489 84.141 191.429 84.1209C191.369 84.1008 191.258 84.0619 191.181 84.0343C191.104 84.0068 190.994 83.9655 190.935 83.9426C190.876 83.9197 190.77 83.8773 190.701 83.8485C190.631 83.8196 190.524 83.7734 190.462 83.7457C190.4 83.718 190.301 83.6725 190.242 83.6446C190.183 83.6167 190.072 83.5623 189.996 83.5237C189.908 83.4796 189.764 83.4008 189.608 83.3117C189.471 83.2337 189.325 83.148 189.283 83.1214C189.242 83.0947 189.167 83.046 189.117 83.013C189.067 82.9801 188.98 82.9209 188.924 82.8815C188.868 82.8422 188.785 82.7828 188.74 82.7496C188.696 82.7164 188.613 82.6528 188.557 82.6082C188.5 82.5637 188.416 82.4952 188.37 82.4559C188.323 82.4167 188.253 82.3558 188.213 82.3206C188.173 82.2854 188.104 82.2217 188.059 82.179C188.015 82.1363 187.954 82.0767 187.924 82.0466C187.895 82.0165 187.839 81.958 187.801 81.9165C187.762 81.875 187.698 81.8033 187.658 81.757C187.619 81.7108 187.568 81.65 187.545 81.6219C187.522 81.5939 187.473 81.5312 187.437 81.4827C187.4 81.4342 187.35 81.3661 187.326 81.3313C187.302 81.2966 187.256 81.2276 187.224 81.1782C187.191 81.1287 187.138 81.0409 187.104 80.9831C187.07 80.9253 187.019 80.8318 186.989 80.7754C186.96 80.7189 186.922 80.6424 186.905 80.6053C186.888 80.5681 186.862 80.5099 186.847 80.4757C186.832 80.4417 186.802 80.3667 186.78 80.3091C186.758 80.2516 186.728 80.1701 186.714 80.128C186.701 80.086 186.678 80.0129 186.664 79.9654C186.65 79.918 186.627 79.8317 186.613 79.7736C186.599 79.7155 186.578 79.6207 186.568 79.5628C186.557 79.505 186.541 79.4115 186.533 79.3551C186.525 79.2987 186.513 79.1708 186.506 79.0709C186.5 78.971 186.495 78.8332 186.496 78.7646C186.497 78.696 186.5 78.5925 186.504 78.5345C186.508 78.4766 186.515 78.3921 186.519 78.3468C186.524 78.3015 186.535 78.2195 186.543 78.1645C186.552 78.1095 186.565 78.0315 186.573 77.9912C186.58 77.9509 186.595 77.8806 186.606 77.8351C186.616 77.7896 186.636 77.7112 186.65 77.6609C186.663 77.6106 186.686 77.5326 186.7 77.4876C186.715 77.4425 186.74 77.3661 186.758 77.3177C186.775 77.2694 186.815 77.1661 186.848 77.0882C186.88 77.0103 186.927 76.905 186.952 76.8541C186.977 76.8033 187.013 76.7313 187.032 76.6942C187.052 76.657 187.088 76.5909 187.112 76.5473C187.137 76.5037 187.177 76.4352 187.201 76.3951C187.226 76.355 187.282 76.2669 187.327 76.1993C187.372 76.1317 187.441 76.0332 187.48 75.9804C187.519 75.9276 187.583 75.844 187.622 75.7946C187.662 75.7452 187.722 75.6719 187.757 75.6315C187.791 75.5912 187.857 75.5168 187.903 75.4661C187.949 75.4155 188.023 75.3361 188.067 75.2898C188.112 75.2435 188.181 75.1736 188.221 75.1346C188.261 75.0955 188.334 75.0254 188.385 74.9789C188.435 74.9323 188.513 74.8619 188.558 74.8225C188.603 74.783 188.671 74.7245 188.708 74.6924C188.746 74.6604 188.881 74.5541 189.009 74.4563C189.155 74.344 189.286 74.247 189.364 74.1935C189.432 74.1468 189.546 74.0707 189.617 74.0243C189.689 73.9779 189.79 73.9138 189.842 73.8817C189.895 73.8496 189.982 73.7977 190.035 73.7664C190.089 73.735 190.185 73.6806 190.249 73.6455C190.312 73.6103 190.416 73.5545 190.48 73.5214C190.544 73.4883 190.642 73.4382 190.699 73.4101C190.755 73.382 190.844 73.3392 190.896 73.3149C190.947 73.2906 191.024 73.255 191.067 73.2357C191.11 73.2164 191.208 73.1735 191.285 73.1403C191.362 73.1072 191.497 73.0518 191.583 73.0173C191.67 72.9827 191.788 72.9371 191.845 72.9159C191.902 72.8948 191.995 72.8611 192.051 72.8412C192.108 72.8212 192.204 72.7881 192.265 72.7675C192.326 72.747 192.434 72.7121 192.504 72.69C192.575 72.6678 192.724 72.6235 192.836 72.5914C192.948 72.5593 193.109 72.5151 193.195 72.4931C193.28 72.4711 193.429 72.4347 193.526 72.4122C193.622 72.3898 193.771 72.3568 193.856 72.339C193.942 72.3213 194.075 72.2949 194.152 72.2806C194.228 72.2662 194.38 72.24 194.488 72.2224C194.596 72.2047 194.747 72.1815 194.823 72.1708C194.899 72.1602 195.024 72.1439 195.101 72.1345C195.178 72.1252 195.305 72.111 195.384 72.103C195.463 72.0949 195.615 72.081 195.722 72.072C195.83 72.0631 196.016 72.0508 196.136 72.0448C196.256 72.0388 196.417 72.032 196.493 72.0298C196.569 72.0275 196.7 72.025 196.785 72.0241C196.87 72.0233 196.986 72.0229 197.044 72.0232C197.101 72.0236 197.224 72.0258 197.317 72.0281C197.411 72.0304 197.558 72.0357 197.646 72.0398C197.733 72.0439 197.876 72.0521 197.963 72.0581C198.05 72.0641 198.214 72.0778 198.328 72.0884C198.441 72.0991 198.6 72.1158 198.681 72.1256C198.762 72.1353 198.906 72.1545 199.001 72.1681C199.096 72.1818 199.224 72.2013 199.285 72.2114C199.346 72.2216 199.458 72.2412 199.533 72.255C199.609 72.2689 199.731 72.2927 199.805 72.3079C199.878 72.3231 200.005 72.3507 200.086 72.3694C200.168 72.388 200.299 72.4198 200.378 72.44C200.457 72.4602 200.595 72.4975 200.684 72.5228C200.773 72.5481 200.909 72.5883 200.985 72.6121C201.062 72.6359 201.185 72.6762 201.26 72.7016C201.334 72.7271 201.447 72.7669 201.51 72.79C201.573 72.8133 201.674 72.8516 201.734 72.8752C201.794 72.8988 201.892 72.9388 201.953 72.9641C202.013 72.9893 202.113 73.0326 202.175 73.0603C202.237 73.088 202.337 73.1341 202.397 73.1628C202.458 73.1916 202.579 73.2517 202.666 73.2964C202.76 73.3443 202.894 73.4177 202.993 73.4749C203.086 73.5284 203.198 73.5952 203.242 73.6234C203.287 73.6516 203.374 73.7086 203.437 73.7501C203.5 73.7916 203.607 73.8649 203.676 73.9129C203.744 73.961 203.845 74.0333 203.9 74.0736C203.954 74.1139 204.059 74.1923 204.132 74.2478C204.205 74.3034 204.311 74.3854 204.368 74.4302C204.427 74.4765 204.489 74.5209 204.511 74.5332C204.533 74.5452 204.575 74.5658 204.604 74.5791C204.634 74.5925 204.682 74.6111 204.711 74.6205C204.74 74.6299 204.788 74.6412 204.818 74.6456L204.871 74.6536L205.789 74.5903C206.488 74.5422 206.719 74.5244 206.755 74.5161C206.781 74.51 206.825 74.496 206.851 74.485C206.878 74.474 206.92 74.4524 206.946 74.437C206.976 74.4185 207.005 74.3972 207.03 74.3741C207.051 74.3549 207.076 74.3287 207.086 74.3158C207.096 74.3029 207.113 74.2784 207.123 74.2612C207.13 74.242 207.143 74.2131 207.149 74.1947C207.154 74.1763 207.16 74.1464 207.16 74.1281C207.16 74.1094 207.156 74.0838 207.151 74.0704C207.144 74.0541 207.115 74.021 207.063 73.9671C207.019 73.9229 206.95 73.8533 206.907 73.8111C206.864 73.769 206.797 73.7051 206.759 73.6689C206.721 73.6326 206.651 73.568 206.604 73.5253C206.557 73.4826 206.47 73.4059 206.41 73.3547C206.351 73.3035 206.255 73.2229 206.198 73.1759C206.14 73.1285 206.037 73.046 205.969 72.9928L205.845 72.8953L204.654 72.232ZM211.169 75.8525L210.915 75.7112L208.23 75.9514L205.545 76.1914L205.3 76.5864C205.165 76.8036 205.042 77.0029 205.025 77.0293L204.995 77.0774L203.649 77.1412L202.303 77.2051L202.288 77.1717C202.28 77.1533 202.253 77.0975 202.228 77.0475C202.203 76.9976 202.15 76.904 202.111 76.8395C202.071 76.7751 202.021 76.6971 202 76.6663C201.978 76.6355 201.935 76.5773 201.905 76.5371C201.874 76.4969 201.825 76.4349 201.795 76.3993C201.765 76.3637 201.715 76.3066 201.684 76.2724C201.652 76.2381 201.603 76.1863 201.574 76.1571C201.546 76.1279 201.495 76.0777 201.46 76.0454C201.426 76.0132 201.374 75.9651 201.344 75.9385C201.314 75.9119 201.253 75.8603 201.208 75.8237C201.163 75.7872 201.1 75.7371 201.067 75.7125C201.035 75.6879 200.972 75.6419 200.928 75.6104C200.883 75.5788 200.804 75.5254 200.753 75.4917C200.701 75.458 200.591 75.3911 200.508 75.343C200.419 75.2913 200.304 75.2286 200.227 75.1896C200.155 75.1534 200.054 75.1046 200.003 75.0813C199.952 75.058 199.86 75.0177 199.798 74.9916C199.737 74.9656 199.647 74.9294 199.599 74.9111C199.551 74.8928 199.465 74.8613 199.408 74.841C199.35 74.8208 199.253 74.7885 199.192 74.7693C199.131 74.7501 199.036 74.7213 198.98 74.7053C198.924 74.6893 198.818 74.661 198.744 74.6425C198.67 74.624 198.56 74.5982 198.5 74.5852C198.441 74.5722 198.336 74.551 198.268 74.5382C198.2 74.5253 198.063 74.5026 197.963 74.4877C197.863 74.4728 197.727 74.4545 197.659 74.447C197.592 74.4395 197.488 74.4291 197.427 74.4238C197.366 74.4185 197.253 74.4104 197.176 74.4059C197.098 74.4013 196.976 74.396 196.903 74.394C196.831 74.392 196.722 74.3904 196.662 74.3903C196.602 74.3902 196.492 74.3914 196.418 74.3929C196.343 74.3944 196.163 74.4039 196.017 74.4138C195.871 74.4238 195.696 74.4381 195.63 74.4456C195.563 74.4532 195.451 74.4671 195.382 74.4767C195.313 74.4862 195.197 74.5039 195.124 74.516C195.05 74.5281 194.93 74.55 194.856 74.5647C194.782 74.5795 194.672 74.6026 194.612 74.6162C194.552 74.6298 194.45 74.6544 194.384 74.671C194.319 74.6876 194.186 74.7243 194.089 74.7526C193.992 74.7809 193.859 74.8221 193.794 74.8441C193.728 74.8661 193.628 74.9013 193.57 74.9223C193.513 74.9433 193.408 74.9838 193.337 75.0123C193.266 75.0407 193.169 75.0813 193.12 75.1023C193.072 75.1235 192.981 75.165 192.918 75.1947C192.856 75.2244 192.76 75.2714 192.706 75.2993C192.652 75.3272 192.571 75.3701 192.526 75.3948C192.481 75.4194 192.398 75.4668 192.342 75.5001C192.286 75.5333 192.199 75.5866 192.149 75.6184C192.099 75.6503 192.011 75.7085 191.954 75.7478C191.897 75.7872 191.807 75.8512 191.755 75.8902C191.704 75.9292 191.619 75.9958 191.567 76.0382C191.515 76.0806 191.439 76.1453 191.398 76.182C191.357 76.2186 191.288 76.282 191.246 76.3229C191.203 76.3637 191.143 76.4237 191.112 76.4561C191.081 76.4885 191.027 76.5466 190.992 76.5854C190.958 76.624 190.9 76.6922 190.864 76.7367C190.828 76.7813 190.778 76.8456 190.753 76.8795C190.728 76.9134 190.68 76.9817 190.647 77.0312C190.614 77.0807 190.568 77.1538 190.544 77.1936C190.521 77.2334 190.482 77.303 190.458 77.3481C190.434 77.3933 190.391 77.4843 190.362 77.5505C190.333 77.6166 190.296 77.7069 190.281 77.7512C190.265 77.7955 190.243 77.8646 190.231 77.9048C190.219 77.9451 190.2 78.0186 190.188 78.0681C190.177 78.1177 190.161 78.1979 190.153 78.2465C190.146 78.295 190.136 78.372 190.132 78.4176C190.128 78.4632 190.123 78.5364 190.121 78.5802C190.12 78.624 190.124 78.7374 190.13 78.8323C190.137 78.9271 190.149 79.0438 190.158 79.0915C190.167 79.1392 190.181 79.2096 190.19 79.248C190.199 79.2864 190.218 79.3559 190.232 79.4025C190.246 79.4491 190.275 79.5313 190.295 79.5853C190.316 79.6392 190.348 79.7162 190.367 79.7564C190.386 79.7966 190.415 79.8572 190.433 79.891C190.45 79.9249 190.496 80.003 190.533 80.0646C190.571 80.1261 190.626 80.2105 190.656 80.2519C190.686 80.2934 190.734 80.357 190.762 80.3932C190.791 80.4295 190.845 80.4929 190.881 80.5343C190.918 80.5757 190.974 80.6368 191.007 80.6702C191.039 80.7036 191.1 80.7631 191.141 80.8024C191.183 80.8417 191.254 80.9052 191.299 80.9435C191.345 80.9819 191.414 81.038 191.453 81.0683C191.492 81.0985 191.547 81.14 191.575 81.1605C191.604 81.1809 191.658 81.2196 191.697 81.2464C191.736 81.2732 191.799 81.315 191.837 81.3392C191.874 81.3635 191.973 81.4227 192.055 81.4709C192.147 81.5241 192.259 81.5853 192.342 81.627C192.417 81.6648 192.53 81.7191 192.593 81.7477C192.656 81.7763 192.747 81.816 192.795 81.8359C192.844 81.8559 192.937 81.8926 193.002 81.9176C193.068 81.9425 193.177 81.9818 193.245 82.0046C193.313 82.0276 193.402 82.0561 193.441 82.0681C193.48 82.08 193.553 82.1012 193.602 82.1151C193.65 82.1291 193.736 82.1522 193.792 82.1664C193.847 82.1807 193.954 82.2059 194.028 82.2224C194.103 82.2389 194.215 82.2623 194.279 82.2744C194.342 82.2866 194.452 82.3057 194.524 82.3169C194.596 82.3281 194.703 82.3437 194.762 82.3516C194.822 82.3595 194.917 82.3708 194.974 82.3769C195.031 82.3829 195.135 82.3924 195.204 82.398C195.274 82.4037 195.39 82.4112 195.462 82.4149C195.535 82.4185 195.64 82.4226 195.696 82.4238C195.752 82.4252 195.855 82.4263 195.926 82.4263C195.996 82.4264 196.106 82.4252 196.17 82.4238C196.234 82.4223 196.408 82.4127 196.557 82.4025C196.706 82.3924 196.889 82.3769 196.964 82.3681C197.039 82.3594 197.156 82.3444 197.224 82.3348C197.291 82.3253 197.405 82.3076 197.478 82.2954C197.55 82.2832 197.67 82.2608 197.745 82.2456C197.82 82.2304 197.933 82.206 197.996 82.1913C198.059 82.1766 198.154 82.1536 198.207 82.1401C198.26 82.1266 198.383 82.0924 198.48 82.0641C198.577 82.0357 198.71 81.9946 198.775 81.9725C198.841 81.9506 198.941 81.9154 198.999 81.8943C199.056 81.8734 199.161 81.8329 199.232 81.8044C199.303 81.776 199.399 81.736 199.446 81.7155C199.492 81.6951 199.578 81.6561 199.636 81.6287C199.694 81.6014 199.772 81.5636 199.809 81.5447C199.847 81.5259 199.91 81.4932 199.95 81.4722C199.99 81.4512 200.063 81.4108 200.113 81.3824C200.163 81.354 200.234 81.3125 200.271 81.2901C200.309 81.2678 200.375 81.2264 200.42 81.1982C200.465 81.1701 200.558 81.1081 200.627 81.0605C200.703 81.0083 200.806 80.9321 200.888 80.8685C200.962 80.8105 201.061 80.73 201.107 80.6897C201.154 80.6493 201.224 80.5857 201.264 80.5483C201.304 80.5109 201.365 80.4525 201.398 80.4183C201.432 80.3842 201.483 80.3312 201.512 80.3006C201.54 80.2701 201.586 80.2189 201.614 80.1869C201.642 80.1548 201.689 80.0986 201.719 80.0619C201.749 80.0252 201.791 79.9712 201.813 79.942C201.835 79.9128 201.878 79.8539 201.908 79.8111C201.938 79.7683 201.986 79.6971 202.013 79.6529C202.041 79.6087 202.083 79.5375 202.108 79.4947C202.132 79.452 202.166 79.3895 202.183 79.356C202.2 79.3225 202.233 79.2517 202.257 79.1988C202.281 79.1458 202.315 79.0643 202.332 79.0177C202.349 78.971 202.374 78.8985 202.387 78.8566L202.411 78.7804L203.798 78.6852L205.185 78.59L205.472 78.9666L205.759 79.3432L208.476 79.157C210.585 79.0124 211.204 78.9684 211.241 78.9598C211.267 78.9538 211.307 78.9414 211.33 78.9324C211.361 78.9196 211.386 78.9049 211.438 78.868C211.495 78.8275 211.509 78.815 211.533 78.7859C211.548 78.767 211.568 78.734 211.577 78.7126C211.587 78.6912 211.597 78.6571 211.6 78.6368C211.603 78.6165 211.603 78.5859 211.6 78.5688C211.598 78.5516 211.589 78.5234 211.58 78.506C211.572 78.4886 211.557 78.4644 211.547 78.4521C211.537 78.4398 211.341 78.2292 211.111 77.9841C210.881 77.7389 210.684 77.5319 210.674 77.5239C210.663 77.5159 210.647 77.4981 210.639 77.4843C210.629 77.4695 210.622 77.4414 210.62 77.4153C210.618 77.3911 210.62 77.3554 210.623 77.3359C210.627 77.3163 210.639 77.2779 210.648 77.2504L210.666 77.2005L211.03 76.6872C211.23 76.4049 211.399 76.1606 211.407 76.1445C211.414 76.1283 211.423 76.0988 211.426 76.0789C211.428 76.0591 211.429 76.0318 211.427 76.0183L211.423 75.9937L211.169 75.8525ZM198.809 76.5659C198.896 76.6159 198.996 76.6764 199.035 76.703C199.073 76.7291 199.127 76.7673 199.154 76.7878C199.182 76.8082 199.236 76.8523 199.276 76.8857C199.315 76.9191 199.378 76.9782 199.416 77.0171C199.454 77.056 199.5 77.1059 199.518 77.1279C199.536 77.1499 199.57 77.1928 199.592 77.2232C199.615 77.2535 199.648 77.3002 199.665 77.3268C199.682 77.3534 199.697 77.3766 199.697 77.3784C199.697 77.3801 198.903 77.4361 197.932 77.5028C196.961 77.5695 196.138 77.6282 196.101 77.6333C196.065 77.6383 196.005 77.6484 195.968 77.6557C195.932 77.6629 195.863 77.6801 195.816 77.6939C195.77 77.7076 195.702 77.7309 195.666 77.7457C195.63 77.7603 195.58 77.7828 195.556 77.7956C195.531 77.8083 195.49 77.8315 195.464 77.8471C195.439 77.8627 195.4 77.8886 195.379 77.9048C195.357 77.9209 195.323 77.9494 195.303 77.9681C195.283 77.9867 195.254 78.0165 195.238 78.0341C195.222 78.0518 195.195 78.0869 195.178 78.1121C195.161 78.1373 195.135 78.184 195.121 78.2159C195.107 78.2478 195.091 78.294 195.085 78.3187C195.08 78.3433 195.073 78.3819 195.071 78.4043C195.07 78.4268 195.071 78.4739 195.074 78.5089C195.077 78.5438 195.086 78.5906 195.092 78.6127C195.099 78.6348 195.112 78.6695 195.121 78.6898C195.13 78.7102 195.15 78.7458 195.164 78.769C195.179 78.7921 195.206 78.8271 195.223 78.8466C195.24 78.8662 195.271 78.8966 195.291 78.9143C195.311 78.9319 195.347 78.9602 195.371 78.9772C195.395 78.9941 195.433 79.0185 195.456 79.0312C195.479 79.0439 195.521 79.0641 195.548 79.076C195.576 79.088 195.619 79.1054 195.646 79.1146C195.672 79.1239 195.724 79.1394 195.762 79.149C195.799 79.1586 195.863 79.1716 195.903 79.1779C195.943 79.1842 196.007 79.192 196.046 79.1952C196.086 79.1984 196.149 79.201 196.187 79.2011C196.226 79.2011 197.054 79.1467 198.027 79.0802C199.001 79.0137 199.799 78.9604 199.802 78.962C199.805 78.9635 199.792 78.9951 199.774 79.0323C199.756 79.0694 199.729 79.1214 199.714 79.1478C199.699 79.1742 199.675 79.215 199.661 79.2384C199.646 79.2618 199.608 79.3167 199.576 79.3604C199.543 79.404 199.489 79.4712 199.455 79.5097C199.42 79.5481 199.365 79.6062 199.331 79.6388C199.297 79.6714 199.246 79.7198 199.216 79.7465C199.184 79.7756 199.096 79.8444 198.996 79.9192C198.875 80.0101 198.808 80.0576 198.746 80.0958C198.699 80.1246 198.628 80.1674 198.587 80.1908C198.546 80.2143 198.479 80.2506 198.439 80.2715C198.4 80.2923 198.319 80.3317 198.261 80.3589C198.203 80.3861 198.106 80.4284 198.045 80.4528C197.985 80.4773 197.889 80.5136 197.833 80.5334C197.777 80.5532 197.67 80.5873 197.596 80.6091C197.522 80.6309 197.42 80.6591 197.368 80.6717C197.316 80.6844 197.228 80.7043 197.172 80.7159C197.115 80.7276 197.012 80.7463 196.943 80.7575C196.874 80.7687 196.769 80.7835 196.71 80.7904C196.651 80.7974 196.531 80.808 196.444 80.814C196.356 80.8199 196.238 80.8256 196.181 80.8266C196.124 80.8277 196.021 80.8271 195.95 80.8254C195.88 80.8237 195.776 80.8192 195.719 80.8153C195.661 80.8115 195.571 80.8038 195.518 80.7983C195.465 80.7928 195.359 80.7788 195.283 80.7673C195.207 80.7557 195.097 80.7365 195.039 80.7245C194.98 80.7125 194.881 80.6896 194.817 80.6736C194.754 80.6576 194.652 80.6289 194.591 80.6099C194.529 80.5908 194.445 80.5628 194.402 80.5476C194.36 80.5323 194.289 80.5054 194.245 80.4877C194.202 80.47 194.126 80.4378 194.078 80.4162C194.03 80.3945 193.934 80.3468 193.864 80.3103C193.79 80.2711 193.7 80.2198 193.645 80.1853C193.594 80.1531 193.517 80.1015 193.474 80.0707C193.431 80.0399 193.36 79.9856 193.316 79.9501C193.273 79.9145 193.216 79.8654 193.19 79.8409C193.164 79.8163 193.126 79.7783 193.104 79.7564C193.083 79.7345 193.046 79.6953 193.023 79.6692C193 79.6432 192.957 79.591 192.928 79.5532C192.899 79.5154 192.849 79.4419 192.817 79.3899C192.785 79.3379 192.744 79.2613 192.724 79.2197C192.705 79.1781 192.682 79.1256 192.674 79.1031C192.665 79.0805 192.648 79.0257 192.635 78.9813C192.622 78.9368 192.605 78.8693 192.598 78.8313C192.591 78.7932 192.582 78.7169 192.578 78.6617C192.574 78.6065 192.573 78.5297 192.575 78.491C192.576 78.4523 192.584 78.3831 192.59 78.3373C192.597 78.2914 192.61 78.2229 192.62 78.1851C192.629 78.1473 192.647 78.0878 192.658 78.053C192.67 78.0182 192.698 77.9484 192.72 77.898C192.743 77.8475 192.779 77.7744 192.801 77.7355C192.823 77.6966 192.864 77.6302 192.892 77.5879C192.921 77.5456 192.971 77.4773 193.004 77.436C193.037 77.3948 193.085 77.3377 193.111 77.3091C193.138 77.2806 193.182 77.2337 193.211 77.2049C193.239 77.1761 193.295 77.1231 193.335 77.0872C193.388 77.0383 193.448 76.9907 193.57 76.899C193.692 76.8074 193.756 76.7623 193.823 76.7207C193.872 76.6901 193.945 76.6467 193.985 76.6241C194.024 76.6016 194.09 76.566 194.129 76.5451C194.169 76.5243 194.249 76.4849 194.308 76.4576C194.366 76.4304 194.463 76.3881 194.524 76.3636C194.584 76.3391 194.68 76.3029 194.736 76.2831C194.792 76.2634 194.899 76.2293 194.972 76.2075C195.046 76.1857 195.149 76.1574 195.2 76.1448C195.252 76.1321 195.34 76.1123 195.397 76.1006C195.453 76.089 195.556 76.0703 195.625 76.0591C195.695 76.0479 195.797 76.0332 195.854 76.0265C195.91 76.0198 196.03 76.0092 196.12 76.003C196.211 75.9968 196.339 75.991 196.405 75.9901C196.471 75.9893 196.571 75.9897 196.627 75.9911C196.683 75.9926 196.765 75.996 196.81 75.9986C196.854 76.0013 196.937 76.0076 196.993 76.0127C197.048 76.0178 197.16 76.0313 197.241 76.0429C197.322 76.0544 197.443 76.0748 197.509 76.0883C197.576 76.1016 197.675 76.1237 197.729 76.1372C197.783 76.1507 197.869 76.174 197.92 76.189C197.97 76.204 198.043 76.2266 198.081 76.2392C198.118 76.2519 198.195 76.2796 198.251 76.3009C198.307 76.3221 198.389 76.3554 198.433 76.3748C198.478 76.3941 198.545 76.4249 198.583 76.4431C198.621 76.4613 198.723 76.5167 198.809 76.5659Z" fill="#7DB834"/>
<path opacity="0.5" d="M80.2699 74.794C80.2084 77.1361 86.3648 79.2019 94.0167 79.3966C101.669 79.5912 107.934 77.8539 107.992 75.502C108.054 73.16 101.897 71.0941 94.2454 70.8994C86.5935 70.7048 80.3313 72.452 80.2699 74.794Z" fill="#32589D"/>
<path d="M95.2318 61.5201L94.4585 59.3799L93.5438 58.2711L93.5627 59.4264L95.2318 61.5201Z" fill="#C6C6C6"/>
<path d="M72.5733 69.2517L71.803 67.1547C71.803 67.1547 74.1792 68.3745 74.1919 68.4143C74.2146 68.4508 72.5733 69.2517 72.5733 69.2517Z" fill="#FFD85A"/>
<path d="M86.1501 71.8596C92.3986 69.6891 96.3676 64.8876 94.4604 59.3769C92.5532 53.8661 85.9418 51.1693 79.6934 53.3399C73.445 55.5104 69.9308 61.7322 71.838 67.243C73.7452 72.7537 79.9017 74.0302 86.1501 71.8596Z" fill="#FFD85A"/>
<path d="M87.392 75.4275C93.6405 73.2569 97.1547 67.0351 95.2475 61.5242C93.3403 56.0134 86.7288 53.3165 80.4803 55.4871C74.2318 57.6577 70.7176 63.8796 72.6248 69.3905C74.5288 74.8914 81.1435 77.5981 87.392 75.4275Z" fill="#FFD85A"/>
<path d="M89.5638 55.6605C92.1989 56.7642 94.2974 58.796 95.2381 61.5282C97.1454 67.0391 93.6311 73.261 87.3826 75.4315C84.2915 76.5007 81.116 76.3811 78.4539 75.3299L89.5638 55.6605Z" fill="#C6C6C6"/>
<path d="M73.1349 69.1983C71.31 63.936 74.6681 57.9882 80.6355 55.9136C86.6028 53.8391 92.9197 56.4233 94.7446 61.6857C96.5695 66.948 93.2113 72.8958 87.244 74.9703C81.2766 77.0449 74.9598 74.4607 73.1349 69.1983Z" fill="#F9BF30"/>
<path d="M86.582 73.1026C91.368 71.4344 94.0751 66.6657 92.6012 62.4397C91.1373 58.2106 86.0637 56.1372 81.2678 57.8085C76.4719 59.4798 73.7747 64.2454 75.2486 68.4713C76.7193 72.6874 81.7929 74.7608 86.582 73.1026Z" fill="#F2B42A"/>
<path d="M75.2494 68.4724C75.1922 68.2936 75.1381 68.1248 75.0908 67.9429C76.7703 71.8175 81.6251 73.6541 86.2148 72.06C90.8045 70.4659 93.4679 66.0074 92.3919 61.9281C92.4659 62.0906 92.5331 62.2661 92.6003 62.4417C94.0641 66.6703 91.3672 71.4353 86.5817 73.1031C81.7931 74.7611 76.72 72.6879 75.2494 68.4724Z" fill="#FFD85A"/>
<path d="M82.4618 66.6391L83.721 64.4057C85.5756 64.2373 89.0236 63.9408 91.7936 63.7195C91.7709 65.8408 90.7182 67.9313 88.9496 69.4302L82.4618 66.6391Z" fill="#FFD85A"/>
<path d="M86.8792 70.7404C86.6003 70.8628 86.3214 70.9852 86.0329 71.0778C83.9402 71.8045 81.7912 71.7388 79.9737 71.0298L82.0297 67.3795L86.8792 70.7404Z" fill="#FFD85A"/>
<path d="M85.0684 62.0096L87.4482 57.7954C88.9001 58.4245 90.2644 59.1913 91.0104 60.5618L85.0684 62.0096Z" fill="#FFD85A"/>
<path d="M82.0294 58.5818C77.2437 60.2498 74.5367 65.0182 76.0105 69.244C76.3071 70.1017 76.7501 70.8685 77.3133 71.5311C76.3921 70.7096 75.6782 69.6792 75.2572 68.4672C73.7933 64.2383 76.4904 59.473 81.2761 57.805C85.0966 56.4797 89.0961 57.5286 91.2962 60.152C89.0064 58.1051 85.4421 57.3874 82.0294 58.5818Z" fill="#C6C6C6"/>
<path d="M94.4584 59.379C94.7424 60.1972 95.0129 60.7677 95.062 61.6064C94.5524 60.8717 93.2258 58.6134 93.2258 58.6134L91.7399 56.9541L90.8227 56.5912L89.3127 56.09L88.3193 53.3304C91.1702 54.3871 93.4598 56.5005 94.4584 59.379Z" fill="#C6C6C6"/>
<path d="M72.3085 66.17L72.0742 65.6095C72.0488 65.53 71.9569 65.4827 71.8873 65.505L71.8475 65.5178C71.768 65.5433 71.7306 65.6321 71.7561 65.7116L71.9904 66.2721C72.0158 66.3516 72.1077 66.3988 72.1773 66.3765L72.2171 66.3637C72.2966 66.3382 72.3372 66.2594 72.3085 66.17Z" fill="#C6C6C6"/>
<path d="M72.6029 63.6652L72.2123 62.6507C72.1836 62.5613 72.0786 62.5073 71.9991 62.5328L71.8997 62.5647C71.8102 62.5934 71.7661 62.6953 71.7947 62.7848L72.1854 63.7992C72.2141 63.8887 72.319 63.9427 72.3986 63.9171L72.498 63.8852C72.5974 63.8533 72.6415 63.7514 72.6029 63.6652Z" fill="#C6C6C6"/>
<path d="M73.3807 61.3009L73.0028 60.3261C72.9678 60.2168 72.8528 60.166 72.7534 60.1979L72.5744 60.2554C72.475 60.2873 72.4241 60.4023 72.4592 60.5116L72.8371 61.4864C72.8721 61.5957 72.9871 61.6465 73.0865 61.6146L73.2654 61.5571C73.3649 61.5252 73.4157 61.4102 73.3807 61.3009Z" fill="#C6C6C6"/>
<path d="M74.9664 59.094L74.5184 57.9006C74.4834 57.7913 74.3684 57.7405 74.269 57.7724L74.0901 57.8299C73.9907 57.8618 73.9398 57.9768 73.9748 58.0861L74.4228 59.2795C74.4578 59.3889 74.5727 59.4396 74.6721 59.4077L74.8511 59.3502C74.9473 59.3084 74.9982 59.1934 74.9664 59.094Z" fill="#C6C6C6"/>
<path d="M76.7288 57.4105L76.2135 56.0414C76.1785 55.9321 76.0636 55.8813 75.9642 55.9132L75.7852 55.9706C75.6858 56.0026 75.6349 56.1175 75.6699 56.2269L76.1851 57.596C76.2202 57.7053 76.3351 57.7561 76.4345 57.7242L76.6135 57.6667C76.7196 57.6217 76.7606 57.5099 76.7288 57.4105Z" fill="#C6C6C6"/>
<path d="M78.63 56.1211L78.1307 54.8017C78.0957 54.6924 77.9807 54.6416 77.8813 54.6735L77.7023 54.731C77.6029 54.7629 77.552 54.8779 77.5871 54.9872L78.0863 56.3066C78.1213 56.416 78.2363 56.4667 78.3357 56.4348L78.5147 56.3774C78.6208 56.3323 78.6717 56.2173 78.63 56.1211Z" fill="#C6C6C6"/>
<path d="M80.6782 55.2228L80.1725 53.8835C80.1375 53.7742 80.0226 53.7234 79.9231 53.7554L79.7442 53.8128C79.6448 53.8447 79.5939 53.9597 79.6289 54.069L80.1345 55.4083C80.1696 55.5176 80.2845 55.5684 80.3839 55.5365L80.5629 55.4791C80.6623 55.4472 80.7132 55.3322 80.6782 55.2228Z" fill="#C6C6C6"/>
<path d="M82.803 54.596L82.326 53.3461C82.291 53.2368 82.176 53.186 82.0766 53.218L81.8977 53.2754C81.7982 53.3073 81.7474 53.4223 81.7824 53.5316L82.2594 54.7815C82.2944 54.8908 82.4093 54.9416 82.5087 54.9097L82.6877 54.8522C82.7939 54.8072 82.8448 54.6922 82.803 54.596Z" fill="#C6C6C6"/>
<path d="M85.0763 54.3701L84.6219 53.1568C84.5869 53.0475 84.472 52.9967 84.3725 53.0286L84.1936 53.0861C84.0942 53.118 84.0433 53.233 84.0783 53.3423L84.5326 54.5556C84.5677 54.6649 84.6826 54.7157 84.782 54.6838L84.961 54.6264C85.0703 54.5912 85.1113 54.4795 85.0763 54.3701Z" fill="#C6C6C6"/>
<path d="M87.5487 54.7273L87.0526 53.4178C87.0176 53.3085 86.9026 53.2577 86.8032 53.2896L86.6242 53.3471C86.5248 53.379 86.4739 53.494 86.5089 53.6033L87.0051 54.9128C87.0401 55.0221 87.155 55.0729 87.2544 55.041L87.4334 54.9835C87.5395 54.9385 87.5904 54.8235 87.5487 54.7273Z" fill="#C6C6C6"/>
</g>
<defs>
<linearGradient id="paint0_linear_208_2658" x1="169.479" y1="60.5335" x2="242.714" y2="119.312" gradientUnits="userSpaceOnUse">
<stop stop-color="#BCD5FF"/>
<stop offset="0.151" stop-color="#A3BEFF"/>
<stop offset="0.3866" stop-color="#82A0FF"/>
<stop offset="0.6124" stop-color="#6A8AFF"/>
<stop offset="0.8221" stop-color="#5C7DFF"/>
<stop offset="1" stop-color="#5778FF"/>
</linearGradient>
<linearGradient id="paint1_linear_208_2658" x1="155.627" y1="78.4459" x2="257.549" y2="46.5849" gradientUnits="userSpaceOnUse">
<stop stop-color="#C0D6FF"/>
<stop offset="0.2978" stop-color="#C5DBFF"/>
<stop offset="0.6488" stop-color="#D3E9FF"/>
<stop offset="1" stop-color="#E9FFFF"/>
</linearGradient>
<clipPath id="clip0_208_2658">
<rect width="279" height="193" fill="white"/>
</clipPath>
</defs>
</svg>
