<svg width="279" height="318" viewBox="0 0 279 318" fill="none" xmlns="http://www.w3.org/2000/svg">
<g clip-path="url(#clip0_208_2470)">
<g opacity="0.45">
<path d="M88.0022 194.486C88.1047 194.486 88.1979 194.459 88.2911 194.414L202.208 130.614C204.305 129.439 205.46 127.839 205.46 126.122C205.46 124.395 204.305 122.804 202.208 121.629L128.025 80.0841C126.301 79.1169 125.35 77.8695 125.35 76.5678C125.35 75.2661 126.301 74.0187 128.025 73.0515L253.636 2.69823C257.419 0.583022 263.579 0.583023 267.362 2.69823L309.49 26.2909C311.214 27.2582 312.165 28.5056 312.165 29.8073C312.165 31.1089 311.214 32.3564 309.49 33.3236L246.862 68.3962C244.765 69.5714 243.609 71.1713 243.609 72.8888C243.609 74.6153 244.765 76.2063 246.862 77.3814L340.502 129.828C344.611 132.124 351.283 132.133 355.393 129.828L417.574 95.0081C417.853 94.8544 417.947 94.5019 417.788 94.2398C417.63 93.9686 417.266 93.8782 416.996 94.0319L354.815 128.851C351.032 130.967 344.872 130.967 341.089 128.851L247.449 76.4051C245.725 75.4379 244.774 74.1905 244.774 72.8888C244.774 71.5871 245.725 70.3397 247.449 69.3725L310.077 34.2998C312.174 33.1247 313.329 31.5247 313.329 29.8073C313.329 28.0807 312.174 26.4898 310.077 25.3147L267.949 1.72198C263.849 -0.574012 257.158 -0.574013 253.058 1.72198L127.447 72.0753C125.35 73.2504 124.195 74.8503 124.195 76.5769C124.195 78.3034 125.35 79.8943 127.447 81.0694L201.63 122.614C203.354 123.581 204.305 124.829 204.305 126.131C204.305 127.432 203.354 128.68 201.63 129.647L87.7133 193.447C87.4338 193.6 87.3406 193.953 87.499 194.224C87.6015 194.387 87.7972 194.486 88.0022 194.486Z" fill="#7BD834"/>
<path d="M115.138 146.65C115.343 146.65 115.539 146.55 115.641 146.37C115.8 146.098 115.707 145.755 115.427 145.592L4.8554 83.6637C2.47921 82.3349 1.17463 80.5993 1.17463 78.7824C1.17463 76.9655 2.47921 75.2299 4.8554 73.9012L110.898 14.5036C116.023 11.6291 124.373 11.6291 129.498 14.5036L153.204 27.7824C153.483 27.936 153.837 27.8457 154.005 27.5745C154.163 27.3033 154.07 26.9598 153.791 26.7971L130.085 13.5183C124.634 10.463 115.772 10.463 110.321 13.5183L4.26834 72.9159C1.51942 74.4525 0.000513098 76.5406 0.000512903 78.7734C0.000512707 81.0151 1.51942 83.0942 4.26833 84.6399L114.84 146.569C114.943 146.623 115.045 146.65 115.138 146.65Z" fill="#7BD834"/>
<path d="M378.436 318C381.474 318 384.512 317.349 386.823 316.056L538.312 231.213C540.66 229.893 541.955 228.112 541.955 226.187C541.955 224.262 540.66 222.481 538.312 221.161L486.641 192.226C482.019 189.632 474.49 189.632 469.868 192.226L432.511 213.152C432.231 213.306 432.138 213.659 432.297 213.93C432.455 214.201 432.818 214.291 433.089 214.138L470.446 193.212C474.751 190.798 481.749 190.807 486.054 193.212L537.725 222.146C539.7 223.249 540.79 224.687 540.79 226.187C540.79 227.688 539.7 229.125 537.725 230.228L386.236 315.071C381.931 317.485 374.933 317.485 370.628 315.071L174.597 205.279C174.318 205.125 173.964 205.216 173.796 205.487C173.638 205.758 173.731 206.102 174.01 206.264L370.05 316.056C372.361 317.349 375.399 318 378.436 318Z" fill="#7BD834"/>
<path d="M366.5 248.677C369.538 248.677 372.576 248.026 374.887 246.734L405.628 229.514C405.907 229.36 406.001 229.008 405.842 228.736C405.684 228.465 405.32 228.375 405.05 228.529L374.309 245.748C370.004 248.162 363.006 248.162 358.701 245.748L229.762 173.533C227.787 172.43 226.697 170.993 226.697 169.492C226.697 167.992 227.787 166.555 229.762 165.452L267.865 144.11C272.17 141.696 279.168 141.696 283.473 144.11L358.123 185.917C362.745 188.511 370.274 188.511 374.896 185.917L479.196 127.505C483.501 125.091 490.499 125.091 494.805 127.505L606.131 189.858C606.411 190.012 606.765 189.921 606.923 189.65C607.081 189.379 606.988 189.036 606.709 188.882L495.364 126.528C490.742 123.934 483.212 123.934 478.591 126.528L374.29 184.941C369.985 187.354 362.987 187.354 358.682 184.941L284.033 143.134C279.411 140.539 271.881 140.539 267.26 143.134L229.157 164.476C226.809 165.795 225.513 167.576 225.513 169.502C225.513 171.427 226.809 173.208 229.157 174.527L358.114 246.734C360.424 248.026 363.462 248.677 366.5 248.677Z" fill="#7BD834"/>
<path d="M233.489 275.967C233.592 275.967 233.685 275.94 233.778 275.895L266.355 257.653C266.635 257.5 266.728 257.147 266.57 256.876C266.411 256.605 266.057 256.514 265.768 256.668L233.191 274.909C232.912 275.063 232.818 275.416 232.977 275.687C233.089 275.868 233.284 275.967 233.489 275.967Z" fill="#7BD834"/>
<path d="M322.555 75.2753C322.76 75.2753 322.955 75.1759 323.058 74.9951C323.216 74.7239 323.123 74.3804 322.843 74.2177L279.932 50.1911C279.653 50.0375 279.299 50.1278 279.131 50.399C278.973 50.6702 279.066 51.0137 279.345 51.1764L322.256 75.203C322.359 75.2482 322.452 75.2753 322.555 75.2753Z" fill="#C0EAA0"/>
<path d="M91.1433 62.1593L110.47 62.1593C110.796 62.1593 111.057 61.9062 111.057 61.5898L111.057 50.7697C111.057 50.4533 110.796 50.2002 110.47 50.2002L91.1433 50.2002C90.8172 50.2002 90.5562 50.4533 90.5562 50.7697L90.5562 61.5898C90.5562 61.9062 90.8172 62.1593 91.1433 62.1593ZM109.883 61.0203L91.7304 61.0203L91.7304 51.3301L109.883 51.3301L109.883 61.0203Z" fill="#7BD834"/>
<path d="M214.165 286.796L233.491 286.796C233.817 286.796 234.078 286.543 234.078 286.227L234.078 275.407C234.078 275.253 234.013 275.108 233.91 275.009C233.799 274.9 233.649 274.846 233.5 274.846L214.174 274.846C213.848 274.846 213.587 275.099 213.587 275.416L213.587 286.236C213.587 286.534 213.848 286.796 214.165 286.796ZM232.904 285.657L214.752 285.657L214.752 275.967L232.904 275.967L232.904 285.657Z" fill="#7BD834"/>
</g>
<path opacity="0.5" d="M211.469 245.521L255.141 220.324C256.092 219.781 255.966 218.821 254.88 218.195L242.046 210.798L194.938 237.967L207.772 245.365C208.869 246.001 210.519 246.074 211.469 245.521Z" fill="#32589D" fill-opacity="0.6"/>
<path d="M149.387 211.236V202.545L163.558 202.555L195.002 184.411C195.775 183.962 197.122 184.025 198.01 184.536L229.317 202.597L243.426 202.607V211.319H243.415C243.405 211.591 243.238 211.852 242.904 212.039L197.79 238.061C197.017 238.51 195.67 238.447 194.783 237.936L150.108 212.165C149.659 211.904 149.408 211.559 149.387 211.236Z" fill="url(#paint0_linear_208_2470)"/>
<path d="M197.8 229.37L242.913 203.348C243.686 202.899 243.592 202.127 242.694 201.616L198.019 175.844C197.131 175.333 195.784 175.271 195.011 175.719L149.898 201.741C149.125 202.19 149.219 202.962 150.117 203.473L194.792 229.245C195.68 229.756 197.027 229.819 197.8 229.37Z" fill="url(#paint1_linear_208_2470)"/>
<path d="M197.643 226.323L237.629 203.254C238.308 202.858 238.224 202.169 237.441 201.71L197.841 178.87C197.048 178.411 195.857 178.369 195.168 178.755L155.182 201.825C154.503 202.221 154.587 202.91 155.37 203.369L194.97 226.208C195.763 226.667 196.964 226.72 197.643 226.323Z" fill="#32589D"/>
<path d="M198.073 224.853L234.812 203.662C235.438 203.297 235.365 202.671 234.634 202.243L198.251 181.261C197.53 180.843 196.423 180.802 195.797 181.156L159.059 202.348C158.432 202.713 158.505 203.339 159.236 203.767L195.619 224.749C196.35 225.166 197.447 225.208 198.073 224.853Z" fill="#102140"/>
<path d="M204.654 197.232L203.459 196.567L203.326 196.515C203.253 196.487 203.148 196.448 203.093 196.428C203.038 196.408 202.929 196.369 202.852 196.343C202.775 196.317 202.601 196.26 202.465 196.218C202.329 196.175 202.152 196.121 202.072 196.098C201.991 196.074 201.862 196.038 201.784 196.016C201.707 195.995 201.585 195.963 201.512 195.945C201.44 195.926 201.314 195.895 201.233 195.876C201.151 195.857 201.04 195.831 200.985 195.819C200.929 195.807 200.815 195.783 200.73 195.765C200.644 195.748 200.504 195.72 200.417 195.704C200.33 195.688 200.186 195.663 200.098 195.648C200.009 195.633 199.837 195.607 199.716 195.589C199.595 195.572 199.431 195.55 199.352 195.54C199.274 195.53 199.138 195.515 199.05 195.505C198.963 195.496 198.824 195.482 198.741 195.475C198.658 195.467 198.52 195.456 198.435 195.45C198.349 195.444 198.241 195.436 198.194 195.433C198.147 195.43 198.029 195.424 197.931 195.42C197.834 195.415 197.665 195.409 197.556 195.406C197.448 195.403 197.304 195.401 197.236 195.4C197.169 195.399 197.049 195.399 196.969 195.399C196.889 195.4 196.769 195.401 196.702 195.402C196.636 195.403 196.52 195.406 196.444 195.409C196.369 195.411 196.223 195.417 196.12 195.422C196.017 195.427 195.808 195.44 195.656 195.451C195.504 195.461 195.305 195.478 195.214 195.487C195.123 195.495 194.983 195.51 194.903 195.519C194.823 195.528 194.689 195.544 194.605 195.555C194.521 195.566 194.392 195.583 194.319 195.594C194.245 195.604 194.111 195.625 194.021 195.639C193.93 195.654 193.788 195.678 193.705 195.692C193.622 195.707 193.459 195.738 193.342 195.761C193.226 195.784 193.061 195.818 192.976 195.837C192.891 195.856 192.766 195.884 192.699 195.9C192.632 195.916 192.527 195.941 192.466 195.957C192.404 195.972 192.295 196 192.222 196.02C192.15 196.039 191.991 196.083 191.87 196.118C191.749 196.153 191.585 196.202 191.507 196.226C191.429 196.251 191.308 196.29 191.239 196.312C191.17 196.335 191.045 196.378 190.961 196.408C190.877 196.437 190.744 196.485 190.666 196.514C190.587 196.543 190.444 196.599 190.347 196.638C190.249 196.676 190.098 196.738 190.011 196.776C189.923 196.813 189.791 196.871 189.717 196.904C189.643 196.937 189.519 196.995 189.442 197.031C189.365 197.068 189.242 197.128 189.169 197.165C189.095 197.202 188.989 197.257 188.932 197.286C188.876 197.316 188.778 197.369 188.715 197.403C188.652 197.438 188.541 197.501 188.468 197.543C188.395 197.585 188.272 197.658 188.196 197.704C188.119 197.751 188.003 197.823 187.938 197.865C187.873 197.907 187.78 197.967 187.731 198C187.671 198.04 187.484 198.179 187.154 198.428L186.666 198.797L186.562 198.89C186.504 198.941 186.422 199.015 186.378 199.056C186.334 199.096 186.256 199.169 186.205 199.218C186.154 199.268 186.072 199.348 186.024 199.397C185.975 199.447 185.895 199.53 185.846 199.583C185.797 199.636 185.722 199.719 185.68 199.767C185.637 199.816 185.566 199.899 185.522 199.952C185.478 200.005 185.405 200.097 185.359 200.156C185.313 200.215 185.244 200.306 185.205 200.359C185.167 200.412 185.092 200.52 185.04 200.599C184.987 200.677 184.908 200.802 184.863 200.876C184.818 200.951 184.751 201.068 184.714 201.136C184.676 201.205 184.626 201.301 184.601 201.35C184.577 201.4 184.533 201.491 184.505 201.553C184.476 201.614 184.435 201.708 184.414 201.761C184.392 201.813 184.36 201.894 184.343 201.941C184.325 201.987 184.3 202.058 184.286 202.099C184.272 202.139 184.247 202.214 184.23 202.267C184.214 202.319 184.189 202.403 184.176 202.453C184.162 202.503 184.138 202.594 184.124 202.656C184.11 202.717 184.092 202.796 184.085 202.83C184.078 202.864 184.067 202.923 184.06 202.96C184.053 202.998 184.041 203.08 184.031 203.143C184.023 203.206 184.011 203.301 184.005 203.354C184 203.407 183.992 203.502 183.988 203.564C183.984 203.626 183.98 203.724 183.979 203.781C183.978 203.839 183.977 203.928 183.978 203.98C183.979 204.031 183.984 204.15 183.991 204.243C183.997 204.336 184.007 204.457 184.014 204.512C184.021 204.566 184.033 204.656 184.042 204.711C184.051 204.766 184.067 204.857 184.078 204.914C184.09 204.971 184.11 205.066 184.125 205.125C184.139 205.185 184.168 205.292 184.189 205.364C184.209 205.435 184.242 205.54 184.262 205.598C184.282 205.655 184.315 205.747 184.336 205.802C184.357 205.857 184.389 205.936 184.407 205.978C184.425 206.021 184.465 206.109 184.496 206.175C184.526 206.241 184.576 206.342 184.607 206.401C184.638 206.459 184.69 206.555 184.723 206.613C184.756 206.671 184.817 206.772 184.858 206.837C184.899 206.902 184.958 206.992 184.989 207.038C185.02 207.083 185.072 207.156 185.104 207.2C185.136 207.244 185.196 207.323 185.236 207.374C185.276 207.426 185.339 207.505 185.376 207.549C185.413 207.594 185.469 207.659 185.499 207.694C185.53 207.729 185.598 207.804 185.652 207.862C185.705 207.919 185.786 208.004 185.832 208.049C185.877 208.095 185.967 208.181 186.031 208.241C186.095 208.302 186.191 208.388 186.243 208.434C186.296 208.479 186.369 208.542 186.405 208.572C186.442 208.603 186.505 208.654 186.546 208.687C186.587 208.719 186.661 208.776 186.71 208.814C186.759 208.851 186.822 208.898 186.85 208.919C186.878 208.939 186.928 208.976 186.961 208.999C186.995 209.023 187.062 209.07 187.111 209.104C187.16 209.137 187.246 209.195 187.301 209.231C187.389 209.29 187.468 209.335 187.974 209.617L188.548 209.936L188.694 210.003C188.775 210.041 188.899 210.097 188.97 210.128C189.042 210.16 189.16 210.21 189.232 210.241C189.305 210.271 189.414 210.315 189.474 210.339C189.534 210.363 189.642 210.404 189.714 210.431C189.787 210.458 189.906 210.501 189.98 210.527C190.054 210.553 190.185 210.597 190.271 210.625C190.356 210.653 190.5 210.698 190.589 210.725C190.679 210.751 190.824 210.793 190.912 210.817C191 210.842 191.139 210.878 191.22 210.899C191.301 210.919 191.419 210.948 191.483 210.963C191.546 210.978 191.659 211.003 191.732 211.019C191.806 211.035 191.915 211.058 191.975 211.07C192.034 211.082 192.141 211.103 192.212 211.116C192.282 211.129 192.396 211.149 192.465 211.161C192.534 211.173 192.657 211.193 192.739 211.205C192.821 211.218 192.967 211.239 193.063 211.252C193.159 211.264 193.311 211.283 193.401 211.293C193.491 211.304 193.652 211.32 193.759 211.33C193.866 211.34 194.024 211.353 194.11 211.359C194.196 211.366 194.304 211.373 194.351 211.376C194.398 211.379 194.51 211.384 194.601 211.389C194.692 211.393 194.869 211.399 194.995 211.402C195.121 211.405 195.306 211.408 195.407 211.408C195.508 211.409 195.643 211.408 195.706 211.407C195.77 211.406 195.853 211.405 195.89 211.404C195.928 211.403 196.039 211.399 196.136 211.396C196.234 211.393 196.421 211.384 196.552 211.377C196.683 211.369 196.872 211.357 196.972 211.348C197.073 211.34 197.214 211.328 197.285 211.321C197.356 211.314 197.477 211.302 197.554 211.293C197.631 211.285 197.748 211.271 197.813 211.263C197.879 211.255 198.011 211.237 198.106 211.224C198.201 211.211 198.364 211.186 198.468 211.17C198.573 211.153 198.731 211.127 198.822 211.11C198.912 211.094 199.086 211.061 199.208 211.037C199.331 211.012 199.478 210.982 199.536 210.969C199.593 210.956 199.704 210.931 199.781 210.913C199.859 210.895 199.991 210.863 200.075 210.842C200.159 210.82 200.281 210.789 200.345 210.772C200.41 210.755 200.57 210.71 200.701 210.672C200.832 210.634 200.989 210.587 201.05 210.568C201.111 210.549 201.223 210.513 201.3 210.488C201.377 210.463 201.491 210.424 201.553 210.403C201.616 210.381 201.724 210.343 201.794 210.317C201.865 210.292 201.989 210.245 202.07 210.214C202.151 210.183 202.282 210.132 202.361 210.1C202.44 210.067 202.566 210.015 202.64 209.984C202.714 209.952 202.832 209.9 202.903 209.868C202.974 209.836 203.1 209.778 203.184 209.739C203.268 209.699 203.389 209.641 203.452 209.61C203.516 209.579 203.626 209.523 203.696 209.487C203.766 209.45 203.888 209.386 203.966 209.343C204.044 209.3 204.16 209.235 204.225 209.198C204.289 209.161 204.381 209.106 204.43 209.077C204.478 209.048 204.552 209.003 204.595 208.976C204.637 208.95 204.717 208.899 204.774 208.862C204.861 208.806 204.955 208.736 205.411 208.392C205.874 208.042 205.954 207.98 206.013 207.927C206.05 207.892 206.107 207.84 206.139 207.81C206.172 207.78 206.226 207.729 206.26 207.697C206.293 207.664 206.351 207.608 206.387 207.572C206.423 207.536 206.478 207.48 206.509 207.447C206.54 207.415 206.602 207.347 206.648 207.296C206.694 207.245 206.759 207.172 206.792 207.132C206.826 207.093 206.886 207.019 206.926 206.969C206.967 206.919 207.031 206.835 207.069 206.784C207.107 206.732 207.172 206.641 207.213 206.581C207.253 206.521 207.309 206.435 207.337 206.391C207.365 206.347 207.393 206.297 207.401 206.281C207.409 206.264 207.417 206.232 207.419 206.209C207.422 206.187 207.419 206.152 207.414 206.133C207.408 206.114 207.397 206.088 207.389 206.074C207.381 206.06 207.365 206.039 207.354 206.028C207.343 206.016 207.319 205.996 207.3 205.982C207.278 205.966 207.253 205.952 207.223 205.94C207.198 205.93 207.159 205.917 207.135 205.912C207.112 205.906 207.073 205.9 207.049 205.898C207.024 205.895 206.975 205.896 206.938 205.899C206.902 205.901 206.463 205.933 205.964 205.968C205.311 206.013 205.042 206.034 205.005 206.042C204.977 206.048 204.937 206.061 204.915 206.07C204.893 206.079 204.854 206.1 204.828 206.115C204.803 206.131 204.756 206.163 204.726 206.186L204.67 206.228L204.65 206.269C204.639 206.292 204.613 206.337 204.594 206.37C204.574 206.402 204.536 206.458 204.51 206.495C204.483 206.531 204.444 206.582 204.424 206.607C204.403 206.632 204.364 206.677 204.336 206.708C204.309 206.739 204.261 206.791 204.23 206.824C204.199 206.856 204.146 206.909 204.112 206.942C204.078 206.974 204.015 207.034 203.971 207.074C203.927 207.114 203.853 207.179 203.808 207.218C203.757 207.262 203.639 207.353 203.503 207.455C203.381 207.546 203.237 207.651 203.181 207.688C203.126 207.725 203.039 207.782 202.988 207.815C202.937 207.848 202.85 207.903 202.795 207.937C202.74 207.971 202.651 208.024 202.597 208.055C202.544 208.087 202.448 208.141 202.386 208.176C202.323 208.21 202.227 208.262 202.171 208.291C202.116 208.32 202.028 208.366 201.975 208.392C201.921 208.419 201.82 208.468 201.749 208.501C201.678 208.535 201.581 208.58 201.533 208.601C201.485 208.622 201.388 208.665 201.317 208.695C201.246 208.725 201.13 208.773 201.059 208.801C200.988 208.829 200.879 208.871 200.816 208.895C200.754 208.918 200.651 208.955 200.587 208.978C200.523 209 200.412 209.038 200.339 209.062C200.266 209.086 200.152 209.123 200.085 209.144C200.018 209.164 199.876 209.206 199.769 209.236C199.662 209.266 199.517 209.306 199.445 209.324C199.374 209.342 199.252 209.372 199.175 209.39C199.097 209.408 198.976 209.436 198.906 209.451C198.835 209.466 198.71 209.492 198.629 209.508C198.547 209.524 198.406 209.549 198.316 209.565C198.225 209.581 198.078 209.605 197.989 209.618C197.9 209.632 197.753 209.652 197.664 209.663C197.574 209.675 197.438 209.691 197.36 209.699C197.283 209.707 197.125 209.722 197.009 209.733C196.893 209.743 196.712 209.756 196.606 209.761C196.5 209.767 196.366 209.774 196.307 209.776C196.249 209.778 196.154 209.781 196.097 209.782C196.04 209.784 195.933 209.786 195.86 209.786C195.787 209.787 195.672 209.787 195.606 209.786C195.539 209.786 195.431 209.784 195.366 209.782C195.3 209.781 195.2 209.778 195.142 209.776C195.085 209.774 194.97 209.768 194.887 209.763C194.804 209.759 194.683 209.751 194.617 209.746C194.552 209.741 194.428 209.73 194.342 209.722C194.256 209.714 194.114 209.7 194.027 209.689C193.939 209.679 193.773 209.658 193.658 209.641C193.542 209.624 193.389 209.601 193.316 209.588C193.243 209.576 193.132 209.556 193.068 209.544C193.005 209.532 192.905 209.512 192.846 209.5C192.788 209.488 192.691 209.468 192.632 209.454C192.572 209.441 192.449 209.412 192.359 209.39C192.268 209.367 192.138 209.333 192.069 209.315C192 209.296 191.903 209.268 191.852 209.254C191.802 209.239 191.711 209.211 191.65 209.192C191.588 209.173 191.489 209.141 191.429 209.121C191.369 209.101 191.258 209.062 191.181 209.034C191.104 209.007 190.994 208.965 190.935 208.942C190.876 208.92 190.77 208.877 190.701 208.848C190.631 208.82 190.524 208.773 190.462 208.746C190.4 208.718 190.301 208.672 190.242 208.644C190.183 208.617 190.072 208.562 189.996 208.524C189.908 208.479 189.764 208.401 189.608 208.312C189.471 208.234 189.325 208.148 189.283 208.121C189.242 208.095 189.167 208.046 189.117 208.013C189.067 207.98 188.98 207.921 188.924 207.881C188.868 207.842 188.785 207.783 188.74 207.749C188.696 207.716 188.613 207.653 188.557 207.608C188.5 207.564 188.416 207.495 188.37 207.456C188.323 207.417 188.253 207.356 188.213 207.321C188.173 207.285 188.104 207.222 188.059 207.179C188.015 207.136 187.954 207.077 187.924 207.046C187.895 207.016 187.839 206.958 187.801 206.916C187.762 206.875 187.698 206.803 187.658 206.757C187.619 206.711 187.568 206.65 187.545 206.622C187.522 206.594 187.473 206.531 187.437 206.483C187.4 206.434 187.35 206.366 187.326 206.331C187.302 206.296 187.256 206.228 187.224 206.178C187.191 206.129 187.138 206.041 187.104 205.983C187.07 205.925 187.019 205.832 186.989 205.775C186.96 205.719 186.922 205.642 186.905 205.605C186.888 205.568 186.862 205.51 186.847 205.476C186.832 205.442 186.802 205.367 186.78 205.309C186.758 205.251 186.728 205.17 186.714 205.128C186.701 205.086 186.678 205.013 186.664 204.965C186.65 204.918 186.627 204.832 186.613 204.773C186.599 204.715 186.578 204.621 186.568 204.563C186.557 204.505 186.541 204.411 186.533 204.355C186.525 204.299 186.513 204.171 186.506 204.071C186.5 203.971 186.495 203.833 186.496 203.765C186.497 203.696 186.5 203.592 186.504 203.534C186.508 203.476 186.515 203.392 186.519 203.347C186.524 203.301 186.535 203.219 186.543 203.164C186.552 203.109 186.565 203.031 186.573 202.991C186.58 202.951 186.595 202.88 186.606 202.835C186.616 202.789 186.636 202.711 186.65 202.661C186.663 202.611 186.686 202.533 186.7 202.487C186.715 202.442 186.74 202.366 186.758 202.318C186.775 202.269 186.815 202.166 186.848 202.088C186.88 202.01 186.927 201.905 186.952 201.854C186.977 201.803 187.013 201.731 187.032 201.694C187.052 201.657 187.088 201.591 187.112 201.547C187.137 201.504 187.177 201.435 187.201 201.395C187.226 201.355 187.282 201.267 187.327 201.199C187.372 201.132 187.441 201.033 187.48 200.98C187.519 200.927 187.583 200.844 187.622 200.794C187.662 200.745 187.722 200.672 187.757 200.631C187.791 200.591 187.857 200.517 187.903 200.466C187.949 200.415 188.023 200.336 188.067 200.29C188.112 200.243 188.181 200.174 188.221 200.134C188.261 200.095 188.334 200.025 188.385 199.979C188.435 199.932 188.513 199.862 188.558 199.822C188.603 199.783 188.671 199.724 188.708 199.692C188.746 199.66 188.881 199.554 189.009 199.456C189.155 199.344 189.286 199.247 189.364 199.193C189.432 199.147 189.546 199.071 189.617 199.024C189.689 198.978 189.79 198.914 189.842 198.882C189.895 198.85 189.982 198.798 190.035 198.766C190.089 198.735 190.185 198.681 190.249 198.645C190.312 198.61 190.416 198.554 190.48 198.521C190.544 198.488 190.642 198.438 190.699 198.41C190.755 198.382 190.844 198.339 190.896 198.315C190.947 198.29 191.024 198.255 191.067 198.236C191.11 198.216 191.208 198.173 191.285 198.14C191.362 198.107 191.497 198.052 191.583 198.017C191.67 197.983 191.788 197.937 191.845 197.916C191.902 197.895 191.995 197.861 192.051 197.841C192.108 197.821 192.204 197.788 192.265 197.767C192.326 197.747 192.434 197.712 192.504 197.69C192.575 197.668 192.724 197.623 192.836 197.591C192.948 197.559 193.109 197.515 193.195 197.493C193.28 197.471 193.429 197.435 193.526 197.412C193.622 197.39 193.771 197.357 193.856 197.339C193.942 197.321 194.075 197.295 194.152 197.28C194.228 197.266 194.38 197.24 194.488 197.222C194.596 197.205 194.747 197.181 194.823 197.171C194.899 197.16 195.024 197.144 195.101 197.134C195.178 197.125 195.305 197.111 195.384 197.103C195.463 197.095 195.615 197.081 195.722 197.072C195.83 197.063 196.016 197.051 196.136 197.045C196.256 197.039 196.417 197.032 196.493 197.03C196.569 197.027 196.7 197.025 196.785 197.024C196.87 197.023 196.986 197.023 197.044 197.023C197.101 197.024 197.224 197.026 197.317 197.028C197.411 197.03 197.558 197.036 197.646 197.04C197.733 197.044 197.876 197.052 197.963 197.058C198.05 197.064 198.214 197.078 198.328 197.088C198.441 197.099 198.6 197.116 198.681 197.125C198.762 197.135 198.906 197.154 199.001 197.168C199.096 197.182 199.224 197.201 199.285 197.211C199.346 197.221 199.458 197.241 199.533 197.255C199.609 197.269 199.731 197.293 199.805 197.308C199.878 197.323 200.005 197.351 200.086 197.369C200.168 197.388 200.299 197.42 200.378 197.44C200.457 197.46 200.595 197.497 200.684 197.523C200.773 197.548 200.909 197.588 200.985 197.612C201.062 197.636 201.185 197.676 201.26 197.702C201.334 197.727 201.447 197.767 201.51 197.79C201.573 197.813 201.674 197.851 201.734 197.875C201.794 197.899 201.892 197.939 201.953 197.964C202.013 197.989 202.113 198.033 202.175 198.06C202.237 198.088 202.337 198.134 202.397 198.163C202.458 198.191 202.579 198.252 202.666 198.296C202.76 198.344 202.894 198.418 202.993 198.475C203.086 198.528 203.198 198.595 203.242 198.623C203.287 198.651 203.374 198.708 203.437 198.75C203.5 198.791 203.607 198.865 203.676 198.913C203.744 198.961 203.845 199.033 203.9 199.073C203.954 199.114 204.059 199.192 204.132 199.248C204.205 199.303 204.311 199.385 204.368 199.43C204.427 199.476 204.489 199.521 204.511 199.533C204.533 199.545 204.575 199.566 204.604 199.579C204.634 199.592 204.682 199.611 204.711 199.62C204.74 199.63 204.788 199.641 204.818 199.646L204.871 199.653L205.789 199.59C206.488 199.542 206.719 199.524 206.755 199.516C206.781 199.51 206.825 199.496 206.851 199.485C206.878 199.474 206.92 199.452 206.946 199.437C206.976 199.418 207.005 199.397 207.03 199.374C207.051 199.355 207.076 199.329 207.086 199.316C207.096 199.303 207.113 199.278 207.123 199.261C207.13 199.242 207.143 199.213 207.149 199.195C207.154 199.176 207.16 199.146 207.16 199.128C207.16 199.109 207.156 199.084 207.151 199.07C207.144 199.054 207.115 199.021 207.063 198.967C207.019 198.923 206.95 198.853 206.907 198.811C206.864 198.769 206.797 198.705 206.759 198.669C206.721 198.633 206.651 198.568 206.604 198.525C206.557 198.483 206.47 198.406 206.41 198.355C206.351 198.303 206.255 198.223 206.198 198.176C206.14 198.128 206.037 198.046 205.969 197.993L205.845 197.895L204.654 197.232ZM211.169 200.852L210.915 200.711L208.23 200.951L205.545 201.191L205.3 201.586C205.165 201.803 205.042 202.003 205.025 202.029L204.995 202.077L203.649 202.141L202.303 202.205L202.288 202.172C202.28 202.153 202.253 202.097 202.228 202.047C202.203 201.997 202.15 201.904 202.111 201.839C202.071 201.775 202.021 201.697 202 201.666C201.978 201.635 201.935 201.577 201.905 201.537C201.874 201.497 201.825 201.435 201.795 201.399C201.765 201.364 201.715 201.306 201.684 201.272C201.652 201.238 201.603 201.186 201.574 201.157C201.546 201.128 201.495 201.078 201.46 201.045C201.426 201.013 201.374 200.965 201.344 200.938C201.314 200.912 201.253 200.86 201.208 200.824C201.163 200.787 201.1 200.737 201.067 200.712C201.035 200.688 200.972 200.642 200.928 200.61C200.883 200.579 200.804 200.525 200.753 200.492C200.701 200.458 200.591 200.391 200.508 200.343C200.419 200.291 200.304 200.228 200.227 200.19C200.155 200.153 200.054 200.105 200.003 200.081C199.952 200.058 199.86 200.018 199.798 199.992C199.737 199.965 199.647 199.929 199.599 199.911C199.551 199.893 199.465 199.861 199.408 199.841C199.35 199.821 199.253 199.788 199.192 199.769C199.131 199.75 199.036 199.721 198.98 199.705C198.924 199.689 198.818 199.661 198.744 199.642C198.67 199.624 198.56 199.598 198.5 199.585C198.441 199.572 198.336 199.551 198.268 199.538C198.2 199.525 198.063 199.502 197.963 199.488C197.863 199.473 197.727 199.454 197.659 199.447C197.592 199.439 197.488 199.429 197.427 199.424C197.366 199.418 197.253 199.41 197.176 199.406C197.098 199.401 196.976 199.396 196.903 199.394C196.831 199.392 196.722 199.39 196.662 199.39C196.602 199.39 196.492 199.391 196.418 199.393C196.343 199.394 196.163 199.404 196.017 199.414C195.871 199.424 195.696 199.438 195.63 199.445C195.563 199.453 195.451 199.467 195.382 199.477C195.313 199.486 195.197 199.504 195.124 199.516C195.05 199.528 194.93 199.55 194.856 199.565C194.782 199.579 194.672 199.602 194.612 199.616C194.552 199.63 194.45 199.654 194.384 199.671C194.319 199.687 194.186 199.724 194.089 199.752C193.992 199.781 193.859 199.822 193.794 199.844C193.728 199.866 193.628 199.901 193.57 199.922C193.513 199.943 193.408 199.984 193.337 200.012C193.266 200.041 193.169 200.081 193.12 200.102C193.072 200.123 192.981 200.165 192.918 200.195C192.856 200.224 192.76 200.271 192.706 200.299C192.652 200.327 192.571 200.37 192.526 200.395C192.481 200.419 192.398 200.467 192.342 200.5C192.286 200.533 192.199 200.587 192.149 200.618C192.099 200.65 192.011 200.708 191.954 200.748C191.897 200.787 191.807 200.851 191.755 200.89C191.704 200.929 191.619 200.996 191.567 201.038C191.515 201.081 191.439 201.145 191.398 201.182C191.357 201.218 191.288 201.282 191.246 201.323C191.203 201.364 191.143 201.424 191.112 201.456C191.081 201.488 191.027 201.547 190.992 201.585C190.958 201.624 190.9 201.692 190.864 201.737C190.828 201.781 190.778 201.845 190.753 201.879C190.728 201.913 190.68 201.982 190.647 202.031C190.614 202.081 190.568 202.154 190.544 202.193C190.521 202.233 190.482 202.303 190.458 202.348C190.434 202.393 190.391 202.484 190.362 202.55C190.333 202.616 190.296 202.707 190.281 202.751C190.265 202.795 190.243 202.865 190.231 202.905C190.219 202.945 190.2 203.018 190.188 203.068C190.177 203.118 190.161 203.198 190.153 203.246C190.146 203.295 190.136 203.372 190.132 203.418C190.128 203.463 190.123 203.536 190.121 203.58C190.12 203.624 190.124 203.737 190.13 203.832C190.137 203.927 190.149 204.044 190.158 204.091C190.167 204.139 190.181 204.209 190.19 204.248C190.199 204.286 190.218 204.356 190.232 204.402C190.246 204.449 190.275 204.531 190.295 204.585C190.316 204.639 190.348 204.716 190.367 204.756C190.386 204.796 190.415 204.857 190.433 204.891C190.45 204.925 190.496 205.003 190.533 205.064C190.571 205.126 190.626 205.21 190.656 205.252C190.686 205.293 190.734 205.357 190.762 205.393C190.791 205.429 190.845 205.493 190.881 205.534C190.918 205.576 190.974 205.637 191.007 205.67C191.039 205.704 191.1 205.763 191.141 205.802C191.183 205.842 191.254 205.905 191.299 205.943C191.345 205.982 191.414 206.038 191.453 206.068C191.492 206.098 191.547 206.14 191.575 206.16C191.604 206.181 191.658 206.22 191.697 206.246C191.736 206.273 191.799 206.315 191.837 206.339C191.874 206.363 191.973 206.423 192.055 206.471C192.147 206.524 192.259 206.585 192.342 206.627C192.417 206.665 192.53 206.719 192.593 206.748C192.656 206.776 192.747 206.816 192.795 206.836C192.844 206.856 192.937 206.892 193.002 206.917C193.068 206.942 193.177 206.982 193.245 207.005C193.313 207.027 193.402 207.056 193.441 207.068C193.48 207.08 193.553 207.101 193.602 207.115C193.65 207.129 193.736 207.152 193.792 207.166C193.847 207.181 193.954 207.206 194.028 207.222C194.103 207.239 194.215 207.262 194.279 207.274C194.342 207.286 194.452 207.306 194.524 207.317C194.596 207.328 194.703 207.344 194.762 207.351C194.822 207.359 194.917 207.371 194.974 207.377C195.031 207.383 195.135 207.392 195.204 207.398C195.274 207.404 195.39 207.411 195.462 207.415C195.535 207.418 195.64 207.422 195.696 207.424C195.752 207.425 195.855 207.426 195.926 207.426C195.996 207.426 196.106 207.425 196.17 207.424C196.234 207.422 196.408 207.413 196.557 207.402C196.706 207.392 196.889 207.377 196.964 207.368C197.039 207.359 197.156 207.344 197.224 207.335C197.291 207.325 197.405 207.307 197.478 207.295C197.55 207.283 197.67 207.261 197.745 207.245C197.82 207.23 197.933 207.206 197.996 207.191C198.059 207.177 198.154 207.154 198.207 207.14C198.26 207.126 198.383 207.092 198.48 207.064C198.577 207.036 198.71 206.994 198.775 206.972C198.841 206.95 198.941 206.915 198.999 206.894C199.056 206.873 199.161 206.833 199.232 206.804C199.303 206.776 199.399 206.736 199.446 206.715C199.492 206.695 199.578 206.656 199.636 206.629C199.694 206.601 199.772 206.563 199.809 206.545C199.847 206.526 199.91 206.493 199.95 206.472C199.99 206.451 200.063 206.411 200.113 206.382C200.163 206.354 200.234 206.312 200.271 206.29C200.309 206.268 200.375 206.226 200.42 206.198C200.465 206.17 200.558 206.108 200.627 206.06C200.703 206.008 200.806 205.932 200.888 205.868C200.962 205.81 201.061 205.73 201.107 205.69C201.154 205.649 201.224 205.586 201.264 205.548C201.304 205.511 201.365 205.452 201.398 205.418C201.432 205.384 201.483 205.331 201.512 205.301C201.54 205.27 201.586 205.219 201.614 205.187C201.642 205.155 201.689 205.098 201.719 205.062C201.749 205.025 201.791 204.971 201.813 204.942C201.835 204.913 201.878 204.854 201.908 204.811C201.938 204.768 201.986 204.697 202.013 204.653C202.041 204.609 202.083 204.537 202.108 204.495C202.132 204.452 202.166 204.389 202.183 204.356C202.2 204.322 202.233 204.252 202.257 204.199C202.281 204.146 202.315 204.064 202.332 204.018C202.349 203.971 202.374 203.898 202.387 203.857L202.411 203.78L203.798 203.685L205.185 203.59L205.472 203.966L205.759 204.343L208.476 204.157C210.585 204.012 211.204 203.968 211.241 203.96C211.267 203.954 211.307 203.941 211.33 203.932C211.361 203.919 211.386 203.905 211.438 203.868C211.495 203.827 211.509 203.815 211.533 203.786C211.548 203.767 211.568 203.734 211.577 203.712C211.587 203.691 211.597 203.657 211.6 203.637C211.603 203.616 211.603 203.586 211.6 203.569C211.598 203.552 211.589 203.523 211.58 203.506C211.572 203.489 211.557 203.464 211.547 203.452C211.537 203.44 211.341 203.229 211.111 202.984C210.881 202.739 210.684 202.532 210.674 202.524C210.663 202.516 210.647 202.498 210.639 202.484C210.629 202.469 210.622 202.441 210.62 202.415C210.618 202.391 210.62 202.355 210.623 202.336C210.627 202.316 210.639 202.278 210.648 202.25L210.666 202.2L211.03 201.687C211.23 201.405 211.399 201.161 211.407 201.144C211.414 201.128 211.423 201.099 211.426 201.079C211.428 201.059 211.429 201.032 211.427 201.018L211.423 200.994L211.169 200.852ZM198.809 201.566C198.896 201.616 198.996 201.676 199.035 201.703C199.073 201.729 199.127 201.767 199.154 201.788C199.182 201.808 199.236 201.852 199.276 201.886C199.315 201.919 199.378 201.978 199.416 202.017C199.454 202.056 199.5 202.106 199.518 202.128C199.536 202.15 199.57 202.193 199.592 202.223C199.615 202.253 199.648 202.3 199.665 202.327C199.682 202.353 199.697 202.376 199.697 202.378C199.697 202.38 198.903 202.436 197.932 202.503C196.961 202.569 196.138 202.628 196.101 202.633C196.065 202.638 196.005 202.648 195.968 202.656C195.932 202.663 195.863 202.68 195.816 202.694C195.77 202.708 195.702 202.731 195.666 202.746C195.63 202.76 195.58 202.783 195.556 202.795C195.531 202.808 195.49 202.831 195.464 202.847C195.439 202.863 195.4 202.888 195.379 202.905C195.357 202.921 195.323 202.949 195.303 202.968C195.283 202.987 195.254 203.016 195.238 203.034C195.222 203.052 195.195 203.087 195.178 203.112C195.161 203.137 195.135 203.184 195.121 203.216C195.107 203.248 195.091 203.294 195.085 203.319C195.08 203.343 195.073 203.382 195.071 203.404C195.07 203.427 195.071 203.474 195.074 203.509C195.077 203.544 195.086 203.59 195.092 203.613C195.099 203.635 195.112 203.669 195.121 203.69C195.13 203.71 195.15 203.746 195.164 203.769C195.179 203.792 195.206 203.827 195.223 203.847C195.24 203.866 195.271 203.897 195.291 203.914C195.311 203.932 195.347 203.96 195.371 203.977C195.395 203.994 195.433 204.018 195.456 204.031C195.479 204.044 195.521 204.064 195.548 204.076C195.576 204.088 195.619 204.105 195.646 204.115C195.672 204.124 195.724 204.139 195.762 204.149C195.799 204.158 195.863 204.172 195.903 204.178C195.943 204.184 196.007 204.192 196.046 204.195C196.086 204.198 196.149 204.201 196.187 204.201C196.226 204.201 197.054 204.147 198.027 204.08C199.001 204.014 199.799 203.96 199.802 203.962C199.805 203.963 199.792 203.995 199.774 204.032C199.756 204.069 199.729 204.121 199.714 204.148C199.699 204.174 199.675 204.215 199.661 204.238C199.646 204.262 199.608 204.317 199.576 204.36C199.543 204.404 199.489 204.471 199.455 204.51C199.42 204.548 199.365 204.606 199.331 204.639C199.297 204.671 199.246 204.72 199.216 204.746C199.184 204.775 199.096 204.844 198.996 204.919C198.875 205.01 198.808 205.057 198.746 205.096C198.699 205.124 198.628 205.167 198.587 205.191C198.546 205.214 198.479 205.25 198.439 205.271C198.4 205.292 198.319 205.332 198.261 205.359C198.203 205.386 198.106 205.428 198.045 205.453C197.985 205.477 197.889 205.513 197.833 205.533C197.777 205.553 197.67 205.587 197.596 205.609C197.522 205.631 197.42 205.659 197.368 205.672C197.316 205.684 197.228 205.704 197.172 205.716C197.115 205.727 197.012 205.746 196.943 205.757C196.874 205.769 196.769 205.783 196.71 205.79C196.651 205.797 196.531 205.808 196.444 205.814C196.356 205.82 196.238 205.825 196.181 205.827C196.124 205.828 196.021 205.827 195.95 205.825C195.88 205.824 195.776 205.819 195.719 205.815C195.661 205.811 195.571 205.804 195.518 205.798C195.465 205.793 195.359 205.779 195.283 205.767C195.207 205.756 195.097 205.736 195.039 205.724C194.98 205.712 194.881 205.689 194.817 205.673C194.754 205.657 194.652 205.629 194.591 205.61C194.529 205.591 194.445 205.563 194.402 205.547C194.36 205.532 194.289 205.505 194.245 205.488C194.202 205.47 194.126 205.438 194.078 205.416C194.03 205.394 193.934 205.347 193.864 205.31C193.79 205.271 193.7 205.22 193.645 205.185C193.594 205.153 193.517 205.101 193.474 205.071C193.431 205.04 193.36 204.985 193.316 204.95C193.273 204.914 193.216 204.865 193.19 204.841C193.164 204.816 193.126 204.778 193.104 204.756C193.083 204.734 193.046 204.695 193.023 204.669C193 204.643 192.957 204.591 192.928 204.553C192.899 204.515 192.849 204.442 192.817 204.39C192.785 204.338 192.744 204.261 192.724 204.22C192.705 204.178 192.682 204.125 192.674 204.103C192.665 204.08 192.648 204.026 192.635 203.981C192.622 203.937 192.605 203.869 192.598 203.831C192.591 203.793 192.582 203.717 192.578 203.662C192.574 203.606 192.573 203.53 192.575 203.491C192.576 203.452 192.584 203.383 192.59 203.337C192.597 203.291 192.61 203.223 192.62 203.185C192.629 203.147 192.647 203.088 192.658 203.053C192.67 203.018 192.698 202.948 192.72 202.898C192.743 202.847 192.779 202.774 192.801 202.735C192.823 202.696 192.864 202.63 192.892 202.588C192.921 202.545 192.971 202.477 193.004 202.436C193.037 202.395 193.085 202.338 193.111 202.309C193.138 202.28 193.182 202.234 193.211 202.205C193.239 202.176 193.295 202.123 193.335 202.087C193.388 202.038 193.448 201.991 193.57 201.899C193.692 201.807 193.756 201.762 193.823 201.721C193.872 201.69 193.945 201.647 193.985 201.624C194.024 201.601 194.09 201.566 194.129 201.545C194.169 201.524 194.249 201.485 194.308 201.458C194.366 201.43 194.463 201.388 194.524 201.363C194.584 201.339 194.68 201.303 194.736 201.283C194.792 201.263 194.899 201.229 194.972 201.207C195.046 201.186 195.149 201.157 195.2 201.145C195.252 201.132 195.34 201.112 195.397 201.1C195.453 201.089 195.556 201.07 195.625 201.059C195.695 201.048 195.797 201.033 195.854 201.026C195.91 201.02 196.03 201.009 196.12 201.003C196.211 200.997 196.339 200.991 196.405 200.99C196.471 200.989 196.571 200.99 196.627 200.991C196.683 200.992 196.765 200.996 196.81 200.999C196.854 201.001 196.937 201.008 196.993 201.013C197.048 201.018 197.16 201.031 197.241 201.043C197.322 201.054 197.443 201.075 197.509 201.088C197.576 201.102 197.675 201.124 197.729 201.137C197.783 201.151 197.869 201.174 197.92 201.189C197.97 201.204 198.043 201.226 198.081 201.239C198.118 201.252 198.195 201.28 198.251 201.301C198.307 201.322 198.389 201.355 198.433 201.375C198.478 201.394 198.545 201.425 198.583 201.443C198.621 201.461 198.723 201.517 198.809 201.566Z" fill="#7DB834"/>
<path opacity="0.5" d="M80.2699 199.794C80.2084 202.136 86.3648 204.202 94.0167 204.397C101.669 204.591 107.934 202.854 107.992 200.502C108.054 198.16 101.897 196.094 94.2454 195.9C86.5935 195.705 80.3313 197.452 80.2699 199.794Z" fill="#32589D"/>
<path d="M95.2318 186.52L94.4585 184.38L93.5438 183.271L93.5627 184.427L95.2318 186.52Z" fill="#C6C6C6"/>
<path d="M72.5733 194.252L71.803 192.155C71.803 192.155 74.1792 193.375 74.1919 193.414C74.2146 193.451 72.5733 194.252 72.5733 194.252Z" fill="#FFD85A"/>
<path d="M86.1501 196.86C92.3986 194.689 96.3676 189.888 94.4604 184.377C92.5532 178.866 85.9418 176.169 79.6934 178.34C73.445 180.51 69.9308 186.732 71.838 192.243C73.7452 197.754 79.9017 199.03 86.1501 196.86Z" fill="#FFD85A"/>
<path d="M87.392 200.428C93.6405 198.257 97.1547 192.035 95.2475 186.524C93.3403 181.013 86.7288 178.317 80.4803 180.487C74.2318 182.658 70.7176 188.88 72.6248 194.391C74.5288 199.891 81.1435 202.598 87.392 200.428Z" fill="#FFD85A"/>
<path d="M89.5638 180.661C92.1989 181.764 94.2974 183.796 95.2381 186.528C97.1454 192.039 93.6311 198.261 87.3826 200.432C84.2915 201.501 81.116 201.381 78.4539 200.33L89.5638 180.661Z" fill="#C6C6C6"/>
<path d="M73.1349 194.199C71.31 188.936 74.6681 182.989 80.6355 180.914C86.6028 178.839 92.9197 181.424 94.7446 186.686C96.5695 191.948 93.2113 197.896 87.244 199.971C81.2766 202.045 74.9598 199.461 73.1349 194.199Z" fill="#F9BF30"/>
<path d="M86.582 198.103C91.368 196.435 94.0751 191.666 92.6012 187.44C91.1373 183.211 86.0637 181.137 81.2678 182.809C76.4719 184.48 73.7747 189.246 75.2486 193.472C76.7193 197.688 81.7929 199.761 86.582 198.103Z" fill="#F2B42A"/>
<path d="M75.2494 193.472C75.1922 193.294 75.1381 193.125 75.0908 192.943C76.7703 196.818 81.6251 198.654 86.2148 197.06C90.8045 195.466 93.4679 191.007 92.3919 186.928C92.4659 187.091 92.5331 187.266 92.6003 187.442C94.0641 191.67 91.3672 196.435 86.5817 198.103C81.7931 199.761 76.72 197.688 75.2494 193.472Z" fill="#FFD85A"/>
<path d="M82.4618 191.639L83.721 189.406C85.5756 189.237 89.0236 188.941 91.7936 188.72C91.7709 190.841 90.7182 192.931 88.9496 194.43L82.4618 191.639Z" fill="#FFD85A"/>
<path d="M86.8792 195.741C86.6003 195.863 86.3214 195.985 86.0329 196.078C83.9402 196.805 81.7912 196.739 79.9737 196.03L82.0297 192.38L86.8792 195.741Z" fill="#FFD85A"/>
<path d="M85.0684 187.01L87.4482 182.796C88.9001 183.425 90.2644 184.191 91.0104 185.562L85.0684 187.01Z" fill="#FFD85A"/>
<path d="M82.0294 183.582C77.2437 185.25 74.5367 190.018 76.0105 194.244C76.3071 195.102 76.7501 195.869 77.3133 196.531C76.3921 195.71 75.6782 194.679 75.2572 193.467C73.7933 189.238 76.4904 184.473 81.2761 182.805C85.0966 181.48 89.0961 182.529 91.2962 185.152C89.0064 183.105 85.4421 182.388 82.0294 183.582Z" fill="#C6C6C6"/>
<path d="M94.4584 184.379C94.7424 185.197 95.0129 185.768 95.062 186.607C94.5524 185.872 93.2258 183.614 93.2258 183.614L91.7399 181.954L90.8227 181.592L89.3127 181.09L88.3193 178.331C91.1702 179.387 93.4598 181.501 94.4584 184.379Z" fill="#C6C6C6"/>
<path d="M72.3085 191.17L72.0742 190.61C72.0488 190.53 71.9569 190.483 71.8873 190.505L71.8475 190.518C71.768 190.544 71.7306 190.632 71.7561 190.712L71.9904 191.272C72.0158 191.352 72.1077 191.399 72.1773 191.377L72.2171 191.364C72.2966 191.338 72.3372 191.26 72.3085 191.17Z" fill="#C6C6C6"/>
<path d="M72.6029 188.665L72.2123 187.651C72.1836 187.561 72.0786 187.507 71.9991 187.533L71.8997 187.565C71.8102 187.594 71.7661 187.695 71.7947 187.785L72.1854 188.799C72.2141 188.889 72.319 188.943 72.3986 188.917L72.498 188.885C72.5974 188.853 72.6415 188.752 72.6029 188.665Z" fill="#C6C6C6"/>
<path d="M73.3807 186.301L73.0028 185.326C72.9678 185.217 72.8528 185.166 72.7534 185.198L72.5744 185.256C72.475 185.288 72.4241 185.403 72.4592 185.512L72.8371 186.487C72.8721 186.596 72.9871 186.647 73.0865 186.615L73.2654 186.557C73.3649 186.526 73.4157 186.411 73.3807 186.301Z" fill="#C6C6C6"/>
<path d="M74.9664 184.094L74.5184 182.901C74.4834 182.792 74.3684 182.741 74.269 182.773L74.0901 182.83C73.9907 182.862 73.9398 182.977 73.9748 183.086L74.4228 184.28C74.4578 184.389 74.5727 184.44 74.6721 184.408L74.8511 184.35C74.9473 184.309 74.9982 184.194 74.9664 184.094Z" fill="#C6C6C6"/>
<path d="M76.7288 182.411L76.2135 181.042C76.1785 180.932 76.0636 180.882 75.9642 180.914L75.7852 180.971C75.6858 181.003 75.6349 181.118 75.6699 181.227L76.1851 182.596C76.2202 182.706 76.3351 182.756 76.4345 182.725L76.6135 182.667C76.7196 182.622 76.7606 182.51 76.7288 182.411Z" fill="#C6C6C6"/>
<path d="M78.63 181.121L78.1307 179.802C78.0957 179.693 77.9807 179.642 77.8813 179.674L77.7023 179.731C77.6029 179.763 77.552 179.878 77.5871 179.988L78.0863 181.307C78.1213 181.416 78.2363 181.467 78.3357 181.435L78.5147 181.378C78.6208 181.333 78.6717 181.218 78.63 181.121Z" fill="#C6C6C6"/>
<path d="M80.6782 180.223L80.1725 178.884C80.1375 178.775 80.0226 178.724 79.9231 178.756L79.7442 178.813C79.6448 178.845 79.5939 178.96 79.6289 179.07L80.1345 180.409C80.1696 180.518 80.2845 180.569 80.3839 180.537L80.5629 180.48C80.6623 180.448 80.7132 180.333 80.6782 180.223Z" fill="#C6C6C6"/>
<path d="M82.803 179.596L82.326 178.346C82.291 178.237 82.176 178.186 82.0766 178.218L81.8977 178.276C81.7982 178.308 81.7474 178.423 81.7824 178.532L82.2594 179.782C82.2944 179.891 82.4093 179.942 82.5087 179.91L82.6877 179.853C82.7939 179.808 82.8448 179.693 82.803 179.596Z" fill="#C6C6C6"/>
<path d="M85.0763 179.37L84.6219 178.157C84.5869 178.048 84.472 177.997 84.3725 178.029L84.1936 178.086C84.0942 178.118 84.0433 178.233 84.0783 178.342L84.5326 179.556C84.5677 179.665 84.6826 179.716 84.782 179.684L84.961 179.626C85.0703 179.591 85.1113 179.48 85.0763 179.37Z" fill="#C6C6C6"/>
<path d="M87.5487 179.727L87.0526 178.418C87.0176 178.309 86.9026 178.258 86.8032 178.29L86.6242 178.347C86.5248 178.379 86.4739 178.494 86.5089 178.603L87.0051 179.913C87.0401 180.022 87.155 180.073 87.2544 180.041L87.4334 179.984C87.5395 179.939 87.5904 179.824 87.5487 179.727Z" fill="#C6C6C6"/>
<path opacity="0.5" d="M151.625 38.8863C151.564 41.2283 157.72 43.2941 165.372 43.4888C173.024 43.6835 179.289 41.9461 179.348 39.5942C179.409 37.2522 173.253 35.1863 165.601 34.9916C157.949 34.797 151.687 36.5443 151.625 38.8863Z" fill="#32589D"/>
<path d="M166.587 25.6122L165.814 23.472L164.899 22.3633L164.918 23.5186L166.587 25.6122Z" fill="#C6C6C6"/>
<path d="M143.929 33.3438L143.159 31.2468C143.159 31.2468 145.535 32.4666 145.547 32.5064C145.57 32.5429 143.929 33.3438 143.929 33.3438Z" fill="#FFD85A"/>
<path d="M157.506 35.9517C163.754 33.7812 167.723 28.9797 165.816 23.469C163.909 17.9582 157.297 15.2614 151.049 17.432C144.8 19.6025 141.286 25.8243 143.193 31.3351C145.101 36.8458 151.257 38.1223 157.506 35.9517Z" fill="#FFD85A"/>
<path d="M158.747 39.5196C164.996 37.349 168.51 31.1272 166.603 25.6163C164.696 20.1055 158.084 17.4086 151.836 19.5792C145.587 21.7498 142.073 27.9718 143.98 33.4826C145.884 38.9835 152.499 41.6902 158.747 39.5196Z" fill="#FFD85A"/>
<path d="M160.919 19.7528C163.554 20.8565 165.653 22.8883 166.594 25.6205C168.501 31.1313 164.987 37.3532 158.738 39.5238C155.647 40.593 152.471 40.4734 149.809 39.4222L160.919 19.7528Z" fill="#C6C6C6"/>
<path d="M144.49 33.2907C142.665 28.0284 146.024 22.0806 151.991 20.006C157.958 17.9315 164.275 20.5157 166.1 25.7781C167.925 31.0404 164.567 36.9882 158.599 39.0627C152.632 41.1373 146.315 38.5531 144.49 33.2907Z" fill="#F9BF30"/>
<path d="M157.937 37.1949C162.723 35.5267 165.431 30.758 163.957 26.532C162.493 22.3029 157.419 20.2295 152.623 21.9008C147.827 23.5721 145.13 28.3377 146.604 32.5636C148.075 36.7797 153.148 38.853 157.937 37.1949Z" fill="#F2B42A"/>
<path d="M146.605 32.5645C146.548 32.3857 146.494 32.2169 146.446 32.035C148.126 35.9096 152.981 37.7462 157.57 36.1521C162.16 34.558 164.823 30.0995 163.747 26.0202C163.821 26.1827 163.889 26.3582 163.956 26.5338C165.42 30.7624 162.723 35.5274 157.937 37.1952C153.149 38.8532 148.075 36.78 146.605 32.5645Z" fill="#FFD85A"/>
<path d="M153.817 30.7312L155.076 28.4978C156.931 28.3294 160.379 28.0329 163.149 27.8116C163.126 29.9329 162.074 32.0234 160.305 33.5223L153.817 30.7312Z" fill="#FFD85A"/>
<path d="M158.235 34.8326C157.956 34.955 157.677 35.0774 157.388 35.17C155.296 35.8967 153.147 35.8309 151.329 35.122L153.385 31.4716L158.235 34.8326Z" fill="#FFD85A"/>
<path d="M156.424 26.1019L158.804 21.8876C160.256 22.5167 161.62 23.2835 162.366 24.6541L156.424 26.1019Z" fill="#FFD85A"/>
<path d="M153.385 22.674C148.599 24.3421 145.892 29.1105 147.366 33.3362C147.663 34.1939 148.106 34.9608 148.669 35.6234C147.748 34.8019 147.034 33.7715 146.613 32.5594C145.149 28.3305 147.846 23.5653 152.632 21.8972C156.452 20.572 160.452 21.6209 162.652 24.2443C160.362 22.1973 156.798 21.4797 153.385 22.674Z" fill="#C6C6C6"/>
<path d="M165.814 23.4714C166.098 24.2895 166.368 24.86 166.418 25.6988C165.908 24.964 164.581 22.7058 164.581 22.7058L163.095 21.0465L162.178 20.6836L160.668 20.1823L159.675 17.4227C162.526 18.4795 164.815 20.5929 165.814 23.4714Z" fill="#C6C6C6"/>
<path d="M143.664 30.2622L143.43 29.7017C143.404 29.6222 143.312 29.5749 143.243 29.5973L143.203 29.61C143.123 29.6356 143.086 29.7243 143.112 29.8038L143.346 30.3643C143.371 30.4439 143.463 30.4911 143.533 30.4687L143.573 30.456C143.652 30.4304 143.693 30.3516 143.664 30.2622Z" fill="#C6C6C6"/>
<path d="M143.958 27.7573L143.568 26.7429C143.539 26.6534 143.434 26.5994 143.355 26.625L143.255 26.6569C143.166 26.6856 143.122 26.7875 143.15 26.8769L143.541 27.8914C143.57 27.9808 143.674 28.0348 143.754 28.0093L143.853 27.9774C143.953 27.9455 143.997 27.8436 143.958 27.7573Z" fill="#C6C6C6"/>
<path d="M144.736 25.3932L144.358 24.4184C144.323 24.3091 144.208 24.2583 144.109 24.2902L143.93 24.3477C143.83 24.3796 143.78 24.4946 143.815 24.604L144.193 25.5787C144.228 25.6881 144.343 25.7388 144.442 25.7069L144.621 25.6495C144.72 25.6176 144.771 25.5026 144.736 25.3932Z" fill="#C6C6C6"/>
<path d="M146.322 23.1863L145.874 21.9929C145.839 21.8836 145.724 21.8328 145.624 21.8647L145.446 21.9222C145.346 21.9541 145.295 22.0691 145.33 22.1784L145.778 23.3718C145.813 23.4811 145.928 23.5319 146.028 23.5L146.207 23.4425C146.303 23.4007 146.354 23.2857 146.322 23.1863Z" fill="#C6C6C6"/>
<path d="M148.084 21.5029L147.569 20.1338C147.534 20.0245 147.419 19.9737 147.32 20.0056L147.141 20.063C147.041 20.095 146.99 20.2099 147.025 20.3193L147.541 21.6884C147.576 21.7977 147.691 21.8485 147.79 21.8166L147.969 21.7591C148.075 21.7141 148.116 21.6023 148.084 21.5029Z" fill="#C6C6C6"/>
<path d="M149.985 20.2135L149.486 18.8941C149.451 18.7847 149.336 18.734 149.237 18.7659L149.058 18.8233C148.958 18.8552 148.908 18.9702 148.943 19.0795L149.442 20.399C149.477 20.5083 149.592 20.5591 149.691 20.5272L149.87 20.4697C149.976 20.4247 150.027 20.3097 149.985 20.2135Z" fill="#C6C6C6"/>
<path d="M152.034 19.3151L151.528 17.9758C151.493 17.8665 151.378 17.8157 151.279 17.8476L151.1 17.9051C151 17.937 150.949 18.052 150.984 18.1613L151.49 19.5006C151.525 19.6099 151.64 19.6607 151.739 19.6288L151.918 19.5714C152.018 19.5394 152.069 19.4244 152.034 19.3151Z" fill="#C6C6C6"/>
<path d="M154.158 18.6884L153.681 17.4385C153.646 17.3292 153.531 17.2784 153.432 17.3103L153.253 17.3678C153.154 17.3997 153.103 17.5147 153.138 17.624L153.615 18.8738C153.65 18.9832 153.765 19.034 153.864 19.002L154.043 18.9446C154.149 18.8995 154.2 18.7846 154.158 18.6884Z" fill="#C6C6C6"/>
<path d="M156.432 18.4623L155.977 17.249C155.942 17.1397 155.827 17.0889 155.728 17.1208L155.549 17.1783C155.45 17.2102 155.399 17.3252 155.434 17.4345L155.888 18.6478C155.923 18.7571 156.038 18.8079 156.137 18.776L156.316 18.7185C156.426 18.6834 156.467 18.5716 156.432 18.4623Z" fill="#C6C6C6"/>
<path d="M158.904 18.8195L158.408 17.51C158.373 17.4007 158.258 17.3499 158.159 17.3818L157.98 17.4393C157.88 17.4712 157.829 17.5862 157.864 17.6955L158.361 19.005C158.396 19.1143 158.51 19.1651 158.61 19.1332L158.789 19.0757C158.895 19.0307 158.946 18.9157 158.904 18.8195Z" fill="#C6C6C6"/>
<path d="M72.9414 54.8773L68.3644 63.6778L65.8784 64.1118L65.0021 65.7987L65.664 68.8706L64.6674 70.7839L63.7347 70.2971L63.0013 71.701L63.8663 72.1538L62.392 74.9918L60.3875 73.9426L59.6391 75.3767L60.0828 77.4296L59.1727 79.1807L59.5413 79.3732L58.3378 81.6827L57.6119 81.3016L56.3821 83.6753L55.645 85.0867L48.6835 88.0001L51.1582 83.2413L66.5817 53.5791L72.9414 54.8773Z" fill="#FFD85A"/>
<path d="M66.2631 40.9933C66.297 40.933 66.3346 40.8726 66.3722 40.8122C66.4399 40.699 66.5076 40.5858 66.5753 40.4763C66.6204 40.4009 66.6693 40.3291 66.7182 40.2574C66.7784 40.1631 66.8423 40.0688 66.9063 39.9744C66.9589 39.8952 67.0153 39.8197 67.068 39.7442C67.1281 39.6612 67.1846 39.5782 67.2447 39.4989C67.3049 39.4197 67.3651 39.3366 67.429 39.2574C67.4854 39.1857 67.5418 39.114 67.602 39.0423C67.6697 38.9593 67.7374 38.8762 67.8051 38.797C67.8578 38.7328 67.9104 38.6724 67.9668 38.6121C68.042 38.5253 68.1173 38.4385 68.1962 38.3554C68.2414 38.3026 68.2903 38.2535 68.3392 38.2045C68.4257 38.1139 68.5122 38.0233 68.5987 37.9365C68.6363 37.8988 68.6701 37.8648 68.7077 37.8309C68.8093 37.7328 68.9108 37.6346 69.0124 37.5403C69.0236 37.529 69.0349 37.5177 69.05 37.5063C72.4987 34.3476 77.1472 33.3174 80.9119 35.2873C85.9854 37.9441 87.5236 45.0464 84.3456 51.1525C82.6156 54.481 79.8438 56.8207 76.8576 57.8359C75.7783 58.202 74.6725 58.3982 73.5743 58.3982C73.5593 58.3982 73.548 58.3982 73.533 58.3982C73.4089 58.3982 73.2885 58.3944 73.1644 58.3907C73.1193 58.3907 73.0742 58.3869 73.029 58.3869C72.92 58.3793 72.8146 58.3718 72.7056 58.3605C72.6454 58.3567 72.5852 58.3491 72.5288 58.3416C72.431 58.3303 72.3332 58.319 72.2355 58.3039C72.1678 58.2925 72.0963 58.285 72.0286 58.2737C71.9384 58.2586 71.8481 58.2435 71.7616 58.2246C71.6864 58.2095 71.6074 58.1944 71.5322 58.1755C71.4494 58.1567 71.3667 58.1378 71.284 58.1152C71.2012 58.0925 71.1185 58.0699 71.0357 58.0472C70.9605 58.0246 70.8815 58.0019 70.8063 57.9793C70.7161 57.9491 70.6295 57.9189 70.5393 57.8887C70.4716 57.8661 70.4039 57.8397 70.3362 57.817C70.2347 57.7793 70.1331 57.734 70.0316 57.6925C69.9789 57.6699 69.9225 57.6472 69.8698 57.6246C69.7156 57.5566 69.5615 57.4812 69.411 57.4019C64.3375 54.7451 62.7993 47.6428 65.9773 41.5368C66.0638 41.3519 66.1616 41.1707 66.2631 40.9933ZM75.3345 45.9974C76.82 46.7748 78.7757 45.9559 79.7046 44.1709C79.7799 44.0237 79.8476 43.8728 79.904 43.7218C79.919 43.6878 79.9303 43.6539 79.9416 43.6161C79.9942 43.4652 80.0431 43.3142 80.077 43.1633C80.3252 42.1142 80.1409 41.0613 79.5956 40.3103C79.479 40.148 79.3436 40.0008 79.1969 39.8687C79.1856 39.8612 79.1744 39.8536 79.1631 39.8423C79.0991 39.7857 79.0314 39.7329 78.96 39.6838C78.8772 39.6272 78.7907 39.5744 78.6967 39.5253C77.2112 38.7479 75.2555 39.5668 74.3265 41.3519C73.4013 43.1406 73.8527 45.22 75.3345 45.9974Z" fill="#FFD85A"/>
<path d="M71.5117 54.1261L66.9347 62.9266L64.445 63.3606L63.5687 65.0475L64.2343 68.1194L63.2377 70.0327L62.3012 69.5421L61.5716 70.9498L62.4329 71.4026L60.9586 74.2405L58.954 73.1914L58.2094 74.6255L58.6532 76.6784L57.743 78.4295L58.1078 78.6219L56.9081 80.9315L56.1822 80.5504L54.9486 82.9241L54.2153 84.3355L47.2501 87.2489L49.7247 82.4901L65.1482 52.8279L71.5117 54.1261Z" fill="#F2B42A"/>
<path d="M78.4568 34.0042C83.5303 36.6609 85.0685 43.7633 81.8905 49.8693C78.7163 55.9753 72.0294 58.7717 66.9559 56.1187C61.8825 53.462 60.3443 46.3597 63.5222 40.2536C66.6964 34.1438 73.3833 31.3474 78.4568 34.0042ZM72.8869 44.7143C74.3725 45.4917 76.3281 44.6728 77.2571 42.8877C78.186 41.1027 77.7347 39.0233 76.2529 38.2459C74.7674 37.4685 72.8117 38.2875 71.8827 40.0725C70.9538 41.8575 71.4013 43.9369 72.8869 44.7143Z" fill="#FFD85A"/>
<path d="M50.9377 83.6676L52.6452 82.9732L66.1055 57.0923L65.0449 56.5376L50.9377 83.6676Z" fill="#DD821F"/>
<path d="M65.0449 56.5377L50.9377 83.6677L50.3322 83.913L64.6688 56.3376L65.0449 56.5377Z" fill="#FFD85A"/>
<path d="M65.1462 52.8279L71.5059 54.1261L69.4562 58.0697C67.9142 58.2697 66.3609 58.0395 64.9581 57.3036C64.3789 57.0017 63.8599 56.6281 63.3936 56.1979L65.1462 52.8279Z" fill="#DD821F"/>
<path d="M69.5544 34.1738L74.3984 56.5526C71.905 57.4017 69.261 57.3262 66.9518 56.1148C61.8784 53.4581 60.3401 46.3557 63.5181 40.2497C64.9661 37.4721 67.1399 35.3815 69.5544 34.1738Z" fill="#DD821F"/>
<path d="M78.1109 34.6683C82.8797 37.1628 84.3239 43.8387 81.3378 49.5787C78.3516 55.3187 72.0709 57.9453 67.302 55.4508C62.5332 52.9563 61.089 46.2804 64.0752 40.5404C67.0576 34.8004 73.3421 32.1701 78.1109 34.6683ZM72.887 44.7143C74.3726 45.4917 76.3282 44.6727 77.2572 42.8877C78.1861 41.1027 77.7348 39.0233 76.253 38.2459C74.7675 37.4685 72.8118 38.2874 71.8828 40.0725C70.9539 41.8575 71.4014 43.9368 72.887 44.7143Z" fill="#F9BF30"/>
<path d="M77.4982 35.8422C81.7254 38.0574 83.0079 43.9785 80.3602 49.0656C77.7126 54.1565 72.1389 56.4887 67.9116 54.2735C63.6843 52.0583 62.4019 46.1371 65.0496 41.05C67.6972 35.9629 73.2709 33.6307 77.4982 35.8422ZM72.8873 44.7144C74.3729 45.4918 76.3285 44.6729 77.2575 42.8879C78.1864 41.1029 77.7351 39.0235 76.2533 38.2461C74.7678 37.4687 72.8121 38.2876 71.8831 40.0726C70.9542 41.8576 71.4017 43.937 72.8873 44.7144Z" fill="#F2B42A"/>
<path d="M77.4989 35.842C77.6644 35.9288 77.8224 36.0194 77.9766 36.1175C73.817 34.3249 68.5705 36.6685 66.0244 41.5593C63.482 46.4502 64.5689 52.1109 68.4126 54.5073C68.2433 54.4356 68.0778 54.3601 67.9123 54.2733C63.6851 52.0581 62.4026 46.137 65.0503 41.0499C67.698 35.959 73.2717 33.6305 77.4989 35.842Z" fill="#FFD85A"/>
<path d="M79.1531 49.4088C81.8008 44.3179 80.5183 38.3968 76.2911 36.1854C74.6927 35.3476 72.9025 35.1627 71.1537 35.5287C73.2748 34.7702 75.5351 34.8155 77.5021 35.8457C81.7293 38.061 83.0118 43.9821 80.3641 49.0692C78.7169 52.2354 75.9375 54.3337 73.0529 54.9337C75.4862 54.0619 77.7353 52.1298 79.1531 49.4088Z" fill="#DD821F"/>
<path d="M75.8425 37.7591C76.3991 38.0497 76.8354 38.4912 77.1475 39.0233C76.9143 38.6988 76.6135 38.4308 76.2487 38.2421C74.7631 37.4647 72.8074 38.2836 71.8785 40.0686C70.9495 41.8537 71.4008 43.933 72.8826 44.7104C74.3682 45.4879 76.3239 44.6689 77.2528 42.8839C77.4221 42.5556 77.5462 42.216 77.6289 41.8763C77.5424 42.4273 77.3694 42.982 77.0911 43.5179C75.9403 45.7332 73.5107 46.7483 71.6716 45.786C69.8288 44.8237 69.2722 42.2424 70.423 40.0271C71.5738 37.8119 73.9996 36.7967 75.8425 37.7591Z" fill="#DD821F"/>
<path d="M76.6563 37.4646C78.4992 38.427 79.0558 41.0083 77.9049 43.2235C76.7541 45.4387 74.3245 46.4539 72.4854 45.4916C70.6426 44.5292 70.086 41.9479 71.2368 39.7327C72.3877 37.5175 74.8135 36.5023 76.6563 37.4646ZM72.8879 44.7141C74.3734 45.4916 76.3291 44.6726 77.2581 42.8876C78.187 41.1026 77.7357 39.0232 76.2539 38.2458C74.7683 37.4684 72.8126 38.2873 71.8837 40.0723C70.9548 41.8574 71.4023 43.9367 72.8879 44.7141Z" fill="#F9BF30"/>
<path d="M77.1446 37.7214C78.9874 38.6838 79.5441 41.2651 78.3932 43.4803C77.2424 45.6955 74.8128 46.7107 72.9737 45.7484C71.1309 44.786 70.5743 42.2047 71.7251 39.9895C72.876 37.7705 75.3017 36.7553 77.1446 37.7214ZM73.3762 44.9672C74.8617 45.7446 76.8174 44.9257 77.7463 43.1406C78.6753 41.3556 78.224 39.2762 76.7422 38.4988C75.2566 37.7214 73.3009 38.5404 72.372 40.3254C71.4393 42.1142 71.8906 44.1935 73.3762 44.9672Z" fill="#FFD85A"/>
<path d="M76.6563 37.4646C78.4992 38.427 79.0558 41.0083 77.9049 43.2235C76.7541 45.4387 74.3245 46.4539 72.4854 45.4916C70.6426 44.5292 70.086 41.9479 71.2368 39.7327C72.3877 37.5175 74.8135 36.5023 76.6563 37.4646ZM72.8879 44.7141C74.3734 45.4916 76.3291 44.6726 77.2581 42.8876C78.187 41.1026 77.7357 39.0232 76.2539 38.2458C74.7683 37.4684 72.8126 38.2873 71.8837 40.0723C70.9548 41.8574 71.4023 43.9367 72.8879 44.7141Z" fill="#F9BF30"/>
<path d="M47.8702 86.9886L64.2227 55.5452L63.3953 56.198L47.2496 87.249L47.8702 86.9886Z" fill="#DD821F"/>
<path d="M64.2263 68.1224L65.6602 68.873L64.6633 70.7902L63.2294 70.0395L64.2263 68.1224Z" fill="#FFD85A"/>
<path d="M60.3887 73.9424L58.2073 74.6255L58.952 73.1914L60.3887 73.9424Z" fill="#DD821F"/>
<path d="M63.7363 70.297L62.2997 69.5422L61.57 70.9499L63.7363 70.297Z" fill="#DD821F"/>
<path d="M68.3652 63.6777L66.9323 62.9268L64.4426 63.3607L65.8793 64.1117L68.3652 63.6777Z" fill="#DD821F"/>
<path d="M70.8929 58.8208L69.46 58.0698L69.8474 56.5565L71.9347 56.9037L74.259 55.8696L77.5234 57.5792C77.3015 57.6697 77.0797 57.7565 76.8578 57.832C75.7784 58.1981 74.6727 58.3943 73.5745 58.3943C73.5594 58.3943 73.5482 58.3943 73.5331 58.3943C73.409 58.3943 73.2886 58.3905 73.1645 58.3868C73.1194 58.3868 73.0743 58.383 73.0292 58.383C72.9201 58.3754 72.8148 58.3679 72.7057 58.3566C72.6455 58.3528 72.5854 58.3453 72.5289 58.3377C72.4312 58.3264 72.3334 58.3151 72.2356 58.3C72.1679 58.2886 72.0964 58.2811 72.0287 58.2698C71.9385 58.2547 71.8482 58.2396 71.7617 58.2207C71.6865 58.2056 71.6075 58.1905 71.5323 58.1717C71.4496 58.1528 71.3668 58.1339 71.2841 58.1113C71.2803 58.1113 71.2728 58.1075 71.269 58.1075L70.8929 58.8208Z" fill="#DD821F"/>
<path d="M47.2484 87.2491L48.685 88.0001L55.6465 85.0867L54.2136 84.3357L47.2484 87.2491Z" fill="#DD821F"/>
<path d="M57.6133 81.3013L56.1804 80.5503L55.4921 81.8711L57.6133 81.3013Z" fill="#DD821F"/>
<path d="M78.4552 34.0042L80.9863 35.3288C80.9863 35.3288 79.6362 35.1023 79.6211 35.0948C79.6023 35.0835 78.4552 34.0042 78.4552 34.0042Z" fill="#FFD85A"/>
</g>
<defs>
<linearGradient id="paint0_linear_208_2470" x1="169.479" y1="185.534" x2="242.714" y2="244.312" gradientUnits="userSpaceOnUse">
<stop stop-color="#BCD5FF"/>
<stop offset="0.151" stop-color="#A3BEFF"/>
<stop offset="0.3866" stop-color="#82A0FF"/>
<stop offset="0.6124" stop-color="#6A8AFF"/>
<stop offset="0.8221" stop-color="#5C7DFF"/>
<stop offset="1" stop-color="#5778FF"/>
</linearGradient>
<linearGradient id="paint1_linear_208_2470" x1="155.627" y1="203.446" x2="257.549" y2="171.585" gradientUnits="userSpaceOnUse">
<stop stop-color="#C0D6FF"/>
<stop offset="0.2978" stop-color="#C5DBFF"/>
<stop offset="0.6488" stop-color="#D3E9FF"/>
<stop offset="1" stop-color="#E9FFFF"/>
</linearGradient>
<clipPath id="clip0_208_2470">
<rect width="279" height="318" fill="white"/>
</clipPath>
</defs>
</svg>
