<svg width="279" height="318" viewBox="0 0 279 318" fill="none" xmlns="http://www.w3.org/2000/svg">
<g clip-path="url(#clip0_208_2832)">
<g opacity="0.45">
<path d="M190.998 194.486C190.895 194.486 190.802 194.459 190.709 194.414L76.792 130.614C74.6954 129.439 73.5399 127.839 73.5399 126.122C73.5399 124.395 74.6954 122.804 76.792 121.629L150.975 80.0841C152.699 79.1169 153.65 77.8695 153.65 76.5678C153.65 75.2661 152.699 74.0187 150.975 73.0515L25.364 2.69823C21.5807 0.583022 15.4213 0.583023 11.638 2.69823L-30.4903 26.2909C-32.2142 27.2582 -33.1647 28.5056 -33.1647 29.8073C-33.1647 31.1089 -32.2142 32.3564 -30.4903 33.3236L32.1384 68.3962C34.2351 69.5714 35.3905 71.1713 35.3905 72.8888C35.3905 74.6153 34.2351 76.2063 32.1384 77.3814L-61.5018 129.828C-65.6112 132.124 -72.2831 132.133 -76.3925 129.828L-138.574 95.0081C-138.853 94.8544 -138.947 94.5019 -138.788 94.2398C-138.63 93.9686 -138.266 93.8782 -137.996 94.0319L-75.8148 128.851C-72.0315 130.967 -65.8721 130.967 -62.0888 128.851L31.5514 76.4051C33.2752 75.4379 34.2257 74.1905 34.2257 72.8888C34.2257 71.5871 33.2752 70.3397 31.5514 69.3725L-31.0773 34.2998C-33.174 33.1247 -34.3295 31.5247 -34.3295 29.8073C-34.3295 28.0807 -33.174 26.4898 -31.0773 25.3147L11.051 1.72198C15.151 -0.574012 21.8416 -0.574013 25.9417 1.72198L151.553 72.0753C153.65 73.2504 154.805 74.8503 154.805 76.5769C154.805 78.3034 153.65 79.8943 151.553 81.0694L77.3697 122.614C75.6458 123.581 74.6954 124.829 74.6954 126.131C74.6954 127.432 75.6458 128.68 77.3697 129.647L191.287 193.447C191.566 193.6 191.659 193.953 191.501 194.224C191.398 194.387 191.203 194.486 190.998 194.486Z" fill="#7BD834"/>
<path d="M163.862 146.65C163.657 146.65 163.461 146.551 163.359 146.37C163.2 146.099 163.293 145.755 163.573 145.593L274.145 83.6639C276.521 82.3351 277.825 80.5996 277.825 78.7826C277.825 76.9657 276.521 75.2302 274.145 73.9014L168.102 14.5038C162.977 11.6293 154.627 11.6293 149.502 14.5038L125.796 27.7826C125.517 27.9363 125.163 27.8459 124.995 27.5747C124.837 27.3035 124.93 26.96 125.209 26.7973L148.915 13.5185C154.366 10.4632 163.228 10.4632 168.679 13.5185L274.732 72.9161C277.481 74.4528 278.999 76.5409 278.999 78.7736C278.999 81.0154 277.481 83.0944 274.732 84.6401L164.16 146.569C164.057 146.623 163.955 146.65 163.862 146.65Z" fill="#7BD834"/>
<path d="M-99.4365 318C-102.474 318 -105.512 317.349 -107.823 316.057L-259.312 231.213C-261.66 229.893 -262.955 228.113 -262.955 226.187C-262.955 224.262 -261.66 222.481 -259.312 221.161L-207.641 192.226C-203.019 189.632 -195.49 189.632 -190.868 192.226L-153.511 213.153C-153.231 213.306 -153.138 213.659 -153.297 213.93C-153.455 214.201 -153.818 214.292 -154.089 214.138L-191.446 193.212C-195.751 190.798 -202.749 190.807 -207.054 193.212L-258.725 222.147C-260.7 223.25 -261.79 224.687 -261.79 226.187C-261.79 227.688 -260.7 229.125 -258.725 230.228L-107.236 315.071C-102.931 317.485 -95.9328 317.485 -91.6277 315.071L104.403 205.279C104.682 205.126 105.036 205.216 105.204 205.487C105.362 205.758 105.269 206.102 104.99 206.265L-91.05 316.057C-93.3609 317.349 -96.3987 318 -99.4365 318Z" fill="#7BD834"/>
<path d="M-87.5001 248.677C-90.5378 248.677 -93.5756 248.026 -95.8866 246.734L-126.628 229.514C-126.907 229.36 -127.001 229.007 -126.842 228.736C-126.684 228.465 -126.32 228.375 -126.05 228.528L-95.3088 245.748C-91.0037 248.162 -84.0057 248.162 -79.7006 245.748L49.2376 173.533C51.213 172.43 52.3033 170.993 52.3033 169.492C52.3033 167.992 51.213 166.554 49.2376 165.452L11.1348 144.11C6.82968 141.696 -0.168394 141.696 -4.47348 144.11L-79.1228 185.917C-83.7447 188.511 -91.274 188.511 -95.8959 185.917L-200.196 127.504C-204.501 125.091 -211.499 125.091 -215.805 127.504L-327.131 189.858C-327.411 190.012 -327.765 189.921 -327.923 189.65C-328.081 189.379 -327.988 189.035 -327.709 188.882L-216.364 126.528C-211.742 123.934 -204.212 123.934 -199.591 126.528L-95.2902 184.941C-90.9851 187.354 -83.987 187.354 -79.6819 184.941L-5.03259 143.133C-0.410674 140.539 7.11856 140.539 11.7404 143.133L49.8432 164.475C52.1915 165.795 53.4867 167.576 53.4867 169.501C53.4867 171.427 52.1915 173.207 49.8432 174.527L-79.1135 246.734C-81.4245 248.026 -84.4623 248.677 -87.5001 248.677Z" fill="#7BD834"/>
<path d="M45.5107 275.967C45.4082 275.967 45.315 275.94 45.2218 275.895L12.6448 257.653C12.3653 257.5 12.2721 257.147 12.4305 256.876C12.5889 256.605 12.943 256.514 13.2319 256.668L45.8088 274.909C46.0884 275.063 46.1816 275.416 46.0232 275.687C45.9114 275.868 45.7157 275.967 45.5107 275.967Z" fill="#7BD834"/>
<path d="M-43.5546 75.2751C-43.7596 75.2751 -43.9553 75.1757 -44.0578 74.9949C-44.2162 74.7237 -44.123 74.3802 -43.8435 74.2175L-0.93243 50.1909C-0.652878 50.0372 -0.298767 50.1276 -0.131035 50.3988C0.0273781 50.67 -0.0658187 51.0135 -0.345367 51.1762L-43.2564 75.2028C-43.3589 75.248 -43.4521 75.2751 -43.5546 75.2751Z" fill="#C0EAA0"/>
<path d="M187.857 62.1593L168.53 62.1593C168.204 62.1593 167.943 61.9062 167.943 61.5898L167.943 50.7697C167.943 50.4533 168.204 50.2002 168.53 50.2002L187.857 50.2002C188.183 50.2002 188.444 50.4533 188.444 50.7697L188.444 61.5898C188.444 61.9062 188.183 62.1593 187.857 62.1593ZM169.117 61.0203L187.27 61.0203L187.27 51.3301L169.117 51.3301L169.117 61.0203Z" fill="#7BD834"/>
<path d="M64.8352 286.796L45.5089 286.796C45.1828 286.796 44.9219 286.543 44.9219 286.227L44.9219 275.407C44.9219 275.253 44.9871 275.108 45.0896 275.009C45.2014 274.9 45.3505 274.846 45.4996 274.846L64.8259 274.846C65.152 274.846 65.4129 275.099 65.4129 275.416L65.4129 286.236C65.4129 286.534 65.152 286.796 64.8352 286.796ZM46.096 285.657L64.2481 285.657L64.2481 275.967L46.096 275.967L46.096 285.657Z" fill="#7BD834"/>
</g>
<path d="M196.532 151.044L103.553 209.859L64.5151 187.323C62.1841 185.978 62.4766 183.624 65.1676 182.072L153.633 130.997C156.324 129.44 160.401 129.273 162.732 130.619L196.532 151.044Z" fill="#32589D" fill-opacity="0.6"/>
<path d="M78.3566 183.012L76.9301 183.836L64.1816 176.474L65.6081 175.65L78.3566 183.012Z" fill="#32589D" fill-opacity="0.5"/>
<path d="M82.8924 180.394L81.4659 181.222L68.7129 173.86L70.1439 173.032L82.8924 180.394Z" fill="#32589D" fill-opacity="0.5"/>
<path d="M91.1502 175.628L89.7237 176.452L76.9707 169.09L78.3972 168.266L91.1502 175.628Z" fill="#32589D" fill-opacity="0.5"/>
<path d="M95.6809 173.009L94.2544 173.832L81.5059 166.475L82.9324 165.647L95.6809 173.009Z" fill="#32589D" fill-opacity="0.5"/>
<path d="M103.939 168.244L102.512 169.067L89.7637 161.705L91.1902 160.882L103.939 168.244Z" fill="#32589D" fill-opacity="0.5"/>
<path d="M108.474 165.625L107.048 166.448L94.2949 159.091L95.7214 158.263L108.474 165.625Z" fill="#32589D" fill-opacity="0.5"/>
<path d="M116.732 160.859L115.301 161.683L102.553 154.321L103.979 153.497L116.732 160.859Z" fill="#32589D" fill-opacity="0.5"/>
<path d="M121.263 158.24L119.837 159.063L107.084 151.701L108.515 150.878L121.263 158.24Z" fill="#32589D" fill-opacity="0.5"/>
<path d="M129.521 153.475L128.095 154.298L115.342 146.936L116.773 146.113L129.521 153.475Z" fill="#32589D" fill-opacity="0.5"/>
<path d="M134.058 150.856L132.627 151.679L119.879 144.317L121.305 143.494L134.058 150.856Z" fill="#32589D" fill-opacity="0.5"/>
<path d="M142.31 146.09L140.883 146.914L128.135 139.552L129.561 138.728L142.31 146.09Z" fill="#32589D" fill-opacity="0.5"/>
<path d="M146.847 143.471L145.421 144.294L132.668 136.932L134.099 136.109L146.847 143.471Z" fill="#32589D" fill-opacity="0.5"/>
<path d="M155.103 138.706L153.677 139.529L140.924 132.167L142.35 131.344L155.103 138.706Z" fill="#32589D" fill-opacity="0.5"/>
<path d="M159.636 136.087L158.209 136.91L145.461 129.548L146.887 128.725L159.636 136.087Z" fill="#32589D" fill-opacity="0.5"/>
<path d="M102.027 141.919V207.403C102.027 209.626 103.589 210.526 105.515 209.414L193.985 158.335C195.911 157.223 197.472 154.519 197.472 152.296V86.8164L102.027 141.919Z" fill="#E2E2E2"/>
<path d="M193.985 71.7952L105.515 122.875C103.589 123.986 102.027 126.691 102.027 128.914V141.919L197.472 86.8162V73.8112C197.468 71.5882 195.911 70.6837 193.985 71.7952ZM109.718 126.425C108.921 126.884 108.278 126.511 108.278 125.593C108.278 124.675 108.921 123.559 109.718 123.1C110.514 122.641 111.158 123.014 111.158 123.932C111.158 124.85 110.51 125.966 109.718 126.425ZM113.705 124.121C112.908 124.58 112.265 124.207 112.265 123.289C112.265 122.371 112.908 121.255 113.705 120.796C114.501 120.337 115.145 120.71 115.145 121.628C115.145 122.546 114.501 123.662 113.705 124.121ZM122.394 119.104C121.598 119.563 120.954 119.189 120.954 118.271C120.954 117.353 121.598 116.237 122.394 115.778C123.191 115.319 123.834 115.693 123.834 116.611C123.834 117.529 123.191 118.645 122.394 119.104ZM126.386 116.804C125.589 117.263 124.946 116.89 124.946 115.972C124.946 115.054 125.589 113.938 126.386 113.479C127.182 113.02 127.826 113.393 127.826 114.311C127.826 115.229 127.178 116.345 126.386 116.804ZM135.075 111.787C134.279 112.246 133.635 111.872 133.635 110.954C133.635 110.036 134.279 108.92 135.075 108.461C135.872 108.002 136.515 108.376 136.515 109.294C136.515 110.212 135.872 111.328 135.075 111.787ZM139.062 109.483C138.266 109.942 137.622 109.568 137.622 108.65C137.622 107.732 138.266 106.616 139.062 106.157C139.859 105.698 140.502 106.072 140.502 106.99C140.502 107.908 139.859 109.024 139.062 109.483ZM147.756 104.465C146.96 104.924 146.316 104.551 146.316 103.633C146.316 102.715 146.96 101.599 147.756 101.14C148.553 100.681 149.196 101.054 149.196 101.972C149.196 102.89 148.548 104.006 147.756 104.465ZM151.743 102.161C150.947 102.62 150.303 102.247 150.303 101.329C150.303 100.411 150.947 99.2947 151.743 98.8357C152.54 98.3767 153.183 98.7502 153.183 99.6682C153.183 100.586 152.54 101.702 151.743 102.161ZM160.433 97.1437C159.636 97.6027 158.993 97.2292 158.993 96.3112C158.993 95.3932 159.636 94.2772 160.433 93.8182C161.229 93.3592 161.873 93.7327 161.873 94.6507C161.873 95.5687 161.229 96.6847 160.433 97.1437ZM164.42 94.8397C163.623 95.2987 162.98 94.9252 162.98 94.0072C162.98 93.0892 163.623 91.9732 164.42 91.5142C165.216 91.0552 165.86 91.4287 165.86 92.3467C165.86 93.2647 165.216 94.3807 164.42 94.8397ZM173.114 89.8222C172.317 90.2812 171.674 89.9077 171.674 88.9897C171.674 88.0717 172.317 86.9557 173.114 86.4967C173.91 86.0377 174.554 86.4112 174.554 87.3292C174.554 88.2472 173.906 89.3632 173.114 89.8222ZM177.101 87.5227C176.304 87.9817 175.661 87.6082 175.661 86.6902C175.661 85.7722 176.304 84.6562 177.101 84.1972C177.897 83.7382 178.541 84.1117 178.541 85.0297C178.541 85.9477 177.897 87.0637 177.101 87.5227ZM185.79 82.5052C184.994 82.9642 184.35 82.5907 184.35 81.6727C184.35 80.7547 184.994 79.6387 185.79 79.1797C186.587 78.7207 187.23 79.0942 187.23 80.0122C187.23 80.9302 186.587 82.0462 185.79 82.5052ZM189.782 80.2012C188.985 80.6602 188.342 80.2867 188.342 79.3687C188.342 78.4507 188.985 77.3347 189.782 76.8757C190.578 76.4167 191.222 76.7902 191.222 77.7082C191.222 78.6262 190.574 79.7422 189.782 80.2012Z" fill="#DAF0FF"/>
<path d="M182.965 90.7629L116.536 129.116C116.01 129.422 115.582 129.098 115.582 128.396C115.582 127.694 116.01 126.875 116.536 126.574L182.965 88.2204C183.492 87.9144 183.919 88.2384 183.919 88.9404C183.919 89.6424 183.492 90.4569 182.965 90.7629Z" fill="#E83B1F"/>
<path d="M184.319 113.254L177.52 117.178V111.422L184.319 107.498V113.254Z" fill="#32589D"/>
<path d="M173.928 119.252L167.129 123.176V117.421L173.928 113.497V119.252Z" fill="#32589D"/>
<path d="M184.319 122.645L177.52 126.569V120.818L184.319 116.894V122.645Z" fill="#32589D"/>
<path d="M173.928 128.644L167.129 132.568V126.817L173.928 122.893V128.644Z" fill="#32589D"/>
<path d="M163.538 134.647L156.738 138.566V132.815L163.538 128.891V134.647Z" fill="#E2E2E2"/>
<path d="M153.149 140.645L146.354 144.569V138.814L153.149 134.89V140.645Z" fill="#E2E2E2"/>
<path d="M142.758 146.644L135.963 150.568V144.812L142.758 140.888V146.644Z" fill="#E2E2E2"/>
<path d="M132.367 152.642L125.572 156.566V150.811L132.367 146.887V152.642Z" fill="#E2E2E2"/>
<path d="M121.977 158.641L115.182 162.565V156.809L121.977 152.885V158.641Z" fill="#E2E2E2"/>
<path d="M184.319 132.041L177.52 135.965V130.21L184.319 126.286V132.041Z" fill="#32589D"/>
<path d="M173.928 138.04L167.129 141.964V136.208L173.928 132.284V138.04Z" fill="#32589D"/>
<path d="M163.538 144.038L156.738 147.962V142.207L163.538 138.287V144.038Z" fill="#E2E2E2"/>
<path d="M153.149 150.037L146.354 153.961V148.21L153.149 144.286V150.037Z" fill="#E2E2E2"/>
<path d="M142.758 156.035L135.963 159.959V154.208L142.758 150.284V156.035Z" fill="#E2E2E2"/>
<path d="M132.367 162.034L125.572 165.958V160.207L132.367 156.283V162.034Z" fill="#E2E2E2"/>
<path d="M121.977 168.032L115.182 171.956V166.205L121.977 162.281V168.032Z" fill="#E2E2E2"/>
<path d="M184.319 141.437L177.52 145.357V139.606L184.319 135.682V141.437Z" fill="#32589D"/>
<path d="M173.928 147.436L167.129 151.36V145.604L173.928 141.68V147.436Z" fill="#32589D"/>
<path d="M163.538 153.434L156.738 157.358V151.603L163.538 147.679V153.434Z" fill="#E2E2E2"/>
<path d="M153.149 159.433L146.354 163.357V157.601L153.149 153.677V159.433Z" fill="#E2E2E2"/>
<path d="M142.758 165.431L135.963 169.355V163.6L142.758 159.676V165.431Z" fill="#E2E2E2"/>
<path d="M132.367 171.429L125.572 175.353V169.598L132.367 165.674V171.429Z" fill="#E2E2E2"/>
<path d="M121.977 177.428L115.182 181.352V175.596L121.977 171.672V177.428Z" fill="#E2E2E2"/>
<path d="M184.319 150.829L177.52 154.753V148.997L184.319 145.078V150.829Z" fill="#32589D"/>
<path d="M173.928 156.827L167.129 160.751V155L173.928 151.076V156.827Z" fill="#32589D"/>
<path d="M163.538 162.826L156.738 166.75V160.999L163.538 157.075V162.826Z" fill="#E2E2E2"/>
<path d="M153.149 168.824L146.354 172.748V166.997L153.149 163.073V168.824Z" fill="#E2E2E2"/>
<path d="M142.758 174.823L135.963 178.747V172.996L142.758 169.072V174.823Z" fill="#E2E2E2"/>
<path d="M132.367 180.821L125.572 184.745V178.994L132.367 175.07V180.821Z" fill="#E2E2E2"/>
<path d="M121.977 186.819L115.182 190.743V184.992L121.977 181.068V186.819Z" fill="#E2E2E2"/>
<path d="M104.035 210.251L103.045 209.657L104.071 209.446L104.035 210.251Z" fill="#E2E2E2"/>
<path d="M103.008 142.508V207.992C103.008 210.215 104.569 211.115 106.495 210.003L194.965 158.924C196.891 157.812 198.453 155.108 198.453 152.885V87.4053L103.008 142.508Z" fill="white"/>
<path d="M111.293 123.495C111.388 123.662 111.451 123.878 111.451 124.143C111.451 125.061 110.803 126.182 110.006 126.641C109.795 126.762 109.592 126.821 109.412 126.834C109.651 127.244 110.132 127.347 110.699 127.019C111.496 126.56 112.144 125.439 112.144 124.521C112.139 123.842 111.793 123.468 111.293 123.495Z" fill="#DAF0FF"/>
<path d="M115.279 121.191C115.374 121.358 115.437 121.574 115.437 121.839C115.437 122.757 114.789 123.878 113.992 124.337C113.781 124.458 113.578 124.517 113.398 124.53C113.637 124.94 114.118 125.043 114.685 124.715C115.482 124.256 116.13 123.135 116.13 122.217C116.125 121.542 115.779 121.164 115.279 121.191Z" fill="#DAF0FF"/>
<path d="M123.975 116.169C124.069 116.336 124.132 116.552 124.132 116.817C124.132 117.735 123.484 118.856 122.688 119.315C122.476 119.436 122.274 119.495 122.094 119.508C122.332 119.918 122.814 120.021 123.381 119.693C124.177 119.234 124.825 118.113 124.825 117.195C124.821 116.52 124.474 116.147 123.975 116.169Z" fill="#DAF0FF"/>
<path d="M127.957 113.87C128.052 114.036 128.115 114.252 128.115 114.518C128.115 115.436 127.467 116.556 126.67 117.015C126.459 117.137 126.256 117.195 126.076 117.209C126.315 117.618 126.796 117.722 127.363 117.393C128.16 116.934 128.808 115.814 128.808 114.896C128.808 114.216 128.457 113.843 127.957 113.87Z" fill="#DAF0FF"/>
<path d="M136.651 108.848C136.745 109.014 136.808 109.23 136.808 109.496C136.808 110.414 136.16 111.534 135.364 111.993C135.152 112.115 134.95 112.173 134.77 112.187C135.008 112.596 135.49 112.7 136.057 112.371C136.853 111.912 137.501 110.792 137.501 109.874C137.501 109.199 137.15 108.825 136.651 108.848Z" fill="#DAF0FF"/>
<path d="M140.637 106.544C140.731 106.71 140.794 106.926 140.794 107.192C140.794 108.11 140.146 109.23 139.35 109.689C139.138 109.811 138.936 109.869 138.756 109.883C138.99 110.292 139.476 110.396 140.043 110.067C140.839 109.608 141.487 108.488 141.487 107.57C141.483 106.895 141.136 106.521 140.637 106.544Z" fill="#DAF0FF"/>
<path d="M149.332 101.526C149.427 101.693 149.49 101.909 149.49 102.174C149.49 103.092 148.842 104.213 148.045 104.672C147.834 104.793 147.631 104.852 147.451 104.865C147.69 105.275 148.171 105.378 148.738 105.05C149.535 104.591 150.183 103.47 150.183 102.552C150.178 101.877 149.832 101.499 149.332 101.526Z" fill="#DAF0FF"/>
<path d="M153.318 99.2221C153.413 99.3886 153.476 99.6046 153.476 99.8701C153.476 100.788 152.828 101.909 152.032 102.368C151.82 102.489 151.617 102.552 151.438 102.561C151.676 102.971 152.158 103.074 152.725 102.746C153.521 102.287 154.169 101.166 154.169 100.248C154.165 99.5731 153.813 99.1951 153.318 99.2221Z" fill="#DAF0FF"/>
<path d="M162.012 94.2045C162.106 94.371 162.169 94.587 162.169 94.8525C162.169 95.7705 161.521 96.891 160.725 97.35C160.513 97.4715 160.311 97.53 160.131 97.5435C160.369 97.953 160.851 98.0565 161.418 97.728C162.214 97.269 162.862 96.1485 162.862 95.2305C162.858 94.5555 162.507 94.1775 162.012 94.2045Z" fill="#DAF0FF"/>
<path d="M165.994 91.9008C166.089 92.0673 166.152 92.2833 166.152 92.5488C166.152 93.4668 165.504 94.5873 164.707 95.0463C164.496 95.1678 164.293 95.2263 164.113 95.2398C164.347 95.6493 164.833 95.7528 165.4 95.4243C166.197 94.9653 166.845 93.8448 166.845 92.9268C166.845 92.2518 166.494 91.8738 165.994 91.9008Z" fill="#DAF0FF"/>
<path d="M174.69 86.8832C174.784 87.0497 174.847 87.2657 174.847 87.5312C174.847 88.4492 174.199 89.5697 173.403 90.0287C173.191 90.1502 172.989 90.2087 172.809 90.2222C173.047 90.6317 173.529 90.7352 174.096 90.4067C174.892 89.9477 175.54 88.8272 175.54 87.9092C175.54 87.2342 175.189 86.8562 174.69 86.8832Z" fill="#DAF0FF"/>
<path d="M178.676 84.579C178.77 84.7455 178.833 84.9615 178.833 85.227C178.833 86.145 178.185 87.2655 177.389 87.7245C177.177 87.846 176.975 87.9045 176.795 87.918C177.033 88.3275 177.515 88.431 178.082 88.1025C178.878 87.6435 179.526 86.523 179.526 85.605C179.522 84.93 179.175 84.552 178.676 84.579Z" fill="#DAF0FF"/>
<path d="M187.369 79.5619C187.464 79.7284 187.527 79.9444 187.527 80.2099C187.527 81.1279 186.879 82.2484 186.082 82.7074C185.871 82.8289 185.668 82.8874 185.488 82.9009C185.727 83.3104 186.208 83.4139 186.775 83.0854C187.572 82.6264 188.22 81.5059 188.22 80.5879C188.215 79.9129 187.869 79.5349 187.369 79.5619Z" fill="#DAF0FF"/>
<path d="M191.352 77.2577C191.446 77.4242 191.509 77.6402 191.509 77.9057C191.509 78.8237 190.861 79.9442 190.065 80.4032C189.853 80.5247 189.651 80.5832 189.471 80.5967C189.709 81.0062 190.191 81.1097 190.758 80.7812C191.554 80.3222 192.202 79.2017 192.202 78.2837C192.202 77.6087 191.851 77.2307 191.352 77.2577Z" fill="#DAF0FF"/>
<path d="M194.965 72.3844L106.495 123.464C104.569 124.575 103.008 127.28 103.008 129.503V142.508L198.453 87.4054V74.4004C198.453 72.1729 196.891 71.2729 194.965 72.3844ZM110.698 127.014C109.902 127.473 109.258 127.1 109.258 126.182C109.258 125.264 109.902 124.148 110.698 123.689C111.495 123.23 112.138 123.603 112.138 124.521C112.138 125.439 111.495 126.555 110.698 127.014ZM114.685 124.71C113.889 125.169 113.245 124.796 113.245 123.878C113.245 122.96 113.889 121.844 114.685 121.385C115.482 120.926 116.125 121.299 116.125 122.217C116.125 123.135 115.482 124.251 114.685 124.71ZM123.375 119.693C122.578 120.152 121.935 119.778 121.935 118.86C121.935 117.942 122.578 116.826 123.375 116.367C124.171 115.908 124.815 116.282 124.815 117.2C124.815 118.118 124.171 119.234 123.375 119.693ZM127.366 117.389C126.57 117.848 125.926 117.474 125.926 116.556C125.926 115.638 126.57 114.522 127.366 114.063C128.163 113.604 128.806 113.978 128.806 114.896C128.806 115.814 128.158 116.93 127.366 117.389ZM136.056 112.371C135.259 112.83 134.616 112.457 134.616 111.539C134.616 110.621 135.259 109.505 136.056 109.046C136.852 108.587 137.496 108.96 137.496 109.878C137.496 110.796 136.852 111.912 136.056 112.371ZM140.043 110.072C139.246 110.531 138.603 110.157 138.603 109.239C138.603 108.321 139.246 107.205 140.043 106.746C140.839 106.287 141.483 106.661 141.483 107.579C141.483 108.497 140.839 109.613 140.043 110.072ZM148.737 105.054C147.94 105.513 147.297 105.14 147.297 104.222C147.297 103.304 147.94 102.188 148.737 101.729C149.533 101.27 150.177 101.643 150.177 102.561C150.177 103.479 149.529 104.595 148.737 105.054ZM152.724 102.75C151.927 103.209 151.284 102.836 151.284 101.918C151.284 101 151.927 99.8839 152.724 99.4249C153.52 98.9659 154.164 99.3394 154.164 100.257C154.164 101.175 153.52 102.291 152.724 102.75ZM161.413 97.7329C160.617 98.1919 159.973 97.8184 159.973 96.9004C159.973 95.9824 160.617 94.8664 161.413 94.4074C162.21 93.9484 162.853 94.3219 162.853 95.2399C162.853 96.1579 162.21 97.2739 161.413 97.7329ZM165.405 95.4289C164.608 95.8879 163.965 95.5144 163.965 94.5964C163.965 93.6784 164.608 92.5624 165.405 92.1034C166.201 91.6444 166.845 92.0179 166.845 92.9359C166.845 93.8539 166.197 94.9699 165.405 95.4289ZM174.094 90.4114C173.298 90.8704 172.654 90.4969 172.654 89.5789C172.654 88.6609 173.298 87.5449 174.094 87.0859C174.891 86.6269 175.534 87.0004 175.534 87.9184C175.534 88.8364 174.891 89.9524 174.094 90.4114ZM178.081 88.1074C177.285 88.5664 176.641 88.1929 176.641 87.2749C176.641 86.3569 177.285 85.2409 178.081 84.7819C178.878 84.3229 179.521 84.6964 179.521 85.6144C179.521 86.5324 178.878 87.6484 178.081 88.1074ZM186.771 83.0899C185.974 83.5489 185.331 83.1754 185.331 82.2574C185.331 81.3394 185.974 80.2234 186.771 79.7644C187.567 79.3054 188.211 79.6789 188.211 80.5969C188.211 81.5149 187.567 82.6309 186.771 83.0899ZM190.762 80.7904C189.966 81.2494 189.322 80.8759 189.322 79.9579C189.322 79.0399 189.966 77.9239 190.762 77.4649C191.559 77.0059 192.202 77.3794 192.202 78.2974C192.202 79.2154 191.559 80.3314 190.762 80.7904Z" fill="#8BA8FF"/>
<path d="M183.945 91.3518L117.516 129.705C116.99 130.011 116.562 129.687 116.562 128.985C116.562 128.283 116.99 127.464 117.516 127.163L183.945 88.8048C184.472 88.4988 184.899 88.8228 184.899 89.5248C184.899 90.2313 184.472 91.0458 183.945 91.3518Z" fill="#6080FF"/>
<path d="M185.299 113.843L178.5 117.767V112.011L185.299 108.087V113.843Z" fill="#32589D"/>
<path d="M174.91 119.841L168.115 123.765V118.01L174.91 114.086V119.841Z" fill="#32589D"/>
<path d="M185.299 123.234L178.5 127.158V121.407L185.299 117.483V123.234Z" fill="#32589D"/>
<path d="M174.91 129.233L168.115 133.157V127.406L174.91 123.482V129.233Z" fill="#32589D"/>
<path d="M164.52 135.231L157.725 139.155V133.404L164.52 129.48V135.231Z" fill="#E2E2E2"/>
<path d="M154.129 141.23L147.334 145.154V139.403L154.129 135.479V141.23Z" fill="#E2E2E2"/>
<path d="M143.738 147.229L136.943 151.153V145.402L143.738 141.478V147.229Z" fill="#E2E2E2"/>
<path d="M133.348 153.227L126.553 157.151V151.4L133.348 147.476V153.227Z" fill="#E2E2E2"/>
<path d="M122.957 159.226L116.162 163.15V157.399L122.957 153.475V159.226Z" fill="#E2E2E2"/>
<path d="M185.299 132.63L178.5 136.554V130.799L185.299 126.875V132.63Z" fill="#32589D"/>
<path d="M174.91 138.629L168.115 142.553V136.798L174.91 132.874V138.629Z" fill="#32589D"/>
<path d="M164.52 144.628L157.725 148.552V142.796L164.52 138.872V144.628Z" fill="#E2E2E2"/>
<path d="M154.129 150.626L147.334 154.55V148.795L154.129 144.871V150.626Z" fill="#E2E2E2"/>
<path d="M143.738 156.625L136.943 160.549V154.793L143.738 150.869V156.625Z" fill="#E2E2E2"/>
<path d="M133.348 162.623L126.553 166.547V160.791L133.348 156.867V162.623Z" fill="#E2E2E2"/>
<path d="M122.957 168.621L116.162 172.545V166.79L122.957 162.866V168.621Z" fill="#E2E2E2"/>
<path d="M185.299 142.022L178.5 145.946V140.195L185.299 136.271V142.022Z" fill="#32589D"/>
<path d="M174.91 148.021L168.115 151.945V146.194L174.91 142.27V148.021Z" fill="#32589D"/>
<path d="M164.52 154.019L157.725 157.943V152.192L164.52 148.268V154.019Z" fill="#E2E2E2"/>
<path d="M154.129 160.018L147.334 163.942V158.191L154.129 154.267V160.018Z" fill="#E2E2E2"/>
<path d="M143.738 166.016L136.943 169.94V164.189L143.738 160.265V166.016Z" fill="#E2E2E2"/>
<path d="M133.348 172.019L126.553 175.938V170.187L133.348 166.263V172.019Z" fill="#E2E2E2"/>
<path d="M122.957 178.017L116.162 181.941V176.186L122.957 172.262V178.017Z" fill="#E2E2E2"/>
<path d="M185.299 151.418L178.5 155.342V149.587L185.299 145.663V151.418Z" fill="#32589D"/>
<path d="M174.91 157.417L168.115 161.341V155.585L174.91 151.661V157.417Z" fill="#32589D"/>
<path d="M164.52 163.415L157.725 167.339V161.583L164.52 157.659V163.415Z" fill="#E2E2E2"/>
<path d="M154.129 169.413L147.334 173.337V167.582L154.129 163.658V169.413Z" fill="#E2E2E2"/>
<path d="M143.738 175.412L136.943 179.336V173.58L143.738 169.656V175.412Z" fill="#E2E2E2"/>
<path d="M133.348 181.41L126.553 185.334V179.579L133.348 175.659V181.41Z" fill="#E2E2E2"/>
<path d="M122.957 187.409L116.162 191.333V185.582L122.957 181.658V187.409Z" fill="#E2E2E2"/>
<path d="M112.264 111.206C109.519 109.622 107.291 110.905 107.291 114.077C107.291 117.245 109.519 121.102 112.264 122.686C115.009 124.27 117.236 122.987 117.236 119.815C117.236 116.647 115.009 112.795 112.264 111.206ZM112.264 121.462C110.104 120.215 108.353 117.182 108.353 114.689C108.353 112.196 110.104 111.184 112.264 112.43C114.424 113.677 116.174 116.71 116.174 119.203C116.174 121.7 114.424 122.708 112.264 121.462Z" fill="#5E5D5D"/>
<path d="M115.307 123.401L115.856 122.992L115.388 123.104L115.307 123.401Z" fill="#5E5D5D"/>
<path d="M108.565 110.977L107.805 111.535L108.43 111.719L108.565 110.977Z" fill="#5E5D5D"/>
<path d="M111.58 111.71C108.835 110.126 106.607 111.408 106.607 114.581C106.607 117.749 108.835 121.605 111.58 123.189C114.325 124.773 116.552 123.491 116.552 120.318C116.552 117.146 114.325 113.294 111.58 111.71ZM111.58 121.965C109.42 120.719 107.669 117.686 107.669 115.193C107.669 112.7 109.42 111.687 111.58 112.934C113.74 114.18 115.49 117.213 115.49 119.706C115.49 122.199 113.74 123.212 111.58 121.965Z" fill="#474747"/>
<path d="M111.387 120.728L110.645 119.909L108.512 121.142L109.88 121.84L111.387 120.728Z" fill="#DAF0FF"/>
<path d="M111.414 120.62L109.488 121.736L110.811 123.05L113.273 124.148C113.273 124.148 113.097 123.073 114.114 121.858L111.414 120.62Z" fill="#32589D"/>
<path d="M124.949 103.885C122.204 102.301 119.977 103.583 119.977 106.756C119.977 109.924 122.204 113.78 124.949 115.364C127.694 116.948 129.922 115.666 129.922 112.493C129.922 109.325 127.694 105.469 124.949 103.885ZM124.949 114.14C122.789 112.894 121.039 109.861 121.039 107.368C121.039 104.875 122.789 103.862 124.949 105.109C127.109 106.355 128.86 109.388 128.86 111.881C128.86 114.374 127.109 115.387 124.949 114.14Z" fill="#5E5D5D"/>
<path d="M127.992 116.075L128.541 115.666L128.073 115.778L127.992 116.075Z" fill="#5E5D5D"/>
<path d="M121.251 103.651L120.49 104.209L121.116 104.393L121.251 103.651Z" fill="#5E5D5D"/>
<path d="M124.265 104.384C121.52 102.8 119.293 104.083 119.293 107.255C119.293 110.423 121.52 114.28 124.265 115.864C127.01 117.448 129.238 116.165 129.238 112.993C129.238 109.825 127.01 105.968 124.265 104.384ZM124.265 114.64C122.105 113.393 120.355 110.36 120.355 107.867C120.355 105.374 122.105 104.362 124.265 105.608C126.425 106.855 128.176 109.888 128.176 112.381C128.176 114.874 126.425 115.886 124.265 114.64Z" fill="#474747"/>
<path d="M124.073 113.402L123.33 112.583L121.197 113.816L122.565 114.514L124.073 113.402Z" fill="#DAF0FF"/>
<path d="M124.1 113.299L122.174 114.415L123.497 115.729L125.958 116.827C125.958 116.827 125.783 115.751 126.8 114.536L124.1 113.299Z" fill="#32589D"/>
<path d="M120.959 106.188C118.214 104.604 115.986 105.887 115.986 109.059C115.986 112.227 118.214 116.084 120.959 117.668C123.704 119.252 125.931 117.969 125.931 114.797C125.927 111.629 123.704 107.777 120.959 106.188ZM120.959 116.444C118.799 115.197 117.048 112.164 117.048 109.671C117.048 107.178 118.799 106.166 120.959 107.412C123.119 108.659 124.869 111.692 124.869 114.185C124.869 116.682 123.119 117.695 120.959 116.444Z" fill="#5E5D5D"/>
<path d="M123.996 118.384L124.55 117.974L124.077 118.087L123.996 118.384Z" fill="#5E5D5D"/>
<path d="M117.261 105.959L116.5 106.517L117.125 106.701L117.261 105.959Z" fill="#5E5D5D"/>
<path d="M120.275 106.692C117.53 105.108 115.303 106.391 115.303 109.563C115.303 112.731 117.53 116.588 120.275 118.172C123.02 119.756 125.248 118.473 125.248 115.301C125.243 112.133 123.02 108.276 120.275 106.692ZM120.275 116.948C118.115 115.701 116.365 112.668 116.365 110.175C116.365 107.682 118.115 106.67 120.275 107.916C122.435 109.163 124.186 112.196 124.186 114.689C124.186 117.182 122.435 118.194 120.275 116.948Z" fill="#474747"/>
<path d="M120.081 115.711L119.338 114.892L117.205 116.125L118.573 116.822L120.081 115.711Z" fill="#DAF0FF"/>
<path d="M120.104 115.603L118.178 116.719L119.501 118.033L121.962 119.131C121.962 119.131 121.787 118.055 122.804 116.84L120.104 115.603Z" fill="#32589D"/>
<path d="M137.64 96.5405C134.895 94.9565 132.668 96.239 132.668 99.4115C132.668 102.579 134.895 106.436 137.64 108.02C140.385 109.604 142.613 108.322 142.613 105.149C142.608 101.977 140.385 98.1245 137.64 96.5405ZM137.64 106.796C135.48 105.55 133.73 102.517 133.73 100.024C133.73 97.5305 135.48 96.518 137.64 97.7645C139.8 99.011 141.551 102.044 141.551 104.537C141.551 107.03 139.8 108.043 137.64 106.796Z" fill="#5E5D5D"/>
<path d="M140.678 108.731L141.231 108.321L140.759 108.434L140.678 108.731Z" fill="#5E5D5D"/>
<path d="M133.942 96.3066L133.182 96.8646L133.807 97.0491L133.942 96.3066Z" fill="#5E5D5D"/>
<path d="M136.957 97.04C134.212 95.456 131.984 96.7385 131.984 99.911C131.984 103.079 134.212 106.936 136.957 108.52C139.702 110.104 141.929 108.821 141.929 105.649C141.925 102.481 139.702 98.624 136.957 97.04ZM136.957 107.296C134.797 106.049 133.046 103.016 133.046 100.523C133.046 98.03 134.797 97.0175 136.957 98.264C139.117 99.5105 140.867 102.544 140.867 105.037C140.867 107.53 139.117 108.542 136.957 107.296Z" fill="#474747"/>
<path d="M136.759 106.058L136.044 105.248L133.906 106.481L135.256 107.17L136.759 106.058Z" fill="#DAF0FF"/>
<path d="M136.804 105.977L134.873 107.08L136.183 108.38L138.622 109.469C138.622 109.469 138.469 108.403 139.486 107.192L136.804 105.977Z" fill="#32589D"/>
<path d="M133.644 98.8447C130.899 97.2607 128.672 98.5432 128.672 101.716C128.672 104.888 130.899 108.74 133.644 110.324C136.389 111.908 138.617 110.626 138.617 107.453C138.617 104.285 136.394 100.433 133.644 98.8447ZM133.644 109.1C131.484 107.854 129.734 104.821 129.734 102.328C129.734 99.8347 131.484 98.8222 133.644 100.069C135.804 101.315 137.555 104.348 137.555 106.841C137.555 109.339 135.804 110.347 133.644 109.1Z" fill="#5E5D5D"/>
<path d="M136.688 111.04L137.237 110.63L136.768 110.743L136.688 111.04Z" fill="#5E5D5D"/>
<path d="M129.945 98.6152L129.189 99.1732L129.815 99.3577L129.945 98.6152Z" fill="#5E5D5D"/>
<path d="M132.961 99.3486C130.216 97.7646 127.988 99.0471 127.988 102.22C127.988 105.388 130.216 109.244 132.961 110.828C135.706 112.412 137.933 111.13 137.933 107.957C137.933 104.785 135.706 100.933 132.961 99.3486ZM132.961 109.604C130.801 108.358 129.05 105.325 129.05 102.832C129.05 100.339 130.801 99.3261 132.961 100.573C135.121 101.819 136.871 104.852 136.871 107.345C136.871 109.838 135.121 110.851 132.961 109.604Z" fill="#474747"/>
<path d="M132.767 108.367L132.029 107.548L129.896 108.781L131.264 109.478L132.767 108.367Z" fill="#DAF0FF"/>
<path d="M132.793 108.259L130.867 109.375L132.19 110.689L134.634 111.778C134.634 111.778 134.476 110.725 135.489 109.51L132.793 108.259Z" fill="#32589D"/>
<path d="M150.326 89.1924C147.581 87.6084 145.354 88.8909 145.354 92.0634C145.354 95.2314 147.581 99.0879 150.326 100.672C153.071 102.256 155.299 100.973 155.299 97.8009C155.299 94.6329 153.071 90.7809 150.326 89.1924ZM150.326 99.4479C148.166 98.2014 146.416 95.1684 146.416 92.6754C146.416 90.1824 148.166 89.1699 150.326 90.4164C152.486 91.6629 154.237 94.6959 154.237 97.1889C154.237 99.6819 152.486 100.699 150.326 99.4479Z" fill="#5E5D5D"/>
<path d="M153.369 101.388L153.918 100.978L153.45 101.091L153.369 101.388Z" fill="#5E5D5D"/>
<path d="M146.628 88.9629L145.867 89.5209L146.493 89.7054L146.628 88.9629Z" fill="#5E5D5D"/>
<path d="M149.642 89.6963C146.897 88.1123 144.67 89.3948 144.67 92.5673C144.67 95.7398 146.897 99.5918 149.642 101.176C152.387 102.76 154.615 101.477 154.615 98.3048C154.615 95.1323 152.387 91.2803 149.642 89.6963ZM149.642 99.9518C147.482 98.7053 145.732 95.6723 145.732 93.1793C145.732 90.6863 147.482 89.6738 149.642 90.9203C151.802 92.1668 153.553 95.1998 153.553 97.6928C153.553 100.186 151.802 101.198 149.642 99.9518Z" fill="#474747"/>
<path d="M149.449 98.7144L148.733 97.9224L146.609 99.1464L147.941 99.8259L149.449 98.7144Z" fill="#DAF0FF"/>
<path d="M149.516 98.624L147.559 99.7535L148.873 101.032L151.298 102.116C151.298 102.116 151.172 101.068 152.189 99.857L149.516 98.624Z" fill="#32589D"/>
<path d="M146.334 91.5005C143.589 89.9165 141.361 91.199 141.361 94.3715C141.361 97.5395 143.589 101.396 146.334 102.98C149.079 104.564 151.306 103.281 151.306 100.109C151.306 96.941 149.079 93.0845 146.334 91.5005ZM146.334 101.756C144.174 100.509 142.423 97.4765 142.423 94.9835C142.423 92.4905 144.174 91.478 146.334 92.7245C148.494 93.971 150.244 97.004 150.244 99.497C150.244 101.994 148.494 103.002 146.334 101.756Z" fill="#5E5D5D"/>
<path d="M149.377 103.696L149.926 103.286L149.458 103.394L149.377 103.696Z" fill="#5E5D5D"/>
<path d="M142.636 91.271L141.875 91.829L142.5 92.0135L142.636 91.271Z" fill="#5E5D5D"/>
<path d="M145.65 92C142.905 90.416 140.678 91.6985 140.678 94.871C140.678 98.0435 142.905 101.895 145.65 103.479C148.395 105.063 150.623 103.781 150.623 100.608C150.623 97.4405 148.395 93.5885 145.65 92ZM145.65 102.255C143.49 101.009 141.74 97.976 141.74 95.483C141.74 92.99 143.49 91.9775 145.65 93.224C147.81 94.4705 149.561 97.5035 149.561 99.9965C149.561 102.494 147.81 103.506 145.65 102.255Z" fill="#474747"/>
<path d="M145.456 101.023L144.736 100.226L142.607 101.45L143.948 102.134L145.456 101.023Z" fill="#DAF0FF"/>
<path d="M145.52 100.933L143.576 102.053L144.877 103.34L147.307 104.438C147.307 104.438 147.172 103.376 148.189 102.161L145.52 100.933Z" fill="#32589D"/>
<path d="M163.015 81.8481C160.27 80.2641 158.043 81.5466 158.043 84.7191C158.043 87.8871 160.27 91.7436 163.015 93.3276C165.76 94.9116 167.988 93.6291 167.988 90.4566C167.988 87.2886 165.76 83.4366 163.015 81.8481ZM163.015 92.1036C160.855 90.8571 159.105 87.8241 159.105 85.3311C159.105 82.8381 160.855 81.8256 163.015 83.0721C165.175 84.3186 166.926 87.3516 166.926 89.8446C166.926 92.3376 165.175 93.3501 163.015 92.1036Z" fill="#5E5D5D"/>
<path d="M166.059 94.0433L166.608 93.6338L166.135 93.7463L166.059 94.0433Z" fill="#5E5D5D"/>
<path d="M159.317 81.6187L158.557 82.1767L159.182 82.3612L159.317 81.6187Z" fill="#5E5D5D"/>
<path d="M162.332 82.352C159.587 80.768 157.359 82.0505 157.359 85.223C157.359 88.391 159.587 92.2475 162.332 93.8315C165.077 95.4155 167.304 94.133 167.304 90.9605C167.304 87.788 165.077 83.936 162.332 82.352ZM162.332 92.6075C160.172 91.361 158.421 88.328 158.421 85.835C158.421 83.342 160.172 82.3295 162.332 83.576C164.492 84.8225 166.242 87.8555 166.242 90.3485C166.242 92.8415 164.492 93.854 162.332 92.6075Z" fill="#474747"/>
<path d="M162.138 91.3703L161.431 90.5918L159.316 91.8113L160.63 92.4818L162.138 91.3703Z" fill="#DAF0FF"/>
<path d="M162.218 91.2891L160.252 92.4231L161.552 93.6876L163.964 94.7631C163.964 94.7631 163.852 93.7371 164.864 92.5221L162.218 91.2891Z" fill="#32589D"/>
<path d="M159.023 84.1567C156.278 82.5727 154.051 83.8552 154.051 87.0277C154.051 90.1957 156.278 94.0522 159.023 95.6362C161.768 97.2202 163.996 95.9377 163.996 92.7652C163.991 89.5972 161.768 85.7407 159.023 84.1567ZM159.023 94.4122C156.863 93.1657 155.113 90.1327 155.113 87.6397C155.113 85.1467 156.863 84.1342 159.023 85.3807C161.183 86.6272 162.934 89.6602 162.934 92.1532C162.934 94.6507 161.183 95.6587 159.023 94.4122Z" fill="#5E5D5D"/>
<path d="M162.061 96.347L162.614 95.9375L162.142 96.05L162.061 96.347Z" fill="#5E5D5D"/>
<path d="M155.325 83.9272L154.564 84.4852L155.19 84.6652L155.325 83.9272Z" fill="#5E5D5D"/>
<path d="M158.34 84.6562C155.595 83.0722 153.367 84.3547 153.367 87.5272C153.367 90.6952 155.595 94.5517 158.34 96.1357C161.085 97.7197 163.312 96.4372 163.312 93.2647C163.308 90.0967 161.085 86.2447 158.34 84.6562ZM158.34 94.9117C156.18 93.6652 154.429 90.6322 154.429 88.1392C154.429 85.6462 156.18 84.6337 158.34 85.8802C160.5 87.1267 162.25 90.1597 162.25 92.6527C162.25 95.1502 160.5 96.1582 158.34 94.9117Z" fill="#474747"/>
<path d="M158.142 93.674L157.435 92.8955L155.32 94.1195L156.639 94.79L158.142 93.674Z" fill="#DAF0FF"/>
<path d="M158.228 93.5977L156.266 94.7317L157.566 96.0007L159.983 97.0807C159.983 97.0807 159.875 96.0367 160.892 94.8262L158.228 93.5977Z" fill="#32589D"/>
<path d="M175.705 74.5044C172.96 72.9204 170.732 74.2029 170.732 77.3754C170.732 80.5434 172.96 84.3999 175.705 85.9839C178.45 87.5679 180.677 86.2854 180.677 83.1129C180.673 79.9449 178.45 76.0884 175.705 74.5044ZM175.705 84.7599C173.545 83.5134 171.794 80.4804 171.794 77.9874C171.794 75.4944 173.545 74.4819 175.705 75.7284C177.865 76.9749 179.615 80.0079 179.615 82.5009C179.615 84.9984 177.865 86.0064 175.705 84.7599Z" fill="#5E5D5D"/>
<path d="M178.742 86.6992L179.291 86.2852L178.823 86.3977L178.742 86.6992Z" fill="#5E5D5D"/>
<path d="M172.007 74.2749L171.246 74.8329L171.872 75.0129L172.007 74.2749Z" fill="#5E5D5D"/>
<path d="M175.021 75.0039C172.276 73.4199 170.049 74.7024 170.049 77.8749C170.049 81.0429 172.276 84.8994 175.021 86.4834C177.766 88.0674 179.994 86.7849 179.994 83.6124C179.989 80.4444 177.766 76.5924 175.021 75.0039ZM175.021 85.2594C172.861 84.0129 171.111 80.9799 171.111 78.4869C171.111 75.9939 172.861 74.9814 175.021 76.2279C177.181 77.4744 178.932 80.5074 178.932 83.0004C178.932 85.4979 177.177 86.5059 175.021 85.2594Z" fill="#474747"/>
<path d="M174.823 84.0218L174.13 83.2568L172.02 84.4763L173.32 85.1378L174.823 84.0218Z" fill="#DAF0FF"/>
<path d="M174.937 83.9497L172.971 85.0837L174.244 86.3482L176.647 87.4192C176.647 87.4192 176.53 86.3662 177.57 85.1872L174.937 83.9497Z" fill="#32589D"/>
<path d="M171.709 76.8125C168.964 75.2285 166.736 76.511 166.736 79.6835C166.736 82.8515 168.964 86.708 171.709 88.292C174.454 89.876 176.681 88.5935 176.681 85.421C176.681 82.253 174.454 78.3965 171.709 76.8125ZM171.709 87.068C169.549 85.8215 167.798 82.7885 167.798 80.2955C167.798 77.8025 169.549 76.79 171.709 78.0365C173.869 79.283 175.619 82.316 175.619 84.809C175.619 87.302 173.869 88.3145 171.709 87.068Z" fill="#5E5D5D"/>
<path d="M174.752 89.0028L175.301 88.5933L174.833 88.7058L174.752 89.0028Z" fill="#5E5D5D"/>
<path d="M168.011 76.583L167.25 77.1365L167.875 77.321L168.011 76.583Z" fill="#5E5D5D"/>
<path d="M171.025 77.312C168.28 75.728 166.053 77.0105 166.053 80.183C166.053 83.351 168.28 87.2075 171.025 88.7915C173.77 90.3755 175.998 89.093 175.998 85.9205C175.998 82.7525 173.77 78.896 171.025 77.312ZM171.025 87.5675C168.865 86.321 167.115 83.288 167.115 80.795C167.115 78.302 168.865 77.2895 171.025 78.536C173.185 79.7825 174.936 82.8155 174.936 85.3085C174.936 87.8015 173.185 88.814 171.025 87.5675Z" fill="#474747"/>
<path d="M170.833 86.3299L170.14 85.5649L168.029 86.7799L169.325 87.4459L170.833 86.3299Z" fill="#DAF0FF"/>
<path d="M170.932 86.2583L168.979 87.3878L170.252 88.6523L172.66 89.7278C172.66 89.7278 172.511 88.6523 173.587 87.4868L170.932 86.2583Z" fill="#32589D"/>
<path d="M188.39 67.1601C185.645 65.5761 183.418 66.8586 183.418 70.0311C183.418 73.1991 185.645 77.0556 188.39 78.6396C191.135 80.2236 193.363 78.9411 193.363 75.7686C193.363 72.6006 191.135 68.7441 188.39 67.1601ZM188.39 77.4156C186.23 76.1691 184.48 73.1361 184.48 70.6431C184.48 68.1501 186.23 67.1376 188.39 68.3841C190.55 69.6306 192.301 72.6636 192.301 75.1566C192.301 77.6496 190.55 78.6621 188.39 77.4156Z" fill="#5E5D5D"/>
<path d="M191.434 79.3504L191.983 78.9409L191.515 79.0534L191.434 79.3504Z" fill="#5E5D5D"/>
<path d="M184.692 66.9307L183.932 67.4887L184.557 67.6687L184.692 66.9307Z" fill="#5E5D5D"/>
<path d="M187.707 67.6596C184.962 66.0756 182.734 67.3581 182.734 70.5306C182.734 73.6986 184.962 77.5551 187.707 79.1391C190.452 80.7231 192.679 79.4406 192.679 76.2681C192.679 73.1001 190.452 69.2436 187.707 67.6596ZM187.707 77.9151C185.547 76.6686 183.796 73.6356 183.796 71.1426C183.796 68.6496 185.547 67.6371 187.707 68.8836C189.867 70.1301 191.617 73.1631 191.617 75.6561C191.617 78.1536 189.867 79.1616 187.707 77.9151Z" fill="#474747"/>
<path d="M187.514 76.6778L186.83 75.9263L184.729 77.1413L186.007 77.7938L187.514 76.6778Z" fill="#DAF0FF"/>
<path d="M187.627 76.6235L185.674 77.753L186.934 79.004L189.323 80.0705C189.323 80.0705 189.22 78.986 190.282 77.8385L187.627 76.6235Z" fill="#32589D"/>
<path d="M184.4 69.4687C181.655 67.8847 179.428 69.1672 179.428 72.3397C179.428 75.5122 181.655 79.3642 184.4 80.9482C187.145 82.5322 189.373 81.2497 189.373 78.0772C189.373 74.9047 187.145 71.0527 184.4 69.4687ZM184.4 79.7242C182.24 78.4777 180.49 75.4447 180.49 72.9517C180.49 70.4587 182.24 69.4462 184.4 70.6927C186.56 71.9392 188.311 74.9722 188.311 77.4652C188.311 79.9582 186.56 80.9707 184.4 79.7242Z" fill="#5E5D5D"/>
<path d="M187.443 81.659L187.992 81.2495L187.52 81.362L187.443 81.659Z" fill="#5E5D5D"/>
<path d="M180.702 69.2393L179.941 69.7928L180.567 69.9773L180.702 69.2393Z" fill="#5E5D5D"/>
<path d="M183.717 69.9682C180.972 68.3842 178.744 69.6667 178.744 72.8392C178.744 76.0072 180.972 79.8637 183.717 81.4477C186.462 83.0317 188.689 81.7492 188.689 78.5767C188.689 75.4087 186.462 71.5522 183.717 69.9682ZM183.717 80.2237C181.557 78.9772 179.806 75.9442 179.806 73.4512C179.806 70.9582 181.557 69.9457 183.717 71.1922C185.877 72.4387 187.627 75.4717 187.627 77.9647C187.627 80.4577 185.877 81.4702 183.717 80.2237Z" fill="#474747"/>
<path d="M183.522 78.986L182.838 78.23L180.732 79.445L182.015 80.102L183.522 78.986Z" fill="#DAF0FF"/>
<path d="M183.64 78.9233L181.678 80.0573L182.942 81.3083L185.341 82.4063C185.341 82.4063 185.228 81.3038 186.29 80.1383L183.64 78.9233Z" fill="#32589D"/>
<path d="M108.277 113.515C105.532 111.931 103.305 113.213 103.305 116.386C103.305 119.554 105.532 123.41 108.277 124.994C111.022 126.578 113.25 125.296 113.25 122.123C113.245 118.951 111.022 115.099 108.277 113.515ZM108.277 123.77C106.117 122.524 104.367 119.491 104.367 116.998C104.367 114.505 106.117 113.492 108.277 114.739C110.437 115.985 112.188 119.018 112.188 121.511C112.188 124.004 110.437 125.017 108.277 123.77Z" fill="#5E5D5D"/>
<path d="M111.314 125.705L111.863 125.295L111.395 125.408L111.314 125.705Z" fill="#5E5D5D"/>
<path d="M104.579 113.281L103.818 113.839L104.444 114.023L104.579 113.281Z" fill="#5E5D5D"/>
<path d="M107.594 114.014C104.849 112.43 102.621 113.713 102.621 116.885C102.621 120.053 104.849 123.91 107.594 125.494C110.339 127.078 112.566 125.795 112.566 122.623C112.562 119.455 110.339 115.598 107.594 114.014ZM107.594 124.27C105.434 123.023 103.683 119.99 103.683 117.497C103.683 115.004 105.434 113.992 107.594 115.238C109.754 116.485 111.504 119.518 111.504 122.011C111.504 124.504 109.754 125.516 107.594 124.27Z" fill="#474747"/>
<path d="M103.008 142.508L102.027 141.919V140.218L103.008 140.848V142.508Z" fill="#DAF0FF"/>
<path d="M107.395 123.032L106.653 122.213C106.653 122.213 105.109 123.027 104.592 123.54L105.888 124.143L107.395 123.032Z" fill="#DAF0FF"/>
<path d="M107.422 122.929C107.422 122.929 105.807 123.757 105.06 124.652C104.308 125.548 109.281 126.457 109.281 126.457C109.281 126.457 109.105 125.381 110.122 124.166L107.422 122.929Z" fill="#32589D"/>
<path d="M148.103 158.888C147.374 158.888 146.699 158.717 146.092 158.366C144.661 157.538 143.873 155.855 143.873 153.623C143.873 149.316 146.906 144.065 150.632 141.914C152.567 140.798 154.417 140.636 155.848 141.464C157.279 142.292 158.066 143.975 158.066 146.207C158.066 150.513 155.033 155.765 151.307 157.916C150.191 158.559 149.102 158.888 148.103 158.888ZM153.841 142.292C153.08 142.292 152.221 142.557 151.312 143.079C147.955 145.019 145.228 149.744 145.228 153.618C145.228 155.346 145.777 156.615 146.771 157.191C147.766 157.767 149.138 157.605 150.637 156.741C153.994 154.802 156.721 150.077 156.721 146.202C156.721 144.474 156.172 143.205 155.177 142.629C154.786 142.404 154.331 142.292 153.841 142.292Z" fill="#32589D"/>
<path d="M221.04 218.981C221.04 220.129 220.113 221.056 218.965 221.056C217.818 221.056 216.891 220.129 216.891 218.981C216.891 217.834 217.818 216.907 218.965 216.907C220.113 216.907 221.04 217.838 221.04 218.981Z" fill="#2D2D2D"/>
<path d="M239.395 197.88C240.541 197.88 241.469 196.952 241.469 195.806C241.469 194.66 240.541 193.731 239.395 193.731C238.249 193.731 237.32 194.66 237.32 195.806C237.32 196.952 238.249 197.88 239.395 197.88Z" fill="#2D2D2D"/>
<path d="M245.934 211.646C245.934 212.794 245.007 213.721 243.86 213.721C242.712 213.721 241.785 212.794 241.785 211.646C241.785 210.499 242.712 209.572 243.86 209.572C245.007 209.572 245.934 210.499 245.934 211.646Z" fill="#2D2D2D"/>
<path d="M201.114 207.736C201.114 208.883 200.187 209.81 199.039 209.81C197.892 209.81 196.965 208.883 196.965 207.736C196.965 206.588 197.892 205.661 199.039 205.661C200.182 205.661 201.114 206.588 201.114 207.736Z" fill="#2D2D2D"/>
<path d="M211.86 195.797C213.005 195.797 213.934 194.868 213.934 193.722C213.934 192.577 213.005 191.648 211.86 191.648C210.714 191.648 209.785 192.577 209.785 193.722C209.785 194.868 210.714 195.797 211.86 195.797Z" fill="#2D2D2D"/>
<path d="M224.212 202.709L221.939 201.395L238.18 194.326C238.855 193.934 239.876 193.894 240.461 194.231L240.619 194.321C241.204 194.659 241.132 195.248 240.457 195.635L224.212 202.709Z" fill="#2D2D2D"/>
<path d="M223.884 201.575L221.017 202.417L210.532 192.845C210.127 192.386 210.442 191.828 211.234 191.599C212.026 191.365 212.994 191.549 213.399 192.004L223.884 201.575Z" fill="#2D2D2D"/>
<path d="M221.913 201.404L222.417 203.24L199.611 207.632C198.733 207.713 197.91 207.367 197.77 206.863C197.631 206.354 198.229 205.882 199.107 205.801L221.913 201.404Z" fill="#2D2D2D"/>
<path d="M221.022 202.435L224.199 202.727L220.586 218.203C220.446 218.711 219.623 219.053 218.745 218.972C217.868 218.891 217.269 218.419 217.409 217.91L221.022 202.435Z" fill="#2D2D2D"/>
<path d="M222.443 203.24L223.901 201.584L244.475 209.945C245.267 210.179 245.582 210.737 245.177 211.191C244.772 211.65 243.805 211.83 243.013 211.596L222.443 203.24Z" fill="#2D2D2D"/>
<path d="M224.117 203.096C223.329 203.551 222.056 203.551 221.268 203.096C220.481 202.642 220.481 201.904 221.268 201.454C222.056 200.999 223.329 200.999 224.117 201.454C224.904 201.904 224.904 202.642 224.117 203.096Z" fill="#2D2D2D"/>
<path d="M197.748 205.414V206.705L198.693 206.822L198.846 205.688L197.748 205.414Z" fill="#2D2D2D"/>
<path d="M210.357 192.458V191.171C210.357 191.171 210.69 191.369 210.834 191.513C210.978 191.657 211.073 191.873 211.073 191.896C211.073 191.914 210.357 192.458 210.357 192.458Z" fill="#2D2D2D"/>
<path d="M241.015 194.87V193.583L239.971 194.461L241.015 194.87Z" fill="#2D2D2D"/>
<path d="M245.358 210.773V209.455L244.971 209.59L244.688 210.188L245.358 210.773Z" fill="#2D2D2D"/>
<path d="M217.391 218.117V216.781L218.21 217.199L217.391 218.117Z" fill="#2D2D2D"/>
<path d="M224.212 201.422L221.939 200.108L238.18 193.039C238.855 192.647 239.876 192.607 240.461 192.944L240.619 193.034C241.204 193.372 241.132 193.961 240.457 194.348L224.212 201.422Z" fill="#515151"/>
<path d="M223.884 200.284L221.017 201.125L210.532 191.554C210.127 191.095 210.442 190.537 211.234 190.307C212.026 190.073 212.994 190.258 213.399 190.712L223.884 200.284Z" fill="#515151"/>
<path d="M221.913 200.117L222.417 201.953L199.611 206.345C198.733 206.426 197.91 206.08 197.77 205.576C197.631 205.067 198.229 204.595 199.107 204.514L221.913 200.117Z" fill="#515151"/>
<path d="M221.022 201.147L224.199 201.44L220.586 216.915C220.446 217.424 219.623 217.766 218.745 217.685C217.868 217.604 217.269 217.127 217.409 216.623L221.022 201.147Z" fill="#515151"/>
<path d="M222.443 201.953L223.901 200.297L244.475 208.658C245.267 208.892 245.582 209.45 245.177 209.905C244.772 210.364 243.805 210.544 243.013 210.31L222.443 201.953Z" fill="#515151"/>
<path d="M224.117 201.805C223.329 202.259 222.056 202.259 221.268 201.805C220.481 201.35 220.481 200.612 221.268 200.162C222.056 199.708 223.329 199.708 224.117 200.162C224.904 200.617 224.904 201.35 224.117 201.805Z" fill="#515151"/>
<path d="M222.696 202.111C221.778 202.111 221.031 201.364 221.031 200.446V181.181H224.361V200.446C224.361 201.368 223.614 202.111 222.696 202.111Z" fill="#2D2D2D"/>
<path d="M197.049 168.122L196.698 167.92C195.407 167.173 195.569 165.872 197.058 165.008L207.575 158.938C209.069 158.078 211.323 157.984 212.615 158.731L212.966 158.933C214.257 159.68 214.095 160.981 212.606 161.845L202.089 167.915C200.6 168.775 198.345 168.865 197.049 168.122Z" fill="#2D2D2D"/>
<path d="M213.844 158.299V160.292L197.527 167.303L195.83 166.651V164.819L200.384 162.587L213.844 158.299Z" fill="#2D2D2D"/>
<path d="M197.049 166.336L196.698 166.133C195.407 165.386 195.569 164.086 197.058 163.222L207.575 157.151C209.069 156.292 211.323 156.197 212.615 156.944L212.966 157.147C214.257 157.894 214.095 159.194 212.606 160.058L202.089 166.129C200.6 166.988 198.345 167.078 197.049 166.336Z" fill="#515151"/>
<path d="M222.524 167.686L213.047 173.158V129.589C213.047 126.34 215.022 122.569 217.457 121.16L218.114 120.782C220.548 119.374 222.524 120.868 222.524 124.117V167.686Z" fill="#515151"/>
<path d="M219.32 174.809L197.288 187.517C196.195 188.147 195.312 187.477 195.312 186.023C195.312 184.57 196.199 182.878 197.288 182.248L222.524 167.69V168.685C222.524 171.043 221.089 173.788 219.32 174.809Z" fill="#515151"/>
<path d="M243.148 133.076L220.941 120.521L218.898 125.854V171.164L211.878 176.884L195.93 187.576L218.344 200.248L231.232 190.33L238.572 184.061L243.148 133.076Z" fill="#515151"/>
<path d="M244.838 180.299L235.361 185.771V142.202C235.361 138.953 237.337 135.182 239.771 133.774L240.428 133.396C242.863 131.987 244.838 133.481 244.838 136.73V180.299Z" fill="#2D2D2D"/>
<path d="M241.631 187.418L219.599 200.126C218.505 200.756 217.623 200.085 217.623 198.632C217.623 197.178 218.51 195.486 219.599 194.856L244.835 180.299V181.293C244.839 183.651 243.404 186.396 241.631 187.418Z" fill="#2D2D2D"/>
<path d="M204.524 192.431C204.524 192.431 203.93 190.852 205.104 189.677C206.283 188.498 212.48 185.893 212.925 185.609C213.375 185.33 215.603 183.688 215.603 183.688L216.282 182.167C216.282 182.167 203.7 183.391 203.534 183.589C203.367 183.787 197.643 188.917 197.814 189.142C197.981 189.367 201.756 190.28 201.756 190.28L202.485 191.279L204.524 192.431Z" fill="#2D2D2D"/>
<path d="M198.563 201.872C198.563 201.872 195.318 203.955 194.22 205.179C193.122 206.403 190.949 208.919 191.844 210.116C192.74 211.313 195.759 211.983 199.004 208.991C202.248 206.003 201.326 205.823 204.093 204.342C206.856 202.862 207.621 201.246 207.288 200.324C206.955 199.401 205.587 197.772 204.845 198.123C204.098 198.479 198.563 201.872 198.563 201.872Z" fill="#1E262D"/>
<path d="M214.348 210.616C214.348 210.616 213.183 213.181 212.584 214.031C211.986 214.882 209.074 219.787 210.591 220.916C212.112 222.046 214.992 221.731 217.269 219.256C219.546 216.781 220.054 213.77 220.617 212.785C221.179 211.795 222.579 209.158 221.913 207.637C221.251 206.116 221.103 205.85 221.103 205.85L214.348 210.616Z" fill="#1E262D"/>
<path d="M202.563 174.107C202.563 174.107 192.92 183.624 191.34 188.399C191.34 188.399 190.674 190.982 192.537 193.007C194.4 195.032 198.36 201.651 198.36 201.651C198.36 201.651 201.317 205.224 205.128 202.367C205.128 202.367 206.852 199.613 205.794 197.777C204.732 195.945 201.911 190.091 201.911 190.091C201.911 190.091 208.094 185.834 211.149 184.763C214.2 183.687 215.829 182.859 215.829 182.859C215.829 182.859 215.276 185.739 213.039 188.547C210.807 191.355 207.068 195.873 208.31 199.014C209.556 202.155 210.276 203.127 211.446 204.936C212.616 206.745 213.723 210.516 214.722 210.908C215.721 211.299 220.329 211.754 221.081 208.748C221.828 205.746 219.506 199.91 218.462 197.934C218.462 197.934 230.936 183.543 232.124 181.964C233.307 180.38 206.42 171.663 202.563 174.107Z" fill="#2B323A"/>
<path d="M205.789 197.777C204.727 195.946 201.906 190.091 201.906 190.091C201.906 190.091 208.089 185.834 211.144 184.763C214.195 183.688 215.824 182.86 215.824 182.86C216.409 182.05 218.304 178.958 219.15 176.506C212.116 174.445 204.48 172.892 202.558 174.107C203.242 175.79 206.824 175.777 206.824 175.777C206.824 175.777 208.165 179.035 209.052 179.453C209.938 179.872 212.067 179.413 212.067 179.413C212.067 179.413 211.725 179.948 210.208 181.042C208.692 182.135 199.201 189.911 199.201 189.911C199.201 189.911 199.741 190.217 202.27 194.789C204.799 199.357 205.123 202.367 205.123 202.367C205.123 202.367 206.851 199.609 205.789 197.777Z" fill="#1E262D"/>
<path d="M227.11 179.156C221.535 178.625 215.041 178.576 216.504 181.505C218.983 186.473 223.969 186.694 223.969 186.694C223.938 188.516 216.283 197.332 216.283 197.332C216.283 197.332 216.283 197.332 218.065 200.801C219.847 204.271 219.627 210.584 219.627 210.584C220.315 210.211 220.86 209.63 221.08 208.757C221.827 205.756 219.505 199.919 218.461 197.944C218.461 197.944 230.935 183.553 232.123 181.973C232.47 181.496 230.359 180.398 227.11 179.156Z" fill="#1E262D"/>
<path d="M192.812 148.741L194.297 147.589C194.297 147.589 202.293 143.147 204.953 141.712C206.393 140.933 207.887 139.538 208.958 138.427C209.997 137.342 211.442 136.735 212.945 136.726L226.953 136.658C226.953 136.658 228.587 139.273 229.136 139.786C229.541 140.164 233.343 143.35 236.07 145.973C237.578 147.427 238.676 149.245 239.247 151.261C240.809 156.764 240.786 167.848 241.02 175.777C241.02 175.777 240.053 176.155 237.654 176.668C235.269 177.176 235.566 176.852 235.566 176.852C235.566 176.852 231.993 184.894 227.142 185.672C222.296 186.451 215.762 184.183 214.596 176.569C214.596 176.569 205.142 175.151 202.577 174.098C202.338 173.999 202.257 173.711 202.41 173.504C203.553 171.988 207.815 166.106 208.22 162.272C208.688 157.844 208.544 151.414 208.193 149.654C208.193 149.654 201.065 152.341 198.792 152.818C198.792 152.818 190.112 162.353 186.489 164.95C186.489 164.95 187.731 162.997 185.238 161.674L192.812 148.741Z" fill="#453C9E"/>
<path d="M237.653 176.663C238.017 176.587 238.346 176.51 238.643 176.443L238.139 175.453L224.985 174.062L217.304 174.458L214.662 176.969C214.811 177.784 215.022 178.54 215.288 179.228C215.301 179.228 218.555 179.696 220.062 179.377C221.574 179.053 233.279 180.776 233.301 180.776C234.629 178.873 235.448 177.1 235.551 176.875C235.542 176.933 235.682 177.082 237.653 176.663Z" fill="#1B2B3A"/>
<path d="M216.135 163.064C216.135 163.064 213.561 168.653 213.178 171.461L212.67 171.083C212.67 171.083 215.199 163.964 215.968 163.051C216.738 162.133 216.135 163.064 216.135 163.064Z" fill="#24126A"/>
<path d="M219.901 172.069C219.887 172.019 219.847 171.988 219.793 171.983C219.158 171.97 215.05 171.848 213.497 171.308C211.81 170.728 210.028 170.831 209.933 170.93C209.843 171.029 207.035 172.217 206.869 172.703C206.72 173.131 206.45 174.62 206.824 175.169C207.197 175.718 207.373 176.087 207.373 176.087L207.665 176.119C207.665 176.119 208.043 176.861 208.255 177.122C208.349 177.239 208.421 177.365 208.484 177.5C208.66 177.883 208.975 178.513 209.101 178.526C209.285 178.544 210.154 178.72 210.379 178.661C210.559 178.616 210.721 178.063 210.649 177.82C210.626 177.752 210.662 177.694 210.73 177.68C211.13 177.613 212.215 177.478 213.713 177.617C215.54 177.784 218.128 176.591 218.362 176.479C218.375 176.474 218.384 176.47 218.398 176.47L220.976 176.236C221.048 176.231 221.098 176.155 221.08 176.087L219.901 172.069Z" fill="#FCD1C5"/>
<path d="M216.801 144.907C216.801 144.907 214.609 152.993 216.927 161.3C216.927 161.3 225.364 145.555 226.282 142.999C227.196 140.443 227.529 138.629 226.674 137.711C225.819 136.793 218.196 141.532 218.196 141.532L216.801 144.907Z" fill="#F0F6FF"/>
<path d="M218.974 157.583C218.974 157.583 220.58 152.664 220.301 151.076C220.022 149.487 219.622 148.353 219.622 148.353L221.071 147.017L221.71 148.344C221.71 148.344 224.9 146.004 225.112 145.568C225.112 145.568 222.542 147.332 221.732 147.597C221.732 147.597 221.35 146.967 220.846 146.751C220.342 146.535 219.082 148.259 219.082 148.259L218.848 151.242L217.588 158.204L218.024 159.239L218.974 157.583Z" fill="#C4CCD6"/>
<path d="M217.561 144.997C217.561 144.997 217.255 148.174 217.52 148.399C217.781 148.624 218.767 148.637 219.226 148.381C219.685 148.124 220.85 146.743 220.85 146.743C220.85 146.743 219.419 144.223 217.561 144.997Z" fill="#160A5B"/>
<path d="M219.285 147.813C219.285 147.813 220.144 150.018 219.321 153.069C218.497 156.116 218.182 158.951 218.182 158.951L216.927 161.3C216.927 161.3 215.361 156.701 215.878 152.079C216.108 150.005 217.692 148.164 217.692 148.164L219.285 147.813Z" fill="#160A5B"/>
<path d="M212.858 132.009C212.858 132.009 212.471 133.976 212.61 134.349C212.75 134.723 213.249 134.97 213.128 135.74C213.006 136.505 213.447 138.8 213.677 139.56C213.677 139.56 213.51 140.375 213.74 140.627C213.969 140.879 214.266 140.87 214.478 141.257C214.694 141.644 214.766 143.624 215.567 144.29C216.372 144.951 217.416 145.091 217.956 144.947C218.496 144.803 219.05 144.389 219.05 144.389L220.26 144.893C220.26 144.893 226.538 143.115 226.34 138.705L226.335 138.237C226.335 138.237 226.781 137.616 226.911 137.207C227.042 136.797 228.081 134.966 227.555 134.174C227.555 134.174 229.985 124.575 222.488 123.999C214.982 123.419 213.852 128.675 212.858 132.009Z" fill="#FCD1C5"/>
<path d="M226.341 138.706V138.652C226.031 138.463 225.725 138.346 225.477 138.391C224.618 138.544 224.816 136.762 224.816 136.762C224.816 136.762 224.658 137.086 224.217 139.358C223.781 141.635 219.047 144.389 219.047 144.389L220.257 144.893C220.262 144.893 226.535 143.116 226.341 138.706Z" fill="#E2B1A6"/>
<path d="M212.89 127.843C212.156 129.4 211.805 131.272 213.34 132.527C213.34 132.527 214.627 132.878 217.079 131.74C218.731 130.97 220.382 131.312 221.282 131.614C221.696 131.753 221.971 132.149 221.962 132.59L221.926 133.958C221.917 134.314 222.124 134.638 222.452 134.777L223.591 135.263L223.816 136.591C223.883 136.982 224.288 137.221 224.662 137.086L224.95 136.982C224.95 136.982 225.121 134.026 227.56 134.174C227.56 134.174 229.535 129.904 227.51 125.998C225.485 122.092 219.941 122.371 218.758 122.812C217.201 123.397 217.417 123.307 216.526 123.86C214.964 124.828 213.673 126.187 212.89 127.843Z" fill="#AA8383"/>
<path d="M232.848 157.961C232.848 157.961 231.71 166.335 231.246 168.702L227.574 170.637L234.095 170.241L232.848 157.961Z" fill="#1B2B3A"/>
<path d="M238.478 149.272C237.857 148.291 237.573 149.015 236.741 149.825C235.616 150.914 234.207 152.611 233.478 154.748C232.151 158.641 232.628 168.365 233.073 169.756C233.073 169.756 220.712 171.781 219.852 171.745C218.997 171.709 220.914 177.797 220.914 177.797C220.914 177.797 240.656 177.154 241.16 176.794C241.664 176.434 241.754 171.358 241.704 168.41C241.668 165.886 241.713 154.379 238.478 149.272Z" fill="#4846A5"/>
<path d="M198.791 152.813C201.064 152.336 208.192 149.65 208.192 149.65C208.516 151.265 208.664 156.836 208.318 161.17C210.424 153.295 208.894 145.717 208.894 145.717C208.313 148.493 197.014 152.323 197.014 152.323C195.214 155.095 186.659 163.087 186.659 163.087V163.091C187.042 164.068 186.488 164.945 186.488 164.945C190.115 162.349 198.791 152.813 198.791 152.813Z" fill="#1B2B3A"/>
<path d="M227.556 134.174C227.556 134.174 228.222 132.73 228.384 130.75C225.351 133.153 221.962 132.59 221.962 132.59L221.926 133.958C221.917 134.314 222.124 134.638 222.453 134.777L223.591 135.263L223.816 136.591C223.884 136.982 224.289 137.221 224.662 137.086L224.95 136.982C224.946 136.982 225.117 134.026 227.556 134.174Z" fill="#936D6D"/>
<path d="M229.175 141.532C229.175 141.532 227.231 148.205 226.826 149.488L225.265 149.321L225.548 151.432L217.129 162.529L226.475 151.801L226.106 149.92L227.524 150.068L229.175 141.532Z" fill="#24126A"/>
<path d="M220.913 177.793C220.913 177.793 240.655 177.149 241.159 176.789C241.663 176.429 241.753 171.353 241.703 168.406C241.672 166.34 241.694 158.263 239.93 152.593C241.316 157.39 240.587 174.364 239.957 175.228C239.327 176.092 220.549 176.591 220.549 176.591C220.756 177.298 220.913 177.793 220.913 177.793Z" fill="#453C9E"/>
<path d="M182.119 162.002C182.119 162.002 182.043 162.502 181.188 162.988C180.328 163.474 178.132 164.558 177.777 164.873C177.421 165.184 175.837 166.574 175.788 166.759C175.743 166.943 175.266 168.518 175.27 168.613C175.275 168.707 175.423 169.436 175.423 169.436L174.933 171.763C174.933 171.763 174.312 172.663 174.987 172.91C175.662 173.158 176.044 172.456 176.053 172.352C176.053 172.352 177.07 171.871 177.817 171.29C178.564 170.71 181.561 168.298 182.07 168.446C182.578 168.595 182.11 169.459 181.867 169.607C181.624 169.756 180.036 171.308 180.702 172.388C181.368 173.468 181.8 171.781 182.241 171.434C182.682 171.092 183.631 169.742 184.212 169.571C184.792 169.405 185.854 167.231 185.989 166.259C186.129 165.287 186.822 164.662 187.069 164.347C187.317 164.032 186.534 161.62 186.534 161.62L183.568 160.697L182.529 161.372L182.119 162.002Z" fill="#FCD1C5"/>
<path d="M208.899 145.716C208.899 145.716 208.791 141.293 209.543 137.9C209.336 138.062 209.138 138.233 208.953 138.422C207.887 139.533 206.388 140.928 204.948 141.707C202.289 143.147 194.292 147.584 194.292 147.584L192.807 148.736C188.118 152.412 182.88 160.413 182.115 161.997C182.484 161.507 183.425 160.701 185.234 161.664C187.727 162.992 186.539 164.981 186.539 164.981C190.166 162.384 198.788 152.808 198.788 152.808C200.916 152.363 207.311 149.978 208.107 149.676C208.625 148.349 208.926 147.012 208.899 145.716Z" fill="#1B2B3A"/>
<path d="M216.381 166.21C216.183 166.732 215.733 167.047 215.378 166.912C215.022 166.777 214.896 166.241 215.099 165.719C215.297 165.197 215.747 164.882 216.102 165.017C216.458 165.152 216.584 165.688 216.381 166.21Z" fill="#24126A"/>
<path d="M215.041 170.219C214.843 170.741 214.393 171.056 214.038 170.921C213.682 170.786 213.556 170.251 213.759 169.729C213.957 169.207 214.407 168.892 214.762 169.027C215.118 169.162 215.244 169.697 215.041 170.219Z" fill="#24126A"/>
<path d="M227.227 185.447L226.876 185.245C225.584 184.498 225.746 183.197 227.236 182.333L237.752 176.263C239.246 175.403 241.501 175.309 242.792 176.056L243.143 176.258C244.435 177.005 244.273 178.306 242.783 179.17L232.267 185.24C230.777 186.1 228.523 186.194 227.227 185.447Z" fill="#2D2D2D"/>
<path d="M244.021 175.624V177.622L227.704 184.633L226.008 183.976V182.145L230.562 179.913L244.021 175.624Z" fill="#2D2D2D"/>
<path d="M227.227 183.661L226.876 183.458C225.584 182.711 225.746 181.411 227.236 180.547L237.752 174.476C239.246 173.617 241.501 173.522 242.792 174.269L243.143 174.472C244.435 175.219 244.273 176.519 242.783 177.383L232.267 183.454C230.777 184.313 228.523 184.408 227.227 183.661Z" fill="#515151"/>
<mask id="mask0_208_2832" style="mask-type:luminance" maskUnits="userSpaceOnUse" x="226" y="173" width="19" height="12">
<path d="M227.227 183.661L226.876 183.458C225.584 182.711 225.746 181.411 227.236 180.547L237.752 174.476C239.246 173.617 241.501 173.522 242.792 174.269L243.143 174.472C244.435 175.219 244.273 176.519 242.783 177.383L232.267 183.454C230.777 184.313 228.523 184.408 227.227 183.661Z" fill="white"/>
</mask>
<g mask="url(#mask0_208_2832)">
<path d="M238.476 149.272C237.855 148.291 237.571 149.015 236.739 149.825C235.614 150.914 234.205 152.611 233.476 154.748C232.149 158.641 232.626 168.365 233.071 169.756C233.071 169.756 220.71 171.781 219.85 171.745C218.995 171.709 220.913 177.797 220.913 177.797C220.913 177.797 240.654 177.154 241.158 176.794C241.662 176.434 241.752 171.358 241.702 168.41C241.666 165.886 241.712 154.379 238.476 149.272Z" fill="#4846A5"/>
</g>
<mask id="mask1_208_2832" style="mask-type:luminance" maskUnits="userSpaceOnUse" x="226" y="173" width="19" height="12">
<path d="M227.227 183.661L226.876 183.458C225.584 182.711 225.746 181.411 227.236 180.547L237.752 174.476C239.246 173.617 241.501 173.522 242.792 174.269L243.143 174.472C244.435 175.219 244.273 176.519 242.783 177.383L232.267 183.454C230.777 184.313 228.523 184.408 227.227 183.661Z" fill="white"/>
</mask>
<g mask="url(#mask1_208_2832)">
<path d="M220.913 177.793C220.913 177.793 240.655 177.149 241.159 176.789C241.663 176.429 241.753 171.353 241.703 168.406C241.672 166.34 241.694 158.263 239.93 152.593C241.316 157.39 240.587 174.364 239.957 175.228C239.327 176.092 220.549 176.591 220.549 176.591C220.756 177.298 220.913 177.793 220.913 177.793Z" fill="#453C9E"/>
</g>
<path d="M237.671 188.903L204.398 208.109L206.585 243.776L237.68 223.279L237.671 188.903Z" fill="#383838"/>
<path d="M206.585 243.776L146.168 208.892V169.522L206.585 204.874V243.776Z" fill="#434444"/>
<path d="M206.531 210.332L142.168 173.171L176.732 153.218L241.091 190.379L206.531 210.332Z" fill="#2D2D2D"/>
<path d="M206.585 215.327L146.168 180.722V174.683L206.585 209.135V215.327Z" fill="#383838"/>
<path d="M142.168 170.093V173.171L206.531 210.332L241.091 190.379V187.297L142.168 170.093Z" fill="#2D2D2D"/>
<path d="M206.531 207.25L142.168 170.093L176.732 150.136L241.091 187.297L206.531 207.25Z" fill="#434444"/>
<path d="M210.302 178.306C210.302 178.306 212.777 179.188 214.667 178.873C216.557 178.558 225.651 178.382 225.651 178.382L224.22 177.559L221.03 175.336L213.123 175.871L210.072 176.965L210.302 178.306Z" fill="#383838"/>
<path d="M219.901 172.069C219.887 172.019 219.847 171.988 219.793 171.983C219.158 171.97 215.05 171.848 213.497 171.308C211.81 170.728 210.028 170.831 209.933 170.93C209.843 171.029 207.035 172.217 206.869 172.703C206.72 173.131 206.45 174.62 206.824 175.169C207.197 175.718 207.373 176.087 207.373 176.087L207.665 176.119C207.665 176.119 208.043 176.861 208.255 177.122C208.349 177.239 208.421 177.365 208.484 177.5C208.66 177.883 208.975 178.513 209.101 178.526C209.285 178.544 210.154 178.72 210.379 178.661C210.559 178.616 210.721 178.063 210.649 177.82C210.626 177.752 210.662 177.694 210.73 177.68C211.13 177.613 212.215 177.478 213.713 177.617C215.54 177.784 218.128 176.591 218.362 176.479C218.375 176.474 218.384 176.47 218.398 176.47L220.976 176.236C221.048 176.231 221.098 176.155 221.08 176.087L219.901 172.069Z" fill="#FCD1C5"/>
<path d="M238.476 149.272C237.855 148.291 237.571 149.015 236.739 149.825C235.614 150.914 234.205 152.611 233.476 154.748C232.149 158.641 232.626 168.365 233.071 169.756C233.071 169.756 220.71 171.781 219.85 171.745C218.995 171.709 220.913 177.797 220.913 177.797C220.913 177.797 240.654 177.154 241.158 176.794C241.662 176.434 241.752 171.358 241.702 168.41C241.666 165.886 241.712 154.379 238.476 149.272Z" fill="#4846A5"/>
<path d="M220.913 177.793C220.913 177.793 240.655 177.149 241.159 176.789C241.663 176.429 241.753 171.353 241.703 168.406C241.672 166.34 241.694 158.263 239.93 152.593C241.316 157.39 240.587 174.364 239.957 175.228C239.327 176.092 220.549 176.591 220.549 176.591C220.756 177.298 220.913 177.793 220.913 177.793Z" fill="#453C9E"/>
<path d="M185.522 167.686C185.522 167.686 192.582 162.169 193.59 161.638C194.598 161.107 195.026 160.697 195.026 160.697L192.663 159.334L188.667 160.976L183.632 165.967L175.883 171.461V172.735C175.883 172.735 182.277 169.99 182.993 169.522C183.708 169.054 185.522 167.686 185.522 167.686Z" fill="#383838"/>
<path d="M189.939 164.455L203.246 172.136L184.301 183.076L170.994 175.39L189.939 164.455Z" fill="white"/>
<path d="M176.699 175.187L184.835 179.885L184.385 180.142L176.254 175.448L176.699 175.187Z" fill="#4B5166"/>
<path d="M177.531 173.32L187.35 178.985L186.977 179.201L177.162 173.531L177.531 173.32Z" fill="#4B5166"/>
<path d="M178.639 172.681L188.994 178.661L188.625 178.873L178.266 172.897L178.639 172.681Z" fill="#4B5166"/>
<path d="M179.742 172.046L190.097 178.022L189.728 178.238L179.373 172.258L179.742 172.046Z" fill="#4B5166"/>
<path d="M180.844 171.407L191.203 177.388L190.829 177.599L180.475 171.619L180.844 171.407Z" fill="#4B5166"/>
<path d="M181.947 170.768L192.306 176.749L191.937 176.965L181.578 170.984L181.947 170.768Z" fill="#4B5166"/>
<path d="M183.053 170.134L193.408 176.114L193.039 176.326L182.68 170.345L183.053 170.134Z" fill="#4B5166"/>
<path d="M184.156 169.495L194.511 175.475L194.142 175.687L183.787 169.711L184.156 169.495Z" fill="#4B5166"/>
<path d="M185.258 168.86L195.617 174.836L195.243 175.052L184.889 169.072L185.258 168.86Z" fill="#4B5166"/>
<path d="M191.271 171.056L196.721 174.202L196.352 174.413L190.902 171.268L191.271 171.056Z" fill="#4B5166"/>
<path d="M189.033 166.678L191.283 167.978L190.914 168.194L188.664 166.894L189.033 166.678Z" fill="#4B5166"/>
<path d="M197.139 171.358L199.393 172.658L199.02 172.874L196.77 171.574L197.139 171.358Z" fill="#4B5166"/>
<path opacity="0.63" d="M181.314 172.681C181.314 172.681 182.817 171.335 183.789 170.89C184.761 170.44 186.3 169.247 186.489 168.338C186.678 167.425 188.284 165.409 188.284 165.409L185.71 166.894L181.984 169.045L175.783 172.64C175.783 172.64 176.161 173.077 176.949 172.807C177.732 172.541 179.208 171.601 179.892 171.515C180.58 171.43 181.714 171.223 181.714 171.223L181.314 172.681Z" fill="#2D2D2D"/>
<path d="M182.119 162.002C182.119 162.002 182.043 162.502 181.188 162.988C180.328 163.474 178.132 164.558 177.777 164.873C177.421 165.184 175.837 166.574 175.788 166.759C175.743 166.943 175.266 168.518 175.27 168.613C175.275 168.707 175.423 169.436 175.423 169.436L174.933 171.763C174.933 171.763 174.312 172.663 174.987 172.91C175.662 173.158 176.044 172.456 176.053 172.352C176.053 172.352 177.07 171.871 177.817 171.29C178.564 170.71 181.561 168.298 182.07 168.446C182.578 168.595 182.11 169.459 181.867 169.607C181.624 169.756 180.036 171.308 180.702 172.388C181.368 173.468 181.8 171.781 182.241 171.434C182.682 171.092 183.631 169.742 184.212 169.571C184.792 169.405 185.854 167.231 185.989 166.259C186.129 165.287 186.822 164.662 187.069 164.347C187.317 164.032 186.534 161.62 186.534 161.62L183.568 160.697L182.529 161.372L182.119 162.002Z" fill="#FCD1C5"/>
<path d="M208.899 145.717C208.899 145.717 208.791 141.293 209.543 137.9C209.336 138.062 209.138 138.233 208.953 138.422C207.887 139.534 206.388 140.929 204.948 141.707C202.289 143.147 194.292 147.584 194.292 147.584L192.807 148.736C188.118 152.413 182.88 160.414 182.115 161.998C182.484 161.507 183.425 160.702 185.234 161.665C187.727 162.992 186.539 164.981 186.539 164.981C190.166 162.385 198.788 152.809 198.788 152.809C200.916 152.363 207.311 149.978 208.107 149.677C208.625 148.349 208.926 147.013 208.899 145.717Z" fill="#24126A"/>
<path d="M205.879 200.032L213.488 203.236L228.226 194.726L218.033 189.857L205.879 200.032Z" fill="#383838"/>
<path d="M210.096 186.113L220.045 191.855L205.879 200.032L195.93 194.29L210.096 186.113Z" fill="#D4D6D6"/>
<path d="M210.096 185.807L220.045 191.554L205.879 199.73L195.93 193.988L210.096 185.807Z" fill="white"/>
<path d="M210.096 185.578L220.045 191.32L205.879 199.497L195.93 193.755L210.096 185.578Z" fill="#D4D6D6"/>
<path d="M210.096 185.272L220.045 191.018L205.879 199.195L195.93 193.453L210.096 185.272Z" fill="white"/>
<path d="M210.096 185.038L220.045 190.784L205.879 198.961L195.93 193.219L210.096 185.038Z" fill="#D4D6D6"/>
<path d="M210.096 184.736L220.045 190.483L205.879 198.659L195.93 192.913L210.096 184.736Z" fill="white"/>
<path d="M210.096 184.502L220.045 190.248L205.879 198.425L195.93 192.678L210.096 184.502Z" fill="#D4D6D6"/>
<path d="M210.096 184.201L220.045 189.947L205.879 198.124L195.93 192.377L210.096 184.201Z" fill="white"/>
<path d="M210.096 183.967L220.045 189.713L205.879 197.89L195.93 192.143L210.096 183.967Z" fill="#D4D6D6"/>
<path d="M210.096 183.666L220.045 189.408L205.879 197.589L195.93 191.842L210.096 183.666Z" fill="white"/>
<path d="M210.096 183.431L220.045 189.178L205.879 197.354L195.93 191.608L210.096 183.431Z" fill="#D4D6D6"/>
<path d="M210.096 183.13L220.045 188.872L205.879 197.053L195.93 191.306L210.096 183.13Z" fill="white"/>
<path d="M210.096 182.896L220.045 188.638L205.879 196.819L195.93 191.072L210.096 182.896Z" fill="#D4D6D6"/>
<path d="M210.096 182.594L220.045 188.336L205.879 196.513L195.93 190.771L210.096 182.594Z" fill="white"/>
<path d="M210.096 182.36L220.045 188.102L205.879 196.278L195.93 190.536L210.096 182.36Z" fill="#D4D6D6"/>
<path d="M210.096 182.059L220.045 187.801L205.879 195.977L195.93 190.235L210.096 182.059Z" fill="white"/>
<path d="M210.096 181.825L220.045 187.567L205.879 195.743L195.93 190.001L210.096 181.825Z" fill="#D4D6D6"/>
<path d="M210.096 181.523L220.045 187.265L205.879 195.442L195.93 189.7L210.096 181.523Z" fill="white"/>
<path d="M210.096 181.289L220.045 187.031L205.879 195.208L195.93 189.466L210.096 181.289Z" fill="#D4D6D6"/>
<path d="M210.096 180.988L220.045 186.73L205.879 194.906L195.93 189.164L210.096 180.988Z" fill="white"/>
<path d="M210.096 180.754L220.045 186.496L205.879 194.672L195.93 188.93L210.096 180.754Z" fill="#D4D6D6"/>
<path d="M210.096 180.448L220.045 186.194L205.879 194.371L195.93 188.629L210.096 180.448Z" fill="white"/>
<path d="M210.096 180.218L220.045 185.96L205.879 194.137L195.93 188.395L210.096 180.218Z" fill="#D4D6D6"/>
<path d="M210.096 179.912L220.045 185.659L205.879 193.835L195.93 188.093L210.096 179.912Z" fill="white"/>
<path d="M210.096 179.678L220.045 185.425L205.879 193.601L195.93 187.859L210.096 179.678Z" fill="#D4D6D6"/>
<path d="M210.096 179.377L220.045 185.123L205.879 193.3L195.93 187.553L210.096 179.377Z" fill="white"/>
<path d="M210.096 179.143L220.045 184.889L205.879 193.066L195.93 187.319L210.096 179.143Z" fill="#D4D6D6"/>
<path d="M210.096 178.841L220.045 184.588L205.879 192.764L195.93 187.018L210.096 178.841Z" fill="white"/>
<path d="M210.096 178.607L220.045 184.353L205.879 192.53L195.93 186.783L210.096 178.607Z" fill="#D4D6D6"/>
<path d="M210.096 178.306L220.045 184.048L205.879 192.229L195.93 186.482L210.096 178.306Z" fill="white"/>
<path d="M210.096 178.072L220.045 183.818L205.879 191.995L195.93 186.248L210.096 178.072Z" fill="#D4D6D6"/>
<path d="M210.096 177.771L220.045 183.512L205.879 191.694L195.93 185.947L210.096 177.771Z" fill="white"/>
<path d="M200.272 186.262L205.542 189.304L205.254 189.471L199.984 186.429L200.272 186.262Z" fill="#4B5166"/>
<path d="M200.813 185.051L207.171 188.719L206.933 188.858L200.574 185.186L200.813 185.051Z" fill="#4B5166"/>
<path d="M201.528 184.638L208.238 188.512L207.995 188.647L201.285 184.777L201.528 184.638Z" fill="#4B5166"/>
<path d="M202.243 184.224L208.948 188.098L208.71 188.238L202 184.363L202.243 184.224Z" fill="#4B5166"/>
<path d="M202.953 183.81L209.663 187.684L209.424 187.824L202.715 183.949L202.953 183.81Z" fill="#4B5166"/>
</g>
<defs>
<clipPath id="clip0_208_2832">
<rect width="279" height="318" fill="white" transform="matrix(-1 0 0 1 279 0)"/>
</clipPath>
</defs>
</svg>
