<svg width="100" height="100" viewBox="0 0 100 100" fill="none" xmlns="http://www.w3.org/2000/svg">
<circle cx="50.5" cy="50.5" r="43.5" fill="#0A1736"/>
<path d="M13 27V33M10 30H16" stroke="#7BD834" stroke-linecap="round" stroke-linejoin="round"/>
<path d="M88 73V79M85 76H91" stroke="#7BD834" stroke-linecap="round" stroke-linejoin="round"/>
<path d="M21 20V24M19 22H23" stroke="#7BD834" stroke-linecap="round" stroke-linejoin="round"/>
<path d="M77 79V83M75 81H79" stroke="#7BD834" stroke-linecap="round" stroke-linejoin="round"/>
<circle cx="50.5" cy="50.5" r="32.5" stroke="#475DA9" stroke-width="2"/>
<circle cx="74.5" cy="26.5" r="9.5" fill="#1D3565"/>
<path d="M70.5694 57.1327C69.7461 57.1327 68.9417 57.0251 68.1564 56.8097C67.3711 56.5944 66.7441 56.3221 66.2754 55.9927L67.1874 54.1877C67.6434 54.4917 68.1881 54.7387 68.8214 54.9287C69.4674 55.1061 70.1007 55.1947 70.7214 55.1947C72.1401 55.1947 72.8494 54.8211 72.8494 54.0737C72.8494 53.7191 72.6657 53.4721 72.2984 53.3327C71.9437 53.1934 71.3674 53.0604 70.5694 52.9337C69.7334 52.8071 69.0494 52.6614 68.5174 52.4967C67.9981 52.3321 67.5421 52.0471 67.1494 51.6417C66.7694 51.2237 66.5794 50.6474 66.5794 49.9127C66.5794 48.9501 66.9784 48.1837 67.7764 47.6137C68.5871 47.0311 69.6764 46.7397 71.0444 46.7397C71.7411 46.7397 72.4377 46.8221 73.1344 46.9867C73.8311 47.1387 74.4011 47.3477 74.8444 47.6137L73.9324 49.4187C73.0711 48.9121 72.1021 48.6587 71.0254 48.6587C70.3287 48.6587 69.7967 48.7664 69.4294 48.9817C69.0747 49.1844 68.8974 49.4567 68.8974 49.7987C68.8974 50.1787 69.0874 50.4511 69.4674 50.6157C69.8601 50.7677 70.4617 50.9134 71.2724 51.0527C72.0831 51.1794 72.7481 51.3251 73.2674 51.4897C73.7867 51.6544 74.2301 51.9331 74.5974 52.3257C74.9774 52.7184 75.1674 53.2757 75.1674 53.9977C75.1674 54.9477 74.7557 55.7077 73.9324 56.2777C73.1091 56.8477 71.9881 57.1327 70.5694 57.1327Z" fill="#7BD834"/>
<path d="M62.1496 53.9217H55.4996L54.1886 56.9997H51.6426L57.6276 43.6997H60.0596L66.0636 56.9997H63.4796L62.1496 53.9217ZM61.3326 51.9837L58.8246 46.1697L56.3356 51.9837H61.3326Z" fill="#7BD834"/>
<path d="M46.0628 43.6997C47.2155 43.6997 48.2162 43.8897 49.0648 44.2697C49.9262 44.6497 50.5848 45.1944 51.0408 45.9037C51.4968 46.613 51.7248 47.4554 51.7248 48.4307C51.7248 49.3934 51.4968 50.2357 51.0408 50.9577C50.5848 51.667 49.9262 52.2117 49.0648 52.5917C48.2162 52.9717 47.2155 53.1617 46.0628 53.1617H43.0608V56.9997H40.5908V43.6997H46.0628ZM45.9488 51.0717C47.0255 51.0717 47.8425 50.8437 48.3998 50.3877C48.9572 49.9317 49.2358 49.2794 49.2358 48.4307C49.2358 47.582 48.9572 46.9297 48.3998 46.4737C47.8425 46.0177 47.0255 45.7897 45.9488 45.7897H43.0608V51.0717H45.9488Z" fill="#7BD834"/>
<path d="M32.9419 57.1898C31.5993 57.1898 30.3833 56.8984 29.2939 56.3158C28.2173 55.7204 27.3686 54.9034 26.7479 53.8648C26.1399 52.8261 25.8359 51.6544 25.8359 50.3498C25.8359 49.0451 26.1463 47.8734 26.7669 46.8348C27.3876 45.7961 28.2363 44.9854 29.3129 44.4028C30.4023 43.8074 31.6183 43.5098 32.9609 43.5098C34.0503 43.5098 35.0446 43.6998 35.9439 44.0798C36.8433 44.4598 37.6033 45.0108 38.2239 45.7328L36.6279 47.2338C35.6653 46.1951 34.4809 45.6758 33.0749 45.6758C32.1629 45.6758 31.3459 45.8784 30.6239 46.2838C29.9019 46.6764 29.3383 47.2274 28.9329 47.9368C28.5276 48.6461 28.3249 49.4504 28.3249 50.3498C28.3249 51.2491 28.5276 52.0534 28.9329 52.7628C29.3383 53.4721 29.9019 54.0294 30.6239 54.4348C31.3459 54.8274 32.1629 55.0238 33.0749 55.0238C34.4809 55.0238 35.6653 54.4981 36.6279 53.4468L38.2239 54.9668C37.6033 55.6888 36.8369 56.2398 35.9249 56.6198C35.0256 56.9998 34.0313 57.1898 32.9419 57.1898Z" fill="#7BD834"/>
</svg>
