<svg width="172" height="240" viewBox="0 0 172 240" fill="none" xmlns="http://www.w3.org/2000/svg">
<g opacity="0.3">
<path d="M148.07 63.1869L124.272 49.4385L148.07 35.7058L171.868 49.4464L148.07 63.1869Z" fill="url(#paint0_linear_208_2315)"/>
<path d="M148.07 62.6111L124.762 49.1545L124.272 49.4385L148.07 63.187L171.875 49.4464L171.378 49.1624L148.07 62.6111Z" fill="white"/>
<path d="M171.876 154.362L148.07 168.103V63.1869L171.876 49.4385V154.362Z" fill="url(#paint1_linear_208_2315)"/>
<path d="M148.07 168.103L124.272 154.362V49.4385L148.07 63.1869V168.103Z" fill="url(#paint2_linear_208_2315)"/>
<path d="M117.008 104.353L93.2021 90.6129L117 76.8723L140.805 90.6129L117.008 104.353Z" fill="url(#paint3_linear_208_2315)"/>
<path d="M117.008 103.785L93.6991 90.3289L93.2021 90.6128L117.008 104.353L140.805 90.6128L140.308 90.3289L117.008 103.785Z" fill="white"/>
<path d="M140.805 172.331L117.008 186.079V104.353L140.805 90.6128V172.331Z" fill="url(#paint4_linear_208_2315)"/>
<path d="M117.008 186.079L93.2021 172.331V90.6128L117.008 104.353V186.079Z" fill="url(#paint5_linear_208_2315)"/>
<path d="M85.9381 129.2L62.1406 115.459L85.9381 101.719L109.736 115.459L85.9381 129.2Z" fill="url(#paint6_linear_208_2315)"/>
<path d="M85.9381 128.632L62.6297 115.176L62.1406 115.459L85.9381 129.2L109.736 115.459L109.247 115.176L85.9381 128.632Z" fill="white"/>
<path d="M109.736 190.307L85.9385 204.047V129.2L109.736 115.459V190.307Z" fill="url(#paint7_linear_208_2315)"/>
<path d="M85.9381 204.047L62.1406 190.307V115.459L85.9381 129.2V204.047Z" fill="url(#paint8_linear_208_2315)"/>
<path d="M54.8678 169.388L31.0703 155.64L54.8678 141.899L78.6654 155.648L54.8678 169.388Z" fill="url(#paint9_linear_208_2315)"/>
<path d="M54.8678 168.813L31.5594 155.356L31.0703 155.64L54.8678 169.388L78.6654 155.648L78.1763 155.364L54.8678 168.813Z" fill="white"/>
<path d="M78.6657 208.283L54.8682 222.024V169.388L78.6657 155.64V208.283Z" fill="url(#paint10_linear_208_2315)"/>
<path d="M54.8679 222.024L31.0703 208.283V155.64L54.8679 169.388V222.024Z" fill="url(#paint11_linear_208_2315)"/>
<path d="M23.7975 182.025L0 168.284L23.7975 154.543L47.5951 168.284L23.7975 182.025Z" fill="url(#paint12_linear_208_2315)"/>
<path d="M23.7975 181.457L0.48904 168L0 168.284L23.7975 182.025L47.5951 168.284L47.106 168L23.7975 181.457Z" fill="white"/>
<path d="M47.6033 226.259L23.7979 240V182.025L47.6033 168.284V226.259Z" fill="url(#paint13_linear_208_2315)"/>
<path d="M23.7975 240L0 226.259V168.284L23.7975 182.025V240Z" fill="url(#paint14_linear_208_2315)"/>
</g>
<path opacity="0.5" d="M47.6029 180.502L148.07 122.337L140.805 108.597L42.9648 169.743L47.6029 180.502Z" fill="#32589D"/>
<path d="M148.07 42.5839L124.272 28.8434L148.07 15.1028L171.868 28.8434L148.07 42.5839Z" fill="url(#paint15_linear_208_2315)"/>
<path d="M148.07 42.0159L124.762 28.5593L124.272 28.8433L148.07 42.5839L171.875 28.8433L171.378 28.5593L148.07 42.0159Z" fill="white"/>
<path d="M171.876 108.597L148.07 122.337V42.5838L171.876 28.8433V108.597Z" fill="url(#paint16_linear_208_2315)"/>
<path d="M148.07 122.337L124.272 108.597V28.8433L148.07 42.5838V122.337Z" fill="url(#paint17_linear_208_2315)"/>
<path d="M117.008 83.7504L93.2021 70.0099L117 56.2693L140.805 70.0099L117.008 83.7504Z" fill="url(#paint18_linear_208_2315)"/>
<path opacity="0.3" d="M116.999 78.7574L101.854 70.0098L116.999 61.2622L132.152 70.0098L116.999 78.7574Z" fill="url(#paint19_linear_208_2315)"/>
<path d="M117.008 83.1824L93.6991 69.7258L93.2021 70.0098L117.008 83.7504L140.805 70.0098L140.308 69.7258L117.008 83.1824Z" fill="white"/>
<path d="M140.805 126.573L117.008 140.314V83.7503L140.805 70.0098V126.573Z" fill="url(#paint20_linear_208_2315)"/>
<path d="M117.008 140.314L93.2021 126.573V70.0098L117.008 83.7503V140.314Z" fill="url(#paint21_linear_208_2315)"/>
<path d="M117.008 63.1869L93.2021 49.4385L117 35.7058L140.805 49.4464L117.008 63.1869Z" fill="url(#paint22_linear_208_2315)"/>
<path d="M117.008 62.6111L93.6991 49.1545L93.2021 49.4385L117.008 63.187L140.805 49.4464L140.308 49.1624L117.008 62.6111Z" fill="white"/>
<path d="M140.805 59.1563L117.008 72.8968V63.1869L140.805 49.4385V59.1563Z" fill="url(#paint23_linear_208_2315)"/>
<path d="M117.008 72.8968L93.2021 59.1563V49.4385L117.008 63.1869V72.8968Z" fill="url(#paint24_linear_208_2315)"/>
<path d="M85.9381 108.597L62.1406 94.8563L85.9381 81.1157L109.736 94.8563L85.9381 108.597Z" fill="url(#paint25_linear_208_2315)"/>
<path opacity="0.2" d="M85.9226 100.362C76.0786 100.338 69.934 94.9274 74.8639 90.6206C77.1514 88.625 81.3792 87.3945 85.9463 87.4024C95.7903 87.426 101.935 92.8371 97.005 97.1438C94.7175 99.1473 90.4976 100.37 85.9226 100.362Z" fill="#3045BC"/>
<path d="M85.9381 108.029L62.6297 94.5725L62.1406 94.8565L85.9381 108.597L109.736 94.8565L109.247 94.5725L85.9381 108.029Z" fill="white"/>
<path d="M109.736 144.55L85.9385 158.29V108.597L109.736 94.8564V144.55Z" fill="url(#paint26_linear_208_2315)"/>
<path d="M85.9381 158.29L62.1406 144.55V94.8564L85.9381 108.597V158.29Z" fill="url(#paint27_linear_208_2315)"/>
<path d="M54.8678 148.786L31.0703 135.045L54.8678 121.304L78.6654 135.045L54.8678 148.786Z" fill="url(#paint28_linear_208_2315)"/>
<path d="M54.8678 148.218L31.5594 134.761L31.0703 135.045L54.8678 148.786L78.6654 135.045L78.1763 134.761L54.8678 148.218Z" fill="white"/>
<path d="M78.6657 162.526L54.8682 176.267V148.785L78.6657 135.045V162.526Z" fill="url(#paint29_linear_208_2315)"/>
<path d="M54.8679 176.267L31.0703 162.526V135.045L54.8679 148.785V176.267Z" fill="url(#paint30_linear_208_2315)"/>
<path d="M23.7975 161.422L0 147.681L23.7975 133.94L47.5951 147.681L23.7975 161.422Z" fill="url(#paint31_linear_208_2315)"/>
<path d="M23.7975 160.854L0.48904 147.397L0 147.681L23.7975 161.422L47.5951 147.681L47.106 147.397L23.7975 160.854Z" fill="white"/>
<path d="M47.6033 180.502L23.7979 194.243V161.421L47.6033 147.681V180.502Z" fill="url(#paint32_linear_208_2315)"/>
<path d="M23.7975 194.243L0 180.502V147.681L23.7975 161.421V194.243Z" fill="url(#paint33_linear_208_2315)"/>
<path opacity="0.5" d="M96.6104 51.4101L107.985 57.9728C117.016 54.8098 123.555 49.9982 122.585 47.2217C121.615 44.4452 113.49 44.7607 104.451 47.9316C101.509 48.957 98.8426 50.156 96.6104 51.4101Z" fill="#32589D"/>
<path d="M99.6797 37.1254L99.7901 34.27L100.453 32.6057L100.871 33.9861L99.6797 37.1254Z" fill="#DD821F"/>
<path d="M129.637 37.6696L129.747 34.8694C129.747 34.8694 127.381 37.2357 127.381 37.2909C127.373 37.3462 129.637 37.6696 129.637 37.6696Z" fill="#FFD85A"/>
<path d="M114.453 45.9756C106.179 45.7784 99.616 41.5742 99.7895 34.2701C99.963 26.966 106.81 21.2079 115.084 21.4051C123.358 21.6023 129.921 27.6838 129.747 34.9879C129.566 42.292 122.719 46.1807 114.453 45.9756Z" fill="#FFD85A"/>
<path d="M114.335 50.7081C106.06 50.5109 99.4978 44.4294 99.6713 37.1253C99.8449 29.8212 106.691 24.0631 114.966 24.2603C123.24 24.4575 129.803 30.539 129.629 37.8431C129.456 45.1472 122.609 50.9053 114.335 50.7081Z" fill="#FFD85A"/>
<path d="M104.199 27.9597C101.486 30.2787 99.7581 33.5127 99.6713 37.1254C99.4978 44.4295 106.06 50.511 114.335 50.7082C118.429 50.8028 122.167 49.4461 124.928 47.1587L104.199 27.9597Z" fill="#DD821F"/>
<path d="M128.953 37.8333C129.119 30.8566 122.847 25.0477 114.942 24.8587C107.038 24.6697 100.495 30.1723 100.328 37.149C100.162 44.1257 106.434 49.9347 114.338 50.1237C122.243 50.3126 128.786 44.8101 128.953 37.8333Z" fill="#F9BF30"/>
<path d="M126.125 37.7646C126.259 32.1641 121.224 27.501 114.878 27.3493C108.533 27.1976 103.281 31.6147 103.147 37.2153C103.013 42.8158 108.048 47.4789 114.393 47.6306C120.739 47.7823 125.991 43.3652 126.125 37.7646Z" fill="#F2B42A"/>
<path d="M126.143 37.7643C126.151 37.5356 126.143 37.299 126.127 37.0702C125.599 42.3393 120.527 46.3936 114.445 46.2437C108.364 46.1018 103.489 41.8029 103.213 36.5181C103.189 36.7468 103.174 36.9756 103.166 37.2043C103.032 42.8047 108.064 47.4664 114.406 47.6162C120.756 47.7819 126.009 43.3647 126.143 37.7643Z" fill="#FFD85A"/>
<path d="M116.859 38.34L114.501 36.155C112.229 36.6677 108.001 37.63 104.625 38.4267C105.461 40.9508 107.512 43.0411 110.186 44.1454L116.859 38.34Z" fill="#FFD85A"/>
<path d="M113.151 44.9187C113.522 44.966 113.909 44.9975 114.295 45.0054C117.072 45.0685 119.604 44.1614 121.497 42.6312L117.647 39.0659L113.151 44.9187Z" fill="#FFD85A"/>
<path d="M111.976 33.8205L107.535 29.7109C106.045 31.0124 104.711 32.4559 104.349 34.3726L111.976 33.8205Z" fill="#FFD85A"/>
<path d="M114.295 28.5594C120.637 28.7093 125.669 33.371 125.535 38.9713C125.512 40.1072 125.267 41.1878 124.857 42.1974C125.638 40.8644 126.103 39.3578 126.143 37.7566C126.277 32.1563 121.244 27.4946 114.902 27.3447C109.846 27.2264 105.484 30.0108 103.852 33.9783C105.8 30.6655 109.767 28.449 114.295 28.5594Z" fill="#DD821F"/>
<path d="M99.7896 34.2701C99.766 35.3586 99.6634 36.1395 99.9158 37.157C100.247 36.0843 100.965 32.8818 100.965 32.8818L102.109 30.334L103.055 29.5531L104.664 28.3779L104.798 24.7021C101.801 27.0606 99.8843 30.4524 99.7896 34.2701Z" fill="#DD821F"/>
<path d="M128.778 33.8994L128.841 33.15C128.841 33.0396 128.928 32.9528 129.03 32.9607H129.085C129.188 32.9607 129.267 33.0554 129.267 33.1579L129.204 33.9072C129.204 34.0177 129.117 34.1044 129.014 34.0966H128.959C128.857 34.0966 128.77 34.0098 128.778 33.8994Z" fill="#DD821F"/>
<path d="M127.461 31.0121L127.54 29.6554C127.54 29.5292 127.642 29.4346 127.753 29.4346H127.887C128.005 29.4346 128.092 29.5371 128.092 29.6633L128.013 31.02C128.013 31.1462 127.911 31.2409 127.8 31.2409H127.666C127.548 31.2409 127.461 31.1383 127.461 31.0121Z" fill="#DD821F"/>
<path d="M125.638 28.504L125.717 27.1946C125.717 27.0526 125.827 26.9422 125.962 26.9501L126.19 26.958C126.324 26.958 126.427 27.0763 126.419 27.2183L126.34 28.5277C126.34 28.6696 126.23 28.7801 126.096 28.7722L125.867 28.7643C125.733 28.7564 125.63 28.6381 125.638 28.504Z" fill="#DD821F"/>
<path d="M122.901 26.469L122.988 24.8836C122.988 24.7416 123.099 24.6312 123.233 24.6391L123.461 24.647C123.595 24.647 123.698 24.7653 123.69 24.9073L123.603 26.4927C123.603 26.6347 123.493 26.7451 123.359 26.7372L123.13 26.7293C123.004 26.7215 122.901 26.611 122.901 26.469Z" fill="#DD821F"/>
<path d="M120.156 25.1359L120.243 23.306C120.243 23.164 120.353 23.0535 120.488 23.0614L120.716 23.0693C120.85 23.0693 120.953 23.1876 120.945 23.3296L120.858 25.1596C120.858 25.3016 120.748 25.412 120.614 25.4041L120.385 25.3962C120.259 25.3883 120.156 25.2779 120.156 25.1359Z" fill="#DD821F"/>
<path d="M117.396 24.3235L117.482 22.5645C117.482 22.4225 117.593 22.3121 117.727 22.32L117.956 22.3279C118.09 22.3279 118.192 22.4462 118.184 22.5882L118.098 24.3471C118.098 24.4891 117.987 24.5996 117.853 24.5917L117.624 24.5838C117.498 24.5759 117.396 24.4655 117.396 24.3235Z" fill="#DD821F"/>
<path d="M114.627 24.0474L114.714 22.2569C114.714 22.1149 114.825 22.0045 114.959 22.0124L115.187 22.0203C115.322 22.0203 115.424 22.1386 115.416 22.2805L115.329 24.0711C115.329 24.2131 115.219 24.3235 115.085 24.3156L114.856 24.3077C114.722 24.2998 114.619 24.1815 114.627 24.0474Z" fill="#DD821F"/>
<path d="M111.843 24.1027L111.93 22.4305C111.93 22.2885 112.04 22.1781 112.174 22.1859L112.403 22.1938C112.537 22.1938 112.639 22.3121 112.632 22.4541L112.545 24.1263C112.545 24.2683 112.434 24.3788 112.3 24.3709L112.072 24.363C111.945 24.3551 111.843 24.2447 111.843 24.1027Z" fill="#DD821F"/>
<path d="M109.05 24.7099L109.137 23.085C109.137 22.943 109.247 22.8326 109.382 22.8405L109.61 22.8484C109.744 22.8484 109.847 22.9667 109.839 23.1087L109.752 24.7336C109.752 24.8755 109.642 24.986 109.508 24.9781L109.279 24.9702C109.145 24.9702 109.042 24.8519 109.05 24.7099Z" fill="#DD821F"/>
<path d="M106.234 26.0746L106.321 24.3235C106.321 24.1816 106.432 24.0711 106.566 24.079L106.794 24.0869C106.928 24.0869 107.031 24.2052 107.023 24.3472L106.936 26.0983C106.936 26.2403 106.826 26.3507 106.692 26.3428L106.463 26.3349C106.337 26.3349 106.234 26.2166 106.234 26.0746Z" fill="#DD821F"/>
<path d="M92.2406 85.0439C92.2406 85.0439 92.6665 85.4857 93.1082 86.0063C93.5499 86.5269 94.7883 87.2525 95.3089 87.5759C95.8295 87.8993 98.2116 89.7056 98.7085 91.4883C99.2055 93.2709 97.5017 93.4997 95.7585 93.1921C94.0153 92.8844 92.3904 91.2753 91.9093 90.6916C91.436 90.1079 89.7874 88.7906 87.6498 87.6864C85.5122 86.5821 86.8058 85.0913 86.8058 85.0913L92.2406 85.0439Z" fill="#32589D"/>
<path d="M76.3616 90.3286C76.3616 90.3286 76.0067 91.1253 75.912 92.1586C75.8095 93.184 75.6675 95.4163 75.6123 96.0709C75.5571 96.7256 75.5413 98.319 76.685 99.8492C77.8367 101.379 78.4282 101.979 79.9506 101.379C81.4808 100.78 81.4414 98.2164 81.1732 96.8992C80.905 95.5819 80.6526 92.6319 80.6763 92.3242C80.7078 92.0166 80.5895 91.8194 80.5895 91.8194L76.3616 90.3286Z" fill="#32589D"/>
<path d="M97.5093 54.8099C97.5093 54.8099 97.1859 66.5627 94.4488 72.802C94.4488 72.802 92.4847 78.2919 92.2245 84.8309C92.2245 84.8309 92.6741 85.9588 92.0352 86.8738C91.3962 87.7888 87.3735 88.6249 86.7109 85.6197C86.0483 82.6144 86.3007 76.9904 87.0343 74.6477C87.7678 72.305 86.774 65.837 86.774 65.837C86.774 65.837 85.6776 66.539 84.2341 71.185C82.7906 75.8309 81.7337 77.5978 81.2367 78.8835C80.7398 80.1692 80.2823 88.0333 80.5978 91.8747C80.5978 91.8747 77.3402 92.3401 76.4015 90.7783C75.4629 89.2244 75.1473 81.1709 75.384 78.5995C75.6206 76.0281 76.6934 67.809 76.5514 65.2612C76.4015 62.7135 75.873 60.6468 76.4567 58.107C77.0404 55.5671 94.2201 49.9194 94.2201 49.9194L97.5093 54.8099Z" fill="#32589D"/>
<path d="M76.5435 65.2694C76.3937 62.7216 75.8652 60.655 76.4489 58.1151C76.6697 57.1607 79.2333 55.7645 82.349 54.4C87.6102 53.9188 94.2753 53.3667 94.7328 53.4298C95.1509 53.4929 96.2315 53.903 97.1386 54.2659L97.5094 54.8101C97.5094 54.8101 97.4936 55.5279 97.4226 56.6953C96.2 57.066 93.8336 56.6795 93.8336 56.6795C93.5023 57.5078 91.4515 60.4341 88.9038 61.6962C86.356 62.9582 78.902 62.5244 78.4682 63.0056C78.0422 63.4867 77.9555 69.9232 78.0028 70.7356C78.0501 71.5559 77.3008 76.7067 76.6067 81.258C75.9283 85.7382 76.9616 91.1808 76.9932 91.3544C76.7486 91.1966 76.5435 91.0073 76.3937 90.7628C75.455 89.2089 75.1395 81.1554 75.3762 78.584C75.6128 76.0126 76.6934 67.8092 76.5435 65.2694Z" fill="#32589D"/>
<path d="M91.7511 16.3727C91.7511 16.3727 95.561 17.2404 96.8467 17.5401C97.0596 17.5875 97.2332 17.7373 97.3121 17.9424C97.6828 18.8811 98.6135 21.7917 97.9115 26.0432C97.0517 31.2649 97.3278 34.7829 97.3278 34.7829L99.0947 43.9564C99.0947 43.9564 101.311 52.6961 101.122 52.9328C100.933 53.1694 96.0185 56.9082 94.4803 56.3876C92.9422 55.8591 93.447 54.9915 93.447 54.9915C93.447 54.9915 92.2007 61.3254 86.695 61.2623C81.1894 61.1992 76.6933 61.2228 75.7547 58.9906C74.8239 56.7662 76.0071 47.4113 76.9773 43.704C77.9475 39.9967 80.2586 32.6138 80.2586 32.6138L72.1973 23.6926L79.0912 18.4315C79.0912 18.4315 80.7398 15.371 81.4102 14.9845C82.0886 14.598 82.4435 14.9214 82.4435 14.9214L91.7511 16.3727Z" fill="#5778FF"/>
<path d="M94.3779 54.3761C94.37 54.6916 94.5593 55.1649 95.5453 55.5041C96.6101 55.8669 99.2368 54.2815 100.948 53.0825C100.089 53.7924 95.8687 56.8766 94.4646 56.3954C94.157 56.2929 93.9362 56.1745 93.7705 56.0483C94.1018 55.3463 94.2832 54.739 94.3779 54.3761Z" fill="#32589D"/>
<path d="M75.8021 58.2647C76.7881 60.6153 81.5366 60.5916 87.342 60.6626C88.817 60.6784 90.0081 60.2603 90.9546 59.6214C89.9529 60.5837 88.5725 61.3015 86.6952 61.2778C81.1895 61.2147 76.6935 61.2384 75.7548 59.0062C75.4472 58.2726 75.3683 56.7739 75.4393 54.9597C75.4314 56.4347 75.5339 57.6258 75.8021 58.2647Z" fill="#32589D"/>
<path d="M81.56 14.9215C81.56 14.9215 80.156 16.6252 82.1753 18.9206C83.4216 20.3325 85.5671 23.3851 87.397 26.556C88.5408 28.5358 89.5977 29.5928 90.1893 31.2887C90.1893 31.2887 90.2761 29.2694 90.355 26.1458C90.4338 23.2037 90.4733 20.1432 90.3392 19.3702C90.071 17.7926 83.1218 14.1485 81.56 14.9215Z" fill="#F0FFFF"/>
<path d="M86.8297 20.0485C86.8297 20.0485 87.5475 20.4981 87.7999 20.4586C88.0523 20.4192 88.849 19.6462 88.849 19.6462C88.849 19.6462 90.8446 19.6068 91.0655 18.7549C91.2863 17.8951 91.4283 17.0353 91.6334 16.5936C91.8385 16.1519 92.6982 14.0143 92.7061 13.1466C92.714 12.279 92.6825 10.733 93.0532 9.91265C93.4239 9.09231 93.9287 0.888992 86.0094 1.12563C78.09 1.35437 80.551 9.58135 80.551 9.58135C80.551 9.58135 79.9752 9.82588 80.3223 10.8828C80.6693 11.9398 80.7482 12.0502 80.9296 12.5787C81.111 13.1072 81.1978 13.4385 81.7026 13.8644L81.8367 14.8425C81.8367 14.8425 81.4581 16.3333 82.4441 17.7768C83.4143 19.2203 86.8297 20.0485 86.8297 20.0485Z" fill="#FCE8EE"/>
<path d="M97.0677 17.6426C97.0677 17.6426 97.9117 17.7688 100.649 24.6627C102.179 28.512 104.537 32.4953 105.034 35.3507C105.531 38.2061 105.255 41.2666 104.687 41.4795C104.143 41.6846 94.2991 45.3682 91.215 46.5356C91.0414 46.5987 90.86 46.4962 90.8285 46.3148L89.9766 41.5584L96.0896 39.2C96.0896 39.2 97.257 37.7802 98.3455 37.2438C98.3455 37.2438 97.1229 34.9879 97.2018 34.3726C97.2807 33.7574 97.0914 27.384 97.8092 24.7889C98.5349 22.186 97.0677 17.6426 97.0677 17.6426Z" fill="#5778FF"/>
<path d="M93.4863 35.8554C93.4863 35.8554 94.3303 35.2875 94.5354 35.2086C94.7405 35.1298 95.8685 34.7433 96.0814 34.6486C96.2392 34.5776 96.8939 34.6328 97.2251 34.6644C97.3435 34.6802 97.446 34.7433 97.5012 34.8537C97.7615 35.3348 98.4872 36.7389 98.4004 37.2752C98.4004 37.2752 96.3654 38.561 96.1366 39.1368L95.8132 39.2078C95.829 39.1999 94.4644 36.2814 93.4863 35.8554Z" fill="#FCE8EE"/>
<path d="M76.9857 43.7198C77.2223 42.8285 77.5299 41.7242 77.8691 40.5647L90.2451 45.8653C90.2451 45.8653 86.5457 50.4166 80.054 50.1247C78.2793 50.0458 76.9857 49.4069 76.0312 48.8548C76.3073 46.8355 76.6623 44.9582 76.9857 43.7198Z" fill="#5778FF"/>
<path d="M72.1973 23.7083C72.1973 23.7083 75.4629 24.1579 78.0974 28.3384C80.7319 32.5189 82.6566 37.3542 82.6566 37.3542L82.7512 37.8984C82.9878 39.3182 84.5023 40.1307 85.8196 39.547C88.604 38.3007 92.7293 36.4234 93.4944 35.8634C93.4944 35.8634 95.9633 37.228 96.6338 40.4462C97.1701 43.0176 97.036 43.0255 97.036 43.0255C97.036 43.0255 86.0483 48.1526 81.8047 48.1053C77.561 48.0579 72.1816 34.1044 71.5821 31.2174C70.9826 28.3226 70.3358 24.5286 72.1973 23.7083Z" fill="#32589D"/>
<path d="M72.1973 23.7083C72.1973 23.7083 75.4629 24.1579 78.0974 28.3384C80.7319 32.5189 82.6566 37.3542 82.6566 37.3542L82.7512 37.8984C82.9878 39.3182 84.5023 40.1307 85.8196 39.547C88.604 38.3007 92.7293 36.4234 93.4944 35.8634C93.4944 35.8634 95.9633 37.228 96.6338 40.4462C97.1701 43.0176 97.036 43.0255 97.036 43.0255C97.036 43.0255 86.0483 48.1526 81.8047 48.1053C77.561 48.0579 72.1816 34.1044 71.5821 31.2174C70.9826 28.3226 70.3358 24.5286 72.1973 23.7083Z" fill="#5778FF"/>
<path d="M84.2342 40.1938C84.2342 40.1938 82.8459 41.4874 82.2465 40.7775C81.6391 40.0676 81.8205 39.9887 81.8205 39.9887C81.8205 39.9887 80.5743 39.9808 80.4244 39.192C80.2745 38.4111 79.6593 38.8213 79.6198 37.9537C79.5883 37.086 80.6295 37.2595 80.6295 37.2595L84.2342 40.1938Z" fill="#4553C7"/>
<path d="M85.9144 39.4998C85.9144 39.4998 85.5358 39.1448 85.0389 38.7268C84.5499 38.3087 83.7532 36.5892 83.6191 36.4393C83.485 36.2894 81.8286 35.0195 81.024 34.9958C80.2274 34.9722 80.8189 35.8714 81.0004 35.9976C81.1818 36.1238 81.9626 36.5103 81.9626 36.5103C81.9626 36.5103 82.7672 37.1807 82.854 37.2833C82.9486 37.3858 80.6217 37.1255 80.251 37.3464C79.8803 37.5751 79.967 38.1667 80.2273 38.3245C80.4876 38.4822 80.6848 38.4822 80.6848 38.4822C80.6848 38.4822 80.4245 39.1842 81.1187 39.5076C81.8128 39.831 81.9784 39.6496 81.9784 39.6496C81.9784 39.6496 82.0415 40.8565 83.1932 40.6198L85.9144 39.4998Z" fill="#FCE8EE"/>
<path d="M93.2267 5.71624C93.2267 5.71624 94.26 9.00546 91.5387 8.0747C88.8174 7.13605 86.3564 5.57426 85.5045 6.16585C84.8577 6.62334 84.8814 8.01159 84.9366 8.6505C84.9524 8.87136 84.8972 9.08434 84.771 9.26576L83.9664 10.441C83.8717 10.5751 83.8244 10.725 83.8087 10.8906L83.7534 11.7031C83.7377 11.9082 83.572 12.0738 83.3669 12.0817L83.1776 12.0896C82.9725 12.1054 82.7832 11.9555 82.7517 11.7504L82.5387 10.5515C82.5387 10.5515 81.8998 8.94236 80.5431 9.57338C80.5431 9.57338 79.636 8.35866 79.9357 5.75568C80.2355 3.1527 81.4029 0.447184 86.5063 0.021242C91.6097 -0.4047 93.2267 5.71624 93.2267 5.71624Z" fill="#AA9AAC"/>
<path d="M85.4248 22.9431L86.1899 22.3515C86.1899 22.3515 86.8998 22.9352 87.168 23.5583C87.4441 24.1815 87.168 26.1613 87.168 26.1613L87.4047 26.5636L87.6886 26.043L87.9331 23.7003C87.9331 23.7003 87.6728 21.9729 87.6492 21.9255C87.6255 21.8782 86.1742 22.0754 86.1742 22.0754C86.1742 22.0754 85.6693 22.4619 85.4248 22.9431Z" fill="#C4E3FF"/>
<path d="M89.0928 20.6165C89.0928 20.6165 89.9052 20.6717 90.2759 20.9793C90.2759 20.9793 89.4162 21.0187 89.2821 21.0345C89.148 21.0503 89.0928 20.6165 89.0928 20.6165Z" fill="#C4E3FF"/>
<path d="M87.5395 20.7979L86.167 22.0757C86.167 22.0757 87.3659 22.6278 87.7051 23.7006C87.7051 23.7006 89.1959 23.9766 89.33 23.4403C89.4641 22.9039 89.33 21.5393 89.5035 20.9398C89.685 20.3404 87.5395 20.7979 87.5395 20.7979Z" fill="#32589D"/>
<path d="M89.2826 23.4164C89.2826 23.4164 89.535 24.5365 89.8189 25.0019C90.095 25.4673 90.379 25.98 90.379 25.98L90.3474 32.5505C90.3474 32.5505 87.9338 27.5654 87.4053 26.5637C87.4053 26.5637 87.4841 24.1658 87.7129 23.7083C87.9337 23.2508 89.2826 23.4164 89.2826 23.4164Z" fill="#32589D"/>
<path d="M82.7908 13.7065C84.3762 18.2894 88.8486 19.6461 88.8486 19.6461C88.8486 19.6461 88.0519 20.4191 87.7995 20.4585C87.5471 20.4979 86.8293 20.0483 86.8293 20.0483C86.8293 20.0483 83.4218 19.2201 82.4358 17.7688C81.4498 16.3253 81.8284 14.8345 81.8284 14.8345L81.6943 13.8564C82.4042 14.093 82.7908 13.7065 82.7908 13.7065Z" fill="#E2C8CF"/>
<path d="M79.1543 19.0703C79.1543 19.0703 79.7775 21.2316 79.8642 21.3104C79.9431 21.3893 81.4418 21.2158 81.4418 21.2158L80.7161 22.5883C80.7161 22.5883 88.2332 30.6496 89.795 34.9879C89.795 34.9879 86.2376 29.4901 79.9746 22.9275L80.8581 21.5865L79.32 21.8863L79.1543 19.0703Z" fill="#32589D"/>
<path d="M91.5065 17.1614L91.9087 17.6189L91.4434 18.0527L92.8316 19.3069C92.8316 19.3069 93.2576 28.1254 91.5617 33.9703C91.5617 33.9703 93.8649 28.6145 93.3443 19.0702L91.8377 18.0527L92.3268 17.5715L91.5065 17.1614Z" fill="#32589D"/>
<path d="M86.7661 65.8371C86.7661 65.8371 86.7503 65.8449 86.7109 65.8765L88.6592 63.802C87.76 65.0719 88.7933 70.8774 88.9037 72.2025C89.0141 73.5356 87.8625 76.2805 87.4366 79.4909C87.0106 82.7012 87.8862 87.284 87.8862 87.2998C87.3261 86.9764 86.8844 86.44 86.703 85.6039C86.0404 82.5987 86.2928 76.9747 87.0264 74.632C87.76 72.2972 86.7661 65.8371 86.7661 65.8371Z" fill="#32589D"/>
<path d="M81.7967 48.0896C77.553 48.0423 72.1735 34.0887 71.5741 31.2018C71.4715 30.7207 71.3769 30.2158 71.2822 29.7031C71.298 29.7426 72.3944 32.7557 73.4592 35.4297C74.5241 38.1194 80.1954 46.2675 83.0982 46.8039C85.709 47.2851 95.1113 42.8915 96.9334 42.0318C97.099 43.0099 97.028 43.0177 97.028 43.0177C97.028 43.0177 86.0403 48.1448 81.7967 48.0896Z" fill="#32589D"/>
<path d="M83.1775 12.0895C82.9725 12.1053 82.7831 11.9554 82.7516 11.7503L82.5386 10.5514C82.5386 10.5514 81.8997 8.94229 80.543 9.57331C80.543 9.57331 79.6911 8.42169 79.9199 5.96069C81.4264 8.21661 84.763 9.26569 84.763 9.26569L83.9585 10.441C83.8638 10.5751 83.8165 10.7249 83.8007 10.8906L83.7455 11.703C83.7297 11.9081 83.5641 12.0737 83.359 12.0816L83.1775 12.0895Z" fill="#938496"/>
<defs>
<linearGradient id="paint0_linear_208_2315" x1="136.172" y1="42.5717" x2="148.005" y2="63.066" gradientUnits="userSpaceOnUse">
<stop stop-color="#C0D6FF"/>
<stop offset="0.4983" stop-color="#D2E8FF"/>
<stop offset="1" stop-color="#E9FFFF"/>
</linearGradient>
<linearGradient id="paint1_linear_208_2315" x1="148.073" y1="115.641" x2="171.737" y2="115.641" gradientUnits="userSpaceOnUse">
<stop stop-color="#C0D6FF"/>
<stop offset="0.2978" stop-color="#C5DBFF"/>
<stop offset="0.6488" stop-color="#D3E9FF"/>
<stop offset="1" stop-color="#E9FFFF"/>
</linearGradient>
<linearGradient id="paint2_linear_208_2315" x1="108.663" y1="92.8877" x2="144.212" y2="92.8877" gradientUnits="userSpaceOnUse">
<stop stop-color="#5778FF"/>
<stop offset="0.1779" stop-color="#5C7DFF"/>
<stop offset="0.3876" stop-color="#6A8AFF"/>
<stop offset="0.6134" stop-color="#82A0FF"/>
<stop offset="0.849" stop-color="#A3BEFF"/>
<stop offset="1" stop-color="#BCD5FF"/>
</linearGradient>
<linearGradient id="paint3_linear_208_2315" x1="105.103" y1="83.7435" x2="116.937" y2="104.238" gradientUnits="userSpaceOnUse">
<stop stop-color="#C0D6FF"/>
<stop offset="0.4983" stop-color="#D2E8FF"/>
<stop offset="1" stop-color="#E9FFFF"/>
</linearGradient>
<linearGradient id="paint4_linear_208_2315" x1="117.004" y1="145.215" x2="140.668" y2="145.215" gradientUnits="userSpaceOnUse">
<stop stop-color="#C0D6FF"/>
<stop offset="0.2978" stop-color="#C5DBFF"/>
<stop offset="0.6488" stop-color="#D3E9FF"/>
<stop offset="1" stop-color="#E9FFFF"/>
</linearGradient>
<linearGradient id="paint5_linear_208_2315" x1="77.5945" y1="122.461" x2="113.143" y2="122.461" gradientUnits="userSpaceOnUse">
<stop stop-color="#5778FF"/>
<stop offset="0.1779" stop-color="#5C7DFF"/>
<stop offset="0.3876" stop-color="#6A8AFF"/>
<stop offset="0.6134" stop-color="#82A0FF"/>
<stop offset="0.849" stop-color="#A3BEFF"/>
<stop offset="1" stop-color="#BCD5FF"/>
</linearGradient>
<linearGradient id="paint6_linear_208_2315" x1="74.0358" y1="108.586" x2="85.8693" y2="129.08" gradientUnits="userSpaceOnUse">
<stop stop-color="#C0D6FF"/>
<stop offset="0.4983" stop-color="#D2E8FF"/>
<stop offset="1" stop-color="#E9FFFF"/>
</linearGradient>
<linearGradient id="paint7_linear_208_2315" x1="85.9367" y1="166.624" x2="109.601" y2="166.624" gradientUnits="userSpaceOnUse">
<stop stop-color="#C0D6FF"/>
<stop offset="0.2978" stop-color="#C5DBFF"/>
<stop offset="0.6488" stop-color="#D3E9FF"/>
<stop offset="1" stop-color="#E9FFFF"/>
</linearGradient>
<linearGradient id="paint8_linear_208_2315" x1="46.5268" y1="143.871" x2="82.0756" y2="143.871" gradientUnits="userSpaceOnUse">
<stop stop-color="#5778FF"/>
<stop offset="0.1779" stop-color="#5C7DFF"/>
<stop offset="0.3876" stop-color="#6A8AFF"/>
<stop offset="0.6134" stop-color="#82A0FF"/>
<stop offset="0.849" stop-color="#A3BEFF"/>
<stop offset="1" stop-color="#BCD5FF"/>
</linearGradient>
<linearGradient id="paint9_linear_208_2315" x1="42.9674" y1="148.773" x2="54.8008" y2="169.267" gradientUnits="userSpaceOnUse">
<stop stop-color="#C0D6FF"/>
<stop offset="0.4983" stop-color="#D2E8FF"/>
<stop offset="1" stop-color="#E9FFFF"/>
</linearGradient>
<linearGradient id="paint10_linear_208_2315" x1="54.8683" y1="195.706" x2="78.5321" y2="195.706" gradientUnits="userSpaceOnUse">
<stop stop-color="#C0D6FF"/>
<stop offset="0.2978" stop-color="#C5DBFF"/>
<stop offset="0.6488" stop-color="#D3E9FF"/>
<stop offset="1" stop-color="#E9FFFF"/>
</linearGradient>
<linearGradient id="paint11_linear_208_2315" x1="15.4583" y1="172.952" x2="51.0072" y2="172.952" gradientUnits="userSpaceOnUse">
<stop stop-color="#5778FF"/>
<stop offset="0.1779" stop-color="#5C7DFF"/>
<stop offset="0.3876" stop-color="#6A8AFF"/>
<stop offset="0.6134" stop-color="#82A0FF"/>
<stop offset="0.849" stop-color="#A3BEFF"/>
<stop offset="1" stop-color="#BCD5FF"/>
</linearGradient>
<linearGradient id="paint12_linear_208_2315" x1="11.8989" y1="161.412" x2="23.7324" y2="181.907" gradientUnits="userSpaceOnUse">
<stop stop-color="#C0D6FF"/>
<stop offset="0.4983" stop-color="#D2E8FF"/>
<stop offset="1" stop-color="#E9FFFF"/>
</linearGradient>
<linearGradient id="paint13_linear_208_2315" x1="23.7998" y1="211.013" x2="47.4635" y2="211.013" gradientUnits="userSpaceOnUse">
<stop stop-color="#C0D6FF"/>
<stop offset="0.2978" stop-color="#C5DBFF"/>
<stop offset="0.6488" stop-color="#D3E9FF"/>
<stop offset="1" stop-color="#E9FFFF"/>
</linearGradient>
<linearGradient id="paint14_linear_208_2315" x1="-15.6101" y1="188.259" x2="19.9387" y2="188.259" gradientUnits="userSpaceOnUse">
<stop stop-color="#5778FF"/>
<stop offset="0.1779" stop-color="#5C7DFF"/>
<stop offset="0.3876" stop-color="#6A8AFF"/>
<stop offset="0.6134" stop-color="#82A0FF"/>
<stop offset="0.849" stop-color="#A3BEFF"/>
<stop offset="1" stop-color="#BCD5FF"/>
</linearGradient>
<linearGradient id="paint15_linear_208_2315" x1="136.172" y1="21.9701" x2="148.005" y2="42.4644" gradientUnits="userSpaceOnUse">
<stop stop-color="#C0D6FF"/>
<stop offset="0.4983" stop-color="#D2E8FF"/>
<stop offset="1" stop-color="#E9FFFF"/>
</linearGradient>
<linearGradient id="paint16_linear_208_2315" x1="148.073" y1="82.4588" x2="171.737" y2="82.4588" gradientUnits="userSpaceOnUse">
<stop stop-color="#C0D6FF"/>
<stop offset="0.2978" stop-color="#C5DBFF"/>
<stop offset="0.6488" stop-color="#D3E9FF"/>
<stop offset="1" stop-color="#E9FFFF"/>
</linearGradient>
<linearGradient id="paint17_linear_208_2315" x1="108.663" y1="59.705" x2="144.212" y2="59.705" gradientUnits="userSpaceOnUse">
<stop stop-color="#5778FF"/>
<stop offset="0.1779" stop-color="#5C7DFF"/>
<stop offset="0.3876" stop-color="#6A8AFF"/>
<stop offset="0.6134" stop-color="#82A0FF"/>
<stop offset="0.849" stop-color="#A3BEFF"/>
<stop offset="1" stop-color="#BCD5FF"/>
</linearGradient>
<linearGradient id="paint18_linear_208_2315" x1="105.103" y1="63.1419" x2="116.936" y2="83.6362" gradientUnits="userSpaceOnUse">
<stop stop-color="#C0D6FF"/>
<stop offset="0.4983" stop-color="#D2E8FF"/>
<stop offset="1" stop-color="#E9FFFF"/>
</linearGradient>
<linearGradient id="paint19_linear_208_2315" x1="109.427" y1="65.6386" x2="116.96" y2="78.6852" gradientUnits="userSpaceOnUse">
<stop stop-color="#5778FF"/>
<stop offset="0.1779" stop-color="#5C7DFF"/>
<stop offset="0.3876" stop-color="#6A8AFF"/>
<stop offset="0.6134" stop-color="#82A0FF"/>
<stop offset="0.849" stop-color="#A3BEFF"/>
<stop offset="1" stop-color="#BCD5FF"/>
</linearGradient>
<linearGradient id="paint20_linear_208_2315" x1="117.004" y1="112.033" x2="140.668" y2="112.033" gradientUnits="userSpaceOnUse">
<stop stop-color="#C0D6FF"/>
<stop offset="0.2978" stop-color="#C5DBFF"/>
<stop offset="0.6488" stop-color="#D3E9FF"/>
<stop offset="1" stop-color="#E9FFFF"/>
</linearGradient>
<linearGradient id="paint21_linear_208_2315" x1="77.594" y1="89.2789" x2="113.143" y2="89.2789" gradientUnits="userSpaceOnUse">
<stop stop-color="#5778FF"/>
<stop offset="0.1779" stop-color="#5C7DFF"/>
<stop offset="0.3876" stop-color="#6A8AFF"/>
<stop offset="0.6134" stop-color="#82A0FF"/>
<stop offset="0.849" stop-color="#A3BEFF"/>
<stop offset="1" stop-color="#BCD5FF"/>
</linearGradient>
<linearGradient id="paint22_linear_208_2315" x1="105.103" y1="42.5717" x2="116.937" y2="63.0661" gradientUnits="userSpaceOnUse">
<stop stop-color="#C0D6FF"/>
<stop offset="0.4983" stop-color="#D2E8FF"/>
<stop offset="1" stop-color="#E9FFFF"/>
</linearGradient>
<linearGradient id="paint23_linear_208_2315" x1="117.004" y1="68.0391" x2="140.668" y2="68.0391" gradientUnits="userSpaceOnUse">
<stop stop-color="#C0D6FF"/>
<stop offset="0.2978" stop-color="#C5DBFF"/>
<stop offset="0.6488" stop-color="#D3E9FF"/>
<stop offset="1" stop-color="#E9FFFF"/>
</linearGradient>
<linearGradient id="paint24_linear_208_2315" x1="77.5945" y1="45.2855" x2="113.143" y2="45.2855" gradientUnits="userSpaceOnUse">
<stop stop-color="#5778FF"/>
<stop offset="0.1779" stop-color="#5C7DFF"/>
<stop offset="0.3876" stop-color="#6A8AFF"/>
<stop offset="0.6134" stop-color="#82A0FF"/>
<stop offset="0.849" stop-color="#A3BEFF"/>
<stop offset="1" stop-color="#BCD5FF"/>
</linearGradient>
<linearGradient id="paint25_linear_208_2315" x1="74.0358" y1="87.9845" x2="85.8693" y2="108.479" gradientUnits="userSpaceOnUse">
<stop stop-color="#C0D6FF"/>
<stop offset="0.4983" stop-color="#D2E8FF"/>
<stop offset="1" stop-color="#E9FFFF"/>
</linearGradient>
<linearGradient id="paint26_linear_208_2315" x1="85.9367" y1="133.442" x2="109.601" y2="133.442" gradientUnits="userSpaceOnUse">
<stop stop-color="#C0D6FF"/>
<stop offset="0.2978" stop-color="#C5DBFF"/>
<stop offset="0.6488" stop-color="#D3E9FF"/>
<stop offset="1" stop-color="#E9FFFF"/>
</linearGradient>
<linearGradient id="paint27_linear_208_2315" x1="46.5268" y1="110.688" x2="82.0756" y2="110.688" gradientUnits="userSpaceOnUse">
<stop stop-color="#5778FF"/>
<stop offset="0.1779" stop-color="#5C7DFF"/>
<stop offset="0.3876" stop-color="#6A8AFF"/>
<stop offset="0.6134" stop-color="#82A0FF"/>
<stop offset="0.849" stop-color="#A3BEFF"/>
<stop offset="1" stop-color="#BCD5FF"/>
</linearGradient>
<linearGradient id="paint28_linear_208_2315" x1="42.9673" y1="128.172" x2="54.8008" y2="148.666" gradientUnits="userSpaceOnUse">
<stop stop-color="#C0D6FF"/>
<stop offset="0.4983" stop-color="#D2E8FF"/>
<stop offset="1" stop-color="#E9FFFF"/>
</linearGradient>
<linearGradient id="paint29_linear_208_2315" x1="54.8683" y1="162.523" x2="78.5321" y2="162.523" gradientUnits="userSpaceOnUse">
<stop stop-color="#C0D6FF"/>
<stop offset="0.2978" stop-color="#C5DBFF"/>
<stop offset="0.6488" stop-color="#D3E9FF"/>
<stop offset="1" stop-color="#E9FFFF"/>
</linearGradient>
<linearGradient id="paint30_linear_208_2315" x1="15.4583" y1="139.77" x2="51.0072" y2="139.77" gradientUnits="userSpaceOnUse">
<stop stop-color="#5778FF"/>
<stop offset="0.1779" stop-color="#5C7DFF"/>
<stop offset="0.3876" stop-color="#6A8AFF"/>
<stop offset="0.6134" stop-color="#82A0FF"/>
<stop offset="0.849" stop-color="#A3BEFF"/>
<stop offset="1" stop-color="#BCD5FF"/>
</linearGradient>
<linearGradient id="paint31_linear_208_2315" x1="11.8989" y1="140.81" x2="23.7324" y2="161.305" gradientUnits="userSpaceOnUse">
<stop stop-color="#C0D6FF"/>
<stop offset="0.4983" stop-color="#D2E8FF"/>
<stop offset="1" stop-color="#E9FFFF"/>
</linearGradient>
<linearGradient id="paint32_linear_208_2315" x1="23.7998" y1="177.831" x2="47.4635" y2="177.831" gradientUnits="userSpaceOnUse">
<stop stop-color="#C0D6FF"/>
<stop offset="0.2978" stop-color="#C5DBFF"/>
<stop offset="0.6488" stop-color="#D3E9FF"/>
<stop offset="1" stop-color="#E9FFFF"/>
</linearGradient>
<linearGradient id="paint33_linear_208_2315" x1="-15.6101" y1="155.077" x2="19.9387" y2="155.077" gradientUnits="userSpaceOnUse">
<stop stop-color="#5778FF"/>
<stop offset="0.1779" stop-color="#5C7DFF"/>
<stop offset="0.3876" stop-color="#6A8AFF"/>
<stop offset="0.6134" stop-color="#82A0FF"/>
<stop offset="0.849" stop-color="#A3BEFF"/>
<stop offset="1" stop-color="#BCD5FF"/>
</linearGradient>
</defs>
</svg>
