<svg width="100" height="100" viewBox="0 0 100 100" fill="none" xmlns="http://www.w3.org/2000/svg">
<circle cx="49.5" cy="50.5" r="43.5" fill="#0A1736"/>
<path d="M16 68V74M13 71H19" stroke="#7BD834" stroke-linecap="round" stroke-linejoin="round"/>
<path d="M87 26V32M84 29H90" stroke="#7BD834" stroke-linecap="round" stroke-linejoin="round"/>
<g clip-path="url(#clip0_208_3684)">
<rect x="29" y="42" width="48" height="34" rx="4" fill="#1F3969" fill-opacity="0.9"/>
<circle cx="68" cy="68" r="15" fill="#7BD834"/>
<path d="M48.2063 77.2539H29.3255C26.3885 77.2539 24 74.8653 24 71.9284V38.0713C24 37.2695 24.6506 36.6189 25.4524 36.6189H75.8016C76.6034 36.6189 77.254 37.2695 77.254 38.0713V48.2062C77.254 49.008 76.6034 49.6586 75.8016 49.6586C74.9998 49.6586 75.3492 49.008 75.3492 48.2062V38.5236H25.9047V71.9286C25.9047 73.2637 26.9902 75.3491 28.3253 75.3491H48.2063C49.0081 75.3491 49.6587 74.9997 49.6587 75.8015C49.6587 76.6033 49.0081 77.2539 48.2063 77.2539Z" fill="#475DA9"/>
<path d="M44.8176 69.5079C44.0158 69.5079 43.3652 68.8573 43.3652 68.0555V44.8174C43.3652 44.0156 44.0158 43.365 44.8176 43.365C45.6194 43.365 46.27 44.0156 46.27 44.8174V68.0555C46.27 68.8573 45.6194 69.5079 44.8176 69.5079Z" fill="#475DA9"/>
<path d="M56.4367 51.6537C55.635 51.6537 54.9844 51.0031 54.9844 50.2014V44.8174C54.9844 44.0156 55.635 43.365 56.4367 43.365C57.2385 43.365 57.8891 44.0156 57.8891 44.8174V50.2014C57.8891 51.0031 57.2385 51.6537 56.4367 51.6537Z" fill="#475DA9"/>
<path d="M46.754 69.5079H33.1985C32.3967 69.5079 31.7461 68.8573 31.7461 68.0555V44.8174C31.7461 44.0156 32.3967 43.365 33.1985 43.365H68.0556C68.8573 43.365 69.508 44.0156 69.508 44.8174V46.7539C69.508 47.5557 69.3018 48.4999 68.5001 48.4999C67.6983 48.4999 67.7796 47.5557 67.7796 46.7539V45.2697H33.6508V67.6031H46.754C47.5558 67.6031 48.2064 67.2537 48.2064 68.0555C48.2064 68.8573 47.5558 69.5079 46.754 69.5079Z" fill="#475DA9"/>
<path d="M53.4354 54.0158H33.1985C32.3967 54.0158 31.7461 53.3652 31.7461 52.5635C31.7461 51.7617 32.3967 51.1111 33.1985 51.1111H53.4354C54.2372 51.1111 54.8878 51.7617 54.8878 52.5635C54.8878 53.3652 54.2372 54.0158 53.4354 54.0158Z" fill="#475DA9"/>
<path d="M48.2064 61.7619H33.1985C32.3967 61.7619 31.7461 61.1113 31.7461 60.3095C31.7461 59.5078 32.3967 58.8572 33.1985 58.8572H48.2064C49.0081 58.8572 49.6587 59.5078 49.6587 60.3095C49.6587 61.1113 49.0081 61.7619 48.2064 61.7619Z" fill="#475DA9"/>
<path d="M75.8016 38.5238H25.4524C24.6506 38.5238 24 37.8732 24 37.0715V33.1985C24 30.2616 26.3885 27.873 29.3255 27.873H71.9287C74.8656 27.873 77.2541 30.2616 77.2541 33.1985V37.0715C77.2541 37.8732 76.6034 38.5238 75.8016 38.5238ZM25.9047 36.6191H75.3492V33.1985C75.3492 31.8634 74.2638 29.778 72.9287 29.778H28.3255C26.9904 29.778 25.9049 31.8634 25.9049 33.1985L25.9047 36.6191Z" fill="#475DA9"/>
<path d="M50.6272 30.7779C49.8254 30.7779 49.1748 30.1273 49.1748 29.3255V25.4524C49.1748 24.6506 49.8254 24 50.6272 24C51.4289 24 52.0795 24.6506 52.0795 25.4524V29.3255C52.0795 30.1273 51.4289 30.7779 50.6272 30.7779Z" fill="#475DA9"/>
<path d="M40.9446 30.7779C40.1428 30.7779 39.4922 30.1273 39.4922 29.3255V25.4524C39.4922 24.6506 40.1428 24 40.9446 24C41.7463 24 42.3969 24.6506 42.3969 25.4524V29.3255C42.3969 30.1273 41.7463 30.7779 40.9446 30.7779Z" fill="#475DA9"/>
<path d="M31.2619 30.7779C30.4602 30.7779 29.8096 30.1273 29.8096 29.3255V25.4524C29.8096 24.6506 30.4602 24 31.2619 24C32.0637 24 32.7143 24.6506 32.7143 25.4524V29.3255C32.7143 30.1273 32.0637 30.7779 31.2619 30.7779Z" fill="#475DA9"/>
<path d="M60.3098 30.7779C59.508 30.7779 58.8574 30.1273 58.8574 29.3255V25.4524C58.8574 24.6506 59.508 24 60.3098 24C61.1116 24 61.7622 24.6506 61.7622 25.4524V29.3255C61.7622 30.1273 61.1116 30.7779 60.3098 30.7779Z" fill="#475DA9"/>
<path d="M69.9924 30.7779C69.1906 30.7779 68.54 30.1273 68.54 29.3255V25.4524C68.54 24.6506 69.1906 24 69.9924 24C70.7942 24 71.4448 24.6506 71.4448 25.4524V29.3255C71.4448 30.1273 70.7942 30.7779 69.9924 30.7779Z" fill="#475DA9"/>
<path d="M68.0558 85C58.7127 85 51.1113 77.3996 51.1113 68.0555C51.1113 58.7115 58.7127 51.1111 68.0558 51.1111C77.3989 51.1111 85.0003 58.7115 85.0003 68.0555C85.0003 77.3996 77.3989 85 68.0558 85ZM68.0558 54.0158C60.3145 54.0158 54.0161 60.3133 54.0161 68.0555C54.0161 75.7978 60.3145 82.0953 68.0558 82.0953C75.7971 82.0953 82.0955 75.7978 82.0955 68.0555C82.0955 60.3133 75.7971 54.0158 68.0558 54.0158Z" fill="#475DA9"/>
<path d="M68.0555 76.367C65.5734 76.367 63.5537 74.3474 63.5537 71.8662C63.5537 71.0644 64.2043 70.4138 65.0061 70.4138C65.8079 70.4138 66.4585 71.0644 66.4585 71.8662C66.4585 72.7455 67.1752 73.4623 68.0555 73.4623C68.9358 73.4623 69.6526 72.7455 69.6526 71.8662V71.3858C69.6526 70.5404 69.0805 69.8086 68.2616 69.6044L67.1449 69.3246C65.0316 68.7969 63.5537 66.9059 63.5537 64.7254V64.245C63.5537 61.7638 65.5734 59.7441 68.0555 59.7441C70.5376 59.7441 72.5573 61.7638 72.5573 64.245C72.5573 65.0468 71.9067 65.6974 71.1049 65.6974C70.3032 65.6974 69.6526 65.0468 69.6526 64.245C69.6526 63.3656 68.9358 62.6489 68.0555 62.6489C67.1752 62.6489 66.4585 63.3656 66.4585 64.245V64.7254C66.4585 65.5708 67.0305 66.3026 67.8494 66.5068L68.9661 66.7866C71.0794 67.3142 72.5573 69.2052 72.5573 71.3858V71.8662C72.5573 74.3474 70.5376 76.367 68.0555 76.367Z" fill="#475DA9"/>
<path d="M68.0559 78.8615C67.2541 78.8615 66.6035 78.2109 66.6035 77.4091V74.9148C66.6035 74.113 67.2541 73.4624 68.0559 73.4624C68.8577 73.4624 69.5083 74.113 69.5083 74.9148V77.4091C69.5083 78.2109 68.8577 78.8615 68.0559 78.8615Z" fill="#475DA9"/>
<path d="M68.0559 62.6488C67.2541 62.6488 66.6035 61.9982 66.6035 61.1965V58.7021C66.6035 57.9004 67.2541 57.2498 68.0559 57.2498C68.8577 57.2498 69.5083 57.9004 69.5083 58.7021V61.1965C69.5083 61.9982 68.8577 62.6488 68.0559 62.6488Z" fill="#475DA9"/>
</g>
<defs>
<clipPath id="clip0_208_3684">
<rect width="61" height="61" fill="white" transform="translate(24 24)"/>
</clipPath>
</defs>
</svg>
