<svg width="98" height="92" viewBox="0 0 98 92" fill="none" xmlns="http://www.w3.org/2000/svg">
<circle cx="49.5" cy="48.5" r="43.5" fill="#0A1736"/>
<path d="M12 77V83M9 80H15" stroke="#7BD834" stroke-linecap="round" stroke-linejoin="round"/>
<path d="M90 10V16M87 13H93" stroke="#7BD834" stroke-linecap="round" stroke-linejoin="round"/>
<path d="M64.537 74.9961H59.957" stroke="#475DA9" stroke-width="1.875" stroke-miterlimit="10" stroke-linecap="round" stroke-linejoin="round"/>
<mask id="mask0_208_3777" style="mask-type:luminance" maskUnits="userSpaceOnUse" x="17" y="16" width="64" height="64">
<path d="M17 16H81V80H17V16Z" fill="white"/>
</mask>
<g mask="url(#mask0_208_3777)">
<rect x="22" y="71" width="43" height="55" rx="4" transform="rotate(-90 22 71)" fill="#1F3969" fill-opacity="0.9"/>
<rect x="26" y="58" width="25" height="29" rx="4" transform="rotate(-90 26 58)" fill="#7BD834"/>
<path d="M62.5 54.5L52.5 50L51.5 51.5L55.5 61H57L58.5 57L62.5 55.5V54.5Z" fill="#0A1736"/>
<rect x="65" y="86" width="30" height="7" rx="3.5" transform="rotate(-90 65 86)" fill="#7BD834"/>
<rect x="40" y="91" width="30" height="7" rx="3.5" transform="rotate(-90 40 91)" fill="#0A1736"/>
<path d="M39.9162 74.9961H24.9175C21.0625 74.9961 17.9375 71.8711 17.9375 68.0148V23.9186C17.9375 20.0636 21.0625 16.9386 24.9175 16.9386H73.0825C76.9375 16.9386 80.0625 20.0636 80.0625 23.9186V68.0148C80.0625 71.8711 76.9375 74.9961 73.0825 74.9961H72.2687" stroke="#475DA9" stroke-width="1.875" stroke-miterlimit="10" stroke-linecap="round" stroke-linejoin="round"/>
<path d="M52.2262 74.9961H47.6475" stroke="#475DA9" stroke-width="1.875" stroke-miterlimit="10" stroke-linecap="round" stroke-linejoin="round"/>
<path d="M64.537 71.2461H59.957" stroke="#475DA9" stroke-width="1.875" stroke-miterlimit="10" stroke-linecap="round" stroke-linejoin="round"/>
<path d="M39.9162 71.2461H24.9175C23.1338 71.2461 21.6875 69.7998 21.6875 68.0161V32.1161C21.6875 29.9323 23.4587 28.1611 25.6425 28.1611H72.3575C74.5412 28.1611 76.3125 29.9323 76.3125 32.1161V68.0161C76.3125 69.7998 74.8662 71.2461 73.0825 71.2461H72.2688" stroke="#475DA9" stroke-width="1.875" stroke-miterlimit="10" stroke-linecap="round" stroke-linejoin="round"/>
<path d="M52.2262 71.2461H47.6475" stroke="#475DA9" stroke-width="1.875" stroke-miterlimit="10" stroke-linecap="round" stroke-linejoin="round"/>
<path d="M26.2599 22.6747C26.2599 21.4121 25.2364 20.3884 23.9737 20.3884C22.711 20.3884 21.6875 21.4121 21.6875 22.6747C21.6875 23.9373 22.711 24.9609 23.9737 24.9609C25.2364 24.9609 26.2599 23.9373 26.2599 22.6747Z" stroke="#475DA9" stroke-width="1.875" stroke-miterlimit="10" stroke-linecap="round" stroke-linejoin="round"/>
<path d="M33.5286 22.6747C33.5286 21.4121 32.5051 20.3884 31.2423 20.3884C29.9797 20.3884 28.9561 21.4121 28.9561 22.6747C28.9561 23.9373 29.9797 24.9609 31.2423 24.9609C32.5051 24.9609 33.5286 23.9373 33.5286 22.6747Z" stroke="#475DA9" stroke-width="1.875" stroke-miterlimit="10" stroke-linecap="round" stroke-linejoin="round"/>
<path d="M40.797 22.6747C40.797 21.4121 39.7735 20.3884 38.5109 20.3884C37.2481 20.3884 36.2246 21.4121 36.2246 22.6747C36.2246 23.9373 37.2481 24.9609 38.5109 24.9609C39.7735 24.9609 40.797 23.9373 40.797 22.6747Z" stroke="#475DA9" stroke-width="1.875" stroke-miterlimit="10" stroke-linecap="round" stroke-linejoin="round"/>
<path d="M32.105 33.1611H29.2662C27.475 33.1611 26.0225 34.6136 26.0225 36.4061V54.6486C26.0225 56.4398 27.475 57.8923 29.2662 57.8923H51.7925C52.5188 57.8923 53.1887 57.6536 53.73 57.2498" stroke="#475DA9" stroke-width="1.875" stroke-miterlimit="10" stroke-linecap="round" stroke-linejoin="round"/>
<path d="M35.8555 33.1612H51.793C53.5842 33.1612 55.0367 34.6137 55.0367 36.4062V50.6875" stroke="#475DA9" stroke-width="1.875" stroke-miterlimit="10" stroke-linecap="round" stroke-linejoin="round"/>
<path d="M26.0225 39.3997H55.0362" stroke="#475DA9" stroke-width="1.875" stroke-miterlimit="10" stroke-linecap="round" stroke-linejoin="round"/>
<path d="M26.0225 45.5269H55.0362" stroke="#475DA9" stroke-width="1.875" stroke-miterlimit="10" stroke-linecap="round" stroke-linejoin="round"/>
<path d="M51.4062 51.6538H26.0225" stroke="#475DA9" stroke-width="1.875" stroke-miterlimit="10" stroke-linecap="round" stroke-linejoin="round"/>
<path d="M47.7334 33.1616V57.8921" stroke="#475DA9" stroke-width="1.875" stroke-miterlimit="10" stroke-linecap="round" stroke-linejoin="round"/>
<path d="M45.5273 61.7394H42.036C40.8651 61.7394 39.916 62.6885 39.916 63.8594V79.0625H47.6473V63.8594C47.6473 62.6885 46.6981 61.7394 45.5273 61.7394Z" stroke="#475DA9" stroke-width="1.875" stroke-miterlimit="10" stroke-linecap="round" stroke-linejoin="round"/>
<path d="M57.8378 65.5179H54.3466C53.1757 65.5179 52.2266 66.4671 52.2266 67.6379V79.0625H59.9578V67.6379C59.9578 66.4671 59.0087 65.5179 57.8378 65.5179Z" stroke="#475DA9" stroke-width="1.875" stroke-miterlimit="10" stroke-linecap="round" stroke-linejoin="round"/>
<path d="M72.2685 65.9238V79.0625H64.5371V58.7725C64.5371 57.6013 65.4859 56.6525 66.6571 56.6525H70.1485C71.3184 56.6525 72.2685 57.6013 72.2685 58.7725V62.1738" stroke="#475DA9" stroke-width="1.875" stroke-miterlimit="10" stroke-linecap="round" stroke-linejoin="round"/>
<path d="M76.3122 79.0625H37.5371" stroke="#475DA9" stroke-width="1.875" stroke-miterlimit="10" stroke-linecap="round" stroke-linejoin="round"/>
<path d="M68.4996 37.4999C68.2878 37.3235 66.3018 35.8475 64.5209 36.3839C62.7165 36.9275 62.2684 39.3963 63.4945 40.358C64.1986 40.9103 65.2579 41.3643 66.6856 41.8689C69.8811 42.9985 68.6999 47.5049 65.4494 47.5265C64.181 47.535 63.5879 47.4545 62.4736 46.7255" stroke="#7BD834" stroke-width="1.875" stroke-miterlimit="10" stroke-linecap="round" stroke-linejoin="round"/>
<path d="M66 41L66 35" stroke="#7BD834" stroke-width="1.875" stroke-miterlimit="10" stroke-linecap="round" stroke-linejoin="round"/>
<path d="M66 49L66 43" stroke="#7BD834" stroke-width="1.875" stroke-miterlimit="10" stroke-linecap="round" stroke-linejoin="round"/>
<path d="M61.8897 53.5331L52.9046 49.8007C51.895 49.3812 50.8829 50.3934 51.3024 51.403L55.0347 60.3881C55.4851 61.4721 57.0547 61.3644 57.3526 60.2289L58.0805 57.4536C58.1929 57.0255 58.5272 56.6912 58.9552 56.5789L61.7305 55.851C62.866 55.5531 62.9737 53.9835 61.8897 53.5331Z" stroke="#475DA9" stroke-width="1.875" stroke-miterlimit="10" stroke-linecap="round" stroke-linejoin="round"/>
</g>
</svg>
