<svg width="127" height="180" viewBox="0 0 127 180" fill="none" xmlns="http://www.w3.org/2000/svg">
<path d="M88.6855 125.704C88.6855 125.704 88.0209 127.695 88.0821 128.177C88.1433 128.66 89.5076 130.546 89.6038 130.598C89.7 130.66 90.8544 132.133 92.1575 132.853C93.4605 133.563 93.5567 133.914 93.6792 133.932C93.8016 133.949 93.994 133.826 93.994 133.826C93.994 133.826 94.1864 132.467 93.618 131.8C93.0495 131.142 93.8978 130.16 93.8978 130.16L92.4286 126.309L88.6943 125.712L88.6855 125.704Z" fill="#FCD1C5"/>
<path d="M102.809 168.344C102.809 168.344 100.5 168.879 98.2791 168.958C96.049 169.037 89.9797 170.186 90.0934 172.371C90.2071 174.564 93.3204 177.704 97.2646 178.178C101.209 178.651 106.299 177.572 108.879 177.642C111.45 177.713 113.269 175.186 112.307 172.748C111.353 170.327 102.8 168.344 102.8 168.344H102.809Z" fill="#160A5B"/>
<path d="M116.251 162.528C116.251 162.528 117.064 163.853 116.636 164.66C116.207 165.467 115.053 167.475 111.485 165.511C107.925 163.554 101.016 160.739 101.016 160.739C101.016 160.739 97.0548 158.66 97.3172 156.221C97.5795 153.791 101.253 154.177 101.253 154.177L116.251 162.528Z" fill="#160A5B"/>
<path d="M76.5475 74.9317C76.5475 74.9317 74.195 74.9668 73.1543 74.4931C72.1136 74.0195 69.1052 73.0282 68.9215 72.9317C68.7379 72.8352 67.0763 72.7212 66.3154 72.23C66.3154 72.23 65.4671 72.6423 66.1405 73.3352C66.8139 74.0282 68.082 74.2475 68.082 74.2475L69.2713 74.9493C69.2713 74.9493 66.8576 76.1949 66.639 76.2826C66.4203 76.3791 64.4002 77.923 64.1903 78.0195C63.9891 78.1159 63.0796 78.8177 63.4294 79.4493C63.4294 79.4493 63.4644 79.5896 63.9192 79.6861C63.9192 79.6861 62.6248 80.2738 62.9484 80.9142C63.272 81.5545 64.0853 81.2738 64.0853 81.2738C64.0853 81.2738 64.4002 82.423 65.9568 81.5282C65.9568 81.5282 66.1405 82.9493 69.6037 81.4668C69.6037 81.4668 71.0029 81.0984 72.0262 81.1686C73.0494 81.2388 75.8392 80.5195 77.3346 79.458C78.8213 78.4054 76.5563 74.923 76.5563 74.923L76.5475 74.9317Z" fill="#EBB1A1"/>
<path d="M72.0256 81.1685C73.0488 81.2387 75.8386 80.5194 77.334 79.458C78.3398 78.7475 77.6314 76.9405 77.0717 75.8352C76.3633 75.4931 75.7424 75.2124 75.7424 75.2124C75.7424 75.2124 75.8473 78.651 75.7686 79.1685C75.6899 79.6861 72.594 80.3001 70.6001 80.5896C68.6149 80.8791 66 81.651 66 81.651C66.1574 81.9668 66.8221 82.651 69.6031 81.458C69.6031 81.458 71.0024 81.0896 72.0256 81.1598V81.1685Z" fill="#DA9E91"/>
<path d="M103.808 68.2476C103.808 68.2476 98.9105 69.1072 97.2401 69.6423C95.6222 70.1598 81.5858 72.9493 76.4435 74.2037C76.12 74.2826 75.8663 74.5458 75.7876 74.8879C75.7264 75.1598 75.6827 75.4756 75.7526 75.7476C75.8926 76.3265 76.3911 82.1598 79.2421 81.2037C80.0991 80.9142 82.6178 80.3879 84.6292 80.1248C86.6407 79.8616 95.2199 79.1949 95.2199 79.1949L109.737 70.8616L103.808 68.2476Z" fill="#4846A5"/>
<path d="M93.2949 127.554C93.2949 127.554 94.5892 143.624 97.7813 149.686C101.008 155.817 101.726 166.967 102.373 169.089C103.029 171.221 105.119 174.282 108.477 174.931C111.844 175.589 112.439 173.37 112.307 172.037C112.168 170.703 111.275 168.546 111.302 167.098C111.319 165.651 111.678 164.975 111.748 164.317C111.748 164.317 115.596 165.44 116.252 162.528C116.252 162.528 115.954 161.677 115.919 161.247C115.876 160.817 116.505 150.221 116.628 148.94C116.75 147.66 116.199 140.677 115.193 137.23C114.196 133.8 114.712 126.493 114.712 126.493L103.571 124.861L93.3037 127.563L93.2949 127.554Z" fill="#102140"/>
<path d="M111.381 127.625C111.381 127.625 111.285 130.134 110.174 132.239C110.174 132.239 110.017 140.748 109.037 145.037C109.037 145.037 110.296 153.634 111.136 156.335C111.984 159.055 111.748 164.318 111.748 164.318C111.748 164.318 112.185 164.476 112.815 164.502C113.445 164.528 113.725 154.072 112.789 152.212C111.862 150.362 111.293 142.142 111.722 139.634C112.142 137.134 112.168 129.967 112.684 128.704C113.191 127.441 112.115 126.756 112.115 126.756L111.381 127.616V127.625Z" fill="#101E37"/>
<path d="M103.064 68.3789C103.064 68.3789 99.7144 70.7122 99.8106 74.8175L102.277 74.3263C102.277 74.3263 101.63 69.7649 103.064 68.3701V68.3789Z" fill="#160A5B"/>
<path d="M103.178 131.055C110.568 131.335 114.626 128.16 114.626 128.16C114.661 127.142 114.713 126.476 114.713 126.476L103.572 124.844L93.3047 127.546C93.3047 127.546 93.5583 130.73 94.1268 134.792C95.9458 135.002 97.7998 130.651 97.7998 130.651L102.881 131.011C102.881 131.011 95.7796 130.765 103.178 131.046V131.055Z" fill="#160A5B"/>
<path d="M94.7297 127.809C94.7297 127.809 110.708 134.379 118.753 122.239C118.981 121.896 119.094 121.467 119.094 121.037L119.059 118.177C119.059 117.818 119.121 117.458 119.243 117.116C119.505 116.388 119.584 115.598 119.453 114.826C118.928 111.616 117.485 102.853 117.162 100.405C116.759 97.4228 118.631 85.4842 121.447 80.3175C124.237 75.2123 117.651 63.4754 117.651 63.4754C117.651 63.4754 116.025 60.7211 112.702 61.5982C112.702 61.5982 115.806 63.8526 114.031 66.1509C112.247 68.4579 107.035 70.2386 107.035 70.2386C107.035 70.2386 97.3621 75.0368 93.9864 80.993C93.9864 80.993 92.8145 84.0895 92.6483 88.0281C92.4909 91.993 92.7795 101.484 92.5958 102.8C92.4122 104.116 91.765 113.089 91.8088 113.502C91.8525 113.923 94.721 127.791 94.721 127.791L94.7297 127.809Z" fill="#453C9E"/>
<path d="M99.6007 129.169C99.6007 129.169 109.605 103.993 109.343 94.7301C109.081 85.6424 95.0531 112.827 95.0531 112.827L94.7383 127.809C94.7383 127.809 97.7642 128.932 99.6095 129.169H99.6007Z" fill="#24126A"/>
<path d="M94.9558 99.1947C95.3406 97.1158 95.5767 95.0193 95.6292 92.9228C95.7341 89.2737 96.871 83.2123 103.535 84.3614C112.936 85.9842 108.642 98.9842 107.567 101.239C106.482 103.511 102.188 113.712 101.961 114.291C101.751 114.835 95.0607 127.475 92.7082 130.493C92.4896 130.765 92.1223 130.809 91.8687 130.589C90.9416 129.8 88.869 127.923 88.6066 126.747C88.2743 125.23 89.7085 119.739 89.7085 119.739C89.7085 119.739 93.574 105.958 93.8976 105.318C94.1337 104.835 94.3348 102.554 94.947 99.186L94.9558 99.1947Z" fill="#4846A5"/>
<path d="M103.22 68.6772C103.22 68.6772 102.494 66.9579 100.763 66.7474C99.0225 66.5456 98.043 66.0456 97.8768 65.3965C97.7107 64.7474 97.7194 63.9754 97.3084 63.0018C96.9061 62.0368 96.5825 59.6772 96.5912 59.6158C96.5912 59.5632 95.2794 59.1333 95.2182 58.5544C95.1657 57.9667 95.8829 55.8965 95.8129 55.7298C95.7429 55.5632 95.0433 54.2737 95.157 53.2825C95.2707 52.2912 95.4194 50.8526 95.9703 49.6333C96.5213 48.4228 100.361 41.0544 109.954 45.0719C119.609 49.1246 112.036 57.1597 112.884 62.4579C112.884 62.4579 113.724 63.5807 112.106 65.4404C110.479 67.3088 105.879 67.6421 103.22 68.6684V68.6772Z" fill="#EBB1A1"/>
<path d="M112.115 65.4492C113.733 63.5896 112.893 62.4668 112.893 62.4668C112.78 61.7299 112.824 60.9405 112.963 60.1159L109.15 60.7738C109.15 60.7738 103.632 55.6773 103.973 58.3615C104.323 61.0633 102.95 61.5019 102.95 61.5019L104.078 62.9843C104.367 63.3615 104.183 63.8001 103.938 64.2124C102.285 66.9317 98.4111 66.0457 98.4023 66.0457C98.8833 66.3703 99.6704 66.6159 100.764 66.7475C102.504 66.9492 103.221 68.6773 103.221 68.6773C105.888 67.651 110.48 67.3177 112.106 65.4492H112.115Z" fill="#DA9E91"/>
<path d="M95.6117 46.8089C95.6117 46.8089 94.9033 48.7826 95.979 49.6422C97.0634 50.5019 98.0429 51.3089 98.0429 51.3089L97.9992 53.8265C97.9992 54.1861 98.0866 54.5458 98.279 54.8528L99.6171 56.9931C99.8795 57.4054 100.011 57.8879 100.002 58.3791V59.4054C99.9844 59.7036 100.203 59.958 100.5 60.0019L100.859 60.0458C101.174 60.0896 101.462 59.8528 101.506 59.5282L101.681 58.1072C101.681 58.1072 102.424 56.9756 103.981 58.3703L105.389 58.9756C105.783 59.1422 106.089 59.4756 106.229 59.8879C106.605 60.9843 107.409 63.1598 108.039 63.5282C108.887 64.0282 112.245 62.3703 112.7 61.6159C113.155 60.8615 114.388 55.8177 115.131 53.4054C115.875 51.0107 115.604 45.0282 108.45 43.3615C101.314 41.6949 96.6349 44.6598 95.6117 46.8089Z" fill="#373634"/>
<path d="M112.7 61.6159C113.155 60.8616 114.388 55.8177 115.131 53.4054C115.131 53.4054 112.324 55.2037 108.712 55.6861C105.1 56.1686 98.0252 51.9756 98.0252 51.9756L97.9902 53.8177C97.9902 54.1773 98.0777 54.537 98.2701 54.844L99.6081 56.9844C99.8705 57.3966 100.002 57.8791 99.9929 58.3703V59.3966C99.9754 59.6949 100.194 59.9493 100.491 59.9931L100.85 60.037C101.165 60.0808 101.453 59.844 101.497 59.5194L101.672 58.0984C101.672 58.0984 102.415 56.9668 103.972 58.3616L106.01 59.2387C106.01 59.2387 107.182 63.0194 108.03 63.5194C108.878 64.0194 112.237 62.3616 112.691 61.6072L112.7 61.6159Z" fill="#575653"/>
<path d="M112.832 61.8525C112.832 61.8525 115.569 63.6069 114.135 66.0104C112.692 68.4227 102.547 72.5806 102.04 73.2122C102.04 73.2122 101.708 69.5806 103.063 68.3789C103.063 68.3789 110.803 67.0104 112.036 65.0631C113.269 63.1245 112.823 61.8525 112.823 61.8525H112.832Z" fill="#F0F6FF"/>
<path d="M112.832 61.8525C112.832 61.8525 113.269 63.1245 112.045 65.0631C111.109 66.5368 106.457 67.6771 104.244 68.1508C104.244 68.1508 105.057 68.6245 106.378 70.9753C109.5 69.4227 113.296 67.4227 114.144 66.0192C115.578 63.6157 112.841 61.8613 112.841 61.8613L112.832 61.8525Z" fill="#C4CCD6"/>
<path d="M107.638 86.4756C110.087 94.3966 103.327 106.502 102.321 110.028C101.307 113.59 91.1533 129.94 91.1445 129.94C91.4156 130.186 91.6693 130.414 91.8704 130.581C92.124 130.8 92.5001 130.756 92.71 130.484C95.0625 127.467 101.753 114.826 101.963 114.283C102.19 113.704 106.484 103.502 107.568 101.23C108.434 99.4229 111.373 90.6598 107.638 86.4668V86.4756Z" fill="#24126A"/>
<path d="M114.538 69.6333C114.538 69.6333 110.007 72.1158 107.804 73.2386C105.591 74.3614 103.177 75.8614 103.177 75.8614L102.355 75.0193L101.306 77.2035C101.306 77.2035 97.8339 79.2035 96.1897 80.8877C94.5456 82.5807 93.2862 84.8 93.1113 85.3087C93.1113 85.3087 97.4928 79.7824 100.912 78.1772L101.831 77.7298L102.373 76.0017L103.186 76.8877C103.186 76.8877 113.138 71.1333 114.538 69.6333Z" fill="#24126A"/>
<path opacity="0.2" d="M28.1946 134.519C41.134 134.519 51.6235 128.444 51.6235 120.949C51.6235 113.454 41.134 107.379 28.1946 107.379C15.2551 107.379 4.76562 113.454 4.76562 120.949C4.76562 128.444 15.2551 134.519 28.1946 134.519Z" fill="#0B0244"/>
<path opacity="0.2" d="M103.064 179.923C116.003 179.923 126.493 173.847 126.493 166.353C126.493 158.858 116.003 152.783 103.064 152.783C90.1243 152.783 79.6348 158.858 79.6348 166.353C79.6348 173.847 90.1243 179.923 103.064 179.923Z" fill="#0B0244"/>
<path d="M41.9162 70.1688C41.9162 70.1688 43.6041 70.4583 44.225 70.1425C44.8459 69.8267 46.4551 69.6161 48.3266 70.2828C50.1981 70.9495 50.0407 70.853 50.7841 70.9232C51.5187 70.9933 52.7256 71.0723 53.1104 71.3179C53.5039 71.5635 54.2385 72.0372 53.5564 73.0197C52.8655 74.0021 50.3031 73.0811 49.8833 73.0021C49.4635 72.9232 49.0088 73.6688 49.2186 74.3354C49.4285 75.0021 53.3028 79.2565 53.9062 79.6775C54.5184 80.0986 57.1332 81.853 57.2469 82.546C57.3606 83.239 57.212 83.3354 57.212 83.3354C57.212 83.3354 57.9728 84.0284 57.7017 84.6688C57.4306 85.3091 56.2412 84.3267 56.0226 84.4758C56.0226 84.4758 56.215 85.1863 55.9264 85.3179C55.6378 85.4495 53.9412 84.7916 53.7313 84.5811C53.7313 84.5811 53.5301 85.1337 52.5681 84.5635C51.5974 83.9933 47.8806 81.8793 47.4521 81.4758C47.0148 81.0723 45.5543 79.7214 44.9509 79.353C44.3475 78.9933 43.3068 77.7565 42.7908 77.274C42.2748 76.7916 39.966 75.6161 39.0827 75.4495C38.1994 75.2828 41.925 70.16 41.925 70.16L41.9162 70.1688Z" fill="#FCD1C5"/>
<path d="M44.8712 77.8439C44.0141 76.2825 41.1544 75.0719 41.1544 75.0719C41.3468 73.8 43.1746 70.2825 43.1746 70.2825C42.5449 70.2737 41.9152 70.1597 41.9152 70.1597C41.9152 70.1597 38.1897 75.2825 39.073 75.4491C39.9562 75.6158 42.2563 76.7912 42.781 77.2737C43.297 77.7562 44.3377 78.993 44.9411 79.3527C45.5446 79.7123 47.005 81.0719 47.4423 81.4755C47.8796 81.879 51.5964 83.993 52.5584 84.5632C53.5291 85.1334 53.7215 84.5807 53.7215 84.5807C53.9227 84.7825 55.628 85.4491 55.9166 85.3176C56.2052 85.186 56.0128 84.4755 56.0128 84.4755C56.0128 84.4755 54.8234 83.8 53.5903 83.3614C52.366 82.9316 45.7282 79.4053 44.8799 77.8439H44.8712Z" fill="#E2B1A6"/>
<path d="M39.136 64.5283C39.136 64.5283 39.5034 66.4406 39.3722 67.9932C39.241 69.5546 36.1276 67.5108 36.2413 67.2476C36.355 66.9757 37.7193 64.6336 37.7193 64.6336L39.136 64.5371V64.5283Z" fill="#FCD1C5"/>
<path d="M25.5459 17.5456C25.5459 17.5456 27.2774 17.4666 29.3763 20.9315C31.4053 24.2649 34.9647 36.2035 36.8274 40.7824C36.9936 41.1859 37.116 41.607 37.186 42.0456C37.7894 45.6157 40.6404 62.414 40.7716 64.4403C40.7716 64.4403 38.6028 65.8877 37.2122 66.2473L34.1513 65.2298L31.1342 34.7736L26.2455 18.6947L25.5371 17.5631L25.5459 17.5456Z" fill="#24126A"/>
<path d="M15.7504 117.756C15.7504 117.756 15.1645 120.572 15.4881 121.116C15.8117 121.66 19.4585 125.8 19.8433 126.362C20.2281 126.923 22.1083 130.309 25.5715 131.134C29.0347 131.958 31.396 131.748 31.8595 130.116C32.323 128.484 30.2941 125.783 29.3495 124.914C28.4138 124.046 24.4521 119.327 23.735 118.642C23.0091 117.958 21.9684 117.853 21.9684 117.853L17.4558 118.642L15.7504 117.765V117.756Z" fill="#160A5B"/>
<path d="M29.7512 109.327C29.7512 109.327 33.2056 110.669 35.0072 111.125C36.8175 111.581 41.1202 114.809 41.0678 116.432C41.024 118.055 38.8989 119.178 36.7475 119.02C34.5962 118.862 32.0337 117.485 31.6227 117.116C31.2029 116.748 29.7337 115.941 27.9671 115.388C26.2093 114.835 23.3671 114.563 22.8948 113.625C22.4313 112.686 22.3613 110.739 22.3613 110.739L29.7512 109.335V109.327Z" fill="#160A5B"/>
<path d="M21.9504 108.739C21.9767 108.572 22.0991 108.292 22.1166 108.178C22.274 107.318 22.1253 103.835 22.1253 103.835L21.3645 104.879C21.3645 104.879 21.8979 108.371 22.9386 113.818C23.201 115.204 23.9269 116.625 24.0318 117.414C24.3467 119.748 22.9649 120.204 22.9649 120.204C20.1576 122.327 17.7614 121.046 16.8956 120.362C16.0385 119.678 15.7412 118.59 14.5431 114.66C13.3537 110.757 12.3217 102.511 12.5841 100.555C12.8115 98.8267 13.4411 93.9933 13.4062 90.6776C13.3712 87.3793 10.8438 76.8355 10.8438 76.8355L21.3033 74.8004L28.4483 71.0898L33.8967 71.9144C33.8967 71.9144 34.5875 69.6074 35.3047 76.7916C36.0305 84.0811 31.6316 96.9846 31.6316 96.9846C30.4685 103.371 30.1711 110.721 29.5152 111.713C28.8506 112.713 26.2532 115.064 23.8394 113.23C23.3934 112.897 22.8949 112.546 22.6238 112.186L21.9417 108.748L21.9504 108.739Z" fill="#102140"/>
<path d="M21.3652 104.879C21.3652 104.879 24.8022 95.4845 26.4376 86.3793C28.038 77.4319 30.819 76.1775 31.9734 74.5635C31.9734 74.5635 33.7138 75.3617 34.632 75.5196C34.7457 75.5372 34.8419 75.5459 34.9294 75.5459C35.699 75.5196 31.0814 81.2828 30.2506 82.7565C29.4198 84.2389 24.6535 96.9144 24.3212 98.6687C23.9889 100.423 23.6478 112.651 24.0326 113.353C24.4174 114.055 22.712 112.827 22.712 112.827C22.712 112.827 21.6626 110.125 21.3652 104.87V104.879Z" fill="#101E37"/>
<path d="M30.2926 71.3618L28.4561 71.0811L21.3111 74.7916L10.8516 76.8267C10.8516 76.8267 13.379 87.3705 13.414 90.6688C13.4489 93.9846 12.8193 98.8179 12.5919 100.546C12.3383 102.485 13.3702 110.756 14.5509 114.651C15.0669 116.353 15.4167 117.528 15.714 118.362C16.1863 120.581 17.8566 120.941 17.8566 120.941C17.8566 120.941 13.755 108.195 14.1136 100.748C14.4722 93.3968 15.5216 87.2828 15.3292 85.8618C15.3292 85.8618 27.2405 82.1863 29.4793 74.4758C29.8291 73.274 30.0915 72.2389 30.2926 71.3618Z" fill="#101E37"/>
<path d="M9.66338 19.1859C9.66338 19.1859 8.81508 19.8964 8.63142 20.6333C8.44777 21.3613 7.39832 23.949 7.39832 23.949C7.39832 23.949 2.41344 30.5806 1.52141 32.6069C0.62063 34.6508 0.332031 36.1683 0.332031 36.1683L13.5201 52.4578C13.5201 52.4578 8.90254 68.4315 10.1881 74.2561C11.4912 80.1508 13.1878 82.3438 15.2604 82.9841C17.3419 83.6245 28.431 79.0455 29.2006 73.2034C29.9615 67.4403 29.6467 66.7034 29.6467 66.7034C29.6467 66.7034 34.8239 68.0894 35.1563 66.7648C35.4798 65.4403 34.5004 55.9227 34.238 54.5631C33.9756 53.2034 33.1711 38.1859 33.1711 38.1859C33.1711 38.1859 30.014 24.3262 29.8303 23.6508C29.6467 22.9666 27.6877 17.7648 25.169 17.4666C22.6503 17.1771 19.502 21.1947 19.502 21.1947L9.6459 19.1771L9.66338 19.1859Z" fill="#453C9E"/>
<path d="M10.2484 18.686C10.2484 18.686 9.7237 19.0369 9.61876 19.6159C9.50507 20.1948 9.07654 21.3352 10.0123 22.5281C10.9568 23.7211 18.5478 29.9404 21.6262 35.1685C24.7308 40.4492 28.5788 46.3439 28.9024 47.5632C28.9024 47.5632 30.3017 39.1948 29.0336 35.3527C27.7742 31.5369 23.7513 23.7474 22.8943 23.1685C22.046 22.5895 16.8162 22.0983 16.8162 22.0983L10.2397 18.6948L10.2484 18.686Z" fill="#F0F6FF"/>
<path d="M18.1018 27.0985C18.1018 27.0985 17.6908 27.7827 17.5684 28.309C17.5684 28.309 15.3645 27.1774 14.4375 26.7651L17.822 29.1248C17.822 29.1248 18.0231 27.8879 18.1893 27.7037C18.1893 27.7037 20.122 29.1862 20.3931 29.8441C20.6642 30.502 24.2411 39.5107 24.2411 39.5107L26.1214 42.5897L26.6024 41.8441L23.5327 33.4581C23.5327 33.4581 21.8011 30.8178 21.7749 30.7564C21.7487 30.695 20.5768 27.8616 20.5768 27.8616L18.0931 27.116L18.1018 27.0985Z" fill="#C4CCD6"/>
<path d="M18.1035 27.0983C18.1035 27.0983 19.2317 24.993 21.4005 25.072C21.4005 25.072 22.0215 27.6685 22.2051 28.7299C22.2051 28.7299 20.8058 29.3351 20.2374 28.8439C19.6689 28.3527 18.1035 27.0983 18.1035 27.0983Z" fill="#160A5B"/>
<path d="M21.8713 28.1598C21.8713 28.1598 27.4596 35.0721 29.4186 43.4229L29.0075 47.73L26.0691 42.4668C26.0691 42.4668 21.2504 30.3878 20.1309 28.1773C19.0115 25.9756 21.8713 28.151 21.8713 28.151V28.1598Z" fill="#160A5B"/>
<path d="M12.6033 55.9053C12.2272 57.379 11.7899 59.2211 11.3789 61.186C11.3789 61.186 19.6608 72.0281 27.7416 76.4404C28.5287 75.4316 29.0709 74.3439 29.2195 73.2123C29.6218 70.1597 29.7268 68.5281 29.7268 67.6597L20.3342 60.5105L12.612 55.9053H12.6033Z" fill="#24126A"/>
<path d="M12.043 39.9844C12.043 39.9844 14.4392 43.2563 15.0689 43.5545C15.7073 43.8528 20.8846 52.9493 21.9253 54.6686C22.9747 56.3879 25.7645 58.8001 25.7645 58.8001L23.1322 59.0545L12.8213 45.1773L12.043 39.9756V39.9844Z" fill="#24126A"/>
<path d="M13.5027 42.8702C12.462 40.2474 10.8353 37.9492 8.74517 36.1948C6.36642 34.1948 3.2443 32.2474 1.59142 34.0018C-1.31205 37.0807 -0.0789528 42.879 3.96143 48.3088C8.04553 53.8 14.4822 61.6158 15.9951 62.9316C17.4556 64.1948 29.9353 73.6071 37.089 77.1334C37.6225 77.3965 38.2434 77.1948 38.5583 76.6685C39.5465 75.0369 41.5929 71.6246 42.3188 70.2299C42.4675 69.9404 42.38 69.5807 42.1177 69.4141C39.5028 67.7299 26.4459 59.3088 22.5804 56.686C21.9857 56.2825 21.5047 55.7386 21.1724 55.0807C20.0442 52.8702 17.132 47.4228 14.5784 44.6421C14.1236 44.1509 13.7738 43.5544 13.5202 42.9228C13.5202 42.9053 13.5027 42.8878 13.5027 42.8702Z" fill="#4846A5"/>
<path d="M23.1055 20.4229L27.6706 25.0544L26.4899 25.4667L27.9942 26.3439C27.9942 26.3439 31.6497 35.0018 30.8539 44.8088C30.8539 44.8088 32.6642 37.0983 28.7375 26.1597L27.5219 25.5457L28.344 25.2825L23.1055 20.4229Z" fill="#24126A"/>
<path d="M10.1529 17.8965C10.2316 18.072 10.2841 18.2737 10.2666 18.4667C10.2316 18.879 10.1879 19.572 10.2229 19.8702C10.2754 20.3 13.1439 25.1421 18.9946 25.186C18.9946 25.186 19.6942 24.1334 19.8341 23.9316C19.8341 23.9316 22.2041 23.8176 23.1923 22.9579C24.1806 22.0895 23.5684 20.5807 23.5684 20.5807L23.7083 18.7649C23.7258 18.5456 23.822 18.3439 23.9794 18.1948C24.1893 17.993 24.4604 17.7035 24.5129 17.493C24.5654 17.2737 24.4254 16.8965 24.3118 16.6421C24.233 16.4667 24.1981 16.2825 24.2243 16.0895C24.2768 15.6334 24.3205 14.6509 23.9969 13.4404C23.9007 13.0895 23.9007 12.7211 23.9969 12.3702C24.1456 11.7913 24.3467 10.9404 24.373 10.6334C24.408 10.1597 23.6034 8.89652 23.5684 8.39652C23.5334 7.89652 22.8425 6.21231 22.8425 6.21231C22.8425 6.21231 18.4873 -1.89295 11.4648 1.61582C4.38971 5.15091 8.08028 12.7386 8.95482 14.8878C8.95482 14.8878 9.80312 16.6334 9.95179 17.0281C10.0742 17.3527 9.98677 17.5281 10.1617 17.9053L10.1529 17.8965Z" fill="#FCD1C5"/>
<path d="M23.4641 7.06328C23.5253 7.63346 23.3067 8.20363 22.8782 8.58083C22.0299 9.33521 20.3333 10.5721 18.0944 10.8703C16.5203 11.0808 15.6545 11.1598 15.1909 11.1861C14.8761 11.2036 14.6225 11.458 14.605 11.7826C14.57 12.3703 14.5176 13.265 14.4301 13.8703C14.3951 14.1159 14.3252 14.344 14.2202 14.5633L13.7217 15.6247C13.5993 15.8878 13.3282 16.0457 13.0396 16.0282H12.9259C12.6111 15.9931 12.3574 15.7475 12.3137 15.4317V15.3878C12.2 14.5545 11.7103 13.8177 10.9669 13.4668C10.5909 13.2914 10.1711 13.2124 9.74256 13.3878C8.53569 13.8878 9.03418 15.0633 9.03418 15.0633C9.03418 15.0633 7.56495 13.2914 6.9003 10.9405C6.24439 8.59837 6.39307 4.35276 9.45396 2.13346C12.4974 -0.0770697 16.4765 -0.971807 19.8697 1.42293C22.6683 3.39662 23.3242 5.78258 23.4641 7.06328Z" fill="#AA8383"/>
<path d="M11.8854 16.9932C11.728 16.8089 11.9291 18.423 10.2675 18.4756C10.2325 18.8879 10.1888 19.5809 10.2238 19.8791C10.2763 20.3089 13.1448 25.1511 18.9954 25.1949C18.9954 25.1949 19.6951 24.1423 19.835 23.9405C19.835 23.9405 14.4653 21.3265 13.5121 20.1335C12.5588 18.9493 12.0341 17.1861 11.8854 17.0019V16.9932Z" fill="#E2B1A6"/>
<path d="M21.3984 25.072C21.3984 25.072 22.9901 25.2562 23.7335 25.6509C23.7335 25.6509 23.9434 24.8264 23.5236 23.9229C23.5236 23.9229 23.9958 24.3088 23.9958 26.2123C23.9958 26.2123 21.6608 25.4492 21.4771 25.3965L21.3984 25.0544V25.072Z" fill="#C4CCD6"/>
<path d="M39.1972 75.379C39.1972 75.379 25.6418 67.5632 21.0504 64.4491C16.4853 61.3527 3.64706 48.2123 1.02344 43.1597C1.69683 44.8527 2.69381 46.5983 3.9619 48.3088C8.046 53.8 14.4826 61.6158 15.9956 62.9316C17.4561 64.1948 29.9358 73.607 37.0895 77.1334C37.623 77.3965 38.2439 77.1948 38.5587 76.6684C38.7511 76.3527 38.9785 75.9667 39.2321 75.5456C39.2059 75.4491 39.1884 75.3877 39.1884 75.3877L39.1972 75.379Z" fill="#24126A"/>
<path d="M8.02734 24.3613L14.2191 33.1947L15.8108 32.6245L15.8982 34.3087C15.8982 34.3087 23.3056 39.8438 28.8502 51.3438C28.8502 51.3438 21.5128 39.5017 15.6796 35.5543L15.1461 33.8613L13.9043 34.1508L8.02734 24.3613Z" fill="#24126A"/>
<path d="M7.47755 12.0722C7.40759 12.0459 7.34637 12.0283 7.28516 12.0108C8.01103 13.809 9.04298 15.0546 9.04298 15.0546C9.04298 15.0546 8.5445 13.8792 9.75136 13.3792C10.1711 13.2038 10.5997 13.2827 10.9757 13.4581C11.7191 13.809 12.2001 14.5546 12.3138 15.3792V15.423C12.3662 15.7476 12.6199 15.9932 12.9347 16.0108H13.0484C13.3282 16.0459 13.5993 15.8792 13.7305 15.616L14.229 14.5546C14.334 14.3353 14.4039 14.0985 14.4389 13.8616C14.5264 13.2564 14.5788 12.3616 14.6138 11.7739C14.6138 11.7739 10.486 13.116 7.4863 12.0634L7.47755 12.0722Z" fill="#936D6D"/>
</svg>
