<svg width="100" height="84" viewBox="0 0 100 84" fill="none" xmlns="http://www.w3.org/2000/svg">
<path opacity="0.5" d="M40.1164 82.719L0.579367 59.9254C-0.280957 59.4346 -0.167508 58.5663 0.815719 58L14.6207 50L57.2681 74.5774L43.4632 82.5774C42.4705 83.1437 40.9768 83.2098 40.1164 82.719Z" fill="#32589D" fill-opacity="0.6"/>
<path d="M14.3258 49.8327V41.9705L27.155 41.98L55.6213 25.5667C56.3209 25.1609 57.5405 25.2175 58.3441 25.68L86.6875 42.0177L99.46 42.0272V49.9082H99.4505C99.441 50.1536 99.2898 50.3895 98.9873 50.5594L58.1455 74.0986C57.4459 74.5045 56.2263 74.4478 55.4227 73.9854L14.9781 50.6727C14.5621 50.4273 14.3447 50.1252 14.3258 49.8327Z" fill="url(#paint0_linear_208_3554)"/>
<path d="M58.155 66.2365L98.9968 42.6973C99.6964 42.2915 99.6113 41.5931 98.7982 41.1306L58.3536 17.8179C57.55 17.3554 56.3304 17.2988 55.6308 17.7047L14.7891 41.2439C14.0894 41.6497 14.1745 42.3481 14.9876 42.8106L55.4322 66.1233C56.2358 66.5858 57.4554 66.6329 58.155 66.2365Z" fill="url(#paint1_linear_208_3554)"/>
<path d="M58.155 66.2365L98.9968 42.6973C99.6964 42.2915 99.6113 41.5931 98.7982 41.1306L58.3536 17.8179C57.55 17.3554 56.3304 17.2988 55.6308 17.7047L14.7891 41.2439C14.0894 41.6497 14.1745 42.3481 14.9876 42.8106L55.4322 66.1233C56.2358 66.5858 57.4554 66.6329 58.155 66.2365Z" fill="url(#paint2_linear_208_3554)"/>
<path d="M58.0126 63.4805L94.2124 42.6123C94.8269 42.2537 94.7513 41.6308 94.0422 41.2155L58.1923 20.555C57.4738 20.1397 56.396 20.102 55.772 20.4512L19.5722 41.3193C18.9577 41.678 19.0333 42.3009 19.7424 42.7162L55.5924 63.3767C56.3109 63.792 57.3887 63.8297 58.0126 63.4805Z" fill="#32589D"/>
<path d="M57.9185 61.725L91.178 42.5557C91.7453 42.2254 91.6791 41.6591 91.0173 41.2721L58.0792 22.2916C57.4269 21.9141 56.4248 21.8763 55.8575 22.1972L22.598 41.3665C22.0307 41.6968 22.0969 42.2631 22.7587 42.6501L55.6968 61.6306C56.3586 62.0175 57.3513 62.0553 57.9185 61.725Z" fill="#102140"/>
<path d="M57.6537 40.7152L61.5488 38.4783L59.4217 37.2513L55.536 39.4976L57.6537 40.7152Z" fill="#7BD834"/>
<path d="M50.4305 40.4037L54.3162 42.6405L56.4434 41.4136L52.5483 39.1767L50.4305 40.4037Z" fill="#7BD834"/>
<path d="M58.5422 41.2248L60.6599 42.4518L62.7871 41.2248L60.6599 39.9979L58.5422 41.2248Z" fill="#7BD834"/>
<path d="M51.1968 45.4532L53.324 46.6802L59.4502 43.1503L57.323 41.9233L51.1968 45.4532Z" fill="#7BD834"/>
<path opacity="0.4" d="M14.3166 31.3902L31.6933 31.494L55.631 17.6952C56.3306 17.2894 57.5502 17.346 58.3538 17.8085L82.6225 31.7961L99.4697 31.8999V42.1122L99.4603 42.1216C99.4225 42.3387 99.2712 42.5369 98.997 42.6973L58.1553 66.2365C57.4557 66.6424 56.2361 66.5857 55.4325 66.1233L14.9878 42.8106C14.6191 42.603 14.4111 42.3387 14.345 42.0744L14.3166 42.0555V31.3902Z" fill="#7BD834"/>
<path d="M14.3258 32.4001V24.538L27.155 24.5474L55.6213 8.13416C56.3209 7.72832 57.5405 7.78494 58.3441 8.24742L86.6875 24.5852L99.46 24.5946V32.4756H99.4505C99.441 32.721 99.2898 32.957 98.9873 33.1269L58.1455 56.6661C57.4459 57.0719 56.2263 57.0153 55.4227 56.5528L14.9781 33.2401C14.5621 33.0042 14.3447 32.7022 14.3258 32.4001Z" fill="url(#paint3_linear_208_3554)"/>
<path d="M58.155 48.804L98.9968 25.2648C99.6964 24.8589 99.6113 24.1605 98.7982 23.698L58.3536 0.385359C57.55 -0.0771189 56.3304 -0.133744 55.6308 0.272104L14.7891 23.8113C14.0894 24.2171 14.1745 24.9156 14.9876 25.3781L55.4322 48.6907C56.2358 49.1626 57.4554 49.2098 58.155 48.804Z" fill="url(#paint4_linear_208_3554)"/>
<path d="M58.0126 46.048L94.2124 25.1799C94.8269 24.8212 94.7513 24.1983 94.0422 23.783L58.1923 3.12248C57.4738 2.7072 56.396 2.66946 55.772 3.01867L19.5722 23.8868C18.9577 24.2455 19.0333 24.8684 19.7424 25.2837L55.5924 45.9442C56.3109 46.3595 57.3887 46.4067 58.0126 46.048Z" fill="#32589D"/>
<path d="M58.0796 44.6688L91.3392 25.4996C91.9064 25.1692 91.8403 24.6029 91.1785 24.2159L58.2404 5.23546C57.588 4.85793 56.5859 4.82017 56.0187 5.14107L22.7591 24.3103C22.1919 24.6407 22.258 25.207 22.9198 25.5939L55.8579 44.5744C56.5197 44.9519 57.5124 44.9991 58.0796 44.6688Z" fill="#102140"/>
<path d="M64.0378 18.9012L62.9565 18.2996L62.8359 18.2532C62.7696 18.2277 62.6746 18.1919 62.6247 18.1737C62.5748 18.1555 62.4767 18.1211 62.4067 18.0972C62.3368 18.0733 62.1791 18.0223 62.0562 17.9838C61.9334 17.9454 61.7732 17.8965 61.7002 17.8752C61.6272 17.8539 61.5101 17.8209 61.4401 17.8018C61.37 17.7827 61.2592 17.7534 61.1937 17.7367C61.1283 17.72 61.0144 17.6922 60.9407 17.6748C60.8669 17.6574 60.7657 17.6342 60.7159 17.6233C60.666 17.6123 60.5622 17.5904 60.4851 17.5747C60.4079 17.5589 60.2805 17.534 60.2019 17.5194C60.1233 17.5048 59.9933 17.4818 59.9131 17.4683C59.8329 17.4549 59.6774 17.431 59.5676 17.4152C59.4578 17.3994 59.3097 17.3794 59.2384 17.3707C59.1671 17.362 59.044 17.348 58.9649 17.3395C58.8858 17.331 58.7597 17.3185 58.6847 17.3117C58.6097 17.305 58.4849 17.2948 58.4073 17.2892C58.3298 17.2836 58.2317 17.2768 58.1893 17.2743C58.1469 17.2717 58.0401 17.2662 57.9518 17.2621C57.8636 17.2579 57.7108 17.2524 57.6123 17.2498C57.5138 17.2472 57.3834 17.2446 57.3226 17.244C57.2618 17.2434 57.1527 17.2432 57.0803 17.2435C57.0079 17.2439 56.8994 17.245 56.8391 17.2461C56.7788 17.2472 56.6737 17.2498 56.6053 17.252C56.537 17.2541 56.4048 17.2595 56.3117 17.2639C56.2186 17.2683 56.0298 17.28 55.8921 17.2899C55.7544 17.2998 55.5742 17.3144 55.4916 17.3225C55.409 17.3305 55.2824 17.3436 55.2101 17.3517C55.1378 17.3598 55.0164 17.3744 54.9403 17.3842C54.8642 17.394 54.7477 17.4098 54.6813 17.4193C54.6149 17.4289 54.4935 17.4474 54.4114 17.4605C54.3293 17.4737 54.2006 17.4953 54.1255 17.5085C54.0503 17.5218 53.9027 17.5498 53.7975 17.5707C53.6922 17.5915 53.543 17.6225 53.4658 17.6396C53.3887 17.6566 53.2759 17.6822 53.2152 17.6965C53.1544 17.7108 53.0592 17.7339 53.0037 17.7478C52.9481 17.7617 52.8489 17.7873 52.7832 17.8047C52.7175 17.8221 52.574 17.8623 52.4642 17.8939C52.3545 17.9255 52.2067 17.9696 52.1358 17.9917C52.065 18.0138 51.9559 18.0489 51.8934 18.0696C51.8309 18.0902 51.7176 18.1289 51.6415 18.1556C51.5656 18.1822 51.4453 18.2256 51.3742 18.2521C51.3032 18.2784 51.1732 18.3286 51.0852 18.3637C50.9973 18.3986 50.8605 18.4549 50.7811 18.4886C50.7018 18.5224 50.5821 18.5747 50.515 18.6048C50.448 18.6349 50.3361 18.6867 50.2664 18.7198C50.1967 18.753 50.0853 18.8074 50.0189 18.8409C49.9524 18.8743 49.8561 18.9237 49.8049 18.9506C49.7536 18.9775 49.6652 19.0251 49.6083 19.0564C49.5513 19.0877 49.4507 19.1444 49.3845 19.1826C49.3183 19.2207 49.2074 19.2864 49.1379 19.3286C49.0685 19.3709 48.9636 19.4363 48.9047 19.4739C48.8459 19.5116 48.7617 19.5665 48.7176 19.5959C48.6634 19.632 48.494 19.7576 48.1951 19.9834L47.7529 20.3174L47.6586 20.4011C47.6067 20.4471 47.5319 20.5145 47.4922 20.5509C47.4527 20.5873 47.3823 20.6535 47.3358 20.6981C47.2894 20.7427 47.2156 20.8156 47.1718 20.8601C47.1279 20.9046 47.0556 20.9803 47.011 21.0282C46.9664 21.0761 46.8985 21.1511 46.8601 21.1948C46.8217 21.2385 46.7576 21.3136 46.7176 21.3618C46.6777 21.4099 46.6111 21.493 46.5697 21.5463C46.5284 21.5997 46.4659 21.6825 46.4309 21.7305C46.3959 21.7784 46.3285 21.8758 46.281 21.9469C46.2335 22.0179 46.1614 22.131 46.1208 22.1981C46.0802 22.2652 46.0194 22.3709 45.9857 22.433C45.952 22.4951 45.9062 22.5824 45.8839 22.6269C45.8617 22.6714 45.8223 22.7537 45.7964 22.8097C45.7706 22.8656 45.7335 22.9504 45.714 22.998C45.6946 23.0455 45.6657 23.1189 45.6499 23.161C45.634 23.2031 45.6107 23.2673 45.5981 23.3037C45.5855 23.3401 45.5631 23.4085 45.5483 23.4557C45.5335 23.5028 45.5111 23.5786 45.4985 23.624C45.486 23.6694 45.465 23.7521 45.4519 23.8077C45.4389 23.8633 45.4231 23.9341 45.4168 23.9651C45.4106 23.9961 45.4004 24.0492 45.3942 24.0832C45.388 24.1171 45.3763 24.1915 45.3681 24.2483C45.36 24.3052 45.3493 24.3911 45.3444 24.4392C45.3394 24.4873 45.3324 24.5729 45.3289 24.6293C45.3253 24.6857 45.3215 24.7742 45.3204 24.826C45.3194 24.8777 45.319 24.9583 45.3197 25.0052C45.3204 25.052 45.3255 25.1592 45.3311 25.2434C45.3368 25.3276 45.3463 25.437 45.3523 25.4866C45.3584 25.5361 45.3697 25.6172 45.3776 25.6668C45.3855 25.7165 45.4003 25.799 45.4105 25.8503C45.4206 25.9016 45.4396 25.9877 45.4526 26.0417C45.4656 26.0958 45.4916 26.1927 45.5104 26.2572C45.5291 26.3216 45.559 26.4169 45.5769 26.4689C45.5948 26.521 45.625 26.6041 45.6441 26.6535C45.6631 26.7031 45.692 26.775 45.7082 26.8134C45.7244 26.8518 45.7604 26.9318 45.7882 26.9913C45.816 27.0507 45.8614 27.1426 45.8891 27.1954C45.9167 27.2483 45.9639 27.3347 45.9938 27.3875C46.0238 27.4402 46.0788 27.5315 46.1161 27.5901C46.1535 27.6488 46.2071 27.7304 46.2352 27.7714C46.2634 27.8125 46.3102 27.8786 46.3393 27.9185C46.3684 27.9584 46.422 28.0292 46.4584 28.076C46.4948 28.1228 46.552 28.194 46.5856 28.2343C46.6192 28.2746 46.6692 28.3334 46.6968 28.365C46.7244 28.3967 46.7866 28.4651 46.8351 28.5171C46.8836 28.569 46.9568 28.6453 46.9979 28.6864C47.0389 28.7276 47.1201 28.8058 47.1784 28.8603C47.2366 28.9148 47.3231 28.9932 47.3705 29.0344C47.418 29.0757 47.4838 29.132 47.517 29.1595C47.5501 29.187 47.6075 29.2337 47.6445 29.2631C47.6816 29.2926 47.7483 29.3443 47.7927 29.378C47.8371 29.4117 47.8942 29.4546 47.9195 29.4732C47.9448 29.4919 47.9902 29.5246 48.0204 29.546C48.0506 29.5674 48.1117 29.6099 48.1562 29.6405C48.2008 29.6709 48.2779 29.723 48.3277 29.7559C48.4076 29.8089 48.4788 29.8496 48.9375 30.1045L49.4569 30.393L49.5894 30.4542C49.6623 30.4878 49.7748 30.5386 49.8394 30.5671C49.904 30.5955 50.0107 30.6413 50.0764 30.6688C50.1423 30.6964 50.2406 30.7364 50.2949 30.7577C50.3493 30.7791 50.4473 30.8167 50.5128 30.8412C50.5783 30.8657 50.6867 30.9048 50.7536 30.9282C50.8206 30.9516 50.9389 30.9914 51.0164 31.0166C51.0939 31.0419 51.2237 31.0824 51.3048 31.1066C51.3858 31.1309 51.5175 31.1687 51.5973 31.1906C51.6771 31.2126 51.8025 31.2457 51.8758 31.2642C51.9493 31.2828 52.0563 31.309 52.1138 31.3225C52.1713 31.336 52.273 31.3588 52.3396 31.3732C52.4063 31.3877 52.505 31.4083 52.5591 31.4192C52.6132 31.43 52.7097 31.4486 52.7737 31.4605C52.8376 31.4723 52.9408 31.4907 53.003 31.5013C53.0652 31.5119 53.1769 31.53 53.251 31.5415C53.3253 31.5531 53.4573 31.5718 53.5443 31.5833C53.6314 31.5948 53.7691 31.6118 53.8505 31.6211C53.9319 31.6304 54.0778 31.6453 54.1748 31.6543C54.2718 31.6633 54.4147 31.6753 54.4922 31.6809C54.5699 31.6865 54.6681 31.6932 54.7105 31.6958C54.7529 31.6984 54.8547 31.7036 54.9369 31.7074C55.019 31.7112 55.1795 31.7166 55.2934 31.7195C55.4073 31.7224 55.5753 31.7249 55.6666 31.7251C55.7579 31.7254 55.8799 31.7249 55.9376 31.7241C55.9954 31.7233 56.0704 31.7219 56.1042 31.7211C56.1381 31.7202 56.2382 31.7171 56.3269 31.7141C56.4155 31.7111 56.5848 31.7033 56.7031 31.6966C56.8214 31.69 56.9926 31.6784 57.0837 31.6709C57.1746 31.6634 57.302 31.6522 57.3666 31.646C57.4312 31.6399 57.5409 31.6286 57.6104 31.6209C57.6798 31.6132 57.7854 31.6009 57.845 31.5936C57.9045 31.5863 58.0238 31.5705 58.1099 31.5585C58.1961 31.5465 58.3438 31.5244 58.438 31.5094C58.5323 31.4944 58.6762 31.4702 58.7578 31.4557C58.8395 31.4412 58.997 31.4111 59.1078 31.3889C59.2188 31.3667 59.3521 31.3391 59.4042 31.3276C59.4562 31.3161 59.5563 31.2933 59.6267 31.277C59.697 31.2606 59.8167 31.2316 59.8928 31.2125C59.9689 31.1934 60.0788 31.1651 60.1372 31.1496C60.1956 31.1341 60.3405 31.0934 60.4592 31.0591C60.578 31.0248 60.7202 30.9825 60.7753 30.9652C60.8303 30.9479 60.9322 30.9151 61.0018 30.8924C61.0714 30.8696 61.1744 30.835 61.2309 30.8155C61.2873 30.796 61.3855 30.7611 61.4491 30.7381C61.5127 30.715 61.6248 30.6732 61.6983 30.6451C61.7717 30.617 61.8904 30.5703 61.9621 30.5413C62.0337 30.5122 62.1472 30.465 62.2143 30.4364C62.2813 30.4078 62.3886 30.3608 62.4527 30.332C62.5168 30.3033 62.6313 30.2506 62.7072 30.2149C62.7831 30.1792 62.8924 30.1269 62.9501 30.0985C63.0077 30.0702 63.107 30.02 63.1707 29.987C63.2344 29.9541 63.3444 29.8955 63.4151 29.857C63.4858 29.8184 63.5911 29.7593 63.6492 29.7257C63.7072 29.6921 63.7907 29.6429 63.8347 29.6165C63.8787 29.59 63.946 29.549 63.9841 29.5253C64.0223 29.5016 64.0952 29.4551 64.1462 29.4221C64.2251 29.3708 64.3101 29.3081 64.7229 28.9967C65.1425 28.6801 65.2151 28.624 65.268 28.5755C65.3016 28.5448 65.3531 28.4974 65.3825 28.4704C65.4119 28.4433 65.461 28.397 65.4915 28.3676C65.5221 28.3382 65.5739 28.2874 65.6066 28.2547C65.6394 28.222 65.689 28.1713 65.717 28.1421C65.745 28.1128 65.8019 28.0513 65.8433 28.0054C65.8849 27.9595 65.9436 27.8927 65.9737 27.8571C66.0039 27.8215 66.0585 27.755 66.095 27.7094C66.1315 27.6639 66.1897 27.5884 66.2244 27.5418C66.259 27.4952 66.3174 27.4125 66.3543 27.3581C66.391 27.3037 66.4417 27.2265 66.4667 27.1865C66.4918 27.1466 66.5179 27.1017 66.5248 27.0868C66.5317 27.0719 66.5392 27.0428 66.5414 27.0222C66.5436 27.0015 66.5413 26.9706 66.5363 26.9535C66.5314 26.9363 66.5212 26.9121 66.5138 26.8997C66.5063 26.8873 66.4921 26.8685 66.4821 26.858C66.4721 26.8475 66.4504 26.829 66.4338 26.8169C66.4134 26.8019 66.3906 26.7895 66.3633 26.7782C66.341 26.7691 66.3055 26.7577 66.2843 26.7528C66.2631 26.7479 66.2277 26.7422 66.2059 26.7401C66.1839 26.738 66.1389 26.7385 66.1059 26.7411C66.0729 26.7437 65.676 26.7718 65.2238 26.8035C64.6326 26.845 64.3888 26.8639 64.3559 26.8709C64.3307 26.8763 64.2938 26.8876 64.2739 26.8962C64.254 26.9047 64.2188 26.9232 64.1957 26.9373C64.1725 26.9514 64.1307 26.98 64.1029 27.0009L64.0522 27.0388L64.034 27.0764C64.024 27.0971 64.0012 27.1379 63.9835 27.1673C63.9656 27.1966 63.9314 27.2476 63.9072 27.2806C63.8831 27.3136 63.8481 27.359 63.8293 27.3816C63.8107 27.4042 63.775 27.4456 63.7501 27.4737C63.7252 27.5017 63.6819 27.5487 63.6538 27.578C63.6257 27.6073 63.5778 27.6554 63.5473 27.6849C63.5169 27.7143 63.4593 27.7681 63.4195 27.8044C63.3797 27.8406 63.3132 27.8992 63.2717 27.9346C63.2254 27.9741 63.1191 28.0567 62.996 28.1489C62.8858 28.2313 62.7547 28.3263 62.7046 28.3598C62.6545 28.3934 62.5757 28.4452 62.5296 28.4749C62.4835 28.5047 62.4049 28.5541 62.3551 28.5848C62.3052 28.6155 62.2247 28.6638 62.176 28.6922C62.1274 28.7206 62.0412 28.7694 61.9844 28.8008C61.9277 28.8322 61.8404 28.8792 61.7905 28.9053C61.7405 28.9315 61.6603 28.9726 61.6121 28.9968C61.564 29.021 61.4721 29.0654 61.4079 29.0956C61.3436 29.1258 61.2557 29.1663 61.2124 29.1857C61.1691 29.205 61.0811 29.2432 61.017 29.2704C60.9528 29.2976 60.8476 29.3408 60.7832 29.3664C60.7188 29.392 60.62 29.4302 60.5636 29.4513C60.5073 29.4723 60.4139 29.5062 60.3562 29.5266C60.2985 29.5469 60.1973 29.5814 60.1313 29.6031C60.0653 29.6248 59.9618 29.6579 59.9012 29.6766C59.8406 29.6953 59.712 29.733 59.6155 29.7601C59.519 29.7874 59.3871 29.8231 59.3225 29.8396C59.2579 29.8561 59.1476 29.883 59.0775 29.8995C59.0075 29.9159 58.8978 29.9407 58.8338 29.9546C58.7699 29.9685 58.657 29.9915 58.5832 30.0059C58.5093 30.0202 58.3817 30.0437 58.2996 30.0579C58.2175 30.0722 58.0844 30.0938 58.0037 30.1058C57.923 30.1179 57.7907 30.1362 57.7097 30.1466C57.6286 30.157 57.505 30.1716 57.4349 30.1791C57.3649 30.1865 57.2218 30.2001 57.1169 30.2093C57.0121 30.2184 56.8479 30.2301 56.7519 30.2353C56.656 30.2406 56.5343 30.2465 56.4815 30.2485C56.4287 30.2505 56.343 30.2532 56.2912 30.2544C56.2394 30.2557 56.1427 30.2573 56.0764 30.2579C56.0101 30.2586 55.9065 30.2586 55.8463 30.258C55.786 30.2574 55.6883 30.2558 55.629 30.2544C55.5698 30.253 55.4789 30.2503 55.427 30.2483C55.3751 30.2464 55.2712 30.2413 55.196 30.2372C55.1208 30.233 55.0108 30.2259 54.9514 30.2213C54.8921 30.2168 54.7799 30.2072 54.7023 30.2001C54.6246 30.1929 54.4962 30.1795 54.4168 30.1703C54.3374 30.1611 54.1871 30.1414 54.0828 30.1264C53.9784 30.1114 53.8393 30.09 53.7735 30.0788C53.7076 30.0677 53.6067 30.0497 53.5493 30.0388C53.4918 30.028 53.4014 30.0101 53.3484 29.9992C53.2953 29.9883 53.2079 29.9695 53.154 29.9576C53.1002 29.9456 52.989 29.9192 52.907 29.8989C52.825 29.8787 52.7069 29.8482 52.6445 29.8312C52.5822 29.8142 52.4939 29.7894 52.4484 29.776C52.4029 29.7627 52.3203 29.7377 52.2649 29.7204C52.2094 29.7031 52.1196 29.6741 52.0654 29.6559C52.0111 29.6377 51.91 29.6024 51.8407 29.5775C51.7714 29.5526 51.671 29.5153 51.6176 29.4946C51.5641 29.4738 51.4689 29.4355 51.4059 29.4094C51.343 29.3833 51.2456 29.3415 51.1896 29.3164C51.1336 29.2914 51.0439 29.2503 50.9904 29.225C50.9368 29.1997 50.8365 29.1505 50.7674 29.1156C50.6885 29.0757 50.558 29.0044 50.4164 28.9239C50.2924 28.8533 50.1602 28.7758 50.1226 28.7517C50.0849 28.7276 50.0171 28.6835 49.9717 28.6537C49.9264 28.6239 49.8479 28.5704 49.7972 28.5347C49.7466 28.4991 49.6719 28.4454 49.6312 28.4154C49.5906 28.3853 49.5156 28.3278 49.4647 28.2875C49.4137 28.2472 49.3376 28.1852 49.2955 28.1497C49.2534 28.1143 49.1895 28.0592 49.1537 28.0273C49.1178 27.9955 49.0552 27.9379 49.0146 27.8992C48.9741 27.8606 48.9191 27.8067 48.8925 27.7795C48.8658 27.7522 48.8154 27.6993 48.7803 27.6618C48.7453 27.6243 48.6873 27.5593 48.6515 27.5175C48.6156 27.4757 48.5694 27.4207 48.5487 27.3953C48.5281 27.3699 48.4841 27.3132 48.451 27.2694C48.4179 27.2255 48.3728 27.1639 48.3508 27.1324C48.3287 27.101 48.2869 27.0386 48.2579 26.9939C48.2288 26.9492 48.1801 26.8697 48.1495 26.8174C48.1189 26.7651 48.0723 26.6805 48.0458 26.6295C48.0193 26.5785 47.9849 26.5092 47.9694 26.4756C47.9539 26.442 47.9303 26.3893 47.9169 26.3585C47.9034 26.3277 47.8762 26.2598 47.8561 26.2077C47.8361 26.1557 47.8095 26.082 47.7969 26.044C47.7844 26.006 47.7638 25.9398 47.7512 25.8968C47.7386 25.8539 47.7178 25.7758 47.705 25.7233C47.6922 25.6708 47.6738 25.585 47.664 25.5327C47.6543 25.4804 47.6404 25.3958 47.6331 25.3448C47.6258 25.2937 47.6148 25.178 47.6086 25.0877C47.6025 24.9973 47.5981 24.8727 47.5989 24.8106C47.5997 24.7486 47.6031 24.6549 47.6064 24.6025C47.6098 24.5501 47.6161 24.4736 47.6205 24.4327C47.6249 24.3917 47.6346 24.3175 47.6421 24.2677C47.6495 24.218 47.6615 24.1474 47.6685 24.111C47.6757 24.0745 47.6892 24.0109 47.6986 23.9698C47.708 23.9286 47.7259 23.8577 47.7383 23.8122C47.7508 23.7667 47.7714 23.6962 47.7842 23.6554C47.7971 23.6146 47.8204 23.5455 47.836 23.5018C47.8516 23.458 47.8884 23.3646 47.9179 23.2941C47.9473 23.2237 47.9897 23.1284 48.012 23.0824C48.0343 23.0364 48.067 22.9713 48.0846 22.9377C48.1022 22.9041 48.135 22.8443 48.1573 22.8048C48.1797 22.7654 48.2159 22.7035 48.2378 22.6672C48.2597 22.6309 48.311 22.5512 48.3518 22.49C48.3926 22.4289 48.4549 22.3397 48.4902 22.292C48.5255 22.2442 48.5834 22.1686 48.6189 22.124C48.6544 22.0793 48.7091 22.013 48.7404 21.9765C48.7718 21.94 48.8313 21.8726 48.8728 21.8268C48.9143 21.781 48.9813 21.7092 49.0218 21.6673C49.0623 21.6254 49.1249 21.5622 49.1609 21.5269C49.197 21.4915 49.2636 21.4281 49.3091 21.3861C49.3546 21.3439 49.4252 21.2803 49.466 21.2446C49.5069 21.2089 49.5681 21.1559 49.6021 21.1269C49.6361 21.0979 49.7585 21.0018 49.874 20.9133C50.0066 20.8118 50.1253 20.724 50.1957 20.6756C50.2572 20.6333 50.3602 20.5645 50.4249 20.5225C50.4895 20.4806 50.5812 20.4226 50.6287 20.3936C50.6762 20.3645 50.7549 20.3176 50.8035 20.2892C50.8522 20.2609 50.939 20.2117 50.9965 20.1799C51.054 20.1481 51.1482 20.0975 51.2059 20.0676C51.2637 20.0377 51.3528 19.9924 51.4041 19.967C51.4554 19.9415 51.5355 19.9028 51.5822 19.8808C51.6289 19.8589 51.6988 19.8266 51.7374 19.8092C51.7761 19.7917 51.8649 19.7529 51.9349 19.7229C52.0049 19.6929 52.1263 19.6428 52.2048 19.6116C52.2833 19.5803 52.3899 19.5391 52.4416 19.5199C52.4933 19.5008 52.5774 19.4703 52.6285 19.4523C52.6795 19.4342 52.7667 19.4043 52.8221 19.3857C52.8776 19.3671 52.9751 19.3356 53.0388 19.3155C53.1025 19.2955 53.2375 19.2554 53.3388 19.2264C53.4402 19.1973 53.5864 19.1573 53.6637 19.1374C53.7411 19.1175 53.8759 19.0846 53.9633 19.0643C54.0506 19.044 54.1854 19.0142 54.2627 18.9981C54.34 18.982 54.4603 18.9582 54.5299 18.9452C54.5996 18.9322 54.7367 18.9085 54.8347 18.8925C54.9326 18.8765 55.0691 18.8556 55.138 18.8459C55.2069 18.8363 55.3201 18.8215 55.3896 18.8131C55.4591 18.8047 55.5743 18.7918 55.6457 18.7845C55.7171 18.7772 55.8549 18.7646 55.9519 18.7566C56.049 18.7484 56.2176 18.7373 56.3265 18.7319C56.4355 18.7265 56.5807 18.7204 56.6494 18.7183C56.718 18.7163 56.8371 18.714 56.914 18.7132C56.9908 18.7124 57.0962 18.7121 57.1481 18.7124C57.1999 18.7128 57.3115 18.7147 57.396 18.7168C57.4804 18.7189 57.6142 18.7237 57.6933 18.7274C57.7724 18.7311 57.9016 18.7385 57.9804 18.744C58.0593 18.7494 58.2078 18.7618 58.3105 18.7714C58.4133 18.781 58.5573 18.7961 58.6305 18.805C58.7038 18.8138 58.8342 18.8312 58.9202 18.8435C59.0062 18.8559 59.1219 18.8734 59.1773 18.8826C59.2327 18.8918 59.334 18.9096 59.4023 18.9221C59.4706 18.9346 59.5811 18.9562 59.6478 18.9699C59.7145 18.9836 59.8292 19.0087 59.9028 19.0255C59.9762 19.0424 60.0949 19.0711 60.1665 19.0894C60.2381 19.1077 60.3629 19.1414 60.4439 19.1643C60.5248 19.1872 60.6476 19.2235 60.7167 19.2451C60.7859 19.2667 60.8977 19.3031 60.9652 19.3261C61.0327 19.3491 61.1346 19.3851 61.1916 19.4061C61.2487 19.427 61.3399 19.4617 61.3943 19.4831C61.4486 19.5045 61.5378 19.5406 61.5924 19.5635C61.647 19.5863 61.7375 19.6255 61.7935 19.6505C61.8496 19.6756 61.9402 19.7173 61.995 19.7433C62.0498 19.7693 62.1593 19.8236 62.2384 19.8641C62.3231 19.9074 62.4448 19.9738 62.5346 20.0256C62.6183 20.074 62.7198 20.1344 62.76 20.1599C62.8001 20.1854 62.8795 20.237 62.9363 20.2745C62.9932 20.312 63.0903 20.3783 63.1522 20.4218C63.2143 20.4653 63.3055 20.5307 63.355 20.5671C63.4045 20.6036 63.4992 20.6745 63.5652 20.7247C63.6312 20.775 63.7275 20.8492 63.7791 20.8897C63.8326 20.9316 63.8884 20.9718 63.9086 20.9829C63.9282 20.9937 63.9661 21.0124 63.9929 21.0244C64.0197 21.0365 64.0634 21.0533 64.0898 21.0619C64.1162 21.0704 64.1597 21.0806 64.1863 21.0846L64.2348 21.0918L65.0659 21.0346C65.6978 20.9911 65.9073 20.975 65.9402 20.9674C65.964 20.9619 66.0031 20.9493 66.0271 20.9393C66.0512 20.9293 66.0896 20.9098 66.1125 20.8959C66.1401 20.8792 66.1659 20.8599 66.1887 20.839C66.2076 20.8216 66.2306 20.7979 66.2397 20.7862C66.2488 20.7746 66.2639 20.7524 66.2733 20.7369C66.2793 20.7195 66.2914 20.6933 66.2965 20.6767C66.3016 20.66 66.3063 20.633 66.3069 20.6164C66.3067 20.5995 66.3033 20.5763 66.2981 20.5642C66.292 20.5495 66.2663 20.5196 66.2187 20.4708C66.1792 20.4309 66.1163 20.3678 66.0773 20.3297C66.0383 20.2916 65.9783 20.2339 65.9436 20.2011C65.9089 20.1683 65.8456 20.1098 65.803 20.0712C65.7603 20.0326 65.6817 19.9631 65.628 19.9168C65.5742 19.8705 65.4874 19.7976 65.4356 19.7551C65.3831 19.7122 65.2899 19.6376 65.2286 19.5894L65.1162 19.5013L64.0378 18.9012ZM69.9364 22.1763L69.7064 22.0485L67.2756 22.2657L64.8446 22.4829L64.6229 22.8402C64.5009 23.0367 64.3889 23.217 64.3739 23.2409L64.3467 23.2843L63.128 23.3421L61.9093 23.3999L61.896 23.3697C61.8885 23.353 61.864 23.3025 61.8414 23.2573C61.8188 23.2121 61.7711 23.1275 61.7354 23.0692C61.6997 23.0109 61.6546 22.9404 61.635 22.9125C61.6155 22.8846 61.5768 22.832 61.549 22.7956C61.5211 22.7593 61.4764 22.7031 61.4495 22.671C61.4226 22.6388 61.3773 22.5871 61.3488 22.5561C61.3203 22.5252 61.2758 22.4782 61.25 22.4518C61.2241 22.4255 61.1776 22.38 61.1467 22.3509C61.1158 22.3217 61.0685 22.2782 61.0414 22.2541C61.0144 22.2301 60.9589 22.1834 60.9182 22.1503C60.8774 22.1172 60.8202 22.0719 60.7909 22.0497C60.7618 22.0274 60.7048 21.9858 60.6643 21.9573C60.6239 21.9287 60.5527 21.8804 60.5061 21.8499C60.4595 21.8195 60.36 21.759 60.2849 21.7155C60.2042 21.6687 60.1 21.612 60.0297 21.5767C59.9645 21.5439 59.8734 21.4998 59.8273 21.4787C59.7813 21.4577 59.6979 21.4211 59.6421 21.3976C59.5862 21.3741 59.505 21.3413 59.4616 21.3247C59.4183 21.3082 59.3403 21.2797 59.2884 21.2614C59.2365 21.243 59.1487 21.2139 59.0934 21.1965C59.038 21.1791 58.9515 21.1531 58.9011 21.1386C58.8507 21.1241 58.7545 21.0985 58.6874 21.0818C58.6202 21.065 58.521 21.0417 58.4669 21.0299C58.4128 21.0182 58.3181 20.999 58.2566 20.9874C58.1952 20.9757 58.0709 20.9552 57.9805 20.9418C57.8901 20.9283 57.7664 20.9117 57.7057 20.9049C57.6449 20.8982 57.5502 20.8887 57.495 20.8839C57.4399 20.8792 57.3376 20.8719 57.2676 20.8677C57.1976 20.8636 57.0866 20.8588 57.0209 20.857C56.9553 20.8552 56.8571 20.8537 56.8027 20.8536C56.7483 20.8535 56.6487 20.8546 56.5814 20.856C56.5141 20.8574 56.3508 20.8659 56.2185 20.8749C56.0862 20.8839 55.9284 20.8968 55.8679 20.9037C55.8074 20.9105 55.7067 20.9231 55.6441 20.9317C55.5815 20.9403 55.4761 20.9564 55.4099 20.9673C55.3436 20.9783 55.2345 20.9981 55.1674 21.0114C55.1003 21.0248 55.0011 21.0457 54.9469 21.058C54.8927 21.0703 54.7999 21.0926 54.7406 21.1075C54.6814 21.1225 54.5611 21.1558 54.4734 21.1814C54.3857 21.207 54.2653 21.2443 54.206 21.2642C54.1467 21.2841 54.0555 21.3159 54.0035 21.3349C53.9515 21.3539 53.8565 21.3905 53.7923 21.4163C53.7282 21.442 53.64 21.4787 53.5963 21.4977C53.5527 21.5168 53.4705 21.5544 53.4135 21.5813C53.3566 21.6081 53.27 21.6507 53.2211 21.6759C53.1721 21.7011 53.0988 21.74 53.058 21.7623C53.0173 21.7846 52.9424 21.8274 52.8915 21.8575C52.8406 21.8876 52.7619 21.9358 52.7167 21.9646C52.6715 21.9934 52.5922 22.046 52.5404 22.0817C52.4886 22.1172 52.4077 22.1752 52.3607 22.2105C52.3137 22.2457 52.237 22.306 52.1901 22.3443C52.1433 22.3827 52.0744 22.4412 52.0371 22.4744C51.9997 22.5075 51.9376 22.5648 51.8991 22.6018C51.8606 22.6388 51.806 22.693 51.7779 22.7223C51.7499 22.7517 51.7013 22.8042 51.67 22.8393C51.6386 22.8742 51.5863 22.9359 51.5536 22.9762C51.521 23.0165 51.4756 23.0746 51.4529 23.1053C51.4302 23.136 51.3871 23.1978 51.3572 23.2425C51.3274 23.2873 51.2854 23.3534 51.2641 23.3895C51.2427 23.4255 51.2075 23.4884 51.1859 23.5293C51.1642 23.5701 51.125 23.6525 51.0989 23.7123C51.0727 23.7721 51.0397 23.8538 51.0256 23.8939C51.0115 23.9339 50.9911 23.9965 50.9803 24.0329C50.9696 24.0693 50.9523 24.1357 50.9419 24.1806C50.9315 24.2254 50.9173 24.298 50.9104 24.3419C50.9035 24.3858 50.8947 24.4555 50.8908 24.4967C50.8869 24.5379 50.8826 24.6041 50.8811 24.6438C50.8797 24.6834 50.8834 24.786 50.8893 24.8718C50.8952 24.9576 50.9065 25.0631 50.9144 25.1063C50.9223 25.1494 50.9355 25.2131 50.9437 25.2479C50.9519 25.2826 50.969 25.3455 50.9816 25.3876C50.9943 25.4298 51.02 25.5042 51.0388 25.553C51.0575 25.6017 51.0867 25.6714 51.1037 25.7077C51.1206 25.7441 51.1475 25.7989 51.1634 25.8295C51.1792 25.8602 51.2201 25.9308 51.2541 25.9865C51.2882 26.0422 51.3382 26.1185 51.3652 26.156C51.3922 26.1935 51.4356 26.251 51.4617 26.2838C51.4877 26.3166 51.5361 26.374 51.5691 26.4115C51.6021 26.4489 51.6532 26.5042 51.6827 26.5344C51.7122 26.5646 51.7672 26.6184 51.8049 26.6539C51.8426 26.6895 51.9069 26.7469 51.9479 26.7816C51.9888 26.8163 52.0514 26.8671 52.0869 26.8945C52.1224 26.9218 52.1723 26.9593 52.1977 26.9779C52.2232 26.9964 52.2729 27.0314 52.3082 27.0556C52.3435 27.0799 52.4002 27.1177 52.4341 27.1396C52.4681 27.1616 52.5573 27.2151 52.6323 27.2586C52.7152 27.3068 52.8169 27.3621 52.892 27.3999C52.9599 27.4341 53.0621 27.4832 53.1192 27.5091C53.1762 27.5349 53.2587 27.5709 53.3022 27.5889C53.3457 27.607 53.4299 27.6402 53.4892 27.6627C53.5485 27.6853 53.6476 27.7208 53.7093 27.7415C53.7711 27.7623 53.8509 27.7881 53.8866 27.7989C53.9224 27.8097 53.9878 27.8288 54.0321 27.8414C54.0763 27.8541 54.1538 27.875 54.2041 27.8879C54.2546 27.9008 54.3509 27.9235 54.4182 27.9385C54.4855 27.9534 54.5876 27.9746 54.6449 27.9856C54.7021 27.9965 54.8022 28.0138 54.8671 28.024C54.932 28.0341 55.0291 28.0482 55.083 28.0554C55.1368 28.0625 55.2231 28.0727 55.2747 28.0782C55.3264 28.0837 55.4201 28.0923 55.4831 28.0973C55.5461 28.1024 55.6512 28.1093 55.7166 28.1126C55.782 28.1159 55.877 28.1195 55.9278 28.1207C55.9786 28.1219 56.0723 28.1229 56.1361 28.123C56.1998 28.123 56.2994 28.122 56.3573 28.1206C56.4151 28.1193 56.5727 28.1107 56.7074 28.1014C56.8421 28.0922 57.0081 28.0782 57.0762 28.0703C57.1443 28.0624 57.2501 28.0488 57.3111 28.0402C57.3722 28.0316 57.4756 28.0155 57.541 28.0045C57.6062 27.9935 57.7153 27.9732 57.7832 27.9595C57.8511 27.9457 57.9534 27.9236 58.0103 27.9104C58.0673 27.8971 58.1532 27.8763 58.2013 27.864C58.2494 27.8518 58.3605 27.8209 58.4482 27.7953C58.536 27.7696 58.6564 27.7324 58.7157 27.7125C58.775 27.6926 58.8661 27.6607 58.9181 27.6417C58.9702 27.6227 59.0653 27.5861 59.1294 27.5604C59.1935 27.5346 59.2805 27.4985 59.3227 27.48C59.3649 27.4615 59.4424 27.4262 59.4949 27.4015C59.5474 27.3767 59.6181 27.3425 59.652 27.3255C59.686 27.3084 59.7433 27.2789 59.7793 27.2599C59.8153 27.2408 59.8818 27.2043 59.9271 27.1786C59.9723 27.153 60.0368 27.1154 60.0704 27.0952C60.104 27.0749 60.1645 27.0375 60.2049 27.012C60.2453 26.9866 60.3295 26.9305 60.3921 26.8874C60.4608 26.8402 60.5545 26.7712 60.6283 26.7138C60.6955 26.6613 60.7849 26.5885 60.827 26.552C60.869 26.5154 60.933 26.4579 60.9692 26.4241C61.0053 26.3903 61.06 26.3374 61.0907 26.3065C61.1213 26.2756 61.1673 26.2277 61.193 26.2001C61.2187 26.1724 61.2604 26.1261 61.2857 26.0972C61.3111 26.0682 61.3539 26.0173 61.3809 25.9841C61.4078 25.9509 61.4462 25.9021 61.4662 25.8757C61.4861 25.8492 61.5248 25.7959 61.5521 25.7572C61.5795 25.7185 61.6223 25.6541 61.6473 25.6141C61.6723 25.5741 61.7107 25.5098 61.7327 25.4711C61.7547 25.4324 61.7853 25.3759 61.8007 25.3456C61.8162 25.3152 61.8465 25.2512 61.8681 25.2034C61.8897 25.1555 61.9201 25.0817 61.9358 25.0395C61.9514 24.9973 61.9738 24.9317 61.9857 24.8938L62.0073 24.8249L63.2628 24.7388L64.5183 24.6527L64.7785 24.9933L65.0386 25.334L67.4984 25.1655C69.4077 25.0347 69.9678 24.9949 70.0012 24.9872C70.025 24.9817 70.061 24.9706 70.0813 24.9624C70.1098 24.9508 70.1321 24.9375 70.1793 24.9041C70.2309 24.8675 70.2441 24.8561 70.2651 24.8298C70.2788 24.8128 70.2971 24.7829 70.3058 24.7635C70.3146 24.7442 70.3238 24.7133 70.3264 24.695C70.329 24.6766 70.329 24.649 70.3265 24.6334C70.324 24.618 70.3158 24.5924 70.3085 24.5767C70.3011 24.561 70.2875 24.539 70.2783 24.5279C70.2691 24.5168 70.0914 24.3263 69.8832 24.1045C69.6751 23.8828 69.497 23.6955 69.4875 23.6883C69.478 23.6811 69.4638 23.665 69.4559 23.6525C69.4475 23.639 69.4405 23.6136 69.4388 23.59C69.4371 23.5682 69.4387 23.5358 69.4422 23.5182C69.4456 23.5005 69.4558 23.4657 69.4647 23.4409L69.4809 23.3957L69.8101 22.9314C69.9911 22.676 70.1447 22.4551 70.1514 22.4404C70.1582 22.4258 70.1658 22.3991 70.1684 22.3812C70.1709 22.3632 70.1715 22.3385 70.1697 22.3263L70.1664 22.304L69.9364 22.1763ZM58.7465 22.8216C58.8255 22.8668 58.9161 22.9216 58.951 22.9456C58.9854 22.9693 59.0339 23.0038 59.0588 23.0224C59.0837 23.0409 59.1332 23.0808 59.1687 23.1109C59.2043 23.1411 59.2614 23.1946 59.2957 23.2298C59.33 23.265 59.3715 23.3101 59.3881 23.33C59.4046 23.35 59.4349 23.3888 59.4556 23.4162C59.4761 23.4437 59.5058 23.4859 59.5214 23.51C59.537 23.5341 59.5499 23.555 59.55 23.5566C59.5501 23.5582 58.8312 23.6088 57.9524 23.6691C57.0736 23.7295 56.3278 23.7826 56.295 23.7872C56.2623 23.7918 56.2082 23.8009 56.1748 23.8075C56.1414 23.814 56.0795 23.8296 56.0372 23.842C55.9949 23.8545 55.9336 23.8755 55.901 23.8889C55.8684 23.9022 55.8234 23.9225 55.8011 23.934C55.7787 23.9456 55.7415 23.9665 55.7183 23.9806C55.6952 23.9947 55.6603 24.0182 55.6408 24.0328C55.6213 24.0474 55.5905 24.0732 55.5724 24.0901C55.5543 24.1069 55.5277 24.1338 55.5134 24.1498C55.499 24.1658 55.4746 24.1975 55.4591 24.2203C55.4435 24.2431 55.4204 24.2854 55.4076 24.3142C55.3949 24.3431 55.3802 24.3849 55.3751 24.4072C55.37 24.4295 55.3644 24.4644 55.3627 24.4847C55.3611 24.505 55.3621 24.5476 55.3651 24.5793C55.3682 24.6109 55.3756 24.6532 55.3817 24.6732C55.3877 24.6932 55.3994 24.7246 55.4075 24.743C55.4157 24.7614 55.4335 24.7936 55.4469 24.8145C55.4605 24.8355 55.4843 24.8671 55.4999 24.8848C55.5156 24.9025 55.5431 24.93 55.5611 24.946C55.5791 24.9619 55.6118 24.9875 55.6337 25.0029C55.6555 25.0182 55.6904 25.0402 55.7112 25.0517C55.732 25.0633 55.7694 25.0815 55.7942 25.0923C55.8191 25.1031 55.8588 25.1188 55.8825 25.1272C55.9062 25.1356 55.9536 25.1496 55.9877 25.1583C56.0218 25.167 56.0793 25.1788 56.1154 25.1845C56.1514 25.1902 56.2099 25.1972 56.2453 25.2001C56.2808 25.203 56.3382 25.2054 56.3731 25.2054C56.4079 25.2054 57.1574 25.1563 58.0386 25.096C58.9198 25.0359 59.6429 24.9877 59.6453 24.9891C59.6478 24.9905 59.6365 25.0191 59.6202 25.0527C59.6039 25.0863 59.5794 25.1334 59.5658 25.1572C59.5523 25.1811 59.5304 25.218 59.5173 25.2392C59.5042 25.2603 59.4695 25.31 59.4404 25.3495C59.4112 25.389 59.3618 25.4498 59.3308 25.4846C59.2997 25.5193 59.2493 25.5719 59.2188 25.6014C59.1884 25.6308 59.1416 25.6747 59.1149 25.6988C59.0857 25.7251 59.0065 25.7874 58.9161 25.855C58.8062 25.9372 58.7451 25.9802 58.6892 26.0148C58.6471 26.0408 58.5823 26.0795 58.5451 26.1008C58.5078 26.122 58.4478 26.1548 58.4118 26.1737C58.3757 26.1926 58.303 26.2281 58.2503 26.2528C58.1976 26.2774 58.1097 26.3156 58.055 26.3378C58.0002 26.3599 57.9138 26.3927 57.8628 26.4106C57.8118 26.4286 57.7154 26.4594 57.6485 26.4791C57.5816 26.4988 57.4886 26.5243 57.4418 26.5357C57.3951 26.5472 57.315 26.5652 57.264 26.5758C57.2129 26.5863 57.1199 26.6032 57.0573 26.6133C56.9946 26.6234 56.8997 26.6369 56.8464 26.6431C56.7931 26.6495 56.6844 26.659 56.605 26.6644C56.5255 26.6698 56.4185 26.675 56.3672 26.6759C56.3158 26.6768 56.2219 26.6763 56.1585 26.6748C56.0951 26.6732 56.0006 26.6692 55.9485 26.6657C55.8964 26.6622 55.8147 26.6553 55.7668 26.6503C55.719 26.6453 55.6235 26.6327 55.5545 26.6222C55.4856 26.6117 55.3859 26.5943 55.333 26.5835C55.28 26.5727 55.1899 26.5519 55.1326 26.5374C55.0754 26.523 54.9831 26.497 54.9276 26.4798C54.872 26.4626 54.7952 26.4372 54.7569 26.4234C54.7186 26.4096 54.6547 26.3853 54.6149 26.3693C54.5752 26.3533 54.507 26.3242 54.4633 26.3046C54.4197 26.285 54.3327 26.2418 54.2698 26.2088C54.2026 26.1734 54.1211 26.1269 54.0717 26.0957C54.0255 26.0666 53.9556 26.02 53.9164 25.9921C53.8773 25.9642 53.8131 25.9151 53.7737 25.8829C53.7345 25.8508 53.6831 25.8063 53.6596 25.7842C53.6361 25.762 53.6011 25.7276 53.5818 25.7078C53.5625 25.6879 53.5294 25.6524 53.5085 25.6289C53.4875 25.6054 53.4488 25.5582 53.4224 25.524C53.396 25.4898 53.3508 25.4233 53.3219 25.3763C53.2931 25.3292 53.2553 25.2599 53.2378 25.2222C53.2204 25.1846 53.1998 25.1371 53.1921 25.1168C53.1844 25.0964 53.1684 25.0468 53.1566 25.0066C53.1448 24.9664 53.1299 24.9053 53.1234 24.8709C53.117 24.8365 53.1088 24.7674 53.1054 24.7175C53.102 24.6676 53.1006 24.5981 53.1023 24.5631C53.1039 24.5281 53.1104 24.4655 53.1165 24.424C53.1227 24.3825 53.1347 24.3206 53.1432 24.2864C53.1518 24.2522 53.1674 24.1984 53.178 24.1669C53.1886 24.1354 53.2138 24.0722 53.2341 24.0266C53.2544 23.981 53.2872 23.9149 53.3071 23.8797C53.3269 23.8445 53.3643 23.7844 53.3901 23.7461C53.4158 23.7079 53.4613 23.6461 53.4912 23.6088C53.521 23.5715 53.5648 23.5198 53.5883 23.494C53.6119 23.4682 53.6524 23.4257 53.6782 23.3997C53.7042 23.3736 53.7546 23.3257 53.7903 23.2932C53.8388 23.249 53.8928 23.2059 54.0033 23.123C54.1138 23.0401 54.1718 22.9993 54.2323 22.9617C54.2768 22.934 54.3427 22.8947 54.3787 22.8743C54.4148 22.8539 54.4738 22.8218 54.5098 22.8029C54.5459 22.784 54.6184 22.7484 54.6711 22.7237C54.7238 22.6991 54.8118 22.6608 54.8667 22.6387C54.9216 22.6165 55.0081 22.5837 55.059 22.5658C55.1098 22.548 55.2062 22.5172 55.273 22.4974C55.3399 22.4777 55.4328 22.4522 55.4795 22.4408C55.5262 22.4293 55.6062 22.4113 55.6574 22.4008C55.7085 22.3902 55.8016 22.3733 55.8642 22.3632C55.9268 22.3531 56.0199 22.3398 56.0709 22.3337C56.1219 22.3277 56.2306 22.3181 56.3124 22.3125C56.3941 22.3069 56.5101 22.3016 56.57 22.3008C56.6299 22.3001 56.7204 22.3005 56.771 22.3017C56.8216 22.3031 56.8961 22.3061 56.9365 22.3085C56.9769 22.3109 57.0513 22.3167 57.1019 22.3212C57.1525 22.3258 57.2539 22.3381 57.3272 22.3486C57.4005 22.359 57.5097 22.3775 57.5699 22.3896C57.6301 22.4017 57.7195 22.4216 57.7686 22.4339C57.8177 22.4461 57.8954 22.4672 57.9413 22.4807C57.9871 22.4943 58.0527 22.5147 58.0869 22.5262C58.1211 22.5376 58.1906 22.5627 58.2413 22.5819C58.292 22.6012 58.3662 22.6312 58.4063 22.6488C58.4463 22.6662 58.5073 22.6941 58.5419 22.7106C58.5764 22.7271 58.6685 22.7771 58.7465 22.8216Z" fill="#7DB834"/>
<defs>
<linearGradient id="paint0_linear_208_3554" x1="32.5124" y1="26.5799" x2="98.7724" y2="79.8018" gradientUnits="userSpaceOnUse">
<stop stop-color="#BCD5FF"/>
<stop offset="0.151" stop-color="#A3BEFF"/>
<stop offset="0.3866" stop-color="#82A0FF"/>
<stop offset="0.6124" stop-color="#6A8AFF"/>
<stop offset="0.8221" stop-color="#5C7DFF"/>
<stop offset="1" stop-color="#5778FF"/>
</linearGradient>
<linearGradient id="paint1_linear_208_3554" x1="19.9734" y1="42.7835" x2="112.232" y2="13.9202" gradientUnits="userSpaceOnUse">
<stop stop-color="#C0D6FF"/>
<stop offset="0.2978" stop-color="#C5DBFF"/>
<stop offset="0.6488" stop-color="#D3E9FF"/>
<stop offset="1" stop-color="#E9FFFF"/>
</linearGradient>
<linearGradient id="paint2_linear_208_3554" x1="19.9734" y1="42.7835" x2="112.232" y2="13.9202" gradientUnits="userSpaceOnUse">
<stop stop-color="#C0D6FF"/>
<stop offset="0.2978" stop-color="#C5DBFF"/>
<stop offset="0.6488" stop-color="#D3E9FF"/>
<stop offset="1" stop-color="#E9FFFF"/>
</linearGradient>
<linearGradient id="paint3_linear_208_3554" x1="32.5124" y1="9.15369" x2="98.7724" y2="62.3755" gradientUnits="userSpaceOnUse">
<stop stop-color="#BCD5FF"/>
<stop offset="0.151" stop-color="#A3BEFF"/>
<stop offset="0.3866" stop-color="#82A0FF"/>
<stop offset="0.6124" stop-color="#6A8AFF"/>
<stop offset="0.8221" stop-color="#5C7DFF"/>
<stop offset="1" stop-color="#5778FF"/>
</linearGradient>
<linearGradient id="paint4_linear_208_3554" x1="19.9734" y1="25.3571" x2="112.232" y2="-3.50603" gradientUnits="userSpaceOnUse">
<stop stop-color="#C0D6FF"/>
<stop offset="0.2978" stop-color="#C5DBFF"/>
<stop offset="0.6488" stop-color="#D3E9FF"/>
<stop offset="1" stop-color="#E9FFFF"/>
</linearGradient>
</defs>
</svg>
