<svg width="20" height="20" viewBox="0 0 20 20" fill="none" xmlns="http://www.w3.org/2000/svg">
<path d="M9.991 20C7.34123 20 4.79997 18.9464 2.9263 17.0711C1.05262 15.1957 0 12.6522 0 10C0 7.34787 1.05262 4.80434 2.9263 2.92898C4.79997 1.05362 7.34123 5.3721e-05 9.991 5.36814e-05C11.548 -0.00510518 13.0837 0.361637 14.4707 1.06982C14.5525 1.11135 14.6253 1.1686 14.6849 1.2383C14.7446 1.30799 14.79 1.38876 14.8185 1.47601C14.8469 1.56325 14.858 1.65526 14.8509 1.74677C14.8439 1.83828 14.8189 1.9275 14.7774 2.00935C14.7359 2.0912 14.6787 2.16406 14.6091 2.22378C14.5394 2.28351 14.4587 2.32892 14.3716 2.35742C14.2844 2.38593 14.1925 2.39697 14.1011 2.38992C14.0096 2.38287 13.9205 2.35786 13.8387 2.31633C12.649 1.70259 11.3295 1.38359 9.991 1.3861C8.29109 1.3861 6.62934 1.89052 5.21578 2.83559C3.80223 3.78067 2.70034 5.12398 2.04939 6.69573C1.39844 8.26748 1.22765 9.99711 1.55861 11.666C1.88957 13.3349 2.70742 14.8681 3.90879 16.0718C5.11016 17.2756 6.64112 18.0958 8.30814 18.4289C9.97516 18.7619 11.7034 18.5929 13.2745 17.943C14.8455 17.2932 16.1888 16.1918 17.1346 14.778C18.0803 13.3642 18.5861 11.7015 18.5879 10C18.5928 9.92258 18.5928 9.84491 18.5879 9.76747C18.5707 9.58244 18.6276 9.39812 18.7461 9.25507C18.8646 9.11202 19.035 9.02195 19.2199 9.00468C19.4048 8.98741 19.5889 9.04435 19.7318 9.16298C19.8748 9.28161 19.9648 9.4522 19.982 9.63724V10C19.9795 12.6514 18.9261 15.1935 17.053 17.0684C15.1799 18.9432 12.64 19.9975 9.991 20Z" fill="#7BD834"/>
<path d="M9.82358 13.1721C9.73324 13.1735 9.64362 13.156 9.56041 13.1207C9.4772 13.0855 9.40224 13.0333 9.3403 12.9675L4.85131 8.55817C4.72078 8.42735 4.64746 8.25003 4.64746 8.06515C4.64746 7.88026 4.72078 7.70294 4.85131 7.57212C4.98474 7.44311 5.16302 7.37099 5.34854 7.37099C5.53407 7.37099 5.71234 7.44311 5.84577 7.57212L9.83288 11.507L18.8015 2.67911C18.935 2.55009 19.1132 2.47798 19.2988 2.47798C19.4843 2.47798 19.6626 2.55009 19.796 2.67911C19.9265 2.80993 19.9999 2.98725 19.9999 3.17214C19.9999 3.35702 19.9265 3.53434 19.796 3.66516L10.3347 12.9675C10.2682 13.035 10.1885 13.088 10.1005 13.1232C10.0126 13.1584 9.91827 13.1751 9.82358 13.1721Z" fill="#7BD834"/>
</svg>
