<svg width="46" height="40" viewBox="0 0 46 40" fill="none" xmlns="http://www.w3.org/2000/svg">
<path d="M0.00408554 26.3484V22.1914L6.78734 22.1964L21.8385 13.5181C22.2084 13.3035 22.8532 13.3335 23.2781 13.578L38.2643 22.2163L45.0176 22.2213V26.3883H45.0126C45.0076 26.5181 44.9276 26.6428 44.7676 26.7326L23.1732 39.1787C22.8032 39.3932 22.1584 39.3633 21.7335 39.1188L0.348984 26.7925C0.12904 26.6628 0.0140839 26.5031 0.00408554 26.3484Z" fill="url(#paint0_linear_208_4090)"/>
<path d="M23.1789 35.0217L44.7734 22.5756C45.1433 22.3611 45.0983 21.9918 44.6684 21.7473L23.2839 9.42101C22.859 9.17648 22.2141 9.14654 21.8442 9.36113L0.249748 21.8071C-0.120159 22.0217 -0.0751724 22.391 0.354717 22.6355L21.7393 34.9618C22.1641 35.2063 22.809 35.2312 23.1789 35.0217Z" fill="url(#paint1_linear_208_4090)"/>
<path d="M23.1789 35.0217L44.7734 22.5756C45.1433 22.3611 45.0983 21.9918 44.6684 21.7473L23.2839 9.42101C22.859 9.17648 22.2141 9.14654 21.8442 9.36113L0.249748 21.8071C-0.120159 22.0217 -0.0751724 22.391 0.354717 22.6355L21.7393 34.9618C22.1641 35.2063 22.809 35.2312 23.1789 35.0217Z" fill="url(#paint2_linear_208_4090)"/>
<path d="M23.1031 33.5645L42.2432 22.5307C42.5681 22.3411 42.5281 22.0118 42.1532 21.7922L23.1981 10.8682C22.8182 10.6486 22.2483 10.6287 21.9184 10.8133L2.77827 21.8471C2.45335 22.0367 2.49334 22.3661 2.86824 22.5856L21.8234 33.5096C22.2033 33.7292 22.7732 33.7491 23.1031 33.5645Z" fill="#32589D"/>
<path d="M23.053 32.6362L40.6385 22.5008C40.9384 22.3261 40.9035 22.0267 40.5535 21.8221L23.138 11.7864C22.7931 11.5868 22.2632 11.5669 21.9633 11.7365L4.3778 21.872C4.07788 22.0467 4.11286 22.3461 4.46277 22.5507L21.8783 32.5863C22.2282 32.7909 22.7531 32.8109 23.053 32.6362Z" fill="#102140"/>
<path d="M22.9151 21.5277L24.9746 20.3449L23.8499 19.6962L21.7954 20.8839L22.9151 21.5277Z" fill="#7BD834"/>
<path d="M19.0962 21.363L21.1507 22.5457L22.2754 21.897L20.2159 20.7143L19.0962 21.363Z" fill="#7BD834"/>
<path d="M23.3845 21.7972L24.5042 22.4459L25.6289 21.7972L24.5042 21.1484L23.3845 21.7972Z" fill="#7BD834"/>
<path d="M19.5014 24.0328L20.6261 24.6816L23.8652 22.8152L22.7405 22.1664L19.5014 24.0328Z" fill="#7BD834"/>
<path opacity="0.4" d="M-4.95911e-05 16.5972L9.18761 16.6521L21.8444 9.35612C22.2143 9.14153 22.8591 9.17147 23.284 9.416L36.1157 16.8118L45.0234 16.8666V22.2662L45.0184 22.2712C44.9984 22.386 44.9185 22.4908 44.7735 22.5756L23.179 35.0216C22.8091 35.2362 22.1643 35.2063 21.7394 34.9618L0.354858 22.6355C0.159908 22.5257 0.0499382 22.386 0.014946 22.2463L-4.95911e-05 22.2363V16.5972Z" fill="#7BD834"/>
<path d="M0.00408554 17.1311V12.9741L6.78734 12.9791L21.8385 4.30085C22.2084 4.08627 22.8532 4.11621 23.2781 4.36074L38.2643 12.9991L45.0176 13.0041V17.1711H45.0126C45.0076 17.3008 44.9276 17.4256 44.7676 17.5154L23.1732 29.9614C22.8032 30.176 22.1584 30.146 21.7335 29.9015L0.348984 17.5753C0.12904 17.4505 0.0140839 17.2908 0.00408554 17.1311Z" fill="url(#paint3_linear_208_4090)"/>
<path d="M23.1789 25.8044L44.7734 13.3584C45.1433 13.1438 45.0983 12.7745 44.6684 12.53L23.2839 0.203753C22.859 -0.0407755 22.2141 -0.0707153 21.8442 0.143871L0.249748 12.5899C-0.120159 12.8045 -0.0751724 13.1738 0.354717 13.4183L21.7393 25.7445C22.1641 25.994 22.809 26.019 23.1789 25.8044Z" fill="url(#paint4_linear_208_4090)"/>
<path d="M23.1031 24.3472L42.2432 13.3135C42.5681 13.1238 42.5281 12.7945 42.1532 12.5749L23.1981 1.65097C22.8182 1.43139 22.2483 1.41144 21.9184 1.59608L2.77827 12.6298C2.45335 12.8194 2.49334 13.1488 2.86824 13.3684L21.8234 24.2923C22.2033 24.5119 22.7732 24.5369 23.1031 24.3472Z" fill="#32589D"/>
<path d="M23.139 23.618L40.7245 13.4825C41.0244 13.3078 40.9894 13.0084 40.6395 12.8038L23.2239 2.76816C22.879 2.56854 22.3492 2.54858 22.0492 2.71825L4.46374 12.8537C4.16381 13.0284 4.1988 13.3278 4.54871 13.5324L21.9643 23.5681C22.3142 23.7677 22.839 23.7926 23.139 23.618Z" fill="#102140"/>
<path d="M26.2893 9.99379L25.7176 9.67567L25.6538 9.65115C25.6188 9.63766 25.5685 9.61875 25.5421 9.60913C25.5157 9.59951 25.4639 9.58129 25.4269 9.56866C25.3899 9.55602 25.3065 9.52905 25.2416 9.50873C25.1766 9.48841 25.0919 9.46256 25.0533 9.45129C25.0147 9.44004 24.9528 9.42257 24.9158 9.41247C24.8787 9.40239 24.8201 9.38691 24.7855 9.37807C24.7509 9.36925 24.6907 9.35451 24.6517 9.34533C24.6127 9.33614 24.5592 9.32388 24.5329 9.31811C24.5065 9.31228 24.4516 9.30073 24.4108 9.29239C24.3701 9.28406 24.3027 9.2709 24.2611 9.26317C24.2195 9.25544 24.1508 9.24329 24.1084 9.23617C24.066 9.22907 23.9838 9.21641 23.9258 9.20807C23.8677 9.19972 23.7894 9.18914 23.7517 9.18455C23.714 9.17994 23.6489 9.17252 23.6071 9.16804C23.5652 9.16357 23.4986 9.15695 23.4589 9.15337C23.4193 9.14978 23.3533 9.14442 23.3123 9.14143C23.2713 9.13846 23.2194 9.13491 23.197 9.13355C23.1746 9.13221 23.1181 9.12929 23.0714 9.1271C23.0248 9.12491 22.944 9.12198 22.8919 9.12062C22.8398 9.11927 22.7709 9.11787 22.7387 9.11756C22.7066 9.11725 22.6489 9.11714 22.6106 9.11731C22.5723 9.11748 22.5149 9.11809 22.4831 9.11867C22.4512 9.11924 22.3956 9.12064 22.3595 9.12177C22.3233 9.12289 22.2535 9.12572 22.2042 9.12805C22.155 9.13038 22.0552 9.13658 21.9824 9.14181C21.9096 9.14704 21.8143 9.15478 21.7706 9.15903C21.727 9.16326 21.66 9.17023 21.6218 9.17451C21.5836 9.17877 21.5194 9.1865 21.4791 9.19168C21.4389 9.19685 21.3773 9.20521 21.3422 9.21026C21.3071 9.21529 21.2429 9.22512 21.1995 9.23204C21.1561 9.23899 21.088 9.2504 21.0483 9.25742C21.0085 9.26446 20.9305 9.27922 20.8749 9.29027C20.8192 9.3013 20.7403 9.3177 20.6995 9.3267C20.6587 9.3357 20.5991 9.34925 20.567 9.35683C20.5348 9.36439 20.4845 9.37659 20.4552 9.38393C20.4258 9.39127 20.3733 9.40482 20.3386 9.41401C20.3039 9.42321 20.228 9.44444 20.1699 9.46117C20.1119 9.47789 20.0338 9.50118 19.9963 9.51288C19.9588 9.52458 19.9012 9.54311 19.8681 9.55405C19.835 9.56498 19.7752 9.58544 19.7349 9.59955C19.6948 9.61363 19.6312 9.63658 19.5936 9.65055C19.5561 9.66448 19.4873 9.69103 19.4408 9.70956C19.3943 9.72804 19.322 9.7578 19.28 9.77564C19.2381 9.7935 19.1748 9.82112 19.1393 9.83707C19.1039 9.85297 19.0447 9.88034 19.0079 9.89788C18.971 9.9154 18.9121 9.94419 18.877 9.96188C18.8418 9.97957 18.7909 10.0057 18.7638 10.0199C18.7367 10.0341 18.69 10.0593 18.6599 10.0758C18.6298 10.0924 18.5766 10.1224 18.5416 10.1425C18.5066 10.1627 18.4479 10.1974 18.4112 10.2198C18.3745 10.2421 18.319 10.2767 18.2879 10.2966C18.2568 10.3165 18.2123 10.3455 18.1889 10.3611C18.1603 10.3802 18.0707 10.4466 17.9127 10.566L17.6789 10.7426L17.629 10.7868C17.6016 10.8112 17.562 10.8468 17.5411 10.866C17.5201 10.8853 17.4829 10.9203 17.4584 10.9439C17.4338 10.9674 17.3948 11.006 17.3716 11.0295C17.3484 11.0531 17.3102 11.093 17.2866 11.1184C17.263 11.1437 17.2271 11.1834 17.2068 11.2065C17.1865 11.2296 17.1527 11.2693 17.1315 11.2948C17.1104 11.3202 17.0752 11.3641 17.0533 11.3923C17.0314 11.4205 16.9984 11.4643 16.9799 11.4897C16.9614 11.515 16.9257 11.5665 16.9006 11.6041C16.8755 11.6417 16.8374 11.7015 16.8159 11.7369C16.7945 11.7724 16.7623 11.8283 16.7445 11.8612C16.7267 11.894 16.7024 11.9401 16.6907 11.9637C16.6789 11.9872 16.6581 12.0307 16.6444 12.0603C16.6308 12.0899 16.6112 12.1347 16.6009 12.1599C16.5906 12.185 16.5753 12.2238 16.5669 12.2461C16.5586 12.2683 16.5462 12.3023 16.5396 12.3215C16.5329 12.3408 16.5211 12.3769 16.5132 12.4019C16.5054 12.4268 16.4936 12.4669 16.4869 12.4909C16.4803 12.5149 16.4692 12.5586 16.4623 12.588C16.4554 12.6174 16.447 12.6549 16.4437 12.6712C16.4404 12.6876 16.4351 12.7157 16.4318 12.7337C16.4285 12.7516 16.4223 12.7909 16.418 12.821C16.4137 12.851 16.408 12.8965 16.4054 12.9219C16.4028 12.9474 16.3991 12.9926 16.3972 13.0224C16.3953 13.0522 16.3933 13.099 16.3928 13.1264C16.3922 13.1538 16.392 13.1964 16.3923 13.2212C16.3927 13.2459 16.3954 13.3026 16.3984 13.3471C16.4014 13.3917 16.4064 13.4495 16.4096 13.4757C16.4128 13.5019 16.4188 13.5448 16.423 13.571C16.4272 13.5973 16.435 13.6409 16.4404 13.668C16.4457 13.6951 16.4558 13.7407 16.4626 13.7692C16.4695 13.7978 16.4832 13.8491 16.4932 13.8831C16.5031 13.9172 16.5189 13.9676 16.5284 13.9951C16.5378 14.0226 16.5538 14.0666 16.5639 14.0927C16.574 14.1189 16.5892 14.1569 16.5978 14.1772C16.6064 14.1975 16.6254 14.2399 16.6401 14.2713C16.6548 14.3027 16.6788 14.3513 16.6934 14.3792C16.708 14.4072 16.733 14.4529 16.7488 14.4808C16.7646 14.5087 16.7937 14.5569 16.8135 14.5879C16.8332 14.619 16.8615 14.6621 16.8764 14.6838C16.8913 14.7055 16.9161 14.7405 16.9315 14.7615C16.9468 14.7826 16.9752 14.8201 16.9944 14.8448C17.0137 14.8696 17.044 14.9072 17.0617 14.9285C17.0794 14.9498 17.1059 14.9809 17.1205 14.9976C17.1351 15.0144 17.168 15.0506 17.1936 15.078C17.2192 15.1055 17.258 15.1458 17.2797 15.1676C17.3014 15.1893 17.3443 15.2307 17.3751 15.2595C17.4059 15.2883 17.4516 15.3298 17.4767 15.3516C17.5018 15.3734 17.5366 15.4032 17.5541 15.4177C17.5716 15.4323 17.602 15.4569 17.6216 15.4725C17.6412 15.4881 17.6764 15.5154 17.6999 15.5332C17.7234 15.5511 17.7536 15.5737 17.767 15.5836C17.7804 15.5934 17.8044 15.6107 17.8203 15.6221C17.8363 15.6334 17.8686 15.6559 17.8921 15.672C17.9157 15.6881 17.9565 15.7156 17.9828 15.7331C18.0251 15.7611 18.0627 15.7826 18.3052 15.9173L18.5798 16.0699L18.6499 16.1023C18.6885 16.12 18.7479 16.1469 18.7821 16.1619C18.8162 16.177 18.8726 16.2012 18.9074 16.2157C18.9422 16.2303 18.9942 16.2514 19.0229 16.2627C19.0517 16.2741 19.1035 16.2939 19.1381 16.3069C19.1728 16.3198 19.2301 16.3405 19.2655 16.3529C19.3009 16.3652 19.3634 16.3863 19.4044 16.3996C19.4454 16.413 19.514 16.4344 19.5569 16.4472C19.5998 16.46 19.6693 16.48 19.7116 16.4916C19.7537 16.5032 19.82 16.5207 19.8588 16.5305C19.8977 16.5403 19.9543 16.5542 19.9847 16.5613C20.0151 16.5685 20.0688 16.5805 20.104 16.5882C20.1393 16.5958 20.1915 16.6067 20.2201 16.6125C20.2487 16.6182 20.2997 16.628 20.3335 16.6343C20.3674 16.6406 20.4219 16.6503 20.4548 16.6559C20.4877 16.6615 20.5467 16.6711 20.586 16.6772C20.6252 16.6833 20.695 16.6932 20.741 16.6993C20.787 16.7053 20.8599 16.7143 20.9029 16.7192C20.946 16.7241 21.0231 16.732 21.0744 16.7368C21.1257 16.7416 21.2012 16.7479 21.2422 16.7509C21.2833 16.7538 21.3352 16.7574 21.3576 16.7587C21.38 16.7601 21.4339 16.7628 21.4773 16.7649C21.5207 16.7669 21.6056 16.7698 21.6658 16.7713C21.7261 16.7728 21.8149 16.7741 21.8631 16.7742C21.9114 16.7744 21.9759 16.7741 22.0064 16.7737C22.037 16.7732 22.0767 16.7725 22.0945 16.7721C22.1124 16.7717 22.1654 16.77 22.2122 16.7684C22.2591 16.7668 22.3486 16.7627 22.4112 16.7592C22.4737 16.7557 22.5643 16.7495 22.6124 16.7456C22.6605 16.7416 22.7278 16.7357 22.762 16.7324C22.7961 16.7292 22.8541 16.7232 22.8909 16.7191C22.9276 16.7151 22.9834 16.7086 23.0149 16.7047C23.0464 16.7008 23.1095 16.6925 23.155 16.6861C23.2006 16.6798 23.2787 16.6681 23.3285 16.6602C23.3783 16.6522 23.4544 16.6395 23.4976 16.6318C23.5407 16.6241 23.624 16.6082 23.6827 16.5964C23.7413 16.5847 23.8118 16.5701 23.8393 16.564C23.8669 16.558 23.9198 16.5459 23.957 16.5373C23.9941 16.5286 24.0575 16.5133 24.0977 16.5032C24.1379 16.4931 24.196 16.4781 24.2269 16.47C24.2578 16.4618 24.3344 16.4402 24.3972 16.4221C24.46 16.4039 24.5352 16.3816 24.5643 16.3724C24.5934 16.3633 24.6473 16.346 24.6841 16.3339C24.7208 16.3219 24.7753 16.3036 24.8052 16.2933C24.835 16.283 24.8869 16.2645 24.9206 16.2523C24.9542 16.2402 25.0135 16.218 25.0523 16.2032C25.0911 16.1884 25.1539 16.1636 25.1918 16.1483C25.2297 16.1329 25.2897 16.108 25.3251 16.0928C25.3606 16.0777 25.4173 16.0529 25.4512 16.0377C25.4851 16.0224 25.5456 15.9946 25.5858 15.9757C25.6259 15.9569 25.6837 15.9292 25.7142 15.9142C25.7446 15.8992 25.7971 15.8727 25.8308 15.8552C25.8645 15.8378 25.9227 15.8069 25.96 15.7865C25.9974 15.7661 26.0531 15.7348 26.0838 15.7171C26.1145 15.6993 26.1586 15.6733 26.1819 15.6593C26.2052 15.6453 26.2407 15.6236 26.2609 15.6111C26.2811 15.5986 26.3197 15.574 26.3466 15.5565C26.3883 15.5294 26.4333 15.4963 26.6515 15.3316C26.8734 15.1642 26.9118 15.1346 26.9398 15.1089C26.9575 15.0927 26.9847 15.0676 27.0003 15.0533C27.0158 15.039 27.0418 15.0146 27.0579 14.999C27.0741 14.9834 27.1015 14.9566 27.1188 14.9393C27.1361 14.922 27.1624 14.8952 27.1771 14.8797C27.192 14.8643 27.222 14.8318 27.2439 14.8075C27.2659 14.7832 27.2969 14.7479 27.3129 14.7291C27.3288 14.7102 27.3577 14.6751 27.377 14.651C27.3963 14.6269 27.4271 14.587 27.4454 14.5624C27.4637 14.5377 27.4946 14.494 27.5141 14.4652C27.5335 14.4365 27.5603 14.3957 27.5736 14.3745C27.5868 14.3534 27.6006 14.3297 27.6043 14.3218C27.6079 14.3139 27.6119 14.2986 27.613 14.2876C27.6142 14.2767 27.613 14.2603 27.6104 14.2513C27.6077 14.2422 27.6024 14.2294 27.5984 14.2229C27.5945 14.2163 27.587 14.2064 27.5817 14.2008C27.5764 14.1953 27.5649 14.1855 27.5562 14.1791C27.5454 14.1712 27.5333 14.1646 27.5189 14.1586C27.5071 14.1538 27.4883 14.1478 27.4771 14.1452C27.4659 14.1426 27.4472 14.1396 27.4356 14.1385C27.424 14.1374 27.4002 14.1376 27.3828 14.139C27.3653 14.1404 27.1554 14.1552 26.9164 14.172C26.6038 14.194 26.4749 14.2039 26.4575 14.2077C26.4441 14.2105 26.4247 14.2165 26.4141 14.221C26.4036 14.2255 26.385 14.2353 26.3728 14.2427C26.3605 14.2502 26.3384 14.2653 26.3237 14.2764L26.2969 14.2964L26.2873 14.3163C26.282 14.3272 26.27 14.3488 26.2606 14.3643C26.2511 14.3798 26.233 14.4068 26.2203 14.4243C26.2075 14.4417 26.189 14.4657 26.1791 14.4777C26.1692 14.4896 26.1503 14.5115 26.1372 14.5263C26.124 14.5412 26.1011 14.566 26.0862 14.5815C26.0714 14.597 26.0461 14.6224 26.03 14.638C26.0138 14.6536 25.9834 14.682 25.9624 14.7012C25.9413 14.7204 25.9061 14.7513 25.8842 14.77C25.8598 14.7909 25.8035 14.8346 25.7385 14.8833C25.6802 14.9269 25.6109 14.9771 25.5844 14.9949C25.5579 15.0126 25.5162 15.04 25.4918 15.0557C25.4675 15.0715 25.4259 15.0976 25.3996 15.1139C25.3732 15.1301 25.3306 15.1556 25.3049 15.1706C25.2792 15.1856 25.2336 15.2115 25.2036 15.228C25.1736 15.2446 25.1275 15.2695 25.101 15.2833C25.0746 15.2971 25.0322 15.3189 25.0068 15.3317C24.9813 15.3444 24.9327 15.368 24.8988 15.3839C24.8648 15.3999 24.8183 15.4213 24.7954 15.4316C24.7725 15.4418 24.726 15.4619 24.6921 15.4763C24.6582 15.4907 24.6025 15.5136 24.5685 15.5271C24.5344 15.5406 24.4822 15.5608 24.4523 15.572C24.4226 15.5831 24.3732 15.601 24.3427 15.6118C24.3122 15.6225 24.2587 15.6407 24.2238 15.6522C24.1889 15.6637 24.1342 15.6812 24.1021 15.6911C24.0701 15.701 24.0021 15.7209 23.9511 15.7353C23.9 15.7497 23.8303 15.7686 23.7961 15.7773C23.762 15.786 23.7037 15.8002 23.6666 15.809C23.6296 15.8176 23.5716 15.8308 23.5377 15.8381C23.5039 15.8454 23.4443 15.8576 23.4052 15.8652C23.3662 15.8728 23.2987 15.8852 23.2553 15.8927C23.2119 15.9003 23.1415 15.9117 23.0989 15.9181C23.0562 15.9244 22.9862 15.9341 22.9434 15.9396C22.9005 15.9451 22.8352 15.9528 22.7981 15.9568C22.7611 15.9607 22.6854 15.9679 22.63 15.9728C22.5746 15.9776 22.4877 15.9838 22.437 15.9865C22.3863 15.9893 22.3219 15.9924 22.294 15.9935C22.2661 15.9946 22.2208 15.996 22.1934 15.9966C22.166 15.9973 22.1148 15.9981 22.0798 15.9985C22.0447 15.9988 21.99 15.9989 21.9581 15.9985C21.9263 15.9982 21.8746 15.9973 21.8433 15.9966C21.812 15.9959 21.7639 15.9944 21.7365 15.9934C21.709 15.9924 21.6541 15.9897 21.6143 15.9875C21.5746 15.9853 21.5164 15.9815 21.485 15.9791C21.4536 15.9767 21.3943 15.9717 21.3533 15.9679C21.3122 15.9641 21.2443 15.957 21.2023 15.9521C21.1604 15.9473 21.0809 15.9369 21.0257 15.9289C20.9706 15.921 20.897 15.9097 20.8622 15.9038C20.8274 15.8979 20.774 15.8884 20.7436 15.8826C20.7133 15.8769 20.6654 15.8675 20.6374 15.8617C20.6094 15.8559 20.5631 15.846 20.5347 15.8397C20.5062 15.8333 20.4474 15.8194 20.4041 15.8087C20.3607 15.7979 20.2983 15.7818 20.2653 15.7728C20.2323 15.7638 20.1856 15.7507 20.1616 15.7437C20.1375 15.7366 20.0938 15.7234 20.0645 15.7142C20.0352 15.7051 19.9877 15.6898 19.9591 15.6801C19.9304 15.6705 19.8769 15.6519 19.8403 15.6387C19.8036 15.6256 19.7505 15.6058 19.7223 15.5949C19.694 15.5839 19.6437 15.5636 19.6104 15.5498C19.5771 15.536 19.5256 15.5139 19.496 15.5007C19.4664 15.4875 19.419 15.4657 19.3906 15.4523C19.3623 15.439 19.3093 15.4129 19.2728 15.3945C19.2311 15.3734 19.1621 15.3357 19.0872 15.2931C19.0216 15.2558 18.9517 15.2148 18.9318 15.2021C18.9119 15.1893 18.876 15.166 18.8521 15.1503C18.8281 15.1345 18.7866 15.1062 18.7598 15.0874C18.733 15.0685 18.6935 15.0402 18.672 15.0243C18.6505 15.0084 18.6109 14.9779 18.584 14.9566C18.557 14.9353 18.5168 14.9026 18.4945 14.8838C18.4723 14.865 18.4385 14.8359 18.4195 14.8191C18.4005 14.8022 18.3675 14.7718 18.346 14.7513C18.3246 14.7309 18.2955 14.7024 18.2814 14.688C18.2673 14.6736 18.2407 14.6456 18.2221 14.6258C18.2036 14.606 18.1729 14.5716 18.154 14.5495C18.135 14.5274 18.1106 14.4983 18.0997 14.4849C18.0888 14.4715 18.0655 14.4415 18.048 14.4183C18.0305 14.3951 18.0066 14.3625 17.995 14.3459C17.9833 14.3293 17.9612 14.2963 17.9459 14.2727C17.9305 14.249 17.9047 14.207 17.8886 14.1794C17.8724 14.1517 17.8478 14.107 17.8338 14.08C17.8197 14.053 17.8016 14.0164 17.7934 13.9987C17.7852 13.9809 17.7727 13.953 17.7656 13.9367C17.7585 13.9204 17.7441 13.8845 17.7335 13.857C17.7229 13.8295 17.7088 13.7905 17.7022 13.7704C17.6955 13.7503 17.6846 13.7153 17.678 13.6926C17.6713 13.6699 17.6603 13.6286 17.6536 13.6009C17.6468 13.5731 17.6371 13.5277 17.6319 13.5001C17.6268 13.4724 17.6194 13.4277 17.6155 13.4007C17.6117 13.3737 17.6059 13.3125 17.6026 13.2648C17.5994 13.217 17.5971 13.1511 17.5975 13.1183C17.5979 13.0855 17.5997 13.036 17.6014 13.0082C17.6032 12.9805 17.6065 12.9401 17.6089 12.9184C17.6112 12.8968 17.6163 12.8576 17.6203 12.8313C17.6242 12.805 17.6305 12.7676 17.6343 12.7484C17.638 12.7291 17.6452 12.6955 17.6502 12.6737C17.6552 12.6519 17.6646 12.6145 17.6712 12.5904C17.6778 12.5663 17.6887 12.529 17.6955 12.5075C17.7023 12.4859 17.7146 12.4494 17.7228 12.4263C17.7311 12.4031 17.7505 12.3537 17.7661 12.3165C17.7817 12.2792 17.8041 12.2288 17.8159 12.2045C17.8277 12.1802 17.845 12.1458 17.8543 12.128C17.8636 12.1102 17.8809 12.0786 17.8927 12.0578C17.9045 12.0369 17.9237 12.0042 17.9353 11.985C17.9469 11.9658 17.974 11.9237 17.9956 11.8913C18.0171 11.859 18.0501 11.8119 18.0687 11.7866C18.0874 11.7613 18.118 11.7214 18.1368 11.6978C18.1556 11.6742 18.1845 11.6391 18.201 11.6198C18.2176 11.6005 18.2491 11.5649 18.271 11.5406C18.2929 11.5164 18.3284 11.4785 18.3498 11.4563C18.3712 11.4342 18.4043 11.4008 18.4233 11.3821C18.4424 11.3634 18.4777 11.3298 18.5017 11.3076C18.5258 11.2853 18.5631 11.2517 18.5847 11.2328C18.6063 11.2139 18.6386 11.1859 18.6566 11.1706C18.6746 11.1553 18.7393 11.1044 18.8004 11.0576C18.8705 11.004 18.9332 10.9576 18.9705 10.932C19.003 10.9096 19.0575 10.8732 19.0916 10.851C19.1258 10.8289 19.1743 10.7982 19.1994 10.7828C19.2245 10.7675 19.2661 10.7427 19.2918 10.7277C19.3176 10.7127 19.3635 10.6867 19.3939 10.6699C19.4243 10.653 19.4741 10.6263 19.5046 10.6105C19.5352 10.5947 19.5823 10.5707 19.6094 10.5573C19.6365 10.5438 19.6789 10.5233 19.7036 10.5117C19.7283 10.5001 19.7652 10.4831 19.7856 10.4738C19.8061 10.4646 19.8531 10.4441 19.8901 10.4282C19.927 10.4124 19.9913 10.3859 20.0328 10.3694C20.0743 10.3529 20.1306 10.3311 20.158 10.3209C20.1853 10.3108 20.2298 10.2947 20.2568 10.2852C20.2838 10.2756 20.3299 10.2598 20.3592 10.2499C20.3885 10.2401 20.44 10.2234 20.4737 10.2128C20.5074 10.2023 20.5788 10.1811 20.6324 10.1657C20.6859 10.1503 20.7632 10.1292 20.8042 10.1187C20.8451 10.1082 20.9163 10.0908 20.9625 10.08C21.0087 10.0693 21.08 10.0535 21.1208 10.045C21.1617 10.0365 21.2253 10.0239 21.2621 10.017C21.299 10.0102 21.3715 9.99765 21.4233 9.98919C21.4751 9.98073 21.5472 9.96965 21.5836 9.96455C21.6201 9.95946 21.6799 9.95164 21.7167 9.94719C21.7534 9.94274 21.8144 9.93594 21.8521 9.93209C21.8898 9.92822 21.9627 9.92156 22.014 9.91729C22.0653 9.913 22.1545 9.90713 22.2121 9.90425C22.2697 9.90139 22.3465 9.89816 22.3828 9.89709C22.4191 9.89601 22.482 9.89477 22.5227 9.89438C22.5633 9.89396 22.619 9.89378 22.6464 9.89395C22.6739 9.89413 22.7329 9.89517 22.7775 9.89628C22.8222 9.89738 22.8929 9.8999 22.9347 9.90186C22.9765 9.90381 23.0448 9.90777 23.0865 9.91064C23.1282 9.91351 23.2068 9.92004 23.2611 9.92512C23.3154 9.93023 23.3916 9.93823 23.4303 9.9429C23.469 9.94756 23.5379 9.95675 23.5834 9.96326C23.6289 9.9698 23.6901 9.9791 23.7194 9.98395C23.7487 9.9888 23.8022 9.99819 23.8383 10.0048C23.8744 10.0114 23.9329 10.0228 23.9682 10.0301C24.0034 10.0374 24.0641 10.0506 24.103 10.0595C24.1418 10.0684 24.2046 10.0836 24.2424 10.0933C24.2802 10.103 24.3462 10.1208 24.389 10.1329C24.4318 10.145 24.4968 10.1642 24.5333 10.1756C24.5699 10.187 24.629 10.2063 24.6647 10.2184C24.7004 10.2306 24.7543 10.2496 24.7844 10.2607C24.8146 10.2718 24.8628 10.2901 24.8916 10.3014C24.9203 10.3127 24.9675 10.3319 24.9963 10.3439C25.0252 10.356 25.0731 10.3767 25.1027 10.39C25.1323 10.4032 25.1802 10.4253 25.2092 10.439C25.2381 10.4528 25.2961 10.4815 25.3379 10.5029C25.3826 10.5258 25.447 10.5609 25.4945 10.5883C25.5388 10.6139 25.5924 10.6458 25.6137 10.6593C25.6349 10.6728 25.6769 10.7 25.7069 10.7199C25.737 10.7397 25.7883 10.7748 25.8211 10.7978C25.8539 10.8208 25.9021 10.8553 25.9283 10.8746C25.9545 10.8939 26.0045 10.9314 26.0394 10.9579C26.0743 10.9845 26.1252 11.0238 26.1525 11.0452C26.1808 11.0673 26.2103 11.0886 26.221 11.0945C26.2313 11.1002 26.2514 11.11 26.2656 11.1164C26.2797 11.1228 26.3028 11.1317 26.3168 11.1362C26.3307 11.1407 26.3537 11.1461 26.3678 11.1482L26.3935 11.152L26.8329 11.1218C27.167 11.0988 27.2778 11.0902 27.2951 11.0862C27.3077 11.0834 27.3284 11.0767 27.3411 11.0714C27.3539 11.0661 27.3742 11.0558 27.3863 11.0484C27.4009 11.0396 27.4145 11.0294 27.4265 11.0183C27.4365 11.0091 27.4487 10.9966 27.4535 10.9904C27.4583 10.9843 27.4663 10.9726 27.4713 10.9643C27.4745 10.9552 27.4809 10.9413 27.4835 10.9325C27.4862 10.9237 27.4887 10.9094 27.489 10.9007C27.4889 10.8917 27.4871 10.8795 27.4844 10.8731C27.4812 10.8653 27.4676 10.8495 27.4424 10.8237C27.4215 10.8026 27.3883 10.7692 27.3676 10.7491C27.347 10.7289 27.3153 10.6984 27.297 10.6811C27.2786 10.6637 27.2451 10.6328 27.2226 10.6124C27.2001 10.592 27.1585 10.5553 27.1301 10.5308C27.1016 10.5063 27.0557 10.4677 27.0284 10.4453C27.0006 10.4226 26.9513 10.3831 26.9189 10.3577L26.8595 10.3111L26.2893 9.99379ZM29.4081 11.7254L29.2865 11.6579L28.0012 11.7727L26.7159 11.8876L26.5986 12.0764C26.5342 12.1803 26.4749 12.2757 26.467 12.2883L26.4526 12.3113L25.8082 12.3418L25.1639 12.3724L25.1568 12.3564C25.1529 12.3476 25.1399 12.3209 25.128 12.297C25.116 12.2731 25.0908 12.2283 25.0719 12.1975C25.0531 12.1667 25.0292 12.1294 25.0189 12.1147C25.0085 12.0999 24.9881 12.0721 24.9734 12.0529C24.9586 12.0337 24.935 12.004 24.9208 11.987C24.9066 11.97 24.8826 11.9426 24.8675 11.9263C24.8525 11.9099 24.8289 11.8851 24.8153 11.8711C24.8016 11.8572 24.777 11.8331 24.7607 11.8177C24.7443 11.8023 24.7193 11.7793 24.705 11.7666C24.6907 11.7539 24.6614 11.7292 24.6398 11.7117C24.6183 11.6942 24.588 11.6702 24.5726 11.6585C24.5571 11.6467 24.527 11.6247 24.5056 11.6096C24.4842 11.5945 24.4466 11.569 24.4219 11.5529C24.3973 11.5368 24.3447 11.5048 24.305 11.4818C24.2624 11.4571 24.2072 11.4271 24.1701 11.4084C24.1356 11.3911 24.0874 11.3677 24.0631 11.3566C24.0387 11.3455 23.9946 11.3262 23.9651 11.3137C23.9356 11.3013 23.8926 11.2839 23.8697 11.2752C23.8468 11.2664 23.8056 11.2514 23.7781 11.2417C23.7507 11.232 23.7043 11.2166 23.675 11.2074C23.6457 11.1982 23.6 11.1844 23.5733 11.1768C23.5467 11.1691 23.4958 11.1556 23.4603 11.1467C23.4248 11.1378 23.3724 11.1255 23.3437 11.1193C23.3151 11.1131 23.2651 11.103 23.2326 11.0968C23.2001 11.0907 23.1344 11.0798 23.0866 11.0727C23.0388 11.0656 22.9734 11.0568 22.9413 11.0532C22.9091 11.0496 22.8591 11.0446 22.8299 11.0421C22.8007 11.0396 22.7466 11.0357 22.7096 11.0336C22.6726 11.0314 22.6139 11.0288 22.5792 11.0279C22.5445 11.0269 22.4926 11.0261 22.4638 11.0261C22.4351 11.026 22.3824 11.0266 22.3468 11.0273C22.3113 11.0281 22.2249 11.0326 22.155 11.0373C22.085 11.0421 22.0016 11.0489 21.9696 11.0525C21.9376 11.0562 21.8844 11.0628 21.8513 11.0674C21.8182 11.0719 21.7624 11.0804 21.7274 11.0862C21.6924 11.092 21.6347 11.1025 21.5992 11.1095C21.5637 11.1166 21.5112 11.1276 21.4826 11.1341C21.454 11.1406 21.4049 11.1524 21.3736 11.1603C21.3422 11.1683 21.2786 11.1858 21.2323 11.1994C21.1859 11.2129 21.1222 11.2326 21.0909 11.2432C21.0595 11.2537 21.0113 11.2705 20.9838 11.2806C20.9563 11.2906 20.9061 11.3099 20.8721 11.3236C20.8382 11.3372 20.7916 11.3566 20.7685 11.3667C20.7454 11.3768 20.702 11.3966 20.6719 11.4108C20.6418 11.425 20.596 11.4475 20.5701 11.4609C20.5442 11.4742 20.5054 11.4947 20.4839 11.5065C20.4624 11.5183 20.4228 11.541 20.3958 11.5569C20.3689 11.5728 20.3273 11.5983 20.3034 11.6135C20.2795 11.6287 20.2376 11.6566 20.2102 11.6754C20.1828 11.6942 20.1401 11.7248 20.1152 11.7435C20.0903 11.7621 20.0498 11.794 20.025 11.8143C20.0003 11.8346 19.9638 11.8655 19.9441 11.883C19.9243 11.9005 19.8915 11.9309 19.8711 11.9504C19.8508 11.97 19.8219 11.9986 19.8071 12.0141C19.7922 12.0296 19.7665 12.0574 19.75 12.076C19.7334 12.0945 19.7057 12.127 19.6885 12.1484C19.6712 12.1697 19.6472 12.2004 19.6352 12.2166C19.6232 12.2329 19.6004 12.2655 19.5846 12.2892C19.5688 12.3129 19.5467 12.3478 19.5354 12.3669C19.5241 12.3859 19.5055 12.4192 19.494 12.4408C19.4826 12.4624 19.4619 12.5059 19.448 12.5376C19.4342 12.5692 19.4167 12.6124 19.4093 12.6336C19.4018 12.6548 19.391 12.6878 19.3854 12.7071C19.3797 12.7263 19.3705 12.7615 19.365 12.7852C19.3595 12.8089 19.352 12.8473 19.3484 12.8705C19.3447 12.8937 19.3401 12.9305 19.338 12.9523C19.336 12.9741 19.3337 13.0091 19.3329 13.0301C19.3321 13.051 19.3341 13.1053 19.3372 13.1506C19.3403 13.196 19.3463 13.2518 19.3505 13.2746C19.3546 13.2974 19.3616 13.3311 19.366 13.3495C19.3703 13.3678 19.3793 13.4011 19.386 13.4234C19.3927 13.4457 19.4063 13.485 19.4162 13.5108C19.4261 13.5366 19.4416 13.5734 19.4506 13.5926C19.4595 13.6119 19.4737 13.6408 19.4821 13.657C19.4905 13.6732 19.5121 13.7106 19.5301 13.74C19.5481 13.7695 19.5746 13.8098 19.5888 13.8296C19.6031 13.8495 19.6261 13.8799 19.6398 13.8972C19.6536 13.9146 19.6792 13.9449 19.6966 13.9647C19.7141 13.9845 19.7411 14.0137 19.7567 14.0297C19.7723 14.0457 19.8014 14.0741 19.8213 14.0929C19.8412 14.1117 19.8753 14.1421 19.8969 14.1604C19.9186 14.1788 19.9517 14.2056 19.9704 14.2201C19.9892 14.2346 20.0156 14.2544 20.029 14.2642C20.0425 14.274 20.0688 14.2925 20.0874 14.3053C20.1061 14.3181 20.1361 14.3381 20.154 14.3497C20.172 14.3613 20.2191 14.3896 20.2588 14.4126C20.3026 14.4381 20.3564 14.4674 20.3961 14.4873C20.432 14.5054 20.486 14.5314 20.5162 14.5451C20.5464 14.5587 20.59 14.5777 20.613 14.5873C20.636 14.5968 20.6805 14.6144 20.7119 14.6263C20.7432 14.6383 20.7956 14.657 20.8283 14.668C20.8609 14.6789 20.9031 14.6926 20.922 14.6983C20.9409 14.704 20.9755 14.7141 20.9989 14.7208C21.0223 14.7275 21.0633 14.7385 21.0899 14.7453C21.1165 14.7522 21.1675 14.7642 21.2031 14.7721C21.2387 14.78 21.2926 14.7912 21.3229 14.797C21.3532 14.8028 21.4061 14.812 21.4404 14.8173C21.4747 14.8227 21.5261 14.8301 21.5546 14.8339C21.583 14.8377 21.6286 14.8431 21.6559 14.846C21.6832 14.8489 21.7328 14.8534 21.7661 14.8561C21.7994 14.8588 21.855 14.8624 21.8896 14.8642C21.9241 14.8659 21.9744 14.8678 22.0013 14.8685C22.0281 14.8691 22.0777 14.8696 22.1114 14.8696C22.1451 14.8697 22.1977 14.8691 22.2283 14.8684C22.2589 14.8677 22.3422 14.8631 22.4135 14.8583C22.4847 14.8534 22.5724 14.846 22.6084 14.8418C22.6445 14.8376 22.7004 14.8304 22.7326 14.8259C22.765 14.8213 22.8196 14.8128 22.8542 14.807C22.8887 14.8012 22.9463 14.7905 22.9823 14.7832C23.0182 14.7759 23.0722 14.7643 23.1023 14.7572C23.1325 14.7502 23.1779 14.7392 23.2033 14.7327C23.2287 14.7263 23.2875 14.7099 23.3339 14.6964C23.3803 14.6828 23.4439 14.6631 23.4753 14.6526C23.5067 14.6421 23.5549 14.6253 23.5823 14.6152C23.6099 14.6052 23.6601 14.5858 23.694 14.5722C23.728 14.5586 23.774 14.5395 23.7963 14.5297C23.8186 14.5199 23.8595 14.5012 23.8873 14.4882C23.915 14.4751 23.9524 14.457 23.9704 14.448C23.9884 14.439 24.0186 14.4233 24.0377 14.4133C24.0567 14.4032 24.0919 14.3839 24.1158 14.3703C24.1397 14.3568 24.1738 14.3369 24.1916 14.3262C24.2094 14.3155 24.2414 14.2957 24.2627 14.2822C24.284 14.2688 24.3286 14.2391 24.3617 14.2164C24.398 14.1914 24.4476 14.1549 24.4865 14.1245C24.5221 14.0968 24.5694 14.0583 24.5916 14.039C24.6138 14.0197 24.6477 13.9893 24.6668 13.9714C24.6859 13.9535 24.7148 13.9256 24.731 13.9092C24.7472 13.8929 24.7716 13.8676 24.7852 13.853C24.7987 13.8383 24.8208 13.8138 24.8342 13.7985C24.8476 13.7832 24.8702 13.7563 24.8845 13.7387C24.8987 13.7212 24.919 13.6954 24.9296 13.6814C24.9401 13.6674 24.9606 13.6393 24.975 13.6188C24.9895 13.5983 25.0121 13.5643 25.0253 13.5431C25.0386 13.522 25.0589 13.488 25.0705 13.4675C25.0821 13.447 25.0983 13.4172 25.1065 13.4011C25.1147 13.3851 25.1307 13.3513 25.1421 13.3259C25.1535 13.3006 25.1696 13.2616 25.1779 13.2393C25.1861 13.217 25.198 13.1823 25.2043 13.1623L25.2157 13.1258L25.8795 13.0803L26.5434 13.0348L26.6809 13.2149L26.8185 13.395L28.119 13.3059C29.1286 13.2368 29.4247 13.2157 29.4424 13.2116C29.4549 13.2088 29.474 13.2029 29.4847 13.1985C29.4998 13.1924 29.5116 13.1854 29.5365 13.1677C29.5638 13.1484 29.5708 13.1424 29.5819 13.1284C29.5891 13.1194 29.5988 13.1037 29.6034 13.0934C29.608 13.0832 29.6129 13.0669 29.6143 13.0571C29.6157 13.0475 29.6157 13.0328 29.6143 13.0246C29.613 13.0164 29.6087 13.0029 29.6048 12.9946C29.6009 12.9863 29.5937 12.9747 29.5889 12.9688C29.584 12.9629 29.49 12.8622 29.38 12.745C29.2699 12.6277 29.1758 12.5287 29.1708 12.5249C29.1657 12.5211 29.1582 12.5125 29.1541 12.5059C29.1496 12.4988 29.1459 12.4854 29.145 12.4729C29.1441 12.4614 29.1449 12.4443 29.1468 12.4349C29.1486 12.4256 29.154 12.4072 29.1587 12.3941L29.1673 12.3702L29.3413 12.1247C29.437 11.9897 29.5182 11.8728 29.5218 11.8651C29.5254 11.8574 29.5294 11.8432 29.5307 11.8338C29.5321 11.8242 29.5324 11.8112 29.5314 11.8047L29.5297 11.793L29.4081 11.7254ZM23.4916 12.0666C23.5334 12.0906 23.5812 12.1195 23.5997 12.1322C23.6179 12.1447 23.6436 12.163 23.6567 12.1728C23.6699 12.1826 23.696 12.2037 23.7148 12.2196C23.7336 12.2356 23.7638 12.2639 23.782 12.2825C23.8001 12.3011 23.8221 12.3249 23.8308 12.3355C23.8396 12.346 23.8556 12.3665 23.8665 12.381C23.8774 12.3956 23.8931 12.4179 23.9013 12.4306C23.9096 12.4433 23.9164 12.4544 23.9164 12.4553C23.9165 12.4561 23.5364 12.4829 23.0717 12.5148C22.6071 12.5467 22.2128 12.5747 22.1954 12.5772C22.1781 12.5796 22.1495 12.5844 22.1318 12.5879C22.1142 12.5914 22.0815 12.5996 22.0591 12.6062C22.0367 12.6127 22.0043 12.6239 21.9871 12.6309C21.9698 12.638 21.9461 12.6487 21.9342 12.6548C21.9224 12.6609 21.9027 12.672 21.8905 12.6794C21.8783 12.6869 21.8598 12.6993 21.8495 12.707C21.8392 12.7148 21.8229 12.7284 21.8133 12.7373C21.8038 12.7462 21.7897 12.7604 21.7821 12.7689C21.7745 12.7774 21.7616 12.7941 21.7534 12.8062C21.7452 12.8182 21.7329 12.8406 21.7262 12.8558C21.7195 12.8711 21.7117 12.8932 21.709 12.905C21.7063 12.9168 21.7034 12.9352 21.7025 12.946C21.7016 12.9567 21.7021 12.9792 21.7037 12.996C21.7053 13.0127 21.7093 13.0351 21.7125 13.0456C21.7157 13.0562 21.7218 13.0728 21.7262 13.0825C21.7305 13.0923 21.7399 13.1093 21.747 13.1204C21.7541 13.1314 21.7668 13.1481 21.775 13.1575C21.7833 13.1669 21.7979 13.1814 21.8074 13.1899C21.8169 13.1983 21.8342 13.2118 21.8457 13.2199C21.8573 13.2281 21.8757 13.2397 21.8867 13.2458C21.8977 13.2519 21.9175 13.2615 21.9306 13.2672C21.9438 13.273 21.9648 13.2813 21.9773 13.2857C21.9898 13.2901 22.0149 13.2975 22.0329 13.3021C22.051 13.3067 22.0813 13.313 22.1004 13.316C22.1195 13.319 22.1504 13.3227 22.1691 13.3242C22.1879 13.3257 22.2182 13.327 22.2367 13.327C22.2551 13.327 22.6514 13.301 23.1173 13.2692C23.5832 13.2374 23.9655 13.2119 23.9668 13.2127C23.9681 13.2134 23.9622 13.2285 23.9535 13.2463C23.9449 13.2641 23.932 13.2889 23.9248 13.3016C23.9176 13.3142 23.9061 13.3337 23.8991 13.3449C23.8922 13.3561 23.8739 13.3823 23.8585 13.4032C23.843 13.4241 23.8169 13.4563 23.8005 13.4746C23.7841 13.493 23.7574 13.5208 23.7413 13.5364C23.7252 13.552 23.7005 13.5752 23.6864 13.5879C23.6709 13.6018 23.6291 13.6347 23.5812 13.6705C23.5232 13.714 23.4909 13.7367 23.4613 13.755C23.439 13.7687 23.4048 13.7892 23.3851 13.8004C23.3654 13.8117 23.3337 13.829 23.3146 13.839C23.2955 13.849 23.2571 13.8678 23.2293 13.8808C23.2014 13.8938 23.1549 13.914 23.126 13.9257C23.097 13.9375 23.0513 13.9548 23.0243 13.9643C22.9974 13.9738 22.9464 13.99 22.911 14.0005C22.8757 14.0109 22.8265 14.0244 22.8018 14.0304C22.7771 14.0365 22.7347 14.046 22.7077 14.0516C22.6807 14.0572 22.6316 14.0661 22.5984 14.0714C22.5653 14.0768 22.5151 14.0839 22.4869 14.0872C22.4587 14.0906 22.4013 14.0956 22.3593 14.0985C22.3173 14.1013 22.2607 14.104 22.2336 14.1045C22.2064 14.105 22.1568 14.1047 22.1232 14.1039C22.0897 14.1031 22.0397 14.101 22.0122 14.0991C21.9846 14.0973 21.9414 14.0936 21.9161 14.091C21.8908 14.0883 21.8403 14.0817 21.8039 14.0761C21.7675 14.0706 21.7147 14.0614 21.6867 14.0557C21.6587 14.05 21.6111 14.039 21.5808 14.0313C21.5506 14.0237 21.5018 14.0099 21.4724 14.0008C21.443 13.9917 21.4024 13.9783 21.3821 13.971C21.3619 13.9637 21.3281 13.9509 21.3071 13.9424C21.2861 13.934 21.25 13.9186 21.2269 13.9082C21.2038 13.8978 21.1578 13.875 21.1246 13.8576C21.0891 13.8388 21.046 13.8143 21.0198 13.7978C20.9954 13.7824 20.9585 13.7577 20.9377 13.743C20.9171 13.7282 20.8831 13.7023 20.8623 13.6853C20.8416 13.6683 20.8144 13.6448 20.802 13.633C20.7896 13.6213 20.7711 13.6031 20.7608 13.5926C20.7506 13.5822 20.7331 13.5634 20.7221 13.551C20.711 13.5385 20.6905 13.5135 20.6766 13.4955C20.6626 13.4774 20.6387 13.4422 20.6234 13.4174C20.6082 13.3925 20.5882 13.3558 20.579 13.3359C20.5698 13.316 20.5589 13.2909 20.5548 13.2802C20.5507 13.2694 20.5423 13.2432 20.536 13.2219C20.5298 13.2006 20.5219 13.1684 20.5185 13.1502C20.5151 13.132 20.5108 13.0955 20.5089 13.0691C20.5071 13.0426 20.5064 13.0059 20.5073 12.9874C20.5082 12.9689 20.5116 12.9358 20.5148 12.9139C20.5181 12.892 20.5244 12.8592 20.529 12.8411C20.5335 12.823 20.5417 12.7946 20.5473 12.7779C20.5529 12.7613 20.5662 12.7279 20.577 12.7038C20.5877 12.6797 20.6051 12.6447 20.6156 12.6261C20.6261 12.6075 20.6458 12.5757 20.6595 12.5555C20.6731 12.5352 20.6971 12.5026 20.7129 12.4828C20.7287 12.4631 20.7518 12.4358 20.7643 12.4221C20.7768 12.4085 20.7982 12.3861 20.8118 12.3723C20.8255 12.3585 20.8522 12.3332 20.8711 12.316C20.8967 12.2926 20.9252 12.2698 20.9837 12.226C21.0421 12.1822 21.0728 12.1606 21.1048 12.1407C21.1283 12.1261 21.1632 12.1053 21.1822 12.0945C21.2013 12.0837 21.2324 12.0667 21.2515 12.0567C21.2706 12.0467 21.3089 12.0279 21.3368 12.0149C21.3646 12.0019 21.4112 11.9816 21.4402 11.9699C21.4692 11.9582 21.515 11.9409 21.5419 11.9314C21.5688 11.922 21.6197 11.9057 21.655 11.8952C21.6904 11.8848 21.7395 11.8713 21.7642 11.8653C21.7889 11.8592 21.8312 11.8497 21.8583 11.8441C21.8853 11.8385 21.9345 11.8296 21.9676 11.8242C22.0007 11.8189 22.0499 11.8119 22.0769 11.8087C22.1039 11.8055 22.1613 11.8004 22.2046 11.7974C22.2478 11.7945 22.3091 11.7917 22.3408 11.7913C22.3725 11.7909 22.4203 11.7911 22.4471 11.7918C22.4738 11.7925 22.5132 11.7941 22.5346 11.7953C22.5559 11.7966 22.5953 11.7997 22.622 11.8021C22.6488 11.8045 22.7024 11.811 22.7411 11.8165C22.7799 11.822 22.8377 11.8318 22.8695 11.8382C22.9013 11.8446 22.9486 11.8551 22.9745 11.8616C23.0005 11.8681 23.0416 11.8792 23.0658 11.8864C23.0901 11.8936 23.1247 11.9044 23.1428 11.9104C23.1609 11.9165 23.1977 11.9297 23.2245 11.9399C23.2513 11.9501 23.2905 11.966 23.3117 11.9752C23.3329 11.9845 23.3651 11.9992 23.3834 12.0079C23.4017 12.0167 23.4504 12.0431 23.4916 12.0666Z" fill="#7DB834"/>
<defs>
<linearGradient id="paint0_linear_208_4090" x1="9.62003" y1="14.0538" x2="44.654" y2="42.1942" gradientUnits="userSpaceOnUse">
<stop stop-color="#BCD5FF"/>
<stop offset="0.151" stop-color="#A3BEFF"/>
<stop offset="0.3866" stop-color="#82A0FF"/>
<stop offset="0.6124" stop-color="#6A8AFF"/>
<stop offset="0.8221" stop-color="#5C7DFF"/>
<stop offset="1" stop-color="#5778FF"/>
</linearGradient>
<linearGradient id="paint1_linear_208_4090" x1="2.99092" y1="22.6212" x2="51.7712" y2="7.36016" gradientUnits="userSpaceOnUse">
<stop stop-color="#C0D6FF"/>
<stop offset="0.2978" stop-color="#C5DBFF"/>
<stop offset="0.6488" stop-color="#D3E9FF"/>
<stop offset="1" stop-color="#E9FFFF"/>
</linearGradient>
<linearGradient id="paint2_linear_208_4090" x1="2.99092" y1="22.6212" x2="51.7712" y2="7.36016" gradientUnits="userSpaceOnUse">
<stop stop-color="#C0D6FF"/>
<stop offset="0.2978" stop-color="#C5DBFF"/>
<stop offset="0.6488" stop-color="#D3E9FF"/>
<stop offset="1" stop-color="#E9FFFF"/>
</linearGradient>
<linearGradient id="paint3_linear_208_4090" x1="9.62003" y1="4.83992" x2="44.654" y2="32.9802" gradientUnits="userSpaceOnUse">
<stop stop-color="#BCD5FF"/>
<stop offset="0.151" stop-color="#A3BEFF"/>
<stop offset="0.3866" stop-color="#82A0FF"/>
<stop offset="0.6124" stop-color="#6A8AFF"/>
<stop offset="0.8221" stop-color="#5C7DFF"/>
<stop offset="1" stop-color="#5778FF"/>
</linearGradient>
<linearGradient id="paint4_linear_208_4090" x1="2.99091" y1="13.4072" x2="51.7713" y2="-1.85376" gradientUnits="userSpaceOnUse">
<stop stop-color="#C0D6FF"/>
<stop offset="0.2978" stop-color="#C5DBFF"/>
<stop offset="0.6488" stop-color="#D3E9FF"/>
<stop offset="1" stop-color="#E9FFFF"/>
</linearGradient>
</defs>
</svg>
