<svg width="349" height="337" viewBox="0 0 349 337" fill="none" xmlns="http://www.w3.org/2000/svg">
<g opacity="0.45">
<path d="M93.3659 206.106C93.4747 206.106 93.5735 206.078 93.6724 206.03L214.533 138.418C216.758 137.173 217.984 135.477 217.984 133.657C217.984 131.827 216.758 130.141 214.533 128.896L135.828 84.8691C133.999 83.8441 132.991 82.5221 132.991 81.1427C132.991 79.7632 133.999 78.4412 135.828 77.4162L269.096 2.85948C273.11 0.617888 279.645 0.617888 283.659 2.85948L328.355 27.8618C330.184 28.8868 331.192 30.2088 331.192 31.5882C331.192 32.9677 330.184 34.2896 328.355 35.3146L261.909 72.4828C259.684 73.7282 258.458 75.4237 258.458 77.2438C258.458 79.0735 259.684 80.7595 261.909 82.0048L361.257 137.585C365.617 140.018 372.695 140.027 377.055 137.585L443.027 100.685C443.323 100.522 443.422 100.148 443.254 99.8705C443.086 99.5831 442.701 99.4873 442.414 99.6502L376.442 136.55C372.428 138.792 365.893 138.792 361.88 136.55L262.532 80.9702C260.703 79.9452 259.694 78.6233 259.694 77.2438C259.694 75.8644 260.703 74.5424 262.532 73.5174L328.978 36.3492C331.202 35.1039 332.428 33.4083 332.428 31.5882C332.428 29.7586 331.202 28.0726 328.978 26.8272L284.282 1.8249C279.932 -0.608278 272.833 -0.608279 268.483 1.8249L135.215 76.3817C132.991 77.627 131.765 79.3226 131.765 81.1522C131.765 82.9819 132.991 84.6679 135.215 85.9132L213.92 129.94C215.749 130.965 216.758 132.287 216.758 133.667C216.758 135.046 215.749 136.368 213.92 137.393L93.0595 205.005C92.7629 205.168 92.664 205.541 92.8321 205.829C92.9408 206.001 93.1484 206.106 93.3659 206.106Z" fill="#7BD834"/>
<path d="M122.157 155.412C122.374 155.412 122.582 155.307 122.691 155.115C122.859 154.828 122.76 154.464 122.463 154.291L5.15179 88.6626C2.63076 87.2544 1.24665 85.4152 1.24665 83.4897C1.24665 81.5642 2.63076 79.725 5.15179 78.3168L117.659 15.3703C123.096 12.324 131.954 12.324 137.392 15.3703L162.543 29.4425C162.839 29.6054 163.215 29.5096 163.393 29.2222C163.561 28.9348 163.462 28.5708 163.166 28.3984L138.015 14.3262C132.231 11.0883 122.829 11.0883 117.046 14.3261L4.52894 77.2726C1.61247 78.9011 0.000970507 81.114 0.0009703 83.4801C0.000970092 85.8558 1.61247 88.0591 4.52894 89.6972L121.841 155.326C121.949 155.383 122.058 155.412 122.157 155.412Z" fill="#7BD834"/>
<path d="M401.504 337C404.727 337 407.95 336.31 410.402 334.94L571.125 245.028C573.616 243.629 574.99 241.742 574.99 239.702C574.99 237.661 573.616 235.774 571.125 234.375L516.305 203.712C511.401 200.962 503.413 200.962 498.509 203.712L458.875 225.888C458.578 226.051 458.479 226.424 458.647 226.712C458.816 226.999 459.201 227.095 459.488 226.932L499.122 204.756C503.69 202.198 511.114 202.208 515.682 204.756L570.502 235.42C572.598 236.588 573.754 238.111 573.754 239.702C573.754 241.292 572.598 242.815 570.502 243.984L409.779 333.896C405.212 336.454 397.787 336.454 393.22 333.896L185.24 217.544C184.944 217.381 184.568 217.477 184.39 217.765C184.222 218.052 184.321 218.416 184.617 218.588L392.607 334.94C395.058 336.31 398.281 337 401.504 337Z" fill="#7BD834"/>
<path d="M388.84 263.535C392.063 263.535 395.286 262.846 397.738 261.476L430.353 243.227C430.65 243.064 430.749 242.69 430.58 242.403C430.412 242.116 430.027 242.02 429.74 242.183L397.125 260.431C392.558 262.989 385.133 262.989 380.565 260.431L243.768 183.901C241.672 182.733 240.515 181.21 240.515 179.619C240.515 178.029 241.672 176.506 243.768 175.337L284.193 152.72C288.761 150.163 296.185 150.163 300.753 152.72L379.952 197.025C384.856 199.774 392.844 199.774 397.748 197.025L508.406 135.123C512.973 132.565 520.398 132.565 524.966 135.123L643.078 201.202C643.375 201.365 643.75 201.269 643.918 200.982C644.086 200.694 643.988 200.33 643.691 200.167L525.559 134.088C520.655 131.339 512.667 131.339 507.763 134.088L397.105 195.991C392.538 198.548 385.113 198.548 380.546 195.991L301.346 151.686C296.442 148.936 288.454 148.936 283.55 151.686L243.125 174.303C240.634 175.701 239.26 177.588 239.26 179.629C239.26 181.669 240.634 183.556 243.125 184.955L379.943 261.476C382.394 262.846 385.617 263.535 388.84 263.535Z" fill="#7BD834"/>
<path d="M247.722 292.456C247.831 292.456 247.93 292.427 248.029 292.379L282.591 273.048C282.888 272.885 282.987 272.511 282.819 272.224C282.651 271.936 282.275 271.841 281.969 272.004L247.406 291.335C247.109 291.498 247.01 291.871 247.178 292.159C247.297 292.35 247.505 292.456 247.722 292.456Z" fill="#7BD834"/>
<path d="M342.216 79.7729C342.434 79.7729 342.642 79.6675 342.75 79.4759C342.918 79.1885 342.82 78.8245 342.523 78.6521L296.996 53.1899C296.7 53.0271 296.324 53.1229 296.146 53.4103C295.978 53.6977 296.077 54.0617 296.373 54.2341L341.9 79.6962C342.009 79.7441 342.108 79.7729 342.216 79.7729Z" fill="#C0EAA0"/>
<path d="M341.762 90.9902L362.266 90.9902C362.612 90.9902 362.889 90.722 362.889 90.3867L362.889 78.9201C362.889 78.7573 362.819 78.604 362.711 78.4986C362.592 78.3837 362.434 78.3262 362.276 78.3262L341.771 78.3262C341.425 78.3262 341.149 78.5944 341.149 78.9297L341.149 90.3963C341.139 90.7124 341.415 90.9902 341.762 90.9902ZM361.643 89.7832L342.384 89.7832L342.384 79.5141L361.643 79.5141L361.643 89.7832Z" fill="#C0EAA0"/>
<path d="M96.699 65.8731L117.203 65.8731C117.549 65.8731 117.826 65.6049 117.826 65.2696L117.826 53.8031C117.826 53.4678 117.549 53.1996 117.203 53.1996L96.699 53.1996C96.353 53.1996 96.0762 53.4678 96.0762 53.8031L96.0762 65.2696C96.0762 65.6049 96.353 65.8731 96.699 65.8731ZM116.581 64.6661L97.3219 64.6661L97.3219 54.397L116.581 54.397L116.581 64.6661Z" fill="#7BD834"/>
<path d="M227.219 303.932L247.723 303.932C248.069 303.932 248.346 303.664 248.346 303.328L248.346 291.862C248.346 291.699 248.277 291.546 248.168 291.44C248.049 291.325 247.891 291.268 247.733 291.268L227.228 291.268C226.882 291.268 226.606 291.536 226.606 291.871L226.606 303.338C226.606 303.654 226.882 303.932 227.219 303.932ZM247.1 302.725L227.841 302.725L227.841 292.456L247.1 292.456L247.1 302.725Z" fill="#7BD834"/>
</g>
<path opacity="0.5" d="M111.34 103.368L157.675 76.6648C158.683 76.0898 158.55 75.0725 157.398 74.4091L132.214 59.7473L82.2344 88.5402L107.418 103.202C108.581 103.865 110.332 103.943 111.34 103.368Z" fill="#32589D" fill-opacity="0.6"/>
<path d="M33.9051 60.2116V51.001L48.94 51.0121L82.3003 31.7836C83.1202 31.3081 84.5494 31.3745 85.4912 31.9163L118.707 51.0563L133.676 51.0674V60.3001H133.665C133.654 60.5876 133.476 60.864 133.122 61.0631L85.2585 88.6397C84.4386 89.1152 83.0093 89.0489 82.0676 88.5071L34.6696 61.1958C34.1821 60.9083 33.9273 60.5544 33.9051 60.2116Z" fill="url(#paint0_linear_307_6090)"/>
<path d="M85.2699 79.4291L133.133 51.8524C133.953 51.3769 133.853 50.5587 132.901 50.0169L85.5026 22.7056C84.5608 22.1638 83.1316 22.0975 82.3117 22.573L34.4484 50.1496C33.6285 50.6251 33.7282 51.4433 34.681 51.9851L82.079 79.2964C83.0208 79.8382 84.45 79.8935 85.2699 79.4291Z" fill="url(#paint1_linear_307_6090)"/>
<path d="M85.2699 79.4291L133.133 51.8524C133.953 51.3769 133.853 50.5587 132.901 50.0169L85.5026 22.7056C84.5608 22.1638 83.1316 22.0975 82.3117 22.573L34.4484 50.1496C33.6285 50.6251 33.7282 51.4433 34.681 51.9851L82.079 79.2964C83.0208 79.8382 84.45 79.8935 85.2699 79.4291Z" fill="url(#paint2_linear_307_6090)"/>
<path d="M85.1034 76.2004L127.527 51.7529C128.247 51.3327 128.158 50.603 127.327 50.1164L85.3139 25.9122C84.4719 25.4257 83.2088 25.3815 82.4776 25.7906L40.0543 50.2381C39.3341 50.6582 39.4227 51.388 40.2537 51.8745L82.2671 76.0787C83.1091 76.5652 84.3722 76.6095 85.1034 76.2004Z" fill="#32589D"/>
<path d="M84.9938 74.1437L123.971 51.6866C124.636 51.2996 124.559 50.6361 123.783 50.1828L85.1821 27.9467C84.4176 27.5045 83.2432 27.4602 82.5784 27.8362L43.6009 50.2934C42.9361 50.6804 43.0136 51.3438 43.7892 51.7971L82.3901 74.0332C83.1656 74.4865 84.329 74.5307 84.9938 74.1437Z" fill="#102140"/>
<path d="M84.6833 49.5304L89.248 46.9098L86.7552 45.4724L82.2015 48.104L84.6833 49.5304Z" fill="#7BD834"/>
<path d="M76.2191 49.1655L80.7727 51.7861L83.2656 50.3486L78.7009 47.7281L76.2191 49.1655Z" fill="#7BD834"/>
<path d="M85.7245 50.1275L88.2063 51.5649L90.6992 50.1275L88.2063 48.6901L85.7245 50.1275Z" fill="#7BD834"/>
<path d="M77.1167 55.0811L79.6096 56.5185L86.7891 52.3832L84.2962 50.9457L77.1167 55.0811Z" fill="#7BD834"/>
<path opacity="0.4" d="M33.8947 38.6059L54.2588 38.7275L82.312 22.5619C83.1319 22.0864 84.5611 22.1528 85.5029 22.6946L113.944 39.0813L133.688 39.203V51.1669L133.676 51.1779C133.632 51.4322 133.455 51.6644 133.134 51.8524L85.2702 79.4291C84.4503 79.9045 83.0211 79.8382 82.0793 79.2964L34.6813 51.9851C34.2492 51.7419 34.0055 51.4323 33.9279 51.1227L33.8947 51.1005V38.6059Z" fill="#7BD834"/>
<path d="M33.9051 39.789V30.5783L48.94 30.5894L82.3003 11.3609C83.1202 10.8855 84.5494 10.9518 85.4912 11.4936L118.707 30.6336L133.676 30.6447V39.8775H133.665C133.654 40.1649 133.476 40.4414 133.122 40.6404L85.2585 68.2171C84.4386 68.6925 83.0093 68.6262 82.0676 68.0844L34.6696 40.7731C34.1821 40.4967 33.9273 40.1428 33.9051 39.789Z" fill="url(#paint3_linear_307_6090)"/>
<path d="M85.2699 59.0064L133.133 31.4297C133.953 30.9543 133.853 30.1361 132.901 29.5943L85.5026 2.28297C84.5608 1.74117 83.1316 1.67483 82.3117 2.15029L34.4484 29.727C33.6285 30.2024 33.7282 31.0206 34.681 31.5625L82.079 58.8737C83.0208 59.4266 84.45 59.4819 85.2699 59.0064Z" fill="url(#paint4_linear_307_6090)"/>
<path d="M85.1034 55.7777L127.527 31.3302C128.247 30.91 128.158 30.1803 127.327 29.6938L85.3139 5.48954C84.4719 5.00303 83.2088 4.95881 82.4776 5.36793L40.0543 29.8154C39.3341 30.2356 39.4227 30.9653 40.2537 31.4519L82.2671 55.6561C83.1091 56.1426 84.3722 56.1979 85.1034 55.7777Z" fill="#32589D"/>
<path d="M85.1832 54.1619L124.161 31.7047C124.826 31.3177 124.748 30.6543 123.972 30.2009L85.3716 7.96491C84.6071 7.52262 83.4327 7.47838 82.7679 7.85433L43.7903 30.3115C43.1255 30.6985 43.2031 31.362 43.9786 31.8153L82.5795 54.0513C83.3551 54.4936 84.5184 54.5489 85.1832 54.1619Z" fill="#102140"/>
<path d="M92.1639 23.9748L90.8967 23.2699L90.7554 23.2156C90.6777 23.1857 90.5663 23.1438 90.5078 23.1225C90.4494 23.1012 90.3344 23.0608 90.2524 23.0328C90.1704 23.0048 89.9856 22.945 89.8417 22.9C89.6978 22.855 89.51 22.7977 89.4244 22.7728C89.3389 22.7478 89.2017 22.7091 89.1196 22.6867C89.0374 22.6644 88.9076 22.6301 88.8309 22.6105C88.7542 22.591 88.6207 22.5583 88.5343 22.538C88.4478 22.5176 88.3293 22.4905 88.2709 22.4777C88.2124 22.4647 88.0907 22.4392 88.0004 22.4207C87.91 22.4022 87.7607 22.3731 87.6685 22.3559C87.5764 22.3388 87.4241 22.3119 87.3301 22.2961C87.2361 22.2804 87.0539 22.2523 86.9252 22.2339C86.7966 22.2153 86.6229 22.1919 86.5393 22.1817C86.4558 22.1715 86.3116 22.1551 86.2189 22.1452C86.1262 22.1352 85.9784 22.1206 85.8905 22.1126C85.8026 22.1047 85.6564 22.0928 85.5654 22.0862C85.4746 22.0796 85.3596 22.0718 85.3099 22.0687C85.2603 22.0658 85.1351 22.0593 85.0316 22.0544C84.9282 22.0496 84.7491 22.0431 84.6337 22.0401C84.5183 22.0371 84.3655 22.034 84.2942 22.0333C84.2229 22.0326 84.0952 22.0324 84.0103 22.0327C83.9254 22.0331 83.7982 22.0345 83.7276 22.0358C83.657 22.037 83.5337 22.0401 83.4536 22.0426C83.3735 22.0451 83.2187 22.0514 83.1096 22.0566C83.0004 22.0617 82.7791 22.0755 82.6178 22.087C82.4564 22.0986 82.2452 22.1158 82.1485 22.1252C82.0517 22.1346 81.9032 22.15 81.8185 22.1595C81.7338 22.1689 81.5916 22.186 81.5024 22.1975C81.4132 22.209 81.2766 22.2275 81.1988 22.2387C81.1211 22.2498 80.9787 22.2716 80.8825 22.287C80.7863 22.3023 80.6355 22.3276 80.5475 22.3432C80.4593 22.3588 80.2864 22.3915 80.163 22.416C80.0397 22.4404 79.8648 22.4768 79.7744 22.4967C79.684 22.5166 79.5518 22.5467 79.4806 22.5634C79.4094 22.5802 79.2979 22.6072 79.2328 22.6235C79.1677 22.6398 79.0514 22.6698 78.9744 22.6902C78.8974 22.7105 78.7292 22.7576 78.6005 22.7946C78.472 22.8317 78.2987 22.8833 78.2157 22.9092C78.1327 22.9351 78.0048 22.9762 77.9316 23.0004C77.8583 23.0247 77.7256 23.07 77.6365 23.1012C77.5474 23.1325 77.4065 23.1833 77.3232 23.2142C77.24 23.2451 77.0876 23.3039 76.9845 23.345C76.8814 23.386 76.7211 23.4519 76.6281 23.4914C76.5352 23.531 76.3948 23.5922 76.3162 23.6275C76.2377 23.6627 76.1065 23.7234 76.0249 23.7623C75.9432 23.8011 75.8127 23.8649 75.7348 23.9041C75.6569 23.9433 75.5441 24.0011 75.484 24.0326C75.4239 24.0642 75.3203 24.1199 75.2536 24.1565C75.1869 24.1932 75.069 24.2597 74.9914 24.3043C74.9138 24.349 74.7838 24.426 74.7024 24.4754C74.621 24.525 74.4981 24.6016 74.4291 24.6457C74.3602 24.6898 74.2615 24.7541 74.2098 24.7886C74.1463 24.8309 73.9478 24.978 73.5975 25.2425L73.0793 25.6339L72.9687 25.7319C72.9079 25.7858 72.8202 25.8648 72.7738 25.9074C72.7274 25.95 72.6449 26.0276 72.5905 26.0799C72.5361 26.1321 72.4496 26.2175 72.3982 26.2696C72.3469 26.3218 72.262 26.4104 72.2098 26.4665C72.1576 26.5227 72.078 26.6105 72.033 26.6617C71.988 26.7129 71.9129 26.8009 71.866 26.8573C71.8192 26.9137 71.7412 27.011 71.6927 27.0735C71.6442 27.136 71.571 27.2331 71.53 27.2893C71.489 27.3454 71.4099 27.4595 71.3543 27.5428C71.2986 27.626 71.2142 27.7585 71.1666 27.8371C71.119 27.9157 71.0478 28.0396 71.0082 28.1124C70.9687 28.1851 70.915 28.2873 70.889 28.3395C70.8629 28.3916 70.8168 28.488 70.7864 28.5536C70.7561 28.6191 70.7127 28.7184 70.6899 28.7742C70.6671 28.8299 70.6332 28.9158 70.6147 28.9652C70.5961 29.0145 70.5688 29.0897 70.554 29.1324C70.5393 29.175 70.513 29.2551 70.4956 29.3104C70.4783 29.3656 70.4521 29.4544 70.4373 29.5076C70.4226 29.5608 70.398 29.6576 70.3827 29.7228C70.3674 29.7879 70.3489 29.8709 70.3416 29.9072C70.3343 29.9435 70.3224 30.0057 70.3151 30.0455C70.3078 30.0853 70.294 30.1724 70.2845 30.239C70.275 30.3056 70.2624 30.4063 70.2566 30.4626C70.2509 30.519 70.2427 30.6192 70.2385 30.6853C70.2343 30.7514 70.2299 30.8551 70.2286 30.9157C70.2274 30.9763 70.227 31.0708 70.2277 31.1257C70.2285 31.1805 70.2345 31.3061 70.2411 31.4048C70.2477 31.5034 70.259 31.6316 70.266 31.6896C70.2731 31.7476 70.2864 31.8427 70.2956 31.9008C70.3049 31.959 70.3222 32.0557 70.3341 32.1157C70.346 32.1758 70.3683 32.2767 70.3835 32.34C70.3988 32.4033 70.4292 32.5169 70.4512 32.5924C70.4732 32.6679 70.5082 32.7796 70.5292 32.8405C70.5501 32.9015 70.5855 32.9988 70.6079 33.0568C70.6302 33.1148 70.6641 33.199 70.6831 33.244C70.7021 33.289 70.7442 33.3828 70.7768 33.4524C70.8094 33.522 70.8626 33.6297 70.895 33.6916C70.9274 33.7535 70.9827 33.8547 71.0178 33.9166C71.0529 33.9784 71.1174 34.0853 71.1611 34.154C71.2049 34.2228 71.2677 34.3184 71.3007 34.3664C71.3337 34.4145 71.3886 34.492 71.4227 34.5387C71.4567 34.5854 71.5195 34.6684 71.5622 34.7232C71.6049 34.7781 71.672 34.8615 71.7113 34.9087C71.7506 34.9558 71.8093 35.0247 71.8416 35.0618C71.8739 35.0989 71.9468 35.1791 72.0037 35.2399C72.0605 35.3008 72.1463 35.3901 72.1944 35.4383C72.2425 35.4866 72.3377 35.5782 72.4059 35.6421C72.4742 35.7059 72.5756 35.7977 72.6311 35.846C72.6868 35.8944 72.764 35.9603 72.8028 35.9926C72.8416 36.0248 72.9088 36.0794 72.9522 36.1139C72.9957 36.1485 73.0738 36.209 73.1259 36.2485C73.178 36.2881 73.2449 36.3383 73.2745 36.3601C73.3042 36.3819 73.3574 36.4203 73.3928 36.4454C73.4281 36.4704 73.4997 36.5202 73.552 36.556C73.6041 36.5917 73.6945 36.6526 73.7528 36.6913C73.8466 36.7533 73.93 36.801 74.4676 37.0996L75.0762 37.4376L75.2315 37.5093C75.3169 37.5487 75.4488 37.6082 75.5244 37.6416C75.6002 37.6749 75.7252 37.7285 75.8023 37.7607C75.8794 37.793 75.9946 37.8399 76.0583 37.8649C76.122 37.89 76.237 37.934 76.3137 37.9627C76.3904 37.9913 76.5174 38.0372 76.5959 38.0646C76.6744 38.092 76.813 38.1386 76.9038 38.1682C76.9947 38.1978 77.1468 38.2453 77.2418 38.2737C77.3368 38.3021 77.4911 38.3463 77.5846 38.372C77.6781 38.3977 77.825 38.4365 77.911 38.4583C77.9971 38.48 78.1226 38.5107 78.1899 38.5265C78.2573 38.5423 78.3764 38.5691 78.4545 38.586C78.5326 38.6029 78.6484 38.6271 78.7118 38.6398C78.7751 38.6525 78.8883 38.6743 78.9632 38.6882C79.0382 38.7021 79.1591 38.7236 79.232 38.736C79.3049 38.7485 79.4357 38.7697 79.5227 38.7831C79.6097 38.7966 79.7644 38.8187 79.8663 38.8321C79.9684 38.8455 80.1298 38.8654 80.2252 38.8763C80.3206 38.8872 80.4916 38.9047 80.6052 38.9153C80.7189 38.9258 80.8863 38.9398 80.9772 38.9464C81.0683 38.953 81.1833 38.9609 81.233 38.9638C81.2827 38.9669 81.402 38.973 81.4983 38.9775C81.5946 38.9819 81.7826 38.9883 81.9162 38.9917C82.0497 38.995 82.2465 38.998 82.3535 38.9983C82.4605 38.9985 82.6034 38.9979 82.6711 38.997C82.7389 38.996 82.8267 38.9945 82.8663 38.9935C82.906 38.9925 83.0234 38.9888 83.1273 38.9854C83.2312 38.9818 83.4296 38.9726 83.5682 38.9649C83.7068 38.957 83.9075 38.9435 84.0142 38.9347C84.1208 38.9259 84.27 38.9128 84.3458 38.9056C84.4215 38.8984 84.55 38.8851 84.6315 38.8761C84.7129 38.8671 84.8366 38.8527 84.9064 38.8442C84.9762 38.8356 85.116 38.8171 85.2169 38.803C85.3179 38.7889 85.4909 38.763 85.6013 38.7455C85.7119 38.7279 85.8805 38.6996 85.9762 38.6826C86.0718 38.6656 86.2565 38.6304 86.3864 38.6043C86.5164 38.5783 86.6727 38.546 86.7336 38.5325C86.7947 38.519 86.912 38.4923 86.9944 38.4732C87.0768 38.4541 87.2171 38.4201 87.3063 38.3977C87.3954 38.3753 87.5243 38.3422 87.5927 38.324C87.6611 38.3059 87.831 38.2582 87.9701 38.2179C88.1093 38.1777 88.276 38.1283 88.3405 38.108C88.405 38.0877 88.5244 38.0493 88.606 38.0226C88.6875 37.996 88.8082 37.9555 88.8744 37.9325C88.9406 37.9097 89.0557 37.8688 89.1302 37.8419C89.2047 37.8149 89.3361 37.7658 89.4222 37.733C89.5082 37.7001 89.6473 37.6453 89.7313 37.6113C89.8153 37.5773 89.9483 37.522 90.0268 37.4885C90.1055 37.455 90.2312 37.3999 90.3062 37.3662C90.3814 37.3325 90.5156 37.2707 90.6046 37.229C90.6935 37.1872 90.8216 37.1259 90.8892 37.0926C90.9567 37.0594 91.073 37.0006 91.1477 36.962C91.2224 36.9234 91.3513 36.8548 91.4341 36.8096C91.517 36.7645 91.6404 36.6952 91.7085 36.6559C91.7764 36.6165 91.8743 36.5589 91.9259 36.5279C91.9775 36.4969 92.0563 36.4489 92.101 36.4211C92.1457 36.3933 92.2312 36.3388 92.2909 36.3001C92.3835 36.2401 92.483 36.1667 92.9668 35.8018C93.4585 35.431 93.5436 35.3652 93.6056 35.3084C93.645 35.2724 93.7053 35.2169 93.7398 35.1852C93.7743 35.1535 93.8317 35.0993 93.8675 35.0649C93.9034 35.0304 93.9641 34.9708 94.0024 34.9325C94.0408 34.8942 94.099 34.8348 94.1318 34.8006C94.1646 34.7663 94.2312 34.6943 94.2799 34.6405C94.3285 34.5867 94.3973 34.5085 94.4326 34.4667C94.468 34.425 94.5319 34.3472 94.5747 34.2938C94.6175 34.2404 94.6858 34.152 94.7264 34.0974C94.767 34.0428 94.8355 33.9459 94.8786 33.8822C94.9217 33.8185 94.981 33.728 95.0104 33.6812C95.0398 33.6343 95.0704 33.5818 95.0785 33.5643C95.0866 33.5469 95.0953 33.5128 95.0979 33.4887C95.1005 33.4644 95.0978 33.4282 95.092 33.4081C95.0861 33.388 95.0743 33.3597 95.0656 33.3451C95.0568 33.3306 95.0402 33.3086 95.0285 33.2962C95.0167 33.284 94.9913 33.2623 94.9718 33.2481C94.9479 33.2306 94.9212 33.216 94.8892 33.2029C94.8631 33.1921 94.8215 33.1787 94.7966 33.173C94.7718 33.1673 94.7303 33.1606 94.7047 33.1582C94.679 33.1557 94.6262 33.1562 94.5876 33.1593C94.5489 33.1624 94.0837 33.1953 93.5538 33.2325C92.861 33.2811 92.5752 33.3032 92.5367 33.3115C92.5071 33.3177 92.4639 33.331 92.4406 33.341C92.4173 33.351 92.376 33.3727 92.3489 33.3892C92.3218 33.4057 92.2728 33.4392 92.2401 33.4637L92.1807 33.5081L92.1595 33.5521C92.1477 33.5764 92.121 33.6242 92.1002 33.6586C92.0793 33.6929 92.0392 33.7527 92.0109 33.7914C91.9826 33.83 91.9415 33.8833 91.9196 33.9097C91.8977 33.9361 91.8559 33.9846 91.8268 34.0175C91.7976 34.0504 91.7468 34.1054 91.7138 34.1398C91.6809 34.1741 91.6248 34.2304 91.5891 34.265C91.5534 34.2995 91.486 34.3625 91.4393 34.405C91.3926 34.4475 91.3147 34.5161 91.2661 34.5575C91.2119 34.6038 91.0872 34.7006 90.943 34.8086C90.8138 34.9052 90.6602 35.0164 90.6014 35.0557C90.5427 35.095 90.4505 35.1557 90.3964 35.1905C90.3423 35.2254 90.2503 35.2833 90.1919 35.3193C90.1335 35.3552 90.0391 35.4119 89.982 35.4451C89.9251 35.4783 89.824 35.5356 89.7575 35.5723C89.691 35.6091 89.5888 35.6642 89.5302 35.6948C89.4717 35.7254 89.3776 35.7736 89.3212 35.8019C89.2648 35.8302 89.1571 35.8823 89.0818 35.9177C89.0065 35.9531 88.9035 36.0006 88.8527 36.0232C88.802 36.0459 88.6989 36.0906 88.6237 36.1225C88.5486 36.1544 88.4253 36.205 88.3498 36.235C88.2743 36.2649 88.1585 36.3097 88.0924 36.3344C88.0264 36.359 87.9169 36.3987 87.8493 36.4226C87.7817 36.4464 87.6631 36.4868 87.5858 36.5122C87.5085 36.5376 87.3871 36.5764 87.3161 36.5984C87.2451 36.6203 87.0944 36.6644 86.9813 36.6962C86.8682 36.7281 86.7137 36.77 86.6379 36.7893C86.5622 36.8086 86.433 36.8401 86.3508 36.8594C86.2687 36.8787 86.1402 36.9078 86.0652 36.924C85.9903 36.9402 85.8581 36.9673 85.7715 36.9841C85.6849 37.0009 85.5354 37.0284 85.4392 37.0451C85.343 37.0618 85.1869 37.0871 85.0924 37.1012C84.9978 37.1153 84.8428 37.1368 84.7478 37.149C84.6529 37.1611 84.5079 37.1782 84.4258 37.187C84.3437 37.1957 84.176 37.2117 84.0532 37.2224C83.9304 37.2331 83.7379 37.2468 83.6254 37.2529C83.5131 37.2591 83.3704 37.266 83.3085 37.2683C83.2466 37.2707 83.1462 37.2738 83.0855 37.2753C83.0248 37.2768 82.9114 37.2786 82.8337 37.2794C82.756 37.2801 82.6347 37.2802 82.5641 37.2795C82.4935 37.2788 82.3789 37.2769 82.3095 37.2752C82.2401 37.2736 82.1336 37.2704 82.0727 37.2681C82.0119 37.2658 81.8901 37.2599 81.802 37.255C81.7139 37.2502 81.585 37.2418 81.5154 37.2365C81.4458 37.2312 81.3144 37.22 81.2234 37.2116C81.1324 37.2031 80.9819 37.1875 80.8888 37.1767C80.7958 37.166 80.6197 37.1428 80.4974 37.1253C80.3751 37.1077 80.212 37.0827 80.1349 37.0696C80.0577 37.0565 79.9395 37.0354 79.8722 37.0227C79.8048 37.01 79.6989 36.9891 79.6367 36.9762C79.5746 36.9635 79.4721 36.9415 79.409 36.9275C79.3459 36.9135 79.2156 36.8826 79.1195 36.8588C79.0234 36.8351 78.885 36.7993 78.8119 36.7794C78.7388 36.7595 78.6354 36.7304 78.582 36.7148C78.5288 36.6992 78.4319 36.6699 78.367 36.6496C78.3019 36.6294 78.1967 36.5954 78.1332 36.574C78.0696 36.5527 77.9511 36.5115 77.8699 36.4823C77.7886 36.4531 77.671 36.4094 77.6084 36.3851C77.5457 36.3608 77.4341 36.3159 77.3603 36.2853C77.2866 36.2548 77.1725 36.2058 77.1068 36.1764C77.0411 36.1471 76.9361 36.0989 76.8733 36.0693C76.8105 36.0397 76.693 35.982 76.6121 35.9411C76.5196 35.8944 76.3667 35.8109 76.2007 35.7165C76.0554 35.6338 75.9004 35.543 75.8563 35.5148C75.8122 35.4866 75.7327 35.4349 75.6796 35.4C75.6265 35.3651 75.5345 35.3024 75.475 35.2606C75.4157 35.2189 75.3281 35.156 75.2805 35.1208C75.2329 35.0856 75.1451 35.0182 75.0853 34.971C75.0256 34.9238 74.9364 34.8512 74.887 34.8096C74.8377 34.768 74.7629 34.7035 74.7208 34.6662C74.6788 34.6289 74.6055 34.5614 74.5579 34.5161C74.5104 34.4708 74.446 34.4077 74.4147 34.3758C74.3835 34.3439 74.3244 34.2819 74.2833 34.2379C74.2423 34.194 74.1743 34.1179 74.1323 34.0689C74.0903 34.0199 74.0362 33.9555 74.0119 33.9258C73.9878 33.896 73.9362 33.8296 73.8974 33.7782C73.8586 33.7268 73.8057 33.6546 73.7799 33.6178C73.7541 33.581 73.7051 33.5079 73.6711 33.4555C73.637 33.4031 73.5799 33.3101 73.544 33.2488C73.5082 33.1875 73.4536 33.0884 73.4225 33.0286C73.3915 32.9688 73.3512 32.8877 73.333 32.8484C73.3148 32.809 73.2871 32.7472 73.2714 32.7111C73.2557 32.675 73.2237 32.5955 73.2002 32.5345C73.1768 32.4735 73.1456 32.3872 73.1309 32.3426C73.1162 32.2981 73.092 32.2205 73.0773 32.1703C73.0626 32.12 73.0382 32.0285 73.0232 31.9669C73.0082 31.9054 72.9865 31.8049 72.9751 31.7436C72.9638 31.6824 72.9474 31.5833 72.9388 31.5235C72.9303 31.4637 72.9174 31.3281 72.9102 31.2223C72.903 31.1165 72.8979 30.9704 72.8988 30.8977C72.8998 30.825 72.9037 30.7153 72.9076 30.6539C72.9115 30.5925 72.9189 30.5029 72.9241 30.4549C72.9293 30.4069 72.9406 30.32 72.9494 30.2617C72.9582 30.2035 72.9721 30.1208 72.9804 30.0781C72.9887 30.0353 73.0046 29.9609 73.0156 29.9127C73.0267 29.8645 73.0476 29.7814 73.0622 29.7281C73.0768 29.6748 73.101 29.5921 73.116 29.5444C73.1311 29.4966 73.1584 29.4156 73.1767 29.3644C73.1949 29.3131 73.2381 29.2037 73.2726 29.1212C73.3071 29.0386 73.3568 28.9269 73.3829 28.8731C73.409 28.8192 73.4474 28.7429 73.468 28.7035C73.4887 28.6642 73.527 28.5942 73.5532 28.5479C73.5794 28.5017 73.6219 28.4291 73.6476 28.3867C73.6732 28.3442 73.7334 28.2508 73.7812 28.1791C73.829 28.1075 73.902 28.0031 73.9433 27.9471C73.9847 27.8911 74.0526 27.8026 74.0941 27.7503C74.1358 27.6979 74.1999 27.6202 74.2366 27.5774C74.2733 27.5347 74.3431 27.4558 74.3917 27.4021C74.4403 27.3485 74.5189 27.2644 74.5663 27.2153C74.6137 27.1662 74.6871 27.0922 74.7293 27.0508C74.7716 27.0093 74.8497 26.9351 74.903 26.8858C74.9563 26.8364 75.0391 26.7619 75.0869 26.7201C75.1348 26.6782 75.2065 26.6162 75.2464 26.5822C75.2862 26.5482 75.4297 26.4356 75.5651 26.3319C75.7204 26.213 75.8595 26.1102 75.9421 26.0535C76.0141 26.004 76.1348 25.9233 76.2106 25.8742C76.2863 25.825 76.3939 25.757 76.4495 25.7231C76.5052 25.6891 76.5973 25.6341 76.6543 25.6009C76.7114 25.5676 76.8131 25.51 76.8805 25.4727C76.9479 25.4355 77.0583 25.3763 77.126 25.3412C77.1936 25.3061 77.2981 25.253 77.3582 25.2233C77.4183 25.1935 77.5122 25.1481 77.5669 25.1224C77.6216 25.0966 77.7035 25.0589 77.7488 25.0384C77.7941 25.018 77.8982 24.9725 77.9802 24.9374C78.0622 24.9023 78.2046 24.8435 78.2966 24.807C78.3885 24.7703 78.5134 24.7221 78.5741 24.6996C78.6347 24.6771 78.7332 24.6414 78.7931 24.6203C78.8529 24.5992 78.955 24.5641 79.02 24.5423C79.085 24.5206 79.1993 24.4836 79.274 24.4601C79.3486 24.4367 79.5068 24.3897 79.6256 24.3557C79.7443 24.3216 79.9156 24.2748 80.0063 24.2515C80.097 24.2282 80.255 24.1896 80.3574 24.1658C80.4597 24.142 80.6177 24.1071 80.7082 24.0882C80.7989 24.0694 80.9398 24.0415 81.0214 24.0263C81.103 24.0111 81.2638 23.9833 81.3785 23.9646C81.4933 23.9458 81.6533 23.9213 81.734 23.91C81.8147 23.8987 81.9474 23.8814 82.0289 23.8715C82.1103 23.8617 82.2454 23.8466 82.329 23.8381C82.4126 23.8295 82.5742 23.8147 82.6879 23.8053C82.8017 23.7958 82.9992 23.7828 83.1269 23.7764C83.2546 23.77 83.4248 23.7629 83.5053 23.7605C83.5857 23.7581 83.7252 23.7554 83.8153 23.7545C83.9054 23.7536 84.0288 23.7532 84.0897 23.7536C84.1505 23.754 84.2812 23.7563 84.3802 23.7587C84.4792 23.7611 84.636 23.7667 84.7287 23.7711C84.8213 23.7754 84.9727 23.7842 85.0651 23.7905C85.1575 23.7969 85.3316 23.8114 85.452 23.8226C85.5724 23.8339 85.7412 23.8517 85.827 23.862C85.9129 23.8723 86.0656 23.8927 86.1665 23.9071C86.2673 23.9216 86.4028 23.9422 86.4678 23.953C86.5327 23.9637 86.6514 23.9845 86.7314 23.9992C86.8115 24.0139 86.941 24.0391 87.0192 24.0552C87.0973 24.0713 87.2318 24.1006 87.318 24.1204C87.4041 24.1401 87.5432 24.1738 87.6271 24.1952C87.7109 24.2167 87.8572 24.2561 87.9521 24.2829C88.0469 24.3098 88.1909 24.3524 88.2719 24.3776C88.3529 24.4029 88.484 24.4456 88.563 24.4725C88.6421 24.4995 88.7616 24.5416 88.8284 24.5662C88.8953 24.5908 89.0022 24.6314 89.0659 24.6564C89.1296 24.6815 89.2341 24.7238 89.2981 24.7506C89.3621 24.7774 89.4682 24.8233 89.5338 24.8526C89.5995 24.8819 89.7057 24.9308 89.7699 24.9612C89.8341 24.9917 89.9625 25.0554 90.0551 25.1028C90.1544 25.1535 90.2971 25.2313 90.4023 25.292C90.5004 25.3487 90.6193 25.4194 90.6664 25.4493C90.7134 25.4792 90.8065 25.5396 90.873 25.5836C90.9397 25.6275 91.0535 25.7052 91.1261 25.7561C91.1988 25.8071 91.3056 25.8837 91.3637 25.9264C91.4218 25.9691 91.5327 26.0522 91.61 26.111C91.6874 26.1699 91.8003 26.2569 91.8608 26.3043C91.9234 26.3534 91.9888 26.4005 92.0125 26.4135C92.0354 26.4262 92.0798 26.448 92.1113 26.4622C92.1427 26.4763 92.1939 26.496 92.2248 26.506C92.2558 26.516 92.3067 26.528 92.338 26.5326L92.3948 26.5411L93.3687 26.474C94.1093 26.423 94.3548 26.4042 94.3933 26.3953C94.4212 26.3889 94.4671 26.3741 94.4952 26.3624C94.5235 26.3507 94.5685 26.3278 94.5953 26.3115C94.6276 26.292 94.6578 26.2694 94.6845 26.2449C94.7067 26.2245 94.7336 26.1967 94.7443 26.1831C94.755 26.1695 94.7727 26.1435 94.7837 26.1252C94.7908 26.1049 94.805 26.0742 94.8109 26.0547C94.8168 26.0352 94.8224 26.0035 94.8231 25.9842C94.8228 25.9643 94.8189 25.9372 94.8127 25.923C94.8057 25.9057 94.7756 25.8707 94.7198 25.8135C94.6735 25.7668 94.5998 25.6929 94.554 25.6483C94.5083 25.6036 94.438 25.536 94.3974 25.4975C94.3567 25.4591 94.2825 25.3906 94.2326 25.3454C94.1826 25.3001 94.0905 25.2188 94.0274 25.1646C93.9644 25.1103 93.8627 25.0249 93.8021 24.9751C93.7404 24.9248 93.6313 24.8375 93.5595 24.781L93.4277 24.6777L92.1639 23.9748ZM99.0766 27.8116L98.807 27.6619L95.9583 27.9164L93.1095 28.1708L92.8496 28.5893C92.7067 28.8195 92.5754 29.0308 92.5578 29.0588L92.5259 29.1097L91.0977 29.1773L89.6694 29.245L89.6538 29.2096C89.6451 29.1901 89.6164 29.1309 89.5899 29.078C89.5634 29.0251 89.5075 28.9259 89.4656 28.8576C89.4238 28.7893 89.3709 28.7067 89.3481 28.674C89.3252 28.6413 89.2798 28.5797 89.2472 28.5371C89.2146 28.4945 89.1621 28.4288 89.1306 28.3911C89.0991 28.3534 89.046 28.2928 89.0126 28.2566C88.9792 28.2203 88.9271 28.1653 88.8968 28.1344C88.8664 28.1035 88.812 28.0502 88.7758 28.0161C88.7396 27.9819 88.6841 27.9309 88.6523 27.9028C88.6207 27.8746 88.5557 27.8199 88.5079 27.7811C88.4602 27.7424 88.3931 27.6893 88.3588 27.6632C88.3246 27.6372 88.2579 27.5884 88.2104 27.555C88.163 27.5215 88.0796 27.4649 88.025 27.4292C87.9704 27.3936 87.8538 27.3227 87.7658 27.2717C87.6713 27.2169 87.5491 27.1505 87.4668 27.1092C87.3903 27.0707 87.2835 27.019 87.2295 26.9944C87.1756 26.9697 87.0779 26.9269 87.0124 26.8993C86.947 26.8717 86.8518 26.8333 86.801 26.8139C86.7502 26.7945 86.6589 26.7612 86.598 26.7397C86.5372 26.7183 86.4343 26.6841 86.3694 26.6637C86.3045 26.6434 86.2031 26.6128 86.144 26.5959C86.085 26.5789 85.9723 26.549 85.8936 26.5293C85.8149 26.5097 85.6987 26.4823 85.6352 26.4686C85.5718 26.4548 85.4609 26.4324 85.3888 26.4188C85.3168 26.4051 85.1711 26.381 85.0652 26.3653C84.9593 26.3495 84.8143 26.3301 84.7432 26.3222C84.6719 26.3142 84.5609 26.3031 84.4963 26.2975C84.4317 26.292 84.3118 26.2834 84.2297 26.2786C84.1477 26.2737 84.0176 26.2681 83.9407 26.266C83.8638 26.2639 83.7487 26.2621 83.6849 26.262C83.6211 26.2619 83.5044 26.2632 83.4256 26.2648C83.3467 26.2664 83.1554 26.2764 83.0003 26.287C82.8452 26.2975 82.6604 26.3126 82.5895 26.3207C82.5186 26.3287 82.4006 26.3434 82.3272 26.3536C82.2538 26.3636 82.1302 26.3824 82.0526 26.3952C81.975 26.408 81.8472 26.4313 81.7685 26.4469C81.6898 26.4625 81.5736 26.487 81.51 26.5014C81.4466 26.5158 81.3378 26.542 81.2684 26.5595C81.1989 26.5771 81.058 26.616 80.9552 26.646C80.8524 26.676 80.7113 26.7197 80.6418 26.743C80.5723 26.7663 80.4655 26.8036 80.4045 26.8259C80.3435 26.8481 80.2322 26.891 80.157 26.9212C80.0818 26.9513 79.9785 26.9943 79.9273 27.0166C79.8762 27.039 79.7798 27.083 79.7131 27.1145C79.6464 27.1459 79.5449 27.1958 79.4875 27.2254C79.4302 27.2549 79.3442 27.3004 79.2965 27.3265C79.2488 27.3526 79.161 27.4029 79.1013 27.4381C79.0416 27.4734 78.9495 27.5298 78.8965 27.5636C78.8435 27.5973 78.7506 27.659 78.6898 27.7007C78.6291 27.7424 78.5344 27.8103 78.4792 27.8516C78.4242 27.8929 78.3342 27.9635 78.2793 28.0084C78.2245 28.0534 78.1438 28.1219 78.1 28.1608C78.0562 28.1996 77.9834 28.2667 77.9383 28.3101C77.8931 28.3534 77.8292 28.4169 77.7963 28.4513C77.7634 28.4856 77.7064 28.5472 77.6698 28.5883C77.633 28.6292 77.5717 28.7014 77.5334 28.7487C77.4952 28.7959 77.442 28.864 77.4154 28.8999C77.3887 28.9359 77.3383 29.0082 77.3033 29.0607C77.2683 29.1131 77.2191 29.1906 77.1941 29.2329C77.1691 29.2751 77.1278 29.3488 77.1025 29.3966C77.0771 29.4444 77.0312 29.5409 77.0005 29.611C76.9698 29.6811 76.9311 29.7768 76.9146 29.8237C76.8981 29.8707 76.8742 29.944 76.8616 29.9866C76.849 30.0293 76.8287 30.1071 76.8165 30.1596C76.8043 30.2122 76.7877 30.2972 76.7796 30.3486C76.7715 30.4001 76.7612 30.4817 76.7567 30.53C76.7521 30.5783 76.747 30.6558 76.7453 30.7023C76.7436 30.7487 76.748 30.8689 76.7549 30.9694C76.7618 31.0699 76.775 31.1935 76.7843 31.2441C76.7935 31.2946 76.809 31.3693 76.8186 31.41C76.8283 31.4507 76.8482 31.5243 76.8631 31.5737C76.8779 31.6231 76.9081 31.7102 76.9301 31.7674C76.952 31.8245 76.9862 31.9062 77.0061 31.9487C77.026 31.9913 77.0575 32.0555 77.0761 32.0914C77.0947 32.1273 77.1425 32.2101 77.1824 32.2753C77.2224 32.3406 77.2809 32.43 77.3126 32.4739C77.3442 32.5178 77.3951 32.5852 77.4257 32.6237C77.4562 32.6621 77.5129 32.7293 77.5515 32.7732C77.5902 32.817 77.6501 32.8818 77.6847 32.9172C77.7193 32.9526 77.7837 33.0156 77.8279 33.0572C77.8721 33.0989 77.9474 33.1662 77.9955 33.2068C78.0434 33.2475 78.1168 33.307 78.1584 33.339C78.2 33.371 78.2585 33.415 78.2883 33.4367C78.3182 33.4584 78.3764 33.4994 78.4177 33.5278C78.4591 33.5562 78.5255 33.6005 78.5653 33.6262C78.6051 33.6519 78.7097 33.7147 78.7975 33.7656C78.8946 33.8221 79.0138 33.8869 79.1018 33.9312C79.1814 33.9711 79.3012 34.0287 79.3681 34.059C79.435 34.0893 79.5316 34.1314 79.5826 34.1525C79.6336 34.1737 79.7323 34.2126 79.8018 34.2391C79.8713 34.2655 79.9874 34.3071 80.0598 34.3313C80.1321 34.3557 80.2256 34.3859 80.2675 34.3986C80.3094 34.4112 80.3861 34.4336 80.438 34.4484C80.4898 34.4632 80.5806 34.4877 80.6396 34.5028C80.6987 34.5179 80.8116 34.5446 80.8905 34.5621C80.9694 34.5796 81.089 34.6044 81.1561 34.6173C81.2232 34.6301 81.3405 34.6504 81.4165 34.6623C81.4926 34.6742 81.6065 34.6907 81.6695 34.699C81.7327 34.7074 81.8338 34.7194 81.8942 34.7258C81.9548 34.7322 82.0647 34.7423 82.1385 34.7482C82.2123 34.7542 82.3354 34.7622 82.4121 34.7661C82.4887 34.7699 82.6001 34.7742 82.6596 34.7756C82.7191 34.777 82.829 34.7782 82.9037 34.7782C82.9784 34.7783 83.0951 34.777 83.1629 34.7755C83.2307 34.7739 83.4154 34.7638 83.5732 34.753C83.7311 34.7422 83.9256 34.7258 84.0055 34.7165C84.0853 34.7072 84.2092 34.6913 84.2807 34.6813C84.3524 34.6712 84.4735 34.6523 84.5501 34.6394C84.6266 34.6265 84.7544 34.6028 84.834 34.5867C84.9136 34.5706 85.0334 34.5447 85.1001 34.5292C85.1669 34.5136 85.2677 34.4892 85.3239 34.4749C85.3803 34.4606 85.5105 34.4243 85.6134 34.3943C85.7162 34.3643 85.8573 34.3206 85.9268 34.2973C85.9963 34.274 86.1031 34.2367 86.1641 34.2144C86.2251 34.1922 86.3365 34.1493 86.4116 34.1192C86.4868 34.089 86.5887 34.0466 86.6382 34.025C86.6877 34.0033 86.7785 33.9619 86.84 33.933C86.9015 33.904 86.9844 33.8639 87.0241 33.8439C87.064 33.824 87.1311 33.7893 87.1733 33.7671C87.2155 33.7448 87.2934 33.702 87.3464 33.6719C87.3994 33.6419 87.475 33.5979 87.5144 33.5741C87.5538 33.5504 87.6247 33.5066 87.672 33.4767C87.7193 33.4469 87.818 33.3812 87.8914 33.3307C87.9719 33.2754 88.0818 33.1947 88.1682 33.1273C88.2469 33.0658 88.3518 32.9806 88.4011 32.9378C88.4503 32.895 88.5253 32.8276 88.5677 32.788C88.6101 32.7484 88.6742 32.6864 88.7101 32.6502C88.746 32.614 88.7999 32.5579 88.83 32.5255C88.8601 32.4931 88.909 32.4388 88.9387 32.405C88.9684 32.371 89.0186 32.3114 89.0502 32.2725C89.0818 32.2336 89.1268 32.1764 89.1501 32.1455C89.1735 32.1145 89.2189 32.0521 89.2509 32.0067C89.2829 31.9614 89.3331 31.8859 89.3624 31.8391C89.3917 31.7922 89.4368 31.7168 89.4625 31.6714C89.4883 31.6261 89.5241 31.56 89.5422 31.5244C89.5604 31.4889 89.5959 31.4139 89.6212 31.3578C89.6465 31.3017 89.6822 31.2154 89.7005 31.1659C89.7188 31.1164 89.7451 31.0396 89.759 30.9952L89.7843 30.9145L91.2557 30.8136L92.727 30.7127L93.0319 31.1118L93.3368 31.5108L96.2194 31.3135C98.457 31.1603 99.1134 31.1136 99.1526 31.1045C99.1804 31.0982 99.2227 31.0851 99.2465 31.0755C99.2798 31.062 99.306 31.0464 99.3612 31.0073C99.4217 30.9644 99.4372 30.9511 99.4618 30.9202C99.4778 30.9002 99.4993 30.8653 99.5095 30.8426C99.5198 30.8199 99.5306 30.7838 99.5337 30.7623C99.5367 30.7408 99.5367 30.7083 99.5337 30.6902C99.5308 30.672 99.5213 30.6421 99.5126 30.6236C99.504 30.6053 99.4881 30.5795 99.4773 30.5665C99.4665 30.5535 99.2582 30.3303 99.0142 30.0705C98.7704 29.8108 98.5617 29.5913 98.5506 29.5829C98.5394 29.5744 98.5228 29.5556 98.5135 29.5409C98.5036 29.5252 98.4955 29.4954 98.4934 29.4678C98.4915 29.4422 98.4933 29.4043 98.4974 29.3836C98.5014 29.3629 98.5133 29.3222 98.5238 29.293L98.5428 29.2401L98.9286 28.6962C99.1407 28.397 99.3207 28.1382 99.3286 28.121C99.3365 28.1039 99.3454 28.0726 99.3484 28.0516C99.3514 28.0305 99.3522 28.0016 99.35 27.9873L99.3461 27.9612L99.0766 27.8116ZM85.963 28.5676C86.0555 28.6206 86.1616 28.6847 86.2025 28.7129C86.2429 28.7406 86.2997 28.781 86.3289 28.8028C86.3581 28.8245 86.416 28.8712 86.4577 28.9065C86.4994 28.9419 86.5663 29.0046 86.6066 29.0458C86.6467 29.087 86.6954 29.1399 86.7148 29.1632C86.7342 29.1865 86.7697 29.232 86.7939 29.2642C86.818 29.2964 86.8527 29.3458 86.871 29.374C86.8893 29.4022 86.9044 29.4268 86.9046 29.4286C86.9047 29.4305 86.0622 29.4898 85.0323 29.5605C84.0024 29.6312 83.1284 29.6934 83.09 29.6988C83.0516 29.7041 82.9882 29.7148 82.949 29.7225C82.91 29.7302 82.8374 29.7485 82.7878 29.763C82.7383 29.7776 82.6665 29.8023 82.6282 29.8179C82.59 29.8334 82.5373 29.8573 82.5111 29.8708C82.4849 29.8843 82.4413 29.9089 82.4141 29.9254C82.387 29.9419 82.3462 29.9694 82.3233 29.9865C82.3005 30.0036 82.2644 30.0338 82.2431 30.0536C82.2219 30.0734 82.1907 30.1049 82.1739 30.1236C82.1571 30.1423 82.1285 30.1795 82.1103 30.2062C82.0921 30.2329 82.0649 30.2824 82.05 30.3162C82.035 30.35 82.0179 30.399 82.0119 30.4251C82.0059 30.4513 81.9994 30.4921 81.9974 30.5159C81.9954 30.5397 81.9966 30.5896 82.0002 30.6267C82.0038 30.6637 82.0125 30.7133 82.0196 30.7367C82.0267 30.7602 82.0403 30.7969 82.0499 30.8185C82.0595 30.84 82.0803 30.8778 82.0961 30.9023C82.1119 30.9269 82.1399 30.9639 82.1582 30.9846C82.1765 31.0054 82.2088 31.0376 82.2299 31.0563C82.251 31.075 82.2893 31.1049 82.3149 31.123C82.3405 31.1409 82.3814 31.1667 82.4058 31.1802C82.4302 31.1937 82.474 31.2151 82.5031 31.2278C82.5322 31.2404 82.5788 31.2588 82.6066 31.2686C82.6343 31.2785 82.6898 31.2949 82.7298 31.3051C82.7698 31.3152 82.8371 31.329 82.8794 31.3357C82.9217 31.3424 82.9902 31.3506 83.0317 31.354C83.0732 31.3574 83.1406 31.3602 83.1814 31.3602C83.2223 31.3603 84.1006 31.3027 85.1333 31.2321C86.166 31.1616 87.0134 31.1052 87.0163 31.1069C87.0191 31.1085 87.0059 31.142 86.9868 31.1814C86.9677 31.2208 86.939 31.2758 86.9231 31.3038C86.9072 31.3318 86.8816 31.375 86.8662 31.3998C86.8509 31.4246 86.8103 31.4827 86.7761 31.5291C86.7418 31.5754 86.684 31.6466 86.6476 31.6873C86.6112 31.728 86.5521 31.7896 86.5165 31.8241C86.4807 31.8586 86.4259 31.91 86.3946 31.9382C86.3604 31.9691 86.2676 32.0421 86.1616 32.1213C86.0329 32.2176 85.9613 32.2679 85.8957 32.3085C85.8464 32.3389 85.7704 32.3843 85.7268 32.4092C85.6832 32.434 85.6129 32.4725 85.5707 32.4946C85.5284 32.5167 85.4432 32.5584 85.3814 32.5872C85.3197 32.616 85.2167 32.6609 85.1525 32.6868C85.0883 32.7128 84.987 32.7512 84.9273 32.7722C84.8675 32.7932 84.7545 32.8293 84.6761 32.8524C84.5978 32.8755 84.4888 32.9054 84.4339 32.9188C84.3792 32.9322 84.2853 32.9533 84.2255 32.9656C84.1657 32.978 84.0567 32.9978 83.9832 33.0097C83.9098 33.0215 83.7986 33.0372 83.7361 33.0446C83.6736 33.052 83.5463 33.0632 83.4532 33.0695C83.3601 33.0758 83.2347 33.0819 83.1745 33.0829C83.1144 33.084 83.0043 33.0834 82.93 33.0816C82.8557 33.0798 82.7449 33.0751 82.6839 33.071C82.6228 33.0669 82.527 33.0588 82.471 33.0529C82.4149 33.0471 82.3029 33.0323 82.2222 33.02C82.1414 33.0078 82.0246 32.9874 81.9625 32.9747C81.9005 32.962 81.7949 32.9377 81.7277 32.9207C81.6607 32.9038 81.5525 32.8734 81.4874 32.8532C81.4223 32.8331 81.3323 32.8033 81.2874 32.7872C81.2425 32.771 81.1676 32.7425 81.121 32.7238C81.0744 32.705 80.9945 32.6709 80.9434 32.6479C80.8922 32.6249 80.7903 32.5744 80.7166 32.5357C80.6378 32.4942 80.5424 32.4398 80.4844 32.4032C80.4302 32.3692 80.3484 32.3145 80.3024 32.2818C80.2566 32.2492 80.1813 32.1916 80.1352 32.154C80.0892 32.1163 80.029 32.0643 80.0015 32.0383C79.974 32.0123 79.933 31.972 79.9103 31.9488C79.8876 31.9255 79.8489 31.884 79.8243 31.8564C79.7998 31.8288 79.7544 31.7735 79.7235 31.7334C79.6926 31.6934 79.6396 31.6155 79.6057 31.5604C79.5719 31.5053 79.5276 31.4241 79.5072 31.38C79.4868 31.3359 79.4627 31.2802 79.4536 31.2564C79.4446 31.2325 79.4259 31.1744 79.412 31.1273C79.3982 31.0802 79.3806 31.0087 79.3731 30.9684C79.3655 30.928 79.356 30.8472 79.352 30.7887C79.348 30.7301 79.3463 30.6487 79.3483 30.6077C79.3503 30.5667 79.3578 30.4934 79.365 30.4448C79.3722 30.3962 79.3863 30.3236 79.3963 30.2836C79.4063 30.2435 79.4246 30.1805 79.4371 30.1436C79.4494 30.1067 79.479 30.0327 79.5028 29.9793C79.5266 29.9259 79.565 29.8484 79.5884 29.8071C79.6116 29.7659 79.6554 29.6955 79.6856 29.6507C79.7158 29.6059 79.7691 29.5335 79.8041 29.4898C79.8391 29.446 79.8903 29.3855 79.918 29.3553C79.9456 29.325 79.993 29.2753 80.0233 29.2448C80.0537 29.2143 80.1128 29.1581 80.1547 29.1201C80.2115 29.0683 80.2747 29.0178 80.4042 28.9207C80.5338 28.8235 80.6018 28.7757 80.6726 28.7317C80.7248 28.6993 80.802 28.6532 80.8442 28.6293C80.8865 28.6054 80.9556 28.5678 80.9979 28.5456C81.0401 28.5235 81.1252 28.4818 81.1869 28.4529C81.2486 28.4241 81.3517 28.3792 81.4161 28.3532C81.4804 28.3273 81.5818 28.2889 81.6414 28.2679C81.701 28.247 81.8139 28.2109 81.8923 28.1878C81.9706 28.1647 82.0795 28.1348 82.1343 28.1214C82.189 28.108 82.2828 28.0869 82.3427 28.0745C82.4026 28.0622 82.5118 28.0424 82.5851 28.0305C82.6585 28.0186 82.7675 28.0031 82.8273 27.996C82.8871 27.9889 83.0144 27.9777 83.1103 27.9711C83.2061 27.9646 83.342 27.9584 83.4122 27.9575C83.4825 27.9566 83.5885 27.957 83.6478 27.9585C83.7071 27.9601 83.7943 27.9636 83.8417 27.9665C83.889 27.9693 83.9762 27.976 84.0356 27.9814C84.0949 27.9867 84.2137 28.0011 84.2996 28.0134C84.3855 28.0256 84.5135 28.0472 84.584 28.0614C84.6546 28.0756 84.7593 28.099 84.8169 28.1133C84.8744 28.1276 84.9655 28.1524 85.0193 28.1682C85.073 28.1841 85.1498 28.2081 85.1899 28.2214C85.23 28.2349 85.3115 28.2643 85.3708 28.2868C85.4303 28.3093 85.5172 28.3445 85.5642 28.3651C85.6111 28.3855 85.6826 28.4182 85.7232 28.4375C85.7636 28.4568 85.8716 28.5154 85.963 28.5676Z" fill="#7DB834"/>
<path opacity="0.5" d="M85.1621 211.727C85.0975 214.21 91.6296 216.402 99.7477 216.61C107.866 216.819 114.512 214.979 114.574 212.486C114.638 210.003 108.106 207.811 99.9879 207.603C91.8698 207.394 85.2266 209.245 85.1621 211.727Z" fill="#32589D"/>
<path d="M101.036 197.665L100.215 195.396L99.2449 194.221L99.2654 195.445L101.036 197.665Z" fill="#C6C6C6"/>
<path d="M76.9964 205.858L76.1785 203.635C76.1785 203.635 78.6993 204.929 78.7129 204.971C78.7369 205.01 76.9964 205.858 76.9964 205.858Z" fill="#FFD85A"/>
<path d="M91.4065 208.626C98.0336 206.328 102.241 201.24 100.216 195.398C98.19 189.555 91.1756 186.693 84.5485 188.991C77.9215 191.289 74.1967 197.883 76.2225 203.725C78.2482 209.568 84.7795 210.924 91.4065 208.626Z" fill="#FFD85A"/>
<path d="M92.7237 212.407C99.3507 210.109 103.075 203.516 101.05 197.673C99.024 191.831 92.0096 188.969 85.3826 191.266C78.7556 193.564 75.0309 200.158 77.0566 206.001C79.079 211.833 86.0967 214.705 92.7237 212.407Z" fill="#FFD85A"/>
<path d="M95.0173 191.453C97.8129 192.625 100.04 194.779 101.039 197.676C103.065 203.519 99.3401 210.112 92.7131 212.41C89.4348 213.542 86.0663 213.414 83.242 212.298L95.0173 191.453Z" fill="#C6C6C6"/>
<path d="M77.5987 205.797C75.6604 200.218 79.2197 193.915 85.5486 191.719C91.8775 189.523 98.5794 192.265 100.518 197.844C102.456 203.423 98.8967 209.726 92.5678 211.922C86.2389 214.119 79.537 211.376 77.5987 205.797Z" fill="#F9BF30"/>
<path d="M91.8631 209.942C96.9389 208.176 99.8082 203.123 98.2428 198.642C96.6879 194.159 91.3052 191.958 86.2188 193.728C81.1324 195.497 78.2736 200.547 79.8391 205.028C81.4011 209.498 86.7839 211.698 91.8631 209.942Z" fill="#F2B42A"/>
<path d="M79.837 205.027C79.7762 204.838 79.7187 204.659 79.6684 204.466C81.452 208.575 86.6033 210.524 91.4717 208.836C96.3402 207.148 99.1637 202.422 98.0203 198.097C98.0988 198.269 98.1701 198.455 98.2415 198.641C99.7964 203.125 96.9376 208.176 91.8615 209.942C86.7821 211.698 81.3991 209.497 79.837 205.027Z" fill="#FFD85A"/>
<path d="M87.4887 203.087L88.8234 200.72C90.7908 200.542 94.4483 200.229 97.3867 199.996C97.3636 202.245 96.2479 204.461 94.3724 206.049L87.4887 203.087Z" fill="#FFD85A"/>
<path d="M92.1752 207.438C91.8794 207.568 91.5836 207.697 91.2777 207.795C89.0581 208.565 86.7783 208.494 84.85 207.741L87.0292 203.873L92.1752 207.438Z" fill="#FFD85A"/>
<path d="M90.2549 198.183L92.7775 193.716C94.318 194.384 95.7657 195.198 96.5577 196.651L90.2549 198.183Z" fill="#FFD85A"/>
<path d="M87.0287 194.548C81.9527 196.314 79.0834 201.368 80.6488 205.849C80.9639 206.758 81.4342 207.571 82.0319 208.274C81.0543 207.403 80.2965 206.31 79.8493 205.025C78.2944 200.541 81.1532 195.49 86.2292 193.724C90.2814 192.321 94.5246 193.435 96.8598 196.217C94.4298 194.046 90.6484 193.284 87.0287 194.548Z" fill="#C6C6C6"/>
<path d="M100.216 195.397C100.517 196.264 100.804 196.869 100.857 197.758C100.316 196.979 98.9082 194.585 98.9082 194.585L97.3318 192.826L96.3591 192.441L94.7576 191.909L93.7029 188.984C96.7265 190.105 99.1554 192.346 100.216 195.397Z" fill="#C6C6C6"/>
<path d="M76.7173 202.592L76.4687 201.998C76.4417 201.914 76.3443 201.864 76.2705 201.887L76.2284 201.901C76.1441 201.928 76.1045 202.022 76.1315 202.106L76.3801 202.7C76.4072 202.784 76.5046 202.834 76.5783 202.811L76.6205 202.797C76.7048 202.77 76.7477 202.687 76.7173 202.592Z" fill="#C6C6C6"/>
<path d="M77.0288 199.937L76.6143 198.862C76.5839 198.768 76.4726 198.71 76.3883 198.737L76.2829 198.771C76.1881 198.802 76.1414 198.909 76.1718 199.004L76.5863 200.079C76.6167 200.174 76.728 200.231 76.8123 200.204L76.9177 200.17C77.023 200.137 77.0698 200.029 77.0288 199.937Z" fill="#C6C6C6"/>
<path d="M77.8551 197.432L77.4541 196.399C77.4169 196.283 77.2951 196.229 77.1897 196.263L77.0001 196.324C76.8947 196.358 76.8408 196.479 76.878 196.595L77.279 197.628C77.3162 197.744 77.438 197.798 77.5434 197.764L77.733 197.703C77.8384 197.669 77.8923 197.548 77.8551 197.432Z" fill="#C6C6C6"/>
<path d="M79.5369 195.093L79.0615 193.829C79.0244 193.713 78.9025 193.659 78.7971 193.693L78.6075 193.753C78.5021 193.787 78.4483 193.909 78.4854 194.025L78.9608 195.289C78.9979 195.405 79.1198 195.459 79.2251 195.425L79.4148 195.364C79.5168 195.32 79.5706 195.198 79.5369 195.093Z" fill="#C6C6C6"/>
<path d="M81.4082 193.309L80.8615 191.858C80.8244 191.742 80.7025 191.689 80.5972 191.722L80.4075 191.783C80.3021 191.817 80.2483 191.939 80.2854 192.054L80.8321 193.505C80.8693 193.621 80.9911 193.675 81.0965 193.641L81.2861 193.58C81.3986 193.532 81.442 193.414 81.4082 193.309Z" fill="#C6C6C6"/>
<path d="M83.4236 191.942L82.8938 190.544C82.8567 190.429 82.7348 190.375 82.6295 190.409L82.4398 190.469C82.3345 190.503 82.2806 190.625 82.3177 190.741L82.8475 192.139C82.8847 192.254 83.0065 192.308 83.1119 192.275L83.3015 192.214C83.414 192.166 83.4679 192.044 83.4236 191.942Z" fill="#C6C6C6"/>
<path d="M85.5973 190.99L85.0607 189.571C85.0236 189.456 84.9017 189.402 84.7964 189.436L84.6067 189.496C84.5014 189.53 84.4474 189.652 84.4846 189.768L85.0212 191.187C85.0583 191.302 85.1802 191.356 85.2855 191.323L85.4752 191.262C85.5805 191.228 85.6344 191.106 85.5973 190.99Z" fill="#C6C6C6"/>
<path d="M87.8512 190.326L87.345 189.002C87.3078 188.886 87.186 188.832 87.0806 188.866L86.891 188.927C86.7856 188.961 86.7317 189.082 86.7689 189.198L87.275 190.522C87.3122 190.638 87.434 190.692 87.5394 190.658L87.729 190.597C87.8416 190.55 87.8955 190.428 87.8512 190.326Z" fill="#C6C6C6"/>
<path d="M90.2643 190.087L89.7822 188.801C89.7451 188.686 89.6232 188.632 89.5178 188.665L89.3282 188.726C89.2228 188.76 89.169 188.882 89.2061 188.998L89.6882 190.283C89.7254 190.399 89.8472 190.453 89.9526 190.419L90.1422 190.358C90.2581 190.321 90.3015 190.203 90.2643 190.087Z" fill="#C6C6C6"/>
<path d="M92.887 190.465L92.3607 189.078C92.3235 188.962 92.2016 188.908 92.0963 188.942L91.9066 189.003C91.8013 189.037 91.7474 189.158 91.7845 189.274L92.3109 190.661C92.3481 190.777 92.47 190.831 92.5753 190.797L92.765 190.737C92.8775 190.689 92.9314 190.567 92.887 190.465Z" fill="#C6C6C6"/>
<path opacity="0.5" d="M160.867 41.2054C160.803 43.688 167.335 45.8797 175.453 46.0883C183.571 46.2968 190.217 44.4569 190.279 41.9638C190.343 39.4811 183.811 37.2894 175.693 37.0809C167.575 36.8723 160.932 38.7227 160.867 41.2054Z" fill="#32589D"/>
<path d="M176.741 27.1428L175.92 24.8744L174.95 23.699L174.97 24.9233L176.741 27.1428Z" fill="#C6C6C6"/>
<path d="M152.701 35.336L151.884 33.1129C151.884 33.1129 154.404 34.407 154.418 34.4491C154.442 34.4879 152.701 35.336 152.701 35.336Z" fill="#FFD85A"/>
<path d="M167.112 38.1042C173.739 35.8063 177.947 30.7184 175.921 24.8757C173.895 19.0331 166.881 16.1711 160.254 18.469C153.627 20.7669 149.902 27.3607 151.928 33.2033C153.953 39.046 160.485 40.4021 167.112 38.1042Z" fill="#FFD85A"/>
<path d="M168.429 41.8854C175.056 39.5875 178.781 32.9937 176.755 27.1511C174.729 21.3085 167.715 18.4466 161.088 20.7445C154.461 23.0423 150.736 29.6361 152.762 35.4787C154.784 41.3108 161.802 44.1833 168.429 41.8854Z" fill="#FFD85A"/>
<path d="M170.722 20.9314C173.518 22.1027 175.745 24.2575 176.744 27.1541C178.77 32.9967 175.045 39.5905 168.418 41.8884C165.14 43.0202 161.771 42.8919 158.947 41.7763L170.722 20.9314Z" fill="#C6C6C6"/>
<path d="M153.304 35.2752C151.365 29.6961 154.925 23.393 161.254 21.1968C167.583 19.0006 174.285 21.743 176.223 27.3221C178.161 32.9012 174.602 39.2043 168.273 41.4005C161.944 43.5967 155.242 40.8543 153.304 35.2752Z" fill="#F9BF30"/>
<path d="M167.568 39.4205C172.644 37.6545 175.513 32.6007 173.948 28.1203C172.393 23.6365 167.01 21.4362 161.924 23.2056C156.837 24.9749 153.979 30.0253 155.544 34.5057C157.106 38.9756 162.489 41.1759 167.568 39.4205Z" fill="#F2B42A"/>
<path d="M155.542 34.5052C155.481 34.3157 155.424 34.1367 155.374 33.9437C157.157 38.0525 162.308 40.002 167.177 38.3141C172.045 36.6261 174.869 31.9003 173.725 27.5748C173.804 27.7471 173.875 27.9332 173.947 28.1194C175.502 32.6034 172.643 37.6541 167.567 39.4202C162.487 41.1758 157.104 38.9754 155.542 34.5052Z" fill="#FFD85A"/>
<path d="M163.194 32.5648L164.528 30.1977C166.496 30.0201 170.153 29.7074 173.092 29.4742C173.069 31.723 171.953 33.9387 170.078 35.5269L163.194 32.5648Z" fill="#FFD85A"/>
<path d="M167.88 36.9159C167.584 37.0455 167.289 37.1752 166.983 37.2732C164.763 38.0426 162.483 37.9718 160.555 37.2194L162.734 33.3506L167.88 36.9159Z" fill="#FFD85A"/>
<path d="M165.96 27.661L168.483 23.1943C170.023 23.862 171.471 24.6756 172.263 26.1289L165.96 27.661Z" fill="#FFD85A"/>
<path d="M162.734 24.0262C157.658 25.7922 154.788 30.8462 156.354 35.3267C156.669 36.2361 157.139 37.0493 157.737 37.752C156.759 36.8807 156.002 35.7879 155.554 34.5028C153.999 30.0189 156.858 24.9684 161.934 23.2024C165.986 21.7992 170.23 22.9131 172.565 25.6953C170.135 23.5242 166.353 22.7617 162.734 24.0262Z" fill="#C6C6C6"/>
<path d="M175.921 24.8747C176.222 25.7419 176.509 26.3467 176.562 27.2356C176.021 26.4567 174.613 24.0628 174.613 24.0628L173.037 22.3036L172.064 21.9186L170.463 21.3867L169.408 18.4617C172.432 19.5829 174.86 21.8237 175.921 24.8747Z" fill="#C6C6C6"/>
<path d="M152.422 32.0699L152.174 31.476C152.147 31.3918 152.049 31.3417 151.976 31.3653L151.933 31.3788C151.849 31.4059 151.81 31.4998 151.837 31.5841L152.085 32.1779C152.112 32.2622 152.21 32.3122 152.283 32.2886L152.326 32.2751C152.41 32.2481 152.453 32.1646 152.422 32.0699Z" fill="#C6C6C6"/>
<path d="M152.734 29.4153L152.319 28.3405C152.289 28.2457 152.178 28.1885 152.093 28.2155L151.988 28.2492C151.893 28.2796 151.846 28.3875 151.877 28.4823L152.291 29.5571C152.322 29.6518 152.433 29.7091 152.517 29.6821L152.623 29.6483C152.728 29.6145 152.775 29.5067 152.734 29.4153Z" fill="#C6C6C6"/>
<path d="M153.56 26.9097L153.159 25.877C153.122 25.7612 153 25.7073 152.895 25.7411L152.705 25.8019C152.6 25.8356 152.546 25.9574 152.583 26.0733L152.984 27.106C153.021 27.2218 153.143 27.2756 153.248 27.2419L153.438 27.1811C153.543 27.1473 153.597 27.0255 153.56 26.9097Z" fill="#C6C6C6"/>
<path d="M155.242 24.5709L154.767 23.3066C154.729 23.1907 154.608 23.1369 154.502 23.1707L154.313 23.2314C154.207 23.2652 154.153 23.387 154.19 23.5028L154.666 24.7672C154.703 24.883 154.825 24.9368 154.93 24.9031L155.12 24.8423C155.222 24.798 155.276 24.6762 155.242 24.5709Z" fill="#C6C6C6"/>
<path d="M157.113 22.7868L156.567 21.3363C156.529 21.2204 156.408 21.1666 156.302 21.2003L156.113 21.2611C156.007 21.2949 155.953 21.4167 155.99 21.5325L156.537 22.983C156.574 23.0988 156.696 23.1527 156.802 23.1189L156.991 23.0581C157.104 23.0104 157.147 22.892 157.113 22.7868Z" fill="#C6C6C6"/>
<path d="M159.129 21.4204L158.599 20.0225C158.562 19.9067 158.44 19.8528 158.335 19.8866L158.145 19.9474C158.04 19.9811 157.986 20.1029 158.023 20.2187L158.553 21.6166C158.59 21.7324 158.712 21.7863 158.817 21.7525L159.007 21.6918C159.119 21.6441 159.173 21.5223 159.129 21.4204Z" fill="#C6C6C6"/>
<path d="M161.302 20.4684L160.766 19.0495C160.729 18.9337 160.607 18.8798 160.501 18.9136L160.312 18.9744C160.206 19.0081 160.153 19.1299 160.19 19.2458L160.726 20.6647C160.763 20.7805 160.885 20.8343 160.991 20.8006L161.18 20.7398C161.286 20.706 161.34 20.5842 161.302 20.4684Z" fill="#C6C6C6"/>
<path d="M163.556 19.8041L163.05 18.48C163.013 18.3641 162.891 18.3103 162.786 18.3441L162.596 18.4048C162.491 18.4386 162.437 18.5604 162.474 18.6762L162.98 20.0004C163.017 20.1162 163.139 20.17 163.244 20.1363L163.434 20.0755C163.547 20.0278 163.601 19.906 163.556 19.8041Z" fill="#C6C6C6"/>
<path d="M165.969 19.5648L165.487 18.2794C165.45 18.1635 165.328 18.1097 165.223 18.1435L165.033 18.2042C164.928 18.238 164.874 18.3598 164.911 18.4756L165.393 19.761C165.43 19.8768 165.552 19.9307 165.658 19.8969L165.847 19.8362C165.963 19.799 166.007 19.6806 165.969 19.5648Z" fill="#C6C6C6"/>
<path d="M168.592 19.9432L168.066 18.5559C168.029 18.4401 167.907 18.3862 167.801 18.42L167.612 18.4808C167.506 18.5146 167.452 18.6363 167.49 18.7522L168.016 20.1395C168.053 20.2553 168.175 20.3092 168.28 20.2754L168.47 20.2146C168.583 20.167 168.636 20.0452 168.592 19.9432Z" fill="#C6C6C6"/>
<path opacity="0.5" d="M182.47 264.294L140.067 239.857C139.144 239.331 139.266 238.4 140.32 237.792L152.782 230.618L198.52 256.968L186.059 264.142C184.994 264.76 183.392 264.831 182.47 264.294Z" fill="#32589D" fill-opacity="0.6"/>
<path d="M242.749 231.043V222.614L228.99 222.624L198.46 205.027C197.71 204.592 196.402 204.652 195.54 205.148L165.142 222.664L151.443 222.674V231.124H151.454C151.464 231.387 151.626 231.64 151.95 231.822L195.753 257.059C196.503 257.494 197.811 257.433 198.673 256.938L242.049 231.943C242.485 231.69 242.729 231.357 242.749 231.043Z" fill="url(#paint5_linear_307_6090)"/>
<path d="M195.743 248.63L151.941 223.393C151.191 222.958 151.282 222.209 152.154 221.713L195.53 196.719C196.392 196.223 197.7 196.163 198.45 196.598L242.253 221.835C243.003 222.27 242.912 223.018 242.04 223.514L198.663 248.508C197.801 249.004 196.493 249.065 195.743 248.63Z" fill="url(#paint6_linear_307_6090)"/>
<path d="M195.895 245.675L157.071 223.302C156.412 222.917 156.493 222.249 157.253 221.804L195.702 199.654C196.472 199.208 197.628 199.168 198.298 199.542L237.121 221.916C237.78 222.3 237.699 222.968 236.939 223.413L198.49 245.564C197.72 246.009 196.554 246.06 195.895 245.675Z" fill="#32589D"/>
<path d="M195.477 244.249L159.807 223.698C159.198 223.343 159.269 222.736 159.979 222.321L195.305 201.972C196.005 201.567 197.079 201.527 197.688 201.871L233.358 222.423C233.967 222.777 233.896 223.384 233.186 223.799L197.86 244.148C197.15 244.553 196.086 244.593 195.477 244.249Z" fill="#102140"/>
<g opacity="0.1">
<path d="M197.488 120.88V247.428L157.248 223.29V125.693L197.488 120.88Z" fill="url(#paint7_linear_307_6090)"/>
<path d="M197.488 120.88V247.428L238.567 223.29V125.693L197.488 120.88Z" fill="url(#paint8_linear_307_6090)"/>
</g>
<path opacity="0.5" d="M179.699 225.119C179.852 228.049 187.717 230.02 197.272 229.533C206.825 229.037 214.445 226.272 214.292 223.341C214.14 220.411 206.275 218.44 196.719 218.927C187.171 219.412 179.547 222.188 179.699 225.119Z" fill="#32589D"/>
<path d="M212.641 211.329L212.515 208.304L211.811 206.527L211.366 207.994L212.641 211.329Z" fill="#DD821F"/>
<path d="M180.8 211.916L180.682 208.941C180.682 208.941 183.197 211.455 183.197 211.514C183.197 211.572 180.8 211.916 180.8 211.916Z" fill="#FFD85A"/>
<path d="M196.939 220.741C205.733 220.531 212.708 216.064 212.524 208.304C212.339 200.543 205.062 194.425 196.268 194.635C187.474 194.845 180.499 201.306 180.683 209.066C180.868 216.818 188.145 220.95 196.939 220.741Z" fill="#FFD85A"/>
<path d="M180.821 212.094C180.636 204.334 187.611 197.874 196.401 197.664C205.191 197.453 212.467 203.574 212.652 211.333C212.838 219.093 205.863 225.554 197.073 225.764C188.283 225.974 181.007 219.854 180.821 212.094Z" fill="#FFD85A"/>
<path d="M207.829 201.591C210.713 204.055 212.549 207.491 212.641 211.329C212.825 219.09 205.85 225.551 197.056 225.761C192.705 225.861 188.731 224.42 185.797 221.989L207.829 201.591Z" fill="#DD821F"/>
<path d="M181.528 212.076C181.35 204.663 188.017 198.492 196.418 198.291C204.819 198.09 211.773 203.936 211.95 211.349C212.128 218.762 205.461 224.934 197.06 225.134C188.659 225.335 181.705 219.489 181.528 212.076Z" fill="#F9BF30"/>
<path d="M184.533 212.001C184.391 206.051 189.742 201.097 196.486 200.935C203.23 200.774 208.813 205.467 208.955 211.418C209.098 217.368 203.746 222.323 197.002 222.484C190.258 222.645 184.675 217.952 184.533 212.001Z" fill="#F2B42A"/>
<path d="M184.516 212.008C184.507 211.765 184.516 211.514 184.532 211.27C185.094 216.869 190.485 221.176 196.948 221.017C203.412 220.866 208.593 216.299 208.886 210.684C208.912 210.927 208.928 211.17 208.937 211.413C209.079 217.363 203.731 222.316 196.99 222.475C190.241 222.651 184.658 217.958 184.516 212.008Z" fill="#FFD85A"/>
<path d="M194.382 212.62L196.889 210.298C199.303 210.843 203.797 211.865 207.385 212.712C206.496 215.394 204.316 217.615 201.474 218.788L194.382 212.62Z" fill="#FFD85A"/>
<path d="M198.322 219.618C197.928 219.668 197.517 219.701 197.107 219.71C194.156 219.777 191.465 218.813 189.453 217.187L193.544 213.399L198.322 219.618Z" fill="#FFD85A"/>
<path d="M199.571 207.818L204.291 203.451C205.875 204.834 207.292 206.368 207.678 208.404L199.571 207.818Z" fill="#FFD85A"/>
<path d="M197.098 202.228C190.357 202.387 185.009 207.34 185.151 213.29C185.176 214.497 185.436 215.645 185.872 216.718C185.042 215.302 184.547 213.701 184.506 212C184.363 206.049 189.712 201.096 196.452 200.937C201.826 200.811 206.462 203.77 208.197 207.985C206.127 204.474 201.91 202.11 197.098 202.228Z" fill="#DD821F"/>
<path d="M212.515 208.304C212.541 209.46 212.65 210.29 212.381 211.371C212.029 210.231 211.266 206.829 211.266 206.829L210.051 204.122L209.045 203.292L207.334 202.043L207.192 198.138C210.378 200.635 212.423 204.239 212.515 208.304Z" fill="#DD821F"/>
<path d="M181.715 207.901L181.648 207.105C181.648 206.988 181.556 206.896 181.447 206.904H181.388C181.279 206.904 181.195 207.005 181.195 207.114L181.262 207.91C181.262 208.027 181.354 208.119 181.463 208.111H181.522C181.631 208.111 181.715 208.019 181.715 207.901Z" fill="#DD821F"/>
<path d="M183.107 204.843L183.023 203.401C183.023 203.267 182.914 203.166 182.797 203.166H182.654C182.528 203.166 182.436 203.275 182.436 203.409L182.52 204.843C182.52 204.977 182.629 205.077 182.746 205.077H182.889C183.015 205.077 183.115 204.968 183.107 204.843Z" fill="#DD821F"/>
<path d="M185.051 202.169L184.967 200.778C184.967 200.627 184.85 200.51 184.707 200.518L184.464 200.526C184.321 200.526 184.212 200.652 184.221 200.803L184.305 202.194C184.305 202.345 184.422 202.462 184.565 202.454L184.808 202.446C184.942 202.437 185.051 202.312 185.051 202.169Z" fill="#DD821F"/>
<path d="M187.951 200.007L187.859 198.314C187.859 198.163 187.742 198.046 187.599 198.054L187.356 198.063C187.213 198.063 187.104 198.188 187.113 198.339L187.205 200.024C187.205 200.175 187.322 200.292 187.465 200.284L187.708 200.275C187.842 200.283 187.951 200.158 187.951 200.007Z" fill="#DD821F"/>
<path d="M190.869 198.591L190.776 196.646C190.776 196.495 190.659 196.378 190.517 196.386L190.273 196.395C190.131 196.395 190.022 196.52 190.03 196.671L190.123 198.616C190.123 198.767 190.24 198.884 190.382 198.875L190.626 198.867C190.768 198.859 190.877 198.741 190.869 198.591Z" fill="#DD821F"/>
<path d="M193.804 197.727L193.712 195.858C193.712 195.708 193.595 195.59 193.452 195.599L193.209 195.607C193.066 195.607 192.958 195.733 192.966 195.884L193.058 197.753C193.058 197.903 193.175 198.021 193.318 198.012L193.561 198.004C193.695 197.996 193.813 197.878 193.804 197.727Z" fill="#DD821F"/>
<path d="M196.754 197.434L196.662 195.532C196.662 195.381 196.544 195.263 196.402 195.272L196.159 195.28C196.016 195.28 195.907 195.406 195.916 195.557L196.008 197.459C196.008 197.61 196.125 197.727 196.268 197.719L196.511 197.711C196.645 197.702 196.754 197.585 196.754 197.434Z" fill="#DD821F"/>
<path d="M199.705 197.493L199.612 195.716C199.612 195.565 199.495 195.448 199.353 195.456L199.109 195.465C198.967 195.465 198.858 195.59 198.866 195.741L198.958 197.518C198.958 197.669 199.076 197.786 199.218 197.778L199.462 197.769C199.604 197.769 199.713 197.644 199.705 197.493Z" fill="#DD821F"/>
<path d="M202.673 198.146L202.581 196.42C202.581 196.269 202.464 196.152 202.321 196.16L202.078 196.169C201.936 196.169 201.827 196.294 201.835 196.445L201.927 198.172C201.927 198.322 202.045 198.44 202.187 198.431L202.43 198.423C202.573 198.415 202.682 198.289 202.673 198.146Z" fill="#DD821F"/>
<path d="M205.666 199.596L205.574 197.736C205.574 197.585 205.456 197.468 205.314 197.476L205.071 197.484C204.928 197.484 204.819 197.61 204.828 197.761L204.92 199.63C204.92 199.781 205.037 199.898 205.18 199.89L205.423 199.881C205.557 199.864 205.666 199.739 205.666 199.596Z" fill="#DD821F"/>
<defs>
<linearGradient id="paint0_linear_307_6090" x1="55.2185" y1="32.9706" x2="132.849" y2="95.3471" gradientUnits="userSpaceOnUse">
<stop stop-color="#BCD5FF"/>
<stop offset="0.151" stop-color="#A3BEFF"/>
<stop offset="0.3866" stop-color="#82A0FF"/>
<stop offset="0.6124" stop-color="#6A8AFF"/>
<stop offset="0.8221" stop-color="#5C7DFF"/>
<stop offset="1" stop-color="#5778FF"/>
</linearGradient>
<linearGradient id="paint1_linear_307_6090" x1="40.5241" y1="51.9533" x2="148.637" y2="18.1183" gradientUnits="userSpaceOnUse">
<stop stop-color="#C0D6FF"/>
<stop offset="0.2978" stop-color="#C5DBFF"/>
<stop offset="0.6488" stop-color="#D3E9FF"/>
<stop offset="1" stop-color="#E9FFFF"/>
</linearGradient>
<linearGradient id="paint2_linear_307_6090" x1="40.5241" y1="51.9533" x2="148.637" y2="18.1183" gradientUnits="userSpaceOnUse">
<stop stop-color="#C0D6FF"/>
<stop offset="0.2978" stop-color="#C5DBFF"/>
<stop offset="0.6488" stop-color="#D3E9FF"/>
<stop offset="1" stop-color="#E9FFFF"/>
</linearGradient>
<linearGradient id="paint3_linear_307_6090" x1="55.2185" y1="12.5553" x2="132.849" y2="74.9317" gradientUnits="userSpaceOnUse">
<stop stop-color="#BCD5FF"/>
<stop offset="0.151" stop-color="#A3BEFF"/>
<stop offset="0.3866" stop-color="#82A0FF"/>
<stop offset="0.6124" stop-color="#6A8AFF"/>
<stop offset="0.8221" stop-color="#5C7DFF"/>
<stop offset="1" stop-color="#5778FF"/>
</linearGradient>
<linearGradient id="paint4_linear_307_6090" x1="40.524" y1="31.5379" x2="148.637" y2="-2.29695" gradientUnits="userSpaceOnUse">
<stop stop-color="#C0D6FF"/>
<stop offset="0.2978" stop-color="#C5DBFF"/>
<stop offset="0.6488" stop-color="#D3E9FF"/>
<stop offset="1" stop-color="#E9FFFF"/>
</linearGradient>
<linearGradient id="paint5_linear_307_6090" x1="223.242" y1="206.116" x2="152.198" y2="263.2" gradientUnits="userSpaceOnUse">
<stop stop-color="#BCD5FF"/>
<stop offset="0.151" stop-color="#A3BEFF"/>
<stop offset="0.3866" stop-color="#82A0FF"/>
<stop offset="0.6124" stop-color="#6A8AFF"/>
<stop offset="0.8221" stop-color="#5C7DFF"/>
<stop offset="1" stop-color="#5778FF"/>
</linearGradient>
<linearGradient id="paint6_linear_307_6090" x1="236.69" y1="223.488" x2="137.75" y2="192.524" gradientUnits="userSpaceOnUse">
<stop stop-color="#C0D6FF"/>
<stop offset="0.2978" stop-color="#C5DBFF"/>
<stop offset="0.6488" stop-color="#D3E9FF"/>
<stop offset="1" stop-color="#E9FFFF"/>
</linearGradient>
<linearGradient id="paint7_linear_307_6090" x1="177.368" y1="78.4887" x2="177.368" y2="247.428" gradientUnits="userSpaceOnUse">
<stop offset="0.288505" stop-color="white" stop-opacity="0"/>
<stop offset="1" stop-color="white"/>
</linearGradient>
<linearGradient id="paint8_linear_307_6090" x1="218.028" y1="78.4887" x2="218.028" y2="247.428" gradientUnits="userSpaceOnUse">
<stop offset="0.288505" stop-color="white" stop-opacity="0"/>
<stop offset="1" stop-color="white"/>
</linearGradient>
</defs>
</svg>
