<svg width="87" height="87" viewBox="0 0 87 87" fill="none" xmlns="http://www.w3.org/2000/svg">
<circle cx="43.5" cy="43.5" r="43.5" fill="url(#paint0_linear_307_6060)"/>
<path fill-rule="evenodd" clip-rule="evenodd" d="M46.4672 16.2297C46.4672 14.751 47.6696 13.5468 49.1486 13.5468C50.628 13.5468 51.8313 14.7502 51.8313 16.2297C51.8313 17.7093 50.628 18.9122 49.1486 18.9122C47.6696 18.9122 46.4672 17.7086 46.4672 16.2297ZM51.1487 21.5446C51.8123 21.1637 52.6637 21.3935 53.0449 22.0571C53.1282 22.2022 53.1853 22.3601 53.2126 22.5251C54.2801 28.9664 55.4944 35.3555 56.9717 41.7164C57.0556 42.0776 56.9932 42.4509 56.7974 42.7657C56.6025 43.0789 56.2936 43.2992 55.9345 43.3831C55.1911 43.5569 54.4395 43.0906 54.2668 42.3466L52.5974 35.1538C52.5591 34.9885 52.4425 34.8532 52.285 34.7904C52.2247 34.7664 52.1602 34.7535 52.0954 34.7535C51.9943 34.7535 51.8943 34.7839 51.8101 34.8399L48.6684 36.9309C48.546 37.0123 48.4644 37.1419 48.4435 37.2874L47.7978 41.7991C47.7452 42.1664 47.5517 42.4927 47.2548 42.715C46.9574 42.9378 46.5898 43.0307 46.2222 42.9776C45.8558 42.9247 45.528 42.7309 45.3067 42.434C45.0848 42.1365 44.9919 41.7687 45.0445 41.4015L45.7957 36.1578C45.8648 35.6751 46.1003 35.2996 46.5065 35.0294L51.6137 31.6313C51.7824 31.519 51.8712 31.318 51.838 31.1178L51.596 29.6622L50.9177 25.6802C50.8895 25.5143 50.7826 25.3712 50.6301 25.2993C50.4785 25.2277 50.2992 25.2355 50.1539 25.3187C48.8913 26.0433 47.6205 26.7511 46.3469 27.456C45.7859 27.7665 45.2251 28.0777 44.665 28.3899C44.3437 28.5691 43.9632 28.6133 43.6094 28.5129C43.2532 28.412 42.9561 28.1781 42.7752 27.8551C42.5949 27.5331 42.5504 27.1532 42.6506 26.7981C42.751 26.4419 42.9857 26.1445 43.3089 25.9643C45.9293 24.5026 48.5465 23.0382 51.1487 21.5446ZM30.0451 34.426L26.1035 37.0997C25.4686 37.5304 24.6002 37.3641 24.1694 36.7293C23.9622 36.4239 23.8871 36.0482 23.957 35.686C24.0271 35.3221 24.2327 35.0029 24.5397 34.7946L29.7411 31.2658L29.8245 32.131C29.8884 32.7944 29.9514 33.4579 30.0156 34.1212L30.0451 34.426ZM61.7685 36.7465C61.7685 36.3224 62.118 35.973 62.5421 35.973H73.6174C74.0415 35.973 74.391 36.3224 74.391 36.7465V41.1577C74.391 41.5815 74.0415 41.931 73.6174 41.931H62.5421C62.118 41.931 61.7685 41.5815 61.7685 41.1577V36.7465ZM57.543 46.3629C57.9667 46.3629 58.3165 46.7125 58.3165 47.1365V51.5477C58.3165 51.9714 57.9667 52.321 57.543 52.321H46.4688C46.0441 52.321 45.6952 51.972 45.6952 51.5477V47.1365C45.6952 46.712 46.0439 46.3629 46.4688 46.3629H57.543ZM41.4685 56.7539C41.8934 56.7539 42.2421 57.1025 42.2421 57.5275V61.9373C42.2421 62.3623 41.8935 62.7108 41.4685 62.7108H30.3938C29.9697 62.7108 29.6202 62.3619 29.6202 61.9373V57.5275C29.6202 57.103 29.9697 56.7539 30.3938 56.7539H41.4685ZM25.3952 67.1439C25.8188 67.1439 26.1687 67.4935 26.1687 67.9172V72.3284C26.1687 72.7524 25.8189 73.102 25.3952 73.102H14.3204C13.896 73.102 13.5469 72.7527 13.5469 72.3284V67.9172C13.5469 67.4931 13.896 67.1439 14.3204 67.1439H25.3952ZM64.8571 57.7245C61.6347 57.7245 59.0137 60.3471 59.0137 63.5693C59.0137 66.791 61.6355 69.4127 64.8571 69.4127C68.0792 69.4127 70.7017 66.7916 70.7017 63.5693C70.7017 60.3464 68.0801 57.7245 64.8571 57.7245ZM57.9544 59.3277C58.0434 59.1829 58.0556 59.0031 57.9868 58.8478L57.4063 57.5396L58.8287 56.1173L60.1371 56.698C60.2924 56.767 60.4716 56.755 60.6163 56.6658C61.3469 56.2158 62.1423 55.8864 62.977 55.6879C63.142 55.6486 63.2775 55.5297 63.3385 55.3714L63.8522 54.0369H65.8637L66.3776 55.3713C66.4385 55.5296 66.5739 55.6484 66.739 55.6878C67.5735 55.8863 68.3689 56.2159 69.0994 56.6656C69.2444 56.7548 69.4232 56.767 69.5788 56.6979L70.8872 56.1171L72.3096 57.5396L71.729 58.8466C71.6599 59.0022 71.6716 59.182 71.7609 59.327C72.2112 60.0574 72.5422 60.8532 72.7406 61.688C72.7798 61.8528 72.8992 61.9884 73.0572 62.0493L74.3911 62.5631V64.5744L73.055 65.0881C72.8958 65.1493 72.7781 65.2859 72.7386 65.4515C72.5393 66.2847 72.21 67.08 71.7612 67.8097C71.6722 67.9543 71.66 68.1353 71.729 68.2905L72.3096 69.5975L70.8871 71.0217L69.5793 70.439C69.4252 70.3703 69.2444 70.3831 69.101 70.4715C68.3702 70.9219 67.5741 71.2524 66.7389 71.4509C66.5739 71.4901 66.4384 71.6092 66.3776 71.7674L65.8635 73.102H63.8519L63.3382 71.7674C63.2771 71.6086 63.1424 71.4902 62.9769 71.4509C62.1418 71.2524 61.347 70.9218 60.6162 70.4716C60.4721 70.3828 60.2921 70.3703 60.1375 70.4391L58.8287 71.0215L57.4062 69.5975L57.9868 68.2904C58.0555 68.1357 58.0436 67.9552 57.9547 67.8111C57.5046 67.0809 57.1744 66.2851 56.9758 65.4507C56.9363 65.2852 56.8181 65.149 56.6592 65.0879L55.3245 64.574V62.5627L56.6592 62.0489C56.8179 61.9878 56.9363 61.8528 56.9758 61.6874C57.1744 60.8537 57.5056 60.0581 57.9544 59.3277ZM30.2816 23.0245C30.2816 21.545 31.4848 20.3418 32.9643 20.3418C34.4437 20.3418 35.6469 21.545 35.6469 23.0245C35.6469 24.5033 34.443 25.7057 32.9643 25.7057C31.4857 25.7057 30.2816 24.5033 30.2816 23.0245Z" fill="#82A0FF"/>
<path fill-rule="evenodd" clip-rule="evenodd" d="M64.8566 67.8658C62.4876 67.8658 60.5601 65.9386 60.5601 63.5693C60.5601 61.2 62.4874 59.2715 64.8566 59.2715C67.2276 59.2715 69.1542 61.2 69.1542 63.5693C69.1542 65.9386 67.2276 67.8658 64.8566 67.8658ZM64.8566 57.2088C61.3503 57.2088 58.4975 60.0617 58.4975 63.5693C58.4975 67.0754 61.3502 69.9283 64.8566 69.9283C68.3641 69.9283 71.2168 67.0754 71.2168 63.5693C71.2168 60.0618 68.3641 57.2088 64.8566 57.2088ZM73.8747 64.2202V62.9169L72.8711 62.5303C72.5537 62.4092 72.3164 62.137 72.2381 61.807C72.0524 61.026 71.7442 60.2822 71.3212 59.5976C71.1435 59.3077 71.1186 58.9493 71.2569 58.6372L71.6938 57.6538L70.772 56.732L69.787 57.1691C69.4763 57.3071 69.1182 57.2839 68.8282 57.1047C68.1425 56.6832 67.3997 56.3751 66.6187 56.1894C66.2886 56.1108 66.018 55.8737 65.8954 55.5566L65.5089 54.5525H64.2054L63.8188 55.5566C63.6962 55.8737 63.4255 56.1108 63.0953 56.1894C62.3143 56.3751 61.5715 56.6833 60.8859 57.1047C60.5964 57.2839 60.2378 57.3071 59.9271 57.1691L58.9422 56.732L58.0204 57.6538L58.4573 58.6385C58.5957 58.9493 58.5707 59.3077 58.393 59.5976C57.9718 60.2822 57.6623 61.026 57.4767 61.807C57.3978 62.1369 57.1623 62.4092 56.8438 62.5303L55.8395 62.9169V64.2202L56.8438 64.6068C57.1605 64.7294 57.3978 65.0001 57.4767 65.3315C57.6625 66.1114 57.97 66.8549 58.393 67.5407C58.5707 67.8297 58.5956 68.1892 58.4573 68.4997L58.0204 69.4834L58.9422 70.4063L59.9271 69.968C60.2378 69.83 60.5965 69.8547 60.8859 70.0324C61.5715 70.4554 62.3144 70.7635 63.0953 70.9491C63.4255 71.0276 63.696 71.2636 63.8188 71.582L64.2054 72.5862H65.509L65.8956 71.582C66.0182 71.2649 66.2887 71.0276 66.6189 70.9491C67.3999 70.7635 68.1438 70.4552 68.8296 70.0324C69.1185 69.8547 69.4783 69.83 69.7884 69.968L70.7721 70.4063L71.6939 69.4834L71.257 68.4997C71.1186 68.1892 71.1436 67.8295 71.3214 67.5395C71.7431 66.8549 72.0508 66.1112 72.2365 65.3313C72.3165 64.9999 72.5527 64.7292 72.8694 64.6066L73.8747 64.2202ZM75.276 61.2463L74.1005 60.794C73.9135 60.1712 73.6636 59.5694 73.3552 58.9957L73.8667 57.8432C74.0397 57.4539 73.9548 56.9977 73.6532 56.6959L71.7295 54.7728C71.4285 54.471 70.9715 54.3859 70.5826 54.5599L69.429 55.0717C68.8568 54.7623 68.2548 54.5134 67.6316 54.3266L67.1795 53.1497C67.026 52.7527 66.6431 52.4898 66.2164 52.4898H63.4978C63.0711 52.4898 62.6883 52.7515 62.5347 53.1497L62.0827 54.3266C61.46 54.5134 60.8574 54.7623 60.2845 55.0717L59.1316 54.5599C58.7427 54.3859 58.2862 54.471 57.9847 54.7728L56.0617 56.6959C55.7594 56.9977 55.6745 57.454 55.8475 57.8445L56.3602 58.9969C56.0507 59.5694 55.8008 60.1712 55.6139 60.794L54.4384 61.2463C54.0403 61.3998 53.777 61.7827 53.777 62.2094V64.9293C53.777 65.356 54.0403 65.7375 54.4384 65.8909L55.6139 66.3434C55.8008 66.967 56.0507 67.568 56.3591 68.1416L55.8476 69.2939C55.6746 69.6832 55.7595 70.1397 56.0618 70.4412L57.9849 72.3646C58.2865 72.6661 58.7428 72.7512 59.1317 72.5785L60.2847 72.0667C60.8575 72.3749 61.46 72.625 62.0828 72.8119L62.5349 73.9874C62.6884 74.3856 63.0712 74.6487 63.4979 74.6487H66.2165C66.6432 74.6487 67.0261 74.3856 67.1796 73.9874L67.6317 72.8119C68.2555 72.6249 68.8569 72.3762 69.4303 72.0667L70.5827 72.5785C70.9716 72.7513 71.4286 72.6662 71.7296 72.3646L73.6533 70.4412C73.9549 70.1397 74.0399 69.6831 73.8669 69.2939L73.3541 68.1416C73.6636 67.568 73.9135 66.967 74.0993 66.3434L75.276 65.8909C75.674 65.7375 75.9374 65.3558 75.9374 64.9293V62.2094C75.9375 61.7827 75.674 61.3998 75.276 61.2463ZM73.8747 41.1577C73.8747 41.2968 73.7564 41.4154 73.6168 41.4154H62.5416C62.402 41.4154 62.2836 41.2968 62.2836 41.1577V36.7465C62.2836 36.6072 62.402 36.4886 62.5416 36.4886H73.6169C73.7565 36.4886 73.8749 36.607 73.8749 36.7465V41.1577H73.8747ZM73.6169 34.4261H62.5416C61.2629 34.4261 60.221 35.4676 60.221 36.7465V41.1577C60.221 42.4363 61.2629 43.478 62.5416 43.478H73.6169C74.8962 43.478 75.9375 42.4364 75.9375 41.1577V36.7465C75.9375 35.4676 74.8961 34.4261 73.6169 34.4261ZM46.2104 51.5475V47.1364C46.2104 46.997 46.3276 46.8784 46.4684 46.8784H57.5426C57.6815 46.8784 57.8005 46.997 57.8005 47.1364V51.5475C57.8005 51.6866 57.6815 51.8052 57.5426 51.8052H46.4684C46.3275 51.8052 46.2104 51.6867 46.2104 51.5475ZM53.0992 35.0372C53.0233 34.7072 52.7897 34.4365 52.4754 34.3113C52.3528 34.2625 52.2235 34.2379 52.0949 34.2379C51.8952 34.2379 51.6956 34.2972 51.5238 34.4106L48.3822 36.5016C48.1377 36.664 47.9739 36.9231 47.9326 37.2143L47.2869 41.726C47.2529 41.9581 47.1321 42.1616 46.9453 42.3022C46.7573 42.4425 46.5278 42.5006 46.2954 42.4672C46.0648 42.4339 45.8597 42.3124 45.7194 42.1256C45.5798 41.9374 45.521 41.708 45.5544 41.4744L46.3057 36.2308C46.353 35.893 46.5083 35.6481 46.7918 35.4585L51.8989 32.0605C52.2382 31.8363 52.4117 31.4343 52.3462 31.0333L52.104 29.5766L51.4256 25.5935C51.3691 25.261 51.1537 24.9772 50.8498 24.8329C50.5445 24.6899 50.1884 24.704 49.897 24.8715C48.4763 25.6862 47.3743 26.2974 46.097 27.0049C45.5696 27.2963 45.0192 27.6018 44.4136 27.9396C44.2097 28.0532 43.9736 28.0814 43.7497 28.017C43.524 27.954 43.3383 27.807 43.2248 27.6033C43.1101 27.3995 43.0828 27.1636 43.1466 26.9382C43.2096 26.7137 43.3566 26.5281 43.5599 26.4148C46.3975 24.8318 48.6227 23.5891 51.4051 21.992C51.8231 21.7521 52.3578 21.8965 52.5975 22.3142C52.6503 22.4057 52.6867 22.505 52.7037 22.6095C53.9052 29.8579 55.0649 35.7875 56.4692 41.8332C56.522 42.0614 56.4831 42.2948 56.3593 42.4933C56.2368 42.6905 56.0431 42.8282 55.8169 42.8812C55.3478 42.9909 54.8781 42.6981 54.7689 42.2302L53.0992 35.0372ZM41.7192 29.8422L37.813 32.1768C37.6043 32.3017 37.3597 32.3339 37.1249 32.2672C37.12 32.2646 37.1133 32.2632 37.1067 32.262L34.4784 31.5658C34.1525 31.4794 33.8042 31.5568 33.5482 31.7746C33.2903 31.9925 33.1562 32.3225 33.1872 32.6576L33.5634 36.6822C33.6022 37.0882 33.8741 37.4324 34.2607 37.5625L39.0226 39.1687C39.3369 39.2744 39.5627 39.5451 39.6094 39.8713L40.6162 46.9083C40.6854 47.3864 40.3528 47.8314 39.8746 47.9008C39.6439 47.9344 39.4133 47.8751 39.2265 47.7346C39.0396 47.5953 38.917 47.3904 38.8849 47.161L38.0445 41.2827C37.9892 40.8973 37.7211 40.5763 37.3521 40.4514L35.3271 39.7682C34.9958 39.6558 34.6299 39.7203 34.3562 39.9381C34.0819 40.156 33.9375 40.4977 33.9721 40.8457L34.0189 41.3278C34.037 41.5121 33.9982 41.6938 33.9054 41.8525C33.8987 41.8641 33.8927 41.8743 33.8873 41.8859L29.5726 49.98C29.4622 50.1849 29.2789 50.3359 29.0556 50.4027C28.833 50.4712 28.5968 50.448 28.3906 50.3385C28.186 50.2275 28.0349 50.0446 27.9676 49.8215C27.8997 49.5983 27.9228 49.3626 28.0337 49.1563L32.1074 41.5146C32.2027 41.3343 32.244 41.1306 32.2233 40.9282C32.0559 39.2162 31.8793 37.3678 31.7027 35.5193C31.5261 33.6707 31.3495 31.821 31.182 30.1053C31.1711 30.0007 31.1802 29.8964 31.2075 29.7933C31.3107 29.404 31.6652 29.1449 32.0516 29.1449C32.1269 29.1449 32.2015 29.1551 32.2773 29.1746L36.8134 30.3758C37.0817 30.4479 37.3681 30.4081 37.6066 30.2649L40.8264 28.3403C40.9551 28.2629 41.0996 28.223 41.2451 28.218C41.2967 28.3507 41.3538 28.4821 41.4241 28.6084C41.5971 28.9178 41.8228 29.186 42.0844 29.4103C42.0135 29.5871 41.8879 29.7415 41.7192 29.8422ZM25.8135 36.673L29.5019 34.1711C29.4369 33.5007 29.3739 32.8356 29.3107 32.1807L24.8286 35.2214C24.6368 35.3529 24.5064 35.5517 24.4627 35.7837C24.4172 36.0145 24.4651 36.2477 24.5956 36.4398C24.8674 36.8406 25.4141 36.9449 25.8135 36.673ZM30.7967 23.0244C30.7967 21.8295 31.7689 20.8574 32.9638 20.8574C34.1586 20.8574 35.1308 21.8296 35.1308 23.0244C35.1308 24.218 34.1586 25.1901 32.9638 25.1901C31.7689 25.1901 30.7967 24.218 30.7967 23.0244ZM59.1445 27.9408C59.4152 27.5415 59.3114 26.9948 58.9114 26.7226L55.0453 24.0995C55.1836 24.9154 55.3226 25.716 55.4622 26.5025L57.9265 28.1743C58.3265 28.4461 58.8726 28.3418 59.1445 27.9408ZM46.9823 16.2297C46.9823 15.0348 47.9545 14.0624 49.1481 14.0624C50.3429 14.0624 51.3151 15.0347 51.3151 16.2297C51.3151 17.4248 50.3429 18.3966 49.1481 18.3966C47.9544 18.3966 46.9823 17.4248 46.9823 16.2297ZM59.863 51.5475C59.863 52.8273 58.8229 53.8677 57.5424 53.8677H46.4682C45.1878 53.8677 44.1477 52.8273 44.1477 51.5475V47.1364C44.1477 45.8575 45.1878 44.8159 46.4682 44.8159H54.6988C53.7606 44.5051 52.9997 43.7292 52.7599 42.6979L51.4273 36.9526L49.9084 37.9631L49.3288 42.0199C49.2159 42.7985 48.8075 43.4842 48.1801 43.9547C47.5508 44.424 46.7777 44.6199 45.9998 44.5091C45.2243 44.397 44.5374 43.9883 44.0676 43.3604C43.5974 42.7316 43.4013 41.9581 43.5136 41.1808L44.2637 35.938C44.3953 35.0163 44.8747 34.2572 45.6497 33.7416L50.2015 30.7122L50.0698 29.9181L49.6408 27.3902C48.7675 27.8829 47.9726 28.3224 47.0958 28.8083C46.5702 29.0997 46.0222 29.404 45.4191 29.7403C44.9845 29.9825 44.5064 30.1078 44.0215 30.113C43.7921 30.729 43.3601 31.2653 42.7762 31.6132L38.8706 33.9478C38.1806 34.3588 37.3426 34.4698 36.5707 34.2533L35.3783 33.9374L35.5549 35.8221L39.6813 37.2143C40.7354 37.5687 41.4909 38.4737 41.6505 39.5772L42.6579 46.6156C42.8897 48.2166 41.7731 49.7092 40.1699 49.9414C39.3937 50.0534 38.6207 49.8574 37.9914 49.3869C37.362 48.9178 36.955 48.2306 36.8426 47.4548L36.0913 42.203L35.9882 42.1682C35.9232 42.4118 35.8268 42.6477 35.6981 42.8719L31.3914 50.9506C31.0213 51.6428 30.4054 52.1493 29.6546 52.3763C29.3724 52.4625 29.0848 52.5052 28.7989 52.5052C28.322 52.5052 27.8498 52.3879 27.4196 52.1571C26.7273 51.7872 26.2206 51.171 25.9935 50.4208C25.7654 49.6705 25.8443 48.8765 26.2126 48.1854L30.1406 40.8185C30.0052 39.4417 29.8663 37.9825 29.7255 36.5117L26.9723 38.3795C26.4669 38.7223 25.8934 38.8861 25.3261 38.8861C24.3825 38.8861 23.4571 38.4349 22.8885 37.5982C22.4491 36.9499 22.2878 36.1673 22.4364 35.3953C22.5845 34.6219 23.0226 33.9553 23.6713 33.5146L29.1225 29.8163C29.1353 29.6292 29.1649 29.445 29.2141 29.2633C29.5413 28.0319 30.6098 27.1917 31.8126 27.0923C30.0389 26.5896 28.7347 24.9564 28.7347 23.0242C28.7347 20.6921 30.6317 18.7946 32.9638 18.7946C35.2958 18.7946 37.1934 20.6921 37.1934 23.0242C37.1934 25.3212 35.3511 27.1955 33.067 27.2497L36.9216 28.2707L39.7689 26.5689C40.2198 26.2996 40.7264 26.1616 41.2355 26.1552C41.4783 25.5002 41.9383 24.9577 42.5548 24.6133C45.3055 23.0792 47.4775 21.8651 50.1409 20.3401C49.8223 20.4162 49.4898 20.4587 49.1481 20.4587C46.816 20.4587 44.9197 18.5612 44.9197 16.2293C44.9197 13.8975 46.816 12 49.1481 12C51.4801 12 53.3771 13.8976 53.3771 16.2293C53.3771 17.7711 52.5476 19.1219 51.3109 19.8619C52.4171 19.6594 53.5761 20.1094 54.2437 21.0631L60.0688 25.0154C61.4111 25.9256 61.7618 27.7574 60.8516 29.0981C60.283 29.9358 59.3564 30.3872 58.414 30.3872C57.8465 30.3872 57.2732 30.2233 56.7682 29.8806L55.9751 29.343C56.7586 33.5686 57.5668 37.4435 58.477 41.3663C58.6548 42.1293 58.525 42.9156 58.1111 43.5822C57.7451 44.1713 57.1948 44.6017 56.5436 44.8158H57.5424C58.8229 44.8158 59.863 45.8573 59.863 47.1362V51.5475ZM41.7259 61.9372C41.7259 62.0779 41.6082 62.1952 41.468 62.1952H30.3932C30.2543 62.1952 30.1353 62.0779 30.1353 61.9372V57.5275C30.1353 57.387 30.2543 57.2695 30.3932 57.2695H41.468C41.6081 57.2695 41.7259 57.3869 41.7259 57.5275V61.9372ZM41.468 55.207H30.3932C29.1146 55.207 28.0733 56.2474 28.0733 57.5275V61.9372C28.0733 63.2173 29.1146 64.2577 30.3932 64.2577H41.468C42.7478 64.2577 43.7885 63.2173 43.7885 61.9372V57.5275C43.7885 56.2474 42.7478 55.207 41.468 55.207ZM25.6526 72.3284C25.6526 72.4677 25.5336 72.5863 25.3946 72.5863H14.3199C14.1798 72.5863 14.062 72.4677 14.062 72.3284V67.9172C14.062 67.7781 14.1797 67.6595 14.3199 67.6595H25.3946C25.5336 67.6595 25.6526 67.7781 25.6526 67.9172V72.3284ZM25.3946 65.597H14.3199C13.0401 65.597 12 66.6386 12 67.9172V72.3284C12 73.6073 13.0401 74.6488 14.3199 74.6488H25.3946C26.6733 74.6488 27.7146 73.6073 27.7146 72.3284V67.9172C27.7147 66.6386 26.6733 65.597 25.3946 65.597Z" fill="#32589D"/>
<defs>
<linearGradient id="paint0_linear_307_6060" x1="16.5" y1="7.5" x2="67.5" y2="98.5" gradientUnits="userSpaceOnUse">
<stop stop-color="#F4F8FF"/>
<stop offset="1" stop-color="#AFBDD8"/>
</linearGradient>
</defs>
</svg>
