<svg width="87" height="87" viewBox="0 0 87 87" fill="none" xmlns="http://www.w3.org/2000/svg">
<circle cx="43.5" cy="43.5" r="43.5" fill="url(#paint0_linear_307_6069)"/>
<path fill-rule="evenodd" clip-rule="evenodd" d="M64.1189 58.9418C65.8251 58.9418 67.2139 60.3286 67.2139 62.0352C67.2139 63.7413 65.8263 65.1289 64.1218 65.1302C64.1223 65.1302 64.1198 65.1302 64.1175 65.1302C62.4114 65.1289 61.025 63.7412 61.025 62.0352C61.0249 60.3293 62.4131 58.9418 64.1189 58.9418ZM43.0016 22.77H42.9993C41.2931 22.77 39.9065 21.3814 39.9065 19.6755C39.9065 17.9694 41.2943 16.5815 43.0004 16.5815C44.7064 16.5815 46.0954 17.9692 46.0954 19.6755C46.0955 21.3815 44.7078 22.77 43.0016 22.77ZM54.6539 46.9355C54.6539 46.8203 54.5589 46.7253 54.4436 46.7253C54.3286 46.7253 54.2329 46.8203 54.2329 46.9355C54.2329 47.0508 54.3286 47.1457 54.4436 47.1457C54.5589 47.1456 54.6539 47.0506 54.6539 46.9355ZM54.8789 45.0592C54.941 45.0335 55.0079 45.0206 55.0753 45.0206C55.289 45.0206 55.4851 45.1497 55.5672 45.3478L55.5713 45.358L59.6713 55.9355C59.7815 56.2037 59.6429 56.5207 59.3686 56.6245L57.3391 57.4114C57.2073 57.4646 57.0603 57.4602 56.9302 57.4029C56.8032 57.3469 56.703 57.2456 56.6514 57.1162L52.5494 46.5334C52.4413 46.2621 52.5792 45.9479 52.8514 45.8451L54.8789 45.0592ZM32.1882 46.2785C32.1936 46.1627 32.1039 46.0643 31.9882 46.059C31.8726 46.0537 31.7738 46.1434 31.7686 46.259C31.7633 46.3741 31.852 46.4734 31.9675 46.4787C32.0834 46.484 32.1827 46.3949 32.1882 46.2785ZM26.3309 55.4298C26.2766 55.2951 26.2793 55.1457 26.3404 55.0144L30.9256 44.6408C30.9811 44.5154 31.083 44.4178 31.2098 44.3662C31.2733 44.3401 31.3419 44.3263 31.4105 44.3263C31.4854 44.3263 31.5589 44.3422 31.6269 44.3734L33.6202 45.2543C33.8798 45.369 34.0047 45.6776 33.8961 45.941L33.8939 45.9465L29.2991 56.3422L29.2944 56.3518C29.2375 56.4661 29.144 56.5532 29.0271 56.6039L29.0105 56.611L28.9934 56.6169C28.872 56.6587 28.7405 56.6567 28.6213 56.609L28.6135 56.6059L26.6071 55.719C26.4798 55.6626 26.3818 55.5588 26.3309 55.4298ZM43.0005 36.4711C40.2672 36.4711 38.0436 38.6955 38.0436 41.4286C38.0436 44.162 40.267 46.3861 43.0005 46.3861C45.734 46.3861 47.9575 44.162 47.9575 41.4286C47.9575 38.6954 45.7338 36.4711 43.0005 36.4711ZM35.7898 47.863C35.7775 47.8561 35.7647 47.8498 35.7541 47.8447L35.3088 47.6392L35.2355 47.4895C35.0758 47.1631 34.9334 46.8282 34.8099 46.4865L34.7558 46.3367L34.8041 46.185C34.9715 45.6588 34.8242 45.0776 34.4313 44.6915L34.3179 44.5801L34.2957 44.4226C34.2291 43.9506 34.1941 43.4734 34.1941 42.9967V36.2106L43.0005 32.4364L51.8069 36.2105V42.9964C51.8069 44.884 51.2874 46.7181 50.307 48.3303L50.1454 48.596L49.8378 48.5504C49.3761 48.482 48.8752 48.2685 48.4436 48.0921C47.6602 47.7721 46.9082 47.4805 46.0556 47.4046C44.9558 47.3067 43.944 47.6051 42.9972 48.1569L42.7702 48.2892L42.5389 48.1646C41.8118 47.773 41.055 47.5786 40.2294 47.5843C39.5541 47.589 38.9226 47.7262 38.2697 47.8792C37.4485 48.0717 36.5756 48.3048 35.7898 47.863ZM21.8809 65.1302H21.8811C20.1748 65.1302 18.7871 63.7412 18.7871 62.0352C18.7871 60.3286 20.1759 58.9418 21.8821 58.9418C23.5879 58.9418 24.9761 60.3293 24.9761 62.0352C24.9761 63.7412 23.5897 65.1289 21.8837 65.1302C21.8826 65.1302 21.8817 65.1302 21.8809 65.1302Z" fill="#82A0FF"/>
<path fill-rule="evenodd" clip-rule="evenodd" d="M42.1207 43.7229C42.3457 43.7229 42.5707 43.6424 42.75 43.4797L45.7396 40.7668C46.124 40.4188 46.1521 39.8259 45.8042 39.4421C45.4557 39.0588 44.8627 39.0302 44.48 39.3781L42.1515 41.4909L41.5525 40.892C41.1869 40.5258 40.5924 40.5252 40.2256 40.892C39.86 41.2576 39.86 41.8516 40.2256 42.2172L41.4571 43.4482C41.6403 43.6308 41.8808 43.7229 42.1207 43.7229ZM39.4491 41.4286C39.4491 39.4707 41.0414 37.8774 42.9997 37.8774C44.9581 37.8774 46.5503 39.4707 46.5503 41.4286C46.5503 43.387 44.9581 44.9797 42.9997 44.9797C41.0414 44.9798 39.4491 43.387 39.4491 41.4286ZM37.574 41.4286C37.574 38.4367 40.0078 36.0023 42.9997 36.0023C45.9916 36.0023 48.4255 38.4367 48.4255 41.4286C48.4255 44.4211 45.9917 46.8548 42.9997 46.8548C40.0079 46.8549 37.574 44.4211 37.574 41.4286ZM69.9905 70.9497C69.2542 68.3726 66.8905 66.5366 64.1192 66.5366C64.1192 66.5366 64.1192 66.5366 64.1182 66.5366C64.1182 66.5366 64.1182 66.5366 64.117 66.5366C61.3468 66.5366 58.983 68.3726 58.2457 70.9497H69.9905ZM42.9998 70.7777C36.5907 70.7777 30.5671 68.3554 25.956 63.9429C26.229 63.3633 26.3818 62.7174 26.3818 62.0352C26.3818 59.5545 24.3622 57.5354 21.8814 57.5354C21.6366 57.5354 21.3962 57.5552 21.1618 57.5939C19.3071 54.0713 18.3282 50.1149 18.3282 46.106C18.3282 34.0241 27.1716 23.6817 39.0108 21.7569C39.2408 22.1936 39.5392 22.5886 39.8933 22.9272C37.2907 24.0225 35.3792 26.4569 35.0615 29.4279C35.0334 29.6926 35.1189 29.9561 35.2959 30.1542C35.474 30.3521 35.7271 30.4652 35.993 30.4652L50.0068 30.4646C50.2727 30.4646 50.5258 30.3521 50.7039 30.1541C50.8821 29.956 50.9664 29.6925 50.9383 29.4277C50.6206 26.4568 48.7092 24.0225 46.1066 22.9271C46.4606 22.589 46.7591 22.1941 46.989 21.7568C58.8298 23.6816 67.6716 34.0245 67.6716 46.1059C67.6716 50.1147 66.6928 54.0713 64.838 57.5938C64.6037 57.5552 64.3632 57.5353 64.1183 57.5353C61.6376 57.5353 59.6179 59.5543 59.6179 62.035C59.6179 62.7173 59.7718 63.3631 60.0437 63.9428C55.4325 68.3554 49.4089 70.7777 42.9998 70.7777ZM27.7533 70.9497C27.0166 68.3726 24.6528 66.5366 21.8825 66.5366C21.8814 66.5366 21.8814 66.5366 21.8814 66.5366H21.8804C19.1085 66.5366 16.7453 68.3726 16.0091 70.9497H27.7533ZM21.8804 64.6615H21.8814H21.8825C23.3296 64.6604 24.5066 63.4829 24.5066 62.0352C24.5066 60.588 23.3286 59.4105 21.8813 59.4105C20.4331 59.4105 19.255 60.588 19.255 62.0352C19.2551 63.4829 20.4332 64.6603 21.8804 64.6615ZM42.9998 24.1763H42.9987C40.2285 24.1769 37.8648 26.0129 37.1274 28.5901H48.8723C48.135 26.0129 45.7712 24.1769 43.001 24.1763H42.9998ZM40.3746 19.6755C40.3746 21.1233 41.5515 22.3006 42.9986 22.3012H42.9998H43.001C44.4481 22.3006 45.6261 21.1231 45.6261 19.6755C45.6261 18.2278 44.4469 17.0503 42.9998 17.0503C41.5526 17.0503 40.3746 18.2278 40.3746 19.6755ZM66.7444 62.0352C66.7444 60.588 65.5665 59.4105 64.1182 59.4105C62.671 59.4105 61.4929 60.588 61.4929 62.0352C61.4929 63.4829 62.6698 64.6604 64.117 64.6615H64.1182H64.1192C65.5664 64.6603 66.7444 63.4829 66.7444 62.0352ZM71.8222 72.5143C71.6441 72.7122 71.3909 72.8249 71.1246 72.8249H57.1113C56.8466 72.8249 56.5924 72.7124 56.4141 72.5143C56.2372 72.3158 56.1516 72.0527 56.1798 71.7874C56.3088 70.5797 56.7037 69.4617 57.2988 68.4839C53.0709 71.1979 48.1515 72.6528 42.9998 72.6528C37.8493 72.6528 32.9287 71.1979 28.7008 68.484C29.2959 69.4618 29.6908 70.5798 29.8192 71.7875C29.848 72.0528 29.7624 72.3159 29.5855 72.5144C29.4073 72.7124 29.153 72.825 28.8878 72.825H14.8746C14.6088 72.825 14.3557 72.7125 14.1775 72.5144C13.9994 72.3159 13.9139 72.0528 13.9432 71.7875C14.2608 68.817 16.1707 66.3833 18.7749 65.2875C17.9167 64.4668 17.3801 63.3125 17.3801 62.0352C17.3801 60.4684 18.1865 59.0868 19.4053 58.2805C17.4717 54.5362 16.4535 50.3482 16.4535 46.106C16.4535 39.6324 18.8102 33.3965 23.0899 28.5481C27.1136 23.9872 32.5593 20.9556 38.5079 19.9402C38.5034 19.8526 38.5001 19.7648 38.5001 19.6755C38.5001 17.1943 40.5187 15.1752 42.9999 15.1752C45.4817 15.1752 47.5013 17.1942 47.5013 19.6755C47.5013 19.7648 47.4975 19.8526 47.4914 19.9402C53.4399 20.9561 58.8861 23.9872 62.9098 28.5481C67.1895 33.397 69.5462 39.6323 69.5462 46.106C69.5462 50.3482 68.528 54.5363 66.5944 58.2805C67.8133 59.0867 68.6191 60.4683 68.6191 62.0352C68.6191 63.3125 68.0825 64.4668 67.2249 65.2875C69.8286 66.3833 71.739 68.8172 72.0567 71.7875C72.0857 72.0527 72.0003 72.3158 71.8222 72.5143ZM54.443 46.2565C54.0691 46.2565 53.7636 46.5614 53.7636 46.9353C53.7636 47.3093 54.0691 47.6142 54.443 47.6142C54.817 47.6142 55.1219 47.3093 55.1219 46.9353C55.1219 46.5615 54.817 46.2565 54.443 46.2565ZM59.2351 56.1092L55.1335 45.5274C55.1241 45.5048 55.0993 45.4894 55.0746 45.4894C55.068 45.4894 55.0607 45.4904 55.0552 45.4932L53.0179 46.2829C52.9886 46.294 52.9721 46.332 52.9843 46.3608L57.0858 56.9426C57.0914 56.9564 57.1024 56.9668 57.1184 56.974C57.135 56.9811 57.1504 56.9823 57.1642 56.9762L59.201 56.1865C59.2301 56.1759 59.2467 56.1374 59.2351 56.1092ZM54.6179 55.7622L52.1135 49.3042L51.4605 49.6533C51.1572 49.8116 50.8583 49.9031 50.5644 49.9472C50.5505 49.9499 50.5362 49.9522 50.5219 49.9543C49.5894 50.0801 48.7102 49.7199 47.9111 49.394C46.5351 48.8315 45.2369 48.3009 43.3072 49.6251C43.3044 49.6263 43.3033 49.6274 43.3023 49.6284C42.8759 49.9207 42.4408 50.2897 42.0073 50.7265C41.083 51.6618 39.959 52.5502 38.6596 53.3754C39.7985 54.335 40.9975 53.9297 42.8252 53.1889C44.3055 52.59 45.9837 51.9099 47.5401 52.7974L52.9576 55.8853C53.1369 55.9874 53.3022 56.1103 53.4495 56.2499L54.6179 55.7622ZM52.2987 57.8024V57.8012C52.2403 57.6805 52.1459 57.5811 52.0291 57.5144L46.6116 54.4265C45.845 53.9892 44.7718 54.4237 43.5292 54.9268C41.5582 55.7249 38.8585 56.8179 36.594 53.9038C36.396 53.6506 36.3166 53.3213 36.3778 53.0038C36.4395 52.6811 36.6353 52.4059 36.9155 52.2422C38.4151 51.3669 39.6798 50.4139 40.6747 49.4086C40.7899 49.2928 40.9058 49.1802 41.0216 49.0721C40.1899 48.8742 39.4287 49.0523 38.5899 49.2492C37.5398 49.4952 36.3492 49.7742 35.1353 49.1086L34.2187 48.6855L31.4192 55.0219C31.9299 55.248 32.1329 55.3345 32.2067 55.3628C32.9016 55.6324 33.2214 56.1795 33.3963 56.7188C34.1403 56.2711 35.0943 56.2126 35.9133 56.6494C36.547 56.988 36.9833 57.5615 37.1647 58.2084C37.6092 58.1897 38.0625 58.2867 38.474 58.5057C38.9908 58.7815 39.3785 59.2139 39.6035 59.7185C40.1462 59.6247 40.7203 59.7079 41.2359 59.9837C41.7527 60.259 42.1409 60.6902 42.3653 61.1954C42.9091 61.1017 43.4832 61.186 43.9989 61.4612C44.2747 61.6079 44.5125 61.8009 44.7142 62.0331L47.5137 63.6176C47.6566 63.6969 47.8243 63.7158 47.9847 63.6689C48.149 63.622 48.2837 63.5144 48.3648 63.3677C48.5296 63.0665 48.4149 62.6822 48.1088 62.509C48.0703 62.4874 48.035 62.4631 48.0012 62.4372L44.1059 60.2461C43.6548 59.9918 43.4954 59.4193 43.7486 58.9683C44.0028 58.5177 44.5748 58.3577 45.026 58.611L49.9256 61.3685C50.2245 61.5328 50.6144 61.4186 50.7799 61.1203C50.9453 60.8203 50.83 60.4347 50.5229 60.2621C49.3713 59.6163 48.0649 58.8855 46.7881 58.1543C46.3398 57.8973 46.1837 57.3242 46.4417 56.8747C46.6981 56.4258 47.2712 56.2698 47.7201 56.5272C48.9891 57.2542 50.2924 57.9827 51.4416 58.6274C51.5811 58.7062 51.7467 58.7233 51.9071 58.6781C52.0726 58.6312 52.2083 58.5232 52.2894 58.3754C52.3865 58.1983 52.3898 57.9899 52.2987 57.8024ZM45.524 64.657C45.4855 64.6344 45.4501 64.6101 45.4164 64.5842L45.2261 64.4777C45.1803 64.6261 45.1208 64.7728 45.0458 64.9134L44.6685 65.6188L44.9366 65.7737C45.1169 65.8768 45.295 65.8497 45.3855 65.825C45.552 65.7781 45.6938 65.6656 45.776 65.5167C45.942 65.2146 45.8301 64.828 45.524 64.657ZM42.4383 65.8124L43.3925 64.0282C43.4874 63.8506 43.494 63.6393 43.419 63.4541L43.1917 63.3256C43.0644 63.2539 42.9612 63.1557 42.8834 63.0432C42.6976 63.0195 42.5051 63.0746 42.3589 63.1987L41.1693 65.4853C41.1683 65.7335 41.3039 65.9717 41.5245 66.0887C41.6812 66.1731 41.8642 66.1908 42.0391 66.1378C42.2122 66.0854 42.355 65.969 42.4383 65.8124ZM39.4668 64.6945L40.7006 62.3225C40.737 62.0478 40.5997 61.7682 40.3537 61.637C40.11 61.5068 39.8066 61.5443 39.5982 61.7203L38.2713 64.2887C38.2784 64.528 38.4108 64.7519 38.6265 64.8667C38.9109 65.0188 39.265 64.9427 39.4668 64.6945ZM36.5228 63.5883L37.9386 60.8472C37.975 60.5703 37.8377 60.2913 37.5917 60.159C37.3722 60.042 37.1075 60.0569 36.9023 60.191L35.6206 62.4091L35.3278 62.9562C35.1551 63.2788 35.2819 63.6979 35.6051 63.8706C35.9334 64.0465 36.3447 63.9197 36.5228 63.5883ZM34.0808 61.3264L35.3333 59.1584C35.4635 58.843 35.3322 58.4647 35.031 58.3042C34.7017 58.1283 34.2915 58.2524 34.1156 58.5805L33.1207 60.4401C33.0363 60.5973 33.0202 60.7804 33.0727 60.9536C33.1257 61.1285 33.2404 61.2702 33.3986 61.3545C33.6153 61.4704 33.8767 61.456 34.0808 61.3264ZM28.874 56.1429L33.462 45.7624C33.4736 45.7343 33.4592 45.6957 33.43 45.6829L31.432 44.8001C31.4253 44.7968 31.4182 44.795 31.41 44.795C31.4028 44.795 31.3945 44.7967 31.3867 44.8001C31.3713 44.8061 31.3598 44.8166 31.3537 44.8304L26.7657 55.2103C26.7585 55.2241 26.7585 55.2395 26.7657 55.2561C26.7718 55.2726 26.7822 55.2842 26.796 55.2903L28.7947 56.1738C28.8085 56.1793 28.8239 56.1793 28.8399 56.1738C28.8563 56.1665 28.8669 56.1572 28.874 56.1429ZM34.6621 42.9965V36.5196L42.9998 32.9464L51.3375 36.5196V42.9965C51.3375 44.7967 50.8428 46.546 49.9058 48.0869C49.5634 48.0362 49.1546 47.8762 48.6202 47.6584C47.1929 47.0749 45.2709 46.2889 42.7605 47.7521C40.9422 46.7727 39.3516 47.1444 38.1621 47.4228C37.171 47.655 36.5826 47.7709 36.0189 47.4542C35.9969 47.4416 35.9743 47.4306 35.9521 47.42L35.656 47.2833C35.5033 46.9711 35.3676 46.6517 35.2501 46.3269C35.4751 45.6199 35.2699 44.8588 34.7593 44.3569C34.6958 43.9071 34.6621 43.451 34.6621 42.9965ZM59.8781 57.9347L57.8414 58.725C57.6152 58.8126 57.3798 58.8562 57.1443 58.8562C56.8785 58.8562 56.6122 58.801 56.3617 58.6897C55.8881 58.4812 55.5246 58.1012 55.3371 57.6198L55.2951 57.5106L54.2346 57.9534C54.2582 58.4095 54.1573 58.8701 53.9323 59.2793C53.6533 59.7855 53.2187 60.1721 52.6887 60.3878C52.7858 60.9315 52.7064 61.5078 52.423 62.0236C51.9801 62.8277 51.1583 63.2926 50.3019 63.3195C50.2705 63.6454 50.1739 63.9686 50.0078 64.2709C49.6842 64.8582 49.1497 65.2851 48.5028 65.4715C48.2391 65.547 47.9695 65.579 47.7025 65.5674C47.6617 65.8592 47.5691 66.1487 47.4191 66.4217C47.0964 67.0074 46.5399 67.4481 45.892 67.6295C45.668 67.6929 45.4408 67.7232 45.2158 67.7232C44.7928 67.7232 44.377 67.6146 44.003 67.4L43.708 67.2301C43.4051 67.556 43.0208 67.7993 42.5823 67.9322C42.3363 68.0072 42.0858 68.0436 41.8361 68.0436C41.4225 68.0436 41.0132 67.9427 40.641 67.742C40.1954 67.5043 39.8441 67.1491 39.6119 66.7299C39.0014 66.8948 38.3323 66.8353 37.7417 66.5198C37.3562 66.3125 37.0386 66.0146 36.8097 65.6633C36.1478 65.9081 35.3896 65.8811 34.7206 65.5237C33.8674 65.0666 33.3788 64.1913 33.3739 63.2857C33.0778 63.2454 32.7871 63.1528 32.5141 63.0077C31.9151 62.6879 31.4756 62.1512 31.2776 61.4982C31.0797 60.8442 31.1474 60.1553 31.4674 59.5553L31.9383 58.6767C31.8413 58.3987 31.7872 58.1126 31.7382 57.8478C31.6957 57.6195 31.6163 57.1926 31.5297 57.1099C31.436 57.0746 31.2446 56.9946 30.6611 56.736L30.5888 56.8998C30.3803 57.3719 29.9992 57.7343 29.5162 57.9217C29.289 58.0093 29.0524 58.0529 28.8158 58.0529C28.5505 58.0529 28.2857 57.9977 28.0365 57.888L26.0384 57.004C25.5663 56.7955 25.2039 56.416 25.0164 55.933C24.8301 55.4504 24.8416 54.9242 25.0501 54.4516L29.6381 44.0722C29.847 43.6006 30.2276 43.2378 30.7108 43.0508C31.1934 42.8638 31.7194 42.876 32.1905 43.0844L32.7956 43.3519C32.7917 43.2333 32.7873 43.1142 32.7873 42.9962V35.9011C32.7873 35.5261 33.0111 35.1874 33.3553 35.0396L42.631 31.0643C42.8666 30.9634 43.1335 30.9634 43.3689 31.0643L52.6442 35.0396C52.9889 35.1874 53.2128 35.5261 53.2128 35.9011V42.9962C53.2128 43.407 53.1896 43.8163 53.1472 44.2216L54.3776 43.7445C55.3726 43.359 56.4955 43.8544 56.8821 44.8493L60.9836 55.4305C61.3688 56.4258 60.8731 57.5492 59.8781 57.9347ZM32.6557 46.3006C32.6733 45.9262 32.3838 45.6079 32.0088 45.5908C31.6348 45.5737 31.3161 45.8633 31.2996 46.2377C31.282 46.6122 31.5714 46.9298 31.9454 46.9469C32.3204 46.9642 32.6381 46.6751 32.6557 46.3006Z" fill="#32589D"/>
<defs>
<linearGradient id="paint0_linear_307_6069" x1="16.5" y1="7.5" x2="67.5" y2="98.5" gradientUnits="userSpaceOnUse">
<stop stop-color="#F4F8FF"/>
<stop offset="1" stop-color="#AFBDD8"/>
</linearGradient>
</defs>
</svg>
