<svg width="87" height="87" viewBox="0 0 87 87" fill="none" xmlns="http://www.w3.org/2000/svg">
<circle cx="43.5" cy="43.5" r="43.5" fill="url(#paint0_linear_307_6079)"/>
<path fill-rule="evenodd" clip-rule="evenodd" d="M46.9117 40.526C47.1577 40.5121 47.404 40.6155 47.5806 40.7844L47.5867 40.7902L47.5927 40.7963C47.945 41.1532 47.945 41.7311 47.5926 42.088C46.964 42.7243 46.3345 43.3596 45.7066 43.9966C44.6494 45.0691 43.5912 46.1407 42.5266 47.2059C42.353 47.3796 42.1199 47.4752 41.875 47.4752C41.6298 47.4752 41.3949 47.3764 41.2264 47.2033L38.4059 44.3857C38.0562 44.0285 38.0562 43.4523 38.4059 43.095L38.412 43.0887L38.4182 43.0828C38.5912 42.9162 38.8216 42.8213 39.0618 42.8213C39.302 42.8213 39.5323 42.9162 39.7054 43.0828L39.7134 43.0905L41.6274 45.0045C41.6931 45.0703 41.7811 45.1078 41.8743 45.1077C41.9699 45.1075 42.0586 45.0719 42.1259 45.0039L46.2904 40.7964C46.4559 40.6292 46.678 40.5337 46.9117 40.526ZM34.0824 44.0006C34.0824 48.9174 38.0833 52.9196 43.0003 52.9196C47.9174 52.9196 51.9183 48.9174 51.9183 44.0006C51.9183 39.0835 47.9178 35.081 43.0003 35.081C38.0829 35.081 34.0824 39.0835 34.0824 44.0006ZM25.4076 43.8296L23.6229 40.7356C23.5601 40.6266 23.4455 40.56 23.3196 40.56H19.7509C19.6241 40.56 19.5087 40.632 19.4462 40.738L17.663 43.8296C17.6003 43.9359 17.6007 44.0653 17.6632 44.1714L19.4462 47.2627C19.5088 47.3688 19.6243 47.4402 19.7509 47.4402H23.3196C23.4455 47.4402 23.5601 47.3741 23.6229 47.2651L25.4073 44.1714C25.4699 44.0652 25.4703 43.9358 25.4076 43.8296ZM43.0002 32.4203C36.6146 32.4203 31.4212 37.615 31.4212 44.0005C31.4212 50.3857 36.6148 55.5801 43.0002 55.5801C49.3857 55.5801 54.5793 50.3858 54.5793 44.0005C54.5794 37.615 49.386 32.4203 43.0002 32.4203ZM43.0002 56.2831C44.0914 56.2831 45.1748 56.1389 46.2277 55.8525L46.9674 55.6512V71.5248H39.0331V55.6503L39.7735 55.8527C40.8244 56.1399 41.9111 56.2831 43.0002 56.2831ZM31.4385 58.057L24.8893 64.417L24.8811 64.4244C24.5876 64.6886 24.1343 64.6773 23.8591 64.3938L21.4927 61.9563C21.2141 61.6694 21.2173 61.2039 21.5009 60.9233L28.071 54.5484L28.0848 54.5366C28.221 54.42 28.3914 54.3554 28.5707 54.3554L28.5827 54.3555C28.7798 54.3595 28.9676 54.4396 29.0995 54.5805L31.4661 57.0188C31.5977 57.157 31.6662 57.3373 31.6662 57.5271C31.6664 57.73 31.5871 57.9187 31.4385 58.057ZM27.1864 46.8134C26.1107 48.9668 23.9457 50.3097 21.5379 50.3097C18.0563 50.3097 15.2266 47.4818 15.2266 44C15.2266 40.5184 18.0566 37.6909 21.5379 37.6909C23.9455 37.6909 26.1107 39.0338 27.1864 41.1871C27.2468 41.3082 27.3652 41.3821 27.5007 41.3821H30.9776L30.8704 42.0596C30.7688 42.7016 30.7177 43.3507 30.7177 44.0006C30.7177 44.6503 30.7689 45.2994 30.8704 45.9411L30.9776 46.6186H27.5007C27.3652 46.6184 27.2468 46.6924 27.1864 46.8134ZM55.2829 44.0006C55.2829 43.3507 55.2317 42.7014 55.1302 42.0596L55.023 41.3821H57.2037C57.3436 41.3821 57.4698 41.296 57.5239 41.1673C58.6664 38.4409 61.3196 36.6793 64.2752 36.6793C66.4129 36.6793 68.4278 37.5969 69.8213 39.2156L70.6547 40.1838H63.409C63.2854 40.1838 63.1673 40.253 63.1055 40.3599L61.1032 43.8249C61.041 43.9325 61.041 44.0682 61.1032 44.1758L63.1055 47.6408C63.1671 47.7474 63.2857 47.8169 63.409 47.8169H70.655L69.821 48.7851C68.4273 50.4034 66.4125 51.3208 64.2749 51.3208C61.3197 51.3208 58.6663 49.5595 57.5236 46.8334C57.4697 46.7047 57.3434 46.6186 57.2035 46.6186H55.0227L55.13 45.9411C55.2317 45.2993 55.2829 44.6503 55.2829 44.0006Z" fill="#82A0FF"/>
<path fill-rule="evenodd" clip-rule="evenodd" d="M47.1762 41.6762C46.5474 42.3115 45.9186 42.9487 45.2897 43.5851C44.2527 44.6387 43.1772 45.7286 42.1127 46.7915C42.0299 46.8765 41.9307 46.8891 41.8755 46.8891C41.8258 46.8891 41.7265 46.8765 41.6438 46.7915L38.8252 43.9756C38.6983 43.846 38.6983 43.6342 38.8252 43.5045C38.9134 43.4195 39.0127 43.4069 39.0624 43.4069C39.112 43.4069 39.2113 43.4195 39.2996 43.5045L41.2136 45.4185C41.3901 45.5946 41.6273 45.6932 41.8755 45.6932C42.1292 45.6926 42.3664 45.5928 42.5429 45.4157L46.7073 41.2082C46.7901 41.1244 46.8893 41.1117 46.939 41.1112C46.9886 41.1067 47.088 41.1234 47.1762 41.2078C47.303 41.3363 47.303 41.5465 47.1762 41.6762ZM46.9335 39.2364C46.3434 39.2387 45.7918 39.4703 45.3725 39.8889L41.8698 43.4268L40.6233 42.1791C40.2041 41.7616 39.6525 41.5321 39.0623 41.5321C38.472 41.5321 37.915 41.7616 37.5012 42.1791C36.6407 43.0401 36.6407 44.4406 37.5012 45.3017L40.3143 48.117C40.7335 48.5345 41.2851 48.764 41.8754 48.764C42.4655 48.764 43.0226 48.5345 43.4418 48.117C44.5064 47.0497 45.582 45.9575 46.6245 44.9019C47.2533 44.2659 47.8766 43.6304 48.5055 42.9962C49.3605 42.1329 49.355 40.7347 48.4945 39.8786C48.0808 39.4644 47.5292 39.2365 46.939 39.2365H46.9335V39.2364ZM43.0006 51.6301C47.2093 51.6301 50.629 48.2075 50.629 44.0006C50.629 39.7931 47.2091 36.3699 43.0006 36.3699C38.792 36.3699 35.3721 39.7931 35.3721 44.0006C35.3721 48.2075 38.792 51.6301 43.0006 51.6301ZM43.0006 34.495C37.7605 34.495 33.4967 38.7594 33.4967 44.0006C33.4967 49.2412 37.7604 53.5055 43.0006 53.5055C48.2406 53.5055 52.5045 49.2412 52.5045 44.0006C52.5045 38.7594 48.2407 34.495 43.0006 34.495ZM64.2754 50.7349C61.5561 50.7349 59.118 49.1143 58.0645 46.6067C57.921 46.2586 57.5791 46.0325 57.2039 46.0325H55.7091C55.8139 45.37 55.8691 44.6916 55.8691 44.0004C55.8691 43.3088 55.8139 42.6303 55.7091 41.9678H57.2039C57.5791 41.9678 57.921 41.7417 58.0645 41.3936C59.118 38.8856 61.5561 37.265 64.2754 37.265C66.2721 37.265 68.1145 38.1304 69.3775 39.5976H63.4094C63.0784 39.5976 62.764 39.7757 62.5986 40.0665L60.5963 43.5315C60.4308 43.821 60.4308 44.1785 60.5963 44.4686L62.5986 47.9336C62.764 48.2238 63.0784 48.4025 63.4094 48.4025H69.3775C68.1145 49.8694 66.2721 50.7349 64.2754 50.7349ZM43.0006 54.9942C49.0626 54.9942 53.9937 50.0624 53.9937 44.0004C53.9937 37.938 49.0625 33.0062 43.0006 33.0062C36.9387 33.0062 32.0075 37.9379 32.0075 44.0004C32.0075 50.0624 36.9387 54.9942 43.0006 54.9942ZM46.3819 70.9389H39.6195V56.4179C40.695 56.7119 41.8313 56.869 43.0007 56.869C44.1701 56.869 45.3009 56.7119 46.3819 56.4179V70.9389ZM31.0367 57.6308L24.4893 63.9889C24.4286 64.0435 24.3348 64.0419 24.2798 63.9856L21.9134 61.5482C21.8582 61.492 21.8582 61.3944 21.9134 61.3397L28.4663 54.9816C28.505 54.9486 28.5435 54.9413 28.5711 54.9413C28.5986 54.9419 28.6428 54.9496 28.6758 54.9849L31.0422 57.4229C31.0752 57.4576 31.0807 57.499 31.0807 57.5271C31.0809 57.5558 31.0754 57.5967 31.0367 57.6308ZM33.8884 53.0819L31.5993 55.3053L30.8105 54.4906L33.1272 52.2434C33.3699 52.5336 33.6236 52.8138 33.8884 53.0819ZM27.501 46.0326C27.1425 46.0326 26.8226 46.2335 26.6625 46.5516C25.6863 48.5081 23.7225 49.7238 21.5383 49.7238C18.3776 49.7238 15.8127 47.1562 15.8127 44C15.8127 40.8444 18.3776 38.2767 21.5383 38.2767C23.7225 38.2767 25.6863 39.4924 26.6625 41.4488C26.8225 41.7671 27.1424 41.9678 27.501 41.9678H30.2921C30.1873 42.6303 30.1321 43.3087 30.1321 44.0004C30.1321 44.6916 30.1873 45.37 30.2921 46.0325H27.501V46.0326ZM41.6548 25.5576L40.2814 22.5697L41.55 17.0615H44.4514L45.72 22.5697L44.3466 25.5576C44.2859 25.6806 44.2584 25.8141 44.2584 25.9498V31.1927C43.8447 31.1525 43.4255 31.1315 43.0007 31.1315C42.576 31.1315 42.1568 31.1525 41.743 31.1927V25.9494C41.743 25.8141 41.7099 25.6806 41.6548 25.5576ZM71.1261 46.5279H63.95L62.4938 44L63.95 41.4726H71.1261C71.4515 41.4726 71.7549 41.3033 71.9259 41.0258C72.0913 40.7484 72.1078 40.402 71.959 40.1112C70.4863 37.1994 67.5408 35.3902 64.2754 35.3902C61.0155 35.3902 58.0645 37.2166 56.6028 40.0931H55.2624C53.9165 35.8795 50.458 32.603 46.1336 31.5181V26.1544L47.5567 23.0628C47.6395 22.8741 47.6615 22.6624 47.6174 22.4604L46.1116 15.9137C46.0123 15.4878 45.6317 15.1866 45.196 15.1866L40.8053 15.186C40.3695 15.186 39.989 15.4878 39.8896 15.9135L38.3838 22.4603C38.3342 22.6622 38.3562 22.874 38.4445 23.0627L39.8676 26.1543V31.518C35.5431 32.6035 32.0847 35.8794 30.7388 40.0929H28.0526C26.6847 37.8017 24.2356 36.4012 21.5384 36.4012C17.3464 36.4012 13.9375 39.8105 13.9375 43.9999C13.9375 48.1897 17.3463 51.5985 21.5384 51.5985C24.2356 51.5985 26.6847 50.1986 28.0526 47.9072H30.7388C31.0532 48.8968 31.489 49.8345 32.0185 50.7044L29.4039 53.2444C29.1557 53.133 28.88 53.0706 28.5986 53.0663C28.058 53.0592 27.5506 53.2605 27.1645 53.6361L20.6116 59.9942C19.8118 60.7708 19.7897 62.0533 20.5675 62.8536L22.9339 65.2917C23.331 65.6992 23.855 65.9044 24.3845 65.9044C24.892 65.9044 25.3995 65.7147 25.7911 65.3341L32.344 58.9765C32.7302 58.6014 32.9507 58.0962 32.9563 57.5556C32.9618 57.2743 32.9066 57.0018 32.8019 56.7503L35.3116 54.3151C36.0673 54.8765 36.8781 55.3576 37.744 55.7464V71.8764C37.744 72.3944 38.1632 72.8136 38.6818 72.8136H47.3196C47.8327 72.8136 48.2574 72.3944 48.2574 71.8764V55.7466C51.5724 54.2579 54.1429 51.4051 55.2626 47.9075H56.603C58.0647 50.784 61.0157 52.6103 64.2756 52.6103C67.5411 52.6103 70.4864 50.8011 71.9593 47.8893C72.1082 47.5987 72.0917 47.2523 71.9261 46.9748C71.7549 46.6973 71.4515 46.5279 71.1261 46.5279ZM22.7794 46.1512L24.0205 44L22.7794 41.8494H20.2918L19.0507 44L20.2918 46.1512H22.7794ZM24.1308 40.4428C23.9654 40.1526 23.6564 39.9739 23.32 39.9739H19.7513C19.4204 39.9739 19.1114 40.1526 18.9405 40.4428L17.1589 43.5316C16.9879 43.8212 16.9879 44.1786 17.1589 44.4687L18.9405 47.5577C19.1114 47.8478 19.4204 48.026 19.7513 48.026H23.32C23.6564 48.026 23.9654 47.8478 24.1308 47.5577L25.9124 44.4687C26.0834 44.1786 26.0834 43.8212 25.9124 43.5316L24.1308 40.4428Z" fill="#32589D"/>
<defs>
<linearGradient id="paint0_linear_307_6079" x1="16.5" y1="7.5" x2="67.5" y2="98.5" gradientUnits="userSpaceOnUse">
<stop stop-color="#F4F8FF"/>
<stop offset="1" stop-color="#AFBDD8"/>
</linearGradient>
</defs>
</svg>
