<svg width="17" height="17" viewBox="0 0 17 17" fill="none" xmlns="http://www.w3.org/2000/svg">
<g clip-path="url(#clip0_252_4377)">
<path d="M8.49935 0.885406C6.99333 0.885406 5.52113 1.33199 4.26892 2.1687C3.0167 3.0054 2.04072 4.19463 1.46439 5.58602C0.888065 6.9774 0.737271 8.50844 1.03108 9.98552C1.32489 11.4626 2.05011 12.8194 3.11503 13.8843C4.17995 14.9492 5.53674 15.6745 7.01382 15.9683C8.49091 16.2621 10.0219 16.1113 11.4133 15.5349C12.8047 14.9586 13.9939 13.9826 14.8306 12.7304C15.6673 11.4782 16.1139 10.006 16.1139 8.49999C16.1117 6.48117 15.3087 4.54568 13.8812 3.11815C12.4537 1.69063 10.5182 0.887656 8.49935 0.885406ZM1.94727 8.49999C1.94856 7.76641 2.07406 7.03834 2.31844 6.34666C2.7576 9.54124 5.55977 9.81112 5.68019 10.3204C5.7466 10.894 5.76319 11.4723 5.72977 12.0487C5.77935 13.0333 7.13935 13.0475 7.66352 13.8267C7.84775 14.1957 7.91943 14.6107 7.86964 15.0202C6.24941 14.862 4.74589 14.107 3.65134 12.9019C2.55679 11.6969 1.94941 10.1279 1.94727 8.49999ZM10.2773 14.8042C10.7596 13.2933 12.2082 12.7812 12.3555 11.9078C12.4738 11.2072 11.553 10.8453 10.7264 10.7468C9.89973 10.6484 10.0265 9.79412 9.44356 9.18849C8.8606 8.58287 8.48094 8.61616 7.6621 8.71887C6.84327 8.82157 6.14273 8.75428 5.91394 8.25066C5.68514 7.74703 5.97698 7.5062 5.37489 6.88216C5.29361 6.80427 5.23522 6.7056 5.20605 6.59687C5.17689 6.48814 5.17806 6.37349 5.20945 6.26538C5.24084 6.15727 5.30124 6.05982 5.38411 5.98362C5.46697 5.90741 5.56912 5.85536 5.67948 5.83311C6.10448 5.73041 6.86027 6.47062 7.30298 6.38349C8.63606 6.10866 7.03806 3.49774 9.04123 2.84182C9.40895 2.71622 9.71217 2.45043 9.88485 2.10232C11.0085 2.34764 12.0474 2.88519 12.8967 3.66066C13.1439 4.22849 13.2322 4.85278 13.1524 5.46691C12.8854 6.29353 12.2124 6.88853 12.9463 8.24074C13.712 9.65316 14.1844 9.84512 14.5287 9.45624C14.6633 9.30843 14.8317 9.19541 15.0196 9.12687C14.8916 10.4403 14.3706 11.6846 13.5246 12.6974C12.6786 13.7102 11.5469 14.4444 10.2773 14.8042Z" fill="#102140"/>
</g>
<defs>
<clipPath id="clip0_252_4377">
<rect width="17" height="17" fill="white"/>
</clipPath>
</defs>
</svg>
