<svg width="87" height="87" viewBox="0 0 87 87" fill="none" xmlns="http://www.w3.org/2000/svg">
<circle cx="43.5" cy="43.5" r="43.5" fill="url(#paint0_linear_276_6302)"/>
<path fill-rule="evenodd" clip-rule="evenodd" d="M29.6314 64.0937V65.6944C29.6314 66.5757 28.9101 67.2951 28.0307 67.2951H19.4698C18.5904 67.2951 17.8691 66.5757 17.8691 65.6944V64.0937H29.6314ZM20.0179 41.7715C21.1401 30.0024 31.0546 20.7309 43.089 20.6314C43.1542 20.6308 43.2194 20.6306 43.2848 20.6306C47.504 20.6306 51.4624 21.7486 54.8796 23.7046L62.8972 15.687C63.0381 15.5462 63.2298 15.4983 63.4186 15.5552C63.6103 15.6091 63.7451 15.7559 63.7871 15.9507L65.1353 22.2036L70.3062 23.3185L70.3066 23.3181L71.3881 23.5518C71.5829 23.5937 71.7298 23.7285 71.7867 23.9203C71.8406 24.109 71.7927 24.3009 71.6518 24.4416L63.6217 32.4746C65.5539 35.8758 66.6573 39.8091 66.6573 44.0002C66.6573 56.9104 56.1919 67.3729 43.2848 67.3729C38.2327 67.3729 33.5466 65.7562 29.7171 63.0139C30.1941 58.313 31.7958 56.809 32.7863 54.7244C35.4977 57.3792 39.2058 59.0198 43.2848 59.0198C51.557 59.0198 58.3042 52.2725 58.3042 44.0002C58.3042 35.731 51.557 28.9837 43.2848 28.9837C35.6248 28.9837 29.2726 34.7689 28.374 42.1908C26.9952 41.456 25.421 41.0396 23.7493 41.0396C22.4286 41.0396 21.1686 41.2998 20.0179 41.7715ZM43.2848 37.3369C43.6442 37.3369 43.9978 37.3639 44.3423 37.4208L44.3417 37.4209C47.5132 37.9298 49.9511 40.6895 49.9511 44.0002C49.9511 47.3137 47.5132 50.0737 44.3417 50.5825L44.3423 50.5827C43.9978 50.6396 43.6442 50.6665 43.2848 50.6665C39.6024 50.6665 36.6184 47.6824 36.6184 44.0002C36.6184 40.321 39.6024 37.3369 43.2848 37.3369ZM26.4416 69.6692V72.0971C26.4416 72.9766 25.7222 73.6978 24.8428 73.6978H22.7657C21.8843 73.6978 21.165 72.9766 21.165 72.0971V69.6692H26.4416Z" fill="#82A0FF"/>
<path fill-rule="evenodd" clip-rule="evenodd" d="M16.7097 63.7077C16.4445 59.2638 15.1726 57.5927 14.2033 55.8782C13.4498 54.5452 12.8516 53.1905 12.8516 50.84C12.8516 46.6874 15.2508 43.095 18.7388 41.3736C20.0968 29.187 30.4827 19.66 43.0166 19.66C47.1525 19.66 51.0537 20.6965 54.4739 22.5227L62.6986 14.2932C62.9504 14.0413 63.3197 13.9473 63.6613 14.0478C64.0029 14.1484 64.2622 14.4277 64.3372 14.7759C64.3372 14.7759 65.1123 18.372 65.5198 20.2626L66.6646 19.1178C67.0442 18.7383 67.6604 18.7383 68.04 19.1178C68.4196 19.4973 68.4196 20.1137 68.04 20.4932L66.8953 21.6379L72.382 22.8205C72.7301 22.8957 73.0093 23.1549 73.11 23.4965C73.2106 23.838 73.1165 24.2073 72.8648 24.459L64.6205 32.7032C66.4228 36.106 67.4448 39.9814 67.4448 44.0882C67.4448 57.5392 56.4731 68.5164 43.0166 68.5164C38.2772 68.5164 33.8448 67.1538 30.0913 64.8004L30.091 65.2357C30.091 66.2833 29.447 67.1858 28.5374 67.5689V68.3491C28.5374 69.4123 27.8715 70.3265 26.9391 70.6994V71.4625C26.9391 72.8503 25.8007 73.9918 24.413 73.9918H22.3908C21.0037 73.9918 19.8616 72.8497 19.8616 71.4625V70.699C18.9288 70.3259 18.2664 69.412 18.2664 68.3491V67.5698C17.3539 67.1871 16.7097 66.2839 16.7097 65.2357V63.7077ZM20.8026 40.6124C21.634 40.4017 22.505 40.2897 23.4019 40.2897C24.7659 40.2897 26.0695 40.5487 27.2662 41.0199C28.7057 33.6408 35.232 28.0424 43.0166 28.0424C47.1006 28.0424 50.8363 29.5812 53.6737 32.1088L54.5568 31.2257L53.1097 24.5172C53.0735 24.3489 53.083 24.1769 53.1334 24.0178C50.09 22.4752 46.6518 21.6051 43.0166 21.6051C31.8178 21.6051 22.482 29.8681 20.8026 40.6124ZM29.0788 41.9457C32.0094 43.8202 33.9522 47.1033 33.9522 50.84C33.9522 52.3188 33.7154 53.4033 33.3522 54.3364C35.8799 56.722 39.2835 58.189 43.0166 58.189C50.7836 58.189 57.1174 51.8503 57.1174 44.0882C57.1174 40.5669 55.8155 37.3402 53.6685 34.8647L49.1028 39.4305C50.0922 40.7213 50.6801 42.3361 50.6801 44.0882C50.6801 48.321 47.2494 51.7465 43.0166 51.7465C38.7836 51.7465 35.3583 48.3211 35.3583 44.0882C35.3583 39.8555 38.7839 36.4247 43.0166 36.4247C44.7959 36.4247 46.4334 37.0309 47.7341 38.0482L52.2967 33.4856C49.8139 31.3093 46.5649 29.9875 43.0166 29.9875C35.9821 29.9875 30.1165 35.1893 29.0788 41.9457ZM32.4483 56.1435C31.5956 57.6125 30.5708 59.1561 30.1933 62.536C33.8348 65.0778 38.2575 66.5713 43.0166 66.5713C55.4016 66.5713 65.4997 56.4681 65.4997 44.0882C65.4997 40.4774 64.6413 37.0608 63.1179 34.0326C62.9666 34.0757 62.8047 34.0823 62.6461 34.0481L55.9322 32.601L55.0458 33.4873C57.5438 36.3177 59.0625 40.0311 59.0625 44.0882C59.0625 52.9211 51.855 60.1341 43.0166 60.1341C38.9768 60.1341 35.2754 58.6259 32.4483 56.1435ZM28.1464 64.6515H18.6548V65.2357C18.6548 65.5573 18.9174 65.8199 19.2389 65.8199H27.5649C27.8847 65.8199 28.1459 65.5567 28.1459 65.2352L28.1464 64.6515ZM63.8829 21.8995L62.812 16.9313L55.1228 24.6249L56.1936 29.5889L63.8829 21.8995ZM57.5691 30.9641L62.538 32.035L70.2271 24.3459L65.2583 23.275L57.5691 30.9641ZM26.5923 67.7649H20.2114V68.3491C20.2114 68.6706 20.474 68.9332 20.7956 68.9332H26.0082C26.3285 68.9332 26.5923 68.6706 26.5923 68.3491V67.7649ZM24.994 70.8783H21.8067V71.4625C21.8067 71.7829 22.0705 72.0467 22.3908 72.0467H24.413C24.7328 72.0467 24.994 71.7823 24.994 71.4625V70.8783ZM46.3448 39.4375C45.4074 38.7654 44.2582 38.3698 43.0166 38.3698C39.8585 38.3698 37.3034 40.9301 37.3034 44.0882C37.3034 47.2461 39.8588 49.8014 43.0166 49.8014C46.1746 49.8014 48.735 47.2462 48.735 44.0882C48.735 42.8739 48.3565 41.748 47.7111 40.8221L43.7308 44.8025C43.3512 45.182 42.735 45.182 42.3554 44.8025C41.9759 44.4228 41.9759 43.8066 42.3554 43.427L46.3448 39.4375ZM26.0274 62.7064H28.2199C28.5506 59.1703 29.4944 57.3572 30.3814 55.8269C31.2089 54.3991 32.0071 53.2661 32.0071 50.84C32.0071 46.0876 28.1544 42.2348 23.4019 42.2348C18.6494 42.2348 14.7967 46.0876 14.7967 50.84C14.7967 53.2661 15.5949 54.3991 16.4224 55.8269C17.3094 57.3572 18.2532 59.1703 18.5839 62.7064H20.7764V54.1076H19.5213C17.7638 54.1076 16.3244 52.6683 16.3244 50.9107C16.3244 49.1489 17.7642 47.7106 19.5213 47.7106C21.2828 47.7106 22.7215 49.1493 22.7215 50.9107V52.1625H24.0823V50.9107C24.0823 49.1493 25.521 47.7106 27.2825 47.7106C29.0396 47.7106 30.4794 49.1489 30.4794 50.9107C30.4794 52.6683 29.04 54.1076 27.2825 54.1076H26.0274V62.7064ZM22.7215 62.7064H24.0823V54.1076H22.7215V62.7064ZM20.7764 52.1625V50.9107C20.7764 50.2199 20.2122 49.6557 19.5213 49.6557C18.8327 49.6557 18.2695 50.2203 18.2695 50.9107C18.2695 51.5989 18.8331 52.1625 19.5213 52.1625H20.7764ZM26.0274 52.1625H27.2825C27.9707 52.1625 28.5343 51.5989 28.5343 50.9107C28.5343 50.2203 27.9711 49.6557 27.2825 49.6557C26.5916 49.6557 26.0274 50.2199 26.0274 50.9107V52.1625Z" fill="#32589D"/>
<defs>
<linearGradient id="paint0_linear_276_6302" x1="16.5" y1="7.5" x2="67.5" y2="98.5" gradientUnits="userSpaceOnUse">
<stop stop-color="#F4F8FF"/>
<stop offset="1" stop-color="#AFBDD8"/>
</linearGradient>
</defs>
</svg>
