<svg width="87" height="87" viewBox="0 0 87 87" fill="none" xmlns="http://www.w3.org/2000/svg">
<circle cx="43.5" cy="43.5" r="43.5" fill="url(#paint0_linear_276_6266)"/>
<g clip-path="url(#clip0_276_6266)">
<path fill-rule="evenodd" clip-rule="evenodd" d="M46.5881 28.9606C48.1807 29.3396 49.7009 29.9698 51.0934 30.8278L54.021 29.5291L57.4702 32.9783L56.1715 35.9059C57.0295 37.2984 57.6597 38.8186 58.0387 40.4112L61.026 41.561V46.4412L58.0387 47.5909C57.6597 49.1814 57.0295 50.7015 56.1715 52.0941L57.4702 55.0217L54.021 58.473L51.0934 57.1722C49.7009 58.0302 48.1807 58.6625 46.5881 59.0415L45.4384 62.0267H40.5582L39.4084 59.0394C37.818 58.6604 36.2978 58.0302 34.9052 57.1722L31.9776 58.473L28.5263 55.0217L29.8271 52.0962C28.9691 50.7015 28.3368 49.1814 27.9578 47.5909L24.9727 46.4412V41.561L27.9578 40.4112C28.3368 38.8186 28.9691 37.2984 29.8271 35.9059L28.5263 32.9783L31.9776 29.5291L34.9031 30.8278C36.2978 29.9698 37.818 29.3396 39.4084 28.9606L40.5582 25.9733H45.4384L46.5881 28.9606ZM42.9982 32.4298C36.6096 32.4298 31.4291 37.6103 31.4291 44.0011C31.4291 50.3897 36.6096 55.5702 42.9982 55.5702C49.389 55.5702 54.5695 50.3897 54.5695 44.0011C54.5695 37.6103 49.389 32.4298 42.9982 32.4298Z" fill="#82A0FF"/>
<path fill-rule="evenodd" clip-rule="evenodd" d="M41.4828 45.02L47.1056 39.3384C47.7719 38.6688 48.8591 38.6654 49.5287 39.3315C50.1983 39.9977 50.2018 41.0816 49.5356 41.7546C47.2541 44.057 44.9897 46.373 42.6978 48.665C42.0282 49.3346 40.9409 49.3346 40.2713 48.665L36.471 44.8612C35.8013 44.1916 35.8013 43.1077 36.471 42.4346C37.1406 41.765 38.2278 41.765 38.8974 42.4346L41.4828 45.02Z" fill="#82A0FF"/>
<path fill-rule="evenodd" clip-rule="evenodd" d="M21.8447 23.2356C23.5877 23.2356 25.0089 21.8145 25.0089 20.0725C25.0089 18.3297 23.5877 16.9095 21.8447 16.9095C20.1029 16.9095 18.6816 18.3297 18.6816 20.0725C18.6816 21.8145 20.1029 23.2356 21.8447 23.2356Z" fill="#82A0FF"/>
<path fill-rule="evenodd" clip-rule="evenodd" d="M21.8447 65.5464C23.5877 65.5464 25.0089 64.1252 25.0089 62.3834C25.0089 60.6405 23.5877 59.2203 21.8447 59.2203C20.1029 59.2203 18.6816 60.6405 18.6816 62.3834C18.6816 64.1252 20.1029 65.5464 21.8447 65.5464Z" fill="#82A0FF"/>
<path fill-rule="evenodd" clip-rule="evenodd" d="M64.1552 23.2356C65.8981 23.2356 67.3193 21.8145 67.3193 20.0725C67.3193 18.3297 65.8981 16.9095 64.1552 16.9095C62.4134 16.9095 60.9922 18.3297 60.9922 20.0725C60.9922 21.8145 62.4134 23.2356 64.1552 23.2356Z" fill="#82A0FF"/>
<path fill-rule="evenodd" clip-rule="evenodd" d="M64.1552 65.5464C65.8981 65.5464 67.3193 64.1252 67.3193 62.3834C67.3193 60.6405 65.8981 59.2203 64.1552 59.2203C62.4134 59.2203 60.9922 60.6405 60.9922 62.3834C60.9922 64.1252 62.4134 65.5464 64.1552 65.5464Z" fill="#82A0FF"/>
<path fill-rule="evenodd" clip-rule="evenodd" d="M47.3419 28.1208C48.6769 28.4845 49.9587 29.0156 51.1612 29.7035L53.6144 28.6128C53.9942 28.444 54.4385 28.5264 54.7323 28.8202L58.1803 32.2682C58.4737 32.5617 58.5564 33.0053 58.3883 33.3846C58.3883 33.3846 57.3013 35.8385 57.3013 35.8384C57.9898 37.0417 58.5212 38.3248 58.885 39.6639L61.3871 40.6268C61.7747 40.776 62.0304 41.1485 62.0304 41.5637V46.4412C62.0304 46.8564 61.7747 47.2289 61.3871 47.3781C61.3871 47.3781 58.8845 48.3412 58.8845 48.3411C58.5201 49.676 57.9863 50.9579 57.3008 52.1604L58.3883 54.6153C58.5564 54.9947 58.4737 55.4383 58.1803 55.7318L54.7323 59.1798C54.4388 59.4732 53.9952 59.5559 53.6158 59.3878L51.1627 58.3012C49.9625 58.9892 48.6774 59.5205 47.3416 59.8842L46.3785 62.3866C46.2293 62.7742 45.8569 63.0299 45.4416 63.0299H40.5642C40.149 63.0299 39.7765 62.7742 39.6273 62.3866C39.6273 62.3866 38.6643 59.8844 38.6644 59.8844C37.3257 59.52 36.043 58.986 34.8401 58.3004L32.3851 59.3878C32.0058 59.5559 31.5622 59.4732 31.2686 59.1798L27.8207 55.7318C27.5269 55.438 27.4445 54.9937 27.6132 54.6139C27.6132 54.6139 28.7038 52.1614 28.7038 52.1615C28.0161 50.9617 27.4846 49.677 27.1178 48.3417L24.6139 47.3781C24.2263 47.2289 23.9705 46.8564 23.9705 46.4412V41.5637C23.9705 41.1485 24.2263 40.776 24.6139 40.6268C24.6139 40.6268 27.1174 39.6633 27.1174 39.6634C27.4842 38.3247 28.0158 37.0421 28.704 35.8392L27.6132 33.386C27.4445 33.0063 27.5269 32.5619 27.8207 32.2682L31.2686 28.8202C31.5624 28.5264 32.0068 28.444 32.3865 28.6128C32.3865 28.6128 34.8397 29.7035 34.8396 29.7035C36.0425 29.0155 37.3247 28.4843 38.6599 28.1206L39.6277 25.6125C39.777 25.2254 40.1492 24.97 40.5642 24.97H45.4416C45.8571 24.97 46.2297 25.226 46.3787 25.6139L47.3419 28.1208ZM45.6538 29.3253L44.7518 26.9779H41.2529L40.3466 29.3267C40.2275 29.6353 39.964 29.8654 39.6421 29.9419C38.1548 30.2955 36.7364 30.883 35.4327 31.6864C35.1506 31.8602 34.8008 31.8837 34.4981 31.749L32.2008 30.7275L29.728 33.2003L30.7495 35.4977C30.8841 35.8003 30.8607 36.1501 30.6869 36.4322C29.883 37.7366 29.2953 39.1559 28.937 40.6488C28.8599 40.9699 28.6297 41.2327 28.3214 41.3514L25.9784 42.2532V45.7518L28.3214 46.6535C28.6295 46.7721 28.8596 47.0346 28.9368 47.3555C29.2951 48.8433 29.8825 50.267 30.686 51.5665C30.8606 51.8488 30.8844 52.1991 30.7495 52.5023L29.728 54.7997L32.2015 57.2731L34.4994 56.2554C34.8011 56.1217 35.1491 56.1448 35.4304 56.3172C36.7348 57.1164 38.1538 57.7092 39.6464 58.0628C39.9689 58.1392 40.2328 58.3697 40.3519 58.6791L41.2537 61.0221H44.7523L45.654 58.6791C45.7729 58.37 46.0366 58.1395 46.3588 58.0629C47.8457 57.7095 49.2683 57.1224 50.567 56.3194C50.8489 56.1451 51.1986 56.1211 51.5016 56.2554L53.7994 57.2731L56.2736 54.7989L55.2559 52.5011C55.1222 52.1994 55.1453 51.8514 55.3177 51.5701C56.1168 50.2656 56.7098 48.8465 57.0634 47.3584C57.14 47.0361 57.3705 46.7724 57.6796 46.6535L60.0226 45.7518V42.2532L57.6796 41.3514C57.3702 41.2323 57.1397 40.9684 57.0633 40.6459C56.7098 39.1541 56.1222 37.7358 55.319 36.4322C55.1454 36.1505 55.1218 35.8013 55.2559 35.4989L56.2736 33.2011L53.8002 30.7275L51.5028 31.749C51.2001 31.8837 50.8504 31.8602 50.5683 31.6864C49.2646 30.883 47.8462 30.2955 46.3588 29.9419C46.0365 29.8653 45.7727 29.6346 45.6538 29.3253ZM43.0022 56.5723C36.0774 56.5723 30.4281 50.9265 30.4281 44.0017C30.4281 37.0769 36.0774 31.4276 43.0022 31.4276C49.927 31.4276 55.5728 37.0769 55.5728 44.0017C55.5728 50.9267 49.9272 56.5723 43.0022 56.5723ZM43.0022 54.5645C48.8211 54.5645 53.565 49.8206 53.565 44.0017C53.565 38.1828 48.8211 33.4355 43.0022 33.4355C37.1833 33.4355 32.436 38.1828 32.436 44.0017C32.436 49.8206 37.1833 54.5645 43.0022 54.5645ZM41.4798 43.5965L46.3927 38.6323L46.3946 38.6304C47.4511 37.5684 49.1755 37.5633 50.2375 38.6198C51.2989 39.6758 51.3058 41.3939 50.2498 42.4609L50.2494 42.4614C47.9668 44.7647 45.7014 47.0819 43.4083 49.3749C42.3469 50.4363 40.6234 50.4363 39.562 49.3749L35.7617 45.5711C34.7008 44.5101 34.6989 42.793 35.7598 41.7266L35.7617 41.7247C36.8231 40.6633 38.5466 40.6633 39.608 41.7247L41.4798 43.5965ZM40.7735 45.7299L38.1882 43.1445C37.9107 42.8669 37.4602 42.8667 37.1824 43.1436C36.9049 43.4235 36.9034 43.8732 37.1815 44.1513L40.9818 47.9551C41.2597 48.2329 41.7107 48.2329 41.9885 47.9551C44.2793 45.6644 46.5424 43.3494 48.8228 41.0485C49.0992 40.7692 49.0992 40.3196 48.8213 40.0433C48.5443 39.7676 48.0942 39.7692 47.8184 40.046L42.197 45.7261C42.0091 45.9161 41.7532 46.0231 41.4861 46.0239C41.2189 46.0245 40.9625 45.9187 40.7735 45.7299ZM21.8451 12.8784C27.3498 12.8784 31.8113 17.3398 31.8113 22.8446C31.8113 28.3494 27.3498 32.8108 21.8451 32.8108C16.3403 32.8108 11.8789 28.3494 11.8789 22.8446C11.8789 17.3398 16.3403 12.8784 21.8451 12.8784ZM28.5385 27.1517C29.339 25.9102 29.8034 24.4317 29.8034 22.8446C29.8034 18.4488 26.2408 14.8863 21.8451 14.8863C17.4493 14.8863 13.8867 18.4488 13.8867 22.8446C13.8867 24.4317 14.3512 25.9102 15.1516 27.1517C15.8533 25.4858 17.1583 24.1364 18.7925 23.3774C18.1006 22.6325 17.6761 21.6359 17.6761 20.5447C17.6761 18.251 19.5514 16.3757 21.8451 16.3757C24.1387 16.3757 26.0141 18.251 26.0141 20.5447C26.0141 21.6359 25.5896 22.6325 24.8975 23.3774C26.5318 24.1364 27.8367 25.4858 28.5385 27.1517ZM16.698 28.9149C18.0857 30.0925 19.8823 30.8029 21.8451 30.8029C23.8079 30.8029 25.6045 30.0925 26.9921 28.9149C26.5047 26.5178 24.3848 24.7136 21.8451 24.7136C19.3053 24.7136 17.1854 26.5178 16.698 28.9149ZM21.8451 22.7058C23.0341 22.7058 24.0063 21.7338 24.0063 20.5447C24.0063 19.3557 23.0341 18.3835 21.8451 18.3835C20.6561 18.3835 19.6839 19.3557 19.6839 20.5447C19.6839 21.7338 20.6561 22.7058 21.8451 22.7058ZM64.1559 12.8784C69.6606 12.8784 74.122 17.3398 74.122 22.8446C74.122 28.3494 69.6606 32.8108 64.1559 32.8108C58.6511 32.8108 54.1897 28.3494 54.1897 22.8446C54.1897 17.3398 58.6511 12.8784 64.1559 12.8784ZM70.8494 27.1517C71.6498 25.9102 72.1142 24.4317 72.1142 22.8446C72.1142 18.4488 68.5517 14.8863 64.1559 14.8863C59.7602 14.8863 56.1975 18.4488 56.1975 22.8446C56.1975 24.4317 56.662 25.9102 57.4625 27.1517C58.1642 25.4858 59.4692 24.1364 61.1034 23.3774C60.4114 22.6325 59.9868 21.6359 59.9868 20.5447C59.9868 18.251 61.8623 16.3757 64.1559 16.3757C66.4496 16.3757 68.3249 18.251 68.3249 20.5447C68.3249 21.6359 67.9004 22.6325 67.2084 23.3774C68.8427 24.1364 70.1476 25.4858 70.8494 27.1517ZM59.0089 28.9149C60.3964 30.0925 62.1931 30.8029 64.1559 30.8029C66.1187 30.8029 67.9153 30.0925 69.303 28.9149C68.8156 26.5178 66.6957 24.7136 64.1559 24.7136C61.6162 24.7136 59.4963 26.5178 59.0089 28.9149ZM64.1559 22.7058C65.3449 22.7058 66.3171 21.7338 66.3171 20.5447C66.3171 19.3557 65.3449 18.3835 64.1559 18.3835C62.9668 18.3835 61.9947 19.3557 61.9947 20.5447C61.9947 21.7338 62.9668 22.7058 64.1559 22.7058ZM64.1559 55.1892C69.6606 55.1892 74.122 59.6506 74.122 65.1554C74.122 70.6601 69.6606 75.1216 64.1559 75.1216C58.6511 75.1216 54.1897 70.6601 54.1897 65.1554C54.1897 59.6506 58.6511 55.1892 64.1559 55.1892ZM70.8494 69.4625C71.6498 68.221 72.1142 66.7426 72.1142 65.1554C72.1142 60.7597 68.5517 57.197 64.1559 57.197C59.7602 57.197 56.1975 60.7597 56.1975 65.1554C56.1975 66.7426 56.662 68.221 57.4625 69.4625C58.1642 67.7967 59.4692 66.4472 61.1034 65.6882C60.4114 64.9433 59.9868 63.9468 59.9868 62.8555C59.9868 60.5618 61.8623 58.6865 64.1559 58.6865C66.4496 58.6865 68.3249 60.5618 68.3249 62.8555C68.3249 63.9468 67.9004 64.9433 67.2084 65.6882C68.8427 66.4472 70.1476 67.7967 70.8494 69.4625ZM59.0089 71.2257C60.3964 72.4034 62.1931 73.1137 64.1559 73.1137C66.1187 73.1137 67.9153 72.4034 69.303 71.2257C68.8156 68.8287 66.6957 67.0246 64.1559 67.0246C61.6162 67.0246 59.4963 68.8287 59.0089 71.2257ZM64.1559 65.0167C65.3449 65.0167 66.3171 64.0445 66.3171 62.8555C66.3171 61.6665 65.3449 60.6943 64.1559 60.6943C62.9668 60.6943 61.9947 61.6665 61.9947 62.8555C61.9947 64.0445 62.9668 65.0167 64.1559 65.0167ZM21.8451 55.1892C27.3498 55.1892 31.8113 59.6506 31.8113 65.1554C31.8113 70.6601 27.3498 75.1216 21.8451 75.1216C16.3403 75.1216 11.8789 70.6601 11.8789 65.1554C11.8789 59.6506 16.3403 55.1892 21.8451 55.1892ZM28.5385 69.4625C29.339 68.221 29.8034 66.7426 29.8034 65.1554C29.8034 60.7597 26.2408 57.197 21.8451 57.197C17.4493 57.197 13.8867 60.7597 13.8867 65.1554C13.8867 66.7426 14.3512 68.221 15.1516 69.4625C15.8533 67.7967 17.1583 66.4472 18.7925 65.6882C18.1006 64.9433 17.6761 63.9468 17.6761 62.8555C17.6761 60.5618 19.5514 58.6865 21.8451 58.6865C24.1387 58.6865 26.0141 60.5618 26.0141 62.8555C26.0141 63.9468 25.5896 64.9433 24.8975 65.6882C26.5318 66.4472 27.8367 67.7967 28.5385 69.4625ZM16.698 71.2257C18.0857 72.4034 19.8823 73.1137 21.8451 73.1137C23.8079 73.1137 25.6045 72.4034 26.9921 71.2257C26.5047 68.8287 24.3848 67.0246 21.8451 67.0246C19.3053 67.0246 17.1854 68.8287 16.698 71.2257ZM21.8451 65.0167C23.0341 65.0167 24.0063 64.0445 24.0063 62.8555C24.0063 61.6665 23.0341 60.6943 21.8451 60.6943C20.6561 60.6943 19.6839 61.6665 19.6839 62.8555C19.6839 64.0445 20.6561 65.0167 21.8451 65.0167ZM17.1026 38.4139C16.7153 40.215 16.5115 42.0839 16.5115 44C16.5115 46.9416 16.9919 49.7718 17.8786 52.4165C18.0548 52.9418 17.7713 53.5113 17.246 53.6875C16.7206 53.8636 16.1511 53.5802 15.9749 53.0547C15.0209 50.2096 14.5037 47.1647 14.5037 44C14.5037 41.8785 14.7362 39.8107 15.1768 37.821L15.0241 37.9349C14.5798 38.266 13.9502 38.1742 13.6191 37.73C13.288 37.2858 13.3798 36.6562 13.824 36.325L16.3268 34.4595C16.5769 34.273 16.8995 34.2135 17.1997 34.2982C17.4999 34.383 17.7437 34.6025 17.8593 34.8923L19.016 37.7916C19.2213 38.3062 18.9702 38.8908 18.4556 39.0961C17.941 39.3015 17.3564 39.0504 17.1511 38.5358L17.1026 38.4139ZM49.1805 16.1753L49.0667 16.0226C48.7355 15.5783 48.8272 14.9488 49.2715 14.6176C49.7157 14.2865 50.3453 14.3783 50.6765 14.8225L52.542 17.3253C52.7285 17.5754 52.7881 17.898 52.7033 18.1982C52.6184 18.4984 52.3989 18.7421 52.1092 18.8578L49.2099 20.0145C48.6952 20.2198 48.1107 19.9687 47.9054 19.4541C47.7001 18.9395 47.9512 18.3549 48.4658 18.1496L48.5876 18.1011C46.7865 17.7138 44.9176 17.51 43.0015 17.51C40.0599 17.51 37.2297 17.9904 34.585 18.8771C34.0597 19.0533 33.4902 18.7698 33.314 18.2445C33.1378 17.7191 33.4214 17.1496 33.9467 16.9734C36.7918 16.0194 39.8367 15.5022 43.0015 15.5022C45.123 15.5022 47.1907 15.7346 49.1805 16.1753ZM68.9005 49.5861C69.2877 47.785 69.4915 45.9161 69.4915 44C69.4915 41.0584 69.0112 38.2282 68.1244 35.5835C67.9482 35.0582 68.2317 34.4887 68.757 34.3125C69.2824 34.1363 69.8519 34.4198 70.0281 34.9452C70.982 37.7904 71.4993 40.8353 71.4993 44C71.4993 46.1215 71.2669 48.1892 70.8262 50.179L70.9789 50.0651C71.4231 49.734 72.0527 49.8257 72.3839 50.27C72.715 50.7142 72.6232 51.3438 72.179 51.675L69.6762 53.5405C69.4261 53.727 69.1034 53.7865 68.8033 53.7018C68.5031 53.6169 68.2594 53.3974 68.1437 53.1077L66.9869 50.2084C66.7816 49.6937 67.0327 49.1092 67.5474 48.9039C68.062 48.6985 68.6465 48.9496 68.8518 49.4642L68.9005 49.5861ZM37.4154 69.8989C39.2164 70.2862 41.0854 70.49 43.0015 70.49C45.9431 70.49 48.7734 70.0096 51.418 69.1229C51.9433 68.9467 52.5128 69.2302 52.6889 69.7555C52.8651 70.2809 52.5817 70.8504 52.0562 71.0266C49.2111 71.9805 46.1662 72.4978 43.0015 72.4978C40.8799 72.4978 38.8122 72.2654 36.8225 71.8247L36.9364 71.9774C37.2675 72.4216 37.1757 73.0512 36.7315 73.3824C36.2873 73.7134 35.6577 73.6217 35.3266 73.1775L33.461 70.6747C33.2745 70.4246 33.215 70.102 33.2997 69.8018C33.3845 69.5016 33.6041 69.2579 33.8938 69.1422L36.7931 67.9854C37.3077 67.7801 37.8923 68.0312 38.0976 68.5459C38.303 69.0605 38.0519 69.645 37.5373 69.8503L37.4154 69.8989Z" fill="#32589D"/>
</g>
<defs>
<linearGradient id="paint0_linear_276_6266" x1="16.5" y1="7.5" x2="67.5" y2="98.5" gradientUnits="userSpaceOnUse">
<stop stop-color="#F4F8FF"/>
<stop offset="1" stop-color="#AFBDD8"/>
</linearGradient>
<clipPath id="clip0_276_6266">
<rect width="64" height="64" fill="white" transform="translate(11 12)"/>
</clipPath>
</defs>
</svg>
