<svg width="87" height="87" viewBox="0 0 87 87" fill="none" xmlns="http://www.w3.org/2000/svg">
<circle cx="43.5" cy="43.5" r="43.5" fill="url(#paint0_linear_276_6282)"/>
<g clip-path="url(#clip0_276_6282)">
<path fill-rule="evenodd" clip-rule="evenodd" d="M57.6971 50.7072C57.6261 50.8274 57.6141 50.972 57.6629 51.1027L60.2444 58.0102L53.337 55.4275C53.2065 55.3787 53.0611 55.3919 52.9411 55.4627C50.8773 56.682 48.5171 57.3223 46.1199 57.3223C45.2962 57.3223 44.4734 57.2441 43.6636 57.0944L41.2891 56.6556L43.6583 56.1889C50.3657 54.8679 55.2373 48.9489 55.2373 42.1015C55.2373 38.5972 53.9676 35.2474 51.6512 32.6195L50.0537 30.8069L52.2063 31.904C56.6996 34.1938 59.5554 38.8293 59.5554 43.8856C59.5554 46.2829 58.9162 48.643 57.6971 50.7072Z" fill="#82A0FF"/>
<path fill-rule="evenodd" clip-rule="evenodd" d="M34.7297 37.7064H47.031C47.5391 37.7064 47.9527 37.2934 47.9527 36.7847C47.9527 36.2755 47.5391 35.8626 47.031 35.8626H34.7297C34.2201 35.8626 33.8075 36.2756 33.8075 36.7847C33.8076 37.2934 34.2201 37.7064 34.7297 37.7064ZM34.7297 48.341H47.031C47.5391 48.341 47.9527 47.9269 47.9527 47.4188C47.9527 46.9096 47.5391 46.4966 47.031 46.4966H34.7297C34.2201 46.4966 33.8075 46.9096 33.8075 47.4188C33.8076 47.927 34.2201 48.341 34.7297 48.341ZM34.7297 43.0232H47.031C47.5391 43.0232 47.9527 42.6108 47.9527 42.1015C47.9527 41.5923 47.5391 41.1799 47.031 41.1799H34.7297C34.2201 41.1799 33.8075 41.5923 33.8075 42.1015C33.8076 42.6108 34.2201 43.0232 34.7297 43.0232ZM27.5414 55.4403L29.7689 49.4795C29.8667 49.2192 29.8412 48.9274 29.6999 48.6878C28.5255 46.7005 27.9054 44.4225 27.9054 42.1015C27.9054 34.947 33.7259 29.1264 40.8796 29.1264C48.0347 29.1264 53.8547 34.9469 53.8547 42.1015C53.8547 49.2556 48.0347 55.0761 40.8796 55.0761C38.5586 55.0761 36.2817 54.4566 34.2928 53.2823C34.0532 53.1404 33.7629 53.1148 33.501 53.2116L27.5414 55.4403ZM51.9974 32.3147C56.2371 34.4753 59.0949 38.8917 59.0949 43.8856C59.0949 46.2065 58.4748 48.4839 57.3006 50.4729C57.1587 50.7124 57.1337 51.0027 57.2316 51.2641L59.459 57.2242L53.4989 54.9957C53.2375 54.899 52.9468 54.924 52.7071 55.0658C50.7187 56.2401 48.4412 56.8612 46.1203 56.8612C45.3209 56.8612 44.527 56.7852 43.7478 56.6411C50.5513 55.3011 55.6986 49.2915 55.6986 42.1014C55.6986 38.3537 54.2999 34.9268 51.9974 32.3147ZM25.1053 56.6895L27.8914 49.2387C26.6932 47.0606 26.0617 44.6028 26.0617 42.1014C26.0617 33.93 32.7082 27.2825 40.8796 27.2825C43.5325 27.2825 46.0247 27.9835 48.1809 29.21C55.4659 30.2241 60.9388 36.5016 60.9388 43.8856C60.9388 46.387 60.3073 48.8442 59.1085 51.0223L61.8951 58.4736C62.0206 58.8121 61.9385 59.1925 61.6832 59.448C61.5065 59.6247 61.2718 59.7181 61.0305 59.7181C60.9224 59.7181 60.8126 59.6997 60.7077 59.6605L53.2569 56.8739C51.0788 58.0738 48.621 58.7052 46.1202 58.7052C43.5493 58.7052 41.0245 58.0357 38.8032 56.7728C37.0305 56.5223 35.3139 55.9544 33.7435 55.0904L26.2922 57.8764C26.1873 57.9156 26.0775 57.934 25.9694 57.934C25.7287 57.934 25.4934 57.8406 25.3173 57.6645C25.0613 57.4085 24.9798 57.0281 25.1053 56.6895ZM71.7169 58.1231C72.2113 57.9943 72.7168 58.2889 72.8418 58.7812C72.9722 59.2747 72.6787 59.7779 72.1843 59.9072L66.5763 61.3728C66.5002 61.3923 66.4242 61.4026 66.3481 61.4026C66.1633 61.4026 65.984 61.3472 65.8264 61.2434C65.6091 61.0939 65.4624 60.8575 65.4297 60.5934L64.7183 54.8414C64.6563 54.3365 65.0156 53.8769 65.5221 53.8133C66.0274 53.7508 66.484 54.1105 66.5492 54.6153L66.9568 57.9317C69.6304 53.599 71.0432 48.6148 71.0432 43.5003C71.0432 28.3144 58.687 15.9594 43.5001 15.9594C36.7601 15.9594 30.275 18.4194 25.2365 22.8862C24.8555 23.2236 24.2735 23.1889 23.9345 22.808C23.5971 22.427 23.6329 21.8445 24.0127 21.5065C29.3885 16.7403 36.3095 14.1156 43.5 14.1156C51.3486 14.1156 58.7281 17.1723 64.2781 22.7222C69.8313 28.2721 72.8853 35.6512 72.8853 43.5004C72.8853 48.984 71.3638 54.3285 68.4836 58.9676L71.7169 58.1231ZM63.0656 64.1904C63.4036 64.5719 63.3678 65.1538 62.9874 65.4913C57.6119 70.2599 50.6904 72.8846 43.4999 72.8846C35.6513 72.8846 28.2718 69.8284 22.7219 64.2791C17.1715 58.7279 14.1152 51.3494 14.1152 43.5004C14.1152 38.0151 15.6352 32.6711 18.5115 28.0336L15.2815 28.878C14.7881 29.0069 14.2849 28.7123 14.1566 28.2195C14.0278 27.7266 14.3229 27.2234 14.8147 27.0946L20.4222 25.6284C20.6793 25.561 20.9531 25.6083 21.1732 25.7577C21.3927 25.9066 21.5378 26.1435 21.57 26.4077L22.2824 32.1592C22.3442 32.6645 21.9846 33.1243 21.4803 33.1874C21.4423 33.1917 21.4043 33.1944 21.3662 33.1944C20.9076 33.1944 20.5098 32.852 20.4522 32.3852L20.042 29.066C17.3711 33.3975 15.9593 38.3829 15.9593 43.5003C15.9593 58.6865 28.314 71.0406 43.5002 71.0406C50.2391 71.0406 56.7259 68.5806 61.764 64.112C62.1452 63.7741 62.7271 63.8089 63.0656 64.1904Z" fill="#32589D"/>
</g>
<defs>
<linearGradient id="paint0_linear_276_6282" x1="16.5" y1="7.5" x2="67.5" y2="98.5" gradientUnits="userSpaceOnUse">
<stop stop-color="#F4F8FF"/>
<stop offset="1" stop-color="#AFBDD8"/>
</linearGradient>
<clipPath id="clip0_276_6282">
<rect width="59" height="59" fill="white" transform="translate(14 14)"/>
</clipPath>
</defs>
</svg>
