<svg width="87" height="87" viewBox="0 0 87 87" fill="none" xmlns="http://www.w3.org/2000/svg">
<circle cx="43.5" cy="43.5" r="43.5" fill="url(#paint0_linear_276_6312)"/>
<path fill-rule="evenodd" clip-rule="evenodd" d="M40.0832 36.651C40.0832 33.0862 37.1823 30.1847 33.6173 30.1847C30.0521 30.1847 27.152 33.0858 27.152 36.651C27.152 40.2161 30.0523 43.1158 33.6173 43.1158C37.1819 43.1158 40.0832 40.216 40.0832 36.651ZM24.7897 31.2273C24.8746 31.0894 24.8869 30.9167 24.8211 30.7685L24.0449 29.0224L25.9894 27.079L27.7345 27.8536C27.8835 27.9197 28.0545 27.9085 28.1933 27.823C29.1272 27.2472 30.145 26.8256 31.2123 26.572C31.3695 26.5345 31.4985 26.4202 31.5566 26.2695L32.2427 24.489H34.9925L35.6774 26.2699C35.7355 26.421 35.865 26.5345 36.0227 26.572C37.0902 26.8254 38.1082 27.2471 39.0422 27.823C39.1802 27.908 39.3515 27.9192 39.4995 27.8536L41.2458 27.079L43.1887 29.0224L42.4141 30.7682C42.3483 30.9165 42.3587 31.0888 42.444 31.2271C43.0196 32.1606 43.4415 33.1777 43.6958 34.2444C43.7334 34.4023 43.8461 34.5325 43.9977 34.5907L45.7791 35.2755V38.0247L43.9981 38.711C43.8472 38.7692 43.7333 38.8983 43.6959 39.0558C43.4423 40.1235 43.0211 41.1416 42.4452 42.0759C42.3603 42.2137 42.3485 42.3856 42.4142 42.5335L43.1888 44.2793L41.2456 46.2228L39.4992 45.4467C39.3511 45.3809 39.1782 45.3928 39.0403 45.4777C38.1066 46.0522 37.0895 46.4742 36.0233 46.7284C35.8655 46.766 35.7358 46.879 35.6776 47.0305L34.9928 48.8128H32.2428L31.5567 47.0321C31.4986 46.8813 31.3697 46.767 31.2124 46.7297C30.1442 46.4759 29.1265 46.0537 28.1918 45.4776C28.055 45.3933 27.8819 45.3815 27.735 45.4467L25.9898 46.2228L24.0452 44.2794L24.8212 42.532C24.8871 42.3836 24.8747 42.2122 24.7897 42.0741C24.2155 41.14 23.7925 40.124 23.5383 39.0573C23.5007 38.8994 23.389 38.7695 23.2374 38.711L21.455 38.0248V35.2755L23.2377 34.5907C23.3893 34.5323 23.5008 34.402 23.5383 34.2444C23.7923 33.178 24.2151 32.161 24.7897 31.2273ZM18.6126 52.2755C18.6126 53.4493 17.6576 54.4043 16.4838 54.4043C15.3102 54.4043 14.3555 53.449 14.3555 52.2755C14.3555 51.1013 15.3097 50.1466 16.4838 50.1466C17.6582 50.1466 18.6126 51.101 18.6126 52.2755ZM33.6172 60.5725C34.7907 60.5725 35.7456 61.5277 35.7456 62.7011C35.7456 63.8746 34.7908 64.8298 33.6172 64.8298C32.4434 64.8298 31.4884 63.8748 31.4884 62.7011C31.4884 61.5274 32.4435 60.5725 33.6172 60.5725ZM44.4994 49.4219C44.4994 50.5954 45.4541 51.5507 46.6277 51.5507C47.8022 51.5507 48.7567 50.5962 48.7567 49.4219C48.7567 48.2469 47.8027 47.2933 46.6277 47.2933C45.4536 47.2933 44.4994 48.2478 44.4994 49.4219ZM50.9478 37.1224C50.9478 35.9476 51.902 34.9935 53.0766 34.9935C54.2511 34.9935 55.2043 35.948 55.2043 37.1224C55.2043 38.296 54.2503 39.2508 53.0766 39.2508C51.9027 39.2508 50.9478 38.2962 50.9478 37.1224ZM68.1512 53.6399C69.3247 53.6399 70.28 54.5951 70.28 55.7688C70.28 56.9429 69.3252 57.8975 68.1512 57.8975C66.9765 57.8975 66.0229 56.9434 66.0229 55.7688C66.0229 54.5948 66.977 53.6399 68.1512 53.6399ZM68.1757 41.2997C68.1757 40.1259 69.1313 39.1721 70.3046 39.1721C71.478 39.1721 72.4336 40.1261 72.4336 41.2997C72.4336 42.4738 71.4788 43.4283 70.3046 43.4283C69.1305 43.4283 68.1757 42.4739 68.1757 41.2997ZM66.0229 26.8319C66.0229 25.6573 66.9765 24.7031 68.1512 24.7031C69.3252 24.7031 70.28 25.6577 70.28 26.8319C70.28 28.0054 69.3244 28.9605 68.1512 28.9605C66.9772 28.9604 66.0229 28.0058 66.0229 26.8319ZM57.5101 57.3498V59.0763C57.5101 60.0277 56.7364 60.8011 55.7849 60.8011H43.9195C42.9684 60.8011 42.1931 60.0275 42.1931 59.0763V57.3498H57.5101ZM55.293 61.7856V63.5122C55.293 64.464 54.5183 65.2384 53.5667 65.2384H46.1384C45.1863 65.2384 44.412 64.4642 44.412 63.5122V61.7856H55.293ZM53.018 66.2228V67.9492C53.018 68.9016 52.2431 69.6743 51.2911 69.6743H48.4131C47.4611 69.6743 46.6868 68.9014 46.6868 67.9492V66.2228H53.018Z" fill="#82A0FF"/>
<path fill-rule="evenodd" clip-rule="evenodd" d="M33.6172 41.6393C30.8655 41.6393 28.6289 39.4023 28.6289 36.651C28.6289 33.8995 30.8657 31.6613 33.6172 31.6613C36.3683 31.6613 38.6062 33.8995 38.6062 36.651C38.6062 39.4023 36.3683 41.6393 33.6172 41.6393ZM33.6172 29.6927C29.7803 29.6927 26.6597 32.8144 26.6597 36.6511C26.6597 40.4876 29.7803 43.6082 33.6172 43.6082C37.4536 43.6082 40.5753 40.4877 40.5753 36.6511C40.5754 32.8143 37.4536 29.6927 33.6172 29.6927ZM59.2958 22.5561L60.9024 19.7715C61.1746 19.3004 61.7763 19.1391 62.2478 19.4109C62.7187 19.6828 62.8796 20.2846 62.6081 20.7559L60.9997 23.5405C60.8178 23.8568 60.4866 24.0325 60.1472 24.0325C59.9799 24.0325 59.8113 23.9907 59.6562 23.9009C59.1851 23.6288 59.0236 23.0272 59.2958 22.5561ZM37.0969 20.7559C36.8247 20.2846 36.9856 19.6828 37.4571 19.4109C37.9274 19.1403 38.5304 19.3003 38.8019 19.7715L40.4092 22.5561C40.6807 23.0272 40.5198 23.6288 40.0489 23.9007C39.8936 23.9906 39.7251 24.0324 39.5577 24.0324C39.2177 24.0324 38.887 23.8566 38.7034 23.5403L37.0969 20.7559ZM48.8673 20.2893V17.0743C48.8673 16.5305 49.3093 16.0902 49.8519 16.0902C50.3958 16.0902 50.8359 16.5305 50.8359 17.0743V20.2894C50.8359 20.8333 50.3958 21.2738 49.8519 21.2738C49.3092 21.2737 48.8673 20.8333 48.8673 20.2893ZM55.7849 60.3091H43.9195C43.2395 60.3091 42.6853 59.7555 42.6853 59.0764V57.842H57.0179V59.0764C57.0179 59.7555 56.4653 60.3091 55.7849 60.3091ZM53.5667 64.7463H46.1384C45.4578 64.7463 44.9042 64.1924 44.9042 63.5121V62.2777H54.801V63.5121C54.8009 64.1924 54.2465 64.7463 53.5667 64.7463ZM51.2911 69.1821H48.4131C47.7327 69.1821 47.179 68.6296 47.179 67.9491V66.7149H52.5258V67.9491C52.5258 68.6296 51.9716 69.1821 51.2911 69.1821ZM35.909 46.2499C36.9242 46.0087 37.8915 45.6076 38.7822 45.0588C39.0591 44.8891 39.4025 44.8656 39.6991 44.9972L41.1365 45.636L42.6017 44.1704L41.9641 42.7333C41.8326 42.4368 41.8546 42.0936 42.026 41.8177C42.5745 40.9256 42.9758 39.9585 43.2169 38.9422C43.2922 38.6271 43.5186 38.3687 43.8209 38.2519L45.2867 37.687V35.6138L43.8209 35.0503C43.5186 34.9334 43.292 34.675 43.2169 34.3587C42.9747 33.3436 42.5745 32.3764 42.0249 31.4855C41.8546 31.2087 41.8315 30.8653 41.9641 30.5688L42.6017 29.1318L41.1365 27.6662L39.6991 28.3037C39.4025 28.4354 39.0602 28.4132 38.784 28.2422C37.8926 27.6934 36.9255 27.2923 35.909 27.0511C35.5934 26.9759 35.3345 26.7495 35.2181 26.4468L34.6545 24.9815H32.5806L32.0159 26.4468C31.8995 26.7495 31.6406 26.9759 31.3261 27.0511C30.3097 27.2923 29.3425 27.6934 28.4517 28.2422C28.1749 28.4132 27.8327 28.4365 27.5349 28.3037L26.0986 27.6662L24.6321 29.1318L25.271 30.5688C25.4024 30.8654 25.3792 31.2089 25.2089 31.4855C24.6605 32.3764 24.2591 33.3436 24.017 34.3587C23.9417 34.675 23.7164 34.9334 23.4141 35.0503L21.9471 35.6138V37.687L23.4141 38.2519C23.7164 38.3687 23.9417 38.6271 24.017 38.9433C24.259 39.9585 24.6604 40.9245 25.2089 41.8165C25.3792 42.0935 25.4024 42.4355 25.271 42.7318L24.6321 44.1702L26.0986 45.6359L27.5349 44.9971C27.8314 44.8668 28.1749 44.889 28.45 45.0586C29.3425 45.6087 30.3097 46.0098 31.3261 46.251C31.6406 46.3261 31.8995 46.5526 32.0159 46.8553L32.5806 48.3209H34.6545L35.2181 46.8541C35.3345 46.5513 35.5934 46.3261 35.909 46.2499ZM46.6276 51.0585C45.7258 51.0585 44.9914 50.3239 44.9914 49.4219C44.9914 48.5187 45.7258 47.7855 46.6276 47.7855C47.5311 47.7855 48.2644 48.5187 48.2644 49.4219C48.2644 50.3239 47.5311 51.0585 46.6276 51.0585ZM53.0766 38.7586C52.1737 38.7586 51.44 38.0241 51.44 37.1224C51.44 36.2192 52.1738 35.4857 53.0766 35.4857C53.979 35.4857 54.7121 36.2192 54.7121 37.1224C54.7123 38.0241 53.979 38.7586 53.0766 38.7586ZM49.8519 25.8881C56.836 25.8881 62.5182 31.5705 62.5182 38.5546C62.5182 41.8116 61.5928 43.3927 60.4216 45.3958C59.0705 47.7029 57.5495 50.3032 57.0856 55.8732H54.0612V40.5896C55.5711 40.1601 56.6808 38.7686 56.6808 37.1222C56.6808 35.1338 55.0638 33.517 53.0766 33.517C51.0883 33.517 49.4713 35.1338 49.4713 37.1222C49.4713 38.7685 50.5816 40.1601 52.0926 40.5896V55.8732H47.6122V52.8893C49.1232 52.4599 50.233 51.0684 50.233 49.4218C50.233 47.4334 48.6165 45.8167 46.6277 45.8167C44.6405 45.8167 43.0224 47.4334 43.0224 49.4218C43.0224 51.0683 44.1327 52.4599 45.6437 52.8893V55.8732H42.6193C42.2933 51.9443 41.4488 49.4995 40.4365 47.4792L40.9543 47.7093C41.3272 47.8754 41.7628 47.7942 42.0506 47.5062L44.4721 45.0845C44.7599 44.7953 44.8416 44.361 44.6753 43.9881L43.9676 42.3948C44.4072 41.6073 44.7517 40.7743 44.9991 39.908L46.6254 39.2818C47.006 39.1354 47.2555 38.7712 47.2555 38.3639V34.9383C47.2555 34.5308 47.0058 34.1654 46.6254 34.0202L44.9991 33.394C44.7517 32.5278 44.406 31.6961 43.9676 30.9073L44.6753 29.3138C44.8416 28.941 44.7599 28.5055 44.4721 28.2175L43.7238 27.4693C45.5933 26.4333 47.6886 25.8881 49.8519 25.8881ZM69.788 55.7688C69.788 56.6718 69.053 57.4053 68.1513 57.4053C67.2484 57.4053 66.5152 56.6718 66.5152 55.7688C66.5152 54.8667 67.2484 54.1321 68.1513 54.1321C69.053 54.1321 69.788 54.8667 69.788 55.7688ZM35.2534 62.7011C35.2534 63.603 34.519 64.3376 33.6172 64.3376C32.7149 64.3376 31.9806 63.603 31.9806 62.7011C31.9806 61.7993 32.7149 61.0647 33.6172 61.0647C34.519 61.0647 35.2534 61.7993 35.2534 62.7011ZM18.1205 52.2755C18.1205 53.1774 17.3861 53.9121 16.4837 53.9121C15.5819 53.9121 14.8475 53.1775 14.8475 52.2755C14.8475 51.3723 15.5819 50.6388 16.4837 50.6388C17.3861 50.6388 18.1205 51.3723 18.1205 52.2755ZM66.515 26.832C66.515 25.9288 67.2483 25.1953 68.1512 25.1953C69.053 25.1953 69.7878 25.9288 69.7878 26.832C69.7878 27.7338 69.0529 28.4684 68.1512 28.4684C67.2483 28.4682 66.515 27.7336 66.515 26.832ZM70.3045 39.6643C71.2062 39.6643 71.9413 40.3978 71.9413 41.2997C71.9413 42.2028 71.2063 42.9361 70.3045 42.9361C69.4027 42.9361 68.6677 42.2028 68.6677 41.2997C68.6679 40.3978 69.4028 39.6643 70.3045 39.6643ZM64.0217 42.2842H66.8371C67.2667 43.7952 68.6579 44.905 70.3045 44.905C72.2928 44.905 73.9098 43.2882 73.9098 41.2998C73.9098 39.3126 72.2927 37.6956 70.3045 37.6956C68.6579 37.6956 67.2667 38.8055 66.8371 40.3152H64.3947C64.4538 39.7738 64.4867 39.1905 64.4867 38.5546C64.4867 37.5961 64.3935 36.6597 64.2163 35.7527H68.1512C68.6951 35.7527 69.1358 35.3122 69.1358 34.7684V30.2993C70.6457 29.8688 71.7566 28.4783 71.7566 26.832C71.7566 24.8435 70.1384 23.2267 68.1513 23.2267C66.163 23.2267 64.546 24.8435 64.546 26.832C64.546 28.4783 65.6557 29.8688 67.1668 30.2993V33.784H63.6883C61.7046 28.0489 56.2529 23.9194 49.852 23.9194C47.1636 23.9194 44.5648 24.6479 42.2846 26.0297L42.0506 25.7958C41.7628 25.508 41.3272 25.4268 40.9543 25.5929L39.3622 26.3004C38.5733 25.861 37.7405 25.5167 36.874 25.2691L36.2491 23.6425C36.1025 23.2624 35.7371 23.0127 35.3299 23.0127H31.9042C31.497 23.0127 31.1327 23.2625 30.9861 23.6425L30.3601 25.2691C29.4948 25.5167 28.662 25.861 27.8732 26.3004L26.2798 25.5929C25.908 25.4268 25.4725 25.508 25.1846 25.7958L22.7619 28.2175C22.474 28.5054 22.3924 28.941 22.5586 29.3138L23.2664 30.9073C22.828 31.6949 22.4828 32.5278 22.2355 33.394L20.6098 34.0202C20.2294 34.1655 19.9785 34.5309 19.9785 34.9383V35.6668H16.4837C15.9398 35.6668 15.4997 36.1072 15.4997 36.6512V48.808C13.9887 49.2376 12.8789 50.6279 12.8789 52.2756C12.8789 54.2629 14.4954 55.8809 16.4836 55.8809C18.4724 55.8809 20.0888 54.2628 20.0888 52.2756C20.0888 50.6279 18.9792 49.2377 17.4681 48.808V37.6355H19.9782V38.3639C19.9782 38.7711 20.229 39.1354 20.6096 39.2818L22.2353 39.908C22.4826 40.7732 22.8277 41.6061 23.2662 42.3948L22.5584 43.9881C22.3922 44.361 22.4739 44.7954 22.7617 45.0845L25.1843 47.5062C25.4721 47.7941 25.9077 47.874 26.2796 47.7093L27.8729 47.0017C28.6607 47.4396 29.4934 47.7856 30.3598 48.0328L30.9859 49.6584C31.1324 50.0385 31.4968 50.2895 31.9039 50.2895H32.6325V59.2338C31.1215 59.6632 30.0117 61.0547 30.0117 62.7011C30.0117 64.6897 31.6293 66.3064 33.617 66.3064C35.6053 66.3064 37.2223 64.6897 37.2223 62.7011C37.2223 61.0547 36.112 59.6632 34.601 59.2338V50.2895H35.3295C35.7367 50.2895 36.1022 50.0384 36.2476 49.6584L36.8737 48.0328C37.3411 47.8987 37.7991 47.7361 38.2458 47.5454C39.4232 49.6903 40.4385 52.2127 40.7164 56.8897V59.0763C40.7164 60.4986 41.6495 61.7069 42.9352 62.1228V63.5121C42.9352 64.9553 43.8948 66.1785 45.2102 66.5772V67.9491C45.2102 69.7149 46.6459 71.1507 48.413 71.1507H51.2909C53.0568 71.1507 54.4943 69.7148 54.4943 67.9491V66.5772C55.8085 66.1785 56.7694 64.9553 56.7694 63.5121V62.1228C58.0551 61.707 58.9864 60.4986 58.9864 59.0763V56.8897C59.2158 53.0593 59.9537 50.6574 60.8102 48.8165H67.1666V52.3012C65.6556 52.7306 64.5458 54.1224 64.5458 55.7688C64.5458 57.7572 66.1629 59.374 68.1511 59.374C70.1382 59.374 71.7563 57.7571 71.7563 55.7688C71.7563 54.1224 70.6455 52.7306 69.1356 52.3012V47.832C69.1356 47.2884 68.6948 46.8476 68.1509 46.8476H61.8524C61.9422 46.6927 62.0319 46.5412 62.1205 46.39C62.8599 45.1252 63.5752 43.9008 64.0217 42.2842Z" fill="#32589D"/>
<defs>
<linearGradient id="paint0_linear_276_6312" x1="16.5" y1="7.5" x2="67.5" y2="98.5" gradientUnits="userSpaceOnUse">
<stop stop-color="#F4F8FF"/>
<stop offset="1" stop-color="#AFBDD8"/>
</linearGradient>
</defs>
</svg>
