<svg width="87" height="87" viewBox="0 0 87 87" fill="none" xmlns="http://www.w3.org/2000/svg">
<circle cx="43.5" cy="43.5" r="43.5" fill="url(#paint0_linear_276_6292)"/>
<path fill-rule="evenodd" clip-rule="evenodd" d="M37.5626 54.865C37.5626 58.1382 40.2256 60.8019 43.4989 60.8019C46.7719 60.8019 49.4353 58.1379 49.4353 54.865C49.4353 51.5922 46.7716 48.9292 43.4989 48.9292C40.2261 48.9292 37.5626 51.5919 37.5626 54.865ZM45.6981 36.4643C45.6118 36.4541 45.5256 36.443 45.4392 36.4339C44.0643 36.2892 42.6736 36.297 41.3005 36.4596L40.6129 36.5411V22.0309C40.6129 21.8272 40.4472 21.6621 40.2435 21.6621H37.2467L43.499 14.2978L49.752 21.6621H46.7546C46.5507 21.6621 46.3852 21.8269 46.3852 22.0309V36.5452L45.6981 36.4643ZM44.8416 43.4408L45.5031 45.1583C45.5467 45.2718 45.6435 45.3568 45.7618 45.385C46.7656 45.6239 47.7226 46.0212 48.6014 46.5623C48.7047 46.6259 48.8333 46.6345 48.9443 46.5853L50.6283 45.8375L52.5263 47.7363L51.7793 49.4189C51.7299 49.5302 51.7385 49.6599 51.8023 49.7636C52.3435 50.6425 52.7409 51.5986 52.9798 52.6028C53.0079 52.7211 53.0921 52.8186 53.2058 52.8623L54.9233 53.5217V56.208L53.2063 56.8688C53.0923 56.9126 53.0079 57.0101 52.9798 57.1287C52.7408 58.1324 52.3435 59.0892 51.8023 59.9677C51.739 60.0706 51.7303 60.2007 51.7794 60.311L52.5263 61.9936L50.6285 63.8932L48.9454 63.1452C48.8341 63.0957 48.7058 63.1045 48.6021 63.1684C47.7239 63.7106 46.7659 64.1062 45.7622 64.3455C45.6437 64.3738 45.5464 64.4591 45.5027 64.5727L44.8418 66.2898H42.1563L41.4949 64.5709C41.4513 64.4572 41.3537 64.3738 41.2354 64.3455C40.2324 64.1062 39.275 63.7095 38.3967 63.1688C38.293 63.1049 38.1648 63.0956 38.0533 63.1452L36.3698 63.8929L34.4712 61.9935L35.2182 60.3108C35.2675 60.1996 35.2594 60.0714 35.1954 59.9676C34.6535 59.0887 34.2568 58.1315 34.0179 57.1271C33.9898 57.0091 33.9053 56.9121 33.792 56.8686L32.0742 56.2078V53.5218L33.7917 52.8603C33.905 52.8166 33.9902 52.721 34.0184 52.6025C34.2567 51.5981 34.6544 50.6418 35.1959 49.7629C35.2599 49.6591 35.2681 49.5309 35.2188 49.4196L34.4712 47.7357L36.3699 45.8369L38.0533 46.5847C38.1642 46.6339 38.2934 46.6253 38.3967 46.5617C39.2753 46.0208 40.2322 45.6233 41.2357 45.3844C41.3543 45.3561 41.4513 45.2715 41.4951 45.1577L42.1566 43.4402H44.8416V43.4408Z" fill="#82A0FF"/>
<path fill-rule="evenodd" clip-rule="evenodd" d="M24.6429 33.7428H22.7891C22.2261 33.7428 21.7297 33.4253 21.4935 32.9151C21.2572 32.4049 21.3371 31.8216 21.7014 31.3926L27.7955 24.215C28.0665 23.8953 28.4632 23.7117 28.8826 23.7117C29.3024 23.7117 29.6986 23.8953 29.9702 24.215L36.0642 31.3926C36.4286 31.8211 36.5084 32.405 36.2722 32.9151C36.0358 33.4254 35.5394 33.7428 34.9766 33.7428H33.1227V40.2247C33.1227 40.7686 32.6819 41.2094 32.138 41.2094C31.5948 41.2094 31.154 40.7686 31.154 40.2247V32.7587C31.154 32.2143 31.5948 31.7741 32.138 31.7741H33.8061L28.8831 25.9755L23.9596 31.7741H25.6276C26.1709 31.7741 26.6116 32.2143 26.6116 32.7587V40.2247C26.6116 40.7686 26.1709 41.2094 25.6276 41.2094C25.0838 41.2094 24.643 40.7686 24.643 40.2247L24.6429 33.7428ZM61.3714 26.4105C60.8288 26.4105 60.3868 26.8513 60.3868 27.3951V45.83C59.8209 44.7765 59.1514 43.7676 58.3822 42.8172C57.6108 41.8638 56.7606 40.9975 55.8449 40.2225V27.3951C55.8449 26.8513 55.4047 26.4105 54.8609 26.4105H53.1934L58.1163 20.6119L63.0387 26.4105H61.3714ZM41.2285 35.8487V22.0309C41.2285 21.4877 40.7871 21.0469 40.2439 21.0469H38.5765L43.4994 15.2483L48.4229 21.0469H46.7549C46.211 21.0469 45.7703 21.4877 45.7703 22.0309V35.8533C45.6817 35.8428 45.5931 35.8312 45.5039 35.822C44.0688 35.6708 42.6365 35.6818 41.2285 35.8487ZM65.2976 26.0288L59.2042 18.8513C58.9325 18.5316 58.5364 18.348 58.1153 18.348C57.696 18.348 57.2999 18.5316 57.0288 18.8513L50.9342 26.0289C50.5698 26.4581 50.49 27.0414 50.7275 27.5521C50.9626 28.0624 51.4596 28.3791 52.0219 28.3791H53.8765V38.7613C52.0086 37.5555 49.9375 36.685 47.7396 36.1904V23.0154H49.593C50.1553 23.0154 50.6528 22.6986 50.8892 22.1878C51.1254 21.6775 51.0449 21.0938 50.6806 20.6646L44.5872 13.4876C44.3155 13.168 43.9188 12.9844 43.4994 12.9844C43.0796 12.9844 42.6834 13.168 42.4118 13.4876L36.3178 20.6647C35.9535 21.0939 35.8736 21.6776 36.1105 22.1879C36.3462 22.6987 36.8425 23.0155 37.4054 23.0155H39.2594V36.1892C37.5734 36.572 35.9378 37.183 34.3932 38.0199C33.9148 38.2794 33.7376 38.8765 33.9965 39.3548C34.2554 39.8326 34.8532 40.0098 35.331 39.751C38.3855 38.0963 41.8322 37.4146 45.2979 37.7796C49.8617 38.2603 53.9651 40.4894 56.8529 44.0561C59.7394 47.6226 61.0651 52.1001 60.585 56.6639C60.2949 59.4242 59.356 62.0339 57.8473 64.3176L57.8242 63.6764C57.8045 63.1337 57.3464 62.7069 56.8049 62.7289C56.261 62.7486 55.8365 63.2039 55.8562 63.7476L55.9773 67.0969C55.9882 67.3987 56.1371 67.679 56.3815 67.8574C56.5518 67.9807 56.7544 68.0456 56.9611 68.0456C57.051 68.0456 57.1424 68.0335 57.2305 68.008L60.4536 67.0888C60.9765 66.9399 61.2789 66.3945 61.1301 65.8714C60.9801 65.3484 60.4362 65.0461 59.9133 65.1949L59.5577 65.2969C61.199 62.7758 62.2241 59.9038 62.5427 56.8694C62.8281 54.1549 62.5403 51.4675 61.7208 48.9475C62.1094 48.6058 62.3556 48.1054 62.3556 47.5476V28.3791H64.2101C64.7724 28.3791 65.2694 28.0623 65.5056 27.5515C65.7418 27.0413 65.6619 26.4574 65.2976 26.0288ZM53.475 70.0763C53.2022 69.606 52.5993 69.4473 52.129 69.7207C48.9615 71.5648 45.3562 72.3362 41.7005 71.9516C37.1372 71.4704 33.0338 69.2423 30.1462 65.6753C27.259 62.1087 25.9333 57.6312 26.414 53.0674C26.7035 50.3129 27.6441 47.6991 29.1517 45.4142L29.1748 46.0536C29.1939 46.5853 29.6306 47.0029 30.1576 47.0029C30.1698 47.0029 30.182 47.0029 30.1935 47.0023C30.7374 46.9826 31.1613 46.5262 31.1422 45.9836L31.0218 42.6342C31.0107 42.3319 30.8619 42.051 30.6169 41.8732C30.3719 41.6954 30.0592 41.6404 29.7679 41.7232L26.5454 42.6424C26.0231 42.7917 25.7202 43.3362 25.869 43.8592C26.0184 44.3816 26.5629 44.6851 27.0859 44.5357L27.438 44.4349C25.7972 46.9566 24.7744 49.834 24.4559 52.8607C23.9201 57.9474 25.3981 62.9387 28.6159 66.9141C31.8344 70.8895 36.408 73.3736 41.4949 73.9093C42.1766 73.9806 42.857 74.0159 43.5341 74.0159C46.9008 74.0159 50.18 73.1338 53.1211 71.4223C53.5897 71.1483 53.7495 70.5459 53.475 70.0763ZM43.4994 59.4485C40.9726 59.4485 38.9166 57.3925 38.9166 54.865C38.9166 52.3386 40.9726 50.2826 43.4994 50.2826C46.0263 50.2826 48.0825 52.3386 48.0825 54.865C48.0825 57.3925 46.0263 59.4485 43.4994 59.4485ZM43.4994 48.3141C47.1117 48.3141 50.051 51.2528 50.051 54.8651C50.051 58.4779 47.1117 61.4172 43.4994 61.4172C39.8867 61.4172 36.9479 58.4779 36.9479 54.8651C36.9479 51.2527 39.8865 48.3141 43.4994 48.3141ZM54.3085 55.7859V53.9447L52.9857 53.4368C52.6828 53.3198 52.4564 53.0615 52.3817 52.7452C52.1575 51.8047 51.7875 50.9105 51.279 50.0863C51.1093 49.8089 51.0861 49.466 51.2176 49.1695L51.7933 47.8727L50.4924 46.5714L49.1945 47.1476C48.898 47.2791 48.5557 47.2565 48.2794 47.0862C47.4542 46.5783 46.5594 46.2076 45.6199 45.9835C45.3043 45.9088 45.0459 45.6822 44.9295 45.3794L44.4198 44.0561H42.5792L42.0695 45.3794C41.9531 45.6824 41.6948 45.9088 41.3786 45.9835C40.4398 46.2076 39.545 46.5783 38.7197 47.0862C38.4435 47.2565 38.1005 47.2791 37.804 47.1476L36.5067 46.5714L35.2053 47.8727L35.7816 49.1706C35.9131 49.4672 35.8905 49.8089 35.7202 50.0862C35.2116 50.9104 34.841 51.8046 34.6174 52.7451C34.5427 53.0614 34.3162 53.3196 34.0134 53.4349L32.69 53.9446V55.7857L34.0134 56.2948C34.3163 56.4118 34.5421 56.6701 34.6168 56.9852C34.841 57.9264 35.2116 58.8212 35.7196 59.6454C35.8904 59.9222 35.913 60.2645 35.781 60.5609L35.2052 61.8577L36.5066 63.1597L37.8039 62.5835C38.101 62.452 38.4433 62.4739 38.7196 62.6455C39.5448 63.1522 40.4396 63.5235 41.3785 63.7476C41.6947 63.8229 41.953 64.0482 42.0694 64.3505L42.5791 65.6751H44.4197L44.9288 64.3523C45.0452 64.0493 45.3041 63.8229 45.6197 63.7476C46.5596 63.5234 47.455 63.1534 48.2792 62.6455C48.5554 62.4741 48.8978 62.452 49.1954 62.5835L50.4922 63.1597L51.7931 61.8577L51.2173 60.5609C51.0859 60.2644 51.109 59.921 51.2787 59.6454C51.7873 58.8201 52.1574 57.9252 52.3815 56.9864C52.4562 56.6702 52.6826 56.4119 52.9855 56.2949L54.3085 55.7859ZM56.277 56.4611V53.2694C56.277 52.8617 56.0273 52.4968 55.6469 52.3515L54.1631 51.7792C53.9343 50.9893 53.6192 50.2288 53.2219 49.5089L53.8676 48.054C54.0326 47.6821 53.9517 47.2467 53.6631 46.9587L51.4067 44.7011C51.1188 44.4133 50.6833 44.3328 50.3103 44.4978L48.856 45.1435C48.135 44.7456 47.3746 44.4306 46.5857 44.2024L46.014 42.7179C45.8675 42.3379 45.5027 42.0872 45.0955 42.0872H41.9032C41.496 42.0872 41.1305 42.3379 40.9846 42.7179L40.4129 44.2024C39.6236 44.4305 38.8637 44.7456 38.1426 45.1435L36.6877 44.4978C36.3158 44.3322 35.8804 44.4133 35.592 44.7011L33.3349 46.9587C33.0471 47.2465 32.9659 47.6821 33.1316 48.054L33.7774 49.5089C33.3795 50.2299 33.0645 50.9904 32.8362 51.7792L31.3518 52.3515C30.9718 52.4968 30.721 52.8618 30.721 53.2694V56.4624C30.721 56.8683 30.9718 57.2338 31.3518 57.3803L32.8356 57.9514C33.0643 58.7413 33.3795 59.5018 33.7773 60.2223L33.1315 61.6772C32.9659 62.0485 33.047 62.4845 33.3348 62.7719L35.5923 65.03C35.8803 65.3178 36.3157 65.3989 36.6876 65.2333L38.143 64.5869C38.8634 64.9842 39.6233 65.3005 40.4127 65.5281L40.9844 67.0136C41.1303 67.3924 41.4958 67.6438 41.9029 67.6438H45.0952C45.5024 67.6438 45.8672 67.3924 46.0138 67.0136L46.5849 65.5281C47.3748 65.3005 48.1352 64.986 48.8558 64.5869L50.3101 65.2333C50.683 65.3989 51.1186 65.3178 51.4064 65.03L53.6629 62.7719C53.9513 62.4845 54.0324 62.0485 53.8661 61.6772L53.2204 60.2218C53.6188 59.5019 53.9339 58.7414 54.1616 57.9515L55.6466 57.3804C56.0275 57.2338 56.277 56.8683 56.277 56.4611Z" fill="#32589D"/>
<defs>
<linearGradient id="paint0_linear_276_6292" x1="16.5" y1="7.5" x2="67.5" y2="98.5" gradientUnits="userSpaceOnUse">
<stop stop-color="#F4F8FF"/>
<stop offset="1" stop-color="#AFBDD8"/>
</linearGradient>
</defs>
</svg>
