<svg width="645" height="454" viewBox="0 0 645 454" fill="none" xmlns="http://www.w3.org/2000/svg">
<g clip-path="url(#clip0_276_6871)">
<path d="M133.395 304.585C133.32 304.585 133.245 304.57 133.169 304.525L-35.4661 207.013C-35.6771 206.892 -35.7525 206.621 -35.6319 206.394C-35.5113 206.183 -35.24 206.107 -35.0139 206.228L133.41 303.619L347.656 179.733C347.792 179.657 347.958 179.657 348.109 179.733L490.864 262.283L585.039 207.828C585.25 207.708 585.522 207.783 585.657 207.994C585.793 208.206 585.702 208.478 585.491 208.613L491.09 263.204C490.954 263.28 490.788 263.28 490.638 263.204L347.882 180.654L133.637 304.54C133.546 304.57 133.471 304.585 133.395 304.585Z" fill="#7BD834"/>
<path d="M680.239 368.007C680.164 368.007 680.089 367.992 680.013 367.947L556.913 296.765L480.614 340.893C480.479 340.969 480.298 340.969 480.162 340.893L180.83 167.791C180.694 167.715 180.604 167.565 180.604 167.398C180.604 167.232 180.694 167.097 180.83 167.006L333.895 78.5073C334.106 78.3866 334.377 78.4621 334.513 78.6734C334.633 78.8848 334.558 79.1565 334.347 79.2924L181.96 167.414L480.403 339.987L556.702 295.859C556.838 295.783 557.019 295.783 557.154 295.859L680.481 367.177C680.692 367.298 680.767 367.57 680.646 367.796C680.541 367.932 680.39 368.007 680.239 368.007Z" fill="#7BD834"/>
<path d="M402.929 427.595C402.854 427.595 402.779 427.58 402.703 427.535L311.332 374.695C311.196 374.62 311.105 374.469 311.105 374.303C311.105 374.137 311.196 374.001 311.332 373.91L424.981 308.193C425.192 308.072 425.463 308.148 425.599 308.359C425.72 308.571 425.644 308.842 425.433 308.978L312.462 374.303L403.156 426.75C403.367 426.871 403.442 427.142 403.321 427.369C403.231 427.505 403.08 427.595 402.929 427.595Z" fill="#7BD834"/>
<path d="M536.58 454C536.505 454 536.429 453.985 536.354 453.94L42.6569 168.455C42.4459 168.335 42.3706 168.063 42.4911 167.837C42.6117 167.625 42.883 167.55 43.1091 167.67L536.806 453.155C537.017 453.275 537.093 453.547 536.972 453.774C536.882 453.925 536.731 454 536.58 454Z" fill="#7BD834"/>
<path d="M238.212 332.348C238.137 332.348 238.061 332.333 237.986 332.288L108.419 257.362C108.284 257.286 108.193 257.135 108.193 256.969C108.193 256.803 108.284 256.667 108.419 256.577L222.069 190.859C222.28 190.739 222.551 190.814 222.687 191.025C222.808 191.237 222.732 191.509 222.521 191.644L109.55 256.969L238.227 331.382L546.875 152.906C547.086 152.785 547.357 152.86 547.493 153.072C547.613 153.283 547.538 153.555 547.327 153.691L238.438 332.288C238.378 332.318 238.302 332.348 238.212 332.348Z" fill="#7BD834"/>
<path opacity="0.3" d="M153.049 170.025L113.875 147.38L153.049 124.734L192.209 147.38L153.049 170.025Z" fill="#7BD834"/>
<path opacity="0.5" d="M153.049 143.938L113.875 121.293L153.049 98.6321L192.209 121.293L153.049 143.938Z" fill="#7BD834"/>
<path opacity="0.7" d="M153.049 123.028L113.875 100.368L153.049 77.7224L192.209 100.368L153.049 123.028Z" fill="#7BD834"/>
<path d="M153.05 124.131C152.854 124.131 152.673 124.085 152.492 123.98L113.333 101.334C112.986 101.138 112.775 100.761 112.775 100.368C112.775 99.9755 112.986 99.5981 113.333 99.4018L152.492 76.7563C152.839 76.5601 153.261 76.5601 153.608 76.7563L192.767 99.4018C193.114 99.5981 193.325 99.9755 193.325 100.368C193.325 100.761 193.114 101.138 192.767 101.334L153.608 123.98C153.427 124.085 153.246 124.131 153.05 124.131ZM116.106 100.368L153.05 121.73L189.994 100.368L153.05 79.0058L116.106 100.368Z" fill="#7BD834"/>
<path opacity="0.7" d="M464.606 423.851L425.432 401.206L464.606 378.56L503.765 401.206L464.606 423.851Z" fill="#7BD834"/>
<path d="M464.607 424.968C464.411 424.968 464.23 424.923 464.049 424.817L424.89 402.172C424.543 401.976 424.332 401.598 424.332 401.206C424.332 400.813 424.543 400.436 424.89 400.239L464.049 377.594C464.396 377.398 464.818 377.398 465.164 377.594L504.339 400.239C504.686 400.436 504.897 400.813 504.897 401.206C504.897 401.598 504.686 401.976 504.339 402.172L465.18 424.817C464.984 424.923 464.788 424.968 464.607 424.968ZM427.663 401.206L464.607 422.568L501.55 401.206L464.607 379.843L427.663 401.206Z" fill="#7BD834"/>
<path opacity="0.7" d="M551.2 402.323L530.641 390.442L551.2 378.561L571.744 390.442L551.2 402.323Z" fill="#7BD834"/>
<path opacity="0.5" d="M551.2 390.442L530.641 378.56L551.2 366.679L571.744 378.56L551.2 390.442Z" fill="#7BD834"/>
<path opacity="0.3" d="M551.2 378.561L530.641 366.679L551.2 354.798L571.744 366.679L551.2 378.561Z" fill="#7BD834"/>
<path d="M551.201 403.44C551.005 403.44 550.824 403.395 550.643 403.289L530.099 391.408C529.752 391.211 529.541 390.834 529.541 390.442C529.541 390.049 529.752 389.672 530.099 389.475L550.643 377.594C550.99 377.398 551.412 377.398 551.758 377.594L572.303 389.475C572.649 389.672 572.86 390.049 572.86 390.442C572.86 390.834 572.649 391.211 572.303 391.408L551.758 403.289C551.578 403.395 551.382 403.44 551.201 403.44ZM532.872 390.442L551.201 401.04L569.529 390.442L551.201 379.843L532.872 390.442Z" fill="#7BD834"/>
<path opacity="0.7" d="M101.47 329.782L80.9258 317.9L101.47 306.019L122.014 317.9L101.47 329.782Z" fill="#7BD834"/>
<path d="M101.47 330.899C101.274 330.899 101.093 330.854 100.913 330.748L80.3682 318.867C80.0216 318.67 79.8105 318.293 79.8105 317.901C79.8105 317.508 80.0216 317.131 80.3682 316.934L100.913 305.053C101.259 304.857 101.681 304.857 102.028 305.053L122.572 316.934C122.919 317.131 123.13 317.508 123.13 317.901C123.13 318.293 122.919 318.67 122.572 318.867L102.028 330.748C101.847 330.854 101.666 330.899 101.47 330.899ZM83.1417 317.901L101.47 328.499L119.799 317.901L101.47 307.302L83.1417 317.901Z" fill="#7BD834"/>
<g opacity="0.3">
<path d="M292.459 333.707L215.482 288.929C214.411 288.31 214.547 287.238 215.783 286.529L267.287 256.742C268.523 256.033 270.377 255.957 271.432 256.576L348.409 301.354C349.48 301.973 349.344 303.045 348.108 303.754L296.604 333.541C295.383 334.25 293.529 334.326 292.459 333.707Z" fill="url(#paint0_linear_276_6871)"/>
<path d="M350.988 291.858L332.9 290.681L271.297 254.795C270.197 254.161 268.283 254.236 267.016 254.976L227.194 278.014L212.92 277.078V287.057H212.935C212.935 287.465 213.161 287.842 213.658 288.129L292.61 334.054C293.711 334.688 295.625 334.613 296.891 333.873L349.947 303.196C350.626 302.804 350.957 302.32 350.988 301.837H351.003V291.858H350.988Z" fill="url(#paint1_linear_276_6871)"/>
<path d="M292.624 323.985L213.672 278.059C212.572 277.425 212.707 276.323 213.973 275.584L267.03 244.906C268.296 244.182 270.21 244.091 271.311 244.725L350.262 290.65C351.363 291.284 351.227 292.387 349.961 293.126L296.904 323.803C295.623 324.543 293.709 324.619 292.624 323.985Z" fill="url(#paint2_linear_276_6871)"/>
</g>
<path d="M292.459 305.098L215.482 260.321C214.411 259.702 214.547 258.63 215.783 257.92L267.287 228.134C268.523 227.424 270.377 227.349 271.432 227.968L348.409 272.746C349.48 273.365 349.344 274.436 348.108 275.146L296.604 304.932C295.383 305.642 293.529 305.717 292.459 305.098Z" fill="url(#paint3_linear_276_6871)"/>
<path d="M350.988 263.249L332.9 262.072L271.297 226.186C270.197 225.552 268.283 225.628 267.016 226.367L227.194 249.405L212.92 248.469V258.448H212.935C212.935 258.856 213.161 259.234 213.658 259.52L292.61 305.445C293.711 306.079 295.625 306.004 296.891 305.264L349.947 274.587C350.626 274.195 350.957 273.712 350.988 273.228H351.003V263.249H350.988Z" fill="url(#paint4_linear_276_6871)"/>
<path d="M292.624 295.376L213.672 249.451C212.572 248.817 212.707 247.715 213.973 246.975L267.03 216.298C268.296 215.573 270.21 215.483 271.311 216.117L350.262 262.042C351.363 262.676 351.227 263.778 349.961 264.518L296.904 295.195C295.623 295.934 293.709 296.01 292.624 295.376Z" fill="#CDE4FF"/>
<path d="M349.948 263.778L296.892 294.455C295.626 295.18 293.711 295.27 292.611 294.636L213.659 248.711C213.313 248.515 213.102 248.258 212.996 248.001C212.8 248.53 212.996 249.088 213.659 249.466L292.611 295.391C293.711 296.025 295.626 295.95 296.892 295.21L349.948 264.533C350.823 264.034 351.139 263.355 350.913 262.766C350.777 263.114 350.461 263.476 349.948 263.778Z" fill="white"/>
<path d="M279.542 238.037L279.617 238.385L279.723 238.158C279.723 238.158 280.25 239.94 279.798 240.845C279.346 241.736 278.683 242.838 277.733 244.091C276.783 245.344 275.276 247.941 274.869 248.439C274.477 248.937 272.156 250.885 269.262 251.172C266.368 251.474 265.63 249.813 265.871 248.907C266.112 248.001 267.664 245.631 269.368 243.684C271.071 241.751 272.367 239.245 272.367 239.245L279.542 238.037Z" fill="#160A5B"/>
<path d="M270.859 230.172C270.859 230.172 270.949 232.029 270.753 232.799C270.557 233.569 266.307 233.81 264.8 233.992C263.292 234.188 260.655 235.26 259.826 235.667C258.997 236.075 253.48 236.664 252.802 234.626C252.123 232.587 255.575 230.882 257.911 230.338C260.248 229.795 264.061 228.632 264.061 228.632L270.859 230.172Z" fill="#160A5B"/>
<path d="M285.6 193.365C285.6 193.365 285.751 198.589 284.018 205.775C282.284 212.976 282.495 218.004 282.495 218.004C282.495 218.004 284.304 226.141 282.721 231.697C281.124 237.252 279.767 238.807 279.767 238.807C279.767 238.807 276.572 243.05 272.381 239.245C272.381 239.245 274.733 231.606 275.019 225.537C275.019 225.537 272.939 221.068 272.231 217.083C272.231 217.083 271.628 223.408 271.266 225.975C271.266 225.975 271.628 229.734 270.633 231.244C269.638 232.768 265.131 233.206 263.684 230.564C262.252 227.922 264.875 229.221 264.076 217.083C264.076 217.083 259.931 211.904 259.328 202.363C258.725 192.837 258.786 189.048 259.328 187.191C259.871 185.334 269.065 178.631 269.065 178.631L274.25 185.258L285.6 193.365Z" fill="#32589D"/>
<path d="M265.118 204.009C263.625 202.212 262.781 196.581 262.781 196.581C262.781 196.581 265.118 201.322 266.791 202.695C268.464 204.069 269.911 206.832 270.197 208.628C270.499 210.425 272.187 217.113 272.187 217.113C272.187 217.113 271.584 223.439 271.222 226.005C271.222 226.005 271.584 229.764 270.589 231.274C270.393 231.576 270.046 231.833 269.609 232.044C269.609 231.968 269.866 223.665 269.609 220.147C269.368 216.6 266.625 205.805 265.118 204.009Z" fill="#102140"/>
<path d="M299.408 154.913C299.408 154.913 303.372 162.673 303.764 163.277C304.155 163.881 311.586 173.347 312.31 178.827C312.31 178.827 312.868 180.941 310.32 182.828C307.773 184.715 294.871 192.897 294.072 193.018C293.273 193.139 288.6 190.859 288.404 185.741C288.404 185.741 298.503 181.031 300.689 178.661C300.689 178.661 296.755 172.048 294.825 170.101C294.343 169.618 294.057 168.727 293.906 167.655C293.273 163.307 294.976 158.944 298.217 155.985L299.408 154.913Z" fill="#3C5DE4"/>
<path d="M269.76 136.736C269.76 136.736 263.625 139.016 261.53 138.231C259.435 137.446 254.28 136.797 250.753 134.819C247.226 132.841 231.791 128.856 229.515 128.72C229.515 128.72 229.47 128.811 229.862 128.977C230.239 129.143 231.821 129.279 232.258 131.075C232.681 132.872 231.746 135.031 231.475 135.181C231.218 135.332 231.068 134.698 229.591 134.019C228.113 133.34 227.209 133.385 227.209 133.385L226.651 134.094L226.305 134.608C226.305 134.608 227.028 136.782 229.003 136.933C230.977 137.084 243.669 142.383 244.467 142.624C245.266 142.866 255.923 147.47 257.912 148.18C259.902 148.905 261.47 149.81 261.47 149.81C261.47 149.81 267.695 145.659 267.891 145.659C268.087 145.659 269.76 136.736 269.76 136.736Z" fill="#3C5DE4"/>
<path d="M214.276 126.124C214.532 126.184 217.743 127.256 217.743 127.256C217.743 127.256 216.461 127.92 216.341 128.494C216.22 129.067 216.597 132.328 216.718 132.525C216.838 132.721 217.501 133.159 217.697 133.28C217.893 133.4 218.391 134.517 218.858 134.382C219.31 134.246 219.461 133.657 219.461 133.657C219.461 133.657 219.823 133.476 219.928 133.4C220.034 133.325 222.34 133.536 223.094 134.034C223.847 134.517 225.581 134.789 226.289 134.563C226.997 134.336 228.052 133.823 228.279 133.687C228.279 133.687 229.062 133.808 229.499 134.034C229.937 134.261 231.338 135.197 231.549 135.287C231.76 135.363 234.624 129.747 229.499 128.675C229.499 128.675 227.374 128.479 226.455 128.041C225.535 127.603 222.943 125.595 221.978 125.565C221.013 125.52 220.049 125.852 220.049 125.852C220.049 125.852 214.261 124.191 213.778 124.72C213.326 125.263 214.02 126.063 214.276 126.124ZM218.466 129.973C219.144 129.988 219.627 129.279 219.627 129.279C220.079 129.566 220.516 129.218 220.516 129.218C220.516 129.324 221.315 129.475 221.315 129.475C221.315 129.475 221.677 129.777 222.129 130.109C222.581 130.441 221.978 131.408 221.978 131.408C221.541 131.438 221.029 131.226 220.606 131.03C220.184 130.834 219.793 130.849 219.506 130.743C219.22 130.607 218.466 129.973 218.466 129.973Z" fill="#FCD1C5"/>
<path d="M259.314 187.221C259.857 185.364 269.051 178.661 269.051 178.661L271.629 181.952L273.845 190.572L285.601 194.241C285.601 194.256 284.983 200.129 275.412 199.449C265.841 198.77 264.71 191.342 264.71 191.342C264.71 191.342 263.64 193.788 258.938 194.422C258.817 190.467 258.968 188.429 259.314 187.221Z" fill="#32589D"/>
<path d="M287.771 141.568L289.384 145.719C289.384 145.719 297.177 152.468 299.408 154.913C299.408 154.913 295.564 162.311 294.84 170.101C294.84 170.101 291.283 173.015 290.198 174.343C289.128 175.687 286.4 181.877 285.525 183.915C284.651 185.953 287.078 192.097 287.078 192.097C287.078 192.097 283.762 198.227 278.441 198.015C273.12 197.819 269.488 194.558 268.81 188.761C268.131 182.964 268.327 182.133 268.327 182.133C268.327 182.133 265.931 189.244 262.298 189.244C258.666 189.244 252.893 183.069 252.893 183.069C252.893 183.069 249.004 179.537 249.366 177.936C249.727 176.336 258.53 162.507 258.997 160.227C259.479 157.948 261.454 149.795 261.454 149.795L269.744 136.721L274.794 136.963L287.771 141.568Z" fill="#5778FF"/>
<path d="M278.23 196.566C273.136 196.37 269.624 193.35 268.734 188.021C268.765 188.263 268.795 188.504 268.825 188.776C269.503 194.573 273.136 197.834 278.456 198.03C283.777 198.227 287.093 192.112 287.093 192.112C287.093 192.112 286.912 191.659 286.671 190.98C285.902 192.218 282.812 196.732 278.23 196.566Z" fill="#6A8AFF"/>
<path d="M287.772 141.568C287.772 141.568 287.817 144.044 286.837 146.504C285.858 148.965 282.662 162.809 275.427 167.55L272.639 169.316V160.499C272.639 160.499 272.684 155.079 273.92 151.637C275.156 148.195 275.111 143.998 275.111 143.998C275.111 143.998 277.145 143.44 277.145 143.485C277.161 143.53 287.772 141.568 287.772 141.568Z" fill="#F0F6FF"/>
<path d="M278.848 147.999C278.848 147.999 277.567 148.527 277.009 147.682C276.452 146.837 275.894 145.146 276.03 144.376C276.03 144.376 272.608 144.542 271.93 142.745C271.252 140.949 271.99 140.481 272.096 139.922C272.201 139.364 272.307 137.899 272.759 136.827L272.804 136.374C272.804 136.374 272.111 135.77 272.427 135.151C272.744 134.517 274.613 132.57 274.809 132.238C275.005 131.906 274.764 129.475 275.487 128.267C276.211 127.059 277.627 125.384 277.627 125.384C277.627 125.384 284.938 119.677 290.681 125.384C296.423 131.09 287.771 141.598 287.771 141.598C287.771 141.598 287.078 144.995 285.405 146.338C283.717 147.667 278.848 147.999 278.848 147.999Z" fill="#FCD1C5"/>
<path d="M284.183 134.11C284.183 133.898 284.198 133.687 284.273 133.491C284.484 132.872 284.846 131.181 283.098 129.898C280.897 128.297 277.038 126.863 277.159 125.263C277.28 123.663 283.384 119.707 287.891 121.821C292.398 123.934 296.633 129.294 293.558 134.97C290.483 140.647 287.77 141.568 287.77 141.568C287.77 141.568 286.851 141.371 287.68 140.435C288.509 139.484 290.001 137.114 288.75 136.359C287.514 135.604 285.359 137.235 285.072 137.582C284.967 137.718 284.846 137.899 284.756 138.065C284.59 138.337 284.258 138.443 283.972 138.307L283.866 138.261C283.58 138.125 283.444 137.793 283.55 137.507L284.093 136.042C284.168 135.816 284.213 135.589 284.213 135.363L284.183 134.11Z" fill="#AA8383"/>
<path d="M279.029 149.599C279.029 149.599 280.657 150.762 281.606 152.981C281.606 152.981 279.873 151.184 278.878 150.822C278.878 150.822 276.964 151.728 276.964 152.317C276.964 152.92 276.783 156.514 276.331 158.446C275.878 160.378 275.939 167.172 275.939 167.172L274.733 167.972L274.16 164.998L274.386 158.642L275.517 152.86C275.517 152.86 275.728 150.671 275.818 150.55C275.894 150.429 279.029 149.599 279.029 149.599Z" fill="#C4CCD6"/>
<path d="M279.029 149.599C279.029 149.599 277.175 147.621 276.24 147.576C275.306 147.531 274.793 148.044 274.778 148.165C274.763 148.286 273.874 151.381 273.874 151.381C273.874 151.381 272.125 156.785 272.306 163.081C272.487 169.376 272.638 169.331 272.638 169.331L274.944 167.866C274.944 167.866 274.326 163.368 275.577 158.144C276.828 152.92 275.728 152.15 276.331 151.607C276.918 151.063 279.315 150.248 279.029 149.599Z" fill="#24126A"/>
<path d="M290.199 174.343C289.128 175.687 286.461 181.861 285.586 183.899C285.451 184.232 285.33 184.669 285.345 185.183C285.134 185.319 284.998 185.409 284.998 185.409L283.838 184.277C283.838 184.277 284.878 180.503 286.566 175.823C288.239 171.143 294.856 170.101 294.856 170.101C294.856 170.101 291.284 172.999 290.199 174.343Z" fill="#3C5DE4"/>
<path d="M288.405 185.892C288.405 185.892 286.506 183.13 285.918 182.767C285.918 182.767 286.053 183.552 284.983 184.02C283.913 184.503 278.276 186.693 278.08 186.949C277.884 187.206 278.095 187.523 278.457 187.598C278.457 187.598 277.296 187.991 276.814 187.991C276.331 187.976 275.698 188.595 276.015 189.108C276.331 189.621 276.603 189.591 276.603 189.591C276.603 189.591 276.467 190.165 276.814 190.301C277.16 190.437 278.004 190.452 278.004 190.452C278.004 190.452 277.839 191.025 278.306 191.267C278.773 191.493 281.064 191.75 281.064 191.75C281.064 191.75 282.843 191.554 283.355 191.554C283.868 191.539 286.189 192.112 287.169 191.976C288.164 191.841 291.419 190.678 291.751 190.482C292.052 190.271 288.405 185.892 288.405 185.892Z" fill="#FCD1C5"/>
<path d="M289.762 147.078L289.52 150.792L287.516 151.426L288.857 152.528C288.857 152.528 283.416 164.908 276.482 168.833C276.482 168.833 283.114 166.478 289.37 152.649C289.37 152.649 288.707 151.864 288.511 151.653L289.912 151.034L289.762 147.078Z" fill="#24126A"/>
<path d="M272.005 146.686C272.005 146.686 269.548 159.322 271.643 168.833C271.643 168.833 269.126 164.258 271.402 146.686H272.005Z" fill="#24126A"/>
<path d="M216.492 128.222C216.854 127.724 217.758 127.256 217.758 127.256C217.758 127.256 220.381 128.327 220.833 128.539C220.833 128.539 218.135 128.252 216.492 128.222Z" fill="#E2B1A6"/>
<path d="M231.563 135.317C231.458 135.272 231.036 135.015 230.599 134.729C232.347 132.373 230.433 128.992 230.418 128.977C234.277 130.471 231.759 135.393 231.563 135.317Z" fill="#E2B1A6"/>
<path d="M291.735 190.467C291.494 190.618 289.625 191.282 288.283 191.69C288.283 191.69 287.409 188.278 287.605 187.13C287.801 185.983 288.283 185.711 288.283 185.711C288.358 185.817 288.404 185.892 288.404 185.892C288.404 185.892 292.051 190.27 291.735 190.467Z" fill="#E2B1A6"/>
<path d="M288.404 185.741C288.404 185.741 287.816 187.719 289.157 189.244C290.484 190.769 290.634 190.965 290.634 190.965H292.157C292.157 190.965 292.956 188.549 292.835 188.489C292.714 188.429 288.404 185.741 288.404 185.741Z" fill="#3C5DE4"/>
<path d="M274.16 150.369C274.16 150.369 272.698 159.035 273.03 162.205C273.361 165.376 273.241 168.818 273.241 168.818L272.773 169.225L272.638 169.316C272.638 169.316 272.487 169.361 272.306 163.066C272.125 156.77 273.874 151.366 273.874 151.366C273.874 151.366 274.009 150.928 274.16 150.369Z" fill="#24126A"/>
<path d="M273.679 240.211C273.257 239.97 272.82 239.668 272.368 239.245C272.368 239.245 274.719 231.606 275.005 225.537C275.005 225.537 272.925 221.068 272.217 217.083C272.413 217.868 274.824 222.155 275.925 226.533C277.025 230.912 273.679 240.211 273.679 240.211Z" fill="#160A5B"/>
<path d="M284.396 140.163C284.351 140.374 283.733 143.469 282.482 144.904C281.2 146.398 280.206 147.847 280.206 147.847C279.407 147.953 278.849 147.998 278.849 147.998C278.849 147.998 277.568 148.527 277.01 147.681C276.452 146.836 275.895 145.145 276.03 144.375C276.03 144.375 280.658 143.892 282.421 142.669C284.064 141.522 284.366 140.329 284.396 140.163Z" fill="#E2B1A6"/>
<path d="M286.068 182.813C286.068 182.813 285.826 183.341 285.781 183.386C285.736 183.432 285.676 182.979 285.676 182.979L285.887 182.556L286.068 182.813Z" fill="#1B2B3A"/>
<path d="M272.638 169.316C272.638 169.316 269.412 179.642 268.342 182.133L268.402 184.609C268.402 184.624 272.502 171.807 272.638 169.316Z" fill="#24126A"/>
<path d="M269.517 172.999C269.336 173.603 269.638 174.222 270.196 174.403C270.753 174.569 271.356 174.222 271.537 173.618C271.718 173.014 271.416 172.395 270.859 172.214C270.301 172.048 269.698 172.395 269.517 172.999Z" fill="#24126A"/>
<path d="M267.875 177.453C267.694 178.057 267.995 178.676 268.553 178.857C269.111 179.023 269.714 178.676 269.895 178.072C270.075 177.468 269.774 176.849 269.216 176.668C268.659 176.502 268.071 176.849 267.875 177.453Z" fill="#24126A"/>
<path d="M284.094 136.027C284.169 135.801 284.214 135.574 284.214 135.348L284.184 134.11C284.184 133.899 284.199 133.687 284.275 133.491C284.335 133.31 284.41 133.038 284.441 132.721C284.441 132.721 289.46 136.39 292.655 136.525C289.972 140.813 287.772 141.568 287.772 141.568C287.772 141.568 286.852 141.372 287.681 140.436C288.51 139.484 290.002 137.114 288.751 136.359C287.515 135.604 285.36 137.235 285.074 137.582C284.968 137.718 284.848 137.899 284.757 138.065C284.591 138.337 284.26 138.443 283.973 138.307L283.868 138.262C283.581 138.126 283.446 137.794 283.551 137.507L284.094 136.027Z" fill="#936D6D"/>
<path d="M291.873 278.301C291.873 278.301 289.702 278.558 287.637 278.437C285.572 278.331 279.905 278.784 279.92 280.536C279.935 282.302 282.633 285.05 286.22 285.729C289.808 286.408 294.556 285.955 296.907 286.212C299.274 286.469 301.112 284.597 300.389 282.574C299.665 280.581 291.873 278.301 291.873 278.301Z" fill="#160A5B"/>
<path d="M304.76 274.633C304.76 274.633 305.423 275.78 304.971 276.399C304.504 277.018 303.298 278.558 300.102 276.686C296.922 274.814 290.637 271.96 290.637 271.96C290.637 271.96 287.049 269.937 287.426 267.945C287.803 265.952 291.24 266.556 291.24 266.556L304.76 274.633Z" fill="#160A5B"/>
<path d="M285.166 243.186C285.166 243.186 285.543 257.166 288.241 262.54C290.924 267.915 290.954 277.109 291.436 278.875C291.919 280.641 293.667 283.253 296.727 284.053C299.787 284.838 300.495 283.117 300.45 282.03C300.405 280.943 299.726 279.132 299.847 277.969C299.968 276.792 300.344 276.278 300.45 275.735C300.45 275.735 303.962 276.958 304.776 274.633C304.776 274.633 304.565 273.908 304.55 273.561C304.535 273.199 305.906 264.457 306.117 263.386C306.328 262.314 306.328 256.35 305.62 253.301C304.912 250.251 305.967 243.91 305.967 243.91L295.265 241.616L285.166 243.186Z" fill="#32589D"/>
<path d="M305.604 253.286C304.895 250.236 305.951 243.895 305.951 243.895L305.016 243.699C304.88 244.59 304.051 250.16 304.699 252.953C305.408 256.003 305.408 261.966 305.197 263.038C304.986 264.11 303.629 272.851 303.629 273.214C303.644 273.576 303.855 274.286 303.855 274.286C303.041 276.61 299.529 275.388 299.529 275.388C299.424 275.916 299.047 276.444 298.927 277.622C298.806 278.799 299.499 280.611 299.529 281.683C299.575 282.77 298.866 284.491 295.806 283.706C295.716 283.676 295.626 283.646 295.535 283.615C295.912 283.782 296.304 283.932 296.711 284.038C299.771 284.823 300.479 283.102 300.434 282.015C300.389 280.928 299.71 279.117 299.831 277.954C299.952 276.777 300.343 276.158 300.449 275.614C300.449 275.614 303.946 276.943 304.76 274.618C304.76 274.618 304.549 273.893 304.534 273.546C304.519 273.183 305.89 264.442 306.101 263.37C306.312 262.298 306.312 256.335 305.604 253.286Z" fill="#82A0FF"/>
<path d="M302.635 244.635C302.635 244.635 302.364 246.824 301.143 248.575C301.143 248.575 300.404 255.913 299.184 259.491C299.184 259.491 299.802 266.813 300.404 269.122C301.022 271.432 300.45 275.735 300.45 275.735C300.45 275.735 300.842 275.901 301.429 275.977C302.017 276.052 302.997 267.462 302.258 265.831C301.505 264.216 301.55 257.211 302.123 255.097C302.696 252.984 303.238 246.764 303.826 245.692C304.414 244.62 303.419 243.941 303.419 243.941L302.635 244.635Z" fill="#102140"/>
<path d="M298.596 188.489C298.596 188.489 294.993 190.558 294.812 194.634L297.36 194.332C297.36 194.332 297.013 189.773 298.596 188.489Z" fill="#160A5B"/>
<path d="M294.481 247.005C301.595 247.821 305.741 245.36 305.741 245.36C305.861 244.469 305.952 243.895 305.952 243.895L295.25 241.601L285.166 243.186C285.166 243.186 285.241 245.994 285.573 249.572C287.306 249.889 289.326 246.25 289.326 246.25L294.195 246.96C294.195 246.945 287.367 246.19 294.481 247.005Z" fill="#102140"/>
<path d="M286.523 243.518C286.523 243.518 301.505 250.477 310.202 240.453C310.458 240.166 310.594 239.789 310.624 239.411L310.82 236.845C310.85 236.513 310.941 236.196 311.091 235.909C311.408 235.275 311.544 234.565 311.483 233.871C311.227 230.912 310.519 222.759 310.398 220.464C310.247 217.641 313.141 206.439 316.472 201.654C319.804 196.868 314.091 184.669 314.091 184.669C314.091 184.669 312.644 181.756 309.102 182.405C309.102 182.405 312.131 184.926 310.097 187.1C308.062 189.274 302.53 190.663 302.53 190.663C302.53 190.663 292.28 194.694 288.467 200.265C288.467 200.265 287.095 203.178 286.703 206.938C286.312 210.697 286.07 219.619 285.814 220.827C285.558 222.035 284.427 230.187 284.458 230.564C284.503 230.927 286.523 243.518 286.523 243.518Z" fill="#5778FF"/>
<path d="M310.533 184.232C310.88 183.583 310.865 182.934 310.669 182.345C310.202 182.285 309.689 182.269 309.102 182.375C309.117 182.39 310.051 183.175 310.533 184.232Z" fill="url(#paint5_linear_276_6871)"/>
<path d="M291.149 245.088C291.149 245.088 302.62 223.212 303.042 214.532C303.464 205.866 287.683 230.172 287.683 230.172L286.537 243.518C286.522 243.518 289.386 244.741 291.149 245.088Z" fill="#3C5DE4"/>
<path d="M311.106 233.66C310.955 233.946 310.865 234.263 310.85 234.596L310.654 237.162C310.624 237.539 310.473 237.917 310.232 238.204C301.535 248.243 286.552 241.268 286.552 241.268C286.552 241.268 285.09 232.225 284.638 229.251C284.548 229.961 284.487 230.459 284.502 230.55C284.532 230.927 286.552 243.518 286.552 243.518C286.552 243.518 301.535 250.478 310.232 240.453C310.488 240.166 310.624 239.789 310.654 239.411L310.85 236.845C310.88 236.513 310.97 236.196 311.106 235.909C311.422 235.275 311.558 234.565 311.498 233.871C311.468 233.569 311.438 233.192 311.407 232.784C311.332 233.086 311.242 233.373 311.106 233.66Z" fill="#82A0FF"/>
<path d="M316.487 199.405C313.156 204.19 310.247 215.392 310.413 218.215C310.428 218.472 310.443 218.819 310.473 219.212C310.91 215.211 313.518 205.911 316.487 201.654C317.422 200.31 317.633 198.393 317.467 196.34C317.362 197.502 317.075 198.574 316.487 199.405Z" fill="url(#paint6_linear_276_6871)"/>
<path d="M288.375 217.626C288.873 215.709 289.234 213.762 289.43 211.784C289.747 208.327 291.284 202.59 297.947 204.205C307.352 206.47 302.031 218.472 300.795 220.495C299.559 222.518 294.63 231.531 294.374 232.029C294.133 232.497 286.883 243.261 284.441 245.722C284.215 245.948 283.868 245.948 283.627 245.737C282.783 244.982 280.884 243.17 280.688 242.114C280.447 240.755 282.105 235.984 282.105 235.984C282.105 235.984 286.627 223.786 286.989 223.227C287.245 222.805 287.561 220.721 288.375 217.626Z" fill="#3C5DE4"/>
<path d="M298.73 188.806C298.73 188.806 298.112 187.025 296.334 186.693C294.555 186.361 293.575 185.787 293.44 185.123C293.319 184.458 293.364 183.673 293.018 182.677C292.656 181.665 292.49 179.25 292.505 179.19C292.52 179.129 291.164 178.601 291.149 178.012C291.134 177.408 292.023 175.34 291.947 175.174C291.887 175.008 291.239 173.619 291.42 172.607C291.601 171.596 291.857 170.101 292.52 168.878C293.183 167.655 297.766 160.167 307.623 165.119C317.481 170.071 308.799 177.831 309.236 183.281C309.236 183.281 310.005 184.474 308.181 186.24C306.342 187.976 301.564 187.976 298.73 188.806Z" fill="#FCD1C5"/>
<path d="M308.182 186.225C310.021 184.473 309.237 183.266 309.237 183.266C309.177 182.511 309.297 181.711 309.508 180.88L305.484 181.273C305.484 181.273 300.118 175.657 300.284 178.435C300.45 181.213 298.987 181.56 298.987 181.56L300.043 183.145C300.314 183.553 300.088 183.975 299.801 184.383C297.902 186.995 293.953 185.817 293.953 185.817C294.42 186.179 295.234 186.481 296.35 186.693C298.128 187.025 298.746 188.806 298.746 188.806C301.565 187.976 306.343 187.976 308.182 186.225Z" fill="#E2B1A6"/>
<path d="M292.325 165.874C292.325 165.874 291.45 167.882 292.521 168.863C293.606 169.829 294.571 170.75 294.571 170.75L294.344 173.347C294.314 173.724 294.39 174.087 294.571 174.419L295.822 176.713C296.063 177.151 296.168 177.665 296.123 178.163L296.033 179.205C296.002 179.506 296.213 179.793 296.515 179.854L296.892 179.929C297.223 179.99 297.54 179.778 297.6 179.461L297.887 178.027C297.887 178.027 298.746 176.925 300.268 178.465L301.685 179.189C302.077 179.386 302.378 179.748 302.484 180.186C302.785 181.333 303.464 183.598 304.082 184.005C304.926 184.564 308.543 183.145 309.086 182.42C309.628 181.696 311.347 176.623 312.341 174.192C313.336 171.762 313.593 165.481 306.131 163.202C298.716 160.907 293.546 163.7 292.325 165.874Z" fill="#AA8383"/>
<path d="M309.116 182.39C309.658 181.665 311.377 176.593 312.372 174.162C312.372 174.162 309.267 175.808 305.438 176.049C301.625 176.276 294.51 171.43 294.51 171.43L294.344 173.332C294.314 173.709 294.39 174.072 294.57 174.404L295.821 176.699C296.063 177.136 296.168 177.65 296.123 178.148L296.033 179.19C296.002 179.491 296.213 179.778 296.515 179.839L296.892 179.914C297.223 179.975 297.54 179.763 297.6 179.446L297.886 178.012C297.886 178.012 298.746 176.91 300.268 178.45L302.318 179.491C302.318 179.491 303.252 183.417 304.081 183.975C304.941 184.549 308.573 183.115 309.116 182.39Z" fill="#936D6D"/>
<path d="M309.238 182.646C309.238 182.646 311.936 184.624 310.232 186.934C308.529 189.244 297.767 192.626 297.194 193.214C297.194 193.214 297.104 189.591 298.596 188.489C298.596 188.489 306.69 187.689 308.137 185.832C309.584 183.975 309.238 182.646 309.238 182.646Z" fill="#F0F6FF"/>
<path d="M309.237 182.646C309.237 182.646 309.584 183.96 308.152 185.832C307.067 187.236 302.153 188.036 299.832 188.353C299.832 188.353 300.631 188.882 301.822 191.327C305.168 190.014 309.253 188.308 310.247 186.949C311.936 184.624 309.237 182.646 309.237 182.646Z" fill="#C4CCD6"/>
<path d="M310.338 190.603C310.338 190.603 305.469 192.731 303.118 193.683C300.766 194.634 298.189 195.917 298.189 195.917L297.405 195.026L296.184 197.094C296.184 197.094 292.506 198.785 290.743 200.31C288.964 201.835 287.578 203.873 287.352 204.356C287.352 204.356 292.13 199.344 295.702 198.031L296.667 197.668L297.345 196.008L298.114 196.944C298.129 196.913 308.77 191.992 310.338 190.603Z" fill="#24126A"/>
<path d="M292.218 257.769C292.112 257.437 291.947 257.12 291.735 256.939L275.381 242.567C274.944 242.174 274.477 242.401 274.341 243.065L271.417 257.784C271.282 258.449 271.538 259.294 271.975 259.687L285.435 271.508L284.621 275.478L288.947 274.21C289.143 274.119 289.309 273.908 289.369 273.561L292.293 258.841C292.354 258.494 292.308 258.117 292.218 257.769Z" fill="#7BD834"/>
<path d="M270.514 243.653L274.749 242.431L274.885 242.385C275.036 242.37 275.201 242.431 275.367 242.566L291.721 256.939C291.932 257.135 292.113 257.437 292.204 257.769L291.57 257.981L287.953 259.143L273.649 246.462L270.514 243.653Z" fill="#453C9E"/>
<path d="M267.68 260.94L284.034 275.312C284.471 275.705 284.938 275.478 285.074 274.814L287.998 260.094C288.134 259.43 287.878 258.585 287.441 258.192L271.087 243.82C270.649 243.427 270.182 243.654 270.046 244.318L267.122 259.038C266.987 259.702 267.243 260.547 267.68 260.94Z" fill="#24126A"/>
<path d="M287.275 274.134L290.2 259.415C290.335 258.751 290.079 257.905 289.642 257.513L273.288 243.14C273.152 243.02 273.017 242.959 272.881 242.959C273.047 242.914 273.243 242.959 273.439 243.125L289.793 257.498C290.23 257.89 290.486 258.736 290.35 259.4L287.426 274.119C287.336 274.572 287.095 274.844 286.808 274.829C287.019 274.769 287.2 274.512 287.275 274.134Z" fill="#160A5B"/>
<path d="M282.827 251.444L283.762 251.127C283.973 251.051 284.169 251.036 284.335 251.081L284.41 251.096C284.5 251.127 284.546 251.217 284.516 251.338L284.485 251.474L281.848 252.365L281.878 252.229C281.908 252.108 281.983 251.972 282.104 251.882L282.194 251.806C282.405 251.64 282.616 251.519 282.827 251.444Z" fill="#160A5B"/>
<path d="M283.008 253.391L281.848 252.38L284.485 251.157L285.631 252.153L283.008 253.391Z" fill="#160A5B"/>
<path d="M283.988 252.455L284.922 252.138C285.133 252.063 285.329 252.048 285.495 252.093L285.57 252.108C285.661 252.138 285.706 252.229 285.676 252.35L285.646 252.485L283.008 253.376L283.038 253.24C283.068 253.119 283.143 252.984 283.264 252.893L283.354 252.818C283.55 252.651 283.777 252.531 283.988 252.455Z" fill="url(#paint7_linear_276_6871)"/>
<path d="M284.501 252.878L284.621 252.229L284.546 252.259L284.41 252.908L284.501 252.878Z" fill="#722318"/>
<path d="M284.62 252.229L283.429 251.232L283.369 251.262L284.545 252.259L284.62 252.229Z" fill="#722318"/>
<path d="M277.613 246.869L278.547 246.552C278.758 246.477 278.954 246.462 279.12 246.507L279.195 246.522C279.286 246.552 279.331 246.643 279.301 246.764L279.271 246.899L276.633 247.79L276.663 247.654C276.693 247.534 276.768 247.398 276.889 247.307L276.979 247.232C277.175 247.066 277.402 246.945 277.613 246.869Z" fill="#160A5B"/>
<path d="M277.793 248.817L276.633 247.805L279.271 246.583L280.401 247.579L277.793 248.817Z" fill="#160A5B"/>
<path d="M278.759 247.881L279.694 247.564C279.905 247.488 280.101 247.473 280.266 247.518L280.342 247.534C280.432 247.564 280.477 247.654 280.447 247.775L280.417 247.911L277.779 248.802L277.809 248.666C277.84 248.545 277.915 248.409 278.036 248.319L278.126 248.243C278.337 248.077 278.548 247.941 278.759 247.881Z" fill="url(#paint8_linear_276_6871)"/>
<path d="M279.271 248.303L279.406 247.654L279.316 247.684L279.195 248.333L279.271 248.303Z" fill="#722318"/>
<path d="M279.405 247.654L278.215 246.658L278.154 246.688L279.315 247.684L279.405 247.654Z" fill="#722318"/>
<path d="M285.361 249.149L284.818 251.897L284.049 251.217L284.577 248.53C284.652 248.137 284.471 247.609 284.17 247.337L280.809 244.393C280.507 244.137 280.206 244.227 280.13 244.62L279.603 247.307L278.834 246.628L279.377 243.88C279.542 243.019 280.221 242.778 280.884 243.367L284.471 246.507C285.134 247.111 285.526 248.288 285.361 249.149Z" fill="#453C9E"/>
<path d="M279.586 244.122H281.063L285.027 247.986L285.042 250.145L284.816 251.912L283.852 252.244L283.987 250.025L284.048 248.5L283.264 247.322C283.264 247.322 281.772 246.054 281.756 246.009C281.726 245.979 279.586 244.122 279.586 244.122Z" fill="#453C9E"/>
<path d="M278.623 247.654L279.603 247.337L279.995 245.36L279.075 245.344L278.804 245.36L278.623 247.654Z" fill="#453C9E"/>
<path d="M278.953 243.442L279.993 243.08L279.692 243.548L279.345 243.624L278.953 243.442Z" fill="#453C9E"/>
<path d="M284.38 249.481L283.837 252.229L283.069 251.549L283.596 248.862C283.672 248.47 283.491 247.941 283.189 247.669L279.828 244.726C279.527 244.469 279.225 244.56 279.15 244.952L278.622 247.639L277.854 246.96L278.396 244.212C278.562 243.352 279.24 243.11 279.903 243.699L283.491 246.839C284.154 247.443 284.561 248.621 284.38 249.481Z" fill="#160A5B"/>
<path d="M280.945 242.023C280.945 242.023 280.146 244.756 280.266 245.465C280.387 246.175 281.774 247.639 282.648 247.956C283.522 248.273 283.236 247.307 283.477 246.733C283.718 246.16 283.793 244.861 283.793 244.861L280.945 242.023Z" fill="#FCD1C5"/>
<path d="M283.794 244.846L280.945 242.023C280.945 242.023 280.779 242.582 280.613 243.261C280.613 243.261 281.593 245.42 283.583 246.416C283.748 245.782 283.794 244.846 283.794 244.846Z" fill="#E2B1A6"/>
<path d="M280.703 242.204C280.703 242.204 281.562 245.284 284.23 245.812L283.567 242.461C283.567 242.461 281.336 241.691 281.261 241.676C281.185 241.661 280.703 242.204 280.703 242.204Z" fill="#3C5DE4"/>
<path d="M301.94 206.545C303.809 214.26 296.213 225.024 294.992 228.179C293.771 231.335 282.963 245.103 282.963 245.103C282.963 245.103 282.963 245.103 282.979 245.118C282.918 245.194 282.873 245.254 282.873 245.254C283.069 245.405 283.295 245.571 283.461 245.677C283.702 245.783 283.597 245.767 283.883 245.858C284.079 245.918 284.29 245.858 284.441 245.707C286.867 243.246 294.117 232.497 294.374 232.014C294.63 231.516 299.559 222.503 300.795 220.48C301.774 218.865 305.392 210.848 301.94 206.545Z" fill="#82A0FF"/>
<g opacity="0.3">
<path d="M352.18 135.107L382.35 117.677L352.18 100.267L322.01 117.687L352.18 135.107Z" fill="url(#paint9_linear_276_6871)"/>
<path d="M352.18 134.377L381.73 117.317L382.35 117.677L352.18 135.107L322 117.687L322.63 117.327L352.18 134.377Z" fill="white"/>
<path d="M322 250.697L352.18 268.117V135.107L322 117.677V250.697Z" fill="url(#paint10_linear_276_6871)"/>
<path d="M352.18 268.117L382.35 250.697V117.677L352.18 135.107V268.117Z" fill="url(#paint11_linear_276_6871)"/>
<path d="M391.56 187.297L421.74 169.877L391.57 152.457L361.39 169.877L391.56 187.297Z" fill="url(#paint12_linear_276_6871)"/>
<path d="M391.56 186.577L421.11 169.517L421.74 169.877L391.56 187.297L361.39 169.877L362.02 169.517L391.56 186.577Z" fill="white"/>
<path d="M361.391 273.477L391.561 290.907V187.297L361.391 169.877V273.477Z" fill="url(#paint13_linear_276_6871)"/>
<path d="M391.56 290.907L421.74 273.477V169.877L391.56 187.297V290.907Z" fill="url(#paint14_linear_276_6871)"/>
<path d="M430.951 218.797L461.121 201.377L430.951 183.957L400.781 201.377L430.951 218.797Z" fill="url(#paint15_linear_276_6871)"/>
<path d="M430.951 218.077L460.501 201.017L461.121 201.377L430.951 218.797L400.781 201.377L401.401 201.017L430.951 218.077Z" fill="white"/>
<path d="M400.781 296.267L430.951 313.687V218.797L400.781 201.377V296.267Z" fill="url(#paint16_linear_276_6871)"/>
<path d="M430.951 313.687L461.121 296.267V201.377L430.951 218.797V313.687Z" fill="url(#paint17_linear_276_6871)"/>
<path d="M470.34 269.747L500.51 252.317L470.34 234.897L440.17 252.327L470.34 269.747Z" fill="url(#paint18_linear_276_6871)"/>
<path d="M470.34 269.017L499.89 251.957L500.51 252.317L470.34 269.747L440.17 252.327L440.79 251.967L470.34 269.017Z" fill="white"/>
<path d="M440.17 319.057L470.34 336.477V269.747L440.17 252.317V319.057Z" fill="url(#paint19_linear_276_6871)"/>
<path d="M470.34 336.477L500.51 319.057V252.317L470.34 269.747V336.477Z" fill="url(#paint20_linear_276_6871)"/>
<path d="M509.73 285.767L539.9 268.347L509.73 250.927L479.56 268.347L509.73 285.767Z" fill="url(#paint21_linear_276_6871)"/>
<path d="M509.73 285.047L539.28 267.987L539.9 268.347L509.73 285.767L479.56 268.347L480.18 267.987L509.73 285.047Z" fill="white"/>
<path d="M479.55 341.847L509.73 359.267V285.767L479.55 268.347V341.847Z" fill="url(#paint22_linear_276_6871)"/>
<path d="M509.73 359.267L539.9 341.847V268.347L509.73 285.767V359.267Z" fill="url(#paint23_linear_276_6871)"/>
</g>
<path opacity="0.5" d="M479.55 283.837L352.18 210.097L361.39 192.677L485.43 270.197L479.55 283.837Z" fill="#32589D"/>
<path d="M352.18 108.987L382.35 91.567L352.18 74.147L322.01 91.567L352.18 108.987Z" fill="url(#paint24_linear_276_6871)"/>
<path d="M352.18 108.267L381.73 91.207L382.35 91.567L352.18 108.987L322 91.567L322.63 91.207L352.18 108.267Z" fill="white"/>
<path d="M322 192.677L352.18 210.097V108.987L322 91.5669V192.677Z" fill="url(#paint25_linear_276_6871)"/>
<path d="M352.18 210.097L382.35 192.677V91.5669L352.18 108.987V210.097Z" fill="url(#paint26_linear_276_6871)"/>
<path d="M391.56 161.177L421.74 143.757L391.57 126.337L361.39 143.757L391.56 161.177Z" fill="url(#paint27_linear_276_6871)"/>
<path opacity="0.3" d="M391.57 154.847L410.77 143.757L391.57 132.667L372.36 143.757L391.57 154.847Z" fill="url(#paint28_linear_276_6871)"/>
<path d="M391.56 160.457L421.11 143.397L421.74 143.757L391.56 161.177L361.39 143.757L362.02 143.397L391.56 160.457Z" fill="white"/>
<path d="M361.391 215.467L391.561 232.887V161.177L361.391 143.757V215.467Z" fill="url(#paint29_linear_276_6871)"/>
<path d="M391.56 232.887L421.74 215.467V143.757L391.56 161.177V232.887Z" fill="url(#paint30_linear_276_6871)"/>
<path d="M391.56 135.107L421.74 117.677L391.57 100.267L361.39 117.687L391.56 135.107Z" fill="url(#paint31_linear_276_6871)"/>
<path d="M391.56 134.377L421.11 117.317L421.74 117.677L391.56 135.107L361.39 117.687L362.02 117.327L391.56 134.377Z" fill="white"/>
<path d="M361.391 129.997L391.561 147.417V135.107L361.391 117.677V129.997Z" fill="url(#paint32_linear_276_6871)"/>
<path d="M391.56 147.417L421.74 129.997V117.677L391.56 135.107V147.417Z" fill="url(#paint33_linear_276_6871)"/>
<path d="M430.951 192.677L461.121 175.257L430.951 157.837L400.781 175.257L430.951 192.677Z" fill="url(#paint34_linear_276_6871)"/>
<path opacity="0.2" d="M430.972 182.237C443.452 182.207 451.242 175.347 444.992 169.887C442.092 167.357 436.732 165.797 430.942 165.807C418.462 165.837 410.672 172.697 416.922 178.157C419.822 180.697 425.172 182.247 430.972 182.237Z" fill="#3045BC"/>
<path d="M430.951 191.957L460.501 174.897L461.121 175.257L430.951 192.677L400.781 175.257L401.401 174.897L430.951 191.957Z" fill="white"/>
<path d="M400.781 238.257L430.951 255.677V192.677L400.781 175.257V238.257Z" fill="url(#paint35_linear_276_6871)"/>
<path d="M430.951 255.677L461.121 238.257V175.257L430.951 192.677V255.677Z" fill="url(#paint36_linear_276_6871)"/>
<path d="M470.34 243.627L500.51 226.207L470.34 208.787L440.17 226.207L470.34 243.627Z" fill="url(#paint37_linear_276_6871)"/>
<path d="M470.34 242.907L499.89 225.847L500.51 226.207L470.34 243.627L440.17 226.207L440.79 225.847L470.34 242.907Z" fill="white"/>
<path d="M440.17 261.047L470.34 278.467V243.627L440.17 226.207V261.047Z" fill="url(#paint38_linear_276_6871)"/>
<path d="M470.34 278.467L500.51 261.047V226.207L470.34 243.627V278.467Z" fill="url(#paint39_linear_276_6871)"/>
<path d="M509.73 259.647L539.9 242.227L509.73 224.807L479.56 242.227L509.73 259.647Z" fill="url(#paint40_linear_276_6871)"/>
<path d="M509.73 258.927L539.28 241.867L539.9 242.227L509.73 259.647L479.56 242.227L480.18 241.867L509.73 258.927Z" fill="white"/>
<path d="M479.55 283.837L509.73 301.257V259.647L479.55 242.227V283.837Z" fill="url(#paint41_linear_276_6871)"/>
<path d="M509.73 301.257L539.9 283.837V242.227L509.73 259.647V301.257Z" fill="url(#paint42_linear_276_6871)"/>
<path opacity="0.5" d="M417.42 120.177L403 128.497C391.55 124.487 383.26 118.387 384.49 114.867C385.72 111.347 396.02 111.747 407.48 115.767C411.21 117.067 414.59 118.587 417.42 120.177Z" fill="#32589D"/>
<path d="M413.531 102.067L413.391 98.4469L412.551 96.3369L412.021 98.0869L413.531 102.067Z" fill="#DD821F"/>
<path d="M375.55 102.757L375.41 99.2068C375.41 99.2068 378.41 102.207 378.41 102.277C378.42 102.347 375.55 102.757 375.55 102.757Z" fill="#FFD85A"/>
<path d="M394.8 113.287C405.29 113.037 413.61 107.707 413.39 98.4468C413.17 89.1868 404.49 81.8868 394 82.1368C383.51 82.3868 375.19 90.0968 375.41 99.3568C375.64 108.617 384.32 113.547 394.8 113.287Z" fill="#FFD85A"/>
<path d="M394.951 119.287C405.441 119.037 413.761 111.327 413.541 102.067C413.321 92.8067 404.641 85.5067 394.151 85.7567C383.661 86.0067 375.341 93.7167 375.561 102.977C375.781 112.237 384.461 119.537 394.951 119.287Z" fill="#FFD85A"/>
<path d="M407.801 90.4468C411.241 93.3868 413.431 97.4868 413.541 102.067C413.761 111.327 405.441 119.037 394.951 119.287C389.761 119.407 385.021 117.687 381.521 114.787L407.801 90.4468Z" fill="#DD821F"/>
<path d="M376.42 102.964C376.208 94.1193 384.161 86.7548 394.181 86.5152C404.202 86.2756 412.497 93.2517 412.709 102.097C412.92 110.942 404.968 118.306 394.947 118.546C384.926 118.785 376.631 111.809 376.42 102.964Z" fill="#F9BF30"/>
<path d="M380.003 102.877C379.833 95.7769 386.217 89.8651 394.261 89.6728C402.305 89.4805 408.964 95.0805 409.134 102.181C409.304 109.281 402.92 115.193 394.876 115.385C386.831 115.577 380.173 109.977 380.003 102.877Z" fill="#F2B42A"/>
<path d="M379.98 102.877C379.97 102.587 379.98 102.287 380 101.997C380.67 108.677 387.1 113.817 394.81 113.627C402.52 113.447 408.7 107.997 409.05 101.297C409.08 101.587 409.1 101.877 409.11 102.167C409.28 109.267 402.9 115.177 394.86 115.367C386.81 115.577 380.15 109.977 379.98 102.877Z" fill="#FFD85A"/>
<path d="M391.752 103.607L394.742 100.837C397.622 101.487 402.982 102.707 407.262 103.717C406.202 106.917 403.602 109.567 400.212 110.967L391.752 103.607Z" fill="#FFD85A"/>
<path d="M396.451 111.947C395.981 112.007 395.491 112.047 395.001 112.057C391.481 112.137 388.271 110.987 385.871 109.047L390.751 104.527L396.451 111.947Z" fill="#FFD85A"/>
<path d="M397.941 97.8767L403.571 92.6667C405.461 94.3167 407.151 96.1467 407.611 98.5767L397.941 97.8767Z" fill="#FFD85A"/>
<path d="M395 91.207C386.96 91.397 380.58 97.307 380.75 104.407C380.78 105.847 381.09 107.217 381.61 108.497C380.62 106.807 380.03 104.897 379.98 102.867C379.81 95.767 386.19 89.857 394.23 89.667C400.64 89.517 406.17 93.047 408.24 98.077C405.77 93.877 400.74 91.067 395 91.207Z" fill="#DD821F"/>
<path d="M413.39 98.4469C413.42 99.8269 413.55 100.817 413.23 102.107C412.81 100.747 411.9 96.6869 411.9 96.6869L410.45 93.4569L409.25 92.4669L407.21 90.9769L407.04 86.3169C410.84 89.3069 413.27 93.6069 413.39 98.4469Z" fill="#DD821F"/>
<path d="M376.64 97.9768L376.56 97.0268C376.56 96.8868 376.45 96.7768 376.32 96.7868H376.25C376.12 96.7868 376.02 96.9068 376.02 97.0368L376.1 97.9868C376.1 98.1268 376.21 98.2368 376.34 98.2268H376.41C376.54 98.2268 376.65 98.1168 376.64 97.9768Z" fill="#DD821F"/>
<path d="M378.311 94.3167L378.211 92.5966C378.211 92.4366 378.081 92.3167 377.941 92.3167H377.771C377.621 92.3167 377.51 92.4466 377.51 92.6066L377.611 94.3266C377.611 94.4866 377.741 94.6066 377.881 94.6066H378.051C378.201 94.6066 378.311 94.4767 378.311 94.3167Z" fill="#DD821F"/>
<path d="M380.621 91.1368L380.521 89.4768C380.521 89.2968 380.381 89.1568 380.211 89.1668L379.921 89.1768C379.751 89.1768 379.621 89.3268 379.631 89.5068L379.731 91.1668C379.731 91.3468 379.871 91.4868 380.041 91.4768L380.331 91.4668C380.501 91.4568 380.631 91.3068 380.621 91.1368Z" fill="#DD821F"/>
<path d="M384.09 88.5568L383.98 86.5468C383.98 86.3668 383.84 86.2268 383.67 86.2368L383.38 86.2468C383.21 86.2468 383.08 86.3968 383.09 86.5768L383.2 88.5868C383.2 88.7668 383.34 88.9068 383.51 88.8968L383.8 88.8868C383.96 88.8768 384.09 88.7368 384.09 88.5568Z" fill="#DD821F"/>
<path d="M387.57 86.8668L387.46 84.5468C387.46 84.3668 387.32 84.2268 387.15 84.2368L386.86 84.2468C386.69 84.2468 386.56 84.3968 386.57 84.5768L386.68 86.8968C386.68 87.0768 386.82 87.2168 386.99 87.2068L387.28 87.1968C387.44 87.1868 387.57 87.0468 387.57 86.8668Z" fill="#DD821F"/>
<path d="M391.07 85.8366L390.96 83.6066C390.96 83.4266 390.82 83.2866 390.65 83.2966L390.36 83.3066C390.19 83.3066 390.06 83.4567 390.07 83.6367L390.18 85.8666C390.18 86.0466 390.32 86.1867 390.49 86.1767L390.78 86.1666C390.94 86.1566 391.07 86.0166 391.07 85.8366Z" fill="#DD821F"/>
<path d="M394.581 85.4868L394.471 83.2168C394.471 83.0368 394.331 82.8968 394.161 82.9068L393.871 82.9168C393.701 82.9168 393.571 83.0668 393.581 83.2468L393.691 85.5168C393.691 85.6968 393.831 85.8368 394.001 85.8268L394.291 85.8168C394.461 85.8068 394.591 85.6568 394.581 85.4868Z" fill="#DD821F"/>
<path d="M398.111 85.5567L398.001 83.4367C398.001 83.2567 397.861 83.1167 397.691 83.1267L397.401 83.1367C397.231 83.1367 397.101 83.2867 397.111 83.4667L397.221 85.5867C397.221 85.7667 397.361 85.9067 397.531 85.8967L397.821 85.8867C397.981 85.8767 398.111 85.7367 398.111 85.5567Z" fill="#DD821F"/>
<path d="M401.65 86.3268L401.54 84.2668C401.54 84.0868 401.4 83.9468 401.23 83.9568L400.94 83.9668C400.77 83.9668 400.64 84.1168 400.65 84.2968L400.76 86.3568C400.76 86.5368 400.9 86.6768 401.07 86.6668L401.36 86.6568C401.53 86.6568 401.66 86.5068 401.65 86.3268Z" fill="#DD821F"/>
<path d="M405.221 88.0569L405.111 85.8369C405.111 85.6569 404.971 85.5169 404.801 85.5269L404.511 85.5369C404.341 85.5369 404.211 85.6869 404.221 85.8669L404.331 88.0869C404.331 88.2669 404.471 88.4069 404.641 88.3969L404.931 88.3869C405.091 88.3869 405.221 88.2369 405.221 88.0569Z" fill="#DD821F"/>
<path d="M422.96 162.817C422.96 162.817 422.42 163.377 421.86 164.037C421.3 164.697 419.73 165.617 419.07 166.027C418.41 166.437 415.39 168.727 414.76 170.987C414.13 173.247 416.29 173.537 418.5 173.147C420.71 172.757 422.77 170.717 423.38 169.977C423.98 169.237 426.07 167.567 428.78 166.167C431.49 164.767 429.85 162.877 429.85 162.877L422.96 162.817Z" fill="#32589D"/>
<path d="M443.09 169.517C443.09 169.517 443.54 170.527 443.66 171.837C443.79 173.137 443.97 175.967 444.04 176.797C444.11 177.627 444.13 179.647 442.68 181.587C441.22 183.527 440.47 184.287 438.54 183.527C436.6 182.767 436.65 179.517 436.99 177.847C437.33 176.177 437.65 172.437 437.62 172.047C437.58 171.657 437.73 171.407 437.73 171.407L443.09 169.517Z" fill="#32589D"/>
<path d="M416.28 124.487C416.28 124.487 416.69 139.387 420.16 147.297C420.16 147.297 422.65 154.257 422.98 162.547C422.98 162.547 422.41 163.977 423.22 165.137C424.03 166.297 429.13 167.357 429.97 163.547C430.81 159.737 430.49 152.607 429.56 149.637C428.63 146.667 429.89 138.467 429.89 138.467C429.89 138.467 431.28 139.357 433.11 145.247C434.94 151.137 436.28 153.377 436.91 155.007C437.54 156.637 438.12 166.607 437.72 171.477C437.72 171.477 441.85 172.067 443.04 170.087C444.23 168.117 444.63 157.907 444.33 154.647C444.03 151.387 442.67 140.967 442.85 137.737C443.04 134.507 443.71 131.887 442.97 128.667C442.23 125.447 420.45 118.287 420.45 118.287L416.28 124.487Z" fill="#32589D"/>
<path d="M442.86 137.747C443.05 134.517 443.72 131.897 442.98 128.677C442.7 127.467 439.45 125.697 435.5 123.967C428.83 123.357 420.38 122.657 419.8 122.737C419.27 122.817 417.9 123.337 416.75 123.797L416.28 124.487C416.28 124.487 416.3 125.397 416.39 126.877C417.94 127.347 420.94 126.857 420.94 126.857C421.36 127.907 423.96 131.617 427.19 133.217C430.42 134.817 439.87 134.267 440.42 134.877C440.96 135.487 441.07 143.647 441.01 144.677C440.95 145.717 441.9 152.247 442.78 158.017C443.64 163.697 442.33 170.597 442.29 170.817C442.6 170.617 442.86 170.377 443.05 170.067C444.24 168.097 444.64 157.887 444.34 154.627C444.04 151.367 442.67 140.967 442.86 137.747Z" fill="#32589D"/>
<path d="M423.579 75.757C423.579 75.757 418.749 76.857 417.119 77.237C416.849 77.297 416.629 77.487 416.529 77.747C416.059 78.937 414.879 82.627 415.769 88.017C416.859 94.637 416.509 99.097 416.509 99.097L414.269 110.727C414.269 110.727 411.459 121.807 411.699 122.107C411.939 122.407 418.169 127.147 420.119 126.487C422.069 125.817 421.429 124.717 421.429 124.717C421.429 124.717 423.009 132.747 429.989 132.667C436.969 132.587 442.669 132.617 443.859 129.787C445.039 126.967 443.539 115.107 442.309 110.407C441.079 105.707 438.149 96.347 438.149 96.347L448.369 85.037L439.629 78.367C439.629 78.367 437.539 74.487 436.689 73.997C435.829 73.507 435.379 73.917 435.379 73.917L423.579 75.757Z" fill="#5778FF"/>
<path d="M420.25 123.937C420.26 124.337 420.02 124.937 418.77 125.367C417.42 125.827 414.09 123.817 411.92 122.297C413.01 123.197 418.36 127.107 420.14 126.497C420.53 126.367 420.81 126.217 421.02 126.057C420.6 125.167 420.37 124.397 420.25 123.937Z" fill="#32589D"/>
<path d="M443.8 128.867C442.55 131.847 436.53 131.817 429.17 131.907C427.3 131.927 425.79 131.397 424.59 130.587C425.86 131.807 427.61 132.717 429.99 132.687C436.97 132.607 442.67 132.637 443.86 129.807C444.25 128.877 444.35 126.977 444.26 124.677C444.27 126.547 444.14 128.057 443.8 128.867Z" fill="#32589D"/>
<path d="M436.499 73.917C436.499 73.917 438.279 76.077 435.719 78.987C434.139 80.777 431.419 84.647 429.099 88.667C427.649 91.177 426.309 92.517 425.559 94.667C425.559 94.667 425.449 92.107 425.349 88.147C425.249 84.417 425.199 80.537 425.369 79.557C425.709 77.557 434.519 72.937 436.499 73.917Z" fill="#F0FFFF"/>
<path d="M429.82 80.417C429.82 80.417 428.91 80.987 428.59 80.937C428.27 80.887 427.26 79.907 427.26 79.907C427.26 79.907 424.73 79.857 424.45 78.777C424.17 77.687 423.99 76.597 423.73 76.037C423.47 75.477 422.38 72.767 422.37 71.667C422.36 70.567 422.4 68.607 421.93 67.567C421.46 66.527 420.82 56.127 430.86 56.427C440.9 56.717 437.78 67.147 437.78 67.147C437.78 67.147 438.51 67.457 438.07 68.797C437.63 70.137 437.53 70.277 437.3 70.947C437.07 71.617 436.96 72.037 436.32 72.577L436.15 73.817C436.15 73.817 436.63 75.707 435.38 77.537C434.15 79.367 429.82 80.417 429.82 80.417Z" fill="#FCE8EE"/>
<path d="M416.84 77.3669C416.84 77.3669 415.77 77.5269 412.3 86.2669C410.36 91.1469 407.37 96.1969 406.74 99.8169C406.11 103.437 406.46 107.317 407.18 107.587C407.87 107.847 420.35 112.517 424.26 113.997C424.48 114.077 424.71 113.947 424.75 113.717L425.83 107.687L418.08 104.697C418.08 104.697 416.6 102.897 415.22 102.217C415.22 102.217 416.77 99.3569 416.67 98.5769C416.57 97.7969 416.81 89.7169 415.9 86.4269C414.98 83.1269 416.84 77.3669 416.84 77.3669Z" fill="#5778FF"/>
<path d="M421.379 100.457C421.379 100.457 420.309 99.7369 420.049 99.6369C419.789 99.5369 418.359 99.0469 418.089 98.9269C417.889 98.8369 417.059 98.9069 416.639 98.9469C416.489 98.9669 416.359 99.0469 416.289 99.1869C415.959 99.7969 415.039 101.577 415.149 102.257C415.149 102.257 417.729 103.887 418.019 104.617L418.429 104.707C418.409 104.697 420.139 100.997 421.379 100.457Z" fill="#FCE8EE"/>
<path d="M442.3 110.427C442 109.297 441.61 107.897 441.18 106.427L425.49 113.147C425.49 113.147 430.18 118.917 438.41 118.547C440.66 118.447 442.3 117.637 443.51 116.937C443.16 114.377 442.71 111.997 442.3 110.427Z" fill="#5778FF"/>
<path d="M448.37 85.0569C448.37 85.0569 444.23 85.6269 440.89 90.9269C437.55 96.2269 435.11 102.357 435.11 102.357L434.99 103.047C434.69 104.847 432.77 105.877 431.1 105.137C427.57 103.557 422.34 101.177 421.37 100.467C421.37 100.467 418.24 102.197 417.39 106.277C416.71 109.537 416.88 109.547 416.88 109.547C416.88 109.547 430.81 116.047 436.19 115.987C441.57 115.927 448.39 98.2369 449.15 94.5769C449.91 90.9069 450.73 86.0969 448.37 85.0569Z" fill="#32589D"/>
<path d="M448.37 85.0569C448.37 85.0569 444.23 85.6269 440.89 90.9269C437.55 96.2269 435.11 102.357 435.11 102.357L434.99 103.047C434.69 104.847 432.77 105.877 431.1 105.137C427.57 103.557 422.34 101.177 421.37 100.467C421.37 100.467 418.24 102.197 417.39 106.277C416.71 109.537 416.88 109.547 416.88 109.547C416.88 109.547 430.81 116.047 436.19 115.987C441.57 115.927 448.39 98.2369 449.15 94.5769C449.91 90.9069 450.73 86.0969 448.37 85.0569Z" fill="#5778FF"/>
<path d="M433.11 105.957C433.11 105.957 434.87 107.597 435.63 106.697C436.4 105.797 436.17 105.697 436.17 105.697C436.17 105.697 437.75 105.687 437.94 104.687C438.13 103.697 438.91 104.217 438.96 103.117C439 102.017 437.68 102.237 437.68 102.237L433.11 105.957Z" fill="#4553C7"/>
<path d="M430.979 105.077C430.979 105.077 431.459 104.627 432.089 104.097C432.709 103.567 433.719 101.387 433.889 101.197C434.059 101.007 436.159 99.397 437.179 99.367C438.189 99.337 437.439 100.477 437.209 100.637C436.979 100.797 435.989 101.287 435.989 101.287C435.989 101.287 434.969 102.137 434.859 102.267C434.739 102.397 437.689 102.067 438.159 102.347C438.629 102.637 438.519 103.387 438.189 103.587C437.859 103.787 437.609 103.787 437.609 103.787C437.609 103.787 437.939 104.677 437.059 105.087C436.179 105.497 435.969 105.267 435.969 105.267C435.969 105.267 435.889 106.797 434.429 106.497L430.979 105.077Z" fill="#FCE8EE"/>
<path d="M421.71 62.2469C421.71 62.2469 420.4 66.4169 423.85 65.2369C427.3 64.0469 430.42 62.0669 431.5 62.8169C432.32 63.3969 432.29 65.1569 432.22 65.9669C432.2 66.2469 432.27 66.5169 432.43 66.7469L433.45 68.2369C433.57 68.4069 433.63 68.5969 433.65 68.8069L433.72 69.8369C433.74 70.0969 433.95 70.3069 434.21 70.3169L434.45 70.3269C434.71 70.3469 434.95 70.1569 434.99 69.8969L435.26 68.3769C435.26 68.3769 436.07 66.3369 437.79 67.1369C437.79 67.1369 438.94 65.5969 438.56 62.2969C438.18 58.9969 436.7 55.5669 430.23 55.0269C423.76 54.4869 421.71 62.2469 421.71 62.2469Z" fill="#AA9AAC"/>
<path d="M431.6 84.0869L430.63 83.3369C430.63 83.3369 429.73 84.0769 429.39 84.8669C429.04 85.6569 429.39 88.1669 429.39 88.1669L429.09 88.6769L428.73 88.0169L428.42 85.0469C428.42 85.0469 428.75 82.8569 428.78 82.7969C428.81 82.7369 430.65 82.9869 430.65 82.9869C430.65 82.9869 431.29 83.4769 431.6 84.0869Z" fill="#C4E3FF"/>
<path d="M426.949 81.137C426.949 81.137 425.919 81.207 425.449 81.597C425.449 81.597 426.539 81.647 426.709 81.667C426.879 81.687 426.949 81.137 426.949 81.137Z" fill="#C4E3FF"/>
<path d="M428.92 81.367L430.66 82.987C430.66 82.987 429.14 83.687 428.71 85.047C428.71 85.047 426.82 85.397 426.65 84.717C426.48 84.037 426.65 82.307 426.43 81.547C426.2 80.787 428.92 81.367 428.92 81.367Z" fill="#32589D"/>
<path d="M426.71 84.6869C426.71 84.6869 426.39 86.1069 426.03 86.6969C425.68 87.2869 425.32 87.9369 425.32 87.9369L425.36 96.2669C425.36 96.2669 428.42 89.947 429.09 88.677C429.09 88.677 428.99 85.6369 428.7 85.0569C428.42 84.4769 426.71 84.6869 426.71 84.6869Z" fill="#32589D"/>
<path d="M434.94 72.377C432.93 78.187 427.26 79.907 427.26 79.907C427.26 79.907 428.27 80.887 428.59 80.937C428.91 80.987 429.82 80.417 429.82 80.417C429.82 80.417 434.14 79.367 435.39 77.527C436.64 75.697 436.16 73.807 436.16 73.807L436.33 72.567C435.43 72.867 434.94 72.377 434.94 72.377Z" fill="#E2C8CF"/>
<path d="M439.549 79.177C439.549 79.177 438.759 81.917 438.649 82.017C438.549 82.117 436.649 81.897 436.649 81.897L437.569 83.637C437.569 83.637 428.039 93.857 426.059 99.357C426.059 99.357 430.569 92.387 438.509 84.067L437.389 82.367L439.339 82.747L439.549 79.177Z" fill="#32589D"/>
<path d="M423.889 76.7568L423.379 77.3368L423.969 77.8868L422.209 79.4768C422.209 79.4768 421.669 90.6568 423.819 98.0668C423.819 98.0668 420.899 91.2768 421.559 79.1768L423.469 77.8868L422.849 77.2768L423.889 76.7568Z" fill="#32589D"/>
<path d="M429.9 138.467C429.9 138.467 429.92 138.477 429.97 138.517L427.5 135.887C428.64 137.497 427.33 144.857 427.19 146.537C427.05 148.227 428.51 151.707 429.05 155.777C429.59 159.847 428.48 165.657 428.48 165.677C429.19 165.267 429.75 164.587 429.98 163.527C430.82 159.717 430.5 152.587 429.57 149.617C428.64 146.657 429.9 138.467 429.9 138.467Z" fill="#32589D"/>
<path d="M436.199 115.967C441.579 115.907 448.399 98.217 449.159 94.557C449.289 93.947 449.409 93.307 449.529 92.657C449.509 92.707 448.119 96.527 446.769 99.917C445.419 103.327 438.229 113.657 434.549 114.337C431.239 114.947 419.319 109.377 417.009 108.287C416.799 109.527 416.889 109.537 416.889 109.537C416.889 109.537 430.819 116.037 436.199 115.967Z" fill="#32589D"/>
<path d="M434.449 70.3269C434.709 70.3469 434.949 70.1569 434.989 69.8969L435.259 68.3769C435.259 68.3769 436.069 66.3369 437.789 67.1369C437.789 67.1369 438.869 65.6769 438.579 62.5569C436.669 65.4169 432.439 66.7469 432.439 66.7469L433.459 68.2369C433.579 68.4069 433.639 68.5969 433.659 68.8069L433.729 69.8369C433.749 70.0969 433.959 70.3069 434.219 70.3169L434.449 70.3269Z" fill="#938496"/>
</g>
<defs>
<linearGradient id="paint0_linear_276_6871" x1="241.43" y1="271.713" x2="282.055" y2="341.963" gradientUnits="userSpaceOnUse">
<stop stop-color="#C0BFF6"/>
<stop offset="0.2938" stop-color="#C5C4F7"/>
<stop offset="0.6399" stop-color="#D3D2F9"/>
<stop offset="1" stop-color="#E9E9FD"/>
</linearGradient>
<linearGradient id="paint1_linear_276_6871" x1="226.98" y1="294.41" x2="298.354" y2="294.41" gradientUnits="userSpaceOnUse">
<stop offset="0.3548" stop-color="#BCBEFF"/>
<stop offset="0.4436" stop-color="#B5B8FC"/>
<stop offset="0.5695" stop-color="#A3A7F5"/>
<stop offset="0.7175" stop-color="#848BE9"/>
<stop offset="0.8814" stop-color="#5A64D8"/>
<stop offset="0.8925" stop-color="#5761D7"/>
</linearGradient>
<linearGradient id="paint2_linear_276_6871" x1="240.377" y1="260.313" x2="282.056" y2="332.387" gradientUnits="userSpaceOnUse">
<stop stop-color="#E9E9FD"/>
<stop offset="0.3601" stop-color="#D3D2F9"/>
<stop offset="0.7062" stop-color="#C5C4F7"/>
<stop offset="1" stop-color="#C0BFF6"/>
</linearGradient>
<linearGradient id="paint3_linear_276_6871" x1="241.43" y1="243.103" x2="282.055" y2="313.352" gradientUnits="userSpaceOnUse">
<stop stop-color="#C0BFF6"/>
<stop offset="0.2938" stop-color="#C5C4F7"/>
<stop offset="0.6399" stop-color="#D3D2F9"/>
<stop offset="1" stop-color="#E9E9FD"/>
</linearGradient>
<linearGradient id="paint4_linear_276_6871" x1="226.98" y1="265.799" x2="298.354" y2="265.799" gradientUnits="userSpaceOnUse">
<stop offset="0.3548" stop-color="#BCBEFF"/>
<stop offset="0.4436" stop-color="#B5B8FC"/>
<stop offset="0.5695" stop-color="#A3A7F5"/>
<stop offset="0.7175" stop-color="#848BE9"/>
<stop offset="0.8814" stop-color="#5A64D8"/>
<stop offset="0.8925" stop-color="#5761D7"/>
</linearGradient>
<linearGradient id="paint5_linear_276_6871" x1="309.11" y1="183.276" x2="310.804" y2="183.276" gradientUnits="userSpaceOnUse">
<stop stop-color="#5761D7"/>
<stop offset="0.0726" stop-color="#5472D8"/>
<stop offset="0.2791" stop-color="#4E9CDB"/>
<stop offset="0.4801" stop-color="#49BDDD"/>
<stop offset="0.6715" stop-color="#45D5DF"/>
<stop offset="0.8493" stop-color="#43E3E0"/>
<stop offset="1" stop-color="#42E8E0"/>
</linearGradient>
<linearGradient id="paint6_linear_276_6871" x1="310.408" y1="207.766" x2="317.522" y2="207.766" gradientUnits="userSpaceOnUse">
<stop stop-color="#5761D7"/>
<stop offset="0.0726" stop-color="#5472D8"/>
<stop offset="0.2791" stop-color="#4E9CDB"/>
<stop offset="0.4801" stop-color="#49BDDD"/>
<stop offset="0.6715" stop-color="#45D5DF"/>
<stop offset="0.8493" stop-color="#43E3E0"/>
<stop offset="1" stop-color="#42E8E0"/>
</linearGradient>
<linearGradient id="paint7_linear_276_6871" x1="283.005" y1="252.729" x2="285.671" y2="252.729" gradientUnits="userSpaceOnUse">
<stop stop-color="#5761D7"/>
<stop offset="0.0726" stop-color="#5472D8"/>
<stop offset="0.2791" stop-color="#4E9CDB"/>
<stop offset="0.4801" stop-color="#49BDDD"/>
<stop offset="0.6715" stop-color="#45D5DF"/>
<stop offset="0.8493" stop-color="#43E3E0"/>
<stop offset="1" stop-color="#42E8E0"/>
</linearGradient>
<linearGradient id="paint8_linear_276_6871" x1="277.788" y1="248.153" x2="280.453" y2="248.153" gradientUnits="userSpaceOnUse">
<stop stop-color="#5761D7"/>
<stop offset="0.0726" stop-color="#5472D8"/>
<stop offset="0.2791" stop-color="#4E9CDB"/>
<stop offset="0.4801" stop-color="#49BDDD"/>
<stop offset="0.6715" stop-color="#45D5DF"/>
<stop offset="0.8493" stop-color="#43E3E0"/>
<stop offset="1" stop-color="#42E8E0"/>
</linearGradient>
<linearGradient id="paint9_linear_276_6871" x1="367.264" y1="108.971" x2="352.262" y2="134.954" gradientUnits="userSpaceOnUse">
<stop stop-color="#C0D6FF"/>
<stop offset="0.4983" stop-color="#D2E8FF"/>
<stop offset="1" stop-color="#E9FFFF"/>
</linearGradient>
<linearGradient id="paint10_linear_276_6871" x1="352.177" y1="201.608" x2="322.176" y2="201.608" gradientUnits="userSpaceOnUse">
<stop stop-color="#C0D6FF"/>
<stop offset="0.2978" stop-color="#C5DBFF"/>
<stop offset="0.6488" stop-color="#D3E9FF"/>
<stop offset="1" stop-color="#E9FFFF"/>
</linearGradient>
<linearGradient id="paint11_linear_276_6871" x1="402.139" y1="172.761" x2="357.071" y2="172.761" gradientUnits="userSpaceOnUse">
<stop stop-color="#5778FF"/>
<stop offset="0.1779" stop-color="#5C7DFF"/>
<stop offset="0.3876" stop-color="#6A8AFF"/>
<stop offset="0.6134" stop-color="#82A0FF"/>
<stop offset="0.849" stop-color="#A3BEFF"/>
<stop offset="1" stop-color="#BCD5FF"/>
</linearGradient>
<linearGradient id="paint12_linear_276_6871" x1="406.652" y1="161.168" x2="391.65" y2="187.15" gradientUnits="userSpaceOnUse">
<stop stop-color="#C0D6FF"/>
<stop offset="0.4983" stop-color="#D2E8FF"/>
<stop offset="1" stop-color="#E9FFFF"/>
</linearGradient>
<linearGradient id="paint13_linear_276_6871" x1="391.565" y1="239.101" x2="361.565" y2="239.101" gradientUnits="userSpaceOnUse">
<stop stop-color="#C0D6FF"/>
<stop offset="0.2978" stop-color="#C5DBFF"/>
<stop offset="0.6488" stop-color="#D3E9FF"/>
<stop offset="1" stop-color="#E9FFFF"/>
</linearGradient>
<linearGradient id="paint14_linear_276_6871" x1="441.527" y1="210.254" x2="396.459" y2="210.254" gradientUnits="userSpaceOnUse">
<stop stop-color="#5778FF"/>
<stop offset="0.1779" stop-color="#5C7DFF"/>
<stop offset="0.3876" stop-color="#6A8AFF"/>
<stop offset="0.6134" stop-color="#82A0FF"/>
<stop offset="0.849" stop-color="#A3BEFF"/>
<stop offset="1" stop-color="#BCD5FF"/>
</linearGradient>
<linearGradient id="paint15_linear_276_6871" x1="446.041" y1="192.663" x2="431.038" y2="218.646" gradientUnits="userSpaceOnUse">
<stop stop-color="#C0D6FF"/>
<stop offset="0.4983" stop-color="#D2E8FF"/>
<stop offset="1" stop-color="#E9FFFF"/>
</linearGradient>
<linearGradient id="paint16_linear_276_6871" x1="430.953" y1="266.243" x2="400.953" y2="266.243" gradientUnits="userSpaceOnUse">
<stop stop-color="#C0D6FF"/>
<stop offset="0.2978" stop-color="#C5DBFF"/>
<stop offset="0.6488" stop-color="#D3E9FF"/>
<stop offset="1" stop-color="#E9FFFF"/>
</linearGradient>
<linearGradient id="paint17_linear_276_6871" x1="480.916" y1="237.396" x2="435.848" y2="237.396" gradientUnits="userSpaceOnUse">
<stop stop-color="#5778FF"/>
<stop offset="0.1779" stop-color="#5C7DFF"/>
<stop offset="0.3876" stop-color="#6A8AFF"/>
<stop offset="0.6134" stop-color="#82A0FF"/>
<stop offset="0.849" stop-color="#A3BEFF"/>
<stop offset="1" stop-color="#BCD5FF"/>
</linearGradient>
<linearGradient id="paint18_linear_276_6871" x1="485.427" y1="243.611" x2="470.425" y2="269.594" gradientUnits="userSpaceOnUse">
<stop stop-color="#C0D6FF"/>
<stop offset="0.4983" stop-color="#D2E8FF"/>
<stop offset="1" stop-color="#E9FFFF"/>
</linearGradient>
<linearGradient id="paint19_linear_276_6871" x1="470.34" y1="303.112" x2="440.339" y2="303.112" gradientUnits="userSpaceOnUse">
<stop stop-color="#C0D6FF"/>
<stop offset="0.2978" stop-color="#C5DBFF"/>
<stop offset="0.6488" stop-color="#D3E9FF"/>
<stop offset="1" stop-color="#E9FFFF"/>
</linearGradient>
<linearGradient id="paint20_linear_276_6871" x1="520.302" y1="274.265" x2="475.234" y2="274.265" gradientUnits="userSpaceOnUse">
<stop stop-color="#5778FF"/>
<stop offset="0.1779" stop-color="#5C7DFF"/>
<stop offset="0.3876" stop-color="#6A8AFF"/>
<stop offset="0.6134" stop-color="#82A0FF"/>
<stop offset="0.849" stop-color="#A3BEFF"/>
<stop offset="1" stop-color="#BCD5FF"/>
</linearGradient>
<linearGradient id="paint21_linear_276_6871" x1="524.815" y1="259.635" x2="509.813" y2="285.617" gradientUnits="userSpaceOnUse">
<stop stop-color="#C0D6FF"/>
<stop offset="0.4983" stop-color="#D2E8FF"/>
<stop offset="1" stop-color="#E9FFFF"/>
</linearGradient>
<linearGradient id="paint22_linear_276_6871" x1="509.728" y1="322.518" x2="479.728" y2="322.518" gradientUnits="userSpaceOnUse">
<stop stop-color="#C0D6FF"/>
<stop offset="0.2978" stop-color="#C5DBFF"/>
<stop offset="0.6488" stop-color="#D3E9FF"/>
<stop offset="1" stop-color="#E9FFFF"/>
</linearGradient>
<linearGradient id="paint23_linear_276_6871" x1="559.69" y1="293.671" x2="514.622" y2="293.671" gradientUnits="userSpaceOnUse">
<stop stop-color="#5778FF"/>
<stop offset="0.1779" stop-color="#5C7DFF"/>
<stop offset="0.3876" stop-color="#6A8AFF"/>
<stop offset="0.6134" stop-color="#82A0FF"/>
<stop offset="0.849" stop-color="#A3BEFF"/>
<stop offset="1" stop-color="#BCD5FF"/>
</linearGradient>
<linearGradient id="paint24_linear_276_6871" x1="367.264" y1="82.8532" x2="352.262" y2="108.835" gradientUnits="userSpaceOnUse">
<stop stop-color="#C0D6FF"/>
<stop offset="0.4983" stop-color="#D2E8FF"/>
<stop offset="1" stop-color="#E9FFFF"/>
</linearGradient>
<linearGradient id="paint25_linear_276_6871" x1="352.177" y1="159.54" x2="322.176" y2="159.54" gradientUnits="userSpaceOnUse">
<stop stop-color="#C0D6FF"/>
<stop offset="0.2978" stop-color="#C5DBFF"/>
<stop offset="0.6488" stop-color="#D3E9FF"/>
<stop offset="1" stop-color="#E9FFFF"/>
</linearGradient>
<linearGradient id="paint26_linear_276_6871" x1="402.139" y1="130.693" x2="357.071" y2="130.693" gradientUnits="userSpaceOnUse">
<stop stop-color="#5778FF"/>
<stop offset="0.1779" stop-color="#5C7DFF"/>
<stop offset="0.3876" stop-color="#6A8AFF"/>
<stop offset="0.6134" stop-color="#82A0FF"/>
<stop offset="0.849" stop-color="#A3BEFF"/>
<stop offset="1" stop-color="#BCD5FF"/>
</linearGradient>
<linearGradient id="paint27_linear_276_6871" x1="406.653" y1="135.05" x2="391.65" y2="161.032" gradientUnits="userSpaceOnUse">
<stop stop-color="#C0D6FF"/>
<stop offset="0.4983" stop-color="#D2E8FF"/>
<stop offset="1" stop-color="#E9FFFF"/>
</linearGradient>
<linearGradient id="paint28_linear_276_6871" x1="401.169" y1="138.215" x2="391.619" y2="154.756" gradientUnits="userSpaceOnUse">
<stop stop-color="#5778FF"/>
<stop offset="0.1779" stop-color="#5C7DFF"/>
<stop offset="0.3876" stop-color="#6A8AFF"/>
<stop offset="0.6134" stop-color="#82A0FF"/>
<stop offset="0.849" stop-color="#A3BEFF"/>
<stop offset="1" stop-color="#BCD5FF"/>
</linearGradient>
<linearGradient id="paint29_linear_276_6871" x1="391.566" y1="197.033" x2="361.565" y2="197.033" gradientUnits="userSpaceOnUse">
<stop stop-color="#C0D6FF"/>
<stop offset="0.2978" stop-color="#C5DBFF"/>
<stop offset="0.6488" stop-color="#D3E9FF"/>
<stop offset="1" stop-color="#E9FFFF"/>
</linearGradient>
<linearGradient id="paint30_linear_276_6871" x1="441.528" y1="168.186" x2="396.46" y2="168.186" gradientUnits="userSpaceOnUse">
<stop stop-color="#5778FF"/>
<stop offset="0.1779" stop-color="#5C7DFF"/>
<stop offset="0.3876" stop-color="#6A8AFF"/>
<stop offset="0.6134" stop-color="#82A0FF"/>
<stop offset="0.849" stop-color="#A3BEFF"/>
<stop offset="1" stop-color="#BCD5FF"/>
</linearGradient>
<linearGradient id="paint31_linear_276_6871" x1="406.652" y1="108.971" x2="391.65" y2="134.954" gradientUnits="userSpaceOnUse">
<stop stop-color="#C0D6FF"/>
<stop offset="0.4983" stop-color="#D2E8FF"/>
<stop offset="1" stop-color="#E9FFFF"/>
</linearGradient>
<linearGradient id="paint32_linear_276_6871" x1="391.565" y1="141.258" x2="361.565" y2="141.258" gradientUnits="userSpaceOnUse">
<stop stop-color="#C0D6FF"/>
<stop offset="0.2978" stop-color="#C5DBFF"/>
<stop offset="0.6488" stop-color="#D3E9FF"/>
<stop offset="1" stop-color="#E9FFFF"/>
</linearGradient>
<linearGradient id="paint33_linear_276_6871" x1="441.527" y1="112.412" x2="396.459" y2="112.412" gradientUnits="userSpaceOnUse">
<stop stop-color="#5778FF"/>
<stop offset="0.1779" stop-color="#5C7DFF"/>
<stop offset="0.3876" stop-color="#6A8AFF"/>
<stop offset="0.6134" stop-color="#82A0FF"/>
<stop offset="0.849" stop-color="#A3BEFF"/>
<stop offset="1" stop-color="#BCD5FF"/>
</linearGradient>
<linearGradient id="paint34_linear_276_6871" x1="446.041" y1="166.545" x2="431.038" y2="192.527" gradientUnits="userSpaceOnUse">
<stop stop-color="#C0D6FF"/>
<stop offset="0.4983" stop-color="#D2E8FF"/>
<stop offset="1" stop-color="#E9FFFF"/>
</linearGradient>
<linearGradient id="paint35_linear_276_6871" x1="430.953" y1="224.175" x2="400.953" y2="224.175" gradientUnits="userSpaceOnUse">
<stop stop-color="#C0D6FF"/>
<stop offset="0.2978" stop-color="#C5DBFF"/>
<stop offset="0.6488" stop-color="#D3E9FF"/>
<stop offset="1" stop-color="#E9FFFF"/>
</linearGradient>
<linearGradient id="paint36_linear_276_6871" x1="480.916" y1="195.328" x2="435.848" y2="195.328" gradientUnits="userSpaceOnUse">
<stop stop-color="#5778FF"/>
<stop offset="0.1779" stop-color="#5C7DFF"/>
<stop offset="0.3876" stop-color="#6A8AFF"/>
<stop offset="0.6134" stop-color="#82A0FF"/>
<stop offset="0.849" stop-color="#A3BEFF"/>
<stop offset="1" stop-color="#BCD5FF"/>
</linearGradient>
<linearGradient id="paint37_linear_276_6871" x1="485.427" y1="217.493" x2="470.425" y2="243.476" gradientUnits="userSpaceOnUse">
<stop stop-color="#C0D6FF"/>
<stop offset="0.4983" stop-color="#D2E8FF"/>
<stop offset="1" stop-color="#E9FFFF"/>
</linearGradient>
<linearGradient id="paint38_linear_276_6871" x1="470.34" y1="261.044" x2="440.339" y2="261.044" gradientUnits="userSpaceOnUse">
<stop stop-color="#C0D6FF"/>
<stop offset="0.2978" stop-color="#C5DBFF"/>
<stop offset="0.6488" stop-color="#D3E9FF"/>
<stop offset="1" stop-color="#E9FFFF"/>
</linearGradient>
<linearGradient id="paint39_linear_276_6871" x1="520.302" y1="232.197" x2="475.234" y2="232.197" gradientUnits="userSpaceOnUse">
<stop stop-color="#5778FF"/>
<stop offset="0.1779" stop-color="#5C7DFF"/>
<stop offset="0.3876" stop-color="#6A8AFF"/>
<stop offset="0.6134" stop-color="#82A0FF"/>
<stop offset="0.849" stop-color="#A3BEFF"/>
<stop offset="1" stop-color="#BCD5FF"/>
</linearGradient>
<linearGradient id="paint40_linear_276_6871" x1="524.815" y1="233.517" x2="509.813" y2="259.499" gradientUnits="userSpaceOnUse">
<stop stop-color="#C0D6FF"/>
<stop offset="0.4983" stop-color="#D2E8FF"/>
<stop offset="1" stop-color="#E9FFFF"/>
</linearGradient>
<linearGradient id="paint41_linear_276_6871" x1="509.728" y1="280.45" x2="479.728" y2="280.45" gradientUnits="userSpaceOnUse">
<stop stop-color="#C0D6FF"/>
<stop offset="0.2978" stop-color="#C5DBFF"/>
<stop offset="0.6488" stop-color="#D3E9FF"/>
<stop offset="1" stop-color="#E9FFFF"/>
</linearGradient>
<linearGradient id="paint42_linear_276_6871" x1="559.69" y1="251.603" x2="514.622" y2="251.603" gradientUnits="userSpaceOnUse">
<stop stop-color="#5778FF"/>
<stop offset="0.1779" stop-color="#5C7DFF"/>
<stop offset="0.3876" stop-color="#6A8AFF"/>
<stop offset="0.6134" stop-color="#82A0FF"/>
<stop offset="0.849" stop-color="#A3BEFF"/>
<stop offset="1" stop-color="#BCD5FF"/>
</linearGradient>
<clipPath id="clip0_276_6871">
<rect width="645" height="454" fill="white"/>
</clipPath>
</defs>
</svg>
