<svg width="25" height="25" viewBox="0 0 25 25" fill="none" xmlns="http://www.w3.org/2000/svg">
<path d="M12.4888 25C9.17653 25 5.99997 23.683 3.65787 21.3388C1.31578 18.9946 0 15.8152 0 12.5C0 9.18484 1.31578 6.00542 3.65787 3.66122C5.99997 1.31702 9.17653 6.71512e-05 12.4888 6.71018e-05C14.435 -0.00638148 16.3547 0.452046 18.0884 1.33727C18.1906 1.38919 18.2816 1.46075 18.3562 1.54787C18.4308 1.63499 18.4875 1.73595 18.5231 1.84501C18.5587 1.95406 18.5725 2.06907 18.5636 2.18346C18.5548 2.29785 18.5236 2.40938 18.4717 2.51169C18.4199 2.614 18.3484 2.70508 18.2613 2.77973C18.1743 2.85438 18.0734 2.91115 17.9645 2.94678C17.8555 2.98241 17.7406 2.99621 17.6263 2.9874C17.512 2.97858 17.4006 2.94733 17.2984 2.89541C15.8112 2.12824 14.1618 1.72948 12.4888 1.73262C10.3639 1.73262 8.28667 2.36315 6.51973 3.54449C4.75279 4.72584 3.37542 6.40498 2.56173 8.36966C1.74804 10.3343 1.53456 12.4964 1.94826 14.5825C2.36196 16.6686 3.38428 18.5851 4.88599 20.0898C6.3877 21.5945 8.30139 22.6198 10.3852 23.0361C12.469 23.4524 14.6293 23.2411 16.5931 22.4288C18.5569 21.6165 20.236 20.2397 21.4182 18.4725C22.6004 16.7052 23.2326 14.6268 23.2349 12.5C23.241 12.4032 23.241 12.3061 23.2349 12.2093C23.2133 11.978 23.2844 11.7476 23.4326 11.5688C23.5807 11.39 23.7938 11.2774 24.0249 11.2559C24.256 11.2343 24.4862 11.3054 24.6648 11.4537C24.8435 11.602 24.9559 11.8153 24.9775 12.0465V12.5C24.9744 15.8143 23.6577 18.9919 21.3162 21.3354C18.9748 23.679 15.8 24.9969 12.4888 25Z" fill="#7BD834"/>
<path d="M12.2797 16.4651C12.1668 16.4668 12.0548 16.4449 11.9508 16.4009C11.8467 16.3569 11.753 16.2916 11.6756 16.2093L6.06439 10.6977C5.90122 10.5342 5.80957 10.3125 5.80957 10.0814C5.80957 9.85033 5.90122 9.62867 6.06439 9.46516C6.23117 9.30388 6.45402 9.21374 6.68592 9.21374C6.91783 9.21374 7.14067 9.30388 7.30745 9.46516L12.2913 14.3837L23.5022 3.34889C23.669 3.18762 23.8918 3.09748 24.1237 3.09748C24.3556 3.09748 24.5785 3.18762 24.7452 3.34889C24.9084 3.51241 25.0001 3.73406 25.0001 3.96517C25.0001 4.19627 24.9084 4.41793 24.7452 4.58145L12.9187 16.2093C12.8355 16.2937 12.7358 16.36 12.6259 16.404C12.5159 16.448 12.3981 16.4688 12.2797 16.4651Z" fill="#7BD834"/>
</svg>
