<svg width="40" height="40" viewBox="0 0 40 40" fill="none" xmlns="http://www.w3.org/2000/svg">
<circle cx="20" cy="20" r="20" fill="#F8F8F8"/>
<path d="M29.8234 13.9734L23.7578 19.9999L29.8234 26.0264C29.933 25.7973 29.9996 25.5439 29.9996 25.2733V14.7265C29.9996 14.4559 29.933 14.2026 29.8234 13.9734Z" fill="#598638"/>
<path d="M28.2423 12.9688H11.758C11.4874 12.9688 11.2341 13.0353 11.0049 13.1449L18.7573 20.8583C19.4428 21.5438 20.5575 21.5438 21.243 20.8583L28.9954 13.1449C28.7662 13.0353 28.5129 12.9688 28.2423 12.9688Z" fill="#598638"/>
<path d="M10.1762 13.9734C10.0665 14.2026 10 14.4559 10 14.7265V25.2733C10 25.5439 10.0665 25.7973 10.1762 26.0264L16.2418 19.9999L10.1762 13.9734Z" fill="#598638"/>
<path d="M22.9298 20.8286L22.0715 21.6869C20.9294 22.8291 19.0709 22.8291 17.9287 21.6869L17.0705 20.8286L11.0049 26.8551C11.2341 26.9648 11.4874 27.0313 11.758 27.0313H28.2423C28.5129 27.0313 28.7662 26.9648 28.9954 26.8551L22.9298 20.8286Z" fill="#598638"/>
</svg>
