<svg width="231" height="38" viewBox="0 0 231 38" fill="none" xmlns="http://www.w3.org/2000/svg">
<path d="M58.9328 8.11963H54.1679L46.6172 25.2246H51.5532L52.8972 21.9013L54.3145 18.3337L56.5137 12.8601L58.7129 18.3337L60.1302 21.9013L61.4741 25.2246H66.508L58.9328 8.11963Z" fill="white" stroke="white" stroke-width="0.295117" stroke-miterlimit="2"/>
<path d="M71.7093 24.5669C72.8578 25.1533 74.1773 25.4466 75.6436 25.4466C77.1342 25.4466 78.4293 25.1289 79.529 24.4936C80.6042 23.8583 81.3861 22.9542 81.8504 21.8057L78.2584 19.973C77.6475 21.1704 76.7678 21.7568 75.6193 21.7568C74.7885 21.7568 74.0798 21.488 73.5423 20.926C73.0047 20.364 72.7359 19.5821 72.7359 18.5802C72.7359 17.6028 73.0047 16.8453 73.5423 16.2833C74.0798 15.7457 74.7885 15.4525 75.6193 15.4525C76.7678 15.4525 77.6475 16.0634 78.2584 17.2363L81.8504 15.4036C81.3861 14.2795 80.6042 13.3754 79.529 12.7401C78.4294 12.1048 77.1343 11.7627 75.6436 11.7627C74.1775 11.7627 72.858 12.0559 71.7093 12.6424C70.5364 13.2288 69.6323 14.0352 68.9969 15.0615C68.3616 16.0878 68.0439 17.2607 68.0439 18.5802C68.0439 19.8997 68.3616 21.0971 68.9969 22.1234C69.6323 23.1741 70.5364 23.9805 71.7093 24.5669Z" fill="white" stroke="white" stroke-width="0.295117" stroke-miterlimit="2"/>
<path d="M87.6712 24.5669C88.8197 25.1533 90.1392 25.4466 91.6055 25.4466C93.0961 25.4466 94.3912 25.1289 95.4909 24.4936C96.5661 23.8583 97.3481 22.9542 97.8123 21.8057L94.2203 19.973C93.6094 21.1704 92.7297 21.7568 91.5812 21.7568C90.7504 21.7568 90.0417 21.488 89.5042 20.926C88.9666 20.364 88.6978 19.5821 88.6978 18.5802C88.6978 17.6028 88.9666 16.8453 89.5042 16.2833C90.0417 15.7457 90.7504 15.4525 91.5812 15.4525C92.7297 15.4525 93.6094 16.0634 94.2203 17.2363L97.8123 15.4036C97.3481 14.2795 96.5661 13.3754 95.4909 12.7401C94.3913 12.1048 93.0962 11.7627 91.6055 11.7627C90.1394 11.7627 88.8199 12.0559 87.6712 12.6424C86.4983 13.2288 85.5942 14.0352 84.9588 15.0615C84.3235 16.0878 84.0059 17.2607 84.0059 18.5802C84.0059 19.8997 84.3235 21.0971 84.9588 22.1234C85.5942 23.1741 86.4983 23.9805 87.6712 24.5669Z" fill="white" stroke="white" stroke-width="0.295117" stroke-miterlimit="2"/>
<path d="M114.869 11.9804H110.227V18.3582C110.227 19.4334 109.983 20.2154 109.518 20.7285C109.054 21.2417 108.467 21.486 107.734 21.486C107.001 21.486 106.464 21.2661 106.097 20.8018C105.706 20.362 105.535 19.6289 105.535 18.627V11.978H100.893V19.3821C100.893 21.4103 101.381 22.9253 102.408 23.9273C103.434 24.9536 104.802 25.4423 106.513 25.4423C107.27 25.4423 108.003 25.3201 108.687 25.0269C109.372 24.7581 109.958 24.3427 110.447 23.8051V25.2224H114.87L114.869 11.9804Z" fill="white" stroke="white" stroke-width="0.295117" stroke-miterlimit="2"/>
<path d="M119.413 8.11963V25.2246H132.413V21.3892H124.251V8.12072L119.413 8.11963Z" fill="white" stroke="white" stroke-width="0.295117" stroke-miterlimit="2"/>
<path d="M148.859 19.7756C148.908 19.0425 148.933 18.676 148.933 18.6272C148.933 17.2099 148.615 15.9881 147.98 14.9618C147.344 13.9355 146.514 13.1291 145.438 12.5915C144.363 12.054 143.166 11.7607 141.846 11.7607C140.453 11.7607 139.207 12.054 138.108 12.6404C136.984 13.2269 136.128 14.0577 135.493 15.084C134.858 16.1103 134.564 17.2832 134.564 18.5783C134.564 19.8978 134.882 21.0952 135.517 22.1215C136.153 23.1722 137.081 23.9786 138.254 24.5651C139.427 25.1515 140.771 25.4448 142.335 25.4448C144.803 25.4448 146.684 24.7362 147.98 23.2944L145.536 20.7531C145.047 21.1685 144.583 21.4617 144.119 21.6328C143.654 21.8283 143.117 21.9016 142.482 21.9016C141.626 21.9016 140.918 21.7306 140.356 21.364C139.794 20.9975 139.427 20.4599 139.232 19.7757L148.859 19.7756ZM140.062 15.6705C140.551 15.2795 141.137 15.0596 141.871 15.0596C142.579 15.0596 143.166 15.2796 143.654 15.6705C144.143 16.0859 144.436 16.648 144.583 17.3322H139.156C139.279 16.648 139.572 16.0859 140.061 15.6705H140.062Z" fill="white" stroke="white" stroke-width="0.295117" stroke-miterlimit="2"/>
<path d="M166.529 7.09424H161.886V13.1298C161.006 12.2257 159.784 11.7614 158.221 11.7614C156.999 11.7614 155.899 12.0546 154.922 12.5922C153.92 13.1542 153.138 13.9606 152.552 14.9869C151.965 16.0132 151.696 17.2106 151.696 18.5789C151.696 19.9474 151.965 21.1691 152.552 22.1954C153.138 23.2462 153.92 24.0526 154.922 24.6145C155.899 25.1766 156.999 25.4453 158.221 25.4453C159.931 25.4453 161.226 24.9322 162.106 23.9059V25.2254H166.529L166.529 7.09424ZM161.177 20.9247C160.64 21.4867 159.98 21.7555 159.198 21.7555C158.367 21.7555 157.707 21.4867 157.194 20.9247C156.657 20.3627 156.412 19.5808 156.412 18.5789C156.412 17.6014 156.657 16.8439 157.194 16.2819C157.707 15.7443 158.367 15.4511 159.198 15.4511C160.004 15.4511 160.664 15.7444 161.177 16.2819C161.69 16.844 161.959 17.6014 161.959 18.5789C161.959 19.5808 161.69 20.3627 161.177 20.9247Z" fill="white" stroke="white" stroke-width="0.295117" stroke-miterlimit="2"/>
<path d="M185.092 11.9811H180.67V13.5939C179.79 12.3721 178.397 11.7612 176.516 11.7612C175.343 11.7612 174.243 12.03 173.266 12.5676C172.264 13.1052 171.482 13.8383 170.895 14.8157C170.309 15.7931 170.016 16.8927 170.016 18.139C170.016 19.4096 170.309 20.5337 170.895 21.5111C171.482 22.4885 172.264 23.2216 173.266 23.7592C174.243 24.2968 175.343 24.5411 176.516 24.5411C178.226 24.5411 179.546 24.0279 180.45 22.9772V23.4171C180.45 24.4922 180.157 25.2742 179.595 25.8118C179.008 26.3494 178.128 26.6182 176.907 26.6182C176.1 26.6182 175.294 26.496 174.463 26.2516C173.632 26.0073 172.972 25.6407 172.435 25.2009L170.749 28.4508C171.531 29.0373 172.508 29.4527 173.657 29.746C174.781 30.0392 176.003 30.1858 177.322 30.1858C179.814 30.1858 181.745 29.5749 183.089 28.3531C184.409 27.1313 185.093 25.2742 185.093 22.8062L185.092 11.9811ZM179.668 20.0939C179.13 20.607 178.446 20.8514 177.615 20.8514C176.784 20.8514 176.076 20.607 175.538 20.0939C174.976 19.6052 174.707 18.9454 174.707 18.139C174.707 17.3571 174.976 16.6973 175.514 16.2086C176.051 15.7199 176.76 15.4511 177.615 15.4511C178.446 15.4511 179.155 15.7199 179.692 16.2086C180.23 16.6974 180.499 17.3571 180.499 18.139C180.499 18.9454 180.205 19.6052 179.668 20.0939Z" fill="white" stroke="white" stroke-width="0.295117" stroke-miterlimit="2"/>
<path d="M202.897 19.7756C202.946 19.0425 202.971 18.676 202.971 18.6272C202.971 17.2099 202.653 15.9881 202.018 14.9618C201.382 13.9355 200.552 13.1291 199.476 12.5915C198.401 12.054 197.204 11.7607 195.884 11.7607C194.492 11.7607 193.245 12.054 192.146 12.6404C191.022 13.2269 190.166 14.0577 189.531 15.084C188.896 16.1103 188.603 17.2832 188.603 18.5783C188.603 19.8978 188.92 21.0952 189.556 22.1215C190.191 23.1722 191.119 23.9786 192.292 24.5651C193.465 25.1515 194.809 25.4448 196.373 25.4448C198.841 25.4448 200.723 24.7362 202.018 23.2944L199.574 20.7531C199.085 21.1685 198.621 21.4617 198.157 21.6328C197.693 21.8283 197.155 21.9016 196.52 21.9016C195.664 21.9016 194.956 21.7306 194.394 21.364C193.832 20.9975 193.465 20.4599 193.27 19.7757L202.897 19.7756ZM194.1 15.6705C194.589 15.2795 195.176 15.0596 195.909 15.0596C196.617 15.0596 197.204 15.2796 197.692 15.6705C198.181 16.0859 198.474 16.648 198.621 17.3322H193.196C193.319 16.648 193.612 16.0859 194.1 15.6705Z" fill="white" stroke="white" stroke-width="0.295117" stroke-miterlimit="2"/>
<path d="M212.751 12.2256C211.993 12.5188 211.382 12.9831 210.918 13.5695V11.9812H206.495V25.2252H211.138V19.1408C211.138 18.0412 211.407 17.2104 211.969 16.6728C212.531 16.1352 213.312 15.8664 214.314 15.8664C214.583 15.8664 214.925 15.8908 215.365 15.9397V11.7612C214.388 11.7612 213.508 11.9324 212.751 12.2256Z" fill="white" stroke="white" stroke-width="0.295117" stroke-miterlimit="2"/>
<path d="M220.177 25.0782C221.252 25.3225 222.327 25.4447 223.451 25.4447C224.82 25.4447 226.017 25.2737 226.995 24.8827C227.972 24.5162 228.73 24.003 229.243 23.3432C229.731 22.6835 230 21.926 230 21.0952C230 20.0933 229.731 19.3113 229.194 18.7493C228.656 18.1873 228.045 17.7963 227.337 17.5764C226.604 17.3809 225.7 17.1854 224.624 17.0144C223.745 16.8922 223.134 16.77 222.767 16.6478C222.376 16.5257 222.205 16.3057 222.205 15.9881C222.205 15.7193 222.376 15.4994 222.718 15.3283C223.06 15.1573 223.598 15.0595 224.331 15.0595C225.7 15.0595 226.97 15.4016 228.143 16.037L229.536 12.8848C228.901 12.5427 228.094 12.2494 227.166 12.054C226.213 11.8585 225.26 11.7607 224.307 11.7607C222.938 11.7607 221.79 11.9562 220.812 12.3472C219.835 12.7382 219.102 13.2513 218.613 13.9111C218.1 14.5708 217.856 15.3283 217.856 16.1591C217.856 17.1854 218.125 17.9918 218.662 18.5538C219.2 19.1403 219.835 19.5313 220.568 19.7268C221.301 19.9467 222.205 20.1177 223.28 20.2399C224.111 20.3621 224.698 20.4843 225.089 20.6065C225.48 20.7286 225.675 20.9241 225.675 21.2174C225.675 21.5106 225.504 21.7549 225.186 21.9016C224.869 22.0482 224.331 22.1215 223.598 22.1215C222.767 22.1215 221.961 22.0237 221.13 21.8038C220.299 21.5839 219.566 21.2906 218.98 20.8997L217.587 24.0763C218.222 24.4917 219.102 24.8338 220.177 25.0782Z" fill="white" stroke="white" stroke-width="0.295117" stroke-miterlimit="2"/>
<path d="M18.7906 0.0037865L16.3329 0.00196007L16.0949 0.0411838C15.964 0.0627146 15.7777 0.0950938 15.681 0.113205C15.5842 0.131306 15.3963 0.169399 15.2634 0.197856C15.1306 0.22632 14.8361 0.29585 14.6089 0.352557C14.3818 0.409161 14.0877 0.485416 13.9553 0.522047C13.8231 0.558679 13.6128 0.619527 13.4881 0.657192C13.3636 0.694962 13.168 0.75633 13.0535 0.793684C12.9392 0.831042 12.742 0.898309 12.6156 0.943217C12.489 0.988129 12.3168 1.05084 12.2327 1.08271C12.1484 1.11449 11.975 1.18258 11.8469 1.234C11.7189 1.28553 11.5093 1.37277 11.3813 1.42802C11.2532 1.48328 11.0437 1.57684 10.9156 1.63591C10.7876 1.6951 10.5431 1.81378 10.3723 1.89978C10.2016 1.98567 9.97344 2.10416 9.86531 2.16293C9.75717 2.2216 9.57216 2.32488 9.45418 2.39236C9.33621 2.45982 9.14996 2.56919 9.04028 2.63553C8.93059 2.70186 8.75013 2.81434 8.63907 2.88554C8.52815 2.95673 8.38845 3.04759 8.32863 3.08744C8.26892 3.12738 8.11991 3.22972 7.9975 3.31509C7.87519 3.40036 7.66616 3.55123 7.53316 3.65035C7.4002 3.74949 7.22552 3.88214 7.1451 3.94527C7.0647 4.00839 6.9221 4.12315 6.82815 4.20024C6.73419 4.27733 6.59459 4.39416 6.51791 4.45987C6.44113 4.52558 6.30848 4.64168 6.223 4.71796C6.13752 4.79412 5.97444 4.94384 5.86061 5.05055C5.74678 5.15723 5.52079 5.37898 5.35833 5.5432C5.19586 5.70743 4.9862 5.92554 4.89245 6.02801C4.7986 6.13045 4.65622 6.2893 4.57602 6.38098C4.49572 6.47266 4.36276 6.6286 4.28049 6.72763C4.19823 6.82656 4.07364 6.9797 4.00368 7.06797C3.93363 7.15614 3.80748 7.31974 3.72315 7.4313C3.63892 7.54295 3.50855 7.7199 3.43361 7.8245C3.35859 7.92923 3.21465 8.13814 3.11365 8.28902C3.01266 8.43979 2.87192 8.65636 2.80083 8.77022C2.72974 8.88404 2.62719 9.05189 2.57286 9.14325C2.51843 9.23463 2.4344 9.37898 2.38607 9.46404C2.33775 9.54909 2.2529 9.70256 2.19743 9.805C2.14196 9.90744 2.02451 10.1354 1.93625 10.3115C1.8482 10.4874 1.7319 10.7273 1.67798 10.8442C1.62407 10.9611 1.54264 11.1429 1.4971 11.2482C1.45146 11.3536 1.37097 11.5467 1.31819 11.6778C1.26543 11.8086 1.18398 12.0182 1.13721 12.1434C1.09044 12.2685 1.00807 12.5013 0.954263 12.6608C0.900344 12.8201 0.819739 13.0716 0.774922 13.2195C0.730218 13.3675 0.664816 13.5933 0.629732 13.7215C0.594662 13.8494 0.538685 14.066 0.505462 14.2026C0.472144 14.3392 0.42164 14.5603 0.393092 14.6941C0.364518 14.828 0.324789 15.0234 0.304816 15.1287C0.284745 15.234 0.252144 15.4179 0.232266 15.5374C0.212414 15.6571 0.179816 15.8711 0.159843 16.0135C0.139772 16.1559 0.109343 16.398 0.0921653 16.5516C0.0750866 16.7053 0.0519118 16.9404 0.0406355 17.0742C0.0294686 17.2079 0.0150901 17.4012 0.00866739 17.5036C0.000821396 17.6296 -0.00169887 18.0471 0.00111109 18.7919L0.00523726 19.894L0.0277892 20.1527C0.0400874 20.295 0.0597588 20.5021 0.0713563 20.6132C0.083034 20.7241 0.106424 20.9243 0.123404 21.0581C0.140373 21.1918 0.170902 21.4084 0.191082 21.5393C0.211372 21.6702 0.248512 21.8904 0.273762 22.0286C0.299015 22.1668 0.340817 22.381 0.366687 22.5046C0.39267 22.6282 0.439737 22.8387 0.4713 22.9725C0.502976 23.1062 0.560605 23.3344 0.599412 23.4795C0.638215 23.6246 0.700823 23.8481 0.738594 23.9762C0.776364 24.1042 0.857798 24.3607 0.919471 24.5459C0.981145 24.7311 1.0838 25.0221 1.14754 25.1926C1.21138 25.363 1.316 25.6283 1.38005 25.7819C1.4441 25.9356 1.5361 26.1498 1.58453 26.258C1.63296 26.3661 1.72464 26.564 1.78829 26.6977C1.85193 26.8314 1.95106 27.0317 2.00839 27.1427C2.06582 27.2536 2.15575 27.4236 2.20831 27.5204C2.26088 27.6172 2.34222 27.7638 2.38909 27.8464C2.43597 27.9288 2.52568 28.0825 2.5884 28.1878C2.65121 28.2931 2.75376 28.4607 2.81638 28.5604C2.87898 28.6599 2.99539 28.8392 3.07518 28.9588C3.15486 29.0783 3.25751 29.2296 3.30325 29.2951C3.34898 29.3605 3.42815 29.4722 3.47916 29.5434C3.53008 29.6145 3.64411 29.7682 3.73237 29.8849C3.82074 30.0015 3.95619 30.1762 4.0335 30.2728C4.1108 30.3695 4.25049 30.5395 4.34405 30.6505C4.43749 30.7616 4.5865 30.9338 4.67519 31.0333C4.76377 31.1327 4.90366 31.2864 4.98594 31.3748C5.06831 31.4631 5.2615 31.6614 5.41539 31.8156C5.56927 31.9697 5.77208 32.1676 5.86605 32.2554C5.96011 32.3431 6.11605 32.4853 6.2127 32.5713C6.30945 32.6574 6.47233 32.7987 6.57477 32.8854C6.67721 32.9721 6.85189 33.1158 6.96283 33.2048C7.07387 33.2938 7.27637 33.4507 7.41297 33.5533C7.54956 33.656 7.75446 33.8056 7.8683 33.8856C7.98212 33.9657 8.16611 34.0918 8.27705 34.1656C8.38808 34.2396 8.55087 34.3458 8.63882 34.4017C8.72678 34.4575 8.91304 34.5718 9.05273 34.6554C9.19242 34.739 9.4115 34.8657 9.53947 34.937C9.66758 35.0083 9.87941 35.1227 10.0103 35.1914C10.1412 35.2601 10.3718 35.3754 10.5225 35.4475C10.6734 35.5196 10.8852 35.6182 10.9933 35.6664C11.1015 35.7146 11.2777 35.791 11.385 35.836C11.4923 35.8811 11.6855 35.9592 11.8145 36.0097C11.9434 36.0602 12.142 36.1351 12.2558 36.1762C12.3697 36.2173 12.5373 36.2763 12.6283 36.3073C12.7194 36.3384 12.9196 36.4027 13.0733 36.4502C13.227 36.4978 13.4551 36.5654 13.5803 36.6003C13.7055 36.6352 13.9477 36.6982 14.1184 36.7403C14.2892 36.7823 14.5384 36.8399 14.672 36.8683C14.8058 36.8966 14.9897 36.9341 15.0808 36.9514C15.1718 36.9688 15.3279 36.9968 15.4274 37.0137C15.5271 37.0305 15.704 37.0584 15.8206 37.0756C15.9374 37.0927 16.0864 37.114 16.1518 37.1226C16.2173 37.1313 16.3335 37.1456 16.4102 37.1545C16.4867 37.1633 16.6404 37.1795 16.7516 37.1905C16.8628 37.2015 17.0539 37.2189 17.1762 37.229C17.3727 37.2453 17.5364 37.2474 18.5784 37.2474H19.758L20.0374 37.2239C20.1911 37.2108 20.4263 37.1886 20.56 37.1745C20.6938 37.1603 20.9127 37.1347 21.0464 37.1175C21.1802 37.1003 21.378 37.0726 21.4861 37.0558C21.5943 37.039 21.7876 37.0069 21.9156 36.9843C22.0437 36.9617 22.2532 36.9217 22.3812 36.8954C22.5093 36.8691 22.7329 36.8199 22.8779 36.786C23.0231 36.7522 23.2629 36.6921 23.4108 36.6525C23.5588 36.613 23.7963 36.5459 23.9386 36.5032C24.0809 36.4607 24.3021 36.3913 24.4301 36.3491C24.5583 36.3067 24.7436 36.2435 24.8421 36.2084C24.9406 36.1733 25.1129 36.1094 25.225 36.0664C25.337 36.0235 25.5019 35.9585 25.5913 35.922C25.6807 35.8855 25.839 35.8188 25.9431 35.7739C26.0472 35.7289 26.2139 35.6549 26.3134 35.6094C26.4131 35.5639 26.5902 35.4803 26.707 35.4238C26.824 35.3673 27.0289 35.2637 27.1624 35.1936C27.296 35.1234 27.5053 35.0102 27.6276 34.9419C27.75 34.8736 27.9664 34.7479 28.1086 34.6627C28.2509 34.5774 28.458 34.4492 28.5691 34.378C28.6802 34.3067 28.82 34.2157 28.8797 34.1758C28.9395 34.1359 29.0815 34.0383 29.1953 33.9588C29.3091 33.8792 29.528 33.7202 29.6817 33.6053C29.8353 33.4904 30.0589 33.3178 30.1784 33.2219C30.2979 33.1259 30.4562 32.9961 30.5302 32.9336C30.6042 32.871 30.6997 32.7893 30.7423 32.752C30.7851 32.7147 30.9103 32.6029 31.0208 32.5037C31.1312 32.4043 31.3385 32.2106 31.4813 32.0731C31.6241 31.9355 31.8274 31.7326 31.9331 31.6222C32.0387 31.5119 32.1854 31.3562 32.259 31.2762C32.3326 31.1963 32.456 31.0589 32.5333 30.9709C32.6106 30.8829 32.727 30.7481 32.792 30.6713C32.857 30.5945 32.9851 30.4385 33.0766 30.3247C33.1682 30.2108 33.3224 30.0129 33.4192 29.8849C33.5162 29.7568 33.662 29.5589 33.7432 29.4451C33.8244 29.3313 33.9777 29.1078 34.0836 28.9484C34.1897 28.7891 34.3158 28.5958 34.3637 28.519C34.4116 28.4421 34.5025 28.2931 34.566 28.1878C34.6293 28.0825 34.7351 27.9009 34.8011 27.7843C34.8671 27.6675 34.9613 27.4976 35.0106 27.4066C35.0598 27.3155 35.178 27.0849 35.2732 26.8943C35.3685 26.7036 35.4806 26.4732 35.5223 26.3821C35.564 26.2911 35.64 26.1212 35.6912 26.0044C35.7423 25.8877 35.8166 25.7131 35.8562 25.6164C35.896 25.5196 35.9634 25.3496 36.0064 25.2387C36.0492 25.1277 36.1227 24.9298 36.1698 24.7989C36.2168 24.668 36.2903 24.4538 36.3333 24.3229C36.3762 24.192 36.4422 23.9824 36.4799 23.8572C36.5177 23.732 36.5759 23.5294 36.6095 23.4071C36.643 23.2847 36.7007 23.0635 36.7378 22.9155C36.7748 22.7676 36.8264 22.5526 36.8522 22.4379C36.8781 22.3231 36.9203 22.1229 36.9461 21.9929C36.9719 21.863 37.0136 21.6355 37.0387 21.4875C37.064 21.3396 37.0985 21.116 37.1158 20.9908C37.133 20.8656 37.1564 20.684 37.1678 20.5873C37.1793 20.4905 37.1957 20.3415 37.2042 20.2561C37.2127 20.1708 37.227 20.0054 37.236 19.8888C37.2499 19.7079 37.2517 19.4991 37.2485 18.4711C37.2452 17.4263 37.2424 17.2428 37.2271 17.0948C37.2174 17.0009 37.2023 16.8565 37.1936 16.774C37.1848 16.6915 37.1683 16.5518 37.157 16.4636C37.1457 16.3753 37.1249 16.224 37.1107 16.1273C37.0965 16.0305 37.0731 15.8817 37.0587 15.7967C37.0445 15.7115 37.0117 15.5346 36.9859 15.4035C36.9601 15.2722 36.9206 15.0834 36.8979 14.9839C36.8754 14.8842 36.831 14.7003 36.7993 14.5751C36.7676 14.4499 36.7124 14.245 36.6765 14.1198C36.6406 13.9946 36.573 13.7757 36.5264 13.6334C36.4798 13.4912 36.4115 13.2909 36.3746 13.1885C36.3378 13.086 36.2938 12.9731 36.2769 12.9375C36.2601 12.902 36.2192 12.8388 36.1862 12.7972C36.1531 12.7556 36.0963 12.6992 36.0599 12.6719C36.0236 12.6446 35.9684 12.6093 35.937 12.5935C35.9057 12.5778 35.8544 12.5571 35.8231 12.5476C35.7919 12.5383 35.7313 12.5261 35.6886 12.5205C35.636 12.5137 35.5846 12.5141 35.5293 12.5216C35.4844 12.5277 35.4182 12.5434 35.382 12.5566C35.3458 12.5697 35.2898 12.5962 35.2576 12.6154C35.2253 12.6346 35.1673 12.6829 35.1288 12.7228C35.0904 12.7626 34.6213 13.2352 34.0865 13.7731C33.3873 14.4762 33.102 14.7697 33.0713 14.8178C33.0476 14.8545 33.0193 14.9151 33.0082 14.9523C32.9971 14.9896 32.9833 15.0619 32.9776 15.1131C32.9719 15.1643 32.9672 15.2628 32.9672 15.332L32.967 15.4577L33.0088 15.5482C33.0316 15.5981 33.073 15.6998 33.1008 15.7744C33.1286 15.849 33.1726 15.982 33.1985 16.0703C33.2245 16.1585 33.2578 16.2819 33.2726 16.3445C33.2876 16.4071 33.313 16.5236 33.3294 16.6032C33.3458 16.6829 33.3709 16.8179 33.3852 16.9033C33.3996 16.9887 33.4207 17.1307 33.4323 17.2189C33.4438 17.3071 33.4623 17.4701 33.4734 17.5811C33.4845 17.692 33.4996 17.8736 33.5071 17.9847C33.5155 18.1087 33.5205 18.378 33.5202 18.6832C33.5198 18.9563 33.514 19.2753 33.5069 19.392C33.4999 19.5086 33.4872 19.6902 33.4788 19.7956C33.4704 19.9008 33.4539 20.0778 33.4423 20.1888C33.4307 20.2997 33.4097 20.4767 33.3955 20.582C33.3814 20.6872 33.3539 20.8712 33.3344 20.9908C33.315 21.1103 33.283 21.2919 33.2632 21.3943C33.2436 21.4968 33.2105 21.6597 33.1897 21.7565C33.1689 21.8533 33.1263 22.0349 33.0951 22.1601C33.0637 22.2853 33.0195 22.4552 32.9967 22.5378C32.9738 22.6203 32.9254 22.7856 32.8891 22.9051C32.8527 23.0246 32.7906 23.2178 32.7511 23.3346C32.7116 23.4512 32.6491 23.6282 32.6121 23.7278C32.5753 23.8273 32.5124 23.9903 32.4725 24.09C32.4326 24.1895 32.3605 24.3619 32.3122 24.4728C32.2638 24.5838 32.1863 24.7561 32.1399 24.8557C32.0934 24.9553 31.9911 25.1625 31.9124 25.3162C31.8339 25.4699 31.724 25.677 31.6683 25.7767C31.6126 25.8762 31.5157 26.0438 31.4529 26.1492C31.39 26.2544 31.2901 26.4174 31.2307 26.5114C31.1714 26.6052 31.0643 26.7682 30.9929 26.8735C30.9215 26.9788 30.7958 27.1581 30.7135 27.2719C30.6312 27.3858 30.4949 27.5674 30.4107 27.6755C30.3264 27.7837 30.1857 27.9582 30.098 28.0636C30.0103 28.1688 29.8743 28.3271 29.796 28.4154C29.7175 28.5036 29.5544 28.6805 29.4336 28.8086C29.3127 28.9366 29.1188 29.1324 29.0027 29.2437C28.8867 29.3549 28.7382 29.4947 28.6727 29.5543C28.6073 29.6139 28.5002 29.7094 28.4347 29.7665C28.3693 29.8237 28.2458 29.9288 28.1604 30C28.0751 30.0713 27.94 30.1808 27.8604 30.2432C27.7807 30.3057 27.6503 30.4058 27.5706 30.4658C27.4909 30.5257 27.3676 30.6164 27.2964 30.6675C27.2253 30.7187 27.0809 30.8188 26.9756 30.8902C26.8703 30.9617 26.7143 31.0644 26.629 31.1185C26.5436 31.1726 26.3806 31.2728 26.2668 31.3412C26.1529 31.4095 25.962 31.5197 25.8425 31.5861C25.723 31.6525 25.4925 31.7736 25.3303 31.8553C25.168 31.937 24.9493 32.0434 24.844 32.0916C24.7386 32.14 24.5756 32.2123 24.4818 32.2523C24.3879 32.2924 24.2389 32.354 24.1506 32.3891C24.0625 32.4244 23.9157 32.4811 23.8247 32.5153C23.7336 32.5494 23.5427 32.6167 23.4004 32.6647C23.2581 32.7127 23.051 32.7795 22.9399 32.8131C22.829 32.8466 22.6707 32.8927 22.5881 32.9154C22.5056 32.9381 22.3542 32.9777 22.2518 33.0034C22.1494 33.0292 21.9817 33.0688 21.8793 33.0914C21.7768 33.1142 21.5836 33.1539 21.4498 33.1798C21.316 33.2057 21.1201 33.2408 21.0143 33.2577C20.9085 33.2748 20.7176 33.3026 20.59 33.3194C20.4625 33.3363 20.2627 33.3596 20.146 33.3712C20.0294 33.3828 19.8407 33.3992 19.7269 33.4077C19.6131 33.4163 19.3966 33.4286 19.2457 33.4352C19.0734 33.4427 18.7791 33.445 18.4541 33.4414C18.1695 33.4381 17.8622 33.4305 17.7711 33.4244C17.6801 33.4184 17.5148 33.4062 17.4038 33.3974C17.2928 33.3886 17.0973 33.3698 16.9692 33.3556C16.8411 33.3414 16.6502 33.3183 16.5449 33.3041C16.4396 33.2898 16.2417 33.2596 16.1051 33.2368C15.9685 33.2141 15.7614 33.1766 15.6446 33.1536C15.528 33.1306 15.3489 33.0934 15.2466 33.0707C15.1444 33.0481 14.9625 33.0046 14.8423 32.974C14.7222 32.9434 14.5567 32.899 14.4746 32.8754C14.3924 32.8518 14.2345 32.8044 14.1235 32.7701C14.0125 32.7358 13.8239 32.6736 13.7044 32.632C13.5849 32.5903 13.4289 32.5346 13.3577 32.5081C13.2866 32.4816 13.1306 32.4203 13.0111 32.3719C12.8915 32.3235 12.7255 32.254 12.642 32.2175C12.5585 32.181 12.3956 32.1066 12.2799 32.0522C12.1641 31.9979 11.9623 31.8984 11.8314 31.8313C11.7005 31.7641 11.4925 31.6525 11.3691 31.5835C11.2458 31.5145 11.0804 31.4192 11.0018 31.3717C10.923 31.3242 10.8005 31.249 10.7293 31.2045C10.6582 31.1601 10.5046 31.0599 10.3878 30.9821C10.2712 30.9043 10.1082 30.7923 10.0257 30.7332C9.94319 30.6743 9.80112 30.5702 9.71005 30.5019C9.61899 30.4336 9.456 30.3071 9.34787 30.2207C9.23973 30.1344 9.06641 29.9908 8.96273 29.9017C8.85904 29.8125 8.69379 29.6665 8.59538 29.5772C8.49708 29.4878 8.28143 29.2795 8.11616 29.1143C7.95101 28.949 7.72842 28.7166 7.62154 28.5979C7.51464 28.4791 7.35612 28.2974 7.26918 28.1943C7.18236 28.0911 7.05757 27.9391 6.99206 27.8566C6.92656 27.7741 6.81014 27.6228 6.73336 27.5203C6.65657 27.4179 6.54937 27.2712 6.49515 27.1944C6.44093 27.1175 6.348 26.9824 6.28871 26.8943C6.22942 26.806 6.12935 26.6523 6.06644 26.5528C6.00352 26.4531 5.9077 26.2972 5.85348 26.2061C5.79937 26.1151 5.70944 25.959 5.65377 25.8595C5.59799 25.7598 5.48354 25.5433 5.39942 25.3783C5.31519 25.2132 5.20468 24.9873 5.15377 24.8764C5.10286 24.7655 5.03218 24.607 4.99679 24.5246C4.96129 24.4421 4.90004 24.2939 4.86051 24.1953C4.82109 24.0967 4.76055 23.9407 4.72609 23.8486C4.69153 23.7565 4.61982 23.5508 4.56663 23.3914C4.51345 23.2321 4.43966 22.9969 4.40261 22.8689C4.36557 22.7408 4.30959 22.5359 4.27823 22.4135C4.24689 22.2911 4.2028 22.1072 4.18013 22.0048C4.15758 21.9024 4.11815 21.7114 4.09249 21.5805C4.06694 21.4496 4.02957 21.2424 4.0095 21.1201C3.98943 20.9976 3.96117 20.8114 3.94669 20.7061C3.9322 20.6008 3.90891 20.4099 3.89505 20.2819C3.88107 20.1538 3.86247 19.9582 3.85366 19.8473C3.84487 19.7362 3.83264 19.571 3.82654 19.4799C3.82045 19.3889 3.81289 19.0769 3.80968 18.7866C3.80603 18.4536 3.80823 18.1615 3.81589 17.995C3.82253 17.8498 3.8372 17.6101 3.84859 17.4621C3.85997 17.3141 3.87869 17.1069 3.89018 17.0016C3.90168 16.8963 3.92266 16.724 3.93675 16.6188C3.95091 16.5134 3.97856 16.3282 3.99832 16.207C4.01799 16.0858 4.05306 15.8903 4.07624 15.7724C4.09952 15.6545 4.13698 15.4743 4.15975 15.3718C4.18241 15.2693 4.21956 15.111 4.24222 15.02C4.26499 14.9289 4.30007 14.7938 4.32014 14.7199C4.34021 14.6459 4.38864 14.4782 4.42775 14.3474C4.46687 14.2165 4.53817 13.9929 4.58629 13.8506C4.63431 13.7084 4.70167 13.5174 4.73581 13.4264C4.76997 13.3353 4.82668 13.1886 4.86196 13.1004C4.89714 13.0121 4.95871 12.8631 4.99875 12.7693C5.0388 12.6754 5.11113 12.5124 5.15946 12.4071C5.20768 12.3018 5.31406 12.083 5.39581 11.9208C5.47745 11.7585 5.59864 11.5281 5.66497 11.4085C5.7314 11.289 5.84999 11.0841 5.92864 10.9532C6.00728 10.8223 6.13124 10.6233 6.2041 10.5111C6.27705 10.3989 6.39254 10.2266 6.46083 10.1284C6.52912 10.0302 6.66685 9.84029 6.76682 9.70648C6.86678 9.57258 7.00845 9.3886 7.0815 9.29754C7.15466 9.20648 7.27666 9.05881 7.35272 8.9694C7.42878 8.87999 7.55678 8.73387 7.63718 8.64468C7.71758 8.55538 7.8755 8.38588 7.98808 8.26805C8.10066 8.15008 8.30131 7.95097 8.43395 7.82556C8.56672 7.70025 8.74564 7.53521 8.83172 7.45882C8.91772 7.38245 9.069 7.25226 9.16803 7.16968C9.26696 7.08701 9.40376 6.97514 9.47205 6.92092C9.54035 6.8668 9.68936 6.75266 9.80318 6.66751C9.91701 6.58224 10.0999 6.45 10.2095 6.37353C10.3191 6.29706 10.5007 6.17485 10.6131 6.10189C10.7254 6.02894 10.9407 5.89554 11.0915 5.80532C11.2424 5.71518 11.4566 5.59184 11.5675 5.5313C11.6784 5.47066 11.8788 5.36605 12.0125 5.29858C12.1463 5.23122 12.3278 5.14254 12.416 5.10145C12.5043 5.06037 12.6673 4.98722 12.7782 4.93889C12.8892 4.89057 13.0709 4.81482 13.1818 4.77042C13.2927 4.72613 13.486 4.65256 13.6112 4.60692C13.7365 4.5614 13.9413 4.49071 14.0666 4.44984C14.1918 4.40907 14.4132 4.34129 14.5587 4.29928C14.7042 4.25737 14.9277 4.19674 15.0554 4.16476C15.1831 4.13268 15.3925 4.08384 15.5205 4.05631C15.6486 4.0288 15.8441 3.98956 15.9551 3.96918C16.0661 3.94878 16.2453 3.91838 16.3535 3.90161C16.4616 3.88486 16.6409 3.85939 16.7519 3.84521C16.8629 3.83095 17.0492 3.80981 17.1658 3.79823C17.2825 3.78662 17.4734 3.77028 17.59 3.76181C17.7068 3.75342 17.9443 3.74101 18.1178 3.73437C18.3036 3.72733 18.5781 3.72495 18.7853 3.72857C18.9788 3.73222 19.2162 3.73984 19.313 3.74586C19.4098 3.75196 19.6031 3.76615 19.7425 3.77754C19.882 3.78881 20.1241 3.81221 20.2806 3.82949C20.4371 3.84668 20.6699 3.8747 20.798 3.89168C20.9261 3.90865 21.1729 3.94352 21.3464 3.96929C21.52 3.99505 21.7748 4.03448 21.9126 4.05694C22.0552 4.08011 22.1979 4.0976 22.2438 4.09739C22.2881 4.09729 22.37 4.09272 22.426 4.08725C22.482 4.08189 22.5682 4.0678 22.6174 4.05612C22.6668 4.04444 22.7413 4.01794 22.783 3.99734L22.8589 3.95989L23.8436 2.97341C24.5925 2.22329 24.8379 1.97142 24.8676 1.92237C24.8891 1.88687 24.9182 1.82148 24.9321 1.77709C24.9462 1.7327 24.9624 1.65499 24.968 1.60439C24.975 1.54354 24.9751 1.47969 24.9684 1.41585C24.9628 1.36276 24.9515 1.29343 24.9432 1.26166C24.9349 1.22999 24.9159 1.17185 24.9011 1.13232C24.8788 1.09301 24.849 1.0304 24.8267 0.993455C24.8044 0.956419 24.7634 0.90001 24.7355 0.867944C24.7057 0.835976 24.6611 0.795509 24.6331 0.778015C24.5996 0.756374 24.514 0.726588 24.367 0.684154C24.246 0.649997 24.0543 0.596607 23.9371 0.565358C23.8198 0.53412 23.6411 0.487652 23.5388 0.461987C23.4364 0.436332 23.2522 0.392028 23.1293 0.363571C23.0065 0.335216 22.7832 0.286281 22.6324 0.255032C22.4817 0.223794 22.2416 0.176803 22.1001 0.150725C21.9568 0.124633 21.7056 0.0812835 21.5418 0.0543808L21.2417 0.00554611L18.7906 0.0037865ZM32.1853 0.000144778H31.6628L28.8689 2.98019L26.0748 5.96024L26.407 6.87356C26.5897 7.37585 26.7572 7.83697 26.7793 7.89821L26.8193 8.00954L25.3296 9.40643L23.8399 10.8033L23.77 10.7599C23.7314 10.7362 23.6114 10.666 23.5033 10.604C23.3952 10.542 23.1856 10.4314 23.0377 10.3584C22.8897 10.2852 22.7081 10.1988 22.6341 10.1664C22.5601 10.134 22.4181 10.0749 22.3185 10.0352C22.2189 9.99544 22.0629 9.93604 21.9718 9.90324C21.8807 9.87043 21.7317 9.82005 21.6407 9.79128C21.5496 9.76252 21.4099 9.72029 21.3302 9.69742C21.2506 9.67465 21.1109 9.6373 21.0198 9.61454C20.9287 9.59166 20.7912 9.55896 20.7141 9.54189C20.637 9.52471 20.4834 9.4945 20.3726 9.47463C20.2619 9.45478 20.1085 9.4291 20.0316 9.41772C19.9548 9.40622 19.808 9.38729 19.7056 9.37581C19.6032 9.36424 19.4262 9.34756 19.3124 9.33886C19.1986 9.33017 18.9635 9.32025 18.7898 9.31682C18.6032 9.3131 18.3685 9.31536 18.2155 9.32251C18.0732 9.32904 17.8776 9.34145 17.7809 9.35003C17.6841 9.35861 17.5118 9.37726 17.398 9.39143C17.2841 9.40569 17.1212 9.42908 17.0358 9.44347C16.9504 9.45774 16.7991 9.4859 16.6995 9.50598C16.5999 9.52594 16.4346 9.5632 16.3322 9.58866C16.2297 9.61409 16.0715 9.65592 15.9805 9.68168C15.8896 9.70734 15.7196 9.76032 15.6028 9.79933C15.486 9.83834 15.316 9.89878 15.2249 9.93365C15.1338 9.96843 14.9771 10.032 14.8766 10.0748C14.7761 10.1175 14.5782 10.2097 14.4368 10.2797C14.2955 10.3495 14.1053 10.4487 14.0142 10.4999C13.9232 10.5512 13.7831 10.6333 13.7027 10.6824C13.6226 10.7316 13.4763 10.8258 13.3778 10.8919C13.2793 10.9579 13.1261 11.0659 13.0373 11.1318C12.9486 11.1978 12.8178 11.2987 12.7466 11.356C12.6755 11.4133 12.5474 11.5205 12.462 11.5942C12.3767 11.6679 12.1784 11.8565 12.0214 12.0134C11.8644 12.1703 11.6811 12.3614 11.614 12.4383C11.547 12.5152 11.4375 12.6454 11.3708 12.728C11.3041 12.8105 11.1944 12.9523 11.127 13.043C11.0597 13.1338 10.9519 13.2867 10.8874 13.383C10.823 13.4792 10.73 13.6237 10.6806 13.7043C10.6314 13.7849 10.5491 13.9253 10.4978 14.0163C10.4466 14.1074 10.3474 14.2976 10.2776 14.4389C10.2076 14.5803 10.1154 14.7782 10.0727 14.8787C10.0298 14.9792 9.9663 15.1359 9.93154 15.227C9.89665 15.3181 9.83634 15.488 9.79743 15.6047C9.75852 15.7213 9.70729 15.8842 9.68349 15.9666C9.65981 16.049 9.61788 16.2073 9.59025 16.3184C9.56274 16.4295 9.52382 16.6019 9.50385 16.7016C9.48378 16.8011 9.45573 16.9525 9.44135 17.0379C9.42697 17.1233 9.40379 17.2839 9.38972 17.3949C9.37563 17.5058 9.35691 17.6805 9.34801 17.783C9.33911 17.8854 9.32721 18.0693 9.32152 18.1917C9.31583 18.314 9.31119 18.5096 9.31119 18.6264C9.31119 18.743 9.31586 18.9385 9.32152 19.061C9.32721 19.1833 9.33911 19.3673 9.34801 19.4697C9.35692 19.5722 9.37564 19.7467 9.38972 19.8578C9.4038 19.9687 9.42697 20.1294 9.44135 20.2148C9.45573 20.3002 9.48378 20.4515 9.50385 20.5511C9.52381 20.6507 9.56273 20.8232 9.59025 20.9343C9.61788 21.0454 9.65979 21.2038 9.68349 21.2861C9.70728 21.3685 9.75852 21.5313 9.79743 21.648C9.83634 21.7646 9.89666 21.9346 9.93154 22.0257C9.96631 22.1167 10.0298 22.2735 10.0727 22.374C10.1154 22.4745 10.2076 22.6724 10.2776 22.8138C10.3474 22.9551 10.4466 23.1453 10.4978 23.2364C10.5491 23.3274 10.6314 23.4679 10.6806 23.5484C10.73 23.629 10.823 23.7735 10.8874 23.8698C10.9519 23.966 11.0597 24.1189 11.127 24.2097C11.1944 24.3004 11.3041 24.4422 11.3708 24.5247C11.4375 24.6072 11.547 24.7376 11.614 24.8144C11.6811 24.8912 11.8644 25.0824 12.0214 25.2393C12.1784 25.3962 12.3767 25.5848 12.462 25.6585C12.5474 25.7322 12.6755 25.8394 12.7466 25.8967C12.8178 25.954 12.9494 26.0556 13.0393 26.1223C13.1292 26.1891 13.2921 26.3033 13.4015 26.3762C13.5108 26.4492 13.6702 26.5508 13.7555 26.6019C13.8409 26.6532 13.9713 26.729 14.0453 26.7704C14.1193 26.8119 14.2955 26.9031 14.4368 26.973C14.5782 27.0428 14.7761 27.1351 14.8766 27.1779C14.9771 27.2207 15.1339 27.2842 15.2249 27.319C15.316 27.3538 15.479 27.4119 15.5871 27.4482C15.6952 27.4844 15.8582 27.5356 15.9493 27.5619C16.0403 27.5882 16.2057 27.6324 16.3166 27.6601C16.4277 27.6878 16.6115 27.7291 16.7254 27.7518C16.8392 27.7746 17.0092 27.805 17.1031 27.8195C17.197 27.8339 17.3274 27.8526 17.3928 27.861C17.4583 27.8692 17.5841 27.8833 17.6722 27.8921C17.7605 27.9009 17.9002 27.9129 17.9827 27.9187C18.0652 27.9246 18.2748 27.9323 18.4483 27.9358C18.6403 27.9399 18.8693 27.9376 19.033 27.9301C19.1809 27.9233 19.3998 27.9087 19.5193 27.8976C19.6388 27.8866 19.8088 27.8678 19.897 27.8561C19.9853 27.8445 20.1529 27.8187 20.2695 27.799C20.3862 27.7793 20.5772 27.7421 20.6938 27.7162C20.8105 27.6905 20.9595 27.6553 21.0249 27.6381C21.0904 27.6208 21.2091 27.5881 21.2888 27.5653C21.3685 27.5427 21.5059 27.5006 21.5941 27.4719C21.6823 27.4432 21.8476 27.3848 21.9614 27.342C22.0752 27.2993 22.2453 27.2318 22.3391 27.1922C22.433 27.1526 22.5936 27.0798 22.6959 27.0306C22.7983 26.9813 22.9495 26.9055 23.0322 26.8622C23.1149 26.8188 23.2453 26.7472 23.3222 26.7032C23.399 26.659 23.5364 26.5763 23.6274 26.5194C23.7185 26.4626 23.8675 26.3647 23.9586 26.3019C24.0496 26.2391 24.18 26.1456 24.2483 26.0942C24.3166 26.0429 24.4407 25.9458 24.524 25.8785C24.6072 25.8113 24.7353 25.7042 24.8085 25.6405C24.8817 25.5769 25.0723 25.394 25.232 25.2343C25.3918 25.0745 25.584 24.8726 25.659 24.7856C25.7342 24.6986 25.8485 24.5611 25.9132 24.4803C25.978 24.3994 26.0849 24.2597 26.151 24.1697C26.217 24.0797 26.324 23.9261 26.3888 23.8282C26.4535 23.7304 26.5485 23.5805 26.5997 23.4951C26.6509 23.4097 26.7268 23.2793 26.7682 23.2053C26.8097 23.1313 26.9009 22.9551 26.9708 22.8138C27.0407 22.6724 27.133 22.4745 27.1757 22.374C27.2186 22.2735 27.2821 22.1167 27.3169 22.0257C27.3518 21.9346 27.4121 21.7646 27.451 21.648C27.4899 21.5312 27.5405 21.3706 27.5634 21.291C27.5864 21.2113 27.626 21.0623 27.6514 20.9598C27.6769 20.8574 27.7097 20.7177 27.7243 20.6494C27.7389 20.5811 27.7623 20.4645 27.7762 20.3903C27.7901 20.3161 27.8133 20.1764 27.8277 20.0798C27.842 19.9833 27.8609 19.8438 27.8695 19.7698C27.8782 19.6958 27.892 19.5608 27.9003 19.4697C27.9087 19.3787 27.921 19.1831 27.9278 19.0351C27.9353 18.8728 27.9376 18.6428 27.9338 18.4556C27.9302 18.2849 27.9204 18.0521 27.9117 17.9382C27.9029 17.8244 27.8863 17.6474 27.8747 17.545C27.8631 17.4426 27.8424 17.2843 27.8287 17.1932C27.8149 17.1021 27.7917 16.9624 27.7771 16.8827C27.7625 16.8031 27.7363 16.6709 27.719 16.5892C27.7016 16.5073 27.669 16.3654 27.6464 16.2738C27.6238 16.1822 27.589 16.0489 27.5691 15.9776C27.5491 15.9063 27.5069 15.7641 27.4752 15.6617C27.4435 15.5592 27.3874 15.3916 27.3504 15.2892C27.3135 15.1867 27.2516 15.0237 27.2129 14.927C27.1743 14.8302 27.1159 14.6905 27.0833 14.6165C27.0507 14.5426 26.9789 14.3889 26.9239 14.2751C26.8687 14.1612 26.7801 13.9889 26.7271 13.8922C26.674 13.7954 26.5892 13.647 26.5388 13.5625L26.447 13.4087L27.9355 11.919L29.4239 10.4295L30.3561 10.8022L31.2881 11.1751L34.2047 8.25714C36.4686 5.99214 37.13 5.32494 37.1602 5.27487C37.1817 5.23948 37.2093 5.1802 37.2215 5.14315C37.2386 5.0911 37.2446 5.04226 37.248 4.92904C37.2517 4.80497 37.2491 4.76937 37.2308 4.69714C37.2189 4.65026 37.1909 4.5742 37.1686 4.52815C37.1463 4.48211 37.1047 4.41371 37.0762 4.37605C37.0476 4.33849 36.9995 4.28582 36.9692 4.25901C36.9389 4.23223 36.8839 4.19226 36.8469 4.17012C36.8099 4.14808 36.754 4.12066 36.7227 4.10928C36.6914 4.09789 36.128 3.92342 35.4706 3.72175C34.8133 3.51997 34.255 3.35193 34.2301 3.34828C34.2051 3.34463 34.1586 3.32905 34.1266 3.31361C34.0921 3.29693 34.0388 3.25598 33.9955 3.21304C33.9553 3.1732 33.9011 3.11008 33.8749 3.07282C33.8486 3.03557 33.8015 2.95878 33.7699 2.90207L33.7125 2.79912L33.3341 1.56887C33.126 0.892327 32.9421 0.310043 32.9254 0.275156C32.9087 0.240159 32.8722 0.181395 32.8444 0.144555C32.8164 0.107716 32.7743 0.0601272 32.7506 0.0388116L32.7076 0L32.1853 0.000144778ZM18.707 13.0442C18.8887 13.0467 19.1022 13.0552 19.1895 13.064C19.2756 13.0726 19.3989 13.087 19.4637 13.096C19.5284 13.1049 19.6623 13.1285 19.7612 13.1483C19.8602 13.1681 20.0278 13.2095 20.1338 13.2401C20.2397 13.2709 20.3724 13.3127 20.4287 13.3331C20.4849 13.3535 20.592 13.3953 20.6667 13.4257C20.7413 13.4562 20.8533 13.5051 20.9156 13.5343C20.9779 13.5637 21.0312 13.5899 21.0341 13.5928C21.037 13.5957 20.187 14.4512 19.1452 15.494C18.1035 16.5367 17.2229 17.4253 17.1881 17.4686C17.1533 17.5119 17.0985 17.5864 17.0664 17.6342C17.0343 17.6819 16.9806 17.7769 16.9471 17.8452C16.9135 17.9135 16.8702 18.0182 16.8508 18.078C16.8314 18.1377 16.8081 18.2239 16.799 18.2694C16.7899 18.315 16.7778 18.3941 16.7721 18.4454C16.7664 18.4966 16.7617 18.578 16.7617 18.6265C16.7617 18.6748 16.7664 18.7563 16.7721 18.8075C16.7778 18.8588 16.7899 18.9379 16.799 18.9835C16.8081 19.029 16.8314 19.1151 16.8508 19.1749C16.8702 19.2346 16.9135 19.3394 16.9471 19.4077C16.9806 19.476 17.0343 19.571 17.0664 19.6187C17.0986 19.6665 17.1519 19.7388 17.1851 19.7791C17.2183 19.8196 17.2936 19.8994 17.3527 19.9564C17.4117 20.0133 17.495 20.0858 17.5376 20.1174C17.5803 20.1491 17.6502 20.1965 17.6928 20.2227C17.7356 20.2491 17.8147 20.2915 17.8687 20.3172C17.9229 20.3428 18.009 20.3776 18.0602 20.3948C18.1114 20.4119 18.1952 20.4352 18.2464 20.4464C18.2977 20.4577 18.3848 20.4719 18.4401 20.478C18.4953 20.4841 18.5791 20.4891 18.6263 20.489C18.6735 20.489 18.754 20.4842 18.8052 20.4785C18.8565 20.4728 18.9356 20.4607 18.9812 20.4516C19.0267 20.4425 19.1128 20.4191 19.1725 20.3997C19.2321 20.3801 19.3276 20.3418 19.3846 20.3146C19.4415 20.2873 19.5301 20.2388 19.5813 20.207C19.6326 20.175 19.7117 20.1189 19.7572 20.0822C19.8028 20.0454 20.6952 19.1604 21.7403 18.1153C22.7854 17.0704 23.6451 16.2153 23.6508 16.2153C23.6563 16.2153 23.6914 16.2816 23.7286 16.3627C23.7658 16.4439 23.8157 16.559 23.8395 16.6188C23.8634 16.6785 23.899 16.7717 23.9187 16.8258C23.9384 16.8798 23.9796 17.0108 24.0103 17.1168C24.041 17.2227 24.0824 17.3904 24.1023 17.4893C24.1222 17.5882 24.1479 17.7413 24.1595 17.8295C24.171 17.9177 24.1862 18.0505 24.1933 18.1245C24.2011 18.2054 24.206 18.4074 24.2057 18.6315C24.2053 18.9037 24.2004 19.05 24.1876 19.1748C24.178 19.2686 24.1607 19.4107 24.1491 19.4904C24.1375 19.5701 24.1163 19.6958 24.1021 19.7698C24.0879 19.8438 24.0549 19.9881 24.029 20.0906C24.003 20.193 23.9549 20.3586 23.922 20.4584C23.889 20.5584 23.8333 20.7121 23.7979 20.7999C23.7626 20.8879 23.6904 21.0483 23.6374 21.1564C23.5845 21.2646 23.5075 21.4112 23.4663 21.4824C23.4253 21.5535 23.3521 21.6723 23.3039 21.7462C23.2557 21.8202 23.1637 21.9506 23.0995 22.036C23.0354 22.1214 22.9349 22.2471 22.8762 22.3154C22.8176 22.3837 22.6925 22.5166 22.5983 22.6107C22.504 22.7049 22.3733 22.8277 22.3079 22.8837C22.2425 22.9397 22.1191 23.0379 22.0337 23.1019C21.9483 23.166 21.8178 23.2581 21.7438 23.3064C21.6697 23.3548 21.5511 23.428 21.48 23.4689C21.4089 23.51 21.2622 23.5869 21.1541 23.6398C21.046 23.6927 20.8856 23.7649 20.7976 23.8002C20.7098 23.8356 20.5561 23.8914 20.4561 23.9243C20.3563 23.9572 20.1907 24.0053 20.0883 24.0313C19.9858 24.0572 19.8415 24.0901 19.7675 24.1044C19.6935 24.1186 19.5678 24.1398 19.4881 24.1514C19.4084 24.163 19.2687 24.1796 19.1776 24.1884C19.0866 24.1972 18.898 24.2072 18.7586 24.2107C18.6092 24.2144 18.4221 24.2122 18.3032 24.205C18.1923 24.1985 18.02 24.1836 17.9204 24.172C17.8208 24.1603 17.6515 24.1348 17.5443 24.1152C17.4371 24.0955 17.2928 24.0653 17.2235 24.0479C17.1543 24.0306 17.0489 24.0022 16.9891 23.9849C16.9294 23.9676 16.8245 23.9351 16.7562 23.9125C16.6879 23.8898 16.5553 23.841 16.4613 23.8038C16.3675 23.7667 16.1928 23.6881 16.0732 23.6292C15.9537 23.5702 15.7838 23.4784 15.6955 23.4252C15.6074 23.372 15.4979 23.3035 15.4524 23.273C15.4068 23.2424 15.2997 23.165 15.2144 23.101C15.129 23.0371 15.0033 22.9368 14.935 22.8782C14.8667 22.8195 14.736 22.6969 14.6446 22.6056C14.5532 22.5143 14.4305 22.3837 14.3719 22.3154C14.3132 22.2471 14.2127 22.1214 14.1485 22.036C14.0844 21.9506 13.9923 21.8201 13.944 21.7461C13.8955 21.672 13.8224 21.5534 13.7814 21.4823C13.7403 21.4112 13.6634 21.2646 13.6106 21.1564C13.5577 21.0483 13.4854 20.8879 13.4502 20.7999C13.4148 20.7121 13.359 20.5584 13.3261 20.4584C13.2932 20.3586 13.2451 20.193 13.2191 20.0906C13.1931 19.9881 13.1603 19.8438 13.1461 19.7698C13.132 19.6958 13.111 19.5723 13.0994 19.4955C13.0879 19.4187 13.0703 19.2743 13.0604 19.1748C13.0468 19.0395 13.0421 18.9007 13.0421 18.6263C13.0421 18.352 13.0468 18.2131 13.0604 18.0779C13.0703 17.9782 13.0879 17.8339 13.0994 17.7571C13.111 17.6802 13.132 17.5568 13.1461 17.4829C13.1603 17.4089 13.193 17.2645 13.2189 17.1621C13.2448 17.0596 13.293 16.8939 13.3261 16.7938C13.3591 16.6937 13.415 16.54 13.4503 16.4523C13.4856 16.3646 13.5577 16.2044 13.6106 16.0962C13.6634 15.9881 13.7403 15.8415 13.7814 15.7704C13.8224 15.6993 13.8955 15.5806 13.944 15.5065C13.9923 15.4325 14.0844 15.302 14.1485 15.2166C14.2125 15.1313 14.3108 15.0078 14.3668 14.9424C14.4229 14.877 14.548 14.744 14.645 14.647C14.7419 14.55 14.8841 14.4176 14.9609 14.3528C15.0378 14.288 15.1564 14.1932 15.2248 14.1422C15.293 14.0913 15.3955 14.0185 15.4524 13.9804C15.5093 13.9423 15.6164 13.8746 15.6904 13.8298C15.7644 13.7851 15.9181 13.7014 16.0319 13.6439C16.1457 13.5862 16.3204 13.506 16.42 13.4656C16.5196 13.425 16.6709 13.3685 16.7563 13.3398C16.8416 13.3113 16.9798 13.2693 17.0632 13.2466C17.1466 13.2239 17.2677 13.1936 17.3322 13.1791C17.3968 13.1648 17.5311 13.1391 17.6307 13.1221C17.7303 13.1051 17.8794 13.0839 17.9622 13.0749C18.0449 13.0658 18.173 13.0543 18.2468 13.0492C18.3206 13.0441 18.5278 13.0419 18.707 13.0442Z" fill="#7DB834"/>
</svg>
