<svg width="223" height="36" viewBox="0 0 223 36" fill="none" xmlns="http://www.w3.org/2000/svg">
<path d="M56.8834 7.86145H52.2842L44.9961 24.3715H49.7604L51.0577 21.1638L52.4256 17.7203L54.5484 12.4371L56.6711 17.7203L58.039 21.1638L59.3363 24.3715H64.195L56.8834 7.86145Z" fill="white" stroke="white" stroke-width="0.295117" stroke-miterlimit="2"/>
<path d="M69.2146 23.7367C70.3231 24.3028 71.5968 24.5858 73.0121 24.5858C74.4508 24.5858 75.7008 24.2792 76.7623 23.666C77.8001 23.0527 78.5549 22.1801 79.003 21.0716L75.5359 19.3026C74.9462 20.4583 74.0971 21.0244 72.9886 21.0244C72.1867 21.0244 71.5027 20.7649 70.9838 20.2225C70.465 19.68 70.2055 18.9253 70.2055 17.9582C70.2055 17.0148 70.4649 16.2836 70.9838 15.7412C71.5027 15.2223 72.1867 14.9393 72.9886 14.9393C74.0971 14.9393 74.9462 15.5289 75.5359 16.6611L79.003 14.8921C78.5549 13.8072 77.8001 12.9345 76.7623 12.3213C75.701 11.7081 74.4509 11.3779 73.0121 11.3779C71.5969 11.3779 70.3233 11.6609 69.2146 12.227C68.0825 12.793 67.2098 13.5714 66.5966 14.5619C65.9834 15.5525 65.6768 16.6847 65.6768 17.9583C65.6768 19.2319 65.9834 20.3876 66.5966 21.3782C67.2098 22.3924 68.0825 23.1707 69.2146 23.7367Z" fill="white" stroke="white" stroke-width="0.295117" stroke-miterlimit="2"/>
<path d="M84.6218 23.7367C85.7304 24.3028 87.004 24.5858 88.4193 24.5858C89.858 24.5858 91.1081 24.2792 92.1696 23.666C93.2073 23.0527 93.9621 22.1801 94.4102 21.0716L90.9431 19.3026C90.3535 20.4583 89.5044 21.0244 88.3958 21.0244C87.5939 21.0244 86.9099 20.7649 86.391 20.2225C85.8722 19.68 85.6127 18.9253 85.6127 17.9582C85.6127 17.0148 85.8722 16.2836 86.391 15.7412C86.9099 15.2223 87.5939 14.9393 88.3958 14.9393C89.5044 14.9393 90.3535 15.5289 90.9431 16.6611L94.4102 14.8921C93.9621 13.8072 93.2073 12.9345 92.1696 12.3213C91.1082 11.7081 89.8581 11.3779 88.4193 11.3779C87.0042 11.3779 85.7305 11.6609 84.6218 12.227C83.4897 12.793 82.6171 13.5714 82.0038 14.5619C81.3906 15.5525 81.084 16.6847 81.084 17.9583C81.084 19.2319 81.3906 20.3876 82.0038 21.3782C82.6171 22.3924 83.4897 23.1707 84.6218 23.7367Z" fill="white" stroke="white" stroke-width="0.295117" stroke-miterlimit="2"/>
<path d="M110.874 11.5881H106.392V17.7441C106.392 18.7819 106.157 19.5366 105.708 20.0319C105.26 20.5272 104.694 20.7631 103.987 20.7631C103.279 20.7631 102.76 20.5508 102.406 20.1027C102.029 19.6781 101.864 18.9706 101.864 18.0036V11.5858H97.3828V18.7323C97.3828 20.69 97.8545 22.1523 98.8451 23.1194C99.8357 24.11 101.157 24.5818 102.807 24.5818C103.539 24.5818 104.246 24.4638 104.907 24.1808C105.567 23.9214 106.133 23.5204 106.605 23.0015V24.3695H110.874L110.874 11.5881Z" fill="white" stroke="white" stroke-width="0.295117" stroke-miterlimit="2"/>
<path d="M115.259 7.86145V24.3715H127.807V20.6695H119.929V7.8625L115.259 7.86145Z" fill="white" stroke="white" stroke-width="0.295117" stroke-miterlimit="2"/>
<path d="M143.681 19.1118C143.729 18.4043 143.752 18.0505 143.752 18.0033C143.752 16.6353 143.446 15.456 142.832 14.4655C142.219 13.4749 141.417 12.6965 140.379 12.1776C139.342 11.6588 138.186 11.3757 136.912 11.3757C135.568 11.3757 134.365 11.6588 133.304 12.2248C132.219 12.7909 131.393 13.5928 130.78 14.5834C130.167 15.574 129.884 16.7061 129.884 17.9562C129.884 19.2298 130.19 20.3855 130.804 21.3761C131.417 22.3903 132.313 23.1686 133.445 23.7347C134.577 24.3007 135.875 24.5838 137.384 24.5838C139.766 24.5838 141.582 23.8998 142.832 22.5082L140.474 20.0553C140.002 20.4563 139.554 20.7393 139.106 20.9044C138.658 21.0931 138.139 21.1639 137.526 21.1639C136.7 21.1639 136.016 20.9988 135.474 20.645C134.931 20.2912 134.577 19.7723 134.389 19.1119L143.681 19.1118ZM135.19 15.1495C135.662 14.7721 136.228 14.5599 136.936 14.5599C137.62 14.5599 138.186 14.7722 138.658 15.1495C139.129 15.5505 139.412 16.093 139.554 16.7534H134.316C134.434 16.093 134.717 15.5505 135.189 15.1495H135.19Z" fill="white" stroke="white" stroke-width="0.295117" stroke-miterlimit="2"/>
<path d="M160.736 6.87164H156.255V12.6973C155.406 11.8246 154.227 11.3765 152.717 11.3765C151.538 11.3765 150.477 11.6595 149.533 12.1784C148.566 12.7209 147.811 13.4992 147.245 14.4898C146.679 15.4804 146.42 16.6361 146.42 17.9569C146.42 19.2777 146.679 20.457 147.245 21.4476C147.811 22.4618 148.566 23.2401 149.533 23.7825C150.477 24.325 151.538 24.5844 152.717 24.5844C154.368 24.5844 155.618 24.0891 156.468 23.0985V24.3722H160.737L160.736 6.87164ZM155.571 20.2211C155.052 20.7635 154.415 21.023 153.661 21.023C152.859 21.023 152.222 20.7635 151.727 20.2211C151.208 19.6786 150.972 18.9238 150.972 17.9568C150.972 17.0134 151.208 16.2822 151.727 15.7398C152.222 15.2209 152.859 14.9379 153.661 14.9379C154.439 14.9379 155.076 15.2209 155.571 15.7398C156.066 16.2822 156.326 17.0134 156.326 17.9568C156.326 18.9238 156.066 19.6786 155.571 20.2211Z" fill="white" stroke="white" stroke-width="0.295117" stroke-miterlimit="2"/>
<path d="M178.655 11.5881H174.386V13.1448C173.537 11.9655 172.192 11.3759 170.376 11.3759C169.244 11.3759 168.183 11.6353 167.239 12.1542C166.272 12.6731 165.518 13.3806 164.952 14.3241C164.386 15.2675 164.103 16.3289 164.103 17.5317C164.103 18.7582 164.386 19.8432 164.952 20.7866C165.518 21.73 166.272 22.4376 167.239 22.9565C168.183 23.4754 169.244 23.7112 170.376 23.7112C172.027 23.7112 173.301 23.2159 174.174 22.2017V22.6263C174.174 23.664 173.891 24.4188 173.348 24.9377C172.782 25.4566 171.933 25.716 170.754 25.716C169.976 25.716 169.197 25.5981 168.395 25.3622C167.593 25.1264 166.957 24.7726 166.438 24.348L164.81 27.485C165.565 28.051 166.508 28.452 167.617 28.735C168.702 29.018 169.881 29.1596 171.155 29.1596C173.561 29.1596 175.424 28.5699 176.721 27.3906C177.995 26.2113 178.655 24.4188 178.655 22.0366L178.655 11.5881ZM173.419 19.4187C172.9 19.914 172.24 20.1498 171.438 20.1498C170.636 20.1498 169.952 19.914 169.433 19.4187C168.891 18.947 168.631 18.3102 168.631 17.5318C168.631 16.7771 168.891 16.1403 169.409 15.6686C169.928 15.1968 170.612 14.9374 171.438 14.9374C172.24 14.9374 172.924 15.1968 173.443 15.6686C173.961 16.1403 174.221 16.7771 174.221 17.5318C174.221 18.3102 173.938 18.947 173.419 19.4187Z" fill="white" stroke="white" stroke-width="0.295117" stroke-miterlimit="2"/>
<path d="M195.841 19.1118C195.888 18.4043 195.911 18.0505 195.911 18.0033C195.911 16.6353 195.605 15.456 194.992 14.4655C194.378 13.4749 193.576 12.6965 192.539 12.1776C191.501 11.6588 190.345 11.3757 189.072 11.3757C187.727 11.3757 186.524 11.6588 185.463 12.2248C184.378 12.7909 183.552 13.5928 182.939 14.5834C182.326 15.574 182.043 16.7061 182.043 17.9562C182.043 19.2298 182.35 20.3855 182.963 21.3761C183.576 22.3903 184.472 23.1686 185.604 23.7347C186.737 24.3007 188.034 24.5838 189.543 24.5838C191.925 24.5838 193.741 23.8998 194.991 22.5082L192.633 20.0553C192.161 20.4563 191.713 20.7393 191.265 20.9044C190.817 21.0931 190.298 21.1639 189.685 21.1639C188.859 21.1639 188.175 20.9988 187.633 20.645C187.09 20.2912 186.736 19.7723 186.548 19.1119L195.841 19.1118ZM187.35 15.1495C187.821 14.7721 188.387 14.5599 189.095 14.5599C189.779 14.5599 190.345 14.7722 190.817 15.1495C191.288 15.5505 191.571 16.093 191.713 16.7534H186.477C186.595 16.093 186.878 15.5505 187.35 15.1495Z" fill="white" stroke="white" stroke-width="0.295117" stroke-miterlimit="2"/>
<path d="M205.351 11.8241C204.619 12.1071 204.03 12.5553 203.582 13.1213V11.5882H199.312V24.3716H203.794V18.4988C203.794 17.4374 204.053 16.6355 204.596 16.1166C205.138 15.5977 205.893 15.3383 206.86 15.3383C207.119 15.3383 207.449 15.3619 207.874 15.409V11.3759C206.931 11.3759 206.082 11.5411 205.351 11.8241Z" fill="white" stroke="white" stroke-width="0.295117" stroke-miterlimit="2"/>
<path d="M212.519 24.2298C213.556 24.4657 214.594 24.5836 215.679 24.5836C217 24.5836 218.156 24.4185 219.099 24.0411C220.042 23.6874 220.774 23.192 221.269 22.5552C221.741 21.9184 222 21.1872 222 20.3853C222 19.4183 221.741 18.6636 221.222 18.1211C220.703 17.5786 220.113 17.2013 219.429 16.989C218.722 16.8003 217.849 16.6116 216.811 16.4465C215.962 16.3286 215.372 16.2106 215.019 16.0927C214.641 15.9748 214.476 15.7625 214.476 15.4559C214.476 15.1965 214.641 14.9842 214.971 14.8191C215.302 14.654 215.821 14.5597 216.528 14.5597C217.849 14.5597 219.075 14.8899 220.208 15.5031L221.552 12.4605C220.939 12.1303 220.16 11.8473 219.264 11.6586C218.344 11.47 217.424 11.3756 216.505 11.3756C215.184 11.3756 214.075 11.5643 213.132 11.9417C212.188 12.319 211.481 12.8143 211.009 13.4511C210.514 14.0879 210.278 14.8191 210.278 15.621C210.278 16.6116 210.537 17.3899 211.056 17.9324C211.575 18.4985 212.188 18.8758 212.896 19.0645C213.604 19.2768 214.476 19.4419 215.514 19.5599C216.316 19.6778 216.882 19.7957 217.259 19.9136C217.637 20.0316 217.825 20.2203 217.825 20.5033C217.825 20.7863 217.66 21.0222 217.354 21.1637C217.047 21.3052 216.528 21.376 215.821 21.376C215.019 21.376 214.24 21.2816 213.438 21.0694C212.637 20.8571 211.929 20.574 211.363 20.1967L210.019 23.2628C210.632 23.6638 211.481 23.994 212.519 24.2298Z" fill="white" stroke="white" stroke-width="0.295117" stroke-miterlimit="2"/>
<path d="M18.137 0.0277026L15.7648 0.0259397L15.535 0.0637991C15.4087 0.0845811 15.2289 0.115834 15.1355 0.133315C15.0421 0.150786 14.8608 0.187554 14.7325 0.215022C14.6043 0.242496 14.32 0.309608 14.1008 0.364342C13.8815 0.418977 13.5977 0.492579 13.4699 0.527937C13.3423 0.563294 13.1393 0.622026 13.019 0.658381C12.8987 0.694837 12.7099 0.75407 12.5995 0.790125C12.4891 0.826184 12.2988 0.891111 12.1768 0.934457C12.0546 0.977807 11.8883 1.03833 11.8072 1.06909C11.7258 1.09977 11.5584 1.16549 11.4348 1.21512C11.3112 1.26487 11.109 1.34906 10.9854 1.4024C10.8618 1.45574 10.6595 1.54604 10.5359 1.60306C10.4124 1.66019 10.1764 1.77474 10.0116 1.85774C9.84676 1.94065 9.62653 2.05501 9.52216 2.11174C9.41779 2.16837 9.23921 2.26806 9.12533 2.33319C9.01147 2.39831 8.83169 2.50388 8.72583 2.5679C8.61996 2.63193 8.44577 2.7405 8.33858 2.80922C8.23151 2.87793 8.09667 2.96563 8.03893 3.00409C7.98131 3.04264 7.83747 3.14143 7.71932 3.22383C7.60127 3.30613 7.39951 3.45176 7.27114 3.54743C7.14279 3.64312 6.97419 3.77115 6.89657 3.83209C6.81896 3.89301 6.68132 4.00378 6.59064 4.07819C6.49995 4.1526 6.36521 4.26536 6.2912 4.32879C6.21708 4.39222 6.08905 4.50428 6.00654 4.5779C5.92404 4.65141 5.76663 4.79593 5.65676 4.89892C5.54689 5.0019 5.32876 5.21593 5.17195 5.37444C5.01513 5.53295 4.81277 5.74348 4.72228 5.84239C4.63169 5.94127 4.49426 6.09459 4.41686 6.18308C4.33935 6.27157 4.21101 6.42209 4.1316 6.51767C4.0522 6.61316 3.93195 6.76097 3.86442 6.84617C3.79681 6.93127 3.67505 7.08918 3.59365 7.19686C3.51235 7.30463 3.38651 7.47542 3.31418 7.57639C3.24177 7.67747 3.10284 7.87912 3.00535 8.02475C2.90787 8.17028 2.77203 8.37931 2.70341 8.48921C2.63479 8.59908 2.53581 8.76108 2.48337 8.84927C2.43083 8.93747 2.34972 9.0768 2.30308 9.1589C2.25643 9.241 2.17453 9.38912 2.12099 9.488C2.06746 9.58688 1.95409 9.80692 1.8689 9.9769C1.78392 10.1467 1.67166 10.3782 1.61961 10.491C1.56758 10.6038 1.48898 10.7794 1.44502 10.881C1.40098 10.9827 1.32329 11.1692 1.27234 11.2956C1.22141 11.4219 1.1428 11.6242 1.09766 11.7451C1.05251 11.8658 0.973004 12.0905 0.92107 12.2445C0.869027 12.3983 0.791226 12.641 0.747967 12.7838C0.704819 12.9266 0.641692 13.1445 0.607828 13.2683C0.573978 13.3917 0.519948 13.6008 0.48788 13.7327C0.455721 13.8645 0.406974 14.0779 0.379419 14.2071C0.351839 14.3362 0.313492 14.5249 0.294214 14.6265C0.274841 14.7282 0.243373 14.9057 0.224187 15.021C0.205025 15.1365 0.173561 15.3431 0.154284 15.4806C0.134911 15.618 0.105539 15.8517 0.0889595 15.9999C0.0724749 16.1483 0.0501062 16.3752 0.0392221 16.5043C0.0284436 16.6334 0.0145653 16.82 0.0083659 16.9188C0.000792825 17.0404 -0.00163978 17.4434 0.00107244 18.1623L0.00505509 19.2261L0.0268226 19.4758C0.038693 19.6131 0.0576802 19.8131 0.0688743 19.9202C0.0801458 20.0273 0.102722 20.2206 0.119112 20.3497C0.135491 20.4787 0.164957 20.6878 0.184436 20.8142C0.20402 20.9405 0.239868 21.153 0.264239 21.2864C0.288614 21.4198 0.328962 21.6266 0.353932 21.7459C0.379011 21.8652 0.424442 22.0684 0.454907 22.1975C0.485481 22.3265 0.541106 22.5468 0.578562 22.6869C0.616016 22.8269 0.676446 23.0426 0.712903 23.1663C0.749359 23.2899 0.827961 23.5374 0.887489 23.7162C0.947017 23.8949 1.0461 24.1758 1.10762 24.3404C1.16925 24.5049 1.27023 24.7609 1.33205 24.9092C1.39387 25.0575 1.48267 25.2643 1.52942 25.3687C1.57616 25.4731 1.66465 25.664 1.72609 25.7932C1.78751 25.9222 1.8832 26.1155 1.93853 26.2226C1.99396 26.3297 2.08076 26.4938 2.1315 26.5872C2.18224 26.6806 2.26075 26.8221 2.30599 26.9018C2.35124 26.9814 2.43783 27.1298 2.49837 27.2314C2.55899 27.333 2.65798 27.4948 2.71841 27.591C2.77884 27.6871 2.89121 27.8602 2.96822 27.9755C3.04513 28.0909 3.1442 28.2369 3.18835 28.3001C3.2325 28.3633 3.3089 28.4711 3.35815 28.5399C3.40729 28.6085 3.51735 28.7568 3.60255 28.8695C3.68784 28.982 3.81858 29.1506 3.8932 29.2439C3.96781 29.3372 4.10264 29.5013 4.19295 29.6085C4.28314 29.7156 4.42697 29.8818 4.51257 29.9779C4.59807 30.0739 4.7331 30.2222 4.81251 30.3075C4.89202 30.3927 5.07849 30.5842 5.22703 30.733C5.37555 30.8817 5.57131 31.0727 5.66201 31.1575C5.7528 31.2422 5.90332 31.3794 5.9966 31.4624C6.08999 31.5455 6.2472 31.6819 6.34608 31.7656C6.44496 31.8493 6.61356 31.988 6.72064 32.0739C6.82782 32.1598 7.02328 32.3112 7.15512 32.4103C7.28697 32.5094 7.48473 32.6538 7.59461 32.731C7.70448 32.8083 7.88207 32.93 7.98915 33.0013C8.09632 33.0727 8.25344 33.1752 8.33834 33.2291C8.42323 33.283 8.60302 33.3933 8.73784 33.474C8.87268 33.5547 9.08414 33.6771 9.20766 33.7458C9.33131 33.8146 9.53577 33.9251 9.66211 33.9914C9.78846 34.0577 10.011 34.169 10.1565 34.2386C10.3021 34.3082 10.5066 34.4033 10.611 34.4498C10.7153 34.4964 10.8854 34.5701 10.989 34.6135C11.0926 34.6571 11.2791 34.7325 11.4035 34.7812C11.528 34.83 11.7196 34.9023 11.8295 34.942C11.9394 34.9816 12.1012 35.0385 12.1891 35.0685C12.277 35.0985 12.4702 35.1606 12.6186 35.2064C12.7669 35.2524 12.9871 35.3176 13.108 35.3513C13.2288 35.385 13.4625 35.4458 13.6273 35.4864C13.7921 35.527 14.0327 35.5826 14.1617 35.61C14.2908 35.6373 14.4683 35.6735 14.5562 35.6902C14.6441 35.7069 14.7947 35.734 14.8908 35.7503C14.987 35.7665 15.1578 35.7934 15.2704 35.81C15.383 35.8266 15.5268 35.8471 15.59 35.8555C15.6532 35.8638 15.7654 35.8776 15.8394 35.8862C15.9133 35.8947 16.0616 35.9104 16.169 35.921C16.2762 35.9315 16.4607 35.9483 16.5788 35.9581C16.7685 35.9738 16.9265 35.9759 17.9322 35.9759H19.0708L19.3405 35.9532C19.4888 35.9406 19.7158 35.9191 19.8449 35.9055C19.974 35.8918 20.1853 35.8671 20.3143 35.8505C20.4434 35.8339 20.6344 35.8071 20.7388 35.791C20.8432 35.7747 21.0297 35.7437 21.1533 35.7219C21.2769 35.7001 21.4792 35.6615 21.6028 35.6361C21.7264 35.6108 21.9421 35.5632 22.0822 35.5306C22.2223 35.4979 22.4537 35.4399 22.5965 35.4017C22.7394 35.3636 22.9686 35.2987 23.106 35.2576C23.2433 35.2165 23.4568 35.1495 23.5804 35.1088C23.704 35.0679 23.8829 35.0069 23.978 34.973C24.0731 34.9392 24.2394 34.8774 24.3475 34.836C24.4557 34.7945 24.6148 34.7318 24.7011 34.6966C24.7874 34.6613 24.9402 34.597 25.0407 34.5536C25.1412 34.5102 25.3021 34.4388 25.3982 34.3948C25.4944 34.3509 25.6653 34.2703 25.7781 34.2157C25.891 34.1612 26.0887 34.0611 26.2176 33.9935C26.3465 33.9258 26.5486 33.8165 26.6666 33.7506C26.7848 33.6847 26.9936 33.5633 27.1309 33.481C27.2682 33.3987 27.4682 33.275 27.5753 33.2063C27.6826 33.1374 27.8175 33.0496 27.8752 33.0111C27.9329 32.9726 28.0699 32.8784 28.1798 32.8017C28.2897 32.7248 28.5009 32.5713 28.6492 32.4605C28.7976 32.3496 29.0133 32.183 29.1287 32.0904C29.244 31.9977 29.3969 31.8725 29.4683 31.8121C29.5397 31.7517 29.6319 31.6728 29.673 31.6368C29.7143 31.6008 29.8351 31.4929 29.9418 31.3971C30.0484 31.3012 30.2484 31.1143 30.3862 30.9815C30.5241 30.8487 30.7203 30.6529 30.8223 30.5463C30.9243 30.4399 31.0659 30.2895 31.1369 30.2123C31.208 30.1352 31.3271 30.0026 31.4017 29.9177C31.4763 29.8328 31.5887 29.7026 31.6514 29.6285C31.7141 29.5544 31.8378 29.4038 31.9261 29.2939C32.0145 29.1841 32.1633 28.993 32.2568 28.8695C32.3504 28.7458 32.4911 28.5548 32.5695 28.445C32.6479 28.3351 32.7958 28.1194 32.8981 27.9655C33.0005 27.8117 33.1221 27.6252 33.1684 27.551C33.2146 27.4768 33.3024 27.333 33.3636 27.2314C33.4248 27.1297 33.5269 26.9545 33.5906 26.8419C33.6543 26.7292 33.7453 26.5652 33.7928 26.4773C33.8403 26.3894 33.9544 26.1669 34.0463 25.9829C34.1383 25.7988 34.2465 25.5764 34.2867 25.4885C34.327 25.4006 34.4003 25.2366 34.4497 25.124C34.4991 25.0113 34.5708 24.8428 34.6091 24.7494C34.6474 24.656 34.7125 24.4919 34.754 24.3848C34.7953 24.2778 34.8662 24.0867 34.9117 23.9603C34.957 23.834 35.028 23.6272 35.0695 23.5009C35.1109 23.3745 35.1747 23.1723 35.211 23.0514C35.2475 22.9306 35.3037 22.735 35.3361 22.6169C35.3684 22.4988 35.4242 22.2854 35.4599 22.1425C35.4957 21.9997 35.5454 21.7922 35.5704 21.6815C35.5954 21.5707 35.6361 21.3774 35.661 21.252C35.6859 21.1266 35.7261 20.907 35.7504 20.7642C35.7748 20.6214 35.8081 20.4056 35.8248 20.2848C35.8414 20.1639 35.8639 19.9886 35.875 19.8952C35.8861 19.8018 35.9019 19.658 35.9101 19.5756C35.9183 19.4932 35.9322 19.3336 35.9408 19.221C35.9542 19.0465 35.956 18.8449 35.9529 17.8527C35.9497 16.8442 35.947 16.6671 35.9322 16.5243C35.9228 16.4336 35.9082 16.2942 35.8999 16.2146C35.8914 16.1349 35.8755 16.0001 35.8646 15.915C35.8536 15.8298 35.8335 15.6838 35.8199 15.5904C35.8061 15.497 35.7836 15.3534 35.7697 15.2713C35.7559 15.1891 35.7243 15.0183 35.6994 14.8917C35.6745 14.7651 35.6364 14.5828 35.6145 14.4867C35.5927 14.3905 35.5499 14.2131 35.5193 14.0922C35.4887 13.9713 35.4354 13.7736 35.4008 13.6527C35.3661 13.5319 35.3009 13.3206 35.2559 13.1833C35.2109 13.0459 35.145 12.8527 35.1094 12.7538C35.0739 12.6549 35.0314 12.5459 35.0151 12.5116C34.9988 12.4773 34.9594 12.4163 34.9275 12.3761C34.8956 12.336 34.8407 12.2816 34.8057 12.2552C34.7706 12.2288 34.7173 12.1948 34.687 12.1795C34.6568 12.1643 34.6073 12.1443 34.577 12.1352C34.5469 12.1263 34.4884 12.1145 34.4472 12.1091C34.3965 12.1025 34.3468 12.1029 34.2935 12.1101C34.2501 12.116 34.1862 12.1312 34.1513 12.1439C34.1164 12.1565 34.0623 12.1821 34.0312 12.2006C34 12.2192 33.9441 12.2658 33.907 12.3043C33.8698 12.3427 33.417 12.7989 32.9009 13.318C32.226 13.9967 31.9506 14.28 31.9209 14.3264C31.8981 14.3619 31.8708 14.4203 31.8601 14.4563C31.8493 14.4922 31.8361 14.562 31.8306 14.6115C31.8251 14.6609 31.8205 14.756 31.8205 14.8227L31.8203 14.9441L31.8606 15.0315C31.8827 15.0796 31.9226 15.1778 31.9495 15.2497C31.9763 15.3217 32.0187 15.4502 32.0438 15.5354C32.0689 15.6205 32.101 15.7396 32.1153 15.8001C32.1297 15.8605 32.1543 15.9729 32.1701 16.0498C32.1859 16.1267 32.2102 16.257 32.224 16.3394C32.2378 16.4218 32.2582 16.5589 32.2694 16.6441C32.2805 16.7292 32.2984 16.8865 32.3091 16.9936C32.3198 17.1007 32.3344 17.276 32.3416 17.3832C32.3497 17.5028 32.3545 17.7628 32.3542 18.0574C32.3539 18.321 32.3482 18.6289 32.3414 18.7415C32.3346 18.8541 32.3224 19.0294 32.3143 19.1311C32.3062 19.2326 32.2903 19.4034 32.2791 19.5106C32.2678 19.6177 32.2476 19.7885 32.2339 19.8901C32.2203 19.9917 32.1937 20.1693 32.1749 20.2847C32.1562 20.4 32.1253 20.5753 32.1062 20.6742C32.0872 20.7731 32.0553 20.9304 32.0352 21.0238C32.0151 21.1172 31.9741 21.2925 31.9439 21.4133C31.9137 21.5342 31.871 21.6982 31.8489 21.7779C31.8269 21.8575 31.7801 22.0171 31.7451 22.1325C31.71 22.2478 31.6501 22.4343 31.6119 22.547C31.5738 22.6595 31.5134 22.8303 31.4778 22.9265C31.4422 23.0226 31.3815 23.1799 31.343 23.2761C31.3045 23.3722 31.2349 23.5386 31.1882 23.6457C31.1416 23.7527 31.0668 23.919 31.0219 24.0152C30.9771 24.1113 30.8783 24.3114 30.8024 24.4597C30.7266 24.608 30.6205 24.808 30.5668 24.9041C30.513 25.0002 30.4195 25.162 30.3588 25.2637C30.2982 25.3653 30.2017 25.5226 30.1444 25.6133C30.0872 25.7039 29.9838 25.8612 29.9149 25.9629C29.8459 26.0644 29.7246 26.2375 29.6452 26.3474C29.5658 26.4573 29.4342 26.6325 29.3529 26.7369C29.2715 26.8413 29.1357 27.0098 29.0511 27.1115C28.9664 27.2131 28.8352 27.3659 28.7596 27.4511C28.6839 27.5362 28.5264 27.707 28.4098 27.8306C28.2931 27.9542 28.1059 28.1431 27.9939 28.2505C27.8819 28.3579 27.7386 28.4928 27.6753 28.5504C27.6122 28.6079 27.5088 28.7001 27.4456 28.7552C27.3825 28.8104 27.2633 28.9118 27.1809 28.9806C27.0985 29.0494 26.9682 29.155 26.8913 29.2153C26.8144 29.2756 26.6885 29.3723 26.6116 29.4301C26.5347 29.4879 26.4156 29.5755 26.3469 29.6249C26.2783 29.6742 26.139 29.7709 26.0373 29.8398C25.9356 29.9088 25.7851 30.0079 25.7027 30.0602C25.6203 30.1124 25.463 30.2091 25.3531 30.2751C25.2433 30.341 25.059 30.4474 24.9436 30.5115C24.8283 30.5755 24.6058 30.6925 24.4492 30.7713C24.2926 30.8502 24.0815 30.9529 23.9798 30.9994C23.8781 31.0461 23.7208 31.1159 23.6302 31.1546C23.5396 31.1932 23.3958 31.2526 23.3106 31.2866C23.2255 31.3207 23.0839 31.3754 22.996 31.4083C22.9081 31.4413 22.7238 31.5062 22.5865 31.5526C22.4491 31.5989 22.2492 31.6633 22.142 31.6958C22.0349 31.7282 21.8821 31.7726 21.8024 31.7946C21.7228 31.8165 21.5767 31.8547 21.4778 31.8795C21.3789 31.9043 21.2171 31.9426 21.1182 31.9645C21.0194 31.9865 20.8329 32.0248 20.7037 32.0498C20.5746 32.0747 20.3855 32.1086 20.2833 32.125C20.1813 32.1415 19.997 32.1682 19.8738 32.1845C19.7508 32.2008 19.5579 32.2233 19.4452 32.2345C19.3327 32.2457 19.1506 32.2615 19.0407 32.2697C18.9309 32.278 18.7219 32.2899 18.5763 32.2963C18.41 32.3036 18.1259 32.3057 17.8122 32.3023C17.5375 32.2991 17.2409 32.2918 17.153 32.2859C17.0651 32.2801 16.9056 32.2683 16.7984 32.2598C16.6913 32.2513 16.5026 32.2332 16.3789 32.2195C16.2554 32.2058 16.0711 32.1834 15.9694 32.1697C15.8678 32.156 15.6767 32.1268 15.5449 32.1048C15.4131 32.0828 15.2131 32.0467 15.1005 32.0245C14.9879 32.0023 14.815 31.9664 14.7163 31.9445C14.6176 31.9226 14.442 31.8807 14.3261 31.8511C14.2101 31.8215 14.0504 31.7787 13.9711 31.7559C13.8918 31.7331 13.7394 31.6874 13.6322 31.6543C13.5251 31.6212 13.3431 31.5611 13.2277 31.521C13.1123 31.4807 12.9618 31.427 12.8931 31.4014C12.8245 31.3759 12.6739 31.3166 12.5585 31.27C12.4431 31.2233 12.2828 31.1561 12.2023 31.1209C12.1217 31.0857 11.9644 31.0139 11.8527 30.9614C11.741 30.9089 11.5462 30.8129 11.4198 30.7481C11.2935 30.6833 11.0927 30.5756 10.9737 30.509C10.8546 30.4424 10.695 30.3504 10.6191 30.3046C10.5431 30.2587 10.4248 30.1861 10.3561 30.1431C10.2875 30.1003 10.1392 30.0036 10.0265 29.9285C9.91396 29.8534 9.75665 29.7453 9.67694 29.6883C9.59733 29.6314 9.4602 29.5309 9.3723 29.465C9.28441 29.3991 9.12709 29.277 9.02272 29.1936C8.91834 29.1103 8.75105 28.9717 8.65097 28.8857C8.55089 28.7996 8.39139 28.6586 8.29641 28.5724C8.20152 28.4861 7.99337 28.2851 7.83385 28.1257C7.67444 27.9662 7.4596 27.7418 7.35643 27.6272C7.25326 27.5125 7.10025 27.3372 7.01633 27.2376C6.93254 27.1381 6.81208 26.9913 6.74885 26.9117C6.68563 26.832 6.57326 26.686 6.49915 26.5871C6.42504 26.4883 6.32156 26.3466 6.26923 26.2725C6.21689 26.1983 6.1272 26.068 6.06997 25.9829C6.01274 25.8977 5.91615 25.7493 5.85543 25.6532C5.7947 25.5571 5.70221 25.4065 5.64988 25.3186C5.59764 25.2308 5.51085 25.0801 5.45711 24.9841C5.40328 24.8879 5.29281 24.6789 5.21161 24.5196C5.13031 24.3603 5.02364 24.1422 4.97451 24.0352C4.92537 23.9281 4.85715 23.7752 4.82299 23.6956C4.78872 23.616 4.7296 23.4729 4.69145 23.3777C4.65339 23.2826 4.59496 23.132 4.5617 23.0432C4.52835 22.9543 4.45913 22.7557 4.40779 22.6019C4.35645 22.448 4.28524 22.221 4.24948 22.0975C4.21372 21.9738 4.15969 21.7761 4.12942 21.658C4.09916 21.5398 4.05661 21.3623 4.03474 21.2635C4.01297 21.1646 3.97491 20.9803 3.95014 20.8539C3.92548 20.7276 3.88941 20.5275 3.87003 20.4095C3.85066 20.2913 3.82339 20.1115 3.80941 20.01C3.79542 19.9083 3.77295 19.724 3.75957 19.6005C3.74608 19.4768 3.72812 19.288 3.71962 19.181C3.71113 19.0738 3.69932 18.9143 3.69344 18.8264C3.68756 18.7385 3.68027 18.4374 3.67717 18.1572C3.67365 17.8358 3.67576 17.5538 3.68316 17.3931C3.68957 17.253 3.70373 17.0216 3.71472 16.8788C3.72571 16.7359 3.74378 16.5359 3.75487 16.4343C3.76597 16.3326 3.78622 16.1663 3.79981 16.0648C3.81348 15.9631 3.84017 15.7843 3.85925 15.6673C3.87823 15.5504 3.91208 15.3616 3.93445 15.2478C3.95693 15.1341 3.99309 14.9601 4.01506 14.8612C4.03693 14.7623 4.07279 14.6095 4.09466 14.5216C4.11664 14.4337 4.1505 14.3033 4.16987 14.2319C4.18924 14.1605 4.23599 13.9987 4.27374 13.8724C4.3115 13.746 4.38032 13.5303 4.42677 13.3929C4.47311 13.2556 4.53813 13.0713 4.57109 12.9834C4.60406 12.8955 4.65879 12.7539 4.69285 12.6688C4.7268 12.5836 4.78623 12.4398 4.82488 12.3492C4.86354 12.2586 4.93335 12.1013 4.97999 11.9996C5.02654 11.8979 5.12922 11.6868 5.20812 11.5302C5.28693 11.3736 5.4039 11.1511 5.46792 11.0358C5.53205 10.9204 5.64651 10.7226 5.72242 10.5963C5.79833 10.4699 5.91797 10.2779 5.9883 10.1696C6.05871 10.0612 6.17019 9.89492 6.2361 9.80013C6.30202 9.70534 6.43496 9.52207 6.53144 9.39291C6.62793 9.26367 6.76467 9.08608 6.83518 8.99819C6.9058 8.9103 7.02355 8.76776 7.09697 8.68146C7.17038 8.59517 7.29393 8.45413 7.37153 8.36804C7.44914 8.28184 7.60156 8.11824 7.71023 8.00451C7.8189 7.89064 8.01256 7.69846 8.14059 7.57741C8.26874 7.45646 8.44143 7.29717 8.52453 7.22342C8.60753 7.14971 8.75355 7.02406 8.84914 6.94435C8.94462 6.86455 9.07667 6.75657 9.14258 6.70424C9.2085 6.652 9.35233 6.54183 9.4622 6.45964C9.57207 6.37734 9.74856 6.2497 9.85441 6.17589C9.96018 6.10207 10.1355 5.98412 10.2439 5.9137C10.3523 5.84328 10.5602 5.71453 10.7057 5.62744C10.8513 5.54044 11.0581 5.42139 11.1652 5.36295C11.2722 5.30442 11.4656 5.20345 11.5946 5.13833C11.7238 5.07331 11.899 4.98771 11.9842 4.94806C12.0694 4.90841 12.2267 4.83779 12.3338 4.79115C12.4408 4.7445 12.6162 4.67139 12.7233 4.62854C12.8304 4.58579 13.0169 4.51478 13.1378 4.47073C13.2587 4.42678 13.4564 4.35856 13.5773 4.31911C13.6981 4.27976 13.9119 4.21434 14.0523 4.17379C14.1927 4.13333 14.4085 4.07481 14.5317 4.04395C14.655 4.01298 14.8571 3.96584 14.9806 3.93927C15.1043 3.91271 15.293 3.87484 15.4001 3.85517C15.5073 3.83548 15.6803 3.80613 15.7846 3.78995C15.889 3.77378 16.0621 3.7492 16.1692 3.73551C16.2764 3.72174 16.4561 3.70134 16.5687 3.69016C16.6814 3.67896 16.8656 3.66318 16.9782 3.65501C17.0909 3.64691 17.3201 3.63494 17.4876 3.62853C17.667 3.62173 17.9319 3.61944 18.1318 3.62292C18.3186 3.62645 18.5478 3.63381 18.6412 3.63962C18.7346 3.6455 18.9212 3.6592 19.0558 3.67019C19.1904 3.68107 19.4241 3.70366 19.5751 3.72034C19.7263 3.73693 19.951 3.76398 20.0745 3.78036C20.1982 3.79674 20.4364 3.8304 20.6039 3.85527C20.7715 3.88014 21.0174 3.9182 21.1504 3.93987C21.2881 3.96224 21.4258 3.97912 21.4701 3.97892C21.5128 3.97882 21.5919 3.97441 21.6459 3.96913C21.7 3.96395 21.7832 3.95036 21.8307 3.93909C21.8784 3.92781 21.9503 3.90223 21.9905 3.88235L22.0637 3.8462L23.0143 2.89403C23.7371 2.17001 23.9739 1.9269 24.0026 1.87956C24.0234 1.84528 24.0514 1.78218 24.0649 1.73933C24.0785 1.69648 24.0941 1.62147 24.0996 1.57263C24.1063 1.5139 24.1064 1.45227 24.0999 1.39065C24.0945 1.33941 24.0837 1.27249 24.0756 1.24183C24.0676 1.21125 24.0493 1.15514 24.035 1.11698C24.0134 1.07904 23.9847 1.01861 23.9631 0.982948C23.9416 0.947199 23.9021 0.892753 23.8751 0.861802C23.8464 0.830946 23.8033 0.791887 23.7763 0.775001C23.744 0.754113 23.6613 0.725363 23.5194 0.684405C23.4027 0.651436 23.2176 0.599903 23.1045 0.569741C22.9913 0.53959 22.8188 0.494738 22.72 0.469965C22.6212 0.445203 22.4434 0.40244 22.3248 0.374973C22.2063 0.347604 21.9907 0.300371 21.8452 0.270209C21.6997 0.240058 21.4679 0.194701 21.3314 0.16953C21.1931 0.144345 20.9506 0.102504 20.7925 0.0765372L20.5028 0.0294011L18.137 0.0277026ZM31.0658 0.0241876H30.5615L27.8648 2.90058L25.1678 5.77698L25.4884 6.65852C25.6648 7.14334 25.8265 7.58843 25.8478 7.64753L25.8864 7.75499L24.4486 9.10329L23.0107 10.4516L22.9432 10.4097C22.9059 10.3868 22.7902 10.319 22.6858 10.2592C22.5814 10.1994 22.3792 10.0926 22.2363 10.0221C22.0935 9.95149 21.9182 9.86809 21.8468 9.83682C21.7754 9.80554 21.6383 9.74852 21.5422 9.71017C21.4461 9.67181 21.2955 9.61448 21.2076 9.58282C21.1197 9.55116 20.9758 9.50252 20.8879 9.47476C20.8 9.447 20.6652 9.40623 20.5883 9.38416C20.5114 9.36218 20.3766 9.32614 20.2887 9.30416C20.2008 9.28208 20.068 9.25052 19.9936 9.23405C19.9192 9.21746 19.7709 9.1883 19.664 9.16912C19.5571 9.14996 19.409 9.12518 19.3348 9.11419C19.2607 9.1031 19.1191 9.08482 19.0202 9.07374C18.9213 9.06257 18.7505 9.04647 18.6407 9.03807C18.5308 9.02969 18.3039 9.02011 18.1363 9.0168C17.9562 9.01321 17.7296 9.01539 17.5819 9.02229C17.4446 9.0286 17.2558 9.04058 17.1624 9.04886C17.069 9.05713 16.9027 9.07514 16.7928 9.08881C16.683 9.10258 16.5256 9.12516 16.4432 9.13904C16.3608 9.15281 16.2148 9.18 16.1186 9.19938C16.0225 9.21865 15.8629 9.25461 15.7641 9.27918C15.6652 9.30373 15.5125 9.3441 15.4247 9.36897C15.3369 9.39373 15.1728 9.44487 15.0601 9.48253C14.9473 9.52018 14.7833 9.57852 14.6953 9.61218C14.6074 9.64575 14.4561 9.70706 14.3591 9.74841C14.2621 9.78967 14.0711 9.87866 13.9347 9.94618C13.7982 10.0136 13.6146 10.1093 13.5268 10.1587C13.4389 10.2083 13.3036 10.2875 13.2261 10.3349C13.1487 10.3824 13.0076 10.4733 12.9125 10.5371C12.8174 10.6008 12.6695 10.7051 12.5838 10.7687C12.4982 10.8323 12.3719 10.9297 12.3032 10.985C12.2346 11.0404 12.111 11.1438 12.0286 11.215C11.9462 11.2861 11.7548 11.4682 11.6033 11.6196C11.4518 11.771 11.2748 11.9555 11.21 12.0297C11.1453 12.1039 11.0396 12.2296 10.9753 12.3093C10.9109 12.3889 10.805 12.5258 10.74 12.6134C10.675 12.701 10.5709 12.8486 10.5087 12.9415C10.4466 13.0344 10.3568 13.1739 10.3091 13.2517C10.2616 13.3294 10.1822 13.465 10.1326 13.5529C10.0832 13.6407 9.98751 13.8243 9.92008 13.9607C9.85256 14.0972 9.76357 14.2882 9.72232 14.3852C9.68097 14.4822 9.61964 14.6335 9.58608 14.7214C9.55241 14.8093 9.4942 14.9733 9.45664 15.086C9.41908 15.1986 9.36964 15.3558 9.34667 15.4353C9.32381 15.5148 9.28334 15.6676 9.25667 15.7749C9.23012 15.8821 9.19255 16.0485 9.17328 16.1447C9.1539 16.2408 9.12683 16.3869 9.11295 16.4693C9.09907 16.5517 9.07669 16.7067 9.06311 16.8139C9.04951 16.921 9.03144 17.0896 9.02286 17.1885C9.01427 17.2874 9.00278 17.4648 8.99729 17.583C8.99179 17.7011 8.98732 17.8898 8.98732 18.0025C8.98732 18.1151 8.99183 18.3038 8.99729 18.422C9.00278 18.5401 9.01427 18.7177 9.02286 18.8166C9.03145 18.9155 9.04952 19.0839 9.06311 19.1911C9.07671 19.2982 9.09907 19.4533 9.11295 19.5357C9.12683 19.6181 9.1539 19.7642 9.17328 19.8603C9.19254 19.9564 9.23011 20.1229 9.25667 20.2302C9.28334 20.3375 9.32379 20.4903 9.34667 20.5698C9.36963 20.6493 9.41908 20.8064 9.45664 20.9191C9.4942 21.0316 9.55242 21.1957 9.58608 21.2836C9.61965 21.3715 9.68097 21.5228 9.72232 21.6198C9.76357 21.7168 9.85256 21.9079 9.92008 22.0443C9.9875 22.1807 10.0832 22.3643 10.1326 22.4522C10.1822 22.5401 10.2616 22.6756 10.3091 22.7533C10.3568 22.8311 10.4466 22.9707 10.5087 23.0635C10.5709 23.1564 10.675 23.304 10.74 23.3916C10.805 23.4792 10.9109 23.6161 10.9753 23.6957C11.0396 23.7753 11.1453 23.9012 11.21 23.9754C11.2748 24.0495 11.4517 24.234 11.6033 24.3855C11.7548 24.5369 11.9462 24.719 12.0286 24.7901C12.111 24.8612 12.2346 24.9647 12.3032 25.02C12.372 25.0753 12.499 25.1733 12.5858 25.2377C12.6725 25.3022 12.8298 25.4124 12.9354 25.4828C13.0408 25.5533 13.1947 25.6513 13.2771 25.7007C13.3595 25.7501 13.4853 25.8233 13.5567 25.8633C13.6281 25.9033 13.7982 25.9913 13.9347 26.0588C14.0711 26.1263 14.2622 26.2154 14.3592 26.2566C14.4561 26.298 14.6075 26.3592 14.6954 26.3928C14.7832 26.4264 14.9406 26.4824 15.0449 26.5175C15.1493 26.5524 15.3066 26.6019 15.3945 26.6273C15.4824 26.6526 15.642 26.6953 15.7491 26.722C15.8563 26.7488 16.0337 26.7887 16.1436 26.8105C16.2535 26.8325 16.4176 26.8619 16.5082 26.8759C16.5989 26.8898 16.7247 26.9078 16.7878 26.9159C16.8511 26.9239 16.9724 26.9375 17.0575 26.946C17.1427 26.9545 17.2776 26.9661 17.3572 26.9717C17.4369 26.9774 17.6391 26.9847 17.8066 26.9882C17.9919 26.9921 18.2129 26.9899 18.3709 26.9827C18.5138 26.9761 18.725 26.962 18.8404 26.9513C18.9557 26.9406 19.1198 26.9225 19.2049 26.9113C19.2901 26.9 19.4519 26.8751 19.5645 26.8561C19.6772 26.8371 19.8614 26.8012 19.974 26.7762C20.0867 26.7514 20.2305 26.7174 20.2936 26.7008C20.3568 26.6842 20.4714 26.6526 20.5483 26.6306C20.6252 26.6087 20.7579 26.5681 20.843 26.5404C20.9282 26.5127 21.0877 26.4563 21.1975 26.4151C21.3074 26.3738 21.4715 26.3087 21.5621 26.2704C21.6527 26.2322 21.8077 26.162 21.9065 26.1144C22.0053 26.0669 22.1513 25.9937 22.2311 25.9519C22.3109 25.9101 22.4367 25.8409 22.5109 25.7984C22.5852 25.7557 22.7177 25.6759 22.8056 25.621C22.8935 25.5662 23.0373 25.4717 23.1252 25.4111C23.2131 25.3504 23.3389 25.2602 23.4049 25.2106C23.4708 25.1611 23.5906 25.0674 23.671 25.0025C23.7513 24.9375 23.8749 24.8342 23.9456 24.7727C24.0162 24.7113 24.2002 24.5348 24.3544 24.3806C24.5086 24.2264 24.6941 24.0315 24.7665 23.9475C24.8391 23.8635 24.9494 23.7309 25.0118 23.6529C25.0744 23.5748 25.1775 23.4399 25.2414 23.353C25.3051 23.2662 25.4084 23.1179 25.4709 23.0234C25.5333 22.929 25.625 22.7843 25.6744 22.7019C25.7239 22.6195 25.7972 22.4936 25.8372 22.4222C25.8772 22.3508 25.9652 22.1807 26.0327 22.0443C26.1001 21.9078 26.1892 21.7168 26.2305 21.6198C26.2718 21.5228 26.3332 21.3715 26.3667 21.2836C26.4004 21.1957 26.4586 21.0316 26.4962 20.919C26.5337 20.8064 26.5826 20.6514 26.6046 20.5745C26.6268 20.4975 26.6651 20.3537 26.6896 20.2548C26.7142 20.156 26.7459 20.0211 26.7599 19.9552C26.7741 19.8893 26.7966 19.7767 26.8101 19.7051C26.8235 19.6335 26.8458 19.4986 26.8597 19.4055C26.8736 19.3123 26.8918 19.1776 26.9001 19.1062C26.9085 19.0348 26.9218 18.9045 26.9298 18.8166C26.9379 18.7287 26.9498 18.5399 26.9564 18.397C26.9636 18.2404 26.9659 18.0184 26.9622 17.8377C26.9587 17.6729 26.9492 17.4482 26.9408 17.3383C26.9323 17.2285 26.9163 17.0577 26.9052 16.9588C26.894 16.8599 26.874 16.7071 26.8607 16.6192C26.8474 16.5313 26.825 16.3965 26.8109 16.3196C26.7968 16.2427 26.7715 16.1151 26.7549 16.0362C26.7381 15.9572 26.7066 15.8203 26.6847 15.7318C26.663 15.6434 26.6294 15.5147 26.6101 15.4459C26.5909 15.3771 26.5501 15.2399 26.5195 15.141C26.489 15.0421 26.4347 14.8803 26.3991 14.7814C26.3634 14.6825 26.3037 14.5252 26.2663 14.4318C26.2291 14.3384 26.1727 14.2036 26.1413 14.1322C26.1098 14.0608 26.0405 13.9124 25.9874 13.8026C25.9341 13.6927 25.8486 13.5264 25.7974 13.433C25.7462 13.3396 25.6644 13.1964 25.6157 13.1148L25.5271 12.9664L26.9638 11.5285L28.4005 10.0908L29.3002 10.4505L30.1998 10.8104L33.0149 7.99398C35.2001 5.80776 35.8385 5.16377 35.8676 5.11545C35.8884 5.08128 35.9151 5.02406 35.9268 4.9883C35.9433 4.93806 35.9491 4.89092 35.9524 4.78165C35.9559 4.66189 35.9535 4.62753 35.9358 4.55781C35.9243 4.51256 35.8973 4.43915 35.8757 4.3947C35.8542 4.35025 35.8141 4.28424 35.7865 4.24788C35.759 4.21163 35.7125 4.16079 35.6833 4.13492C35.6541 4.10906 35.601 4.07049 35.5652 4.04912C35.5296 4.02784 35.4756 4.00138 35.4453 3.99039C35.4152 3.9794 34.8713 3.811 34.2368 3.61635C33.6023 3.42158 33.0635 3.25939 33.0394 3.25587C33.0154 3.25234 32.9704 3.2373 32.9395 3.2224C32.9063 3.20631 32.8549 3.16678 32.813 3.12532C32.7743 3.08687 32.7219 3.02595 32.6966 2.98999C32.6713 2.95403 32.6257 2.87991 32.5953 2.82518L32.5398 2.7258L32.1747 1.53835C31.9738 0.885337 31.7962 0.323307 31.7801 0.289633C31.7641 0.255854 31.7288 0.199133 31.7019 0.163575C31.6749 0.128017 31.6343 0.0820836 31.6114 0.0615095L31.5699 0.0240479L31.0658 0.0241876ZM18.0563 12.6145C18.2317 12.617 18.4378 12.6252 18.522 12.6337C18.6051 12.642 18.7242 12.6559 18.7867 12.6645C18.8491 12.6731 18.9784 12.6959 19.0739 12.715C19.1694 12.7341 19.3312 12.7741 19.4334 12.8037C19.5357 12.8333 19.6638 12.8737 19.7181 12.8934C19.7723 12.9131 19.8757 12.9534 19.9478 12.9827C20.0198 13.0122 20.128 13.0594 20.1881 13.0876C20.2483 13.1159 20.2997 13.1413 20.3025 13.1441C20.3053 13.1469 19.4849 13.9726 18.4793 14.9791C17.4738 15.9856 16.6238 16.8432 16.5902 16.885C16.5566 16.9268 16.5038 16.9987 16.4727 17.0449C16.4418 17.0909 16.3899 17.1826 16.3576 17.2485C16.3252 17.3144 16.2834 17.4155 16.2647 17.4733C16.2459 17.5309 16.2234 17.6141 16.2147 17.658C16.2058 17.702 16.1942 17.7784 16.1887 17.8278C16.1832 17.8773 16.1787 17.9559 16.1787 18.0026C16.1787 18.0493 16.1832 18.128 16.1887 18.1774C16.1942 18.2268 16.2059 18.3033 16.2147 18.3472C16.2235 18.3911 16.2459 18.4743 16.2647 18.532C16.2834 18.5896 16.3252 18.6908 16.3576 18.7567C16.3899 18.8226 16.4418 18.9143 16.4727 18.9604C16.5038 19.0065 16.5553 19.0762 16.5873 19.1152C16.6194 19.1542 16.6921 19.2312 16.7491 19.2863C16.806 19.3412 16.8864 19.4112 16.9276 19.4417C16.9688 19.4723 17.0363 19.518 17.0774 19.5434C17.1187 19.5688 17.1951 19.6098 17.2472 19.6346C17.2994 19.6592 17.3825 19.6929 17.432 19.7095C17.4814 19.726 17.5623 19.7484 17.6118 19.7593C17.6612 19.7702 17.7453 19.7839 17.7987 19.7898C17.852 19.7957 17.9329 19.8005 17.9784 19.8004C18.024 19.8004 18.1017 19.7957 18.1511 19.7902C18.2006 19.7847 18.277 19.7731 18.3209 19.7643C18.3649 19.7555 18.448 19.7329 18.5056 19.7141C18.5631 19.6953 18.6553 19.6583 18.7104 19.632C18.7653 19.6057 18.8508 19.5589 18.9002 19.5282C18.9497 19.4973 19.0261 19.4432 19.07 19.4077C19.114 19.3722 19.9753 18.518 20.9841 17.5093C21.9929 16.5007 22.8227 15.6753 22.8281 15.6753C22.8335 15.6753 22.8674 15.7393 22.9032 15.8176C22.9392 15.8959 22.9873 16.0071 23.0103 16.0648C23.0334 16.1225 23.0677 16.2124 23.0867 16.2646C23.1058 16.3167 23.1455 16.4432 23.1752 16.5455C23.2047 16.6477 23.2447 16.8096 23.264 16.905C23.2831 17.0005 23.3079 17.1482 23.3191 17.2334C23.3302 17.3185 23.3449 17.4467 23.3518 17.5181C23.3593 17.5962 23.3641 17.7912 23.3637 18.0075C23.3634 18.2703 23.3586 18.4114 23.3463 18.5319C23.337 18.6224 23.3203 18.7596 23.3091 18.8365C23.2979 18.9134 23.2775 19.0348 23.2638 19.1062C23.25 19.1776 23.2182 19.3169 23.1932 19.4158C23.1681 19.5147 23.1216 19.6745 23.0899 19.7709C23.0581 19.8674 23.0043 20.0157 22.9701 20.1005C22.9361 20.1854 22.8663 20.3402 22.8152 20.4446C22.7642 20.549 22.6899 20.6905 22.6501 20.7592C22.6105 20.8278 22.5398 20.9425 22.4933 21.0139C22.4468 21.0853 22.358 21.2112 22.296 21.2936C22.2341 21.376 22.1371 21.4973 22.0805 21.5632C22.024 21.6292 21.9032 21.7575 21.8122 21.8483C21.7212 21.9392 21.5951 22.0577 21.532 22.1118C21.4688 22.1658 21.3497 22.2606 21.2673 22.3224C21.1849 22.3842 21.0589 22.4731 20.9875 22.5198C20.916 22.5665 20.8014 22.6371 20.7328 22.6767C20.6642 22.7163 20.5227 22.7905 20.4183 22.8416C20.3139 22.8926 20.1591 22.9623 20.0742 22.9964C19.9894 23.0306 19.8411 23.0844 19.7446 23.1162C19.6482 23.1479 19.4884 23.1944 19.3895 23.2194C19.2907 23.2445 19.1513 23.2763 19.0799 23.29C19.0085 23.3037 18.8871 23.3242 18.8102 23.3354C18.7333 23.3466 18.5985 23.3627 18.5106 23.3711C18.4227 23.3796 18.2407 23.3892 18.1061 23.3926C17.962 23.3962 17.7814 23.394 17.6666 23.3871C17.5595 23.3809 17.3932 23.3665 17.297 23.3553C17.2009 23.344 17.0375 23.3193 16.9341 23.3005C16.8306 23.2815 16.6913 23.2523 16.6245 23.2355C16.5576 23.2188 16.4559 23.1914 16.3981 23.1747C16.3405 23.158 16.2393 23.1266 16.1734 23.1048C16.1075 23.0829 15.9794 23.0358 15.8887 22.9999C15.7981 22.9641 15.6295 22.8882 15.5142 22.8313C15.3988 22.7744 15.2348 22.6858 15.1496 22.6344C15.0645 22.5831 14.9588 22.517 14.9149 22.4875C14.8709 22.458 14.7676 22.3833 14.6852 22.3215C14.6028 22.2598 14.4814 22.163 14.4155 22.1065C14.3496 22.0499 14.2234 21.9315 14.1352 21.8434C14.047 21.7552 13.9286 21.6292 13.872 21.5632C13.8153 21.4973 13.7183 21.376 13.6564 21.2936C13.5945 21.2112 13.5056 21.0852 13.459 21.0138C13.4122 20.9423 13.3416 20.8277 13.302 20.7591C13.2624 20.6905 13.1882 20.549 13.1371 20.4446C13.0861 20.3402 13.0164 20.1854 12.9823 20.1005C12.9482 20.0157 12.8943 19.8674 12.8626 19.7709C12.8308 19.6745 12.7844 19.5147 12.7593 19.4158C12.7342 19.3169 12.7026 19.1776 12.6889 19.1062C12.6752 19.0348 12.6549 18.9156 12.6437 18.8415C12.6326 18.7673 12.6157 18.6279 12.6061 18.5319C12.593 18.4013 12.5885 18.2673 12.5885 18.0025C12.5885 17.7377 12.593 17.6037 12.6061 17.4731C12.6157 17.3769 12.6326 17.2376 12.6437 17.1635C12.6549 17.0893 12.6752 16.9702 12.6889 16.8988C12.7025 16.8274 12.7341 16.688 12.7591 16.5892C12.7841 16.4903 12.8306 16.3304 12.8626 16.2337C12.8944 16.1371 12.9484 15.9888 12.9824 15.9041C13.0165 15.8195 13.0861 15.6648 13.1371 15.5604C13.1882 15.456 13.2624 15.3145 13.302 15.2459C13.3416 15.1773 13.4122 15.0627 13.459 14.9912C13.5056 14.9198 13.5945 14.7938 13.6563 14.7114C13.7182 14.629 13.813 14.5099 13.8671 14.4467C13.9212 14.3836 14.042 14.2553 14.1356 14.1616C14.2291 14.068 14.3664 13.9401 14.4405 13.8776C14.5147 13.8151 14.6293 13.7236 14.6952 13.6744C14.7611 13.6252 14.86 13.5549 14.9149 13.5181C14.9699 13.4814 15.0732 13.4161 15.1446 13.3728C15.2161 13.3297 15.3644 13.2489 15.4743 13.1933C15.5841 13.1377 15.7527 13.0603 15.8488 13.0212C15.945 12.9821 16.091 12.9275 16.1734 12.8999C16.2558 12.8723 16.3892 12.8318 16.4697 12.8099C16.5502 12.788 16.667 12.7588 16.7294 12.7448C16.7917 12.7309 16.9213 12.7061 17.0174 12.6897C17.1136 12.6734 17.2575 12.6529 17.3374 12.6442C17.4172 12.6354 17.5409 12.6243 17.6121 12.6193C17.6833 12.6144 17.8833 12.6123 18.0563 12.6145Z" fill="#7DB834"/>
</svg>
