<svg width="407" height="368" viewBox="0 0 407 368" fill="none" xmlns="http://www.w3.org/2000/svg">
<g opacity="0.45">
<path d="M601.079 225.066C600.961 225.066 600.853 225.034 600.745 224.982L468.811 151.151C466.383 149.791 465.045 147.94 465.045 145.952C465.045 143.954 466.383 142.113 468.811 140.753L554.727 92.676C556.724 91.5567 557.825 90.1131 557.825 88.6068C557.825 87.1005 556.724 85.6569 554.727 84.5376L409.25 3.1225C404.868 0.674709 397.735 0.674709 393.353 3.1225L344.562 30.4248C342.565 31.544 341.465 32.9876 341.465 34.4939C341.465 36.0003 342.565 37.4438 344.562 38.5631L417.096 79.1504C419.524 80.5103 420.862 82.3618 420.862 84.3493C420.862 86.3473 419.524 88.1884 417.096 89.5483L308.646 150.241C303.886 152.898 296.159 152.908 291.4 150.241L219.384 109.947C219.06 109.769 218.953 109.361 219.136 109.057C219.319 108.744 219.74 108.639 220.053 108.817L292.069 149.111C296.451 151.559 303.584 151.559 307.966 149.111L416.416 88.4185C418.412 87.2992 419.513 85.8557 419.513 84.3493C419.513 82.843 418.412 81.3994 416.416 80.2802L343.882 39.6929C341.454 38.333 340.116 36.4815 340.116 34.4939C340.116 32.496 341.454 30.6549 343.882 29.295L392.673 1.99275C397.422 -0.66425 405.17 -0.66425 409.919 1.99275L555.396 83.4079C557.825 84.7678 559.163 86.6193 559.163 88.6173C559.163 90.6153 557.825 92.4563 555.396 93.8162L469.48 141.893C467.484 143.013 466.383 144.456 466.383 145.962C466.383 147.469 467.484 148.912 469.48 150.032L601.414 223.863C601.738 224.041 601.846 224.449 601.662 224.762C601.543 224.951 601.317 225.066 601.079 225.066Z" fill="url(#paint0_linear_94_12484)"/>
<path d="M264.712 368C261.194 368 257.675 367.247 254.999 365.751L79.5517 267.567C76.8321 266.04 75.332 263.979 75.332 261.751C75.332 259.523 76.8321 257.463 79.5517 255.935L139.394 222.451C144.747 219.449 153.467 219.449 158.82 222.451L202.085 246.667C202.409 246.845 202.517 247.253 202.334 247.567C202.15 247.881 201.729 247.985 201.416 247.807L158.151 223.591C153.165 220.798 145.06 220.808 140.074 223.591L80.2316 257.075C77.9437 258.352 76.681 260.015 76.681 261.751C76.681 263.488 77.9437 265.151 80.2316 266.427L255.679 364.611C260.665 367.404 268.77 367.404 273.756 364.611L500.789 237.556C501.113 237.378 501.523 237.483 501.717 237.797C501.901 238.11 501.793 238.508 501.469 238.696L274.425 365.751C271.748 367.247 268.23 368 264.712 368Z" fill="url(#paint1_linear_94_12484)"/>
<path d="M213.471 254.439C213.352 254.439 213.244 254.408 213.136 254.356L209.715 252.441C209.392 252.263 209.284 251.855 209.467 251.542C209.651 251.228 210.071 251.123 210.384 251.301L213.806 253.215C214.129 253.393 214.237 253.801 214.054 254.115C213.924 254.324 213.698 254.439 213.471 254.439Z" fill="url(#paint2_linear_94_12484)"/>
<path d="M225.838 261.364C225.719 261.364 225.612 261.333 225.504 261.28L221.23 258.885C220.906 258.707 220.798 258.299 220.982 257.985C221.165 257.672 221.586 257.567 221.899 257.745L226.173 260.14C226.496 260.318 226.604 260.726 226.421 261.04C226.302 261.249 226.076 261.364 225.838 261.364Z" fill="url(#paint3_linear_94_12484)"/>
<path d="M278.536 287.777C275.018 287.777 271.5 287.024 268.823 285.528L233.22 265.601C232.896 265.423 232.788 265.015 232.972 264.701C233.155 264.387 233.576 264.283 233.889 264.46L269.492 284.388C274.478 287.181 282.583 287.181 287.569 284.388L436.9 200.818C439.188 199.542 440.45 197.879 440.45 196.142C440.45 194.406 439.188 192.742 436.9 191.466L392.771 166.769C387.785 163.976 379.68 163.976 374.694 166.769L288.238 215.149C282.885 218.151 274.165 218.151 268.813 215.149L148.017 147.552C143.031 144.759 134.926 144.759 129.94 147.552L1.00648 219.71C0.682719 219.888 0.272616 219.783 0.0891506 219.469C-0.0943152 219.155 0.0136074 218.758 0.337371 218.58L129.292 146.423C134.645 143.42 143.365 143.42 148.718 146.423L269.514 214.019C274.5 216.812 282.605 216.812 287.591 214.019L374.046 165.639C379.399 162.637 388.119 162.637 393.472 165.639L437.601 190.336C440.321 191.864 441.821 193.924 441.821 196.153C441.821 198.381 440.321 200.441 437.601 201.969L288.249 285.528C285.573 287.024 282.054 287.777 278.536 287.777Z" fill="url(#paint4_linear_94_12484)"/>
<path d="M432.582 319.358C432.463 319.358 432.355 319.327 432.247 319.274L394.518 298.165C394.194 297.987 394.086 297.579 394.27 297.265C394.453 296.951 394.863 296.847 395.198 297.025L432.927 318.134C433.251 318.312 433.359 318.72 433.175 319.034C433.046 319.243 432.819 319.358 432.582 319.358Z" fill="url(#paint5_linear_94_12484)"/>
<path d="M329.432 87.1109C329.194 87.1109 328.968 86.9959 328.849 86.7866C328.665 86.4728 328.773 86.0753 329.097 85.887L378.795 58.0827C379.119 57.9048 379.529 58.0094 379.723 58.3233C379.906 58.6371 379.798 59.0346 379.475 59.2229L329.777 87.0272C329.658 87.0795 329.55 87.1109 329.432 87.1109Z" fill="#BBE8A6"/>
<path d="M329.928 99.3603H307.545C307.167 99.3603 306.865 99.0674 306.865 98.7013V86.1799C306.865 86.0021 306.941 85.8347 307.059 85.7197C307.189 85.5941 307.362 85.5314 307.534 85.5314H329.917C330.295 85.5314 330.597 85.8243 330.597 86.1904V98.7118C330.608 99.057 330.306 99.3603 329.928 99.3603ZM308.225 98.0423H329.248V86.8285H308.225V98.0423Z" fill="#BBE8A6"/>
<path d="M270.054 338.93C265.715 338.93 261.388 338.009 258.085 336.158C254.761 334.296 252.927 331.785 252.927 329.076C252.927 326.377 254.761 323.856 258.085 322.005C264.69 318.312 275.428 318.312 282.022 322.005C285.346 323.867 287.181 326.377 287.181 329.086C287.181 331.785 285.346 334.306 282.022 336.158C278.72 338.009 274.392 338.93 270.054 338.93ZM270.054 320.53C265.964 320.53 261.873 321.398 258.754 323.145C255.862 324.766 254.276 326.869 254.276 329.086C254.276 331.304 255.862 333.417 258.754 335.028C264.982 338.511 275.115 338.511 281.342 335.028C284.235 333.407 285.821 331.304 285.821 329.086C285.821 326.869 284.235 324.756 281.342 323.145C278.234 321.398 274.144 320.53 270.054 320.53Z" fill="url(#paint6_linear_94_12484)"/>
<path d="M228.234 315.529C223.896 315.529 219.568 314.609 216.266 312.757C212.942 310.895 211.107 308.385 211.107 305.675C211.107 302.977 212.942 300.456 216.266 298.604C222.871 294.911 233.609 294.911 240.203 298.604C243.527 300.466 245.362 302.977 245.362 305.675C245.362 308.374 243.527 310.895 240.203 312.747C236.911 314.609 232.573 315.529 228.234 315.529ZM228.234 297.129C224.144 297.129 220.054 297.997 216.946 299.744C214.054 301.366 212.467 303.468 212.467 305.686C212.467 307.904 214.054 310.017 216.946 311.628C223.173 315.111 233.307 315.111 239.534 311.628C242.426 310.006 244.013 307.904 244.013 305.686C244.013 303.468 242.426 301.366 239.534 299.744C236.415 297.997 232.325 297.129 228.234 297.129Z" fill="url(#paint7_linear_94_12484)"/>
<path d="M186.426 292.129C182.087 292.129 177.76 291.208 174.457 289.357C171.134 287.495 169.299 284.984 169.299 282.286C169.299 279.587 171.134 277.066 174.457 275.214C181.051 271.522 191.79 271.522 198.394 275.214C201.718 277.076 203.553 279.587 203.553 282.286C203.553 284.984 201.718 287.505 198.394 289.357C195.092 291.208 190.764 292.129 186.426 292.129ZM186.426 273.729C182.336 273.729 178.245 274.597 175.137 276.344C172.245 277.965 170.659 280.068 170.659 282.286C170.659 284.503 172.245 286.606 175.137 288.227C181.364 291.711 191.498 291.711 197.725 288.227C200.618 286.606 202.204 284.503 202.204 282.286C202.204 280.068 200.618 277.965 197.725 276.344C194.606 274.597 190.516 273.729 186.426 273.729Z" fill="url(#paint8_linear_94_12484)"/>
<path d="M144.617 268.728C140.279 268.728 135.951 267.808 132.649 265.956C129.325 264.094 127.49 261.584 127.49 258.885C127.49 256.186 129.325 253.665 132.649 251.814C139.254 248.121 149.992 248.121 156.586 251.814C159.91 253.676 161.744 256.186 161.744 258.885C161.744 261.584 159.91 264.105 156.586 265.956C153.283 267.808 148.945 268.728 144.617 268.728ZM144.617 250.328C140.527 250.328 136.437 251.196 133.318 252.943C130.426 254.565 128.839 256.667 128.839 258.885C128.839 261.103 130.426 263.205 133.318 264.827C139.545 268.31 149.679 268.31 155.906 264.827C158.798 263.205 160.385 261.103 160.385 258.885C160.385 256.667 158.798 254.565 155.906 252.943C152.798 251.207 148.708 250.328 144.617 250.328Z" fill="url(#paint9_linear_94_12484)"/>
<path d="M156.251 253.038C156.014 253.038 155.787 252.923 155.668 252.713C155.485 252.399 155.593 252.002 155.916 251.814L183.264 236.51C183.587 236.332 183.998 236.437 184.192 236.75C184.375 237.064 184.267 237.462 183.944 237.65L156.596 252.954C156.478 253.006 156.359 253.038 156.251 253.038Z" fill="url(#paint10_linear_94_12484)"/>
<path d="M306.164 347.884C306.046 347.884 305.927 347.853 305.819 347.79L283.155 334.944C282.832 334.767 282.724 334.359 282.918 334.045C283.101 333.731 283.522 333.626 283.846 333.815L306.51 346.66C306.833 346.838 306.941 347.246 306.747 347.56C306.618 347.769 306.391 347.884 306.164 347.884Z" fill="url(#paint11_linear_94_12484)"/>
</g>
<defs>
<linearGradient id="paint0_linear_94_12484" x1="410.399" y1="0" x2="410.399" y2="225.066" gradientUnits="userSpaceOnUse">
<stop stop-color="#7BD834"/>
<stop offset="1" stop-color="#7BD834" stop-opacity="0"/>
</linearGradient>
<linearGradient id="paint1_linear_94_12484" x1="288.569" y1="220.199" x2="288.569" y2="368" gradientUnits="userSpaceOnUse">
<stop stop-color="#7BD834"/>
<stop offset="1" stop-color="#7BD834" stop-opacity="0"/>
</linearGradient>
<linearGradient id="paint2_linear_94_12484" x1="211.76" y1="251.215" x2="211.76" y2="254.439" gradientUnits="userSpaceOnUse">
<stop stop-color="#7BD834"/>
<stop offset="1" stop-color="#7BD834" stop-opacity="0"/>
</linearGradient>
<linearGradient id="paint3_linear_94_12484" x1="223.701" y1="257.658" x2="223.701" y2="261.364" gradientUnits="userSpaceOnUse">
<stop stop-color="#7BD834"/>
<stop offset="1" stop-color="#7BD834" stop-opacity="0"/>
</linearGradient>
<linearGradient id="paint4_linear_94_12484" x1="220.91" y1="144.171" x2="220.91" y2="287.777" gradientUnits="userSpaceOnUse">
<stop stop-color="#7BD834"/>
<stop offset="1" stop-color="#7BD834" stop-opacity="0"/>
</linearGradient>
<linearGradient id="paint5_linear_94_12484" x1="413.723" y1="296.938" x2="413.723" y2="319.358" gradientUnits="userSpaceOnUse">
<stop stop-color="#7BD834"/>
<stop offset="1" stop-color="#7BD834" stop-opacity="0"/>
</linearGradient>
<linearGradient id="paint6_linear_94_12484" x1="270.054" y1="319.235" x2="270.054" y2="338.93" gradientUnits="userSpaceOnUse">
<stop stop-color="#7BD834"/>
<stop offset="1" stop-color="#7BD834" stop-opacity="0"/>
</linearGradient>
<linearGradient id="paint7_linear_94_12484" x1="228.234" y1="295.835" x2="228.234" y2="315.529" gradientUnits="userSpaceOnUse">
<stop stop-color="#7BD834"/>
<stop offset="1" stop-color="#7BD834" stop-opacity="0"/>
</linearGradient>
<linearGradient id="paint8_linear_94_12484" x1="186.426" y1="272.445" x2="186.426" y2="292.129" gradientUnits="userSpaceOnUse">
<stop stop-color="#7BD834"/>
<stop offset="1" stop-color="#7BD834" stop-opacity="0"/>
</linearGradient>
<linearGradient id="paint9_linear_94_12484" x1="144.617" y1="249.044" x2="144.617" y2="268.728" gradientUnits="userSpaceOnUse">
<stop stop-color="#7BD834"/>
<stop offset="1" stop-color="#7BD834" stop-opacity="0"/>
</linearGradient>
<linearGradient id="paint10_linear_94_12484" x1="169.93" y1="236.423" x2="169.93" y2="253.038" gradientUnits="userSpaceOnUse">
<stop stop-color="#7BD834"/>
<stop offset="1" stop-color="#7BD834" stop-opacity="0"/>
</linearGradient>
<linearGradient id="paint11_linear_94_12484" x1="294.833" y1="333.721" x2="294.833" y2="347.884" gradientUnits="userSpaceOnUse">
<stop stop-color="#7BD834"/>
<stop offset="1" stop-color="#7BD834" stop-opacity="0"/>
</linearGradient>
</defs>
</svg>
