<svg width="78" height="71" viewBox="0 0 78 71" fill="none" xmlns="http://www.w3.org/2000/svg">
<path d="M59.7798 71C59.8862 71 59.9879 70.9479 60.0411 70.8531C60.1233 70.7109 60.0749 70.5308 59.9298 70.4455L2.52041 37.9774C1.28668 37.2808 0.609337 36.3708 0.609337 35.4182C0.609337 34.4657 1.28668 33.5558 2.52041 32.8591L57.5785 1.71795C60.2394 0.210894 64.5744 0.210894 67.2354 1.71795L69.584 3.109C69.7291 3.18957 69.913 3.14218 70.0001 3C70.0823 2.85782 70.0339 2.67774 69.8888 2.59243L67.5402 1.20138C64.7099 -0.400461 60.1088 -0.400461 57.2785 1.20138L2.2156 32.3425C0.788345 33.1482 -0.000274658 34.2429 -0.000274658 35.4135C-0.000274658 36.5888 0.788345 37.6788 2.2156 38.4892L59.625 70.9573C59.6782 70.9858 59.7314 71 59.7798 71Z" fill="#457D3A"/>
<path d="M73.5 6L77 8.5" stroke="#7BD834" stroke-width="0.7" stroke-linecap="round" stroke-dasharray="5 5"/>
<path opacity="0.5" d="M62 44C64.5331 44 67.0599 43.4388 68.988 42.3101C70.9288 41.175 72 39.6445 72 37.9992C72 36.3539 70.9288 34.8171 68.988 33.6883C65.138 31.4372 58.8683 31.4372 55.012 33.6883C53.0712 34.8234 52 36.3539 52 37.9992C52 39.6445 53.0712 41.1813 55.012 42.3101C56.9401 43.4388 59.4669 44 62 44ZM62 32.7828C64.3881 32.7828 66.7763 33.3121 68.5911 34.377C70.2798 35.3655 71.206 36.6473 71.206 37.9992C71.206 39.3511 70.2798 40.6329 68.5911 41.6214C64.9553 43.7449 59.0384 43.7449 55.4026 41.6214C53.7139 40.6329 52.7876 39.3511 52.7876 37.9992C52.7876 36.6473 53.7139 35.3655 55.4026 34.377C57.2237 33.3121 59.6118 32.7828 62 32.7828Z" fill="#7BD834"/>
</svg>
