<svg width="98" height="92" viewBox="0 0 98 92" fill="none" xmlns="http://www.w3.org/2000/svg">
<circle cx="49.5" cy="48.5" r="43.5" fill="#0A1736"/>
<path d="M12 77V83M9 80H15" stroke="#7BD834" stroke-linecap="round" stroke-linejoin="round"/>
<path d="M90 10V16M87 13H93" stroke="#7BD834" stroke-linecap="round" stroke-linejoin="round"/>
<path d="M64.537 74.9962H59.957" stroke="#475DA9" stroke-width="1.875" stroke-miterlimit="10" stroke-linecap="round" stroke-linejoin="round"/>
<mask id="mask0_94_12603" style="mask-type:luminance" maskUnits="userSpaceOnUse" x="17" y="16" width="64" height="64">
<path d="M17 16H81V80H17V16Z" fill="white"/>
</mask>
<g mask="url(#mask0_94_12603)">
<rect x="22" y="71" width="43" height="55" rx="4" transform="rotate(-90 22 71)" fill="#1F3969" fill-opacity="0.9"/>
<rect x="26" y="58" width="25" height="29" rx="4" transform="rotate(-90 26 58)" fill="#7BD834"/>
<path d="M62.5 54.5L52.5 50L51.5 51.5L55.5 61H57L58.5 57L62.5 55.5V54.5Z" fill="#0A1736"/>
<rect x="65" y="86" width="30" height="7" rx="3.5" transform="rotate(-90 65 86)" fill="#7BD834"/>
<rect x="40" y="91" width="30" height="7" rx="3.5" transform="rotate(-90 40 91)" fill="#0A1736"/>
<path d="M39.9162 74.9962H24.9175C21.0625 74.9962 17.9375 71.8712 17.9375 68.015V23.9187C17.9375 20.0637 21.0625 16.9387 24.9175 16.9387H73.0825C76.9375 16.9387 80.0625 20.0637 80.0625 23.9187V68.015C80.0625 71.8712 76.9375 74.9962 73.0825 74.9962H72.2687" stroke="#475DA9" stroke-width="1.875" stroke-miterlimit="10" stroke-linecap="round" stroke-linejoin="round"/>
<path d="M52.2262 74.9962H47.6475" stroke="#475DA9" stroke-width="1.875" stroke-miterlimit="10" stroke-linecap="round" stroke-linejoin="round"/>
<path d="M64.537 71.2462H59.957" stroke="#475DA9" stroke-width="1.875" stroke-miterlimit="10" stroke-linecap="round" stroke-linejoin="round"/>
<path d="M39.9162 71.2462H24.9175C23.1338 71.2462 21.6875 69.8 21.6875 68.0162V32.1162C21.6875 29.9325 23.4587 28.1612 25.6425 28.1612H72.3575C74.5412 28.1612 76.3125 29.9325 76.3125 32.1162V68.0162C76.3125 69.8 74.8662 71.2462 73.0825 71.2462H72.2688" stroke="#475DA9" stroke-width="1.875" stroke-miterlimit="10" stroke-linecap="round" stroke-linejoin="round"/>
<path d="M52.2262 71.2462H47.6475" stroke="#475DA9" stroke-width="1.875" stroke-miterlimit="10" stroke-linecap="round" stroke-linejoin="round"/>
<path d="M26.2599 22.6746C26.2599 21.412 25.2364 20.3884 23.9737 20.3884C22.711 20.3884 21.6875 21.412 21.6875 22.6746C21.6875 23.9373 22.711 24.9609 23.9737 24.9609C25.2364 24.9609 26.2599 23.9373 26.2599 22.6746Z" stroke="#475DA9" stroke-width="1.875" stroke-miterlimit="10" stroke-linecap="round" stroke-linejoin="round"/>
<path d="M33.5286 22.6746C33.5286 21.412 32.5051 20.3884 31.2423 20.3884C29.9797 20.3884 28.9561 21.412 28.9561 22.6746C28.9561 23.9373 29.9797 24.9609 31.2423 24.9609C32.5051 24.9609 33.5286 23.9373 33.5286 22.6746Z" stroke="#475DA9" stroke-width="1.875" stroke-miterlimit="10" stroke-linecap="round" stroke-linejoin="round"/>
<path d="M40.797 22.6746C40.797 21.412 39.7735 20.3884 38.5109 20.3884C37.2481 20.3884 36.2246 21.412 36.2246 22.6746C36.2246 23.9373 37.2481 24.9609 38.5109 24.9609C39.7735 24.9609 40.797 23.9373 40.797 22.6746Z" stroke="#475DA9" stroke-width="1.875" stroke-miterlimit="10" stroke-linecap="round" stroke-linejoin="round"/>
<path d="M32.105 33.1612H29.2662C27.475 33.1612 26.0225 34.6137 26.0225 36.4062V54.6487C26.0225 56.44 27.475 57.8925 29.2662 57.8925H51.7925C52.5188 57.8925 53.1887 57.6537 53.73 57.25" stroke="#475DA9" stroke-width="1.875" stroke-miterlimit="10" stroke-linecap="round" stroke-linejoin="round"/>
<path d="M35.8555 33.1612H51.793C53.5842 33.1612 55.0367 34.6137 55.0367 36.4062V50.6874" stroke="#475DA9" stroke-width="1.875" stroke-miterlimit="10" stroke-linecap="round" stroke-linejoin="round"/>
<path d="M26.0225 39.3996H55.0362" stroke="#475DA9" stroke-width="1.875" stroke-miterlimit="10" stroke-linecap="round" stroke-linejoin="round"/>
<path d="M26.0225 45.527H55.0362" stroke="#475DA9" stroke-width="1.875" stroke-miterlimit="10" stroke-linecap="round" stroke-linejoin="round"/>
<path d="M51.4062 51.6537H26.0225" stroke="#475DA9" stroke-width="1.875" stroke-miterlimit="10" stroke-linecap="round" stroke-linejoin="round"/>
<path d="M47.7334 33.1617V57.8922" stroke="#475DA9" stroke-width="1.875" stroke-miterlimit="10" stroke-linecap="round" stroke-linejoin="round"/>
<path d="M45.5273 61.7394H42.036C40.8651 61.7394 39.916 62.6885 39.916 63.8594V79.0625H47.6473V63.8594C47.6473 62.6885 46.6981 61.7394 45.5273 61.7394Z" stroke="#475DA9" stroke-width="1.875" stroke-miterlimit="10" stroke-linecap="round" stroke-linejoin="round"/>
<path d="M57.8378 65.5178H54.3466C53.1757 65.5178 52.2266 66.4671 52.2266 67.6378V79.0624H59.9578V67.6378C59.9578 66.4671 59.0087 65.5178 57.8378 65.5178Z" stroke="#475DA9" stroke-width="1.875" stroke-miterlimit="10" stroke-linecap="round" stroke-linejoin="round"/>
<path d="M72.2685 65.9237V79.0624H64.5371V58.7724C64.5371 57.6012 65.4859 56.6524 66.6571 56.6524H70.1485C71.3184 56.6524 72.2685 57.6012 72.2685 58.7724V62.1737" stroke="#475DA9" stroke-width="1.875" stroke-miterlimit="10" stroke-linecap="round" stroke-linejoin="round"/>
<path d="M76.3122 79.0624H37.5371" stroke="#475DA9" stroke-width="1.875" stroke-miterlimit="10" stroke-linecap="round" stroke-linejoin="round"/>
<path d="M68.4996 37.5C68.2878 37.3236 66.3018 35.8477 64.5209 36.384C62.7165 36.9277 62.2684 39.3964 63.4945 40.3582C64.1986 40.9104 65.2579 41.3644 66.6856 41.869C69.8811 42.9987 68.6999 47.505 65.4494 47.5267C64.181 47.5352 63.5879 47.4547 62.4736 46.7257" stroke="#7BD834" stroke-width="1.875" stroke-miterlimit="10" stroke-linecap="round" stroke-linejoin="round"/>
<path d="M66 41L66 35" stroke="#7BD834" stroke-width="1.875" stroke-miterlimit="10" stroke-linecap="round" stroke-linejoin="round"/>
<path d="M66 49L66 43" stroke="#7BD834" stroke-width="1.875" stroke-miterlimit="10" stroke-linecap="round" stroke-linejoin="round"/>
<path d="M61.8897 53.5331L52.9046 49.8007C51.895 49.3812 50.8829 50.3934 51.3024 51.403L55.0347 60.3881C55.4851 61.4721 57.0547 61.3644 57.3526 60.2289L58.0805 57.4536C58.1929 57.0255 58.5272 56.6912 58.9552 56.5789L61.7305 55.851C62.866 55.5531 62.9737 53.9835 61.8897 53.5331Z" stroke="#475DA9" stroke-width="1.875" stroke-miterlimit="10" stroke-linecap="round" stroke-linejoin="round"/>
</g>
</svg>
