<svg width="71" height="78" viewBox="0 0 71 78" fill="none" xmlns="http://www.w3.org/2000/svg">
<path opacity="0.5" d="M70.2416 85C70.3667 85 70.4861 84.9376 70.5486 84.8241C70.6453 84.6539 70.5884 84.4383 70.4179 84.3362L2.9618 45.4659C1.51218 44.6319 0.716293 43.5425 0.716293 42.4021C0.716293 41.2617 1.51218 40.1724 2.9618 39.3384L67.6551 2.0567C70.7817 0.252478 75.8753 0.252478 79.002 2.0567L93.4642 10.3913C93.6347 10.4878 93.8507 10.431 93.953 10.2608C94.0497 10.0906 93.9928 9.87501 93.8223 9.77289L79.3601 1.43827C76.0345 -0.479425 70.6282 -0.479425 67.3026 1.43827L2.60365 38.7199C0.926636 39.6844 0 40.9951 0 42.3965C0 43.8035 0.926636 45.1085 2.60365 46.0787L70.0598 84.9489C70.1223 84.983 70.1848 85 70.2416 85Z" fill="#7BD834"/>
</svg>
