<svg width="100" height="100" viewBox="0 0 100 100" fill="none" xmlns="http://www.w3.org/2000/svg">
<circle cx="55.5" cy="52.5" r="43.5" fill="#0A1736"/>
<rect x="16" y="33" width="69" height="39" rx="4" fill="#1F3969" fill-opacity="0.9"/>
<rect x="10" y="65" width="75" height="7" rx="2" fill="#0A1736"/>
<path d="M57 81H38L41.5946 72H53.4054L57 81Z" fill="#102140"/>
<rect x="33.9873" y="38.2857" width="27.3" height="18.2857" rx="2" fill="#7BD834"/>
<path d="M62.1736 61.6685H32.0519C30.4123 61.6685 29.0693 60.3192 29.0693 58.672V17.9291C29.0693 16.2819 30.4123 14.9325 32.0519 14.9325H62.1736C63.8131 14.9325 65.1561 16.2819 65.1561 17.9291V58.672C65.1561 60.3192 63.8131 61.6685 62.1736 61.6685ZM32.0519 16.6849C31.3716 16.6849 30.8135 17.2457 30.8135 17.9291V58.672C30.8135 59.3554 31.3716 59.9162 32.0519 59.9162H62.1736C62.8538 59.9162 63.412 59.3554 63.412 58.672V17.9291C63.412 17.2457 62.8538 16.6849 62.1736 16.6849H32.0519Z" fill="#475DA9"/>
<path d="M40.8597 31.5276C39.6562 31.5276 38.6097 30.6689 38.3481 29.4948C38.2434 29.0217 38.5399 28.5485 39.0109 28.4609C39.4818 28.3558 39.9527 28.6537 40.0399 29.1268C40.1271 29.4948 40.4585 29.7752 40.8422 29.7752C41.2957 29.7752 41.662 29.4072 41.662 28.9516C41.662 28.496 41.2957 28.128 40.8422 28.128C39.4295 28.128 38.2783 26.9714 38.2783 25.552C38.2783 24.1325 39.4295 22.976 40.8422 22.976C42.0457 22.976 43.0922 23.8346 43.3538 25.0087C43.4585 25.4819 43.162 25.955 42.6911 26.0426C42.2201 26.1478 41.7492 25.8499 41.662 25.3767C41.5748 25.0087 41.2434 24.7283 40.8597 24.7283C40.4062 24.7283 40.0399 25.0963 40.0399 25.552C40.0399 26.0076 40.4062 26.3756 40.8597 26.3756C42.2725 26.3756 43.4236 27.5322 43.4236 28.9516C43.4236 30.371 42.2725 31.5276 40.8597 31.5276Z" fill="#7BD834"/>
<path d="M40.8594 24.7459C40.371 24.7459 39.9873 24.3603 39.9873 23.8697V22.9059C39.9873 22.4152 40.371 22.0297 40.8594 22.0297C41.3478 22.0297 41.7315 22.4152 41.7315 22.9059V23.8697C41.7315 24.3428 41.3478 24.7459 40.8594 24.7459Z" fill="#7BD834"/>
<path d="M40.8594 32.4914C40.371 32.4914 39.9873 32.1059 39.9873 31.6152V30.6514C39.9873 30.1607 40.371 29.7752 40.8594 29.7752C41.3478 29.7752 41.7315 30.1607 41.7315 30.6514V31.6152C41.7315 32.1059 41.3478 32.4914 40.8594 32.4914Z" fill="#7BD834"/>
<path d="M58.9292 57.4628H35.2958C33.9004 57.4628 32.7842 56.3238 32.7842 54.9394V40.7101C32.7842 39.3082 33.9179 38.1866 35.2958 38.1866H58.9292C60.3246 38.1866 61.4408 39.3257 61.4408 40.7101V54.9394C61.4408 56.3238 60.3246 57.4628 58.9292 57.4628ZM35.2958 39.939C34.8772 39.939 34.5283 40.2895 34.5283 40.7101V54.9394C34.5283 55.36 34.8772 55.7104 35.2958 55.7104H58.9292C59.3478 55.7104 59.6967 55.36 59.6967 54.9394V40.7101C59.6967 40.2895 59.3478 39.939 58.9292 39.939H35.2958Z" fill="#475DA9"/>
<path d="M52.0576 57.4628C51.5693 57.4628 51.1855 57.0773 51.1855 56.5866V39.0628C51.1855 38.5722 51.5693 38.1866 52.0576 38.1866C52.546 38.1866 52.9297 38.5722 52.9297 39.0628V56.5866C52.9297 57.0773 52.546 57.4628 52.0576 57.4628Z" fill="#475DA9"/>
<path d="M60.5688 45.3188H33.6563C33.1679 45.3188 32.7842 44.9333 32.7842 44.4426C32.7842 43.952 33.1679 43.5664 33.6563 43.5664H60.5862C61.0746 43.5664 61.4583 43.952 61.4583 44.4426C61.4583 44.9333 61.0571 45.3188 60.5688 45.3188Z" fill="#475DA9"/>
<path d="M60.5688 52.083H33.6563C33.1679 52.083 32.7842 51.6975 32.7842 51.2068C32.7842 50.7162 33.1679 50.3306 33.6563 50.3306H60.5862C61.0746 50.3306 61.4583 50.7162 61.4583 51.2068C61.4583 51.6975 61.0571 52.083 60.5688 52.083Z" fill="#475DA9"/>
<path d="M40.8597 35.3828C36.3946 35.3828 32.7842 31.7379 32.7842 27.2693C32.7842 22.8007 36.412 19.1558 40.8771 19.1558C45.3422 19.1558 48.97 22.8007 48.97 27.2693C48.97 31.7379 45.3247 35.3828 40.8597 35.3828ZM40.8597 20.8906C37.3713 20.8906 34.5283 23.747 34.5283 27.2518C34.5283 30.7565 37.3713 33.6129 40.8771 33.6129C44.3829 33.6129 47.2259 30.7565 47.2259 27.2518C47.2259 23.747 44.3654 20.8906 40.8597 20.8906Z" fill="#7BD834"/>
<path d="M60.2029 21.5741H50.5576C50.0693 21.5741 49.6855 21.1885 49.6855 20.6979C49.6855 20.2072 50.0693 19.8217 50.5576 19.8217H60.2203C60.7087 19.8217 61.0924 20.2072 61.0924 20.6979C61.0924 21.1885 60.6912 21.5741 60.2029 21.5741Z" fill="#475DA9"/>
<path d="M60.2021 25.9375H53.4522C52.9638 25.9375 52.5801 25.552 52.5801 25.0613C52.5801 24.5706 52.9638 24.1851 53.4522 24.1851H60.2021C60.6904 24.1851 61.0742 24.5706 61.0742 25.0613C61.0742 25.552 60.6904 25.9375 60.2021 25.9375Z" fill="#475DA9"/>
<path d="M60.2021 30.3009H53.4522C52.9638 30.3009 52.5801 29.9154 52.5801 29.4247C52.5801 28.9341 52.9638 28.5485 53.4522 28.5485H60.2021C60.6904 28.5485 61.0742 28.9341 61.0742 29.4247C61.0742 29.9154 60.6904 30.3009 60.2021 30.3009Z" fill="#475DA9"/>
<path d="M60.2029 34.6468H50.5576C50.0693 34.6468 49.6855 34.2613 49.6855 33.7706C49.6855 33.28 50.0693 32.8944 50.5576 32.8944H60.2203C60.7087 32.8944 61.0924 33.28 61.0924 33.7706C61.0924 34.2613 60.6912 34.6468 60.2029 34.6468Z" fill="#475DA9"/>
<path d="M84.7953 66.0495H9.44728C8.95891 66.0495 8.5752 65.664 8.5752 65.1733C8.5752 64.6826 8.95891 64.2971 9.44728 64.2971H84.7953C85.2836 64.2971 85.6674 64.6826 85.6674 65.1733C85.6674 65.664 85.2662 66.0495 84.7953 66.0495Z" fill="#475DA9"/>
<path d="M80.5395 73.1642H13.6856C10.8601 73.1642 8.5752 70.851 8.5752 68.0297V30.4762C8.5752 27.6373 10.8775 25.3417 13.6856 25.3417H29.9412C30.4296 25.3417 30.8133 25.7272 30.8133 26.2179C30.8133 26.7085 30.4886 27.5 30.0002 27.5H13.6856C11.8193 27.5 11.0002 28.6186 11.0002 30.4762V68.0297C11.0002 69.9047 11.8368 71 13.6856 71H80.557C82.4232 71 83.5002 69.8872 83.5002 68.0297V30.4762C83.5002 28.6011 82.3883 27.5 80.5395 27.5H64.3013C63.813 27.5 63.4292 26.7085 63.4292 26.2179C63.4292 25.7272 63.813 25.3417 64.3013 25.3417H80.557C83.3825 25.3417 85.6674 27.6548 85.6674 30.4762V68.0297C85.6674 70.8685 83.3651 73.1642 80.5395 73.1642Z" fill="#475DA9"/>
<path d="M56.0864 81.3303C55.7376 81.3303 55.4062 81.12 55.2666 80.7695L52.0748 72.6034C51.9004 72.1478 52.1271 71.6396 52.5632 71.4644C53.0167 71.2891 53.5225 71.5169 53.6969 71.955L56.8887 80.1211C57.0631 80.5767 56.8364 81.0849 56.4003 81.2602C56.2957 81.3127 56.191 81.3303 56.0864 81.3303ZM38.1389 81.3303C38.0343 81.3303 37.9296 81.3127 37.825 81.2777C37.3715 81.1025 37.1622 80.5943 37.3366 80.1386L40.5284 71.9725C40.7028 71.5169 41.2086 71.3066 41.6621 71.4819C42.1156 71.6571 42.3249 72.1653 42.1505 72.6209L38.9587 80.7695C38.8191 81.12 38.4878 81.3303 38.1389 81.3303Z" fill="#475DA9"/>
<path d="M60.3074 81.3303H33.9356C33.4472 81.3303 33.0635 80.9447 33.0635 80.4541C33.0635 79.9634 33.4472 79.5779 33.9356 79.5779H60.3074C60.7957 79.5779 61.1794 79.9634 61.1794 80.4541C61.1794 80.9447 60.7783 81.3303 60.3074 81.3303Z" fill="#475DA9"/>
<path d="M9 15V21M6 18H12" stroke="#7BD834" stroke-linecap="round" stroke-linejoin="round"/>
<path d="M90 72V78M87 75H93" stroke="#7BD834" stroke-linecap="round" stroke-linejoin="round"/>
</svg>
