<svg width="100" height="100" viewBox="0 0 100 100" fill="none" xmlns="http://www.w3.org/2000/svg">
<circle cx="50.5" cy="50.5" r="43.5" fill="#0A1736"/>
<path d="M13 27V33M10 30H16" stroke="#7BD834" stroke-linecap="round" stroke-linejoin="round"/>
<path d="M88 73V79M85 76H91" stroke="#7BD834" stroke-linecap="round" stroke-linejoin="round"/>
<path d="M21 20V24M19 22H23" stroke="#7BD834" stroke-linecap="round" stroke-linejoin="round"/>
<path d="M77 79V83M75 81H79" stroke="#7BD834" stroke-linecap="round" stroke-linejoin="round"/>
<circle cx="50.5" cy="50.5" r="32.5" stroke="#475DA9" stroke-width="2"/>
<circle cx="74.5" cy="26.5" r="9.5" fill="#1D3565"/>
<path d="M70.5694 57.133C69.7461 57.133 68.9417 57.0253 68.1564 56.81C67.3711 56.5947 66.7441 56.3223 66.2754 55.993L67.1874 54.188C67.6434 54.492 68.1881 54.739 68.8214 54.929C69.4674 55.1063 70.1007 55.195 70.7214 55.195C72.1401 55.195 72.8494 54.8213 72.8494 54.074C72.8494 53.7193 72.6657 53.4723 72.2984 53.333C71.9437 53.1937 71.3674 53.0607 70.5694 52.934C69.7334 52.8073 69.0494 52.6617 68.5174 52.497C67.9981 52.3323 67.5421 52.0473 67.1494 51.642C66.7694 51.224 66.5794 50.6477 66.5794 49.913C66.5794 48.9503 66.9784 48.184 67.7764 47.614C68.5871 47.0313 69.6764 46.74 71.0444 46.74C71.7411 46.74 72.4377 46.8223 73.1344 46.987C73.8311 47.139 74.4011 47.348 74.8444 47.614L73.9324 49.419C73.0711 48.9123 72.1021 48.659 71.0254 48.659C70.3287 48.659 69.7967 48.7667 69.4294 48.982C69.0747 49.1847 68.8974 49.457 68.8974 49.799C68.8974 50.179 69.0874 50.4513 69.4674 50.616C69.8601 50.768 70.4617 50.9137 71.2724 51.053C72.0831 51.1797 72.7481 51.3253 73.2674 51.49C73.7867 51.6547 74.2301 51.9333 74.5974 52.326C74.9774 52.7187 75.1674 53.276 75.1674 53.998C75.1674 54.948 74.7557 55.708 73.9324 56.278C73.1091 56.848 71.9881 57.133 70.5694 57.133Z" fill="#7BD834"/>
<path d="M62.1496 53.922H55.4996L54.1886 57H51.6426L57.6276 43.7H60.0596L66.0636 57H63.4796L62.1496 53.922ZM61.3326 51.984L58.8246 46.17L56.3356 51.984H61.3326Z" fill="#7BD834"/>
<path d="M46.0628 43.7C47.2155 43.7 48.2162 43.89 49.0648 44.27C49.9262 44.65 50.5848 45.1947 51.0408 45.904C51.4968 46.6133 51.7248 47.4557 51.7248 48.431C51.7248 49.3937 51.4968 50.236 51.0408 50.958C50.5848 51.6673 49.9262 52.212 49.0648 52.592C48.2162 52.972 47.2155 53.162 46.0628 53.162H43.0608V57H40.5908V43.7H46.0628ZM45.9488 51.072C47.0255 51.072 47.8425 50.844 48.3998 50.388C48.9572 49.932 49.2358 49.2797 49.2358 48.431C49.2358 47.5823 48.9572 46.93 48.3998 46.474C47.8425 46.018 47.0255 45.79 45.9488 45.79H43.0608V51.072H45.9488Z" fill="#7BD834"/>
<path d="M32.9419 57.19C31.5993 57.19 30.3833 56.8987 29.2939 56.316C28.2173 55.7207 27.3686 54.9037 26.7479 53.865C26.1399 52.8263 25.8359 51.6547 25.8359 50.35C25.8359 49.0453 26.1463 47.8737 26.7669 46.835C27.3876 45.7963 28.2363 44.9857 29.3129 44.403C30.4023 43.8077 31.6183 43.51 32.9609 43.51C34.0503 43.51 35.0446 43.7 35.9439 44.08C36.8433 44.46 37.6033 45.011 38.2239 45.733L36.6279 47.234C35.6653 46.1953 34.4809 45.676 33.0749 45.676C32.1629 45.676 31.3459 45.8787 30.6239 46.284C29.9019 46.6767 29.3383 47.2277 28.9329 47.937C28.5276 48.6463 28.3249 49.4507 28.3249 50.35C28.3249 51.2493 28.5276 52.0537 28.9329 52.763C29.3383 53.4723 29.9019 54.0297 30.6239 54.435C31.3459 54.8277 32.1629 55.024 33.0749 55.024C34.4809 55.024 35.6653 54.4983 36.6279 53.447L38.2239 54.967C37.6033 55.689 36.8369 56.24 35.9249 56.62C35.0256 57 34.0313 57.19 32.9419 57.19Z" fill="#7BD834"/>
</svg>
