<svg width="65" height="37" viewBox="0 0 65 37" fill="none" xmlns="http://www.w3.org/2000/svg">
<path opacity="0.5" d="M24.6873 25H47.3128C47.6946 25 48 24.7249 48 24.381V12.619C48 12.2751 47.6946 12 47.3128 12H24.6873C24.3055 12 24 12.2751 24 12.619V24.381C24 24.7249 24.3055 25 24.6873 25ZM46.6255 23.7619H25.3746V13.2283H46.6255V23.7619Z" fill="#7BD834"/>
<path opacity="0.5" d="M4.51546 9H21.4846C21.771 9 22 8.80953 22 8.57143V0.42857C22 0.190474 21.771 0 21.4846 0H4.51546C4.2291 0 4 0.190474 4 0.42857V8.57143C4 8.80953 4.2291 9 4.51546 9ZM20.9691 8.14286H5.03092V0.85034H20.9691V8.14286Z" fill="#7BD834"/>
</svg>
