<svg width="98" height="92" viewBox="0 0 98 92" fill="none" xmlns="http://www.w3.org/2000/svg">
<circle cx="49.5" cy="48.5" r="43.5" fill="#0A1736"/>
<path d="M9 26V32M6 29H12" stroke="#7BD834" stroke-linecap="round" stroke-linejoin="round"/>
<path d="M20 78V84M17 81H23" stroke="#7BD834" stroke-linecap="round" stroke-linejoin="round"/>
<path d="M91 32V38M88 35H94" stroke="#7BD834" stroke-linecap="round" stroke-linejoin="round"/>
<g clip-path="url(#clip0_94_12819)">
<mask id="mask0_94_12819" style="mask-type:luminance" maskUnits="userSpaceOnUse" x="20" y="16" width="59" height="59">
<path d="M20 16H79V75H20V16Z" fill="white"/>
</mask>
<g mask="url(#mask0_94_12819)">
<path d="M43 17H46.5H52L54 17.5L55 19.5L57 20.5L59 21.5V28.5L57.5 29.5L55.5 29L54.5 27L52 29.5H41L39.5 29V21.5L40.5 19L43 17Z" fill="#7BD834"/>
<rect x="23" y="60" width="53" height="14" fill="#203763"/>
<path d="M57.6559 72C56.7642 72 55.96 71.8083 55.2434 71.425C54.5267 71.0333 53.9642 70.4958 53.5559 69.8125C53.1475 69.1208 52.9434 68.35 52.9434 67.5C52.9434 66.65 53.1475 65.8833 53.5559 65.2C53.9642 64.5083 54.5267 63.9708 55.2434 63.5875C55.96 63.1958 56.7642 63 57.6559 63C58.5475 63 59.3517 63.1958 60.0684 63.5875C60.785 63.9708 61.3475 64.5042 61.7559 65.1875C62.1642 65.8708 62.3684 66.6417 62.3684 67.5C62.3684 68.3583 62.1642 69.1292 61.7559 69.8125C61.3475 70.4958 60.785 71.0333 60.0684 71.425C59.3517 71.8083 58.5475 72 57.6559 72ZM57.6559 70.575C58.2392 70.575 58.7642 70.4458 59.2309 70.1875C59.6975 69.9208 60.0642 69.5542 60.3309 69.0875C60.5975 68.6125 60.7309 68.0833 60.7309 67.5C60.7309 66.9167 60.5975 66.3917 60.3309 65.925C60.0642 65.45 59.6975 65.0833 59.2309 64.825C58.7642 64.5583 58.2392 64.425 57.6559 64.425C57.0725 64.425 56.5475 64.5583 56.0809 64.825C55.6142 65.0833 55.2475 65.45 54.9809 65.925C54.7142 66.3917 54.5809 66.9167 54.5809 67.5C54.5809 68.0833 54.7142 68.6125 54.9809 69.0875C55.2475 69.5542 55.6142 69.9208 56.0809 70.1875C56.5475 70.4458 57.0725 70.575 57.6559 70.575Z" fill="#7BD834"/>
<path d="M47.332 64.4875V67.15H51.557V68.525H47.332V71.875H45.707V63.125H52.0945V64.4875H47.332Z" fill="#7BD834"/>
<path d="M40.675 72C39.7917 72 38.9917 71.8083 38.275 71.425C37.5667 71.0333 37.0083 70.4958 36.6 69.8125C36.2 69.1292 36 68.3583 36 67.5C36 66.6417 36.2042 65.8708 36.6125 65.1875C37.0208 64.5042 37.5792 63.9708 38.2875 63.5875C39.0042 63.1958 39.8042 63 40.6875 63C41.4042 63 42.0583 63.125 42.65 63.375C43.2417 63.625 43.7417 63.9875 44.15 64.4625L43.1 65.45C42.4667 64.7667 41.6875 64.425 40.7625 64.425C40.1625 64.425 39.625 64.5583 39.15 64.825C38.675 65.0833 38.3042 65.4458 38.0375 65.9125C37.7708 66.3792 37.6375 66.9083 37.6375 67.5C37.6375 68.0917 37.7708 68.6208 38.0375 69.0875C38.3042 69.5542 38.675 69.9208 39.15 70.1875C39.625 70.4458 40.1625 70.575 40.7625 70.575C41.6875 70.575 42.4667 70.2292 43.1 69.5375L44.15 70.5375C43.7417 71.0125 43.2375 71.375 42.6375 71.625C42.0458 71.875 41.3917 72 40.675 72Z" fill="#7BD834"/>
<path d="M77.134 54.6464H21.8661C21.3127 54.6464 20.8643 55.0948 20.8643 55.6481V58.726C20.8643 59.2794 21.3127 59.7278 21.8661 59.7278H77.134C77.6874 59.7278 78.1357 59.2794 78.1357 58.726V55.6481C78.1357 55.0948 77.6874 54.6464 77.134 54.6464Z" stroke="#475DA9" stroke-width="1.72852" stroke-miterlimit="10" stroke-linecap="round" stroke-linejoin="round"/>
<path d="M54.5923 26.9395C54.5923 26.8002 54.406 26.7522 54.3402 26.8749C53.4931 28.4594 51.8236 29.538 49.9013 29.538H42.1973V34.648C42.1973 38.3719 45.1151 41.7731 49.5287 41.7731C53.4576 41.7731 56.654 38.5766 56.654 34.648V29.4815C55.4802 29.2323 54.5923 28.1847 54.5923 26.9395Z" stroke="#475DA9" stroke-width="1.72852" stroke-miterlimit="10" stroke-linecap="round" stroke-linejoin="round"/>
<path d="M39.6546 28.7443C38.7677 29.1667 38.1533 30.0685 38.1533 31.1162C38.1533 32.5679 39.3302 33.7449 40.7818 33.7449H42.1969V29.538H41.3065C40.6381 29.538 40.0429 29.2277 39.6546 28.7443Z" stroke="#475DA9" stroke-width="1.72852" stroke-miterlimit="10" stroke-linecap="round" stroke-linejoin="round"/>
<path d="M58.5046 28.5268C58.3485 29.107 57.818 29.538 57.1903 29.538C57.0062 29.538 56.827 29.5173 56.6537 29.4802L56.6533 29.4815V33.7449H58.0684C59.5201 33.7449 60.697 32.568 60.697 31.1164C60.697 29.8136 59.7483 28.735 58.5046 28.5268Z" stroke="#475DA9" stroke-width="1.72852" stroke-miterlimit="10" stroke-linecap="round" stroke-linejoin="round"/>
<path d="M68.0347 54.6464V53.6303C68.0347 50.4204 65.7978 48.2571 64.1272 47.5696L53.8818 43.6596C53.6048 43.5526 53.4209 43.2861 53.4201 42.9878L53.418 40.613C52.2986 41.3454 50.9627 41.7731 49.5281 41.7731C47.946 41.7731 46.5577 41.3344 45.4255 40.6023L45.4256 42.9833C45.4256 43.2809 45.2825 43.4564 45.1177 43.5681L34.8723 47.5696C33.2018 48.2571 30.9648 50.4204 30.9648 53.6303V54.6464H68.0347Z" stroke="#475DA9" stroke-width="1.72852" stroke-miterlimit="10" stroke-linecap="round" stroke-linejoin="round"/>
<path d="M43.9353 54.6464L42.3831 44.6362L34.8724 47.5696C33.2018 48.2571 30.9648 50.4204 30.9648 53.6303V54.6464H43.9353Z" stroke="#475DA9" stroke-width="1.72852" stroke-miterlimit="10" stroke-linecap="round" stroke-linejoin="round"/>
<path d="M68.0349 54.6464V53.6303C68.0349 50.4204 65.798 48.2571 64.1274 47.5696L56.6069 44.6996L55.0645 54.6464H68.0349Z" stroke="#475DA9" stroke-width="1.72852" stroke-miterlimit="10" stroke-linecap="round" stroke-linejoin="round"/>
<path d="M50.9979 46.2179C50.8516 46.0013 50.8791 45.8269 50.8791 45.7245H48.0147C48.0365 45.906 47.9885 46.0809 47.8959 46.2179L46.7373 47.9336L47.8433 50.3469H51.0504L52.1564 47.9337L50.9979 46.2179Z" stroke="#475DA9" stroke-width="1.72852" stroke-miterlimit="10" stroke-linecap="round" stroke-linejoin="round"/>
<path d="M51.0505 50.3469H47.8434L47.0859 54.6464H51.8079L51.0505 50.3469Z" stroke="#475DA9" stroke-width="1.72852" stroke-miterlimit="10" stroke-linecap="round" stroke-linejoin="round"/>
<path d="M47.7568 45.2509L45.3704 43.2715C45.3139 43.4044 45.2199 43.4985 45.1176 43.568L42.3828 44.6361L42.5373 45.6328L45.6154 48.1668C45.9464 48.4413 46.4419 48.3702 46.6827 48.0139L47.8953 46.2179C48.1047 45.908 48.0447 45.4897 47.7568 45.2509Z" stroke="#475DA9" stroke-width="1.72852" stroke-miterlimit="10" stroke-linecap="round" stroke-linejoin="round"/>
<path d="M53.882 43.6597C53.6947 43.5872 53.5516 43.4412 53.4773 43.2623L51.1362 45.251C50.8483 45.4897 50.7883 45.908 50.9976 46.2179L52.2103 48.0138C52.451 48.3703 52.9466 48.4412 53.2776 48.1667L56.4876 45.4681L56.6068 44.6995L53.882 43.6597Z" stroke="#475DA9" stroke-width="1.72852" stroke-miterlimit="10" stroke-linecap="round" stroke-linejoin="round"/>
<path d="M46.0036 16.8643H45.6936H44.2197C41.4403 16.8643 39.1875 19.1173 39.1875 21.8965V27.4191C39.1875 28.5894 40.136 29.5379 41.3062 29.5379H49.9007C51.8231 29.5379 53.4926 28.4595 54.3398 26.875C54.4055 26.7522 54.5918 26.8002 54.5918 26.9395C54.5918 28.3686 55.7612 29.5379 57.1904 29.5379C57.9396 29.5379 58.5524 28.925 58.5524 28.1758V22.4126C58.5524 21.055 57.3679 20.0682 56.1906 20.1586C55.5098 20.2111 54.8851 19.783 54.7542 19.1129C54.5334 17.9843 53.9747 16.8643 51.7921 16.8643H50.3717H50.0368" stroke="#475DA9" stroke-width="1.72852" stroke-miterlimit="10" stroke-linecap="round" stroke-linejoin="round"/>
<path d="M75.6728 64.9153V59.7278H23.3271V73.134C23.3271 73.6873 23.7756 74.1359 24.3288 74.1359H74.6712C75.2243 74.1359 75.6728 73.6873 75.6728 73.134V68.9485" stroke="#475DA9" stroke-width="1.72852" stroke-miterlimit="10" stroke-linecap="round" stroke-linejoin="round"/>
</g>
</g>
<defs>
<clipPath id="clip0_94_12819">
<rect width="59" height="59" fill="white" transform="translate(20 16)"/>
</clipPath>
</defs>
</svg>
