<svg width="100" height="100" viewBox="0 0 100 100" fill="none" xmlns="http://www.w3.org/2000/svg">
<circle cx="49.5" cy="50.5" r="43.5" fill="#0A1736"/>
<path d="M14 35V39M12 37H16" stroke="#7BD834" stroke-width="0.8" stroke-linecap="round" stroke-linejoin="round"/>
<path d="M21 27V33M18 30H24" stroke="#7BD834" stroke-linecap="round" stroke-linejoin="round"/>
<rect x="32" y="81" width="57" height="44" rx="4" transform="rotate(-90 32 81)" fill="#1F3969" fill-opacity="0.9"/>
<rect x="24" y="82" width="30" height="24" rx="4" transform="rotate(-90 24 82)" fill="#7BD834"/>
<path d="M22.9561 53.8647V80.0735C22.9561 81.7485 24.2369 83.0294 25.9119 83.0294H46.1105C47.7855 83.0294 49.0663 81.7485 49.0663 80.0735V79.2853H64.7325C66.8016 81.7485 69.659 83.0294 72.6149 83.0294C78.2311 83.0294 82.8619 78.3985 82.8619 72.7823C82.8619 67.3632 78.7237 63.0279 73.6002 62.5353V32.2868H83.059C83.6502 32.2868 84.0443 31.8926 84.0443 31.3015V26.1779C84.0443 22.7294 81.2855 19.9706 77.8369 19.9706H34.2869C30.8384 19.9706 28.0796 22.7294 28.0796 26.1779V46.9676C28.0796 47.5588 28.4737 47.9529 29.0649 47.9529C29.6561 47.9529 30.0502 47.5588 30.0502 46.9676V26.1779C30.0502 23.8132 31.9222 21.9412 34.2869 21.9412H73.4031C72.4178 23.025 71.7281 24.5029 71.7281 26.1779V62.5353C66.5061 63.0279 62.4663 67.4618 62.4663 72.7823C62.4663 74.3588 62.8605 75.9353 63.5502 77.3147H49.0663V53.8647C49.0663 52.1897 47.7855 50.9088 46.1105 50.9088H25.9119C24.2369 50.9088 22.9561 52.1897 22.9561 53.8647ZM73.6987 26.1779C73.6987 20.6603 82.0737 20.5618 82.0737 26.1779V30.4147H73.6987V26.1779ZM72.7134 64.5059C77.2458 64.5059 80.9899 68.1515 80.9899 72.7823C80.9899 80.2706 71.7281 83.9162 66.6046 78.3985C65.1266 76.8221 64.3384 74.8515 64.3384 72.7823C64.4369 68.1515 68.0825 64.5059 72.7134 64.5059ZM47.0958 53.8647V80.0735C47.0958 80.6647 46.7016 81.0588 46.1105 81.0588H25.9119C25.3208 81.0588 24.9266 80.6647 24.9266 80.0735V53.8647C24.9266 53.2735 25.3208 52.8794 25.9119 52.8794H46.1105C46.6031 52.8794 47.0958 53.2735 47.0958 53.8647Z" fill="#475DA9"/>
<path d="M27.8828 61.8456H44.1401C44.7313 61.8456 45.1254 61.4515 45.1254 60.8603V55.8353C45.1254 55.2441 44.7313 54.85 44.1401 54.85H27.8828C27.2916 54.85 26.8975 55.2441 26.8975 55.8353V60.8603C26.8975 61.3529 27.2916 61.8456 27.8828 61.8456ZM28.868 56.8206H43.1548V59.875H28.868V56.8206Z" fill="#475DA9"/>
<path d="M27.8828 66.772H30.2475C30.8386 66.772 31.2328 66.3779 31.2328 65.7867C31.2328 65.1956 30.8386 64.8015 30.2475 64.8015H27.8828C27.2916 64.8015 26.8975 65.1956 26.8975 65.7867C26.8975 66.3779 27.2916 66.772 27.8828 66.772Z" fill="#475DA9"/>
<path d="M37.2425 64.8015H34.7792C34.1881 64.8015 33.7939 65.1956 33.7939 65.7867C33.7939 66.3779 34.1881 66.772 34.7792 66.772H37.1439C37.7351 66.772 38.1292 66.3779 38.1292 65.7867C38.1292 65.1956 37.7351 64.8015 37.2425 64.8015Z" fill="#475DA9"/>
<path d="M44.14 64.8015H41.7753C41.1842 64.8015 40.79 65.1956 40.79 65.7867C40.79 66.3779 41.1842 66.772 41.7753 66.772H44.14C44.7312 66.772 45.1253 66.3779 45.1253 65.7867C45.1253 65.1956 44.6327 64.8015 44.14 64.8015Z" fill="#475DA9"/>
<path d="M27.8828 71.6985H30.2475C30.8386 71.6985 31.2328 71.3044 31.2328 70.7132C31.2328 70.1221 30.8386 69.7279 30.2475 69.7279H27.8828C27.2916 69.7279 26.8975 70.1221 26.8975 70.7132C26.8975 71.3044 27.2916 71.6985 27.8828 71.6985Z" fill="#475DA9"/>
<path d="M37.2425 69.7279H34.7792C34.1881 69.7279 33.7939 70.1221 33.7939 70.7132C33.7939 71.3044 34.1881 71.6985 34.7792 71.6985H37.1439C37.7351 71.6985 38.1292 71.3044 38.1292 70.7132C38.1292 70.1221 37.7351 69.7279 37.2425 69.7279Z" fill="#475DA9"/>
<path d="M27.8828 77.6103H30.2475C30.8386 77.6103 31.2328 77.2162 31.2328 76.625C31.2328 76.0338 30.8386 75.6397 30.2475 75.6397H27.8828C27.2916 75.6397 26.8975 76.0338 26.8975 76.625C26.8975 77.2162 27.2916 77.6103 27.8828 77.6103Z" fill="#475DA9"/>
<path d="M37.2425 75.6397H34.7792C34.1881 75.6397 33.7939 76.0338 33.7939 76.625C33.7939 77.2162 34.1881 77.6103 34.7792 77.6103H37.1439C37.7351 77.6103 38.1292 77.2162 38.1292 76.625C38.1292 76.0338 37.7351 75.6397 37.2425 75.6397Z" fill="#475DA9"/>
<path d="M42.958 69.7279C42.3668 69.7279 41.9727 70.1221 41.9727 70.7132V76.625C41.9727 77.2162 42.3668 77.6103 42.958 77.6103C43.5491 77.6103 43.9432 77.2162 43.9432 76.625V70.7132C43.9432 70.1221 43.4506 69.7279 42.958 69.7279Z" fill="#475DA9"/>
<path d="M33.7939 41.647C33.7939 42.2382 34.1881 42.6323 34.7792 42.6323H46.7998C47.391 42.6323 47.7851 42.2382 47.7851 41.647C47.7851 41.0559 47.391 40.6617 46.7998 40.6617H34.7792C34.2866 40.6617 33.7939 41.1544 33.7939 41.647Z" fill="#475DA9"/>
<path d="M51.1353 45.7853H34.9765C34.3853 45.7853 33.9912 46.1794 33.9912 46.7706C33.9912 47.3617 34.3853 47.7559 34.9765 47.7559H51.1353C51.7265 47.7559 52.1206 47.3617 52.1206 46.7706C52.1206 46.1794 51.7265 45.7853 51.1353 45.7853Z" fill="#475DA9"/>
<path d="M68.0825 59.6779C68.0825 59.0867 67.6884 58.6926 67.0973 58.6926H52.8105C52.2193 58.6926 51.8252 59.0867 51.8252 59.6779C51.8252 60.2691 52.2193 60.6632 52.8105 60.6632H67.0973C67.6884 60.6632 68.0825 60.2691 68.0825 59.6779Z" fill="#475DA9"/>
<path d="M62.1708 65.7867C62.1708 65.1956 61.7767 64.8015 61.1855 64.8015H52.8105C52.2193 64.8015 51.8252 65.1956 51.8252 65.7867C51.8252 66.3779 52.2193 66.772 52.8105 66.772H61.1855C61.7767 66.772 62.1708 66.2794 62.1708 65.7867Z" fill="#475DA9"/>
<path d="M52.8105 70.8118C52.2193 70.8118 51.8252 71.2059 51.8252 71.7971C51.8252 72.3882 52.2193 72.7824 52.8105 72.7824H58.4267C59.0178 72.7824 59.412 72.3882 59.412 71.7971C59.412 71.2059 59.0178 70.8118 58.4267 70.8118H52.8105Z" fill="#475DA9"/>
<path d="M65.2251 40.9574C64.7324 40.6618 64.1413 40.8588 63.8457 41.2529L57.5398 51.6971C57.2442 52.1897 57.4413 52.7809 57.8354 53.0765C58.328 53.3721 58.9192 53.175 59.2148 52.7809L65.5207 42.3368C65.8163 41.8441 65.6192 41.2529 65.2251 40.9574Z" fill="#475DA9"/>
<path d="M54.4854 43.6176C54.4854 45.2926 55.7662 46.5735 57.4412 46.5735C59.1162 46.5735 60.3971 45.2926 60.3971 43.6176C60.3971 41.9426 59.1162 40.6617 57.4412 40.6617C55.7662 40.6617 54.4854 42.0412 54.4854 43.6176ZM57.4412 42.6323C58.0324 42.6323 58.4265 43.0264 58.4265 43.6176C58.4265 44.2088 58.0324 44.6029 57.4412 44.6029C56.8501 44.6029 56.4559 44.2088 56.4559 43.6176C56.4559 43.125 56.8501 42.6323 57.4412 42.6323Z" fill="#475DA9"/>
<path d="M65.7176 47.4603C64.0426 47.4603 62.7617 48.7412 62.7617 50.4162C62.7617 52.0912 64.0426 53.3721 65.7176 53.3721C67.3926 53.3721 68.6735 52.0912 68.6735 50.4162C68.6735 48.7412 67.2941 47.4603 65.7176 47.4603ZM65.7176 51.4015C65.1264 51.4015 64.7323 51.0074 64.7323 50.4162C64.7323 49.825 65.1264 49.4309 65.7176 49.4309C66.3088 49.4309 66.7029 49.825 66.7029 50.4162C66.7029 51.0074 66.2102 51.4015 65.7176 51.4015Z" fill="#475DA9"/>
<path d="M40.9873 36.6221C41.5785 36.6221 41.9726 36.2279 41.9726 35.6368V28.05H44.6329C45.2241 28.05 45.6182 27.6559 45.6182 27.0647C45.6182 26.4735 45.2241 26.0794 44.6329 26.0794H37.3417C36.7506 26.0794 36.3564 26.4735 36.3564 27.0647C36.3564 27.6559 36.7506 28.05 37.3417 28.05H40.002V35.6368C40.002 36.1294 40.4947 36.6221 40.9873 36.6221Z" fill="#7BD834"/>
<path d="M51.4311 26.572C51.0369 25.9809 50.1502 25.9809 49.7561 26.572C49.559 26.8676 48.7708 28.7397 45.9134 35.2426C45.7163 35.7353 45.9134 36.3265 46.4061 36.5235C46.8987 36.7206 47.4899 36.5235 47.6869 36.0309L48.5737 34.0603H52.6134L53.5002 36.0309C53.6972 36.5235 54.2884 36.7206 54.7811 36.5235C55.2737 36.3265 55.4708 35.7353 55.2737 35.2426C54.2884 32.8779 51.6281 26.8676 51.4311 26.572ZM49.4605 31.9912L50.5443 29.4294L51.6281 31.9912H49.4605Z" fill="#7BD834"/>
<path d="M57.3425 36.425C57.7366 36.7206 58.4263 36.622 58.7219 36.2279L61.1851 32.9765L63.6483 36.2279C63.9439 36.622 64.6336 36.7206 65.0278 36.425C65.4219 36.1294 65.5204 35.4397 65.2248 35.0456L62.3675 31.3015L65.1263 27.6559C65.4219 27.2617 65.3233 26.572 64.9292 26.2765C64.5351 25.9809 63.8454 26.0794 63.5498 26.4735L61.0866 29.725L58.6233 26.4735C58.3278 26.0794 57.638 25.9809 57.2439 26.2765C56.8498 26.572 56.7513 27.2617 57.0469 27.6559L59.8057 31.3015L57.0469 34.947C56.8498 35.4397 56.9483 36.0309 57.3425 36.425Z" fill="#7BD834"/>
<path d="M72.7132 76.1324C71.9249 76.1324 71.2352 75.6397 71.2352 74.95C71.2352 74.3588 70.8411 73.9647 70.2499 73.9647C69.6588 73.9647 69.2646 74.3588 69.2646 74.95C69.2646 76.3294 70.2499 77.5118 71.7279 77.9059V78.6941C71.7279 79.2853 72.122 79.6794 72.7132 79.6794C73.3044 79.6794 73.6985 79.2853 73.6985 78.6941V77.9059C75.0779 77.5118 76.1617 76.3294 76.1617 74.95C76.1617 72.7824 73.8955 72.0926 73.1073 71.8956C71.9249 71.5015 71.3338 71.1074 71.3338 70.7132C71.3338 70.0235 72.0235 69.5309 72.8117 69.5309C73.5999 69.5309 74.2896 70.0235 74.2896 70.7132C74.2896 71.3044 74.6838 71.6985 75.2749 71.6985C76.9499 71.6985 76.4573 68.4471 73.797 67.7574V66.9691C73.797 66.3779 73.4029 65.9838 72.8117 65.9838C72.2205 65.9838 71.8264 66.3779 71.8264 66.9691V67.7574C70.447 68.1515 69.3632 69.3338 69.3632 70.7132C69.3632 72.7824 71.5308 73.4721 72.4176 73.7676C72.5161 73.8662 74.0926 74.1618 74.0926 74.95C74.0926 75.5412 73.5014 76.1324 72.7132 76.1324Z" fill="#7BD834"/>
</svg>
