<svg width="67" height="69" viewBox="0 0 67 69" fill="none" xmlns="http://www.w3.org/2000/svg">
<g opacity="0.5">
<path d="M50.5706 9.60215C50.6662 9.60215 50.7532 9.57609 50.8401 9.5327L66.3005 1.74644C66.5613 1.59889 66.6482 1.26038 66.5004 1C66.3526 0.739619 66.0223 0.652842 65.7528 0.800391L50.2924 8.58665C50.0316 8.7342 49.9447 9.07271 50.0924 9.33309C50.1968 9.50668 50.3793 9.60215 50.5706 9.60215Z" fill="#7BD834"/>
<path d="M32.5393 20H50.5704C50.8747 20 51.1182 19.757 51.1182 19.4532V9.06397C51.1182 8.91642 51.0573 8.77757 50.9617 8.6821C50.8574 8.57794 50.7182 8.52585 50.5791 8.52585H32.548C32.2438 8.52585 32.0003 8.76888 32.0003 9.07265V19.4619C32.0003 19.7483 32.2438 20 32.5393 20ZM50.0228 18.9064H33.0871V9.60211H50.0228V18.9064Z" fill="#7BD834"/>
</g>
<path opacity="0.5" d="M0.583755 38.7295C0.685181 38.7295 0.777416 38.7019 0.869625 38.6558L33.1053 20.0794C33.3819 19.9229 33.4741 19.5639 33.3174 19.2878C33.1606 19.0116 32.8103 18.9196 32.5244 19.076L0.288712 37.6524C0.0120888 37.8089 -0.0801277 38.168 0.0766258 38.4441C0.187275 38.6282 0.380898 38.7295 0.583755 38.7295Z" fill="#7BD834"/>
<path opacity="0.5" d="M47.5 68C47.4493 67.9122 47.3792 67.8461 47.2933 67.7893L1.07893 37.5747C0.805093 37.4133 0.448075 37.513 0.287289 37.7868C0.126503 38.0607 0.221985 38.4101 0.500432 38.5794L46.7148 68.794C46.9886 68.9554 47.3456 68.8557 47.5064 68.5819C47.6105 68.394 47.6014 68.1757 47.5 68Z" fill="#7BD834"/>
</svg>
