<svg width="100" height="100" viewBox="0 0 100 100" fill="none" xmlns="http://www.w3.org/2000/svg">
<circle cx="55.5" cy="52.5" r="43.5" fill="#0A1736"/>
<path d="M21 70V76M18 73H24" stroke="#7BD834" stroke-linecap="round" stroke-linejoin="round"/>
<path d="M92 28V34M89 31H95" stroke="#7BD834" stroke-linecap="round" stroke-linejoin="round"/>
<g clip-path="url(#clip0_94_12736)">
<rect x="34" y="44" width="48" height="34" rx="4" fill="#1F3969" fill-opacity="0.9"/>
<circle cx="73" cy="70" r="15" fill="#7BD834"/>
<path d="M53.2063 79.254H34.3255C31.3885 79.254 29 76.8654 29 73.9285V40.0714C29 39.2696 29.6506 38.619 30.4524 38.619H80.8016C81.6034 38.619 82.254 39.2696 82.254 40.0714V50.2063C82.254 51.0081 81.6034 51.6587 80.8016 51.6587C79.9998 51.6587 80.3492 51.0081 80.3492 50.2063V40.5237H30.9047V73.9287C30.9047 75.2638 31.9902 77.3492 33.3253 77.3492H53.2063C54.0081 77.3492 54.6587 76.9998 54.6587 77.8016C54.6587 78.6034 54.0081 79.254 53.2063 79.254Z" fill="#475DA9"/>
<path d="M49.8176 71.5079C49.0158 71.5079 48.3652 70.8573 48.3652 70.0555V46.8174C48.3652 46.0156 49.0158 45.365 49.8176 45.365C50.6194 45.365 51.27 46.0156 51.27 46.8174V70.0555C51.27 70.8573 50.6194 71.5079 49.8176 71.5079Z" fill="#475DA9"/>
<path d="M61.4367 53.6538C60.635 53.6538 59.9844 53.0032 59.9844 52.2014V46.8174C59.9844 46.0156 60.635 45.365 61.4367 45.365C62.2385 45.365 62.8891 46.0156 62.8891 46.8174V52.2014C62.8891 53.0032 62.2385 53.6538 61.4367 53.6538Z" fill="#475DA9"/>
<path d="M51.754 71.5079H38.1985C37.3967 71.5079 36.7461 70.8573 36.7461 70.0555V46.8174C36.7461 46.0156 37.3967 45.365 38.1985 45.365H73.0556C73.8573 45.365 74.508 46.0156 74.508 46.8174V48.754C74.508 49.5557 74.3018 50.5 73.5001 50.5C72.6983 50.5 72.7796 49.5557 72.7796 48.754V47.2698H38.6508V69.6032H51.754C52.5558 69.6032 53.2064 69.2538 53.2064 70.0555C53.2064 70.8573 52.5558 71.5079 51.754 71.5079Z" fill="#475DA9"/>
<path d="M58.4354 56.0158H38.1985C37.3967 56.0158 36.7461 55.3652 36.7461 54.5635C36.7461 53.7617 37.3967 53.1111 38.1985 53.1111H58.4354C59.2372 53.1111 59.8878 53.7617 59.8878 54.5635C59.8878 55.3652 59.2372 56.0158 58.4354 56.0158Z" fill="#475DA9"/>
<path d="M53.2064 63.7619H38.1985C37.3967 63.7619 36.7461 63.1113 36.7461 62.3095C36.7461 61.5077 37.3967 60.8571 38.1985 60.8571H53.2064C54.0081 60.8571 54.6587 61.5077 54.6587 62.3095C54.6587 63.1113 54.0081 63.7619 53.2064 63.7619Z" fill="#475DA9"/>
<path d="M80.8016 40.5237H30.4524C29.6506 40.5237 29 39.8731 29 39.0713V35.1984C29 32.2615 31.3885 29.8729 34.3255 29.8729H76.9287C79.8656 29.8729 82.2541 32.2615 82.2541 35.1984V39.0713C82.2541 39.8731 81.6034 40.5237 80.8016 40.5237ZM30.9047 38.619H80.3492V35.1984C80.3492 33.8633 79.2638 31.7779 77.9287 31.7779H33.3255C31.9904 31.7779 30.9049 33.8633 30.9049 35.1984L30.9047 38.619Z" fill="#475DA9"/>
<path d="M55.6272 32.7779C54.8254 32.7779 54.1748 32.1273 54.1748 31.3255V27.4524C54.1748 26.6506 54.8254 26 55.6272 26C56.4289 26 57.0795 26.6506 57.0795 27.4524V31.3255C57.0795 32.1273 56.4289 32.7779 55.6272 32.7779Z" fill="#475DA9"/>
<path d="M45.9446 32.7779C45.1428 32.7779 44.4922 32.1273 44.4922 31.3255V27.4524C44.4922 26.6506 45.1428 26 45.9446 26C46.7463 26 47.3969 26.6506 47.3969 27.4524V31.3255C47.3969 32.1273 46.7463 32.7779 45.9446 32.7779Z" fill="#475DA9"/>
<path d="M36.2619 32.7779C35.4602 32.7779 34.8096 32.1273 34.8096 31.3255V27.4524C34.8096 26.6506 35.4602 26 36.2619 26C37.0637 26 37.7143 26.6506 37.7143 27.4524V31.3255C37.7143 32.1273 37.0637 32.7779 36.2619 32.7779Z" fill="#475DA9"/>
<path d="M65.3098 32.7779C64.508 32.7779 63.8574 32.1273 63.8574 31.3255V27.4524C63.8574 26.6506 64.508 26 65.3098 26C66.1116 26 66.7622 26.6506 66.7622 27.4524V31.3255C66.7622 32.1273 66.1116 32.7779 65.3098 32.7779Z" fill="#475DA9"/>
<path d="M74.9924 32.7779C74.1906 32.7779 73.54 32.1273 73.54 31.3255V27.4524C73.54 26.6506 74.1906 26 74.9924 26C75.7942 26 76.4448 26.6506 76.4448 27.4524V31.3255C76.4448 32.1273 75.7942 32.7779 74.9924 32.7779Z" fill="#475DA9"/>
<path d="M73.0558 87C63.7127 87 56.1113 79.3996 56.1113 70.0555C56.1113 60.7115 63.7127 53.1111 73.0558 53.1111C82.3989 53.1111 90.0003 60.7115 90.0003 70.0555C90.0003 79.3996 82.3989 87 73.0558 87ZM73.0558 56.0158C65.3145 56.0158 59.0161 62.3133 59.0161 70.0555C59.0161 77.7978 65.3145 84.0953 73.0558 84.0953C80.7971 84.0953 87.0955 77.7978 87.0955 70.0555C87.0955 62.3133 80.7971 56.0158 73.0558 56.0158Z" fill="#475DA9"/>
<path d="M73.0555 78.367C70.5734 78.367 68.5537 76.3473 68.5537 73.8661C68.5537 73.0643 69.2043 72.4137 70.0061 72.4137C70.8079 72.4137 71.4585 73.0643 71.4585 73.8661C71.4585 74.7455 72.1752 75.4622 73.0555 75.4622C73.9358 75.4622 74.6526 74.7455 74.6526 73.8661V73.3857C74.6526 72.5403 74.0805 71.8085 73.2616 71.6043L72.1449 71.3245C70.0316 70.7969 68.5537 68.9059 68.5537 66.7253V66.2449C68.5537 63.7638 70.5734 61.7441 73.0555 61.7441C75.5376 61.7441 77.5573 63.7638 77.5573 66.2449C77.5573 67.0467 76.9067 67.6973 76.1049 67.6973C75.3032 67.6973 74.6526 67.0467 74.6526 66.2449C74.6526 65.3656 73.9358 64.6488 73.0555 64.6488C72.1752 64.6488 71.4585 65.3656 71.4585 66.2449V66.7253C71.4585 67.5707 72.0305 68.3025 72.8494 68.5067L73.9661 68.7865C76.0794 69.3142 77.5573 71.2052 77.5573 73.3857V73.8661C77.5573 76.3473 75.5376 78.367 73.0555 78.367Z" fill="#475DA9"/>
<path d="M73.0559 80.8615C72.2541 80.8615 71.6035 80.2109 71.6035 79.4091V76.9148C71.6035 76.113 72.2541 75.4624 73.0559 75.4624C73.8577 75.4624 74.5083 76.113 74.5083 76.9148V79.4091C74.5083 80.2109 73.8577 80.8615 73.0559 80.8615Z" fill="#475DA9"/>
<path d="M73.0559 64.6488C72.2541 64.6488 71.6035 63.9982 71.6035 63.1965V60.7021C71.6035 59.9004 72.2541 59.2498 73.0559 59.2498C73.8577 59.2498 74.5083 59.9004 74.5083 60.7021V63.1965C74.5083 63.9982 73.8577 64.6488 73.0559 64.6488Z" fill="#475DA9"/>
</g>
<defs>
<clipPath id="clip0_94_12736">
<rect width="61" height="61" fill="white" transform="translate(29 26)"/>
</clipPath>
</defs>
</svg>
