<svg width="40" height="41" viewBox="0 0 40 41" fill="none" xmlns="http://www.w3.org/2000/svg">
<circle cx="20" cy="20.2476" r="20" fill="#F8F8F8"/>
<path d="M12.2739 9.48096C10.7738 9.48096 9.79297 10.4659 9.79297 11.7605C9.79297 13.0265 10.7446 14.0396 12.2164 14.0396H12.2448C13.7743 14.0396 14.7262 13.0265 14.7262 11.7605C14.6976 10.4659 13.7743 9.48096 12.2739 9.48096Z" fill="#598638"/>
<path d="M10.0527 15.8364H14.4383V29.0291H10.0527V15.8364Z" fill="#598638"/>
<path d="M25.2032 15.5298C22.8373 15.5298 21.2509 17.7527 21.2509 17.7527V15.8394H16.8652V29.032H21.2507V21.6648C21.2507 21.2704 21.2793 20.8766 21.3951 20.5945C21.7122 19.807 22.4336 18.9911 23.6452 18.9911C25.2321 18.9911 25.8668 20.2009 25.8668 21.9744V29.032H30.252V21.4676C30.252 17.4154 28.0883 15.5298 25.2032 15.5298Z" fill="#598638"/>
</svg>
