<svg width="40" height="41" viewBox="0 0 40 41" fill="none" xmlns="http://www.w3.org/2000/svg">
<circle cx="20" cy="20.2476" r="20" fill="#F8F8F8"/>
<path d="M30.2254 16.3817C30.143 14.7487 29.6841 13.1382 28.494 11.9607C27.2923 10.772 25.6742 10.3291 24.0254 10.2476H15.2C13.551 10.3291 11.9331 10.7718 10.7315 11.9607C9.54129 13.1382 9.08245 14.7487 9 16.3817V25.1133C9.08245 26.7465 9.54136 28.3569 10.7315 29.5344C11.9331 30.723 13.5512 31.1659 15.2 31.2476H24.0254C25.6744 31.1659 27.2922 30.7233 28.4939 29.5344C29.6841 28.3569 30.1429 26.7465 30.2254 25.1133L30.2254 16.3817ZM10.9553 16.5476C10.987 15.3516 11.3 14.2825 12.1282 13.3976C12.9252 12.546 14.1934 12.2678 15.3121 12.237C17.4617 12.1781 21.7643 12.1781 23.914 12.237C25.0326 12.2678 26.3008 12.5462 27.0978 13.3976C27.9261 14.2825 28.239 15.3516 28.2708 16.5476V24.9475C28.239 26.1435 27.9261 27.2127 27.0978 28.0976C26.3008 28.9492 25.0326 29.2274 23.914 29.2581C21.7643 29.317 17.4617 29.317 15.3121 29.2581C14.1934 29.2274 12.9252 28.9489 12.1282 28.0976C11.3 27.2127 10.9916 26.1434 10.9553 24.9475C10.9553 24.9475 10.8991 18.6468 10.9553 16.5476Z" fill="#598638"/>
<path d="M25.2276 16.3132C25.8452 16.3132 26.3459 15.8125 26.3459 15.1949C26.3459 14.5773 25.8452 14.0767 25.2276 14.0767C24.61 14.0767 24.1094 14.5773 24.1094 15.1949C24.1094 15.8125 24.61 16.3132 25.2276 16.3132Z" fill="#598638"/>
<path d="M19.6118 15.1553C18.5059 15.1553 17.4249 15.4832 16.5054 16.0976C15.586 16.7119 14.8693 17.5852 14.4461 18.6068C14.0229 19.6285 13.9122 20.7527 14.1279 21.8373C14.3437 22.9219 14.8762 23.9182 15.6581 24.7001C16.4401 25.4821 17.4363 26.0146 18.5209 26.2303C19.6055 26.4461 20.7297 26.3354 21.7514 25.9122C22.7731 25.489 23.6463 24.7724 24.2607 23.8529C24.8751 22.9334 25.203 21.8524 25.203 20.7466C25.203 20.0123 25.0584 19.2853 24.7774 18.6069C24.4964 17.9285 24.0846 17.3121 23.5654 16.7929C23.0462 16.2737 22.4298 15.8619 21.7515 15.5809C21.0731 15.2999 20.346 15.1553 19.6118 15.1553ZM19.6118 24.3538C18.8983 24.3538 18.2009 24.1423 17.6077 23.7459C17.0145 23.3495 16.5521 22.7862 16.2791 22.127C16.0061 21.4679 15.9346 20.7426 16.0738 20.0428C16.213 19.3431 16.5566 18.7004 17.061 18.1959C17.5655 17.6914 18.2083 17.3478 18.908 17.2086C19.6078 17.0695 20.3331 17.1409 20.9922 17.4139C21.6513 17.6869 22.2147 18.1493 22.6111 18.7425C23.0075 19.3357 23.219 20.0331 23.219 20.7466C23.219 21.7033 22.839 22.6208 22.1625 23.2973C21.486 23.9738 20.5685 24.3538 19.6118 24.3538Z" fill="#598638"/>
</svg>
