<svg width="15" height="15" viewBox="0 0 15 15" fill="none" xmlns="http://www.w3.org/2000/svg">
<path d="M14.8211 5.70065C14.7238 5.39975 14.4569 5.18604 14.1412 5.15758L9.85222 4.76814L8.15626 0.798569C8.03121 0.507651 7.74641 0.319336 7.42998 0.319336C7.11355 0.319336 6.82876 0.507651 6.70371 0.799249L5.00774 4.76814L0.718111 5.15758C0.40293 5.18672 0.136727 5.39975 0.0388855 5.70065C-0.0589565 6.00154 0.0314028 6.33157 0.269829 6.53961L3.51177 9.38281L2.55579 13.5939C2.48584 13.9035 2.60602 14.2236 2.86293 14.4093C3.00101 14.509 3.16257 14.5598 3.32549 14.5598C3.46596 14.5598 3.6053 14.522 3.73035 14.4471L7.42998 12.236L11.1283 14.4471C11.3989 14.6099 11.74 14.5951 11.9964 14.4093C12.2534 14.223 12.3734 13.9028 12.3035 13.5939L11.3475 9.38281L14.5895 6.54018C14.8279 6.33157 14.9189 6.00211 14.8211 5.70065Z" fill="#F5AE00"/>
</svg>
