<svg width="69" height="69" viewBox="0 0 69 69" fill="none" xmlns="http://www.w3.org/2000/svg">
<circle cx="38.2424" cy="36.1754" r="29.9739" fill="#BCD5FF"/>
<rect x="20" y="11" width="24" height="31" rx="2.75622" fill="#1F3969" fill-opacity="0.9"/>
<rect x="6.89062" y="44.7886" width="51.6791" height="4.82338" rx="1.37811" fill="#BCD5FF"/>
<path d="M39.2766 55.8134H26.1846L28.6614 49.6119H36.7997L39.2766 55.8134Z" fill="#102140"/>
<rect x="23.4199" y="26.3809" width="18.8112" height="12.5999" rx="1.37811" fill="#7BD834"/>
<path d="M42.8409 42.493H22.0854C20.9557 42.493 20.0303 41.5633 20.0303 40.4282V12.3542C20.0303 11.2191 20.9557 10.2894 22.0854 10.2894H42.8409C43.9707 10.2894 44.8961 11.2191 44.8961 12.3542V40.4282C44.8961 41.5633 43.9707 42.493 42.8409 42.493ZM22.0854 11.4969C21.6167 11.4969 21.2321 11.8832 21.2321 12.3542V40.4282C21.2321 40.8991 21.6167 41.2855 22.0854 41.2855H42.8409C43.3097 41.2855 43.6942 40.8991 43.6942 40.4282V12.3542C43.6942 11.8832 43.3097 11.4969 42.8409 11.4969H22.0854Z" fill="#475DA9"/>
<path d="M28.1547 21.7243C27.3254 21.7243 26.6043 21.1326 26.424 20.3236C26.3519 19.9976 26.5563 19.6715 26.8807 19.6112C27.2052 19.5387 27.5297 19.744 27.5898 20.07C27.6499 20.3236 27.8783 20.5168 28.1427 20.5168C28.4551 20.5168 28.7075 20.2632 28.7075 19.9493C28.7075 19.6353 28.4551 19.3817 28.1427 19.3817C27.1692 19.3817 26.376 18.5848 26.376 17.6067C26.376 16.6287 27.1692 15.8317 28.1427 15.8317C28.9719 15.8317 29.693 16.4234 29.8733 17.2324C29.9454 17.5584 29.7411 17.8845 29.4166 17.9448C29.0921 18.0173 28.7676 17.812 28.7075 17.486C28.6474 17.2324 28.4191 17.0392 28.1547 17.0392C27.8422 17.0392 27.5898 17.2928 27.5898 17.6067C27.5898 17.9207 27.8422 18.1742 28.1547 18.1742C29.1282 18.1742 29.9214 18.9712 29.9214 19.9493C29.9214 20.9273 29.1282 21.7243 28.1547 21.7243Z" fill="#7BD834"/>
<path d="M28.1546 17.0513C27.8181 17.0513 27.5537 16.7856 27.5537 16.4475V15.7834C27.5537 15.4453 27.8181 15.1797 28.1546 15.1797C28.4911 15.1797 28.7555 15.4453 28.7555 15.7834V16.4475C28.7555 16.7736 28.4911 17.0513 28.1546 17.0513Z" fill="#7BD834"/>
<path d="M28.1546 22.3884C27.8181 22.3884 27.5537 22.1227 27.5537 21.7846V21.1205C27.5537 20.7824 27.8181 20.5168 28.1546 20.5168C28.4911 20.5168 28.7555 20.7824 28.7555 21.1205V21.7846C28.7555 22.1227 28.4911 22.3884 28.1546 22.3884Z" fill="#7BD834"/>
<path d="M40.6062 39.5951H24.3214C23.36 39.5951 22.5908 38.8102 22.5908 37.8563V28.0515C22.5908 27.0855 23.372 26.3127 24.3214 26.3127H40.6062C41.5677 26.3127 42.3368 27.0976 42.3368 28.0515V37.8563C42.3368 38.8102 41.5677 39.5951 40.6062 39.5951ZM24.3214 27.5202C24.033 27.5202 23.7926 27.7617 23.7926 28.0515V37.8563C23.7926 38.1461 24.033 38.3876 24.3214 38.3876H40.6062C40.8946 38.3876 41.135 38.1461 41.135 37.8563V28.0515C41.135 27.7617 40.8946 27.5202 40.6062 27.5202H24.3214Z" fill="#475DA9"/>
<path d="M35.8704 39.5951C35.5339 39.5951 35.2695 39.3294 35.2695 38.9914V26.9165C35.2695 26.5784 35.5339 26.3127 35.8704 26.3127C36.207 26.3127 36.4714 26.5784 36.4714 26.9165V38.9914C36.4714 39.3294 36.207 39.5951 35.8704 39.5951Z" fill="#475DA9"/>
<path d="M41.7359 31.2272H23.1917C22.8552 31.2272 22.5908 30.9616 22.5908 30.6235C22.5908 30.2854 22.8552 30.0197 23.1917 30.0197H41.7479C42.0844 30.0197 42.3488 30.2854 42.3488 30.6235C42.3488 30.9616 42.0724 31.2272 41.7359 31.2272Z" fill="#475DA9"/>
<path d="M41.7359 35.8881H23.1917C22.8552 35.8881 22.5908 35.6224 22.5908 35.2843C22.5908 34.9463 22.8552 34.6806 23.1917 34.6806H41.7479C42.0844 34.6806 42.3488 34.9463 42.3488 35.2843C42.3488 35.6224 42.0724 35.8881 41.7359 35.8881Z" fill="#475DA9"/>
<path d="M28.1553 24.3807C25.0786 24.3807 22.5908 21.8692 22.5908 18.7901C22.5908 15.711 25.0906 13.1994 28.1673 13.1994C31.244 13.1994 33.7438 15.711 33.7438 18.7901C33.7438 21.8692 31.232 24.3807 28.1553 24.3807ZM28.1553 14.3948C25.7516 14.3948 23.7926 16.363 23.7926 18.778C23.7926 21.193 25.7516 23.1612 28.1673 23.1612C30.583 23.1612 32.5419 21.193 32.5419 18.778C32.5419 16.363 30.5709 14.3948 28.1553 14.3948Z" fill="#7BD834"/>
<path d="M41.4833 14.8658H34.8372C34.5007 14.8658 34.2363 14.6001 34.2363 14.262C34.2363 13.9239 34.5007 13.6583 34.8372 13.6583H41.4954C41.8319 13.6583 42.0963 13.9239 42.0963 14.262C42.0963 14.6001 41.8199 14.8658 41.4833 14.8658Z" fill="#475DA9"/>
<path d="M41.4834 17.8724H36.8324C36.4958 17.8724 36.2314 17.6068 36.2314 17.2687C36.2314 16.9306 36.4958 16.6649 36.8324 16.6649H41.4834C41.8199 16.6649 42.0843 16.9306 42.0843 17.2687C42.0843 17.6068 41.8199 17.8724 41.4834 17.8724Z" fill="#475DA9"/>
<path d="M41.4834 20.8791H36.8324C36.4958 20.8791 36.2314 20.6134 36.2314 20.2753C36.2314 19.9372 36.4958 19.6716 36.8324 19.6716H41.4834C41.8199 19.6716 42.0843 19.9372 42.0843 20.2753C42.0843 20.6134 41.8199 20.8791 41.4834 20.8791Z" fill="#475DA9"/>
<path d="M41.4833 23.8736H34.8372C34.5007 23.8736 34.2363 23.608 34.2363 23.2699C34.2363 22.9318 34.5007 22.6661 34.8372 22.6661H41.4954C41.8319 22.6661 42.0963 22.9318 42.0963 23.2699C42.0963 23.608 41.8199 23.8736 41.4833 23.8736Z" fill="#475DA9"/>
<path d="M58.429 45.5117H6.51009C6.17358 45.5117 5.90918 45.2461 5.90918 44.908C5.90918 44.5699 6.17358 44.3043 6.51009 44.3043H58.429C58.7655 44.3043 59.0299 44.5699 59.0299 44.908C59.0299 45.2461 58.7535 45.5117 58.429 45.5117Z" fill="#475DA9"/>
<path d="M55.4965 50.4142H9.43053C7.48357 50.4142 5.90918 48.8203 5.90918 46.8762V20.9998C5.90918 19.0437 7.49559 17.4619 9.43053 17.4619H20.6316C20.9681 17.4619 21.2325 17.7275 21.2325 18.0656C21.2325 18.4037 21.0087 18.9491 20.6722 18.9491H9.43053C8.14458 18.9491 7.58015 19.7199 7.58015 20.9998V46.8762C7.58015 48.1682 8.15659 48.9229 9.43053 48.9229H55.5085C56.7945 48.9229 57.5366 48.1562 57.5366 46.8762V20.9998C57.5366 19.7078 56.7705 18.9491 55.4965 18.9491H44.3075C43.971 18.9491 43.7066 18.4037 43.7066 18.0656C43.7066 17.7275 43.971 17.4619 44.3075 17.4619H55.5085C57.4555 17.4619 59.0299 19.0557 59.0299 20.9998V46.8762C59.0299 48.8323 57.4435 50.4142 55.4965 50.4142Z" fill="#475DA9"/>
<path d="M38.6474 56.041C38.407 56.041 38.1786 55.8961 38.0825 55.6546L35.8832 50.0278C35.763 49.7138 35.9192 49.3636 36.2197 49.2429C36.5321 49.1221 36.8807 49.2791 37.0009 49.581L39.2002 55.2079C39.3204 55.5218 39.1641 55.872 38.8637 55.9927C38.7916 56.029 38.7195 56.041 38.6474 56.041ZM26.2806 56.041C26.2085 56.041 26.1363 56.029 26.0642 56.0048C25.7518 55.8841 25.6075 55.5339 25.7277 55.2199L27.9271 49.5931C28.0472 49.2791 28.3958 49.1342 28.7083 49.255C29.0207 49.3757 29.1649 49.7259 29.0448 50.0398L26.8454 55.6546C26.7493 55.8961 26.5209 56.041 26.2806 56.041Z" fill="#475DA9"/>
<path d="M41.5557 56.041H23.3841C23.0476 56.041 22.7832 55.7754 22.7832 55.4373C22.7832 55.0992 23.0476 54.8336 23.3841 54.8336H41.5557C41.8922 54.8336 42.1566 55.0992 42.1566 55.4373C42.1566 55.7754 41.8802 56.041 41.5557 56.041Z" fill="#475DA9"/>
<path d="M6.20193 10.3358V14.4701M4.13477 12.403H8.26909" stroke="#7BD834" stroke-width="0.689055" stroke-linecap="round" stroke-linejoin="round"/>
<path d="M62.0154 49.6119V53.7463M59.9482 51.6791H64.0826" stroke="#7BD834" stroke-width="0.689055" stroke-linecap="round" stroke-linejoin="round"/>
</svg>
