<svg width="69" height="70" viewBox="0 0 69 70" fill="none" xmlns="http://www.w3.org/2000/svg">
<circle cx="38.1086" cy="35.7027" r="29.9739" fill="#BCD5FF"/>
<path d="M9.64666 25.0223V27.7786M8.26855 26.4004H11.0248" stroke="#7BD834" stroke-width="0.551244" stroke-linecap="round" stroke-linejoin="round"/>
<path d="M14.4705 19.5099V23.6443M12.4033 21.5771H16.5376" stroke="#7BD834" stroke-width="0.689055" stroke-linecap="round" stroke-linejoin="round"/>
<path d="M22.7562 55.1343C21.234 55.1343 20 53.9003 20 52.3781L20 18.6144C20 17.0922 21.234 15.8582 22.7562 15.8582L50.3184 15.8582L50.3184 52.3781C50.3184 53.9003 49.0844 55.1343 47.5622 55.1343L22.7562 55.1343Z" fill="#1F3969" fill-opacity="0.9"/>
<rect x="16.5371" y="57.4079" width="20.6716" height="16.5373" rx="2.75622" transform="rotate(-90 16.5371 57.4079)" fill="#7BD834"/>
<path d="M15.8184 38.0212V56.0805C15.8184 57.2346 16.701 58.1172 17.8551 58.1172H31.773C32.9272 58.1172 33.8098 57.2346 33.8098 56.0805V55.5373H44.6046C46.0304 57.2346 47.9992 58.1172 50.036 58.1172C53.9059 58.1172 57.0968 54.9263 57.0968 51.0565C57.0968 47.3224 54.2453 44.3351 50.7149 43.9957V23.1528H57.2326C57.6399 23.1528 57.9115 22.8812 57.9115 22.4739V18.9435C57.9115 16.5672 56.0105 14.6663 53.6343 14.6663H23.626C21.2497 14.6663 19.3488 16.5672 19.3488 18.9435V33.2687C19.3488 33.6761 19.6203 33.9476 20.0277 33.9476C20.435 33.9476 20.7066 33.6761 20.7066 33.2687V18.9435C20.7066 17.3141 21.9965 16.0241 23.626 16.0241H50.5791C49.9002 16.7709 49.425 17.7893 49.425 18.9435V43.9957C45.8267 44.3351 43.0431 47.3903 43.0431 51.0565C43.0431 52.1427 43.3147 53.229 43.7899 54.1795H33.8098V38.0212C33.8098 36.867 32.9272 35.9844 31.773 35.9844H17.8551C16.701 35.9844 15.8184 36.867 15.8184 38.0212ZM50.7828 18.9435C50.7828 15.1415 56.5536 15.0736 56.5536 18.9435V21.8628H50.7828V18.9435ZM50.1039 45.3535C53.2269 45.3535 55.8068 47.8655 55.8068 51.0565C55.8068 56.2163 49.425 58.7283 45.8946 54.9263C44.8762 53.84 44.3331 52.4822 44.3331 51.0565C44.401 47.8655 46.913 45.3535 50.1039 45.3535ZM32.4519 38.0212V56.0805C32.4519 56.4878 32.1804 56.7594 31.773 56.7594H17.8551C17.4478 56.7594 17.1762 56.4878 17.1762 56.0805V38.0212C17.1762 37.6138 17.4478 37.3422 17.8551 37.3422H31.773C32.1125 37.3422 32.4519 37.6138 32.4519 38.0212Z" fill="#475DA9"/>
<path d="M19.2131 43.5204H30.4153C30.8227 43.5204 31.0942 43.2488 31.0942 42.8415V39.379C31.0942 38.9716 30.8227 38.7001 30.4153 38.7001H19.2131C18.8057 38.7001 18.5342 38.9716 18.5342 39.379V42.8415C18.5342 43.181 18.8057 43.5204 19.2131 43.5204ZM19.892 40.0579H29.7364V42.1626H19.892V40.0579Z" fill="#475DA9"/>
<path d="M19.2131 46.915H20.8425C21.2499 46.915 21.5214 46.6435 21.5214 46.2361C21.5214 45.8288 21.2499 45.5572 20.8425 45.5572H19.2131C18.8057 45.5572 18.5342 45.8288 18.5342 46.2361C18.5342 46.6435 18.8057 46.915 19.2131 46.915Z" fill="#475DA9"/>
<path d="M25.6624 45.5572H23.9651C23.5577 45.5572 23.2861 45.8288 23.2861 46.2361C23.2861 46.6435 23.5577 46.915 23.9651 46.915H25.5945C26.0018 46.915 26.2734 46.6435 26.2734 46.2361C26.2734 45.8288 26.0018 45.5572 25.6624 45.5572Z" fill="#475DA9"/>
<path d="M30.4148 45.5572H28.7854C28.378 45.5572 28.1064 45.8288 28.1064 46.2361C28.1064 46.6435 28.378 46.915 28.7854 46.915H30.4148C30.8221 46.915 31.0937 46.6435 31.0937 46.2361C31.0937 45.8288 30.7542 45.5572 30.4148 45.5572Z" fill="#475DA9"/>
<path d="M19.2131 50.3096H20.8425C21.2499 50.3096 21.5214 50.0381 21.5214 49.6307C21.5214 49.2234 21.2499 48.9518 20.8425 48.9518H19.2131C18.8057 48.9518 18.5342 49.2234 18.5342 49.6307C18.5342 50.0381 18.8057 50.3096 19.2131 50.3096Z" fill="#475DA9"/>
<path d="M25.6624 48.9518H23.9651C23.5577 48.9518 23.2861 49.2234 23.2861 49.6307C23.2861 50.0381 23.5577 50.3096 23.9651 50.3096H25.5945C26.0018 50.3096 26.2734 50.0381 26.2734 49.6307C26.2734 49.2234 26.0018 48.9518 25.6624 48.9518Z" fill="#475DA9"/>
<path d="M19.2131 54.3832H20.8425C21.2499 54.3832 21.5214 54.1116 21.5214 53.7043C21.5214 53.2969 21.2499 53.0253 20.8425 53.0253H19.2131C18.8057 53.0253 18.5342 53.2969 18.5342 53.7043C18.5342 54.1116 18.8057 54.3832 19.2131 54.3832Z" fill="#475DA9"/>
<path d="M25.6624 53.0253H23.9651C23.5577 53.0253 23.2861 53.2969 23.2861 53.7043C23.2861 54.1116 23.5577 54.3832 23.9651 54.3832H25.5945C26.0018 54.3832 26.2734 54.1116 26.2734 53.7043C26.2734 53.2969 26.0018 53.0253 25.6624 53.0253Z" fill="#475DA9"/>
<path d="M29.6008 48.9518C29.1934 48.9518 28.9219 49.2234 28.9219 49.6307V53.7042C28.9219 54.1116 29.1934 54.3832 29.6008 54.3832C30.0081 54.3832 30.2797 54.1116 30.2797 53.7042V49.6307C30.2797 49.2234 29.9403 48.9518 29.6008 48.9518Z" fill="#475DA9"/>
<path d="M23.2861 29.6025C23.2861 30.0099 23.5577 30.2814 23.9651 30.2814H32.2479C32.6553 30.2814 32.9268 30.0099 32.9268 29.6025C32.9268 29.1952 32.6553 28.9236 32.2479 28.9236H23.9651C23.6256 28.9236 23.2861 29.263 23.2861 29.6025Z" fill="#475DA9"/>
<path d="M35.2351 32.454H24.1008C23.6934 32.454 23.4219 32.7255 23.4219 33.1329C23.4219 33.5403 23.6934 33.8118 24.1008 33.8118H35.2351C35.6425 33.8118 35.914 33.5403 35.914 33.1329C35.914 32.7255 35.6425 32.454 35.2351 32.454Z" fill="#475DA9"/>
<path d="M46.9131 42.0268C46.9131 41.6195 46.6416 41.3479 46.2342 41.3479H36.3899C35.9825 41.3479 35.7109 41.6195 35.7109 42.0268C35.7109 42.4342 35.9825 42.7057 36.3899 42.7057H46.2342C46.6416 42.7057 46.9131 42.4342 46.9131 42.0268Z" fill="#475DA9"/>
<path d="M42.8396 46.2361C42.8396 45.8288 42.568 45.5572 42.1607 45.5572H36.3899C35.9825 45.5572 35.7109 45.8288 35.7109 46.2361C35.7109 46.6435 35.9825 46.915 36.3899 46.915H42.1607C42.568 46.915 42.8396 46.5756 42.8396 46.2361Z" fill="#475DA9"/>
<path d="M36.3899 49.6986C35.9825 49.6986 35.7109 49.9702 35.7109 50.3775C35.7109 50.7849 35.9825 51.0565 36.3899 51.0565H40.2597C40.6671 51.0565 40.9386 50.7849 40.9386 50.3775C40.9386 49.9702 40.6671 49.6986 40.2597 49.6986H36.3899Z" fill="#475DA9"/>
<path d="M44.9444 29.1273C44.605 28.9236 44.1976 29.0594 43.9939 29.331L39.6488 36.5275C39.4452 36.867 39.581 37.2744 39.8525 37.478C40.192 37.6817 40.5993 37.5459 40.803 37.2744L45.1481 30.0778C45.3518 29.7383 45.216 29.331 44.9444 29.1273Z" fill="#475DA9"/>
<path d="M37.5439 30.9603C37.5439 32.1145 38.4265 32.9971 39.5807 32.9971C40.7349 32.9971 41.6175 32.1145 41.6175 30.9603C41.6175 29.8062 40.7349 28.9236 39.5807 28.9236C38.4265 28.9236 37.5439 29.8741 37.5439 30.9603ZM39.5807 30.2814C39.9881 30.2814 40.2596 30.553 40.2596 30.9603C40.2596 31.3677 39.9881 31.6393 39.5807 31.6393C39.1734 31.6393 38.9018 31.3677 38.9018 30.9603C38.9018 30.6209 39.1734 30.2814 39.5807 30.2814Z" fill="#475DA9"/>
<path d="M45.2838 33.6082C44.1297 33.6082 43.2471 34.4908 43.2471 35.645C43.2471 36.7991 44.1297 37.6817 45.2838 37.6817C46.438 37.6817 47.3206 36.7991 47.3206 35.645C47.3206 34.4908 46.3701 33.6082 45.2838 33.6082ZM45.2838 36.3239C44.8765 36.3239 44.6049 36.0523 44.6049 35.645C44.6049 35.2376 44.8765 34.9661 45.2838 34.9661C45.6912 34.9661 45.9628 35.2376 45.9628 35.645C45.9628 36.0523 45.6233 36.3239 45.2838 36.3239Z" fill="#475DA9"/>
<path d="M28.2427 26.1401C28.65 26.1401 28.9216 25.8685 28.9216 25.4611V20.2335H30.7547C31.1621 20.2335 31.4336 19.9619 31.4336 19.5545C31.4336 19.1472 31.1621 18.8756 30.7547 18.8756H25.7307C25.3233 18.8756 25.0518 19.1472 25.0518 19.5545C25.0518 19.9619 25.3233 20.2335 25.7307 20.2335H27.5638V25.4611C27.5638 25.8006 27.9032 26.1401 28.2427 26.1401Z" fill="#7BD834"/>
<path d="M35.439 19.2151C35.1674 18.8077 34.5564 18.8077 34.2848 19.2151C34.149 19.4187 33.6059 20.7087 31.637 25.1896C31.5012 25.529 31.637 25.9364 31.9765 26.0722C32.3159 26.208 32.7233 26.0722 32.8591 25.7327L33.4701 24.3749H36.2537L36.8647 25.7327C37.0005 26.0722 37.4078 26.208 37.7473 26.0722C38.0868 25.9364 38.2225 25.529 38.0868 25.1896C37.4078 23.5602 35.5747 19.4187 35.439 19.2151ZM34.0811 22.9491L34.8279 21.1839L35.5747 22.9491H34.0811Z" fill="#7BD834"/>
<path d="M39.5125 26.0043C39.7841 26.2079 40.2593 26.14 40.463 25.8685L42.1603 23.628L43.8576 25.8685C44.0613 26.14 44.5366 26.2079 44.8081 26.0043C45.0797 25.8006 45.1476 25.3253 44.9439 25.0538L42.975 22.4739L44.876 19.9619C45.0797 19.6903 45.0118 19.215 44.7402 19.0114C44.4687 18.8077 43.9934 18.8756 43.7897 19.1472L42.0924 21.3876L40.3951 19.1472C40.1915 18.8756 39.7162 18.8077 39.4446 19.0114C39.1731 19.215 39.1052 19.6903 39.3089 19.9619L41.2098 22.4739L39.3089 24.9859C39.1731 25.3253 39.241 25.7327 39.5125 26.0043Z" fill="#7BD834"/>
<path d="M50.1038 53.3648C49.5606 53.3648 49.0854 53.0253 49.0854 52.5501C49.0854 52.1427 48.8138 51.8712 48.4065 51.8712C47.9991 51.8712 47.7275 52.1427 47.7275 52.5501C47.7275 53.5006 48.4065 54.3153 49.4248 54.5868V55.13C49.4248 55.5373 49.6964 55.8089 50.1038 55.8089C50.5111 55.8089 50.7827 55.5373 50.7827 55.13V54.5868C51.7332 54.3153 52.48 53.5006 52.48 52.5501C52.48 51.0564 50.9185 50.5812 50.3753 50.4454C49.5606 50.1738 49.1533 49.9023 49.1533 49.6307C49.1533 49.1555 49.6285 48.816 50.1717 48.816C50.7148 48.816 51.19 49.1555 51.19 49.6307C51.19 50.0381 51.4616 50.3096 51.869 50.3096C53.0231 50.3096 52.6837 48.0692 50.8506 47.5939V47.0508C50.8506 46.6435 50.579 46.3719 50.1717 46.3719C49.7643 46.3719 49.4927 46.6435 49.4927 47.0508V47.5939C48.5422 47.8655 47.7954 48.6802 47.7954 49.6307C47.7954 51.0564 49.2891 51.5317 49.9001 51.7354C49.968 51.8033 51.0543 52.0069 51.0543 52.5501C51.0543 52.9574 50.6469 53.3648 50.1038 53.3648Z" fill="#7BD834"/>
</svg>
