<svg width="70" height="70" viewBox="0 0 70 70" fill="none" xmlns="http://www.w3.org/2000/svg">
<circle cx="35.7024" cy="35.0958" r="29.9739" fill="#BCD5FF"/>
<path d="M9.86306 18.903V23.0373M7.7959 20.9702H11.9302" stroke="#7BD834" stroke-width="0.689055" stroke-linecap="round" stroke-linejoin="round"/>
<path d="M61.5418 50.5995V54.7339M59.4746 52.6667H63.6089" stroke="#7BD834" stroke-width="0.689055" stroke-linecap="round" stroke-linejoin="round"/>
<path d="M15.3752 14.0796V16.8358M13.9971 15.4577H16.7533" stroke="#7BD834" stroke-width="0.689055" stroke-linecap="round" stroke-linejoin="round"/>
<path d="M53.9621 54.7339V57.4901M52.584 56.112H55.3402" stroke="#7BD834" stroke-width="0.689055" stroke-linecap="round" stroke-linejoin="round"/>
<circle cx="35.7025" cy="35.0958" r="22.3943" stroke="#475DA9" stroke-width="1.37811"/>
<circle cx="52.2394" cy="18.5585" r="6.54602" fill="#1D3565"/>
<path d="M49.5311 39.6663C48.9637 39.6663 48.4095 39.5921 47.8684 39.4437C47.3272 39.2953 46.8952 39.1077 46.5723 38.8808L47.2007 37.637C47.5149 37.8465 47.8902 38.0167 48.3266 38.1476C48.7717 38.2698 49.2081 38.3309 49.6358 38.3309C50.6133 38.3309 51.1021 38.0734 51.1021 37.5585C51.1021 37.3141 50.9756 37.1439 50.7224 37.0479C50.4781 36.9519 50.0809 36.8602 49.5311 36.7729C48.955 36.6857 48.4837 36.5853 48.1171 36.4718C47.7593 36.3584 47.4451 36.162 47.1745 35.8827C46.9127 35.5947 46.7817 35.1975 46.7817 34.6913C46.7817 34.028 47.0567 33.4999 47.6065 33.1072C48.1651 32.7057 48.9157 32.5049 49.8584 32.5049C50.3384 32.5049 50.8185 32.5617 51.2985 32.6751C51.7785 32.7799 52.1713 32.9239 52.4768 33.1072L51.8484 34.3509C51.2549 34.0018 50.5872 33.8272 49.8453 33.8272C49.3652 33.8272 48.9987 33.9014 48.7455 34.0498C48.5012 34.1895 48.379 34.3771 48.379 34.6128C48.379 34.8746 48.5099 35.0623 48.7717 35.1757C49.0423 35.2805 49.4569 35.3808 50.0155 35.4768C50.5741 35.5641 51.0323 35.6645 51.3901 35.778C51.748 35.8914 52.0535 36.0834 52.3066 36.354C52.5684 36.6246 52.6993 37.0086 52.6993 37.5061C52.6993 38.1607 52.4157 38.6844 51.8484 39.0771C51.281 39.4699 50.5086 39.6663 49.5311 39.6663Z" fill="#1D3565"/>
<path d="M43.7301 37.4538H39.1479L38.2446 39.5747H36.4902L40.6142 30.4102H42.29L46.4271 39.5747H44.6466L43.7301 37.4538ZM43.1672 36.1184L41.439 32.1122L39.724 36.1184H43.1672Z" fill="#1D3565"/>
<path d="M32.6455 30.4102C33.4398 30.4102 34.1293 30.5412 34.714 30.803C35.3076 31.0648 35.7614 31.4402 36.0756 31.9289C36.3898 32.4177 36.5469 32.9981 36.5469 33.6702C36.5469 34.3335 36.3898 34.9139 36.0756 35.4114C35.7614 35.9002 35.3076 36.2755 34.714 36.5373C34.1293 36.7992 33.4398 36.9301 32.6455 36.9301H30.577V39.5747H28.875V30.4102H32.6455ZM32.567 35.49C33.3088 35.49 33.8718 35.3329 34.2558 35.0186C34.6399 34.7044 34.8319 34.2549 34.8319 33.6702C34.8319 33.0854 34.6399 32.6359 34.2558 32.3217C33.8718 32.0075 33.3088 31.8504 32.567 31.8504H30.577V35.49H32.567Z" fill="#1D3565"/>
<path d="M23.6044 39.7056C22.6793 39.7056 21.8414 39.5049 21.0908 39.1034C20.3489 38.6931 19.7641 38.1302 19.3364 37.4145C18.9175 36.6988 18.708 35.8914 18.708 34.9925C18.708 34.0935 18.9218 33.2861 19.3495 32.5704C19.7772 31.8547 20.362 31.2961 21.1039 30.8947C21.8545 30.4844 22.6924 30.2793 23.6175 30.2793C24.3681 30.2793 25.0533 30.4102 25.673 30.6721C26.2927 30.9339 26.8163 31.3136 27.244 31.8111L26.1443 32.8454C25.481 32.1297 24.6649 31.7718 23.6961 31.7718C23.0677 31.7718 22.5047 31.9115 22.0072 32.1908C21.5097 32.4613 21.1213 32.841 20.842 33.3298C20.5627 33.8185 20.4231 34.3728 20.4231 34.9925C20.4231 35.6122 20.5627 36.1664 20.842 36.6552C21.1213 37.1439 21.5097 37.528 22.0072 37.8073C22.5047 38.0778 23.0677 38.2131 23.6961 38.2131C24.6649 38.2131 25.481 37.8509 26.1443 37.1265L27.244 38.1738C26.8163 38.6713 26.2883 39.051 25.6599 39.3128C25.0402 39.5747 24.355 39.7056 23.6044 39.7056Z" fill="#1D3565"/>
</svg>
