<svg width="69" height="70" viewBox="0 0 69 70" fill="none" xmlns="http://www.w3.org/2000/svg">
<circle cx="38.2424" cy="36.9863" r="29.9739" fill="#BCD5FF"/>
<path d="M14.4705 49.0448V53.1791M12.4033 51.112H16.5376" stroke="#7BD834" stroke-width="0.689055" stroke-linecap="round" stroke-linejoin="round"/>
<path d="M63.3933 20.1045V24.2388M61.3262 22.1717H65.4605" stroke="#7BD834" stroke-width="0.689055" stroke-linecap="round" stroke-linejoin="round"/>
<g clip-path="url(#clip0_94_15868)">
<path d="M20.001 28.7164H56.001V54.7164H24.001C21.7918 54.7164 20.001 52.9256 20.001 50.7164V28.7164Z" fill="#1F3969" fill-opacity="0.9"/>
<circle cx="50.3016" cy="49.0448" r="10.3358" fill="#7BD834"/>
<path d="M36.6629 55.4213H23.653C21.6292 55.4213 19.9834 53.7754 19.9834 51.7517V28.4223C19.9834 27.8698 20.4317 27.4215 20.9842 27.4215H55.6775C56.23 27.4215 56.6783 27.8698 56.6783 28.4223V35.4059C56.6783 35.9583 56.23 36.4066 55.6775 36.4066C55.1251 36.4066 55.3658 35.9583 55.3658 35.4059V28.734H21.2959V51.7518C21.2959 52.6718 22.0438 54.1088 22.9638 54.1088H36.6629C37.2153 54.1088 37.6636 53.868 37.6636 54.4205C37.6636 54.973 37.2153 55.4213 36.6629 55.4213Z" fill="#475DA9"/>
<path d="M34.3279 50.0838C33.7754 50.0838 33.3271 49.6355 33.3271 49.0831V33.0707C33.3271 32.5182 33.7754 32.0699 34.3279 32.0699C34.8804 32.0699 35.3287 32.5182 35.3287 33.0707V49.0831C35.3287 49.6355 34.8804 50.0838 34.3279 50.0838Z" fill="#475DA9"/>
<path d="M42.3338 37.7814C41.7813 37.7814 41.333 37.3331 41.333 36.7806V33.0707C41.333 32.5182 41.7813 32.0699 42.3338 32.0699C42.8862 32.0699 43.3345 32.5182 43.3345 33.0707V36.7806C43.3345 37.3331 42.8862 37.7814 42.3338 37.7814Z" fill="#475DA9"/>
<path d="M35.6626 50.0838H26.3221C25.7696 50.0838 25.3213 49.6355 25.3213 49.0831V33.0707C25.3213 32.5182 25.7696 32.0699 26.3221 32.0699H50.3405C50.893 32.0699 51.3413 32.5182 51.3413 33.0707V34.4051C51.3413 34.9576 51.1992 35.6082 50.6468 35.6082C50.0943 35.6082 50.1503 34.9576 50.1503 34.4051V33.3824H26.6338V48.7714H35.6626C36.215 48.7714 36.6633 48.5306 36.6633 49.0831C36.6633 49.6355 36.215 50.0838 35.6626 50.0838Z" fill="#475DA9"/>
<path d="M40.2664 39.4089H26.3221C25.7696 39.4089 25.3213 38.9606 25.3213 38.4082C25.3213 37.8557 25.7696 37.4074 26.3221 37.4074H40.2664C40.8189 37.4074 41.2672 37.8557 41.2672 38.4082C41.2672 38.9606 40.8189 39.4089 40.2664 39.4089Z" fill="#475DA9"/>
<path d="M36.6633 44.7464H26.3221C25.7696 44.7464 25.3213 44.2981 25.3213 43.7456C25.3213 43.1931 25.7696 42.7448 26.3221 42.7448H36.6633C37.2158 42.7448 37.6641 43.1931 37.6641 43.7456C37.6641 44.2981 37.2158 44.7464 36.6633 44.7464Z" fill="#475DA9"/>
<path d="M55.6775 28.734H20.9842C20.4317 28.734 19.9834 28.2857 19.9834 27.7333V25.0646C19.9834 23.0409 21.6292 21.3951 23.653 21.3951H53.0089C55.0326 21.3951 56.6784 23.0409 56.6784 25.0646V27.7333C56.6784 28.2857 56.23 28.734 55.6775 28.734ZM21.2959 27.4216H55.3658V25.0646C55.3658 24.1446 54.6179 22.7077 53.6979 22.7077H22.9639C22.0439 22.7077 21.296 24.1446 21.296 25.0646L21.2959 27.4216Z" fill="#475DA9"/>
<path d="M38.3308 23.3967C37.7784 23.3967 37.3301 22.9484 37.3301 22.3959V19.7271C37.3301 19.1747 37.7784 18.7264 38.3308 18.7264C38.8833 18.7264 39.3316 19.1747 39.3316 19.7271V22.3959C39.3316 22.9484 38.8833 23.3967 38.3308 23.3967Z" fill="#475DA9"/>
<path d="M31.659 23.3967C31.1065 23.3967 30.6582 22.9484 30.6582 22.3959V19.7271C30.6582 19.1747 31.1065 18.7264 31.659 18.7264C32.2114 18.7264 32.6597 19.1747 32.6597 19.7271V22.3959C32.6597 22.9484 32.2114 23.3967 31.659 23.3967Z" fill="#475DA9"/>
<path d="M24.9871 23.3967C24.4346 23.3967 23.9863 22.9484 23.9863 22.3959V19.7271C23.9863 19.1747 24.4346 18.7264 24.9871 18.7264C25.5396 18.7264 25.9879 19.1747 25.9879 19.7271V22.3959C25.9879 22.9484 25.5396 23.3967 24.9871 23.3967Z" fill="#475DA9"/>
<path d="M45.0027 23.3967C44.4503 23.3967 44.002 22.9484 44.002 22.3959V19.7271C44.002 19.1747 44.4503 18.7264 45.0027 18.7264C45.5552 18.7264 46.0035 19.1747 46.0035 19.7271V22.3959C46.0035 22.9484 45.5552 23.3967 45.0027 23.3967Z" fill="#475DA9"/>
<path d="M51.6746 23.3967C51.1221 23.3967 50.6738 22.9484 50.6738 22.3959V19.7271C50.6738 19.1747 51.1221 18.7264 51.6746 18.7264C52.2271 18.7264 52.6754 19.1747 52.6754 19.7271V22.3959C52.6754 22.9484 52.2271 23.3967 51.6746 23.3967Z" fill="#475DA9"/>
<path d="M50.3397 60.7587C43.9018 60.7587 38.6641 55.5216 38.6641 49.0831C38.6641 42.6445 43.9018 37.4074 50.3397 37.4074C56.7776 37.4074 62.0154 42.6445 62.0154 49.0831C62.0154 55.5216 56.7776 60.7587 50.3397 60.7587ZM50.3397 39.4089C45.0056 39.4089 40.6656 43.7482 40.6656 49.0831C40.6656 54.4179 45.0056 58.7572 50.3397 58.7572C55.6739 58.7572 60.0139 54.4179 60.0139 49.0831C60.0139 43.7482 55.6739 39.4089 50.3397 39.4089Z" fill="#475DA9"/>
<path d="M50.3403 54.8101C48.6299 54.8101 47.2383 53.4184 47.2383 51.7088C47.2383 51.1563 47.6866 50.708 48.239 50.708C48.7915 50.708 49.2398 51.1563 49.2398 51.7088C49.2398 52.3147 49.7337 52.8086 50.3403 52.8086C50.9468 52.8086 51.4407 52.3147 51.4407 51.7088V51.3778C51.4407 50.7952 51.0465 50.291 50.4823 50.1503L49.7128 49.9575C48.2566 49.5939 47.2383 48.2909 47.2383 46.7884V46.4573C47.2383 44.7477 48.6299 43.356 50.3403 43.356C52.0506 43.356 53.4423 44.7477 53.4423 46.4573C53.4423 47.0098 52.994 47.4581 52.4415 47.4581C51.889 47.4581 51.4407 47.0098 51.4407 46.4573C51.4407 45.8514 50.9468 45.3575 50.3403 45.3575C49.7337 45.3575 49.2398 45.8514 49.2398 46.4573V46.7884C49.2398 47.3709 49.634 47.8752 50.1983 48.0158L50.9677 48.2087C52.4239 48.5722 53.4423 49.8752 53.4423 51.3778V51.7088C53.4423 53.4184 52.0506 54.8101 50.3403 54.8101Z" fill="#475DA9"/>
<path d="M50.3396 56.5289C49.7872 56.5289 49.3389 56.0806 49.3389 55.5282V53.8094C49.3389 53.257 49.7872 52.8087 50.3396 52.8087C50.8921 52.8087 51.3404 53.257 51.3404 53.8094V55.5282C51.3404 56.0806 50.8921 56.5289 50.3396 56.5289Z" fill="#475DA9"/>
<path d="M50.3396 45.3575C49.7872 45.3575 49.3389 44.9092 49.3389 44.3568V42.638C49.3389 42.0856 49.7872 41.6373 50.3396 41.6373C50.8921 41.6373 51.3404 42.0856 51.3404 42.638V44.3568C51.3404 44.9092 50.8921 45.3575 50.3396 45.3575Z" fill="#475DA9"/>
</g>
<defs>
<clipPath id="clip0_94_15868">
<rect width="42.0323" height="42.0323" fill="white" transform="translate(19.9834 18.7264)"/>
</clipPath>
</defs>
</svg>
