<svg width="70" height="70" viewBox="0 0 70 70" fill="none" xmlns="http://www.w3.org/2000/svg">
<circle cx="35.7034" cy="36.5684" r="29.9739" fill="#BCD5FF"/>
<path d="M7.79666 21.0647V25.199M5.72949 23.1319H9.86382" stroke="#7BD834" stroke-width="0.689055" stroke-linecap="round" stroke-linejoin="round"/>
<path d="M15.3758 56.8956V61.0299M13.3086 58.9627H17.4429" stroke="#7BD834" stroke-width="0.689055" stroke-linecap="round" stroke-linejoin="round"/>
<path d="M64.2986 25.199V29.3334M62.2314 27.2662H66.3658" stroke="#7BD834" stroke-width="0.689055" stroke-linecap="round" stroke-linejoin="round"/>
<g clip-path="url(#clip0_94_15957)">
<mask id="mask0_94_15957" style="mask-type:luminance" maskUnits="userSpaceOnUse" x="15" y="14" width="42" height="41">
<path d="M15.376 14.1741H56.0302V54.8284H15.376V14.1741Z" fill="white"/>
</mask>
<g mask="url(#mask0_94_15957)">
<path d="M31.2242 14.8632H33.6359H37.4257L38.8038 15.2077L39.4928 16.5859L40.871 17.2749L42.2491 17.964V22.7873L41.2155 23.4764L39.8374 23.1319L39.1483 21.7538L37.4257 23.4764H29.8461L28.8125 23.1319V17.964L29.5016 16.2413L31.2242 14.8632Z" fill="#7BD834"/>
<rect x="17.4434" y="44.4926" width="36.5199" height="9.64677" fill="#203763"/>
<path d="M41.3233 52.7612C40.7089 52.7612 40.1548 52.6292 39.661 52.365C39.1672 52.0952 38.7796 51.7248 38.4982 51.2539C38.2169 50.7773 38.0762 50.2462 38.0762 49.6605C38.0762 49.0748 38.2169 48.5465 38.4982 48.0757C38.7796 47.5991 39.1672 47.2287 39.661 46.9646C40.1548 46.6947 40.7089 46.5598 41.3233 46.5598C41.9377 46.5598 42.4919 46.6947 42.9857 46.9646C43.4795 47.2287 43.8671 47.5962 44.1485 48.0671C44.4298 48.5379 44.5705 49.0691 44.5705 49.6605C44.5705 50.2519 44.4298 50.7831 44.1485 51.2539C43.8671 51.7248 43.4795 52.0952 42.9857 52.365C42.4919 52.6292 41.9377 52.7612 41.3233 52.7612ZM41.3233 51.7793C41.7253 51.7793 42.087 51.6903 42.4086 51.5123C42.7302 51.3286 42.9828 51.0759 43.1666 50.7544C43.3503 50.4271 43.4422 50.0624 43.4422 49.6605C43.4422 49.2586 43.3503 48.8968 43.1666 48.5752C42.9828 48.2479 42.7302 47.9953 42.4086 47.8173C42.087 47.6335 41.7253 47.5417 41.3233 47.5417C40.9214 47.5417 40.5596 47.6335 40.2381 47.8173C39.9165 47.9953 39.6639 48.2479 39.4801 48.5752C39.2964 48.8968 39.2045 49.2586 39.2045 49.6605C39.2045 50.0624 39.2964 50.4271 39.4801 50.7544C39.6639 51.0759 39.9165 51.3286 40.2381 51.5123C40.5596 51.6903 40.9214 51.7793 41.3233 51.7793Z" fill="#7BD834"/>
<path d="M34.2096 47.5847V49.4193H37.1208V50.3668H34.2096V52.6751H33.0898V46.6459H37.4912V47.5847H34.2096Z" fill="#7BD834"/>
<path d="M29.6227 52.7612C29.014 52.7612 28.4628 52.6292 27.969 52.365C27.4809 52.0952 27.0962 51.7248 26.8148 51.2539C26.5392 50.7831 26.4014 50.2519 26.4014 49.6605C26.4014 49.0691 26.542 48.5379 26.8234 48.0671C27.1048 47.5962 27.4895 47.2287 27.9776 46.9646C28.4714 46.6947 29.0226 46.5598 29.6313 46.5598C30.1251 46.5598 30.5759 46.6459 30.9836 46.8181C31.3913 46.9904 31.7358 47.2402 32.0172 47.5675L31.2937 48.2479C30.8573 47.7771 30.3204 47.5417 29.683 47.5417C29.2696 47.5417 28.8992 47.6335 28.5719 47.8173C28.2446 47.9953 27.9891 48.2451 27.8053 48.5666C27.6216 48.8882 27.5297 49.2528 27.5297 49.6605C27.5297 50.0682 27.6216 50.4328 27.8053 50.7544C27.9891 51.0759 28.2446 51.3286 28.5719 51.5123C28.8992 51.6903 29.2696 51.7793 29.683 51.7793C30.3204 51.7793 30.8573 51.541 31.2937 51.0644L32.0172 51.7535C31.7358 52.0808 31.3884 52.3306 30.975 52.5029C30.5673 52.6751 30.1165 52.7612 29.6227 52.7612Z" fill="#7BD834"/>
<path d="M54.7446 40.8036H16.662C16.2807 40.8036 15.9717 41.1127 15.9717 41.4939V43.6147C15.9717 43.996 16.2807 44.3051 16.662 44.3051H54.7446C55.1259 44.3051 55.4349 43.996 55.4349 43.6147V41.4939C55.4349 41.1127 55.1259 40.8036 54.7446 40.8036Z" stroke="#475DA9" stroke-width="1.19104" stroke-miterlimit="10" stroke-linecap="round" stroke-linejoin="round"/>
<path d="M39.2118 21.7121C39.2118 21.6161 39.0834 21.5831 39.038 21.6676C38.4544 22.7594 37.304 23.5026 35.9794 23.5026H30.6709V27.0237C30.6709 29.5896 32.6815 31.9333 35.7227 31.9333C38.4299 31.9333 40.6324 29.7307 40.6324 27.0237V23.4637C39.8236 23.292 39.2118 22.5701 39.2118 21.7121Z" stroke="#475DA9" stroke-width="1.19104" stroke-miterlimit="10" stroke-linecap="round" stroke-linejoin="round"/>
<path d="M28.9192 22.9557C28.3081 23.2468 27.8848 23.8682 27.8848 24.5901C27.8848 25.5904 28.6957 26.4014 29.6959 26.4014H30.671V23.5026H30.0575C29.5969 23.5026 29.1868 23.2888 28.9192 22.9557Z" stroke="#475DA9" stroke-width="1.19104" stroke-miterlimit="10" stroke-linecap="round" stroke-linejoin="round"/>
<path d="M41.9084 22.8058C41.8009 23.2056 41.4353 23.5026 41.0028 23.5026C40.8759 23.5026 40.7525 23.4884 40.6331 23.4628L40.6328 23.4637V26.4014H41.6079C42.6082 26.4014 43.4191 25.5905 43.4191 24.5903C43.4191 23.6925 42.7654 22.9493 41.9084 22.8058Z" stroke="#475DA9" stroke-width="1.19104" stroke-miterlimit="10" stroke-linecap="round" stroke-linejoin="round"/>
<path d="M48.4748 40.8036V40.1036C48.4748 37.8917 46.9334 36.4011 45.7823 35.9274L38.7227 33.2332C38.5318 33.1595 38.4051 32.9758 38.4045 32.7702L38.4031 31.1339C37.6318 31.6386 36.7113 31.9332 35.7227 31.9332C34.6326 31.9332 33.6759 31.631 32.8958 31.1265L32.8959 32.7671C32.8959 32.9722 32.7973 33.0932 32.6837 33.1701L25.6241 35.9274C24.473 36.4011 22.9316 37.8917 22.9316 40.1036V40.8036H48.4748Z" stroke="#475DA9" stroke-width="1.19104" stroke-miterlimit="10" stroke-linecap="round" stroke-linejoin="round"/>
<path d="M31.869 40.8036L30.7994 33.9061L25.6242 35.9274C24.473 36.4011 22.9316 37.8917 22.9316 40.1036V40.8036H31.869Z" stroke="#475DA9" stroke-width="1.19104" stroke-miterlimit="10" stroke-linecap="round" stroke-linejoin="round"/>
<path d="M48.4744 40.8036V40.1036C48.4744 37.8917 46.9331 36.4011 45.782 35.9274L40.5999 33.9498L39.5371 40.8036H48.4744Z" stroke="#475DA9" stroke-width="1.19104" stroke-miterlimit="10" stroke-linecap="round" stroke-linejoin="round"/>
<path d="M36.7356 34.996C36.6348 34.8467 36.6537 34.7266 36.6537 34.656H34.68C34.695 34.781 34.662 34.9016 34.5981 34.996L33.7998 36.1782L34.5619 37.8411H36.7718L37.5339 36.1783L36.7356 34.996Z" stroke="#475DA9" stroke-width="1.19104" stroke-miterlimit="10" stroke-linecap="round" stroke-linejoin="round"/>
<path d="M36.7718 37.8411H34.562L34.04 40.8037H37.2937L36.7718 37.8411Z" stroke="#475DA9" stroke-width="1.19104" stroke-miterlimit="10" stroke-linecap="round" stroke-linejoin="round"/>
<path d="M34.5028 34.3297L32.8584 32.9658C32.8195 33.0573 32.7547 33.1222 32.6842 33.1701L30.7998 33.906L30.9063 34.5928L33.0272 36.3389C33.2553 36.528 33.5968 36.479 33.7626 36.2335L34.5982 34.996C34.7425 34.7824 34.7012 34.4942 34.5028 34.3297Z" stroke="#475DA9" stroke-width="1.19104" stroke-miterlimit="10" stroke-linecap="round" stroke-linejoin="round"/>
<path d="M38.7227 33.2332C38.5937 33.1833 38.4951 33.0827 38.4439 32.9594L36.8307 34.3297C36.6324 34.4942 36.591 34.7825 36.7353 34.996L37.5708 36.2335C37.7367 36.4791 38.0782 36.528 38.3063 36.3388L40.5182 34.4793L40.6003 33.9497L38.7227 33.2332Z" stroke="#475DA9" stroke-width="1.19104" stroke-miterlimit="10" stroke-linecap="round" stroke-linejoin="round"/>
<path d="M33.2943 14.7698H33.0807H32.0651C30.15 14.7698 28.5977 16.3222 28.5977 18.2372V22.0426C28.5977 22.849 29.2512 23.5026 30.0576 23.5026H35.9797C37.3043 23.5026 38.4546 22.7595 39.0384 21.6676C39.0837 21.5831 39.2121 21.6161 39.2121 21.7121C39.2121 22.6969 40.0178 23.5026 41.0027 23.5026C41.5189 23.5026 41.9411 23.0802 41.9411 22.564V18.5929C41.9411 17.6574 41.125 16.9774 40.3137 17.0397C39.8446 17.0759 39.4141 16.7809 39.3239 16.3192C39.1718 15.5415 38.7869 14.7698 37.2829 14.7698H36.3042H36.0734" stroke="#475DA9" stroke-width="1.19104" stroke-miterlimit="10" stroke-linecap="round" stroke-linejoin="round"/>
<path d="M53.738 47.8795V44.305H17.6689V53.5426C17.6689 53.9239 17.978 54.233 18.3591 54.233H53.0478C53.4289 54.233 53.738 53.9239 53.738 53.5426V50.6586" stroke="#475DA9" stroke-width="1.19104" stroke-miterlimit="10" stroke-linecap="round" stroke-linejoin="round"/>
</g>
</g>
<defs>
<clipPath id="clip0_94_15957">
<rect width="40.6542" height="40.6542" fill="white" transform="translate(15.376 14.1741)"/>
</clipPath>
</defs>
</svg>
