<svg width="41" height="40" viewBox="0 0 41 40" fill="none" xmlns="http://www.w3.org/2000/svg">
<circle cx="20.5" cy="20" r="20" fill="#F8F8F8"/>
<g clip-path="url(#clip0_137_824)">
<path d="M27.871 24.2241C26.7232 23.2424 25.5583 22.6478 24.4246 23.628L23.7477 24.2204C23.2524 24.6504 22.3315 26.6598 18.771 22.564C15.2112 18.4733 17.3296 17.8364 17.8256 17.4101L18.5063 16.8169C19.6341 15.8344 19.2085 14.5977 18.3951 13.3246L17.9042 12.5535C17.0871 11.2833 16.1974 10.4492 15.0666 11.4302L14.4557 11.964C13.9559 12.3281 12.559 13.5114 12.2202 15.7596C11.8124 18.457 13.0988 21.5459 16.0461 24.9352C18.9897 28.3259 21.8718 30.029 24.6019 29.9994C26.8707 29.9749 28.241 28.7574 28.6695 28.3148L29.2827 27.7802C30.4105 26.8 29.7098 25.8019 28.5613 24.818L27.871 24.2241Z" fill="#598638"/>
</g>
<defs>
<clipPath id="clip0_137_824">
<rect width="19" height="19" fill="white" transform="translate(11.5 11)"/>
</clipPath>
</defs>
</svg>
