<svg width="323" height="368" viewBox="0 0 323 368" fill="none" xmlns="http://www.w3.org/2000/svg">
<g opacity="0.45">
<path d="M101.921 225.066C102.039 225.066 102.147 225.035 102.255 224.982L234.189 151.151C236.617 149.791 237.955 147.94 237.955 145.952C237.955 143.954 236.617 142.113 234.189 140.753L148.273 92.6761C146.276 91.5568 145.175 90.1132 145.175 88.6069C145.175 87.1006 146.276 85.657 148.273 84.5377L293.75 3.1226C298.132 0.674815 305.265 0.674815 309.647 3.1226L358.438 30.4249C360.435 31.5442 361.535 32.9877 361.535 34.4941C361.535 36.0004 360.435 37.444 358.438 38.5632L285.904 79.1505C283.476 80.5104 282.138 82.3619 282.138 84.3494C282.138 86.3474 283.476 88.1885 285.904 89.5484L394.354 150.241C399.114 152.898 406.841 152.908 411.6 150.241L483.616 109.947C483.94 109.769 484.047 109.361 483.864 109.057C483.68 108.744 483.26 108.639 482.947 108.817L410.931 149.111C406.549 151.559 399.416 151.559 395.034 149.111L286.584 88.4186C284.588 87.2993 283.487 85.8558 283.487 84.3494C283.487 82.8431 284.588 81.3995 286.584 80.2803L359.118 39.693C361.546 38.3331 362.884 36.4816 362.884 34.4941C362.884 32.4961 361.546 30.655 359.118 29.2951L310.327 1.99286C305.578 -0.664144 297.83 -0.664145 293.081 1.99286L147.604 83.408C145.175 84.7679 143.837 86.6194 143.837 88.6174C143.837 90.6153 145.175 92.4564 147.604 93.8163L233.52 141.893C235.516 143.013 236.617 144.456 236.617 145.963C236.617 147.469 235.516 148.912 233.52 150.032L101.586 223.863C101.262 224.041 101.154 224.449 101.338 224.763C101.457 224.951 101.683 225.066 101.921 225.066Z" fill="#7BD834"/>
<path d="M133.347 169.708C133.585 169.708 133.811 169.593 133.93 169.384C134.113 169.07 134.005 168.673 133.682 168.484L5.62261 96.8186C2.87063 95.2809 1.35972 93.2724 1.35972 91.1699C1.35972 89.0673 2.87063 87.0588 5.62261 85.5211L128.437 16.7843C134.372 13.4578 144.042 13.4578 149.978 16.7843L177.433 32.151C177.757 32.3288 178.167 32.2242 178.361 31.9104C178.545 31.5966 178.437 31.199 178.113 31.0108L150.658 15.6441C144.344 12.1084 134.081 12.1084 127.768 15.6441L4.94271 84.3809C1.75904 86.1592 -8.29016e-05 88.5756 -8.31275e-05 91.1594C-8.33543e-05 93.7536 1.75904 96.1596 4.94271 97.9484L133.002 169.614C133.121 169.677 133.239 169.708 133.347 169.708Z" fill="#7BD834"/>
<path d="M438.288 368C441.806 368 445.325 367.247 448.001 365.751L623.448 267.567C626.168 266.04 627.668 263.979 627.668 261.751C627.668 259.523 626.168 257.463 623.448 255.935L563.606 222.451C558.253 219.449 549.533 219.449 544.18 222.451L500.915 246.667C500.591 246.845 500.483 247.253 500.666 247.567C500.85 247.881 501.271 247.985 501.584 247.807L544.849 223.591C549.835 220.798 557.94 220.808 562.926 223.591L622.768 257.075C625.056 258.352 626.319 260.015 626.319 261.751C626.319 263.488 625.056 265.151 622.768 266.427L447.321 364.611C442.335 367.404 434.23 367.404 429.244 364.611L202.211 237.556C201.887 237.378 201.477 237.483 201.283 237.796C201.099 238.11 201.207 238.508 201.531 238.696L428.575 365.751C431.252 367.247 434.77 368 438.288 368Z" fill="#7BD834"/>
<path d="M424.464 287.777C427.982 287.777 431.5 287.024 434.177 285.528L469.78 265.601C470.104 265.423 470.211 265.015 470.028 264.701C469.845 264.387 469.424 264.283 469.111 264.461L433.508 284.388C428.522 287.181 420.417 287.181 415.431 284.388L266.1 200.818C263.812 199.542 262.55 197.879 262.55 196.142C262.55 194.406 263.812 192.743 266.1 191.466L310.229 166.769C315.215 163.976 323.32 163.976 328.306 166.769L414.762 215.149C420.115 218.151 428.835 218.151 434.187 215.149L554.983 147.553C559.969 144.76 568.074 144.76 573.06 147.553L701.994 219.71C702.317 219.888 702.727 219.783 702.911 219.47C703.094 219.156 702.986 218.758 702.663 218.58L573.708 146.423C568.355 143.421 559.635 143.421 554.282 146.423L433.486 214.02C428.5 216.812 420.395 216.812 415.409 214.02L328.954 165.639C323.601 162.637 314.881 162.637 309.528 165.639L265.399 190.337C262.679 191.864 261.179 193.925 261.179 196.153C261.179 198.381 262.679 200.442 265.399 201.969L414.751 285.528C417.427 287.024 420.946 287.777 424.464 287.777Z" fill="#7BD834"/>
<path d="M270.417 319.358C270.536 319.358 270.644 319.327 270.752 319.274L308.481 298.165C308.805 297.987 308.913 297.579 308.729 297.265C308.546 296.951 308.136 296.847 307.801 297.025L270.072 318.134C269.748 318.312 269.64 318.72 269.824 319.034C269.953 319.243 270.18 319.358 270.417 319.358Z" fill="#7BD834"/>
<path d="M105.557 71.9328L127.94 71.9328C128.318 71.9328 128.62 71.6399 128.62 71.2738L128.62 58.7524C128.62 58.3863 128.318 58.0934 127.94 58.0934L105.557 58.0934C105.18 58.0934 104.877 58.3863 104.877 58.7524L104.877 71.2738C104.877 71.6399 105.18 71.9328 105.557 71.9328ZM127.26 70.6148L106.237 70.6148L106.237 59.401L127.26 59.401L127.26 70.6148Z" fill="#7BD834"/>
<path d="M248.035 331.89L270.418 331.89C270.795 331.89 271.098 331.597 271.098 331.231L271.098 318.71C271.098 318.532 271.022 318.364 270.903 318.249C270.774 318.124 270.601 318.061 270.429 318.061L248.046 318.061C247.668 318.061 247.366 318.354 247.366 318.72L247.366 331.241C247.366 331.587 247.668 331.89 248.035 331.89ZM269.738 330.572L248.715 330.572L248.715 319.358L269.738 319.358L269.738 330.572Z" fill="#7BD834"/>
</g>
<path opacity="0.5" d="M121.541 112.877L172.12 83.7171C173.221 83.0893 173.076 81.9784 171.818 81.254L144.327 65.2434L89.7686 96.685L117.259 112.696C118.529 113.42 120.44 113.505 121.541 112.877Z" fill="#32589D" fill-opacity="0.6"/>
<path d="M37.0117 65.7505V55.6926L53.424 55.7046L89.8406 34.7074C90.7356 34.1882 92.2958 34.2606 93.3238 34.8522L129.583 55.7529L145.923 55.765V65.8471H145.911C145.899 66.161 145.705 66.4629 145.318 66.6802L93.0698 96.7936C92.1748 97.3128 90.6146 97.2404 89.5866 96.6487L37.8462 66.8251C37.314 66.5112 37.0359 66.1248 37.0117 65.7505Z" fill="url(#paint0_linear_94_13326)"/>
<path d="M93.0822 86.7357L145.33 56.6223C146.225 56.1031 146.117 55.2096 145.077 54.618L93.3362 24.7944C92.3081 24.2027 90.7479 24.1303 89.8529 24.6495L37.6046 54.7629C36.7096 55.2821 36.8185 56.1756 37.8586 56.7672L89.599 86.5908C90.627 87.1825 92.1872 87.2428 93.0822 86.7357Z" fill="url(#paint1_linear_94_13326)"/>
<path d="M93.0822 86.7357L145.33 56.6223C146.225 56.1031 146.117 55.2096 145.077 54.618L93.3362 24.7944C92.3081 24.2027 90.7479 24.1303 89.8529 24.6495L37.6046 54.7629C36.7096 55.2821 36.8185 56.1756 37.8586 56.7672L89.599 86.5908C90.627 87.1825 92.1872 87.2428 93.0822 86.7357Z" fill="url(#paint2_linear_94_13326)"/>
<path d="M92.9007 83.21L139.211 56.5136C139.997 56.0548 139.9 55.2579 138.993 54.7267L93.1305 28.2959C92.2113 27.7646 90.8325 27.7164 90.0343 28.1631L43.7244 54.8595C42.9382 55.3183 43.035 56.1152 43.9421 56.6465L89.8045 83.0772C90.7237 83.6084 92.1025 83.6568 92.9007 83.21Z" fill="#32589D"/>
<path d="M92.78 80.9641L135.328 56.4412C136.054 56.0186 135.969 55.2941 135.123 54.7991L92.9856 30.5176C92.1511 30.0346 90.8691 29.9863 90.1434 30.3968L47.5949 54.9198C46.8692 55.3424 46.9538 56.0669 47.8005 56.5619L89.9378 80.8434C90.7844 81.3384 92.0543 81.3867 92.78 80.9641Z" fill="#102140"/>
<path d="M92.4419 54.0867L97.4248 51.225L94.7035 49.6554L89.7327 52.5291L92.4419 54.0867Z" fill="#7BD834"/>
<path d="M83.2014 53.6882L88.1723 56.5498L90.8936 54.9801L85.9106 52.1185L83.2014 53.6882Z" fill="#7BD834"/>
<path d="M93.5784 54.7387L96.2875 56.3084L99.0088 54.7387L96.2875 53.1691L93.5784 54.7387Z" fill="#7BD834"/>
<path d="M84.1808 60.148L86.902 61.7176L94.7393 57.2019L92.018 55.6322L84.1808 60.148Z" fill="#7BD834"/>
<path opacity="0.4" d="M37.0002 42.1573L59.23 42.2901L89.8533 24.6374C90.7482 24.1182 92.3084 24.1906 93.3365 24.7823L124.383 42.6765L145.936 42.8093V55.8737L145.923 55.8858C145.875 56.1635 145.682 56.417 145.331 56.6223L93.0825 86.7357C92.1875 87.2549 90.6273 87.1825 89.5993 86.5908L37.8589 56.7672C37.3872 56.5016 37.1212 56.1635 37.0365 55.8254L37.0002 55.8013V42.1573Z" fill="#7BD834"/>
<path d="M37.0117 43.4492V33.3913L53.424 33.4034L89.8406 12.4061C90.7356 11.8869 92.2958 11.9593 93.3238 12.551L129.583 33.4516L145.923 33.4637V43.5458H145.911C145.899 43.8597 145.705 44.1616 145.318 44.3789L93.0698 74.4923C92.1748 75.0115 90.6146 74.9391 89.5866 74.3474L37.8462 44.5238C37.314 44.222 37.0359 43.8356 37.0117 43.4492Z" fill="url(#paint3_linear_94_13326)"/>
<path d="M93.0822 64.4344L145.33 34.321C146.225 33.8018 146.117 32.9084 145.077 32.3167L93.3362 2.49311C92.3081 1.90146 90.7479 1.82902 89.8529 2.34822L37.6046 32.4616C36.7096 32.9808 36.8185 33.8743 37.8586 34.466L89.599 64.2895C90.627 64.8933 92.1872 64.9536 93.0822 64.4344Z" fill="url(#paint4_linear_94_13326)"/>
<path d="M92.9007 60.9087L139.211 34.2124C139.997 33.7535 139.9 32.9567 138.993 32.4254L93.1305 5.99465C92.2113 5.46338 90.8325 5.4151 90.0343 5.86185L43.7244 32.5582C42.9382 33.017 43.035 33.8139 43.9421 34.3452L89.8045 60.7759C90.7237 61.3072 92.1025 61.3676 92.9007 60.9087Z" fill="#32589D"/>
<path d="M92.987 59.1443L135.536 34.6214C136.261 34.1987 136.177 33.4743 135.33 32.9792L93.1926 8.69775C92.3581 8.21478 91.0761 8.16647 90.3504 8.577L47.8019 33.1C47.0762 33.5226 47.1609 34.2471 48.0075 34.7421L90.1448 59.0236C90.9914 59.5065 92.2613 59.5669 92.987 59.1443Z" fill="#102140"/>
<path d="M100.609 26.1803L99.2253 25.4106L99.071 25.3513C98.9862 25.3187 98.8646 25.2729 98.8008 25.2496C98.737 25.2264 98.6115 25.1823 98.522 25.1517C98.4325 25.1211 98.2308 25.0559 98.0736 25.0067C97.9165 24.9575 97.7116 24.895 97.6181 24.8677C97.5248 24.8405 97.375 24.7983 97.2853 24.7738C97.1957 24.7494 97.0539 24.712 96.9702 24.6906C96.8865 24.6692 96.7408 24.6336 96.6465 24.6114C96.552 24.5891 96.4227 24.5595 96.3589 24.5455C96.295 24.5314 96.1623 24.5034 96.0636 24.4833C95.965 24.4631 95.802 24.4313 95.7014 24.4126C95.6008 24.3939 95.4345 24.3645 95.3319 24.3472C95.2293 24.3301 95.0304 24.2994 94.8899 24.2793C94.7495 24.259 94.5599 24.2335 94.4687 24.2224C94.3776 24.2112 94.2201 24.1932 94.1189 24.1824C94.0177 24.1716 93.8564 24.1556 93.7604 24.1469C93.6645 24.1382 93.5049 24.1253 93.4056 24.118C93.3064 24.1108 93.1809 24.1023 93.1267 24.0989C93.0725 24.0957 92.9358 24.0886 92.8228 24.0833C92.71 24.078 92.5145 24.071 92.3885 24.0677C92.2625 24.0644 92.0957 24.061 92.0179 24.0603C91.9401 24.0595 91.8006 24.0593 91.708 24.0597C91.6153 24.0601 91.4765 24.0616 91.3994 24.063C91.3223 24.0643 91.1877 24.0677 91.1003 24.0705C91.0129 24.0732 90.8438 24.08 90.7247 24.0857C90.6056 24.0913 90.364 24.1063 90.1879 24.119C90.0117 24.1316 89.7812 24.1503 89.6756 24.1606C89.5699 24.1708 89.4079 24.1877 89.3154 24.1981C89.2229 24.2084 89.0677 24.2271 88.9703 24.2396C88.873 24.2521 88.7239 24.2723 88.6389 24.2846C88.554 24.2967 88.3987 24.3205 88.2937 24.3373C88.1887 24.3541 88.024 24.3817 87.9279 24.3987C87.8317 24.4157 87.6429 24.4514 87.5083 24.4781C87.3737 24.5048 87.1828 24.5445 87.084 24.5663C86.9853 24.5881 86.841 24.6209 86.7633 24.6392C86.6856 24.6575 86.5638 24.687 86.4928 24.7047C86.4217 24.7225 86.2948 24.7553 86.2108 24.7775C86.1267 24.7998 85.9431 24.8512 85.8026 24.8916C85.6623 24.9321 85.4732 24.9884 85.3825 25.0168C85.2919 25.0451 85.1523 25.0899 85.0724 25.1164C84.9924 25.1428 84.8475 25.1923 84.7502 25.2264C84.653 25.2605 84.4991 25.3161 84.4082 25.3498C84.3174 25.3836 84.151 25.4478 84.0385 25.4926C83.926 25.5373 83.751 25.6093 83.6495 25.6525C83.5481 25.6957 83.3948 25.7625 83.309 25.8011C83.2233 25.8396 83.0801 25.9058 82.991 25.9483C82.9018 25.9906 82.7594 26.0603 82.6743 26.1031C82.5893 26.1459 82.4661 26.209 82.4006 26.2435C82.335 26.2779 82.2219 26.3388 82.1491 26.3788C82.0762 26.4189 81.9475 26.4914 81.8629 26.5402C81.7782 26.589 81.6362 26.6731 81.5474 26.7271C81.4585 26.7811 81.3243 26.8648 81.249 26.913C81.1738 26.9612 81.066 27.0314 81.0096 27.069C80.9403 27.1152 80.7236 27.2759 80.3413 27.5647L79.7755 27.992L79.6549 28.0991C79.5884 28.158 79.4927 28.2442 79.442 28.2908C79.3914 28.3373 79.3014 28.422 79.242 28.4791C79.1826 28.5361 79.0882 28.6294 79.0321 28.6863C78.976 28.7432 78.8834 28.84 78.8264 28.9013C78.7694 28.9627 78.6825 29.0585 78.6334 29.1144C78.5843 29.1703 78.5023 29.2664 78.4511 29.328C78.4 29.3896 78.3149 29.4959 78.2619 29.5641C78.209 29.6324 78.129 29.7384 78.0843 29.7997C78.0396 29.861 77.9532 29.9856 77.8925 30.0766C77.8317 30.1675 77.7396 30.3121 77.6876 30.3979C77.6357 30.4838 77.5579 30.6191 77.5148 30.6985C77.4716 30.778 77.413 30.8896 77.3845 30.9465C77.3561 31.0035 77.3057 31.1087 77.2726 31.1803C77.2395 31.2519 77.1922 31.3603 77.1672 31.4212C77.1424 31.4821 77.1054 31.5759 77.0851 31.6298C77.0649 31.6836 77.0351 31.7658 77.0189 31.8124C77.0028 31.8589 76.9741 31.9464 76.9551 32.0067C76.9363 32.0671 76.9076 32.164 76.8915 32.2221C76.8755 32.2802 76.8486 32.3859 76.8319 32.4571C76.8152 32.5282 76.795 32.6188 76.787 32.6585C76.7791 32.6981 76.766 32.766 76.7581 32.8095C76.7501 32.8529 76.7351 32.948 76.7247 33.0208C76.7143 33.0935 76.7006 33.2034 76.6943 33.265C76.688 33.3265 76.6791 33.436 76.6745 33.5082C76.6699 33.5803 76.6651 33.6935 76.6637 33.7598C76.6623 33.8259 76.6619 33.9291 76.6627 33.989C76.6636 34.0489 76.6702 34.186 76.6773 34.2938C76.6846 34.4015 76.6968 34.5415 76.7045 34.6048C76.7122 34.6682 76.7268 34.772 76.7369 34.8355C76.747 34.899 76.7659 35.0046 76.7789 35.0702C76.7919 35.1357 76.8162 35.246 76.8328 35.3151C76.8494 35.3842 76.8826 35.5082 76.9067 35.5907C76.9307 35.6731 76.9689 35.7951 76.9918 35.8616C77.0147 35.9282 77.0533 36.0345 77.0777 36.0978C77.1021 36.1611 77.1391 36.2531 77.1598 36.3022C77.1805 36.3513 77.2266 36.4538 77.2621 36.5298C77.2977 36.6058 77.3558 36.7234 77.3911 36.791C77.4265 36.8586 77.4868 36.9691 77.5251 37.0367C77.5635 37.1042 77.6339 37.2209 77.6816 37.2959C77.7294 37.371 77.7979 37.4754 77.834 37.5279C77.87 37.5804 77.9299 37.665 77.9672 37.716C78.0043 37.767 78.0729 37.8577 78.1195 37.9175C78.1661 37.9774 78.2393 38.0685 78.2822 38.12C78.3252 38.1715 78.3892 38.2468 78.4245 38.2872C78.4597 38.3277 78.5393 38.4153 78.6014 38.4817C78.6634 38.5482 78.7571 38.6457 78.8096 38.6984C78.8621 38.7511 78.966 38.8512 79.0405 38.9209C79.115 38.9905 79.2257 39.0908 79.2863 39.1436C79.3471 39.1964 79.4313 39.2684 79.4737 39.3036C79.516 39.3388 79.5895 39.3985 79.6368 39.4362C79.6843 39.4739 79.7696 39.54 79.8264 39.5831C79.8833 39.6263 79.9563 39.6811 79.9886 39.7049C80.021 39.7288 80.0791 39.7707 80.1177 39.7981C80.1563 39.8255 80.2345 39.8798 80.2915 39.9189C80.3485 39.9579 80.4471 40.0244 80.5108 40.0666C80.6131 40.1344 80.7042 40.1864 81.291 40.5125L81.9554 40.8816L82.1249 40.9599C82.2182 41.0029 82.3621 41.0679 82.4447 41.1043C82.5274 41.1407 82.6639 41.1993 82.748 41.2344C82.8322 41.2697 82.958 41.3209 83.0275 41.3482C83.097 41.3756 83.2225 41.4236 83.3062 41.4549C83.39 41.4863 83.5287 41.5364 83.6143 41.5663C83.7 41.5962 83.8513 41.6471 83.9504 41.6794C84.0496 41.7118 84.2157 41.7635 84.3194 41.7945C84.4231 41.8256 84.5915 41.8739 84.6936 41.902C84.7957 41.93 84.9561 41.9724 85.0499 41.9961C85.1439 42.0199 85.2809 42.0534 85.3544 42.0707C85.428 42.0879 85.558 42.1171 85.6432 42.1356C85.7285 42.154 85.8548 42.1805 85.924 42.1944C85.9932 42.2082 86.1167 42.232 86.1985 42.2472C86.2803 42.2624 86.4124 42.2859 86.4919 42.2995C86.5715 42.313 86.7143 42.3362 86.8092 42.3509C86.9042 42.3656 87.0731 42.3897 87.1844 42.4044C87.2958 42.419 87.472 42.4408 87.5761 42.4526C87.6803 42.4645 87.8669 42.4836 87.991 42.4952C88.1151 42.5067 88.2978 42.522 88.3971 42.5292C88.4964 42.5364 88.622 42.545 88.6762 42.5482C88.7305 42.5515 88.8608 42.5582 88.9659 42.5631C89.071 42.5679 89.2762 42.5749 89.422 42.5786C89.5677 42.5823 89.7826 42.5855 89.8994 42.5858C90.0162 42.5861 90.1722 42.5854 90.2461 42.5844C90.3201 42.5834 90.416 42.5817 90.4592 42.5806C90.5025 42.5795 90.6307 42.5755 90.7441 42.5717C90.8575 42.5679 91.0741 42.5578 91.2254 42.5493C91.3767 42.5408 91.5958 42.526 91.7122 42.5164C91.8286 42.5068 91.9915 42.4925 92.0742 42.4846C92.1568 42.4767 92.2972 42.4622 92.3861 42.4524C92.4749 42.4426 92.61 42.4269 92.6862 42.4175C92.7624 42.4082 92.915 42.3879 93.0251 42.3726C93.1354 42.3572 93.3243 42.3289 93.4448 42.3097C93.5655 42.2906 93.7496 42.2597 93.854 42.2411C93.9584 42.2225 94.1599 42.1841 94.3018 42.1556C94.4436 42.1272 94.6143 42.0919 94.6808 42.0772C94.7474 42.0625 94.8755 42.0333 94.9655 42.0125C95.0554 41.9916 95.2086 41.9544 95.3059 41.93C95.4033 41.9055 95.5439 41.8693 95.6186 41.8496C95.6932 41.8297 95.8787 41.7776 96.0306 41.7337C96.1826 41.6898 96.3645 41.6358 96.4349 41.6136C96.5053 41.5915 96.6357 41.5495 96.7247 41.5204C96.8137 41.4913 96.9455 41.4471 97.0177 41.4221C97.0899 41.3971 97.2156 41.3525 97.297 41.323C97.3783 41.2935 97.5217 41.24 97.6157 41.2041C97.7096 41.1682 97.8615 41.1084 97.9531 41.0713C98.0448 41.0341 98.19 40.9737 98.2757 40.9371C98.3616 40.9005 98.4988 40.8404 98.5807 40.8036C98.6627 40.7668 98.8092 40.6994 98.9064 40.6537C99.0035 40.6081 99.1433 40.5412 99.2171 40.5049C99.2908 40.4686 99.4178 40.4044 99.4993 40.3622C99.5808 40.3201 99.7215 40.2452 99.812 40.1958C99.9025 40.1465 100.037 40.0709 100.111 40.0279C100.186 39.9849 100.292 39.922 100.349 39.8882C100.405 39.8544 100.491 39.8019 100.54 39.7715C100.589 39.7412 100.682 39.6818 100.747 39.6395C100.848 39.5739 100.957 39.4937 101.485 39.0953C102.022 38.6904 102.115 38.6186 102.182 38.5565C102.225 38.5172 102.291 38.4566 102.329 38.422C102.366 38.3874 102.429 38.3282 102.468 38.2906C102.507 38.2529 102.574 38.1879 102.616 38.1461C102.657 38.1042 102.721 38.0394 102.757 38.002C102.793 37.9646 102.865 37.8859 102.918 37.8272C102.972 37.7684 103.047 37.683 103.085 37.6374C103.124 37.5919 103.194 37.5069 103.24 37.4486C103.287 37.3902 103.361 37.2937 103.406 37.2341C103.45 37.1744 103.525 37.0687 103.572 36.9991C103.619 36.9295 103.684 36.8307 103.716 36.7796C103.748 36.7285 103.781 36.6711 103.79 36.652C103.799 36.633 103.809 36.5958 103.811 36.5694C103.814 36.5429 103.811 36.5034 103.805 36.4814C103.799 36.4595 103.786 36.4286 103.776 36.4126C103.767 36.3967 103.748 36.3727 103.736 36.3593C103.723 36.3459 103.695 36.3222 103.674 36.3067C103.648 36.2876 103.619 36.2717 103.584 36.2573C103.555 36.2456 103.51 36.2309 103.483 36.2247C103.455 36.2185 103.41 36.2112 103.382 36.2085C103.354 36.2058 103.297 36.2064 103.254 36.2097C103.212 36.2131 102.704 36.249 102.126 36.2896C101.37 36.3427 101.058 36.3669 101.015 36.3759C100.983 36.3827 100.936 36.3972 100.911 36.4082C100.885 36.4191 100.84 36.4427 100.811 36.4607C100.781 36.4788 100.727 36.5154 100.692 36.5421L100.627 36.5907L100.604 36.6387C100.591 36.6652 100.562 36.7174 100.539 36.7549C100.516 36.7925 100.472 36.8577 100.442 36.8999C100.411 36.9421 100.366 37.0003 100.342 37.0291C100.318 37.058 100.272 37.111 100.241 37.1469C100.209 37.1828 100.153 37.2429 100.117 37.2804C100.081 37.3179 100.02 37.3794 99.9811 37.4171C99.9421 37.4548 99.8686 37.5236 99.8176 37.57C99.7667 37.6164 99.6816 37.6913 99.6285 37.7366C99.5693 37.7871 99.4333 37.8928 99.2758 38.0107C99.1348 38.1162 98.9671 38.2377 98.903 38.2806C98.8389 38.3235 98.7382 38.3897 98.6791 38.4278C98.6201 38.4659 98.5196 38.5291 98.4559 38.5684C98.3921 38.6077 98.2891 38.6695 98.2268 38.7058C98.1646 38.7421 98.0543 38.8046 97.9817 38.8447C97.9092 38.8848 97.7975 38.945 97.7336 38.9785C97.6697 39.0119 97.5671 39.0646 97.5055 39.0955C97.4439 39.1264 97.3263 39.1833 97.2442 39.2219C97.162 39.2605 97.0495 39.3123 96.994 39.3371C96.9386 39.3618 96.8261 39.4106 96.7441 39.4455C96.662 39.4803 96.5275 39.5356 96.445 39.5683C96.3626 39.601 96.2362 39.6499 96.1641 39.6769C96.092 39.7038 95.9725 39.7471 95.8987 39.7732C95.8249 39.7992 95.6954 39.8433 95.611 39.871C95.5266 39.8988 95.3942 39.9412 95.3166 39.9651C95.2392 39.9891 95.0747 40.0372 94.9512 40.072C94.8277 40.1068 94.659 40.1525 94.5763 40.1736C94.4937 40.1947 94.3526 40.2292 94.263 40.2502C94.1733 40.2713 94.033 40.303 93.9512 40.3207C93.8694 40.3385 93.725 40.368 93.6305 40.3864C93.5361 40.4047 93.3728 40.4347 93.2678 40.453C93.1628 40.4712 92.9924 40.4988 92.8892 40.5142C92.786 40.5297 92.6168 40.5531 92.5131 40.5664C92.4094 40.5797 92.2512 40.5983 92.1616 40.6079C92.072 40.6175 91.8889 40.6349 91.7548 40.6466C91.6208 40.6582 91.4106 40.6732 91.2879 40.6799C91.1652 40.6866 91.0095 40.6942 90.9419 40.6968C90.8743 40.6993 90.7648 40.7027 90.6984 40.7043C90.6322 40.706 90.5084 40.708 90.4236 40.7088C90.3388 40.7096 90.2063 40.7097 90.1293 40.7089C90.0522 40.7081 89.9271 40.7061 89.8514 40.7043C89.7756 40.7025 89.6593 40.699 89.5929 40.6965C89.5265 40.694 89.3936 40.6876 89.2974 40.6822C89.2012 40.6769 89.0605 40.6678 88.9845 40.662C88.9085 40.6562 88.7651 40.6439 88.6658 40.6348C88.5664 40.6256 88.4021 40.6084 88.3005 40.5967C88.199 40.585 88.0068 40.5597 87.8733 40.5405C87.7398 40.5213 87.5617 40.494 87.4776 40.4797C87.3933 40.4654 87.2642 40.4424 87.1907 40.4285C87.1172 40.4146 87.0016 40.3918 86.9337 40.3778C86.8659 40.3638 86.754 40.3398 86.6851 40.3245C86.6162 40.3093 86.474 40.2755 86.3691 40.2496C86.2642 40.2236 86.1132 40.1846 86.0333 40.1628C85.9535 40.1411 85.8406 40.1094 85.7824 40.0923C85.7243 40.0753 85.6186 40.0432 85.5476 40.0211C85.4767 39.999 85.3618 39.9619 85.2924 39.9386C85.223 39.9153 85.0937 39.8702 85.005 39.8384C84.9163 39.8065 84.7879 39.7588 84.7195 39.7322C84.6512 39.7057 84.5293 39.6567 84.4488 39.6233C84.3683 39.5899 84.2437 39.5364 84.172 39.5044C84.1004 39.4724 83.9856 39.4197 83.9172 39.3874C83.8486 39.3551 83.7203 39.2921 83.632 39.2474C83.531 39.1964 83.3641 39.1052 83.1829 39.0021C83.0243 38.9118 82.8551 38.8127 82.807 38.7819C82.7588 38.7511 82.672 38.6946 82.614 38.6565C82.5561 38.6184 82.4556 38.5499 82.3908 38.5043C82.326 38.4588 82.2304 38.3901 82.1784 38.3517C82.1265 38.3132 82.0306 38.2396 81.9654 38.1881C81.9002 38.1365 81.8028 38.0572 81.7489 38.0118C81.6951 37.9664 81.6134 37.896 81.5675 37.8552C81.5216 37.8145 81.4415 37.7408 81.3896 37.6913C81.3378 37.6419 81.2675 37.573 81.2333 37.5381C81.1992 37.5033 81.1347 37.4356 81.0898 37.3876C81.0451 37.3396 80.9709 37.2565 80.925 37.203C80.8792 37.1495 80.8201 37.0792 80.7936 37.0467C80.7672 37.0142 80.711 36.9417 80.6686 36.8856C80.6262 36.8295 80.5685 36.7506 80.5404 36.7104C80.5121 36.6702 80.4587 36.5904 80.4216 36.5332C80.3844 36.4759 80.322 36.3743 80.2829 36.3074C80.2438 36.2405 80.1841 36.1323 80.1502 36.067C80.1163 36.0017 80.0723 35.9131 80.0525 35.8702C80.0326 35.8272 80.0024 35.7597 79.9853 35.7203C79.9681 35.6809 79.9332 35.5941 79.9076 35.5275C79.882 35.4609 79.8479 35.3666 79.8319 35.3179C79.8158 35.2693 79.7894 35.1846 79.7734 35.1297C79.7573 35.0748 79.7307 34.9749 79.7143 34.9077C79.6979 34.8405 79.6743 34.7307 79.6618 34.6638C79.6494 34.5969 79.6316 34.4888 79.6222 34.4234C79.6129 34.3581 79.5989 34.2101 79.5909 34.0945C79.5831 33.979 79.5775 33.8195 79.5785 33.7401C79.5796 33.6607 79.5839 33.5409 79.5881 33.4738C79.5924 33.4068 79.6005 33.309 79.6061 33.2566C79.6118 33.2042 79.6242 33.1093 79.6337 33.0456C79.6433 32.982 79.6586 32.8917 79.6676 32.8451C79.6767 32.7984 79.694 32.7171 79.706 32.6645C79.7181 32.6118 79.741 32.5211 79.7569 32.4629C79.7728 32.4047 79.7992 32.3144 79.8156 32.2622C79.8321 32.2101 79.8619 32.1216 79.8818 32.0657C79.9018 32.0098 79.9489 31.8903 79.9866 31.8001C80.0242 31.71 80.0784 31.588 80.107 31.5292C80.1355 31.4704 80.1773 31.387 80.1999 31.3441C80.2224 31.3011 80.2643 31.2246 80.2929 31.1741C80.3215 31.1237 80.3678 31.0445 80.3959 30.9981C80.4239 30.9517 80.4895 30.8497 80.5417 30.7714C80.5939 30.6932 80.6736 30.5792 80.7187 30.5181C80.7639 30.457 80.838 30.3602 80.8834 30.3031C80.9288 30.246 80.9988 30.1611 81.0388 30.1144C81.0789 30.0677 81.1551 29.9816 81.2082 29.923C81.2612 29.8644 81.347 29.7725 81.3988 29.719C81.4506 29.6654 81.5307 29.5845 81.5768 29.5393C81.6229 29.494 81.7082 29.4129 81.7664 29.3591C81.8245 29.3052 81.9149 29.2238 81.9671 29.1781C82.0194 29.1325 82.0977 29.0647 82.1412 29.0276C82.1847 28.9905 82.3413 28.8675 82.489 28.7543C82.6586 28.6245 82.8105 28.5122 82.9006 28.4502C82.9792 28.3962 83.111 28.3081 83.1937 28.2544C83.2764 28.2008 83.3938 28.1265 83.4545 28.0894C83.5153 28.0523 83.6159 27.9923 83.6781 27.956C83.7404 27.9197 83.8514 27.8567 83.925 27.8161C83.9986 27.7754 84.1191 27.7107 84.1929 27.6724C84.2668 27.6341 84.3808 27.5762 84.4465 27.5437C84.512 27.5112 84.6146 27.4616 84.6743 27.4335C84.734 27.4054 84.8234 27.3642 84.8728 27.3418C84.9223 27.3195 85.036 27.2699 85.1255 27.2315C85.215 27.1931 85.3704 27.129 85.4708 27.0891C85.5712 27.0491 85.7075 26.9964 85.7737 26.9718C85.8399 26.9473 85.9475 26.9083 86.0128 26.8853C86.0781 26.8622 86.1896 26.8238 86.2605 26.8001C86.3315 26.7763 86.4562 26.7359 86.5377 26.7103C86.6192 26.6847 86.7919 26.6334 86.9215 26.5963C87.0512 26.5591 87.2382 26.5079 87.3372 26.4825C87.4362 26.457 87.6086 26.4149 87.7204 26.3889C87.8321 26.3629 88.0045 26.3248 88.1034 26.3042C88.2024 26.2836 88.3562 26.2532 88.4453 26.2366C88.5344 26.22 88.7098 26.1897 88.8351 26.1692C88.9604 26.1487 89.1351 26.1219 89.2231 26.1096C89.3113 26.0973 89.4561 26.0783 89.5451 26.0676C89.634 26.0568 89.7814 26.0404 89.8726 26.031C89.964 26.0217 90.1403 26.0056 90.2644 25.9952C90.3886 25.9849 90.6043 25.9707 90.7436 25.9637C90.883 25.9568 91.0688 25.949 91.1567 25.9464C91.2445 25.9437 91.3968 25.9407 91.4952 25.9398C91.5935 25.9388 91.7282 25.9384 91.7946 25.9388C91.861 25.9392 92.0038 25.9417 92.1118 25.9444C92.2198 25.9471 92.391 25.9531 92.4922 25.9579C92.5933 25.9626 92.7586 25.9722 92.8595 25.9792C92.9603 25.9861 93.1504 26.0019 93.2818 26.0142C93.4132 26.0265 93.5974 26.0459 93.6911 26.0572C93.7849 26.0685 93.9516 26.0907 94.0617 26.1065C94.1718 26.1223 94.3197 26.1448 94.3906 26.1565C94.4615 26.1683 94.591 26.191 94.6784 26.207C94.7658 26.223 94.9072 26.2506 94.9925 26.2681C95.0778 26.2857 95.2246 26.3178 95.3187 26.3393C95.4127 26.3609 95.5645 26.3977 95.6561 26.421C95.7476 26.4445 95.9073 26.4876 96.0109 26.5168C96.1145 26.5462 96.2716 26.5927 96.36 26.6202C96.4485 26.6478 96.5915 26.6944 96.6778 26.7238C96.7642 26.7533 96.8945 26.7993 96.9675 26.8261C97.0406 26.853 97.1572 26.8973 97.2267 26.9247C97.2963 26.952 97.4104 26.9983 97.4802 27.0275C97.5501 27.0567 97.6659 27.1069 97.7375 27.1389C97.8092 27.1709 97.9252 27.2243 97.9952 27.2575C98.0653 27.2908 98.2055 27.3603 98.3066 27.4121C98.4149 27.4675 98.5707 27.5525 98.6856 27.6187C98.7927 27.6806 98.9225 27.7579 98.9739 27.7905C99.0252 27.8231 99.1268 27.8891 99.1994 27.9371C99.2722 27.9851 99.3965 28.0699 99.4757 28.1256C99.555 28.1812 99.6717 28.2649 99.7351 28.3115C99.7985 28.3581 99.9195 28.4489 100.004 28.5131C100.088 28.5774 100.212 28.6724 100.278 28.7242C100.346 28.7777 100.417 28.8292 100.443 28.8434C100.468 28.8572 100.517 28.8811 100.551 28.8965C100.585 28.912 100.641 28.9335 100.675 28.9444C100.709 28.9553 100.765 28.9684 100.799 28.9735L100.861 28.9827L101.924 28.9095C102.732 28.8538 103 28.8332 103.042 28.8235C103.073 28.8165 103.123 28.8004 103.154 28.7876C103.184 28.7748 103.233 28.7498 103.263 28.732C103.298 28.7107 103.331 28.686 103.36 28.6593C103.384 28.637 103.414 28.6067 103.425 28.5918C103.437 28.5769 103.456 28.5485 103.468 28.5286C103.476 28.5064 103.492 28.4729 103.498 28.4516C103.505 28.4303 103.511 28.3957 103.511 28.3746C103.511 28.3529 103.507 28.3233 103.5 28.3078C103.492 28.2889 103.46 28.2506 103.399 28.1882C103.348 28.1371 103.268 28.0565 103.218 28.0078C103.168 27.959 103.091 27.8851 103.047 27.8432C103.002 27.8012 102.921 27.7264 102.867 27.677C102.812 27.6276 102.712 27.5388 102.643 27.4796C102.574 27.4203 102.463 27.327 102.397 27.2727C102.33 27.2178 102.21 27.1224 102.132 27.0607L101.988 26.948L100.609 26.1803ZM108.155 30.3701L107.86 30.2066L104.751 30.4845L101.641 30.7623L101.357 31.2194C101.201 31.4707 101.058 31.7014 101.039 31.732L101.004 31.7876L99.4447 31.8615L97.8856 31.9354L97.8685 31.8967C97.8591 31.8755 97.8277 31.8108 97.7987 31.753C97.7698 31.6952 97.7088 31.5869 97.6631 31.5123C97.6175 31.4378 97.5597 31.3475 97.5348 31.3118C97.5098 31.2762 97.4603 31.2089 97.4246 31.1624C97.3891 31.1159 97.3318 31.0441 97.2974 31.0029C97.263 30.9617 97.2051 30.8956 97.1686 30.856C97.1322 30.8164 97.0752 30.7563 97.0422 30.7226C97.009 30.6888 96.9496 30.6307 96.91 30.5934C96.8705 30.5561 96.8099 30.5004 96.7753 30.4697C96.7408 30.4389 96.6698 30.3791 96.6177 30.3368C96.5655 30.2945 96.4923 30.2365 96.4549 30.2081C96.4176 30.1796 96.3447 30.1264 96.2929 30.0899C96.2412 30.0534 96.1501 29.9915 96.0905 29.9526C96.0309 29.9136 95.9036 29.8362 95.8075 29.7805C95.7044 29.7207 95.571 29.6481 95.4811 29.603C95.3976 29.561 95.2811 29.5046 95.2222 29.4777C95.1632 29.4507 95.0566 29.404 94.9852 29.3739C94.9137 29.3438 94.8099 29.3018 94.7544 29.2807C94.6989 29.2595 94.5992 29.223 94.5327 29.1996C94.4664 29.1762 94.354 29.1388 94.2832 29.1166C94.2124 29.0944 94.1017 29.0611 94.0372 29.0426C93.9728 29.024 93.8497 28.9913 93.7638 28.9699C93.6779 28.9484 93.551 28.9186 93.4818 28.9036C93.4125 28.8885 93.2915 28.864 93.2128 28.8491C93.1342 28.8342 92.9752 28.8079 92.8595 28.7907C92.7439 28.7735 92.5857 28.7523 92.508 28.7436C92.4302 28.735 92.309 28.7229 92.2385 28.7168C92.168 28.7107 92.0371 28.7013 91.9475 28.6961C91.858 28.6908 91.716 28.6846 91.632 28.6823C91.5481 28.68 91.4224 28.6781 91.3528 28.678C91.2832 28.6779 91.1558 28.6793 91.0697 28.681C90.9836 28.6828 90.7747 28.6937 90.6055 28.7052C90.4362 28.7167 90.2344 28.7333 90.157 28.742C90.0796 28.7507 89.9508 28.7669 89.8707 28.7779C89.7906 28.7889 89.6557 28.8094 89.571 28.8234C89.4863 28.8374 89.3467 28.8628 89.2608 28.8799C89.1749 28.8969 89.048 28.9237 88.9787 28.9394C88.9094 28.9551 88.7907 28.9837 88.7149 29.0028C88.6391 29.022 88.4852 29.0645 88.373 29.0973C88.2607 29.1301 88.1068 29.1777 88.0309 29.2032C87.955 29.2286 87.8384 29.2694 87.7719 29.2937C87.7053 29.318 87.5837 29.3648 87.5016 29.3978C87.4196 29.4307 87.3068 29.4776 87.2509 29.502C87.1951 29.5264 87.0899 29.5745 87.0171 29.6088C86.9443 29.6432 86.8335 29.6977 86.7709 29.73C86.7083 29.7622 86.6144 29.8119 86.5623 29.8404C86.5102 29.8689 86.4144 29.9238 86.3492 29.9623C86.2841 30.0008 86.1835 30.0624 86.1257 30.0993C86.0679 30.1361 85.9664 30.2034 85.9001 30.249C85.8338 30.2945 85.7304 30.3687 85.6702 30.4138C85.6101 30.4589 85.5119 30.5359 85.452 30.585C85.3921 30.6341 85.304 30.709 85.2562 30.7514C85.2084 30.7938 85.129 30.8671 85.0797 30.9144C85.0304 30.9617 84.9606 31.0311 84.9247 31.0686C84.8888 31.1061 84.8266 31.1734 84.7866 31.2182C84.7465 31.2629 84.6795 31.3418 84.6377 31.3934C84.596 31.445 84.538 31.5193 84.5089 31.5586C84.4798 31.5978 84.4247 31.6768 84.3865 31.7341C84.3483 31.7914 84.2946 31.876 84.2673 31.9221C84.24 31.9682 84.195 32.0487 84.1673 32.1009C84.1396 32.1531 84.0894 32.2585 84.056 32.335C84.0225 32.4115 83.9803 32.5161 83.9622 32.5673C83.9442 32.6186 83.9181 32.6986 83.9044 32.7451C83.8906 32.7918 83.8685 32.8768 83.8551 32.9341C83.8418 32.9915 83.8237 33.0843 83.8149 33.1405C83.806 33.1967 83.7947 33.2858 83.7898 33.3386C83.7848 33.3913 83.7793 33.476 83.7774 33.5267C83.7756 33.5773 83.7803 33.7086 83.7879 33.8184C83.7954 33.9282 83.8098 34.0631 83.8199 34.1183C83.83 34.1735 83.8469 34.2551 83.8574 34.2995C83.868 34.3439 83.8898 34.4243 83.906 34.4783C83.9222 34.5322 83.9551 34.6274 83.9791 34.6898C84.003 34.7522 84.0404 34.8413 84.0622 34.8878C84.0838 34.9343 84.1182 35.0044 84.1385 35.0436C84.1588 35.0828 84.211 35.1732 84.2546 35.2444C84.2982 35.3157 84.3621 35.4133 84.3967 35.4613C84.4312 35.5093 84.4868 35.5828 84.5201 35.6248C84.5535 35.6667 84.6153 35.7402 84.6575 35.7881C84.6998 35.8359 84.7651 35.9067 84.8029 35.9454C84.8406 35.984 84.911 36.0528 84.9591 36.0983C85.0074 36.1437 85.0897 36.2172 85.1421 36.2616C85.1945 36.306 85.2746 36.371 85.32 36.4059C85.3654 36.4409 85.4292 36.4889 85.4618 36.5127C85.4944 36.5363 85.5579 36.5811 85.603 36.6121C85.6482 36.6431 85.7207 36.6915 85.7642 36.7195C85.8076 36.7477 85.9217 36.8162 86.0176 36.8718C86.1237 36.9335 86.2538 37.0043 86.3499 37.0526C86.4367 37.0962 86.5675 37.1591 86.6405 37.1922C86.7135 37.2253 86.819 37.2713 86.8746 37.2943C86.9304 37.3174 87.0381 37.3599 87.1139 37.3888C87.1898 37.4177 87.3165 37.4631 87.3955 37.4896C87.4745 37.5161 87.5766 37.5492 87.6223 37.563C87.6681 37.5768 87.7518 37.6013 87.8084 37.6174C87.865 37.6336 87.9641 37.6603 88.0285 37.6768C88.093 37.6933 88.2162 37.7225 88.3023 37.7415C88.3885 37.7606 88.519 37.7878 88.5923 37.8018C88.6656 37.8158 88.7935 37.838 88.8766 37.851C88.9596 37.8639 89.0839 37.8819 89.1528 37.8911C89.2217 37.9002 89.332 37.9133 89.3981 37.9203C89.4641 37.9273 89.5841 37.9383 89.6647 37.9448C89.7453 37.9513 89.8797 37.9601 89.9634 37.9643C90.047 37.9685 90.1686 37.9732 90.2336 37.9747C90.2985 37.9762 90.4184 37.9775 90.5 37.9776C90.5815 37.9776 90.7089 37.9763 90.783 37.9746C90.857 37.9729 91.0586 37.9618 91.2309 37.95C91.4032 37.9383 91.6155 37.9203 91.7027 37.9102C91.7899 37.9 91.9251 37.8827 92.0032 37.8717C92.0814 37.8607 92.2136 37.8401 92.2972 37.826C92.3808 37.8119 92.5203 37.786 92.6072 37.7684C92.694 37.7508 92.8248 37.7226 92.8977 37.7056C92.9705 37.6886 93.0805 37.662 93.142 37.6463C93.2035 37.6307 93.3457 37.5911 93.4579 37.5583C93.5701 37.5255 93.7242 37.4779 93.8 37.4524C93.8759 37.427 93.9925 37.3863 94.0591 37.3619C94.1257 37.3376 94.2473 37.2908 94.3293 37.2579C94.4114 37.2249 94.5227 37.1787 94.5766 37.155C94.6306 37.1314 94.7298 37.0862 94.7969 37.0546C94.864 37.0229 94.9545 36.9792 94.9979 36.9573C95.0414 36.9355 95.1147 36.8977 95.1608 36.8734C95.2068 36.8491 95.2919 36.8023 95.3498 36.7695C95.4076 36.7367 95.4901 36.6886 95.5331 36.6627C95.5762 36.6368 95.6536 36.589 95.7052 36.5563C95.7568 36.5238 95.8646 36.452 95.9447 36.3969C96.0325 36.3365 96.1525 36.2483 96.2468 36.1748C96.3328 36.1076 96.4473 36.0145 96.501 35.9678C96.5548 35.9211 96.6366 35.8475 96.6829 35.8042C96.7292 35.761 96.7991 35.6933 96.8383 35.6538C96.8775 35.6143 96.9364 35.553 96.9693 35.5176C97.0021 35.4823 97.0555 35.423 97.0879 35.386C97.1203 35.3489 97.1751 35.2839 97.2096 35.2413C97.2441 35.1989 97.2932 35.1364 97.3187 35.1026C97.3442 35.0688 97.3937 35.0006 97.4287 34.9511C97.4637 34.9016 97.5184 34.8192 97.5504 34.7681C97.5824 34.7169 97.6316 34.6345 97.6597 34.585C97.6878 34.5355 97.727 34.4633 97.7467 34.4245C97.7665 34.3857 97.8053 34.3038 97.8329 34.2425C97.8606 34.1813 97.8995 34.087 97.9195 34.0329C97.9394 33.9789 97.9682 33.895 97.9834 33.8466L98.011 33.7584L99.6172 33.6482L101.223 33.5381L101.556 33.9739L101.889 34.4096L105.036 34.1941C107.478 34.0269 108.195 33.9759 108.238 33.966C108.268 33.959 108.314 33.9447 108.34 33.9342C108.376 33.9195 108.405 33.9024 108.465 33.8598C108.531 33.8129 108.548 33.7984 108.575 33.7647C108.593 33.7429 108.616 33.7047 108.627 33.6799C108.638 33.6551 108.65 33.6157 108.654 33.5922C108.657 33.5687 108.657 33.5333 108.654 33.5135C108.65 33.4936 108.64 33.461 108.631 33.4408C108.621 33.4207 108.604 33.3927 108.592 33.3784C108.58 33.3643 108.353 33.1205 108.087 32.8368C107.82 32.5532 107.593 32.3135 107.58 32.3043C107.568 32.2951 107.55 32.2745 107.54 32.2585C107.529 32.2413 107.52 32.2088 107.518 32.1786C107.516 32.1507 107.518 32.1093 107.522 32.0867C107.527 32.0641 107.54 32.0196 107.551 31.9878L107.572 31.93L107.993 31.336C108.225 31.0094 108.421 30.7267 108.43 30.708C108.438 30.6893 108.448 30.6551 108.451 30.6322C108.455 30.6092 108.455 30.5776 108.453 30.5619L108.449 30.5335L108.155 30.3701ZM93.8395 31.1956C93.9406 31.2535 94.0564 31.3236 94.1011 31.3543C94.1451 31.3845 94.2072 31.4287 94.239 31.4525C94.2709 31.4761 94.3341 31.5271 94.3797 31.5657C94.4251 31.6044 94.4982 31.6728 94.5421 31.7178C94.5859 31.7629 94.6391 31.8205 94.6603 31.846C94.6814 31.8715 94.7202 31.9212 94.7466 31.9563C94.7729 31.9914 94.8108 32.0454 94.8308 32.0762C94.8508 32.107 94.8673 32.1339 94.8674 32.1359C94.8676 32.1379 93.9479 32.2027 92.8236 32.2799C91.6994 32.357 90.7453 32.425 90.7034 32.4309C90.6615 32.4367 90.5923 32.4484 90.5495 32.4568C90.5068 32.4652 90.4276 32.4851 90.3735 32.501C90.3194 32.5169 90.241 32.5439 90.1993 32.5609C90.1576 32.5779 90.1 32.604 90.0714 32.6187C90.0428 32.6335 89.9952 32.6603 89.9656 32.6783C89.936 32.6963 89.8914 32.7264 89.8664 32.7451C89.8415 32.7638 89.8021 32.7968 89.7789 32.8183C89.7557 32.8399 89.7217 32.8743 89.7034 32.8948C89.6851 32.9152 89.6538 32.9558 89.6339 32.985C89.614 33.0141 89.5844 33.0682 89.5681 33.1051C89.5518 33.142 89.533 33.1955 89.5265 33.224C89.52 33.2526 89.5128 33.2972 89.5107 33.3232C89.5085 33.3492 89.5098 33.4036 89.5137 33.4442C89.5176 33.4846 89.5271 33.5387 89.5349 33.5643C89.5426 33.5899 89.5575 33.6301 89.568 33.6536C89.5785 33.6771 89.6012 33.7183 89.6184 33.7451C89.6357 33.7719 89.6662 33.8124 89.6862 33.835C89.7062 33.8577 89.7415 33.8929 89.7645 33.9133C89.7875 33.9337 89.8293 33.9664 89.8573 33.9861C89.8852 34.0057 89.9299 34.0339 89.9565 34.0486C89.9831 34.0633 90.0309 34.0867 90.0627 34.1005C90.0945 34.1143 90.1453 34.1344 90.1756 34.1452C90.206 34.1559 90.2665 34.1738 90.3102 34.1849C90.3538 34.196 90.4274 34.2111 90.4735 34.2184C90.5196 34.2257 90.5945 34.2347 90.6398 34.2384C90.6851 34.242 90.7586 34.2451 90.8032 34.2452C90.8478 34.2452 91.8066 34.1823 92.9339 34.1053C94.0612 34.0283 94.9862 33.9667 94.9893 33.9685C94.9925 33.9702 94.9781 34.0069 94.9572 34.0498C94.9363 34.0929 94.905 34.153 94.8876 34.1836C94.8703 34.2141 94.8423 34.2613 94.8255 34.2883C94.8088 34.3154 94.7645 34.3789 94.7272 34.4295C94.6898 34.4801 94.6267 34.5578 94.587 34.6023C94.5471 34.6468 94.4827 34.714 94.4437 34.7517C94.4048 34.7894 94.3449 34.8455 94.3108 34.8763C94.2734 34.9101 94.1721 34.9897 94.0564 35.0762C93.9159 35.1814 93.8377 35.2364 93.7662 35.2806C93.7124 35.3139 93.6294 35.3634 93.5818 35.3906C93.5342 35.4178 93.4574 35.4597 93.4113 35.4839C93.3651 35.508 93.2722 35.5536 93.2048 35.585C93.1373 35.6165 93.0249 35.6655 92.9549 35.6938C92.8848 35.7221 92.7742 35.7641 92.709 35.787C92.6437 35.8099 92.5204 35.8493 92.4348 35.8746C92.3493 35.8998 92.2303 35.9324 92.1704 35.9471C92.1107 35.9617 92.0082 35.9847 91.9429 35.9982C91.8776 36.0118 91.7586 36.0334 91.6785 36.0463C91.5983 36.0592 91.4769 36.0764 91.4087 36.0845C91.3405 36.0925 91.2015 36.1048 91.0999 36.1117C90.9983 36.1186 90.8613 36.1252 90.7957 36.1263C90.73 36.1275 90.6098 36.1269 90.5287 36.1249C90.4476 36.123 90.3267 36.1177 90.2601 36.1133C90.1934 36.1088 90.0888 36.0999 90.0277 36.0935C89.9664 36.0872 89.8442 36.071 89.7561 36.0576C89.6679 36.0442 89.5403 36.022 89.4726 36.0081C89.4049 35.9943 89.2896 35.9678 89.2163 35.9492C89.1431 35.9307 89.0251 35.8975 88.954 35.8755C88.8829 35.8535 88.7846 35.821 88.7356 35.8034C88.6866 35.7857 88.6049 35.7546 88.554 35.7341C88.5031 35.7137 88.4159 35.6764 88.3601 35.6513C88.3042 35.6262 88.1929 35.5711 88.1126 35.5288C88.0266 35.4835 87.9223 35.4241 87.859 35.3841C87.7999 35.3469 87.7106 35.2872 87.6604 35.2516C87.6104 35.2159 87.5282 35.153 87.4779 35.1119C87.4277 35.0708 87.3619 35.0139 87.3319 34.9856C87.3019 34.9572 87.2571 34.9132 87.2323 34.8878C87.2076 34.8625 87.1654 34.8171 87.1385 34.787C87.1117 34.7568 87.0622 34.6964 87.0284 34.6527C86.9947 34.609 86.9369 34.5239 86.8999 34.4637C86.863 34.4035 86.8146 34.3149 86.7923 34.2667C86.7701 34.2185 86.7437 34.1578 86.7338 34.1318C86.724 34.1057 86.7035 34.0422 86.6884 33.9908C86.6733 33.9394 86.6542 33.8613 86.6459 33.8172C86.6377 33.7732 86.6273 33.6849 86.6229 33.621C86.6185 33.5571 86.6167 33.4682 86.6189 33.4235C86.621 33.3787 86.6292 33.2986 86.6371 33.2456C86.645 33.1925 86.6604 33.1132 86.6713 33.0695C86.6822 33.0257 86.7022 32.9569 86.7158 32.9166C86.7293 32.8763 86.7616 32.7955 86.7875 32.7372C86.8135 32.6788 86.8555 32.5942 86.8809 32.5492C86.9063 32.5041 86.9541 32.4273 86.9871 32.3783C87.02 32.3294 87.0783 32.2504 87.1164 32.2026C87.1546 32.1549 87.2106 32.0888 87.2407 32.0558C87.2709 32.0228 87.3227 31.9685 87.3557 31.9351C87.3889 31.9018 87.4534 31.8405 87.4991 31.7989C87.5612 31.7424 87.6302 31.6872 87.7716 31.5812C87.913 31.4751 87.9872 31.4229 88.0645 31.3748C88.1215 31.3394 88.2058 31.2891 88.2519 31.263C88.298 31.2369 88.3734 31.1958 88.4196 31.1717C88.4657 31.1475 88.5585 31.1019 88.6259 31.0704C88.6933 31.0389 88.8058 30.9899 88.8761 30.9616C88.9463 30.9332 89.057 30.8913 89.1221 30.8684C89.1871 30.8456 89.3104 30.8062 89.3959 30.7809C89.4814 30.7556 89.6003 30.723 89.6601 30.7084C89.7198 30.6937 89.8222 30.6707 89.8877 30.6572C89.953 30.6437 90.0722 30.6221 90.1522 30.6092C90.2323 30.5962 90.3513 30.5792 90.4166 30.5715C90.4819 30.5637 90.6209 30.5515 90.7255 30.5443C90.8301 30.5371 90.9785 30.5304 91.0551 30.5294C91.1318 30.5284 91.2475 30.5289 91.3123 30.5305C91.377 30.5322 91.4722 30.5361 91.5239 30.5392C91.5756 30.5423 91.6708 30.5496 91.7356 30.5555C91.8003 30.5613 91.93 30.5771 92.0238 30.5904C92.1176 30.6038 92.2573 30.6274 92.3342 30.6429C92.4113 30.6584 92.5256 30.6839 92.5885 30.6996C92.6513 30.7152 92.7507 30.7422 92.8094 30.7595C92.868 30.7769 92.9519 30.803 92.9957 30.8176C93.0395 30.8323 93.1283 30.8644 93.1932 30.889C93.258 30.9136 93.353 30.9521 93.4042 30.9745C93.4555 30.9968 93.5335 31.0325 93.5778 31.0536C93.6219 31.0747 93.7398 31.1387 93.8395 31.1956Z" fill="#7DB834"/>
<path opacity="0.5" d="M244.914 284.125L295.493 254.966C296.594 254.338 296.449 253.227 295.191 252.503L280.327 243.942L225.768 275.384L240.632 283.944C241.902 284.681 243.813 284.765 244.914 284.125Z" fill="#32589D" fill-opacity="0.6"/>
<path d="M173.012 244.449V234.391L189.424 234.403L225.841 213.406C226.736 212.887 228.296 212.959 229.324 213.551L265.583 234.452L281.923 234.464V244.546H281.911C281.899 244.86 281.705 245.162 281.318 245.379L229.07 275.492C228.175 276.011 226.615 275.939 225.587 275.347L173.846 245.524C173.326 245.222 173.036 244.823 173.012 244.449Z" fill="url(#paint5_linear_94_13326)"/>
<path d="M229.082 265.434L281.33 235.321C282.225 234.802 282.117 233.908 281.077 233.317L229.336 203.493C228.308 202.901 226.748 202.829 225.853 203.348L173.605 233.461C172.71 233.981 172.818 234.874 173.859 235.466L225.599 265.289C226.627 265.881 228.187 265.954 229.082 265.434Z" fill="url(#paint6_linear_94_13326)"/>
<path d="M228.901 261.909L275.211 235.212C275.997 234.753 275.9 233.957 274.993 233.425L229.13 206.995C228.211 206.463 226.833 206.415 226.034 206.862L179.724 233.558C178.938 234.017 179.035 234.814 179.942 235.345L225.805 261.776C226.724 262.307 228.115 262.367 228.901 261.909Z" fill="#32589D"/>
<path d="M229.4 260.207L271.949 235.684C272.674 235.262 272.59 234.537 271.743 234.042L229.606 209.761C228.771 209.278 227.489 209.23 226.763 209.64L184.215 234.163C183.489 234.586 183.574 235.31 184.421 235.805L226.558 260.087C227.404 260.57 228.674 260.618 229.4 260.207Z" fill="#102140"/>
<path d="M237.023 228.243L235.639 227.474L235.485 227.414C235.4 227.382 235.279 227.336 235.215 227.313C235.151 227.289 235.026 227.245 234.936 227.215C234.847 227.184 234.645 227.119 234.488 227.07C234.331 227.021 234.126 226.958 234.032 226.931C233.939 226.904 233.789 226.861 233.699 226.837C233.61 226.812 233.468 226.775 233.384 226.754C233.301 226.732 233.155 226.697 233.061 226.674C232.966 226.652 232.837 226.622 232.773 226.608C232.709 226.594 232.576 226.566 232.478 226.546C232.379 226.526 232.216 226.494 232.115 226.476C232.015 226.457 231.849 226.427 231.746 226.41C231.643 226.393 231.445 226.362 231.304 226.342C231.164 226.322 230.974 226.296 230.883 226.285C230.792 226.274 230.634 226.256 230.533 226.245C230.432 226.235 230.27 226.219 230.175 226.21C230.079 226.201 229.919 226.188 229.82 226.181C229.72 226.174 229.595 226.165 229.541 226.162C229.487 226.159 229.35 226.152 229.237 226.146C229.124 226.141 228.929 226.134 228.803 226.131C228.677 226.127 228.51 226.124 228.432 226.123C228.354 226.122 228.215 226.122 228.122 226.123C228.029 226.123 227.891 226.125 227.813 226.126C227.736 226.127 227.602 226.131 227.514 226.133C227.427 226.136 227.258 226.143 227.139 226.149C227.02 226.154 226.778 226.169 226.602 226.182C226.426 226.195 226.195 226.213 226.09 226.224C225.984 226.234 225.822 226.251 225.729 226.261C225.637 226.271 225.482 226.29 225.384 226.303C225.287 226.315 225.138 226.335 225.053 226.348C224.968 226.36 224.813 226.383 224.708 226.4C224.603 226.417 224.438 226.445 224.342 226.462C224.246 226.479 224.057 226.514 223.922 226.541C223.788 226.568 223.597 226.608 223.498 226.629C223.399 226.651 223.255 226.684 223.177 226.702C223.1 226.72 222.978 226.75 222.907 226.768C222.836 226.785 222.709 226.818 222.625 226.841C222.541 226.863 222.357 226.914 222.217 226.955C222.076 226.995 221.887 227.051 221.797 227.08C221.706 227.108 221.566 227.153 221.486 227.179C221.406 227.206 221.262 227.255 221.164 227.289C221.067 227.324 220.913 227.379 220.822 227.413C220.731 227.447 220.565 227.511 220.453 227.556C220.34 227.6 220.165 227.672 220.064 227.715C219.962 227.759 219.809 227.826 219.723 227.864C219.637 227.903 219.494 227.969 219.405 228.011C219.316 228.054 219.173 228.123 219.088 228.166C219.003 228.209 218.88 228.272 218.815 228.306C218.749 228.341 218.636 228.402 218.563 228.442C218.49 228.482 218.362 228.554 218.277 228.603C218.192 228.652 218.05 228.736 217.961 228.79C217.873 228.844 217.738 228.928 217.663 228.976C217.588 229.024 217.48 229.094 217.424 229.132C217.354 229.178 217.138 229.339 216.755 229.628L216.19 230.055L216.069 230.162C216.003 230.221 215.907 230.307 215.856 230.354C215.805 230.4 215.715 230.485 215.656 230.542C215.597 230.599 215.502 230.692 215.446 230.749C215.39 230.806 215.297 230.903 215.24 230.964C215.183 231.026 215.097 231.122 215.047 231.177C214.998 231.233 214.916 231.329 214.865 231.391C214.814 231.453 214.729 231.559 214.676 231.627C214.623 231.695 214.543 231.801 214.498 231.863C214.454 231.924 214.367 232.049 214.307 232.14C214.246 232.23 214.154 232.375 214.102 232.461C214.05 232.547 213.972 232.682 213.929 232.762C213.886 232.841 213.827 232.953 213.799 233.01C213.77 233.066 213.72 233.172 213.687 233.243C213.654 233.315 213.606 233.423 213.581 233.484C213.556 233.545 213.519 233.639 213.499 233.693C213.479 233.747 213.449 233.829 213.433 233.875C213.417 233.922 213.388 234.009 213.369 234.07C213.35 234.13 213.322 234.227 213.306 234.285C213.29 234.343 213.263 234.449 213.246 234.52C213.229 234.591 213.209 234.682 213.201 234.721C213.193 234.761 213.18 234.829 213.172 234.873C213.164 234.916 213.149 235.011 213.139 235.084C213.128 235.157 213.115 235.266 213.108 235.328C213.102 235.39 213.093 235.499 213.089 235.571C213.084 235.643 213.079 235.757 213.078 235.823C213.076 235.889 213.076 235.992 213.077 236.052C213.078 236.112 213.084 236.249 213.091 236.357C213.099 236.465 213.111 236.604 213.119 236.668C213.126 236.731 213.141 236.835 213.151 236.898C213.161 236.962 213.18 237.068 213.193 237.133C213.206 237.199 213.23 237.309 213.247 237.378C213.264 237.447 213.297 237.571 213.321 237.654C213.345 237.736 213.383 237.858 213.406 237.925C213.429 237.991 213.467 238.097 213.492 238.161C213.516 238.224 213.553 238.316 213.574 238.365C213.595 238.414 213.641 238.517 213.676 238.593C213.712 238.669 213.77 238.786 213.805 238.854C213.841 238.922 213.901 239.032 213.939 239.1C213.978 239.167 214.048 239.284 214.096 239.359C214.143 239.434 214.212 239.538 214.248 239.591C214.284 239.643 214.344 239.728 214.381 239.779C214.418 239.83 214.487 239.921 214.534 239.981C214.58 240.04 214.653 240.131 214.696 240.183C214.739 240.234 214.803 240.31 214.839 240.35C214.874 240.391 214.953 240.478 215.015 240.545C215.077 240.611 215.171 240.709 215.224 240.761C215.276 240.814 215.38 240.914 215.455 240.984C215.529 241.054 215.64 241.154 215.7 241.207C215.761 241.259 215.845 241.331 215.888 241.367C215.93 241.402 216.004 241.461 216.051 241.499C216.098 241.537 216.184 241.603 216.24 241.646C216.297 241.689 216.37 241.744 216.403 241.768C216.435 241.792 216.493 241.834 216.532 241.861C216.57 241.888 216.649 241.943 216.706 241.982C216.763 242.021 216.861 242.087 216.925 242.13C217.027 242.197 217.118 242.249 217.705 242.575L218.369 242.945L218.539 243.023C218.632 243.066 218.776 243.131 218.859 243.167C218.941 243.204 219.078 243.262 219.162 243.297C219.246 243.333 219.372 243.384 219.442 243.411C219.511 243.439 219.637 243.487 219.72 243.518C219.804 243.549 219.943 243.599 220.028 243.629C220.114 243.659 220.265 243.71 220.364 243.742C220.464 243.775 220.63 243.827 220.733 243.858C220.837 243.889 221.006 243.937 221.108 243.965C221.21 243.993 221.37 244.035 221.464 244.059C221.558 244.083 221.695 244.116 221.768 244.134C221.842 244.151 221.972 244.18 222.057 244.199C222.143 244.217 222.269 244.243 222.338 244.257C222.407 244.271 222.531 244.295 222.613 244.31C222.694 244.325 222.826 244.349 222.906 244.362C222.986 244.376 223.128 244.399 223.223 244.414C223.318 244.429 223.487 244.453 223.598 244.467C223.71 244.482 223.886 244.504 223.99 244.516C224.094 244.528 224.281 244.547 224.405 244.558C224.529 244.57 224.712 244.585 224.811 244.592C224.91 244.599 225.036 244.608 225.09 244.611C225.145 244.615 225.275 244.621 225.38 244.626C225.485 244.631 225.69 244.638 225.836 244.642C225.982 244.645 226.197 244.648 226.313 244.649C226.43 244.649 226.586 244.648 226.66 244.647C226.734 244.646 226.83 244.645 226.873 244.644C226.917 244.643 227.045 244.638 227.158 244.635C227.272 244.631 227.488 244.621 227.639 244.612C227.791 244.604 228.01 244.589 228.126 244.579C228.243 244.57 228.406 244.555 228.488 244.548C228.571 244.54 228.711 244.525 228.8 244.515C228.889 244.506 229.024 244.49 229.1 244.481C229.176 244.471 229.329 244.451 229.439 244.436C229.549 244.42 229.738 244.392 229.859 244.373C229.98 244.354 230.164 244.323 230.268 244.304C230.372 244.286 230.574 244.247 230.716 244.219C230.858 244.19 231.028 244.155 231.095 244.14C231.162 244.125 231.29 244.096 231.38 244.075C231.469 244.055 231.623 244.017 231.72 243.993C231.817 243.969 231.958 243.932 232.033 243.913C232.107 243.893 232.293 243.841 232.445 243.797C232.597 243.753 232.779 243.699 232.849 243.677C232.919 243.654 233.05 243.613 233.139 243.583C233.228 243.554 233.36 243.51 233.432 243.485C233.504 243.46 233.63 243.415 233.711 243.386C233.792 243.357 233.936 243.303 234.03 243.267C234.124 243.231 234.276 243.171 234.367 243.134C234.459 243.097 234.604 243.037 234.69 243C234.776 242.964 234.913 242.903 234.995 242.867C235.077 242.83 235.223 242.762 235.32 242.717C235.418 242.671 235.557 242.604 235.631 242.568C235.705 242.532 235.832 242.467 235.913 242.425C235.995 242.383 236.136 242.308 236.226 242.259C236.317 242.21 236.451 242.134 236.525 242.091C236.6 242.048 236.706 241.985 236.763 241.951C236.819 241.917 236.905 241.865 236.954 241.835C237.003 241.804 237.096 241.745 237.161 241.702C237.262 241.637 237.371 241.557 237.899 241.158C238.436 240.753 238.529 240.682 238.596 240.62C238.639 240.58 238.705 240.52 238.743 240.485C238.781 240.45 238.843 240.391 238.882 240.354C238.921 240.316 238.988 240.251 239.03 240.209C239.071 240.167 239.135 240.102 239.171 240.065C239.207 240.028 239.279 239.949 239.332 239.89C239.386 239.831 239.461 239.746 239.499 239.7C239.538 239.655 239.608 239.57 239.654 239.512C239.701 239.453 239.776 239.357 239.82 239.297C239.864 239.237 239.939 239.132 239.986 239.062C240.033 238.992 240.098 238.894 240.13 238.843C240.162 238.791 240.195 238.734 240.204 238.715C240.213 238.696 240.223 238.659 240.225 238.632C240.228 238.606 240.225 238.566 240.219 238.544C240.213 238.522 240.2 238.492 240.19 238.476C240.181 238.46 240.162 238.436 240.15 238.422C240.137 238.409 240.109 238.385 240.088 238.37C240.062 238.351 240.033 238.335 239.998 238.32C239.969 238.309 239.924 238.294 239.897 238.288C239.869 238.281 239.824 238.274 239.796 238.271C239.768 238.269 239.711 238.269 239.668 238.273C239.626 238.276 239.118 238.312 238.54 238.353C237.784 238.406 237.472 238.43 237.43 238.439C237.397 238.446 237.35 238.46 237.325 238.471C237.299 238.482 237.254 238.506 237.225 238.524C237.195 238.542 237.142 238.578 237.106 238.605L237.041 238.654L237.018 238.702C237.005 238.728 236.976 238.78 236.953 238.818C236.93 238.855 236.886 238.921 236.856 238.963C236.825 239.005 236.78 239.063 236.756 239.092C236.732 239.121 236.686 239.174 236.655 239.21C236.623 239.246 236.567 239.306 236.531 239.343C236.495 239.381 236.434 239.442 236.395 239.48C236.356 239.518 236.283 239.587 236.232 239.633C236.181 239.679 236.096 239.754 236.043 239.8C235.983 239.85 235.847 239.956 235.69 240.074C235.549 240.179 235.381 240.301 235.317 240.344C235.253 240.386 235.152 240.453 235.093 240.491C235.034 240.529 234.934 240.592 234.87 240.631C234.806 240.671 234.703 240.732 234.641 240.769C234.579 240.805 234.468 240.868 234.396 240.908C234.323 240.948 234.212 241.008 234.148 241.041C234.084 241.075 233.981 241.128 233.92 241.158C233.858 241.189 233.74 241.246 233.658 241.285C233.576 241.323 233.464 241.375 233.408 241.4C233.353 241.425 233.24 241.474 233.158 241.508C233.076 241.543 232.942 241.599 232.859 241.631C232.777 241.664 232.65 241.713 232.578 241.74C232.506 241.767 232.387 241.81 232.313 241.836C232.239 241.862 232.11 241.906 232.025 241.934C231.941 241.962 231.808 242.004 231.731 242.028C231.653 242.052 231.489 242.1 231.365 242.135C231.242 242.17 231.073 242.216 230.99 242.237C230.908 242.258 230.767 242.292 230.677 242.313C230.587 242.334 230.447 242.366 230.365 242.384C230.283 242.401 230.139 242.431 230.045 242.449C229.95 242.468 229.787 242.498 229.682 242.516C229.577 242.534 229.406 242.562 229.303 242.577C229.2 242.593 229.031 242.616 228.927 242.629C228.823 242.643 228.665 242.661 228.576 242.671C228.486 242.68 228.303 242.698 228.169 242.71C228.035 242.721 227.825 242.736 227.702 242.743C227.579 242.75 227.424 242.757 227.356 242.76C227.288 242.762 227.179 242.766 227.112 242.767C227.046 242.769 226.922 242.771 226.838 242.772C226.753 242.773 226.62 242.773 226.543 242.772C226.466 242.771 226.341 242.769 226.265 242.767C226.19 242.766 226.073 242.762 226.007 242.759C225.941 242.757 225.808 242.751 225.711 242.745C225.615 242.74 225.475 242.731 225.399 242.725C225.323 242.719 225.179 242.707 225.08 242.698C224.981 242.689 224.816 242.671 224.715 242.66C224.613 242.648 224.421 242.623 224.287 242.603C224.154 242.584 223.976 242.557 223.892 242.543C223.807 242.528 223.678 242.505 223.605 242.491C223.531 242.478 223.416 242.455 223.348 242.441C223.28 242.427 223.168 242.403 223.099 242.388C223.03 242.372 222.888 242.339 222.783 242.313C222.678 242.287 222.527 242.248 222.447 242.226C222.368 242.204 222.255 242.172 222.196 242.155C222.138 242.138 222.033 242.106 221.962 242.084C221.891 242.062 221.776 242.025 221.706 242.002C221.637 241.978 221.508 241.933 221.419 241.901C221.33 241.87 221.202 241.822 221.134 241.795C221.065 241.769 220.943 241.72 220.863 241.686C220.782 241.653 220.658 241.599 220.586 241.567C220.514 241.535 220.4 241.483 220.331 241.45C220.263 241.418 220.134 241.355 220.046 241.31C219.945 241.259 219.778 241.168 219.597 241.065C219.438 240.975 219.269 240.876 219.221 240.845C219.173 240.814 219.086 240.758 219.028 240.719C218.97 240.681 218.87 240.613 218.805 240.567C218.74 240.522 218.644 240.453 218.592 240.415C218.541 240.376 218.445 240.303 218.379 240.251C218.314 240.2 218.217 240.12 218.163 240.075C218.109 240.029 218.027 239.959 217.982 239.918C217.936 239.877 217.856 239.804 217.804 239.754C217.752 239.705 217.682 239.636 217.647 239.601C217.613 239.566 217.549 239.499 217.504 239.451C217.459 239.403 217.385 239.32 217.339 239.266C217.293 239.213 217.234 239.142 217.208 239.11C217.181 239.077 217.125 239.005 217.083 238.949C217.04 238.892 216.983 238.814 216.954 238.773C216.926 238.733 216.873 238.653 216.836 238.596C216.798 238.539 216.736 238.437 216.697 238.37C216.658 238.303 216.598 238.195 216.564 238.13C216.53 238.065 216.486 237.976 216.467 237.933C216.447 237.89 216.416 237.823 216.399 237.783C216.382 237.744 216.347 237.657 216.322 237.59C216.296 237.524 216.262 237.43 216.246 237.381C216.23 237.332 216.204 237.248 216.187 237.193C216.171 237.138 216.145 237.038 216.128 236.971C216.112 236.903 216.088 236.794 216.076 236.727C216.063 236.66 216.046 236.552 216.036 236.486C216.027 236.421 216.013 236.273 216.005 236.158C215.997 236.042 215.992 235.882 215.993 235.803C215.994 235.724 215.998 235.604 216.002 235.537C216.006 235.47 216.015 235.372 216.02 235.32C216.026 235.267 216.038 235.172 216.048 235.109C216.057 235.045 216.073 234.955 216.082 234.908C216.091 234.861 216.108 234.78 216.12 234.727C216.132 234.675 216.155 234.584 216.171 234.526C216.187 234.468 216.213 234.377 216.23 234.325C216.246 234.273 216.276 234.185 216.296 234.129C216.316 234.073 216.363 233.953 216.401 233.863C216.438 233.773 216.493 233.651 216.521 233.592C216.55 233.533 216.591 233.45 216.614 233.407C216.636 233.364 216.678 233.288 216.707 233.237C216.736 233.187 216.782 233.107 216.81 233.061C216.838 233.015 216.904 232.913 216.956 232.834C217.008 232.756 217.088 232.642 217.133 232.581C217.178 232.52 217.252 232.423 217.297 232.366C217.343 232.309 217.413 232.224 217.453 232.177C217.493 232.131 217.569 232.045 217.622 231.986C217.675 231.927 217.761 231.836 217.813 231.782C217.865 231.728 217.945 231.647 217.991 231.602C218.037 231.557 218.122 231.476 218.18 231.422C218.239 231.368 218.329 231.287 218.381 231.241C218.433 231.195 218.512 231.128 218.555 231.091C218.599 231.054 218.755 230.931 218.903 230.817C219.073 230.687 219.225 230.575 219.315 230.513C219.393 230.459 219.525 230.371 219.608 230.317C219.69 230.264 219.808 230.19 219.869 230.152C219.929 230.115 220.03 230.055 220.092 230.019C220.154 229.983 220.265 229.92 220.339 229.879C220.413 229.838 220.533 229.774 220.607 229.735C220.681 229.697 220.795 229.639 220.861 229.607C220.926 229.574 221.029 229.525 221.088 229.496C221.148 229.468 221.237 229.427 221.287 229.405C221.336 229.383 221.45 229.333 221.54 229.294C221.629 229.256 221.784 229.192 221.885 229.152C221.985 229.112 222.122 229.059 222.188 229.035C222.254 229.01 222.362 228.971 222.427 228.948C222.492 228.925 222.604 228.887 222.675 228.863C222.746 228.839 222.87 228.799 222.952 228.773C223.033 228.748 223.206 228.696 223.336 228.659C223.465 228.622 223.652 228.571 223.751 228.545C223.85 228.52 224.023 228.478 224.134 228.452C224.246 228.426 224.419 228.388 224.517 228.367C224.616 228.347 224.77 228.316 224.859 228.3C224.948 228.283 225.124 228.253 225.249 228.232C225.374 228.212 225.549 228.185 225.637 228.173C225.725 228.16 225.87 228.141 225.959 228.131C226.048 228.12 226.195 228.103 226.287 228.094C226.378 228.085 226.554 228.069 226.678 228.058C226.803 228.048 227.018 228.034 227.158 228.027C227.297 228.02 227.483 228.012 227.571 228.009C227.659 228.007 227.811 228.004 227.909 228.003C228.008 228.002 228.142 228.001 228.209 228.002C228.275 228.002 228.418 228.005 228.526 228.007C228.634 228.01 228.805 228.016 228.906 228.021C229.007 228.026 229.173 228.035 229.274 228.042C229.374 228.049 229.564 228.065 229.696 228.077C229.827 228.09 230.012 228.109 230.105 228.12C230.199 228.131 230.366 228.154 230.476 228.169C230.586 228.185 230.734 228.208 230.805 228.22C230.876 228.231 231.005 228.254 231.092 228.27C231.18 228.286 231.321 228.314 231.407 228.331C231.492 228.349 231.639 228.381 231.733 228.402C231.827 228.424 231.979 228.461 232.07 228.484C232.162 228.507 232.321 228.551 232.425 228.58C232.529 228.609 232.686 228.656 232.774 228.683C232.863 228.711 233.006 228.757 233.092 228.787C233.178 228.816 233.309 228.862 233.382 228.889C233.455 228.916 233.571 228.96 233.641 228.988C233.71 229.015 233.824 229.061 233.894 229.091C233.964 229.12 234.08 229.17 234.152 229.202C234.223 229.234 234.339 229.287 234.409 229.321C234.479 229.354 234.62 229.423 234.721 229.475C234.829 229.53 234.985 229.615 235.1 229.682C235.207 229.744 235.337 229.821 235.388 229.853C235.439 229.886 235.541 229.952 235.613 230C235.686 230.048 235.811 230.133 235.89 230.189C235.969 230.244 236.086 230.328 236.149 230.374C236.213 230.421 236.334 230.512 236.418 230.576C236.503 230.64 236.626 230.735 236.692 230.787C236.76 230.841 236.831 230.892 236.857 230.906C236.882 230.92 236.931 230.944 236.965 230.96C237 230.975 237.055 230.996 237.089 231.007C237.123 231.018 237.179 231.031 237.213 231.036L237.275 231.046L238.338 230.972C239.146 230.917 239.414 230.896 239.456 230.887C239.487 230.88 239.537 230.863 239.568 230.851C239.598 230.838 239.648 230.813 239.677 230.795C239.712 230.774 239.745 230.749 239.774 230.722C239.798 230.7 239.828 230.67 239.839 230.655C239.851 230.64 239.87 230.612 239.882 230.592C239.89 230.569 239.906 230.536 239.912 230.515C239.919 230.493 239.925 230.459 239.925 230.438C239.925 230.416 239.921 230.386 239.914 230.371C239.906 230.352 239.874 230.314 239.813 230.251C239.762 230.2 239.682 230.12 239.632 230.071C239.582 230.022 239.505 229.948 239.461 229.906C239.416 229.864 239.335 229.789 239.281 229.74C239.226 229.691 239.126 229.602 239.057 229.543C238.988 229.483 238.877 229.39 238.811 229.336C238.744 229.281 238.624 229.185 238.546 229.124L238.402 229.011L237.023 228.243ZM244.569 232.433L244.274 232.27L241.165 232.547L238.055 232.825L237.771 233.282C237.615 233.534 237.472 233.764 237.453 233.795L237.418 233.851L235.859 233.924L234.3 233.998L234.283 233.96C234.273 233.938 234.242 233.874 234.213 233.816C234.184 233.758 234.123 233.65 234.077 233.575C234.032 233.501 233.974 233.411 233.949 233.375C233.924 233.339 233.874 233.272 233.839 233.225C233.803 233.179 233.746 233.107 233.711 233.066C233.677 233.025 233.619 232.959 233.583 232.919C233.546 232.879 233.489 232.819 233.456 232.786C233.423 232.752 233.364 232.694 233.324 232.656C233.285 232.619 233.224 232.563 233.189 232.533C233.155 232.502 233.084 232.442 233.032 232.4C232.98 232.357 232.906 232.3 232.869 232.271C232.832 232.243 232.759 232.189 232.707 232.153C232.655 232.116 232.564 232.055 232.505 232.016C232.445 231.977 232.318 231.899 232.222 231.844C232.118 231.784 231.985 231.711 231.895 231.666C231.812 231.624 231.695 231.568 231.636 231.541C231.577 231.514 231.471 231.467 231.399 231.437C231.328 231.407 231.224 231.365 231.168 231.344C231.113 231.322 231.013 231.286 230.947 231.263C230.88 231.239 230.768 231.202 230.697 231.18C230.626 231.157 230.516 231.124 230.451 231.106C230.387 231.087 230.264 231.054 230.178 231.033C230.092 231.011 229.965 230.982 229.896 230.967C229.827 230.951 229.706 230.927 229.627 230.912C229.548 230.897 229.389 230.871 229.274 230.854C229.158 230.837 229 230.815 228.922 230.807C228.844 230.798 228.723 230.786 228.653 230.78C228.582 230.774 228.451 230.764 228.362 230.759C228.272 230.754 228.13 230.748 228.046 230.745C227.962 230.743 227.836 230.741 227.767 230.741C227.697 230.741 227.57 230.742 227.484 230.744C227.398 230.746 227.189 230.757 227.02 230.768C226.85 230.78 226.648 230.796 226.571 230.805C226.494 230.814 226.365 230.83 226.285 230.841C226.205 230.852 226.07 230.872 225.985 230.886C225.9 230.9 225.761 230.926 225.675 230.943C225.589 230.96 225.462 230.987 225.393 231.002C225.323 231.018 225.205 231.047 225.129 231.066C225.053 231.085 224.899 231.127 224.787 231.16C224.675 231.193 224.521 231.241 224.445 231.266C224.369 231.292 224.252 231.332 224.186 231.357C224.119 231.381 223.998 231.428 223.916 231.461C223.834 231.494 223.721 231.541 223.665 231.565C223.609 231.589 223.504 231.638 223.431 231.672C223.358 231.706 223.248 231.761 223.185 231.793C223.122 231.825 223.028 231.875 222.976 231.903C222.924 231.932 222.828 231.987 222.763 232.025C222.698 232.064 222.598 232.125 222.54 232.162C222.482 232.199 222.38 232.266 222.314 232.312C222.248 232.357 222.144 232.432 222.084 232.477C222.024 232.522 221.926 232.599 221.866 232.648C221.806 232.697 221.718 232.772 221.67 232.814C221.622 232.857 221.543 232.93 221.494 232.977C221.444 233.025 221.375 233.094 221.339 233.132C221.303 233.169 221.241 233.236 221.201 233.281C221.161 233.326 221.094 233.405 221.052 233.456C221.01 233.508 220.952 233.582 220.923 233.622C220.894 233.661 220.839 233.74 220.801 233.797C220.762 233.854 220.709 233.939 220.681 233.985C220.654 234.031 220.609 234.112 220.581 234.164C220.554 234.216 220.504 234.321 220.47 234.398C220.437 234.475 220.394 234.579 220.376 234.63C220.358 234.682 220.332 234.762 220.318 234.808C220.305 234.855 220.283 234.94 220.269 234.997C220.256 235.054 220.238 235.147 220.229 235.203C220.22 235.26 220.209 235.349 220.204 235.402C220.199 235.454 220.193 235.539 220.191 235.59C220.19 235.64 220.194 235.772 220.202 235.881C220.209 235.991 220.224 236.126 220.234 236.181C220.244 236.237 220.261 236.318 220.271 236.362C220.282 236.407 220.304 236.487 220.32 236.541C220.336 236.595 220.369 236.69 220.393 236.753C220.417 236.815 220.454 236.904 220.476 236.951C220.498 236.997 220.532 237.067 220.553 237.107C220.573 237.146 220.625 237.236 220.669 237.307C220.712 237.379 220.776 237.476 220.811 237.524C220.845 237.572 220.901 237.646 220.934 237.688C220.968 237.73 221.029 237.803 221.072 237.851C221.114 237.899 221.179 237.97 221.217 238.008C221.255 238.047 221.325 238.116 221.373 238.161C221.421 238.207 221.504 238.28 221.556 238.325C221.609 238.369 221.689 238.434 221.734 238.469C221.779 238.504 221.843 238.552 221.876 238.576C221.908 238.599 221.972 238.644 222.017 238.675C222.062 238.706 222.135 238.754 222.178 238.783C222.222 238.811 222.336 238.879 222.432 238.935C222.538 238.996 222.668 239.067 222.764 239.116C222.851 239.159 222.982 239.222 223.055 239.255C223.128 239.288 223.233 239.334 223.289 239.357C223.344 239.38 223.452 239.423 223.528 239.452C223.604 239.481 223.731 239.526 223.81 239.553C223.889 239.579 223.991 239.612 224.036 239.626C224.082 239.64 224.166 239.664 224.222 239.68C224.279 239.697 224.378 239.723 224.443 239.74C224.507 239.756 224.63 239.785 224.716 239.805C224.803 239.824 224.933 239.851 225.006 239.865C225.08 239.879 225.208 239.901 225.291 239.914C225.374 239.927 225.498 239.945 225.567 239.954C225.636 239.963 225.746 239.976 225.812 239.983C225.878 239.99 225.998 240.001 226.079 240.008C226.159 240.014 226.294 240.023 226.377 240.027C226.461 240.032 226.583 240.036 226.648 240.038C226.713 240.039 226.832 240.04 226.914 240.041C226.996 240.041 227.123 240.039 227.197 240.038C227.271 240.036 227.473 240.025 227.645 240.013C227.817 240.001 228.03 239.983 228.117 239.973C228.204 239.963 228.339 239.946 228.417 239.935C228.495 239.924 228.628 239.903 228.711 239.889C228.795 239.875 228.934 239.849 229.021 239.831C229.108 239.814 229.239 239.786 229.312 239.769C229.385 239.752 229.495 239.725 229.556 239.709C229.618 239.694 229.76 239.654 229.872 239.621C229.984 239.589 230.138 239.541 230.214 239.515C230.29 239.49 230.407 239.449 230.473 239.425C230.54 239.401 230.661 239.354 230.743 239.321C230.825 239.288 230.937 239.242 230.991 239.218C231.045 239.194 231.144 239.149 231.211 239.118C231.278 239.086 231.369 239.042 231.412 239.02C231.455 238.999 231.529 238.961 231.575 238.936C231.621 238.912 231.706 238.865 231.764 238.832C231.822 238.8 231.904 238.752 231.947 238.726C231.99 238.7 232.068 238.652 232.119 238.619C232.171 238.587 232.279 238.515 232.359 238.46C232.447 238.4 232.567 238.311 232.661 238.238C232.747 238.171 232.861 238.078 232.915 238.031C232.969 237.984 233.051 237.91 233.097 237.867C233.143 237.824 233.213 237.756 233.252 237.717C233.292 237.677 233.35 237.616 233.383 237.581C233.416 237.545 233.47 237.486 233.502 237.449C233.534 237.412 233.589 237.347 233.624 237.304C233.658 237.262 233.707 237.199 233.733 237.166C233.758 237.132 233.808 237.064 233.843 237.014C233.878 236.965 233.933 236.882 233.965 236.831C233.997 236.78 234.046 236.698 234.074 236.648C234.102 236.599 234.141 236.526 234.161 236.487C234.181 236.449 234.219 236.367 234.247 236.306C234.275 236.244 234.314 236.15 234.334 236.096C234.353 236.042 234.382 235.958 234.397 235.91L234.425 235.821L236.031 235.711L237.637 235.601L237.97 236.037L238.303 236.473L241.45 236.257C243.892 236.09 244.609 236.039 244.652 236.029C244.682 236.022 244.728 236.008 244.754 235.997C244.791 235.982 244.819 235.965 244.879 235.923C244.945 235.876 244.962 235.861 244.989 235.828C245.007 235.806 245.03 235.768 245.041 235.743C245.052 235.718 245.064 235.679 245.068 235.655C245.071 235.632 245.071 235.596 245.068 235.576C245.064 235.557 245.054 235.524 245.045 235.504C245.035 235.484 245.018 235.456 245.006 235.441C244.994 235.427 244.767 235.184 244.501 234.9C244.234 234.616 244.007 234.377 243.994 234.367C243.982 234.358 243.964 234.337 243.954 234.322C243.943 234.304 243.934 234.272 243.932 234.242C243.93 234.214 243.932 234.172 243.936 234.15C243.941 234.127 243.954 234.083 243.965 234.051L243.986 233.993L244.407 233.399C244.639 233.072 244.835 232.79 244.844 232.771C244.852 232.752 244.862 232.718 244.865 232.695C244.869 232.672 244.869 232.641 244.867 232.625L244.863 232.596L244.569 232.433ZM230.254 233.259C230.355 233.316 230.47 233.387 230.515 233.417C230.559 233.448 230.621 233.492 230.653 233.515C230.685 233.539 230.748 233.59 230.794 233.629C230.839 233.667 230.912 233.736 230.956 233.781C231 233.826 231.053 233.884 231.074 233.909C231.095 233.935 231.134 233.984 231.161 234.019C231.187 234.054 231.225 234.108 231.245 234.139C231.265 234.17 231.281 234.197 231.281 234.199C231.282 234.201 230.362 234.266 229.238 234.343C228.113 234.42 227.159 234.488 227.117 234.494C227.076 234.5 227.006 234.511 226.964 234.52C226.921 234.528 226.842 234.548 226.788 234.564C226.733 234.58 226.655 234.607 226.613 234.624C226.572 234.641 226.514 234.667 226.485 234.682C226.457 234.696 226.409 234.723 226.38 234.741C226.35 234.759 226.305 234.789 226.28 234.808C226.256 234.827 226.216 234.86 226.193 234.881C226.17 234.903 226.136 234.937 226.117 234.958C226.099 234.978 226.068 235.019 226.048 235.048C226.028 235.077 225.998 235.131 225.982 235.168C225.966 235.205 225.947 235.259 225.941 235.287C225.934 235.316 225.927 235.36 225.925 235.386C225.923 235.412 225.924 235.467 225.928 235.507C225.932 235.548 225.941 235.602 225.949 235.627C225.957 235.653 225.972 235.693 225.982 235.717C225.993 235.74 226.015 235.781 226.032 235.808C226.05 235.835 226.08 235.875 226.1 235.898C226.12 235.921 226.156 235.956 226.179 235.976C226.202 235.997 226.243 236.029 226.271 236.049C226.299 236.069 226.344 236.097 226.371 236.112C226.397 236.126 226.445 236.15 226.477 236.163C226.509 236.177 226.559 236.197 226.59 236.208C226.62 236.219 226.681 236.237 226.724 236.248C226.768 236.259 226.841 236.274 226.888 236.281C226.934 236.289 227.009 236.298 227.054 236.301C227.099 236.305 227.173 236.308 227.217 236.308C227.262 236.308 228.221 236.245 229.348 236.168C230.475 236.091 231.4 236.03 231.403 236.031C231.407 236.033 231.392 236.07 231.371 236.113C231.35 236.156 231.319 236.216 231.302 236.247C231.284 236.277 231.256 236.324 231.24 236.351C231.223 236.378 231.179 236.442 231.141 236.493C231.104 236.543 231.041 236.621 231.001 236.665C230.961 236.71 230.897 236.777 230.858 236.815C230.819 236.852 230.759 236.909 230.725 236.939C230.687 236.973 230.586 237.053 230.47 237.139C230.33 237.244 230.252 237.299 230.18 237.344C230.126 237.377 230.043 237.426 229.996 237.454C229.948 237.481 229.871 237.523 229.825 237.547C229.779 237.571 229.686 237.617 229.619 237.648C229.551 237.679 229.439 237.728 229.369 237.757C229.299 237.785 229.188 237.827 229.123 237.85C229.058 237.873 228.934 237.912 228.849 237.938C228.763 237.963 228.644 237.995 228.585 238.01C228.525 238.025 228.422 238.048 228.357 238.061C228.292 238.075 228.173 238.096 228.093 238.109C228.012 238.122 227.891 238.139 227.823 238.147C227.755 238.156 227.616 238.168 227.514 238.175C227.412 238.182 227.275 238.188 227.21 238.189C227.144 238.191 227.024 238.19 226.943 238.188C226.862 238.186 226.741 238.181 226.674 238.176C226.607 238.172 226.503 238.163 226.442 238.157C226.38 238.15 226.258 238.134 226.17 238.121C226.082 238.107 225.954 238.085 225.887 238.071C225.819 238.057 225.704 238.031 225.63 238.012C225.557 237.994 225.439 237.96 225.368 237.938C225.297 237.916 225.199 237.884 225.15 237.866C225.101 237.849 225.019 237.818 224.968 237.797C224.917 237.777 224.83 237.739 224.774 237.714C224.718 237.689 224.607 237.634 224.527 237.592C224.441 237.546 224.336 237.487 224.273 237.447C224.214 237.41 224.125 237.35 224.074 237.315C224.024 237.279 223.942 237.216 223.892 237.175C223.842 237.134 223.776 237.077 223.746 237.049C223.716 237.02 223.671 236.976 223.646 236.951C223.622 236.925 223.579 236.88 223.553 236.85C223.526 236.82 223.476 236.759 223.442 236.716C223.409 236.672 223.351 236.587 223.314 236.527C223.277 236.467 223.229 236.378 223.206 236.33C223.184 236.282 223.158 236.221 223.148 236.195C223.138 236.169 223.118 236.105 223.102 236.054C223.087 236.002 223.068 235.924 223.06 235.88C223.052 235.836 223.041 235.748 223.037 235.684C223.033 235.62 223.031 235.531 223.033 235.486C223.035 235.442 223.043 235.362 223.051 235.309C223.059 235.255 223.074 235.176 223.085 235.132C223.096 235.089 223.116 235.02 223.13 234.98C223.143 234.939 223.176 234.859 223.202 234.8C223.228 234.742 223.27 234.657 223.295 234.612C223.32 234.567 223.368 234.49 223.401 234.441C223.434 234.392 223.492 234.313 223.531 234.266C223.569 234.218 223.625 234.152 223.655 234.119C223.685 234.086 223.737 234.031 223.77 233.998C223.803 233.965 223.867 233.903 223.913 233.862C223.975 233.805 224.044 233.75 224.186 233.644C224.327 233.538 224.401 233.486 224.479 233.438C224.536 233.402 224.62 233.352 224.666 233.326C224.712 233.3 224.788 233.259 224.834 233.235C224.88 233.21 224.973 233.165 225.04 233.133C225.107 233.102 225.22 233.053 225.29 233.025C225.36 232.996 225.471 232.954 225.536 232.931C225.601 232.909 225.724 232.869 225.81 232.844C225.895 232.819 226.014 232.786 226.074 232.771C226.134 232.757 226.236 232.734 226.302 232.72C226.367 232.707 226.486 232.685 226.566 232.672C226.646 232.659 226.765 232.642 226.831 232.634C226.896 232.627 227.035 232.614 227.14 232.607C227.244 232.6 227.393 232.593 227.469 232.592C227.546 232.591 227.662 232.592 227.726 232.594C227.791 232.595 227.886 232.599 227.938 232.602C227.99 232.605 228.085 232.613 228.15 232.618C228.214 232.624 228.344 232.64 228.438 232.653C228.532 232.667 228.671 232.69 228.748 232.706C228.825 232.721 228.94 232.747 229.003 232.763C229.065 232.778 229.165 232.805 229.223 232.823C229.282 232.84 229.366 232.866 229.41 232.881C229.454 232.895 229.542 232.927 229.607 232.952C229.672 232.977 229.767 233.015 229.818 233.037C229.87 233.06 229.948 233.095 229.992 233.117C230.036 233.138 230.154 233.202 230.254 233.259Z" fill="#7DB834"/>
<path opacity="0.5" d="M92.965 231.205C92.8943 233.916 100.025 236.308 108.887 236.535C117.748 236.762 125.004 234.753 125.071 232.031C125.142 229.32 118.011 226.927 109.15 226.7C100.288 226.473 93.0356 228.494 92.965 231.205Z" fill="#32589D"/>
<path d="M110.292 215.847L109.396 213.371L108.337 212.087L108.359 213.424L110.292 215.847Z" fill="#C6C6C6"/>
<path d="M84.0502 224.794L83.1576 222.367C83.1576 222.367 85.9094 223.78 85.9242 223.826C85.9504 223.868 84.0502 224.794 84.0502 224.794Z" fill="#FFD85A"/>
<path d="M99.778 227.816C107.013 225.306 111.607 219.75 109.397 213.37C107.186 206.991 99.5292 203.867 92.2942 206.377C85.0593 208.887 80.9921 216.088 83.2027 222.467C85.4133 228.846 92.5431 230.326 99.778 227.816Z" fill="#FFD85A"/>
<path d="M101.216 231.945C108.451 229.435 112.518 222.234 110.308 215.855C108.097 209.476 100.44 206.352 93.2054 208.862C85.9704 211.372 81.9032 218.572 84.1138 224.952C86.3207 231.319 93.9815 234.455 101.216 231.945Z" fill="#FFD85A"/>
<path d="M103.723 209.065C106.775 210.344 109.206 212.696 110.296 215.859C112.507 222.238 108.44 229.438 101.205 231.948C97.6256 233.185 93.9484 233.045 90.8653 231.828L103.723 209.065Z" fill="#C6C6C6"/>
<path d="M84.7064 224.73C82.5913 218.638 86.4778 211.755 93.3873 209.356C100.297 206.957 107.613 209.951 109.728 216.042C111.843 222.134 107.956 229.017 101.047 231.416C94.1375 233.814 86.8216 230.821 84.7064 224.73Z" fill="#F9BF30"/>
<path d="M100.277 229.254C105.818 227.325 108.951 221.806 107.243 216.914C105.546 212.018 99.6702 209.617 94.1172 211.549C88.5642 213.482 85.4427 218.997 87.151 223.889C88.8556 228.769 94.7315 231.171 100.277 229.254Z" fill="#F2B42A"/>
<path d="M87.1511 223.889C87.0847 223.682 87.022 223.486 86.9672 223.276C88.9136 227.762 94.5366 229.889 99.8514 228.046C105.166 226.202 108.249 221.042 107.002 216.319C107.087 216.507 107.165 216.711 107.243 216.914C108.94 221.81 105.818 227.324 100.277 229.253C94.7316 231.171 88.8557 228.769 87.1511 223.889Z" fill="#FFD85A"/>
<path d="M95.5018 221.769L96.9592 219.184C99.1069 218.99 103.1 218.648 106.307 218.393C106.282 220.849 105.064 223.268 103.016 225.002L95.5018 221.769Z" fill="#FFD85A"/>
<path d="M100.619 226.519C100.296 226.66 99.9733 226.802 99.6393 226.909C97.2162 227.75 94.7275 227.673 92.6225 226.851L95.002 222.627L100.619 226.519Z" fill="#FFD85A"/>
<path d="M98.5223 216.414L101.277 211.536C102.958 212.265 104.539 213.153 105.403 214.74L98.5223 216.414Z" fill="#FFD85A"/>
<path d="M95.0022 212.445C89.4607 214.374 86.3277 219.893 88.0359 224.785C88.3797 225.778 88.893 226.665 89.5454 227.433C88.4784 226.481 87.6513 225.288 87.1633 223.885C85.4665 218.99 88.5881 213.475 94.1295 211.546C98.5534 210.013 103.185 211.229 105.734 214.266C103.082 211.896 98.9539 211.064 95.0022 212.445Z" fill="#C6C6C6"/>
<path d="M109.396 213.37C109.725 214.317 110.039 214.978 110.096 215.948C109.506 215.098 107.969 212.484 107.969 212.484L106.248 210.563L105.186 210.143L103.438 209.562L102.287 206.368C105.588 207.592 108.239 210.039 109.396 213.37Z" fill="#C6C6C6"/>
<path d="M83.7447 221.228L83.4734 220.579C83.4439 220.487 83.3375 220.433 83.257 220.459L83.211 220.473C83.119 220.503 83.0758 220.605 83.1053 220.697L83.3766 221.346C83.4061 221.438 83.5124 221.492 83.593 221.467L83.639 221.452C83.731 221.422 83.7779 221.331 83.7447 221.228Z" fill="#C6C6C6"/>
<path d="M84.0856 218.329L83.6332 217.155C83.6 217.052 83.4785 216.989 83.3864 217.019L83.2714 217.056C83.1679 217.089 83.1168 217.207 83.15 217.31L83.6025 218.484C83.6357 218.587 83.7572 218.65 83.8492 218.62L83.9642 218.584C84.0793 218.547 84.1303 218.429 84.0856 218.329Z" fill="#C6C6C6"/>
<path d="M84.9866 215.593L84.5489 214.465C84.5083 214.339 84.3753 214.28 84.2603 214.317L84.0532 214.383C83.9382 214.42 83.8793 214.553 83.9199 214.68L84.3576 215.807C84.3981 215.934 84.5312 215.993 84.6462 215.956L84.8533 215.889C84.9683 215.852 85.0271 215.719 84.9866 215.593Z" fill="#C6C6C6"/>
<path d="M86.8216 213.039L86.3028 211.658C86.2622 211.532 86.1292 211.473 86.0142 211.51L85.8071 211.576C85.6921 211.613 85.6332 211.746 85.6738 211.873L86.1926 213.253C86.2331 213.38 86.3662 213.439 86.4812 213.402L86.6883 213.335C86.7996 213.287 86.8585 213.154 86.8216 213.039Z" fill="#C6C6C6"/>
<path d="M88.8645 211.091L88.2678 209.507C88.2273 209.38 88.0943 209.322 87.9792 209.358L87.7722 209.425C87.6571 209.462 87.5983 209.595 87.6388 209.721L88.2355 211.305C88.2761 211.432 88.4091 211.49 88.5241 211.453L88.7312 211.387C88.854 211.335 88.9014 211.206 88.8645 211.091Z" fill="#C6C6C6"/>
<path d="M91.0658 209.599L90.4876 208.072C90.447 207.946 90.314 207.887 90.1989 207.924L89.9919 207.99C89.8768 208.027 89.818 208.16 89.8586 208.287L90.4368 209.813C90.4773 209.94 90.6104 209.998 90.7254 209.961L90.9324 209.895C91.0553 209.843 91.1142 209.71 91.0658 209.599Z" fill="#C6C6C6"/>
<path d="M93.4374 208.559L92.8518 207.01C92.8113 206.883 92.6782 206.825 92.5632 206.861L92.3561 206.928C92.2411 206.965 92.1822 207.098 92.2228 207.224L92.8084 208.774C92.8489 208.9 92.982 208.959 93.097 208.922L93.3041 208.856C93.4191 208.819 93.478 208.686 93.4374 208.559Z" fill="#C6C6C6"/>
<path d="M95.8984 207.834L95.346 206.388C95.3054 206.261 95.1724 206.203 95.0573 206.24L94.8503 206.306C94.7352 206.343 94.6764 206.476 94.717 206.602L95.2694 208.048C95.3099 208.175 95.4429 208.233 95.558 208.197L95.765 208.13C95.8879 208.078 95.9468 207.945 95.8984 207.834Z" fill="#C6C6C6"/>
<path d="M98.5321 207.572L98.0059 206.169C97.9654 206.042 97.8323 205.984 97.7173 206.02L97.5102 206.087C97.3952 206.124 97.3363 206.257 97.3769 206.383L97.9031 207.787C97.9436 207.913 98.0767 207.972 98.1917 207.935L98.3988 207.869C98.5253 207.828 98.5726 207.699 98.5321 207.572Z" fill="#C6C6C6"/>
<path d="M101.395 207.986L100.821 206.471C100.78 206.344 100.647 206.286 100.532 206.322L100.325 206.389C100.21 206.426 100.151 206.559 100.192 206.685L100.766 208.2C100.807 208.326 100.94 208.385 101.055 208.348L101.262 208.282C101.385 208.23 101.443 208.097 101.395 207.986Z" fill="#C6C6C6"/>
<path opacity="0.5" d="M175.606 44.9971C175.535 47.7079 182.665 50.1004 191.527 50.3274C200.389 50.5543 207.645 48.5448 207.712 45.8225C207.782 43.1117 200.652 40.7192 191.79 40.4922C182.928 40.2652 175.676 42.2863 175.606 44.9971Z" fill="#32589D"/>
<path d="M192.933 29.6395L192.037 27.1625L190.978 25.8791L191 27.2161L192.933 29.6395Z" fill="#C6C6C6"/>
<path d="M166.691 38.5864L165.798 36.1591C165.798 36.1591 168.55 37.5718 168.565 37.6178C168.591 37.6601 166.691 38.5864 166.691 38.5864Z" fill="#FFD85A"/>
<path d="M182.419 41.6078C189.654 39.0978 194.248 33.5417 192.037 27.1625C189.827 20.7833 182.17 17.6593 174.935 20.1694C167.7 22.6794 163.633 29.8797 165.843 36.2589C168.054 42.6381 175.184 44.1179 182.419 41.6078Z" fill="#FFD85A"/>
<path d="M183.857 45.7367C191.092 43.2267 195.159 36.0264 192.949 29.6472C190.738 23.268 183.081 20.144 175.846 22.6541C168.611 25.1641 164.544 32.3644 166.754 38.7436C168.961 45.1114 176.622 48.2468 183.857 45.7367Z" fill="#FFD85A"/>
<path d="M186.364 22.8573C189.416 24.1357 191.846 26.4882 192.937 29.651C195.147 36.0302 191.08 43.2304 183.845 45.7405C180.266 46.9768 176.589 46.8372 173.506 45.6195L186.364 22.8573Z" fill="#C6C6C6"/>
<path d="M167.347 38.5215C165.232 32.43 169.118 25.547 176.028 23.148C182.937 20.7491 190.253 23.7425 192.368 29.8341C194.484 35.9256 190.597 42.8085 183.688 45.2075C176.778 47.6065 169.462 44.6131 167.347 38.5215Z" fill="#F9BF30"/>
<path d="M182.917 43.0455C188.459 41.1165 191.592 35.5979 189.884 30.706C188.187 25.8104 182.311 23.4086 176.758 25.3414C171.205 27.2741 168.083 32.789 169.792 37.6809C171.496 42.5613 177.372 44.963 182.917 43.0455Z" fill="#F2B42A"/>
<path d="M169.792 37.6809C169.725 37.4739 169.663 37.2784 169.608 37.0678C171.554 41.5537 177.177 43.6815 182.492 41.8378C187.807 39.9941 190.89 34.8339 189.642 30.1113C189.728 30.2994 189.806 30.5026 189.884 30.7059C191.58 35.6015 188.459 41.1165 182.917 43.0455C177.372 44.963 171.496 42.5613 169.792 37.6809Z" fill="#FFD85A"/>
<path d="M178.142 35.5612L179.6 32.9764C181.748 32.7822 185.74 32.4403 188.948 32.1852C188.923 34.6406 187.704 37.06 185.657 38.7943L178.142 35.5612Z" fill="#FFD85A"/>
<path d="M183.26 40.3109C182.937 40.4525 182.614 40.5941 182.28 40.7012C179.857 41.5415 177.368 41.4646 175.263 40.6433L177.643 36.4188L183.26 40.3109Z" fill="#FFD85A"/>
<path d="M181.163 30.2055L183.917 25.3282C185.599 26.057 187.179 26.9451 188.044 28.5318L181.163 30.2055Z" fill="#FFD85A"/>
<path d="M177.643 26.2371C172.101 28.1661 168.968 33.6847 170.677 38.5766C171.02 39.5695 171.534 40.4574 172.186 41.2245C171.119 40.2733 170.292 39.0803 169.804 37.6772C168.107 32.7816 171.229 27.2666 176.77 25.3376C181.194 23.805 185.826 25.0206 188.375 28.058C185.722 25.6878 181.595 24.8559 177.643 26.2371Z" fill="#C6C6C6"/>
<path d="M192.037 27.1624C192.366 28.1094 192.679 28.7697 192.737 29.7403C192.146 28.8898 190.61 26.276 190.61 26.276L188.889 24.3552L187.827 23.9349L186.078 23.3544L184.927 20.1604C188.228 21.3844 190.88 23.8309 192.037 27.1624Z" fill="#C6C6C6"/>
<path d="M166.385 35.0198L166.114 34.3714C166.085 34.2794 165.978 34.2247 165.898 34.2505L165.852 34.2653C165.76 34.2948 165.716 34.3974 165.746 34.4894L166.017 35.1378C166.047 35.2298 166.153 35.2844 166.234 35.2586L166.28 35.2439C166.372 35.2144 166.419 35.1232 166.385 35.0198Z" fill="#C6C6C6"/>
<path d="M166.726 32.1211L166.274 30.9475C166.241 30.844 166.119 30.7815 166.027 30.811L165.912 30.8479C165.808 30.8811 165.757 30.9989 165.791 31.1024L166.243 32.276C166.276 32.3795 166.398 32.442 166.49 32.4124L166.605 32.3756C166.72 32.3387 166.771 32.2208 166.726 32.1211Z" fill="#C6C6C6"/>
<path d="M167.627 29.385L167.19 28.2573C167.149 28.1308 167.016 28.0721 166.901 28.1089L166.694 28.1753C166.579 28.2122 166.52 28.3452 166.561 28.4717L166.998 29.5993C167.039 29.7258 167.172 29.7846 167.287 29.7477L167.494 29.6813C167.609 29.6444 167.668 29.5114 167.627 29.385Z" fill="#C6C6C6"/>
<path d="M169.462 26.831L168.943 25.4504C168.903 25.324 168.77 25.2652 168.655 25.3021L168.448 25.3684C168.333 25.4053 168.274 25.5383 168.314 25.6648L168.833 27.0454C168.874 27.1719 169.007 27.2306 169.122 27.1937L169.329 27.1273C169.44 27.079 169.499 26.946 169.462 26.831Z" fill="#C6C6C6"/>
<path d="M171.505 24.8827L170.908 23.2988C170.868 23.1724 170.735 23.1136 170.62 23.1505L170.413 23.2169C170.298 23.2538 170.239 23.3867 170.279 23.5132L170.876 25.0971C170.917 25.2235 171.05 25.2823 171.165 25.2454L171.372 25.179C171.495 25.127 171.542 24.9977 171.505 24.8827Z" fill="#C6C6C6"/>
<path d="M173.706 23.3907L173.128 21.8643C173.088 21.7379 172.955 21.6791 172.84 21.716L172.633 21.7824C172.517 21.8192 172.459 21.9522 172.499 22.0787L173.077 23.6051C173.118 23.7316 173.251 23.7904 173.366 23.7535L173.573 23.6871C173.696 23.635 173.755 23.502 173.706 23.3907Z" fill="#C6C6C6"/>
<path d="M176.078 22.3511L175.492 20.8018C175.452 20.6753 175.319 20.6165 175.204 20.6534L174.997 20.7198C174.882 20.7567 174.823 20.8897 174.863 21.0162L175.449 22.5655C175.49 22.692 175.623 22.7508 175.738 22.7139L175.945 22.6475C176.06 22.6106 176.119 22.4776 176.078 22.3511Z" fill="#C6C6C6"/>
<path d="M178.539 21.6258L177.987 20.1799C177.946 20.0534 177.813 19.9946 177.698 20.0315L177.491 20.0979C177.376 20.1348 177.317 20.2678 177.358 20.3943L177.91 21.8402C177.951 21.9666 178.084 22.0254 178.199 21.9885L178.406 21.9221C178.529 21.8701 178.587 21.7371 178.539 21.6258Z" fill="#C6C6C6"/>
<path d="M181.173 21.3644L180.647 19.9608C180.606 19.8343 180.473 19.7755 180.358 19.8124L180.151 19.8788C180.036 19.9157 179.977 20.0487 180.018 20.1752L180.544 21.5787C180.584 21.7052 180.717 21.764 180.832 21.7271L181.039 21.6607C181.166 21.6202 181.213 21.4909 181.173 21.3644Z" fill="#C6C6C6"/>
<path d="M184.036 21.7776L183.461 20.2628C183.421 20.1363 183.288 20.0775 183.173 20.1144L182.966 20.1808C182.851 20.2177 182.792 20.3507 182.832 20.4771L183.407 21.992C183.447 22.1185 183.58 22.1773 183.695 22.1404L183.902 22.074C184.025 22.0219 184.084 21.8889 184.036 21.7776Z" fill="#C6C6C6"/>
<defs>
<linearGradient id="paint0_linear_94_13326" x1="60.2777" y1="36.0035" x2="145.043" y2="104.09" gradientUnits="userSpaceOnUse">
<stop stop-color="#BCD5FF"/>
<stop offset="0.151" stop-color="#A3BEFF"/>
<stop offset="0.3866" stop-color="#82A0FF"/>
<stop offset="0.6124" stop-color="#6A8AFF"/>
<stop offset="0.8221" stop-color="#5C7DFF"/>
<stop offset="1" stop-color="#5778FF"/>
</linearGradient>
<linearGradient id="paint1_linear_94_13326" x1="44.2369" y1="56.7325" x2="162.262" y2="19.8081" gradientUnits="userSpaceOnUse">
<stop stop-color="#C0D6FF"/>
<stop offset="0.2978" stop-color="#C5DBFF"/>
<stop offset="0.6488" stop-color="#D3E9FF"/>
<stop offset="1" stop-color="#E9FFFF"/>
</linearGradient>
<linearGradient id="paint2_linear_94_13326" x1="44.2369" y1="56.7325" x2="162.262" y2="19.8081" gradientUnits="userSpaceOnUse">
<stop stop-color="#C0D6FF"/>
<stop offset="0.2978" stop-color="#C5DBFF"/>
<stop offset="0.6488" stop-color="#D3E9FF"/>
<stop offset="1" stop-color="#E9FFFF"/>
</linearGradient>
<linearGradient id="paint3_linear_94_13326" x1="60.2777" y1="13.7104" x2="145.043" y2="81.7964" gradientUnits="userSpaceOnUse">
<stop stop-color="#BCD5FF"/>
<stop offset="0.151" stop-color="#A3BEFF"/>
<stop offset="0.3866" stop-color="#82A0FF"/>
<stop offset="0.6124" stop-color="#6A8AFF"/>
<stop offset="0.8221" stop-color="#5C7DFF"/>
<stop offset="1" stop-color="#5778FF"/>
</linearGradient>
<linearGradient id="paint4_linear_94_13326" x1="44.2369" y1="34.4392" x2="162.262" y2="-2.4851" gradientUnits="userSpaceOnUse">
<stop stop-color="#C0D6FF"/>
<stop offset="0.2978" stop-color="#C5DBFF"/>
<stop offset="0.6488" stop-color="#D3E9FF"/>
<stop offset="1" stop-color="#E9FFFF"/>
</linearGradient>
<linearGradient id="paint5_linear_94_13326" x1="196.28" y1="214.706" x2="281.046" y2="282.792" gradientUnits="userSpaceOnUse">
<stop stop-color="#BCD5FF"/>
<stop offset="0.151" stop-color="#A3BEFF"/>
<stop offset="0.3866" stop-color="#82A0FF"/>
<stop offset="0.6124" stop-color="#6A8AFF"/>
<stop offset="0.8221" stop-color="#5C7DFF"/>
<stop offset="1" stop-color="#5778FF"/>
</linearGradient>
<linearGradient id="paint6_linear_94_13326" x1="180.24" y1="235.434" x2="298.265" y2="198.51" gradientUnits="userSpaceOnUse">
<stop stop-color="#C0D6FF"/>
<stop offset="0.2978" stop-color="#C5DBFF"/>
<stop offset="0.6488" stop-color="#D3E9FF"/>
<stop offset="1" stop-color="#E9FFFF"/>
</linearGradient>
</defs>
</svg>
